<?xml version="1.0" encoding="utf-8"?>
<!-- Generator: Adobe Illustrator 24.1.3, SVG Export Plug-In . SVG Version: 6.00 Build 0)  -->
<svg version="1.1" id="Слой_1" xmlns="http://www.w3.org/2000/svg" xmlns:xlink="http://www.w3.org/1999/xlink" x="0px" y="0px"
	 viewBox="0 0 150 80" style="enable-background:new 0 0 150 80;" xml:space="preserve">
<style type="text/css">
	.st0{fill:#101479;}
	.st1{fill:#FD8912;}
	.st2{fill:#F84A0C;}
	.st3{fill:#999999;}
</style>
<g>
	<g>
		<path class="st0" d="M23.2,38.8c-0.8-0.3-1.5-0.4-2.3-0.4c-0.8,0-1.7,0.2-2.5,0.3c-0.1,0-0.2,0-0.3,0c-0.4,0-0.5-0.2-0.5-0.7
			c0-0.8-0.1-1.6,0-2.3c0-0.2,0.3-0.6,0.5-0.7c1.8-0.4,3.5-0.7,5.3-1c0.3-0.1,0.6-0.1,0.9-0.2c0.7-0.2,0.9-0.8,0.6-1.6
			c-0.2-0.5-0.4-0.7-0.8-0.7c-0.1,0-0.3,0-0.5,0.1c-1.8,0.4-3.7,0.8-5.5,1.1c0,0,0,0-0.1,0c-0.2,0-0.5-0.2-0.6-0.4
			c-0.2-0.6-0.5-0.9-1-0.9c-0.1,0-0.2,0-0.3,0c-0.7,0.1-1,0.6-0.9,1.3c0,0.5-0.2,0.8-0.7,0.9c-1.6,0.5-3.2,0.9-4.7,1.4
			c-0.8,0.3-1.5,0.6-2.1,1c-0.7,0.6-0.5,1.4,0.4,1.7c0.3,0.1,0.6,0.2,0.9,0.2c0.3,0,0.7-0.1,1-0.5c0.1-0.1,0.4-0.2,0.6-0.2
			c0.7-0.2,1.4-0.4,2.1-0.6c0.5-0.2,1-0.4,1.5-0.6c0.4-0.1,0.6-0.2,0.8-0.2c0.3,0,0.3,0.3,0.3,1c0,0.3,0.1,0.5,0.1,0.8
			c0.1,2.4,1.1,4.7,0.9,7.1c0,0.3,0.2,0.6,0.3,0.8c0.1,0.3,0.2,0.6,0.4,0.9c0.3,0.3,0.6,0.8,0.9,0.8c0,0,0,0,0,0
			c1.1,0,1.9-1.2,1.3-2.1c-0.6-1-0.8-1.9-0.8-3c0-0.2-0.1-0.3-0.1-0.4c-0.3-0.5,0-0.9,0.5-0.9c0.7-0.1,1.4-0.1,2.1-0.1
			c0.4,0,0.8,0,1.2,0.1c1.6,0.3,2.3,1.9,1.4,3.4c-0.9,1.5-2.2,2.6-3.7,3.2c-0.6,0.3-1.3,0.5-2,0.5c-0.4,0-0.9-0.1-1.3-0.4
			c-0.1-0.1-0.2-0.1-0.3-0.1c-0.3,0-0.7,0.1-0.9,0.3c-0.8,0.7-0.6,1.5,0.6,2c0.7,0.3,1.4,0.4,2.1,0.4c0.5,0,1.1-0.1,1.6-0.2
			c2.4-0.7,4.2-2.2,5.8-4.1c0.6-0.7,1-1.6,0.9-2.6C26,40.9,25.1,39.6,23.2,38.8z"/>
		<path class="st0" d="M105.5,34.1c0.6-0.1,1-0.8,0.6-1.3c-0.3-0.3-0.8-0.7-1.2-0.7c-0.1,0-0.1,0-0.2,0c-0.8,0-1.6,0.2-2.4,0.2
			c-1.2,0.2-2.4,0.3-3.6,0.5c-0.7,0.1-1.4,0.3-2.1,0.5c-0.1,0-0.2,0.1-0.3,0.1c-0.2,0-0.3-0.1-0.5-0.4c-0.2-0.3-0.5-0.6-0.7-0.6
			c0,0,0,0,0,0c-0.4,0.1-0.9,0.4-0.9,0.7c-0.1,0.8-0.6,0.9-1.2,1c-0.7,0.2-1.3,0.3-2,0.5c-0.7,0.1-1.2,0.6-1.1,1.1
			c0.1,0.5,0.5,0.8,1.1,0.8c0.1,0,0.2,0,0.3,0c0.7-0.1,1.3-0.3,2-0.5c0.2-0.1,0.4-0.1,0.5-0.1c0.3,0,0.4,0.2,0.4,0.7
			c0,1.3,0,2.6-0.1,4c-0.1,1.5-0.1,2.9-0.2,4.3c-0.1,0.9-0.2,1.8-0.1,2.7c0,0.8,0.7,1.3,1.4,1.3c0,0,0.1,0,0.1,0c0.6,0,1-0.5,1-1.1
			c0-2.1-0.2-3.9-0.2-6c0,0,0-0.1,0-0.1l0-0.1c0,0,0-0.1,0-0.1c0-1.8,0-3.6,0-5.3c0-0.6,0.2-0.9,0.8-1c1.3-0.2,2.5-0.4,3.8-0.6
			c0.1,0,0.2,0,0.3,0c0.5,0,0.7,0.3,0.8,0.9c0,0.2,0,0.4,0,0.5c-0.1,2.8-0.1,5.7-0.1,8.5c0,0.7,0.4,1.4-0.1,2
			c-0.1,0.1,0,0.3,0.1,0.4c0.3,0.5,0.7,0.8,1.1,0.8c0.1,0,0.3,0,0.4-0.1c0.8-0.4,0.9-0.8,0.6-1.6c-0.1-0.2-0.1-0.4-0.1-0.6
			c0-1.6-0.1-3.2-0.1-4.9c0-1.1,0-2.2,0.1-3.3c0-0.5,0.2-1,0.2-1.4c-0.1-1.5,0.1-1.8,1-1.8c0.2,0,0.4,0,0.6,0c0,0,0.1,0,0.1,0
			C105.3,34.2,105.4,34.1,105.5,34.1z"/>
		<path class="st0" d="M39.3,43.6c-0.2-0.5-0.3-1.1-0.4-1.6c-0.2-0.9-0.8-1.9,0.4-2.7c0.6-0.4,0.4-1.2-0.5-1.4
			c-0.5-0.2-0.8-0.5-0.8-1c-0.1-1.1-0.2-2.3-0.3-3.4c-0.1-0.7-0.4-1-1-1c0,0,0,0,0,0c-0.1,0-0.3,0-0.4,0c-0.3,0-0.6,0-0.8-0.1
			c-0.3-0.1-0.6-0.2-0.8-0.2c-0.8,0-1.3,0.6-1.7,1.4c-0.3,0.4-0.4,0.9-0.6,1.4c-0.4,1.4-0.7,2.7-1.3,4.1c-0.3,0.6-0.9,1.2-1.4,1.5
			c-0.9,0.6-1.2,1.2-0.7,2.2c0.1,0.2,0.2,0.4,0.1,0.6c-0.3,0.9-0.6,1.9-0.9,2.8c-0.1,0.4-0.2,0.8-0.3,1.2c0,0.8,0.5,1,1.1,1.2
			c0.1,0,0.2,0,0.3,0c0.5,0,0.8-0.2,1-0.8c0.2-0.7,0.5-1.4,0.8-2.1c0.2-0.5,0.3-1,0.4-1.3c-0.2-1.1,0-2,0.8-2.2
			c1.1-0.3,2.2-0.6,3.3-1.1c0.1,0,0.2,0,0.2,0c0.1,0,0.1,0,0.2,0c0.4,0,0.6,0.2,0.6,0.7c0,0.3,0.1,0.6,0.2,0.9
			c0.2,0.7,0.4,1.3,0.5,2c0.2,0.7,0.2,1.3,0.5,2c0.2,0.5,0.8,0.9,1.3,0.9c0.1,0,0.2,0,0.3-0.1c0.8-0.3,1.1-1.8,0.6-2.5
			C39.7,44.4,39.5,44,39.3,43.6z M35.5,38.8c-0.6,0.3-1.3,0.5-1.9,0.7c0,0-0.1,0-0.1,0c-0.1,0-0.2,0-0.3-0.1c-0.1-0.1-0.1-0.3,0-0.4
			c0.4-0.9,0.7-1.9,1.1-2.8c0.1-0.2,0.1-0.4,0.2-0.5c0.2-0.3,0.5-0.6,0.8-0.9c0.2,0.3,0.1,0.5,0.2,0.8l0.1,0.2
			c0.1,0.6,0.2,1.3,0.4,1.9C36.2,38.2,35.9,38.6,35.5,38.8z"/>
		<path class="st0" d="M117.6,36.1c-0.3-0.2-0.6-0.7-0.6-1c0-0.8,0-1.4,0.1-2.1c0,0,0-0.1,0-0.1v-0.2c0-0.4,0-0.9,0.1-1.3
			c0.1-0.7-0.2-1-0.9-1.1c-0.4-0.1-0.9-0.2-1.3-0.4c-0.3-0.2-0.5-0.2-0.8-0.2c-0.3,0-0.7,0.1-0.9,0.4c-0.5,0.4-0.9,0.8-1.2,1.3
			c-0.6,1-1,2-1.5,3c-0.6,1.1-1.1,2.2-2.5,2.6c-1,0.3-1.2,0.6-1.1,1.6c0,0.5-0.1,1-0.3,1.5c-0.3,0.6-0.7,1.2-1,1.8
			c-0.2,0.5-0.5,0.9-0.6,1.4c-0.2,0.6,0.2,1,0.8,1.2c0.2,0.1,0.4,0.1,0.5,0.1c0.3,0,0.6-0.2,0.8-0.5c0.7-1.4,1.8-2.5,2-4.1
			c0.1-0.7,0.7-1.2,1.4-1.2c0,0,0.1,0,0.1,0c0.3,0,0.6,0,0.8,0c0.5,0,1.1-0.1,1.6-0.4c0.1-0.1,0.3-0.1,0.4-0.1c0.1,0,0.3,0,0.4,0
			c0.7,0,0.8,0.2,0.7,1.1c0,0.2,0.1,0.4,0.1,0.7c0.1,0.6,0.1,1.3,0.1,1.9c0,0.6-0.1,1.3,0,1.9c0.1,0.7,0.7,1.3,1.3,1.3
			c0.1,0,0.3,0,0.4-0.1c0.9-0.6,1.1-1.4,0.6-2.4c-0.1-0.2-0.2-0.5-0.2-0.7c-0.1-1-0.1-2.1-0.2-3.1c-0.1-0.6,0.1-1,0.7-1.3
			C118.4,37.3,118.3,36.7,117.6,36.1z M114.9,33.6c0,0.6-0.1,1.1,0,1.6c0.1,0.7-0.2,1.1-0.8,1.2c-0.5,0.1-1,0.2-1.5,0.3
			c0,0,0,0,0-0.1c-0.2,0-0.4,0.1-0.5,0.1c0,0-0.1,0-0.1,0c-0.4,0-0.5-0.3-0.3-0.6c0.6-1,1.2-2,1.9-2.9c0.2-0.4,0.4-0.9,0.9-0.9
			c0.1,0,0.1,0,0.2,0C115.4,32.5,114.9,33.1,114.9,33.6z"/>
		<path class="st0" d="M78.4,34.3c-1-0.4-2-0.8-3-0.8c-0.2,0-0.5,0-0.7,0.1c-2.2,0.5-4,1.7-5.5,3.3c-0.3,0.3-0.4,0.7-0.1,1.1
			c0.3,0.3,0.3,0.7-0.1,0.9c-0.6,0.3-0.6,0.7-0.5,1.2c0.1,0.5,0.2,0.9,0.3,1.4c0.7,3.5,3.1,4.9,6.8,5.1c0.5-0.1,1.5-0.3,2.4-0.7
			c2.7-1.1,4.4-3.1,5.4-5.8c0.4-1.2,0.3-2.1-0.5-3C81.5,35.7,80,34.9,78.4,34.3z M80.7,40.8c-1.1,1.8-2.6,3-4.7,3.5
			c-0.4,0.1-0.7,0.1-1.1,0.1c-2.3,0-4.2-1.8-4.2-4.3c-0.1-0.8,0.4-1.5,0.9-2.1c0.2-0.3,0.5-0.5,0.2-0.9c-0.1-0.1,0.2-0.4,0.4-0.6
			c0.4-0.2,0.8-0.3,1.1-0.5c0.6-0.4,1.1-0.6,1.8-0.6c0.3,0,0.5,0,0.8,0.1c1.3,0.5,2.6,0.8,3.8,1.5C81.5,38.1,81.8,39.1,80.7,40.8z"
			/>
		<path class="st0" d="M148.7,46.4c-0.1-0.2-0.3-0.4-0.6-0.4c-0.1,0-0.2,0-0.4,0.1c-0.1,0.1-0.2,0.1-0.3,0.1c-0.2,0-0.3-0.2-0.4-0.5
			c0-0.3,0-0.6,0-0.8c0-2.5,0-5,0-7.5c0-0.6-0.1-1.3-0.7-1.4c0,0-0.1,0-0.1,0c-0.5,0-1,0.4-1.5,0.6c-0.1,0.1-0.2,0.2-0.3,0.3
			c-0.7,1.3-1.3,2.6-2,3.9c-0.7,1.5-1.5,2.9-2.2,4.4c-0.1,0.1-0.2,0.3-0.3,0.3c-0.4,0.2-0.8,0.5-1.1,0.5c-0.1,0-0.1,0-0.1,0
			c-0.3-0.1-0.7-0.7-0.7-1.1c-0.2-2.3-1-4.7,0.1-7c0.3-0.6-0.2-1.2-0.8-1.4c-0.1-0.1-0.2-0.1-0.3-0.1c-0.4,0-0.6,0.4-0.7,0.7
			c-0.3,0.5-0.5,1.1-0.6,1.7c-0.1,1.6-0.1,3.2,0.1,4.9c0.1,1.1,0.4,2.2,0.8,3.3c0.4,1,1.4,1.5,2.4,1.5c0.2,0,0.4,0,0.5-0.1
			c1.3-0.2,2.1-1.1,2.6-2.2c0.7-1.3,1.3-2.7,2-4.1c0.1-0.2,0.3-0.4,0.4-0.6c0.1,0,0.2,0.1,0.2,0.1c0,0.2,0,0.4,0,0.6
			c0.1,1.4,0.1,2.9,0.3,4.3c0.1,0.6,0.4,1.3,0.7,1.8c0.3,0.5,0.8,0.8,1.2,0.8c0.4,0,0.8-0.3,1.2-0.7c0.2-0.3,0.4-0.6,0.5-1
			C148.8,47,148.8,46.6,148.7,46.4z"/>
		<path class="st0" d="M67.8,45.2c-0.2,0-0.4,0-0.6,0c-0.3,0-0.5,0-0.7,0c-0.3,0-0.5,0.1-0.8,0.1c-0.4,0.1-0.8,0.1-1.2,0.1h-0.1
			c-0.6,0-1.2-0.1-1.7-0.3c-1.6-0.4-3-1.2-4.2-2c-0.2-0.2-0.4-0.4-0.4-0.6c0-0.2,0.1-0.4,0.3-0.6c0.4-0.4,0.9-0.7,1.3-0.9
			c0.4-0.3,0.8-0.5,1.2-0.8c0.9-0.6,1.9-1.2,2.8-1.8c0.1-0.1,0.2-0.2,0.2-0.3c0.2-0.2,0.3-0.6,0.2-0.8c0-0.6-0.4-1.1-1-1.1
			c-0.1,0-0.2,0-0.2,0c-0.3,0-0.6,0.1-0.8,0.2c-0.2,0.1-0.4,0.3-0.5,0.6c-0.3,0.6-0.8,1.1-1.5,1.3c-1.1,0.4-2,1.1-2.6,2.2
			c-0.1,0.1-0.3,0.2-0.4,0.3c-0.1,0-0.1,0.1-0.2,0.1l-0.1,0v-0.1c0-0.1,0-0.2,0-0.2c0-0.2-0.1-0.3,0-0.5c0.5-1.5,0.4-3,0.1-4.4
			c-0.1-0.5-0.4-1-1-1c-0.1,0-0.1,0-0.2,0l0,0c-0.5,0.1-0.9,0.6-0.9,1.3c0,0.2,0,0.4,0.1,0.6c0,0.1,0,0.2,0,0.3c0,0.1,0,0.2,0.1,0.4
			c0,0.2,0.1,0.5,0,0.7l0,0.2c-0.2,1.8-0.5,3.7-0.1,5.5c0,0.1,0,0.2,0,0.3c0,0.1,0,0.1,0,0.2c0,0.3,0.1,0.5,0.1,0.8
			c0.1,0.7,0.2,1.5,0.3,2.2c0.2,0.7,0.7,1.1,1.4,1.1h0.1c0.7,0,0.9-0.6,1.1-1.1c0-0.1,0-0.1,0.1-0.2c0.2-0.6-0.1-0.9-0.5-1.2
			c-0.1,0-0.1-0.1-0.2-0.1c-0.2-0.1-0.3-0.3-0.4-0.5c-0.1-0.1-0.1-0.2-0.2-0.2l0,0l0,0c0,0,0.1-0.1,0.1-0.1c0,0,0.1-0.1,0.1-0.1l0,0
			h0c0,0,0,0,0.1,0c0,0,0.1,0,0.1,0c0,0,0.1,0,0.1,0c0.2,0.1,0.3,0.2,0.4,0.3c1,0.8,2.1,1.5,3.3,1.9c0.5,0.2,1.1,0.3,1.7,0.4
			c0.6,0.1,1.2,0.1,2,0.1c0.7,0,1.3,0,2-0.1c0.4,0,0.7,0,1.1,0c0.6,0,1.1-0.4,1.1-1C68.9,45.7,68.5,45.3,67.8,45.2z"/>
		<path class="st0" d="M130.7,35.3c0.8-0.2,1.5-0.4,2.3-0.6c1.9-0.3,3.8-0.6,5.8-0.9c0.5-0.1,1.1-0.2,1-0.8c0-0.4-0.4-0.9-0.7-1.1
			c-0.1-0.1-0.2-0.1-0.4-0.1c-0.2,0-0.5,0-0.7,0c-0.2,0-0.5,0.2-0.7,0.2h0c-0.1,0-0.1,0-0.2,0c-2.2,0-4.3,0.7-6.4,1.3
			c-0.2,0-0.3,0.1-0.4,0.1c-0.3,0-0.4-0.1-0.6-0.4c-0.2-0.3-0.7-0.5-1-0.5c0,0,0,0-0.1,0c-0.4,0-0.8,0.2-0.8,0.8
			c0,0.2-0.2,0.5-0.3,0.5c-0.7,0.2-1.4,0.4-2.1,0.4c-0.1,0-0.1,0-0.2,0c-1.3,0-2.6-0.2-3.9-0.2c-0.3,0-0.7,0.2-0.9,0.5
			c-0.5,0.7,0.2,1.8,1.1,1.8c0,0,0.1,0,0.1,0c1.8-0.1,3.7-0.3,5.5-0.4c0.1,0,0.1,0,0.1,0c0.4,0,0.6,0.1,0.6,0.6c0,2,0,4,0,6
			c0,0.2,0,0.4,0.1,0.5c0.5,0.6,0.3,1.2,0.1,1.8c-0.5,1.3-0.2,2.5,0.7,3.5c0.3,0.3,0.8,0.6,1.2,0.6c0.1,0,0.1,0,0.1,0
			c0.5,0,0.9-0.5,0.8-1c-0.3-1-0.6-2-0.9-3c-0.1-0.3-0.1-0.5-0.1-0.8c0-1.3,0-2.5,0-3.8h0c0-1.4,0-2.8,0-4.2
			C130.1,35.6,130.3,35.4,130.7,35.3z"/>
		<path class="st0" d="M52.7,39.4c-0.2-0.1-0.4-0.2-0.7-0.2c-0.7,0-1.5,0.3-1.7,0.7c-0.6,0.9-1.5,1.4-2.4,1.7
			c-0.2,0.1-0.4,0.1-0.5,0.1c-0.2,0-0.5,0-0.7-0.1c-1-0.4-2.1-2.1-2-3.1c0.3-2,1.2-3.7,2.9-4.9c0.2-0.1,0.4-0.2,0.6-0.2
			c0.4,0,0.7,0.3,0.8,0.8c0,0.2,0,0.4,0.1,0.5c0.1,0.6,0.5,0.8,1,0.8c0.1,0,0.1,0,0.2,0c0.6-0.1,1.1-0.3,1.1-1c0-1.1-0.4-2.2-1.2-3
			c-0.5-0.5-1-0.7-1.6-0.7c-0.4,0-0.8,0.1-1.2,0.3c-3,1.7-4.7,4.1-4.8,7.6c-0.1,2,0.9,3.5,2.5,4.5c0.7,0.5,1.5,0.9,2.3,0.9
			c0.4,0,0.9-0.1,1.3-0.4c1.2-0.7,2.3-1.5,3.4-2.3c0.4-0.3,0.7-0.8,0.9-1.2C53,40,52.9,39.5,52.7,39.4z"/>
	</g>
	<g>
		<g>
			<g>
				<path class="st1" d="M20.1,44.6c0.2,0.3,0.3,0.7,0.4,1.1c0.8-0.5,1.4-1.2,1.9-2.1c0.2-0.4,0.3-0.8,0.1-1.1
					c-0.1-0.3-0.4-0.5-0.8-0.6c-0.3-0.1-0.6-0.1-1-0.1c-0.4,0-0.8,0-1.3,0.1h0c0,0.1,0,0.2,0,0.3C19.4,43.1,19.6,43.8,20.1,44.6z"/>
				<path class="st1" d="M65,39.3l-0.3-0.3c-0.1,0.1-0.3,0.3-0.4,0.4c-0.9,0.7-1.9,1.3-2.8,1.8c-0.3,0.2-0.6,0.4-0.8,0.5
					c-0.1,0.1-0.3,0.2-0.4,0.3c-0.3,0.2-0.5,0.3-0.7,0.4c1.1,0.7,2.5,1.4,4,1.6l1.3-1.3C66,41.9,66,40.3,65,39.3z"/>
				<path class="st1" d="M49.3,39.3c0.6-0.9,1.8-1.2,2.7-1.2c0.6,0,1,0.1,1.4,0.4c0.1,0.1,0.3,0.2,0.4,0.4c0-0.3,0.1-0.5,0.1-0.8
					l0-0.1c0-0.1,0-0.2,0-0.3l0-0.1c0-0.1,0-0.3-0.1-0.4c0,0,0-0.1,0-0.1c0-0.1,0-0.1,0-0.2l0-0.1c0-0.2-0.1-0.4-0.1-0.7
					c0-1.3,0.7-2.3,1.8-2.5c0.1,0,0.3,0,0.4,0c1.2,0,2,1,2.1,2c0.1,0.7,0.2,1.5,0.2,2.4c0.4-0.3,0.9-0.5,1.4-0.7
					c0.4-0.2,0.7-0.4,0.8-0.7c0.2-0.4,0.4-0.7,0.8-1l-3.9-3.9c-1-1-2.6-1-3.6,0l-1.5,1.5c0.1,0.4,0.2,0.9,0.2,1.3
					c0,1-0.5,2.1-2.2,2.2c-0.1,0-0.2,0-0.2,0c-0.4,0-0.8-0.1-1.1-0.3l-2.8,2.8c0,0,0,0-0.1,0.1c0,0.1,0.1,0.2,0.2,0.3
					c0.3,0.5,0.7,0.8,0.8,0.9c0.1,0,0.1,0,0.2,0c0.1,0,0.1,0,0.2,0C48.4,40.2,48.9,39.8,49.3,39.3z"/>
				<path class="st1" d="M59.1,47.6c-0.1,0.3-0.3,0.7-0.6,1.1c-0.4,0.5-1,0.8-1.6,0.8h-0.2c-1.3,0-2.3-0.8-2.6-2
					c-0.2-0.8-0.3-1.6-0.4-2.3v0c0-0.3-0.1-0.5-0.1-0.8c0-0.2,0-0.4,0-0.5c-0.1-0.8-0.2-1.5-0.2-2.3c-0.2,0.3-0.5,0.7-0.9,0.9
					c-1.2,0.9-2.3,1.6-3.5,2.3c-0.3,0.2-0.5,0.3-0.8,0.4l5.4,5.4c1,1,2.6,1,3.6,0l2.7-2.7c-0.3-0.1-0.6-0.2-0.8-0.4
					C59.2,47.5,59.2,47.6,59.1,47.6z"/>
				<path class="st1" d="M15,23.8L0.7,38.1c-1,1-1,2.6,0,3.6L15,55.9c1,1,2.6,1,3.6,0l6.7-6.7L24,48.6c-1.1,1-2.6,1.9-4.3,2.4
					c-0.7,0.2-1.3,0.3-1.9,0.3c-0.9,0-1.7-0.2-2.5-0.5c-1-0.4-1.6-1.1-1.8-1.9c-0.1-0.7,0.2-1.5,0.9-2c0.3-0.2,0.7-0.4,1.2-0.5
					c0,0,0,0,0-0.1c0,0,0-0.1,0-0.1c0,0,0-0.1,0-0.1c0,0-0.1-0.1-0.1-0.2c-0.1-0.2-0.3-0.6-0.3-1.1c0.1-1.2-0.2-2.4-0.4-3.6
					l-0.1-0.3c-0.2-1-0.4-2-0.5-3.1c0-0.1,0-0.2,0-0.3c0-0.1,0-0.1,0-0.2c0,0-0.1,0-0.1,0.1c-0.1,0-0.1,0.1-0.2,0.1
					c-0.3,0.1-0.5,0.2-0.8,0.3c-0.5,0.2-0.9,0.3-1.3,0.4l-0.1,0c-0.2,0.1-0.5,0.1-0.7,0.2c-0.1,0-0.1,0-0.2,0c0,0-0.1,0-0.1,0
					c-0.5,0.5-1.1,0.7-1.7,0.7c-0.5,0-0.9-0.1-1.3-0.3c-0.9-0.3-1.5-0.9-1.6-1.7c-0.1-0.8,0.2-1.5,0.9-2.1c0.6-0.5,1.4-0.9,2.5-1.2
					c1-0.3,2.1-0.6,3-0.9l0.3-0.1c0.4-0.1,0.9-0.2,1.3-0.4c0-0.5,0.1-1,0.4-1.4c0.2-0.3,0.7-0.8,1.5-0.9c0.2,0,0.4-0.1,0.5-0.1
					c0.5,0,1.1,0.2,1.5,0.6c0.2,0.2,0.4,0.4,0.5,0.7c1.7-0.3,3.4-0.7,5-1c0.3-0.1,0.5-0.1,0.7-0.1c0.5,0,1.5,0.2,1.9,1.4
					c0,0.1,0.1,0.2,0.1,0.3l0,0l0.3-0.6l-7.8-7.8C17.6,22.8,16,22.8,15,23.8z"/>
				<path class="st1" d="M24.5,35c-0.3,0.1-0.6,0.1-0.8,0.2l-0.1,0c-0.5,0.1-1,0.2-1.4,0.3c-0.3,0.1-0.6,0.1-0.8,0.2
					c-0.9,0.2-1.7,0.3-2.6,0.5c0,0.3,0,0.7,0,1.1c0,0,0,0.1,0,0.1c0,0,0,0,0,0.1c0.7-0.1,1.5-0.2,2.2-0.2c0.8,0,1.5,0.1,2.1,0.3
					L24.5,35z"/>
			</g>
			<g>
				<path class="st2" d="M44.3,44.2c-1-0.6-1.7-1.4-2.3-2.3c-0.6-1-0.8-2-0.7-3.2c0.1-3,1.3-5.5,3.6-7.4l-12-6.6
					c-1.2-0.7-2.7-0.2-3.4,1l-3.2,5.8L26,32.2l0,0c0,0,0,0,0,0c0,0,0,0.1,0,0.1c0,0,0,0,0,0.1c0,0,0,0.1,0,0.1c0,0,0,0,0,0.1
					c0,0,0,0.1,0,0.1c0,0,0,0,0,0.1c0,0,0,0.1,0,0.1c0,0,0,0,0,0.1s0,0.1,0,0.1c0,0,0,0,0,0.1c0,0,0,0.1,0,0.1c0,0,0,0,0,0
					c0,0,0,0.1,0,0.1c0,0,0,0,0,0c0,0,0,0.1,0,0.1c0,0,0,0,0,0c0,0,0,0,0,0.1c0,0,0,0,0,0c0,0,0,0,0,0.1c0,0,0,0,0,0c0,0,0,0,0,0.1
					c0,0,0,0,0,0c0,0,0,0,0,0.1c0,0,0,0,0,0c0,0,0,0,0,0.1s0,0,0,0c0,0,0,0.1,0,0.1c-0.3,0.5-0.7,0.9-1.3,1.1c0,0,0,0-0.1,0
					l-1.4,2.6c0.1,0,0.2,0.1,0.3,0.1c0.1,0,0.2,0.1,0.3,0.1c1.2,0.5,2.1,1.2,2.7,2c0.6,0.9,0.9,2,0.9,3.3c0.1,1.1-0.3,2.3-1.2,3.4
					c-0.1,0.1-0.1,0.2-0.2,0.2c0,0,0,0,0,0c-0.1,0.1-0.1,0.2-0.2,0.2c0,0,0,0,0,0c-0.1,0.1-0.1,0.2-0.2,0.2l0,0
					c-0.1,0.1-0.2,0.2-0.2,0.2c0,0,0,0,0,0c-0.1,0.1-0.2,0.2-0.2,0.2c0,0,0,0,0,0c-0.1,0.1-0.2,0.2-0.2,0.2c0,0,0,0,0,0
					c-0.1,0.1-0.2,0.2-0.3,0.2c0,0,0,0,0,0c-0.1,0.1-0.2,0.2-0.3,0.2l0,0l1.2,0.7l13.3,7.3c1.2,0.7,2.7,0.2,3.4-1l5.7-10.3
					c-0.1,0-0.2,0-0.4,0C46.1,45.3,45.1,44.7,44.3,44.2z M41.3,46.6c-0.3,0.9-0.8,1.5-1.5,1.8c-0.2,0.1-0.5,0.1-0.7,0.1
					c-0.5,0-1-0.2-1.4-0.5c-0.5-0.3-0.8-0.8-1-1.3c-0.2-0.5-0.3-0.9-0.3-1.3l0-0.2c0-0.2-0.1-0.4-0.1-0.5c-0.1-0.5-0.2-0.9-0.3-1.2
					c-0.1-0.2-0.1-0.5-0.2-0.7v0c0-0.1,0-0.1-0.1-0.2c0-0.1-0.1-0.2-0.1-0.2c-0.8,0.4-1.7,0.6-2.5,0.8l-0.1,0c-0.1,0-0.1,0-0.2,0
					c0,0-0.1,0-0.1,0c0,0.1-0.1,0.4,0,0.9l0,0.3l-0.1,0.3c0,0.1,0,0.1-0.1,0.2c0,0,0,0.1,0,0.1c0,0.1,0,0.2-0.1,0.2
					c-0.1,0.3-0.2,0.6-0.3,0.9c-0.1,0.4-0.3,0.8-0.4,1.1l-0.1,0.2c-0.1,0.3-0.2,0.5-0.3,0.8c-0.4,1-1.1,1.5-2.1,1.5
					c-0.2,0-0.3,0-0.5-0.1c-1.6-0.3-2-1.3-2.1-1.9c0-0.2,0-0.4,0-0.5c0-0.5,0.2-1,0.3-1.5c0.1-0.4,0.3-0.9,0.4-1.3
					c0-0.1,0.1-0.2,0.1-0.3c0.1-0.3,0.2-0.7,0.3-1c-0.4-0.8-0.4-1.5-0.2-2.1c0.3-0.8,0.9-1.3,1.3-1.5c0.5-0.3,0.9-0.7,1-1
					c0.3-0.8,0.6-1.6,0.8-2.5c0,0,0-0.1,0-0.1c0.1-0.5,0.3-1,0.4-1.4l0-0.1c0.2-0.5,0.3-1,0.6-1.5c0.4-0.6,1.2-1.9,2.8-1.9
					c0.4,0,0.8,0.1,1.2,0.2c0.1,0,0.4,0,0.4,0h0.4c0.6,0,1.2,0.2,1.5,0.6c0.4,0.4,0.6,0.9,0.7,1.5c0,0.4,0.1,0.8,0.1,1.1
					c0,0.2,0,0.3,0,0.4c0.1,0.6,0.1,1.2,0.2,1.8c0.9,0.3,1.5,0.9,1.6,1.7c0.1,0.7-0.2,1.4-0.9,1.8c-0.2,0.1-0.2,0.2-0.2,0.2
					c0,0.1,0.1,0.3,0.1,0.6l0,0.1c0,0.1,0,0.1,0,0.2c0,0.1,0.1,0.3,0.1,0.4c0,0,0,0.1,0,0.1c0,0.1,0,0.1,0,0.1l0,0.1
					c0.1,0.4,0.2,0.7,0.3,1c0.1,0.3,0.3,0.7,0.5,1C41.4,44.7,41.5,45.7,41.3,46.6z"/>
				<path class="st2" d="M51.9,36c-0.3,0.4-0.9,0.6-1.6,0.7c-0.1,0-0.2,0-0.2,0c-0.4,0-0.8-0.1-1.1-0.3c-0.6-0.3-0.9-0.8-1.1-1.5
					c0-0.1,0-0.1,0-0.1c-1.1,0.9-1.7,2.1-2,3.8c0,0.1,0,0.4,0.2,0.7c0,0.1,0.1,0.2,0.2,0.3c0.3,0.5,0.7,0.8,0.8,0.9
					c0.1,0,0.1,0,0.2,0c0.1,0,0.1,0,0.2,0c0.9-0.3,1.5-0.7,1.8-1.2c0.5-0.7,1.4-1.1,2.3-1.2l0.1-0.2C52,37.3,52.1,36.6,51.9,36z"/>
			</g>
		</g>
		<g>
			<path class="st3" d="M20,44.6c0.2,0.3,0.3,0.7,0.4,1.1l0,0.1l0.1-0.1c0.8-0.6,1.5-1.3,2-2.1c0.2-0.4,0.3-0.8,0.1-1.2
				c-0.1-0.3-0.4-0.5-0.9-0.6c-0.3-0.1-0.6-0.1-1-0.1c-0.4,0-0.8,0-1.3,0.1l-0.1,0l0,0.1c0,0.1,0,0.2,0,0.3
				C19.3,43.1,19.5,43.8,20,44.6z M19.4,41.9c0.5,0,0.9-0.1,1.3-0.1c0.4,0,0.7,0,1,0.1c0.4,0.1,0.7,0.3,0.8,0.6
				c0.1,0.3,0.1,0.7-0.1,1.1c-0.5,0.8-1.1,1.5-1.9,2.1c0-0.4-0.2-0.7-0.4-1.1c-0.5-0.7-0.7-1.5-0.7-2.4C19.4,42.1,19.4,42,19.4,41.9
				L19.4,41.9z"/>
			<path class="st3" d="M104.6,34.2c0.2,0,0.4,0,0.6,0c0,0,0.1,0,0.1,0c0.1,0,0.2,0,0.3,0c0.4-0.1,0.6-0.3,0.7-0.6
				c0.1-0.3,0-0.5-0.1-0.7c-0.3-0.3-0.8-0.7-1.2-0.7h-0.2c-0.5,0-1,0.1-1.4,0.1c-0.3,0-0.6,0.1-0.9,0.1c-0.2,0-0.4,0.1-0.6,0.1
				c-1,0.1-2,0.2-3,0.4c-0.6,0.1-1.3,0.3-2.1,0.5c-0.1,0-0.2,0.1-0.3,0.1c-0.2,0-0.3-0.1-0.4-0.3c-0.2-0.3-0.5-0.6-0.8-0.6h0
				c-0.4,0.1-1,0.4-1,0.7c-0.1,0.7-0.5,0.8-1,0.9l-0.1,0c-0.2,0.1-0.5,0.1-0.7,0.2c-0.4,0.1-0.9,0.2-1.3,0.3
				c-0.7,0.2-1.2,0.6-1.1,1.2c0.1,0.5,0.5,0.8,1.2,0.8c0.1,0,0.2,0,0.2,0h0c0.7-0.1,1.3-0.3,2-0.5c0.2-0.1,0.4-0.1,0.5-0.1
				c0.2,0,0.3,0.1,0.3,0.7c0,1.3,0,2.6-0.1,4c-0.1,1.5-0.1,2.9-0.2,4.3c0,0.3,0,0.6-0.1,0.9c0,0.6-0.1,1.2-0.1,1.9
				c0,0.8,0.7,1.3,1.5,1.3h0.1c0.6,0,1.1-0.5,1.1-1.1c0-1,0-2-0.1-3c0-1-0.1-1.9-0.1-3c0,0,0,0,0,0c0,0,0-0.1,0-0.1l0-0.1v-0.1
				c0-0.4,0-0.9,0-1.3c0-1.3,0-2.7,0-4c0-0.6,0.2-0.9,0.7-0.9c0.6-0.1,1.3-0.2,1.9-0.3c0.6-0.1,1.3-0.2,1.9-0.3c0.1,0,0.2,0,0.3,0
				c0.5,0,0.7,0.3,0.7,0.9c0,0.1,0,0.2,0,0.3c0,0.1,0,0.2,0,0.2l0,1.2c-0.1,2.4-0.1,4.9-0.1,7.3c0,0.2,0,0.4,0.1,0.7
				c0.1,0.5,0.2,0.9-0.1,1.3c-0.1,0.1,0,0.4,0.1,0.5c0.3,0.5,0.7,0.8,1.2,0.8c0.1,0,0.3,0,0.4-0.1c0.8-0.4,1-0.8,0.7-1.6
				c-0.1-0.2-0.1-0.4-0.1-0.6c0-0.4,0-0.8,0-1.2c0-1.2,0-2.4,0-3.7c0-1.1,0-2.2,0.1-3.3c0-0.2,0.1-0.4,0.1-0.6
				c0.1-0.3,0.1-0.5,0.1-0.8c0-0.8,0-1.4,0.2-1.6C104,34.2,104.2,34.2,104.6,34.2z M103.6,35.9c0,0.3,0,0.5-0.1,0.8
				c0,0.2-0.1,0.4-0.1,0.6c-0.1,1.1-0.1,2.2-0.1,3.3c0,1.2,0,2.5,0,3.7c0,0.4,0,0.8,0,1.2c0,0.2,0,0.4,0.1,0.6
				c0.3,0.8,0.1,1.1-0.6,1.5c-0.1,0.1-0.2,0.1-0.4,0.1c-0.4,0-0.8-0.3-1.1-0.7c-0.1-0.1-0.1-0.3-0.1-0.4c0.3-0.5,0.2-1,0.2-1.4
				c0-0.2-0.1-0.4-0.1-0.6c0-2.4,0.1-4.9,0.1-7.3l0-1.2c0-0.1,0-0.2,0-0.2c0-0.1,0-0.2,0-0.3c0-0.7-0.3-1-0.8-1c-0.1,0-0.2,0-0.3,0
				c-0.6,0.1-1.3,0.2-1.9,0.3s-1.3,0.2-1.9,0.3c-0.6,0.1-0.8,0.4-0.8,1c0,1.3,0,2.7,0,4c0,0.4,0,0.9,0,1.3v0.1l0,0.1c0,0,0,0,0,0.1
				c0,0,0,0,0,0.1c0,1,0,2,0.1,3c0,1,0.1,2,0.1,3c0,0.6-0.4,1-1,1H95c-0.8,0-1.3-0.5-1.4-1.2c0-0.6,0-1.2,0.1-1.8
				c0-0.3,0-0.6,0.1-0.9c0.1-1.4,0.1-2.9,0.2-4.3c0-1.3,0.1-2.7,0.1-4c0-0.5-0.1-0.8-0.4-0.8c-0.1,0-0.3,0-0.5,0.1
				c-0.6,0.2-1.3,0.4-2,0.5h0c-0.1,0-0.2,0-0.2,0c-0.6,0-1-0.3-1.1-0.8c-0.1-0.5,0.4-0.9,1.1-1c0.4-0.1,0.9-0.2,1.3-0.3
				c0.2-0.1,0.5-0.1,0.7-0.2l0.1,0c0.5-0.1,1-0.2,1.1-1c0-0.2,0.6-0.6,0.9-0.6h0c0.2,0,0.5,0.3,0.7,0.6c0.2,0.3,0.3,0.4,0.5,0.4
				c0.1,0,0.2,0,0.3-0.1c0.8-0.3,1.5-0.4,2.1-0.5c1-0.2,2-0.3,3-0.4c0.2,0,0.4-0.1,0.6-0.1c0.3,0,0.6-0.1,0.9-0.1
				c0.5-0.1,1-0.1,1.4-0.1h0.2c0.4,0,0.9,0.3,1.1,0.7c0.2,0.2,0.2,0.4,0.1,0.6c-0.1,0.3-0.3,0.5-0.7,0.6c-0.1,0-0.2,0-0.3,0
				c0,0-0.1,0-0.1,0c-0.2,0-0.4,0-0.6,0c-0.4,0-0.6,0.1-0.7,0.2C103.6,34.6,103.5,35.1,103.6,35.9z"/>
			<path class="st3" d="M35.8,36.3c0-0.2-0.1-0.4-0.1-0.6l-0.1-0.2c-0.1-0.2-0.1-0.3-0.1-0.4c0-0.2-0.1-0.3-0.1-0.5l0-0.1l-0.1,0.1
				c-0.1,0.1-0.2,0.2-0.2,0.2c-0.2,0.2-0.4,0.4-0.6,0.6c-0.1,0.1-0.1,0.2-0.2,0.4c0,0.1,0,0.1-0.1,0.2c-0.4,0.9-0.8,1.9-1.1,2.8
				c-0.1,0.1-0.1,0.4,0,0.5c0.1,0.1,0.2,0.1,0.3,0.1c0,0,0.1,0,0.1,0c0.1,0,0.2-0.1,0.4-0.1c0.5-0.2,1.1-0.3,1.6-0.5
				s0.7-0.6,0.5-1.2C35.9,37.2,35.9,36.8,35.8,36.3z M35.5,38.7c-0.5,0.2-1,0.4-1.5,0.5c-0.1,0-0.2,0.1-0.4,0.1c0,0-0.1,0-0.1,0
				c-0.1,0-0.2,0-0.2-0.1c0-0.1,0-0.2,0-0.4c0.4-0.9,0.8-1.9,1.1-2.8c0-0.1,0.1-0.1,0.1-0.2c0-0.1,0.1-0.3,0.2-0.3
				c0.2-0.2,0.4-0.4,0.6-0.6c0.1-0.1,0.1-0.1,0.2-0.2c0.1,0.2,0.1,0.3,0.1,0.4c0,0.1,0,0.2,0.1,0.4l0.1,0.2c0,0.2,0.1,0.4,0.1,0.6
				c0.1,0.5,0.1,0.9,0.3,1.4C36.1,38.2,35.9,38.5,35.5,38.7z"/>
			<path class="st3" d="M39.4,43.6c-0.1-0.4-0.2-0.8-0.3-1.3c0-0.1-0.1-0.2-0.1-0.3c0-0.2-0.1-0.3-0.1-0.5c-0.2-0.8-0.4-1.5,0.5-2.1
				c0.3-0.2,0.4-0.5,0.4-0.7c-0.1-0.4-0.4-0.7-0.8-0.8c-0.5-0.2-0.7-0.4-0.8-1c-0.1-0.6-0.1-1.2-0.2-1.7c-0.1-0.6-0.1-1.1-0.2-1.7
				c-0.1-0.7-0.4-1-1.1-1h-0.4c-0.2,0-0.5,0-0.8-0.1c-0.3-0.1-0.6-0.2-0.8-0.2c-0.9,0-1.4,0.7-1.8,1.4c-0.2,0.4-0.4,0.8-0.5,1.2
				l-0.1,0.2c-0.1,0.5-0.3,0.9-0.4,1.4c-0.3,0.9-0.5,1.8-0.9,2.7c-0.2,0.5-0.7,1.1-1.4,1.5c-1,0.6-1.2,1.3-0.7,2.2
				c0.1,0.2,0.2,0.4,0.1,0.6c-0.2,0.6-0.4,1.1-0.5,1.7c-0.1,0.4-0.3,0.8-0.4,1.1c-0.1,0.4-0.2,0.8-0.3,1.2c0,0.7,0.3,1.1,1.2,1.2
				c0.1,0,0.2,0,0.3,0c0.5,0,0.8-0.3,1-0.8c0.1-0.4,0.3-0.8,0.4-1.1c0.1-0.3,0.2-0.6,0.4-0.9c0.1-0.4,0.2-0.7,0.3-1
				c0-0.1,0.1-0.2,0.1-0.3v0v0c-0.1-0.9-0.1-1.9,0.8-2.2c0.1,0,0.2-0.1,0.4-0.1c1-0.3,2-0.5,2.9-1.1c0,0,0.1,0,0.1,0
				c0,0,0.1,0,0.1,0c0.1,0,0.1,0,0.2,0c0.4,0,0.6,0.2,0.6,0.6c0,0.2,0.1,0.5,0.1,0.7c0,0.1,0,0.1,0.1,0.2c0.1,0.2,0.1,0.4,0.2,0.6
				c0.1,0.5,0.3,0.9,0.4,1.4c0.1,0.3,0.1,0.5,0.2,0.8c0.1,0.4,0.2,0.8,0.3,1.2c0.2,0.6,0.9,1,1.4,1c0.1,0,0.2,0,0.3-0.1
				c0.4-0.2,0.7-0.6,0.8-1.1c0.2-0.6,0.1-1.2-0.2-1.5C39.8,44.4,39.5,44,39.4,43.6z M40.1,46.3c-0.1,0.5-0.4,0.9-0.8,1
				c-0.1,0-0.2,0.1-0.2,0.1c-0.5,0-1.1-0.4-1.3-0.9c-0.1-0.4-0.2-0.8-0.3-1.2c-0.1-0.3-0.1-0.5-0.2-0.8c-0.1-0.5-0.3-0.9-0.4-1.4
				c-0.1-0.2-0.1-0.4-0.2-0.6c0-0.1,0-0.1-0.1-0.2c-0.1-0.2-0.1-0.4-0.1-0.6c0-0.5-0.2-0.7-0.7-0.7c-0.1,0-0.1,0-0.2,0
				c0,0,0,0-0.1,0c-0.1,0-0.1,0-0.2,0c-0.9,0.5-1.9,0.8-2.9,1c-0.1,0-0.2,0.1-0.4,0.1c-0.7,0.2-1,1-0.8,2.3c0,0.1-0.1,0.2-0.1,0.3
				c-0.1,0.3-0.2,0.6-0.3,1c-0.1,0.3-0.2,0.6-0.4,0.9c-0.1,0.4-0.3,0.8-0.4,1.1c-0.2,0.5-0.5,0.7-0.9,0.7c-0.1,0-0.2,0-0.3,0
				C28.3,48.3,28,48,28,47.4c0-0.4,0.1-0.8,0.3-1.2c0.1-0.4,0.3-0.8,0.4-1.1c0.2-0.6,0.4-1.1,0.5-1.7c0.1-0.2,0-0.5-0.1-0.7
				c-0.5-0.9-0.3-1.5,0.7-2.1c0.3-0.2,1.1-0.8,1.4-1.6c0.4-0.9,0.6-1.8,0.9-2.7c0.1-0.4,0.3-0.9,0.4-1.4l0.1-0.2
				c0.1-0.4,0.3-0.9,0.5-1.2c0.4-0.8,0.9-1.3,1.7-1.3c0.2,0,0.5,0.1,0.8,0.2c0.3,0.1,0.6,0.1,0.8,0.1h0.4c0.6,0,0.9,0.3,1,0.9
				c0.1,0.6,0.1,1.2,0.2,1.7s0.1,1.1,0.2,1.7c0,0.6,0.3,0.9,0.9,1.1c0.4,0.1,0.7,0.4,0.8,0.7c0,0.2-0.1,0.5-0.3,0.6
				c-1,0.7-0.8,1.5-0.6,2.2c0.1,0.2,0.1,0.3,0.1,0.5c0,0.1,0.1,0.2,0.1,0.3c0.1,0.4,0.2,0.9,0.3,1.3c0.2,0.4,0.4,0.9,0.7,1.2
				C40.2,45.2,40.3,45.7,40.1,46.3z"/>
			<path class="st3" d="M40.4,43.1c-0.1-0.3-0.2-0.7-0.3-1l0-0.1c0-0.1,0-0.1,0-0.1c0-0.1,0-0.1,0-0.1c0-0.2-0.1-0.3-0.1-0.4
				c0-0.1,0-0.1,0-0.2l0-0.1c-0.1-0.2-0.1-0.5-0.1-0.6c0,0,0.1-0.1,0.2-0.2c0.7-0.4,1-1.1,0.9-1.8c-0.1-0.8-0.7-1.4-1.6-1.7
				c-0.1-0.7-0.1-1.3-0.2-1.8c0-0.1,0-0.3,0-0.4c0-0.4-0.1-0.8-0.1-1.1c-0.1-0.6-0.3-1.1-0.7-1.5c-0.4-0.4-0.9-0.6-1.5-0.6h-0.4
				c-0.1,0-0.3,0-0.4,0c-0.5-0.1-0.9-0.2-1.2-0.2c-1.6,0-2.4,1.3-2.8,1.9c-0.3,0.5-0.5,1.1-0.6,1.5l0,0.1c-0.1,0.4-0.3,0.9-0.4,1.4
				c-0.2,0.9-0.5,1.8-0.8,2.6c-0.1,0.3-0.5,0.7-1,1c-0.4,0.3-1.1,0.8-1.3,1.5c-0.2,0.6-0.1,1.3,0.2,2.1c-0.1,0.3-0.2,0.7-0.3,1
				c0,0.1-0.1,0.2-0.1,0.3c-0.1,0.4-0.3,0.8-0.4,1.3c-0.1,0.5-0.3,0.9-0.3,1.5c0,0.5,0.1,2,2.1,2.4c0.2,0,0.4,0.1,0.5,0.1
				c1,0,1.7-0.6,2.1-1.5c0.1-0.3,0.2-0.5,0.3-0.8l0.1-0.2c0.1-0.4,0.3-0.7,0.4-1.1c0.1-0.3,0.2-0.6,0.3-0.9c0-0.1,0.1-0.2,0.1-0.2
				c0,0,0-0.1,0-0.1c0-0.1,0-0.1,0.1-0.2l0.1-0.3l0-0.3c-0.1-0.5,0-0.8,0-0.9c0,0,0.1,0,0.1,0c0.1,0,0.1,0,0.2,0l0.1,0
				c0.8-0.2,1.6-0.4,2.5-0.8c0,0.1,0.1,0.2,0.1,0.2c0,0.1,0,0.1,0.1,0.2v0c0.1,0.3,0.1,0.5,0.2,0.7c0.1,0.3,0.2,0.8,0.3,1.2
				c0.1,0.2,0.1,0.4,0.1,0.5l0,0.2c0.1,0.4,0.2,0.9,0.3,1.3c0.2,0.5,0.5,0.9,1,1.3c0.4,0.3,1,0.5,1.4,0.5c0.2,0,0.5,0,0.7-0.1
				c0.7-0.3,1.2-0.9,1.5-1.8c0.3-0.9,0.1-1.8-0.3-2.5C40.7,43.8,40.6,43.5,40.4,43.1z M41.2,46.5c-0.2,0.8-0.7,1.5-1.4,1.8
				c-0.2,0.1-0.4,0.1-0.7,0.1c-0.5,0-0.9-0.2-1.4-0.5c-0.5-0.3-0.8-0.7-1-1.2c-0.2-0.5-0.3-0.9-0.3-1.3l0-0.2c0-0.2-0.1-0.4-0.1-0.5
				c-0.1-0.5-0.2-0.9-0.3-1.2c-0.1-0.2-0.1-0.5-0.2-0.7v0c0-0.1,0-0.1-0.1-0.2c0-0.1-0.1-0.2-0.1-0.3l0-0.1l-0.1,0
				c-0.8,0.4-1.7,0.6-2.5,0.8l-0.1,0c-0.1,0-0.1,0-0.1,0c-0.1,0-0.1,0-0.2,0l0,0l0,0c-0.1,0.2-0.1,0.4,0,1l0,0.2l-0.1,0.2
				c0,0.1,0,0.1-0.1,0.2c0,0,0,0.1,0,0.1c0,0.1,0,0.2-0.1,0.2c-0.1,0.3-0.2,0.6-0.3,0.9c-0.1,0.4-0.3,0.8-0.4,1.1l-0.1,0.2
				c-0.1,0.3-0.2,0.5-0.3,0.8c-0.3,0.9-1.1,1.5-2,1.5c-0.2,0-0.3,0-0.5-0.1c-1.9-0.4-2-1.7-2-2.3c0-0.5,0.2-1,0.3-1.4
				c0.1-0.4,0.3-0.9,0.4-1.3c0-0.1,0.1-0.2,0.1-0.3c0.1-0.3,0.2-0.7,0.3-1l0,0l0,0c-0.4-0.8-0.4-1.4-0.2-2c0.3-0.8,0.8-1.2,1.3-1.5
				c0.5-0.3,0.9-0.7,1-1.1c0.3-0.8,0.6-1.7,0.8-2.6c0.1-0.5,0.3-1,0.4-1.4l0-0.1c0.2-0.5,0.3-1,0.6-1.5c0.4-0.6,1.1-1.8,2.7-1.8
				c0.4,0,0.7,0.1,1.2,0.2c0.1,0,0.4,0,0.5,0h0.4c0.6,0,1.1,0.2,1.5,0.5c0.4,0.4,0.6,0.8,0.6,1.4c0,0.4,0.1,0.8,0.1,1.1
				c0,0.2,0,0.3,0,0.4c0.1,0.6,0.1,1.2,0.2,1.8v0l0,0.1h0c0.8,0.3,1.4,0.9,1.6,1.6c0.1,0.7-0.2,1.3-0.8,1.7
				c-0.3,0.2-0.3,0.3-0.3,0.3c0,0.1,0,0.4,0.1,0.6l0,0.1c0,0.1,0,0.1,0,0.2c0,0.1,0.1,0.3,0.1,0.4c0,0,0,0.1,0,0.1
				c0,0.1,0,0.1,0,0.1l0,0.1c0.1,0.4,0.2,0.7,0.3,1.1c0.1,0.3,0.3,0.7,0.5,1C41.3,44.8,41.4,45.7,41.2,46.5z"/>
			<path class="st3" d="M118.2,35.1c-0.1,0-0.1-0.1-0.1-0.2c0-0.4,0-0.9,0.1-1.3l0-0.1c0-0.2,0.1-0.5,0.1-0.7V32l0-0.4
				c0,0,0,0,0-0.1c0,0,0-0.1,0-0.1c0.2-1.3-0.5-2.1-1.8-2.4c-0.3-0.1-0.6-0.2-0.9-0.3c-0.5-0.2-0.9-0.3-1.3-0.3
				c-0.6,0-1.2,0.2-1.7,0.6c-0.5,0.4-1.1,0.9-1.5,1.6c-0.3,0.6-0.6,1.2-0.9,1.8l0,0.1c-0.2,0.4-0.4,0.8-0.6,1.2l-0.1,0.1
				c-0.6,1.1-0.9,1.7-1.7,1.9c-0.5,0.1-1.2,0.4-1.6,1c-0.4,0.6-0.4,1.2-0.4,1.8c0,0.4-0.1,0.7-0.2,1c-0.1,0.3-0.3,0.6-0.5,0.9
				c0,0.1-0.1,0.1-0.1,0.2c-0.1,0.2-0.3,0.4-0.4,0.7c-0.1,0.2-0.2,0.3-0.2,0.5c0-0.4,0-0.8,0-1.3c0-0.9,0-1.9,0.1-3.2
				c0-0.1,0-0.2,0.1-0.4l0-0.1c0.1-0.3,0.1-0.6,0.1-1c0-0.3,0-0.5,0-0.6c0,0,0,0,0.1,0c0.1,0,0.1,0,0.2,0c0.1,0,0.2,0,0.2,0
				c0.2,0,0.3,0,0.5-0.1c0.7-0.2,1.3-0.7,1.6-1.3c0.2-0.6,0.1-1.3-0.3-1.8c-0.4-0.5-1.2-1.1-2-1.1c-0.1,0-0.2,0-0.2,0
				c-0.6,0-1.2,0.1-1.8,0.2l-0.3,0c-0.2,0-0.3,0.1-0.5,0.1c-0.1,0-0.2,0-0.3,0c-0.1,0-0.2,0-0.3,0l-0.2,0c-1,0.1-1.9,0.2-2.9,0.4
				c-0.7,0.1-1.4,0.3-1.9,0.5c-0.2-0.2-0.8-0.9-1.5-0.9c-0.1,0-0.2,0-0.2,0c-0.3,0.1-0.7,0.2-1.1,0.5c-0.6,0.4-0.8,0.9-0.8,1.2
				c0,0,0,0-0.1,0c0,0-0.1,0-0.1,0c0,0-0.1,0-0.1,0c-0.3,0.1-0.6,0.1-0.9,0.2l-0.2,0.1c-0.3,0.1-0.6,0.1-0.9,0.2
				c-0.6,0.1-1.1,0.4-1.4,0.7c-0.5,0.5-0.7,1.1-0.6,1.7c0.1,0.5,0.4,1,0.8,1.4c0.4,0.3,0.9,0.5,1.4,0.5c0.1,0,0.3,0,0.4,0
				c0.6-0.1,1.1-0.2,1.5-0.3c0,1.3,0,2.3-0.1,3.3c0,0.8-0.1,1.7-0.1,2.5c0,0.4,0,0.8-0.1,1.1l0,0.7c0,0.2,0,0.4,0,0.6
				c0,0.1,0,0.2,0,0.4l0,0.2c0,0.5-0.1,1.1-0.1,1.6c0,0.7,0.3,1.3,0.8,1.8c0.5,0.4,1.1,0.7,1.7,0.7h0.1c0.6,0,1.1-0.3,1.5-0.7
				c0.4-0.4,0.6-1,0.6-1.5c0-1.1,0-2.2-0.1-3c-0.1-1.1-0.1-2-0.1-2.9l0,0l0-0.1c0-0.1,0-0.2,0-0.2v-1.4c0-1.2,0-2.5,0-3.8
				c0.4-0.1,0.8-0.1,1.2-0.2c0.1,0,0.3-0.1,0.4-0.1c0.6-0.1,1.2-0.2,1.6-0.3c0,0.1,0,0.1,0,0.2c0,0.4,0,0.7,0,1.1c0,0.4,0,0.7,0,1.1
				l0,1c0,1.8-0.1,3.6-0.1,5.4c0,0.3,0.1,0.6,0.1,0.9c0.1,0.3,0.1,0.5,0,0.5c-0.3,0.4-0.3,1.1,0,1.6c0.5,0.8,1.3,1.4,2.1,1.4
				c0.3,0,0.6-0.1,0.9-0.2c0.4-0.2,1-0.6,1.3-1.2c0.3-0.7,0.1-1.3-0.1-1.8c0,0,0-0.1,0-0.2l0-0.5c0.3,0.3,0.6,0.5,1.1,0.7
				c0.3,0.1,0.7,0.2,0.9,0.2c0.8,0,1.5-0.4,1.9-1.2c0.2-0.4,0.5-0.8,0.7-1.2c0.6-0.9,1.2-2,1.4-3.3c0-0.1,0.1-0.2,0.2-0.2h0
				c0.4,0,0.6,0.1,0.9,0.1c0.5,0,1.2,0,1.9-0.4c0,0.2,0,0.3,0.1,0.4v0c0,0.1,0,0.1,0,0.2c0,0.2,0,0.3,0,0.5c0,0.5,0.1,1,0.1,1.4
				c0,0.2,0,0.5,0,0.7l0,0.2c0,0.3,0,0.7,0,1.1c0.1,0.6,0.3,1.2,0.8,1.7c0.5,0.5,1.1,0.7,1.6,0.7c0.4,0,0.7-0.1,1-0.3
				c0.7-0.5,1.1-1.1,1.3-1.7c0.2-0.7,0.1-1.4-0.3-2.1c-0.1-0.2-0.1-0.3-0.1-0.3c0-0.2,0-0.5-0.1-0.7c0-0.2,0-0.5-0.1-0.7v-0.1
				c0-0.5-0.1-1.1-0.1-1.7c0,0,0-0.1,0-0.1c0,0,0,0,0.1,0c1-0.5,1.3-1.2,1.3-1.6C119.3,36.6,119.2,35.9,118.2,35.1z M104.5,47.5
				c-0.3,0.6-0.8,1-1.2,1.2c-0.3,0.1-0.6,0.2-0.9,0.2c-0.8,0-1.6-0.5-2.1-1.3c-0.3-0.5-0.3-1.1,0-1.5c0.1-0.1,0.1-0.2,0-0.6
				c-0.1-0.2-0.1-0.5-0.1-0.8c0-1.8,0-3.7,0.1-5.4l0-1c0-0.4,0-0.7,0-1.1c0-0.4,0-0.7,0-1.1c0-0.1,0-0.2,0-0.3l0-0.1l-0.1,0
				c-0.5,0.1-1.1,0.2-1.7,0.3c-0.1,0-0.3,0-0.4,0.1c-0.4,0.1-0.8,0.1-1.2,0.2l0,0v0c0,1.3,0,2.6,0,3.8v1.4c0,0.1,0,0.1,0,0.2l0,0.1
				v0c0,0.9,0,1.8,0.1,2.9c0,0.9,0.1,1.9,0.1,3c0,0.6-0.2,1.1-0.6,1.5c-0.4,0.4-0.9,0.6-1.5,0.7H95c-0.6,0-1.2-0.2-1.7-0.6
				c-0.5-0.4-0.8-1-0.8-1.7c0-0.6,0-1.1,0.1-1.6l0-0.2c0-0.1,0-0.2,0-0.4c0-0.2,0-0.4,0-0.6l0-0.7c0-0.4,0-0.8,0.1-1.1
				c0-0.8,0.1-1.7,0.1-2.5c0-1,0-2,0.1-3.3v-0.1l-0.1,0c-0.4,0.1-1,0.2-1.5,0.3c-0.1,0-0.3,0-0.4,0c-0.5,0-1-0.2-1.4-0.4
				c-0.4-0.3-0.7-0.8-0.8-1.3c-0.1-0.6,0.1-1.2,0.6-1.6c0.4-0.3,0.8-0.6,1.4-0.7c0.3-0.1,0.6-0.1,0.9-0.2l0.2-0.1
				c0.3-0.1,0.6-0.1,0.9-0.2c0.1,0,0.1,0,0.1,0c0,0,0.1,0,0.1,0c0,0,0.1,0,0.1,0l0,0l0,0c0.1-0.3,0.2-0.7,0.8-1.1
				c0.3-0.2,0.7-0.4,1-0.4c0.1,0,0.1,0,0.2,0c0.8,0,1.3,0.7,1.5,0.9l0,0l0,0c0.5-0.2,1.2-0.3,2-0.5c1-0.2,1.9-0.3,2.9-0.4l0.2,0
				c0.1,0,0.2,0,0.3,0c0.1,0,0.2,0,0.3,0c0.2,0,0.3,0,0.5-0.1l0.3,0c0.6-0.1,1.2-0.2,1.8-0.2c0.1,0,0.2,0,0.2,0
				c0.8,0,1.6,0.6,1.9,1.1c0.4,0.5,0.5,1.1,0.3,1.7c-0.2,0.6-0.8,1.1-1.5,1.3c-0.2,0-0.4,0.1-0.5,0.1c-0.1,0-0.2,0-0.2,0
				c-0.1,0-0.1,0-0.2,0c0,0-0.1,0-0.1,0l-0.1,0v0.1c0,0.2,0,0.4,0,0.7c0,0.4-0.1,0.7-0.1,1l0,0.1c0,0.2-0.1,0.3-0.1,0.4
				c-0.1,1.3-0.1,2.3-0.1,3.2c0,0.5,0,1,0,1.5c-0.1,0.3-0.3,0.6-0.3,1c-0.2,0.7,0,1.3,0.3,1.7c0,0,0,0,0,0l0,0.6c0,0.1,0,0.2,0,0.3
				C104.6,46.2,104.8,46.9,104.5,47.5z M119.2,37.1c-0.1,0.5-0.3,1.1-1.3,1.6c0,0-0.1,0-0.1,0l-0.1,0v0c0,0,0,0,0,0s0,0,0,0.1
				c0.1,0.6,0.1,1.1,0.1,1.7v0.1c0,0.2,0,0.5,0.1,0.7c0,0.2,0,0.5,0.1,0.7c0,0,0,0.1,0.1,0.3c0.3,0.7,0.4,1.4,0.3,2
				c-0.2,0.7-0.6,1.2-1.2,1.7c-0.3,0.2-0.6,0.3-1,0.3c-0.6,0-1.1-0.3-1.6-0.7s-0.7-1-0.8-1.6c0-0.4,0-0.7,0-1l0-0.2
				c0-0.3,0-0.5,0-0.7c0-0.4-0.1-0.9-0.1-1.4c0-0.2,0-0.3,0-0.5c0,0,0-0.1,0-0.2v0c0-0.1-0.1-0.3-0.1-0.5v-0.1l-0.1,0
				c-0.7,0.4-1.4,0.4-1.9,0.4c-0.3,0-0.6,0-0.9-0.1h0c-0.2,0-0.3,0.1-0.3,0.2c-0.2,1.3-0.8,2.4-1.4,3.3c-0.2,0.4-0.5,0.8-0.7,1.2
				c-0.3,0.7-1,1.1-1.8,1.1c-0.3,0-0.6-0.1-0.9-0.2c-0.5-0.2-0.8-0.4-1.1-0.7c0,0-0.6-0.6-0.4-1.7c0-0.1,0.1-0.2,0.1-0.3
				c0,0,0-0.1,0-0.1c0-0.1,0.4-1.1,0.5-1.3c0.1-0.2,0.2-0.4,0.4-0.6c0-0.1,0.1-0.1,0.1-0.2c0.2-0.3,0.4-0.6,0.5-1
				c0.1-0.3,0.2-0.7,0.2-1.1c0-0.6,0-1.2,0.4-1.7c0.4-0.6,1-0.8,1.6-1c0.8-0.2,1.2-0.9,1.8-2l0.1-0.1c0.2-0.4,0.4-0.8,0.6-1.2l0-0.1
				c0.3-0.6,0.6-1.2,0.9-1.8c0.4-0.7,0.9-1.2,1.4-1.6c0.5-0.4,1.1-0.6,1.6-0.6c0.4,0,0.9,0.1,1.3,0.3c0.3,0.2,0.6,0.3,0.9,0.3
				c1.2,0.2,1.9,1,1.7,2.2c0,0,0,0,0,0.1c0,0,0,0.1,0,0.1l0,0.4v0.8c0,0.3-0.1,0.5-0.1,0.7l0,0.1c-0.1,0.5-0.1,0.9-0.1,1.4l0,0
				c0,0.1,0.1,0.2,0.2,0.2C119.1,35.9,119.2,36.6,119.2,37.1z"/>
			<path class="st3" d="M114.7,32.2c-0.1,0-0.2,0-0.2,0c-0.4,0-0.6,0.4-0.8,0.7c-0.1,0.1-0.1,0.2-0.2,0.3c-0.5,0.8-1.1,1.6-1.6,2.4
				l-0.3,0.5c-0.1,0.2-0.2,0.4-0.1,0.5c0.1,0.1,0.2,0.2,0.4,0.2c0,0,0.3,0,0.5,0c0,0,0.1,0,0.1,0c0,0,0.4,0,0.5-0.1
				c0.3-0.1,0.7-0.1,1-0.2c0.7-0.1,0.9-0.5,0.9-1.2c0-0.4,0-0.8,0-1.1c0-0.2,0-0.3,0-0.5c0-0.1,0-0.3,0.1-0.4
				C115.1,32.8,115.2,32.4,114.7,32.2z M115,33.2c0,0.1-0.1,0.3-0.1,0.4c0,0.2,0,0.3,0,0.5c0,0.4,0,0.8,0,1.1c0.1,0.7-0.2,1-0.8,1.1
				c-0.3,0.1-0.7,0.1-1,0.2c-0.1,0-0.4,0-0.4,0l-0.1,0c-0.1,0-0.1,0-0.2,0c-0.1,0-0.4,0-0.4,0c-0.1,0-0.3,0-0.3-0.1
				c-0.1-0.1,0-0.2,0.1-0.4l0.3-0.5c0.5-0.8,1-1.6,1.6-2.4c0.1-0.1,0.1-0.2,0.2-0.3c0.2-0.3,0.4-0.6,0.7-0.6c0,0,0.1,0,0.2,0
				C115.1,32.5,115,32.8,115,33.2z"/>
			<path class="st3" d="M117.6,36.1c-0.3-0.2-0.6-0.6-0.6-1c0-0.7,0-1.3,0.1-1.9l0-0.2v-0.3c0-0.1,0-0.3,0-0.4c0-0.3,0-0.6,0.1-0.8
				c0.1-0.7-0.2-1-0.9-1.1c-0.4-0.1-0.9-0.2-1.2-0.4c-0.3-0.2-0.6-0.2-0.8-0.2c-0.4,0-0.7,0.1-1,0.4c-0.6,0.5-1,0.9-1.2,1.3
				c-0.3,0.6-0.6,1.2-0.9,1.7c-0.2,0.4-0.4,0.9-0.6,1.3l-0.1,0.1c-0.5,1-1.1,2.1-2.4,2.5c-1.1,0.3-1.2,0.6-1.2,1.7
				c0,0.5-0.1,1-0.3,1.5c-0.2,0.4-0.4,0.7-0.6,1.1c-0.1,0.2-0.3,0.5-0.4,0.8l0,0.1c-0.2,0.4-0.4,0.9-0.6,1.4c-0.1,0.6,0.1,1,0.8,1.2
				c0.2,0.1,0.4,0.1,0.6,0.1c0.4,0,0.7-0.2,0.9-0.6c0.2-0.4,0.5-0.9,0.7-1.3c0.6-0.9,1.1-1.8,1.2-2.9c0.1-0.7,0.6-1.1,1.3-1.1
				c0,0,0,0,0.1,0s0.1,0,0.1,0l0,0c0.3,0,0.6,0,0.8,0c0.4,0,1-0.1,1.6-0.4c0.1-0.1,0.2-0.1,0.4-0.1l0.1,0c0.1,0,0.2,0,0.3,0
				c0.3,0,0.5,0,0.6,0.2c0.1,0.2,0.1,0.5,0.1,0.9c0,0.1,0,0.3,0,0.4c0,0.1,0,0.2,0,0.2l0,0.4c0,0.5,0.1,1.1,0.1,1.6
				c0,0.3,0,0.5,0,0.8c0,0.4,0,0.7,0,1.1c0.1,0.8,0.8,1.4,1.3,1.4c0.2,0,0.3,0,0.4-0.1c0.9-0.6,1.1-1.5,0.6-2.4
				c-0.1-0.3-0.2-0.5-0.2-0.7c0-0.5-0.1-0.9-0.1-1.4c0-0.6-0.1-1.2-0.1-1.7c-0.1-0.6,0.1-1,0.7-1.2c0.4-0.2,0.7-0.5,0.7-0.8
				C118.2,36.7,118,36.4,117.6,36.1z M118.1,37c0,0.3-0.3,0.5-0.7,0.7c-0.6,0.3-0.8,0.7-0.8,1.3c0.1,0.6,0.1,1.2,0.1,1.7
				c0,0.5,0.1,0.9,0.1,1.4c0,0.2,0.1,0.5,0.2,0.7c0.5,0.9,0.3,1.7-0.6,2.3c-0.1,0.1-0.2,0.1-0.3,0.1c-0.5,0-1.2-0.6-1.2-1.3
				c0-0.4,0-0.7,0-1.1c0-0.3,0-0.5,0-0.8c0-0.5-0.1-1.1-0.1-1.6l0-0.4c0-0.1,0-0.2,0-0.3c0-0.1,0-0.3,0-0.4c0-0.5,0-0.8-0.1-1
				c-0.1-0.1-0.3-0.2-0.6-0.2c-0.1,0-0.2,0-0.3,0l-0.1,0c-0.1,0-0.3,0-0.4,0.1c-0.4,0.3-0.9,0.4-1.5,0.4c-0.3,0-0.6,0-0.8,0
				c0,0,0,0-0.1,0c0,0-0.1,0-0.1,0c-0.8,0-1.3,0.5-1.4,1.2c-0.1,1.1-0.7,2-1.2,2.8c-0.3,0.4-0.5,0.8-0.8,1.3
				c-0.2,0.3-0.4,0.5-0.8,0.5c-0.2,0-0.4,0-0.5-0.1c-0.6-0.2-0.9-0.6-0.8-1.1c0.1-0.5,0.3-0.9,0.5-1.4l0-0.1
				c0.1-0.3,0.3-0.5,0.4-0.7c0.2-0.4,0.4-0.7,0.6-1.1c0.2-0.4,0.3-1,0.3-1.5c0-1,0.1-1.3,1.1-1.6c1.3-0.4,1.9-1.5,2.5-2.5l0.1-0.1
				c0.2-0.4,0.4-0.9,0.6-1.3c0.3-0.6,0.5-1.2,0.9-1.7c0.3-0.4,0.6-0.9,1.2-1.3c0.2-0.3,0.6-0.4,0.9-0.4c0.3,0,0.5,0.1,0.8,0.2
				c0.4,0.2,0.8,0.4,1.3,0.4c0.7,0.1,0.9,0.4,0.8,1c0,0.3-0.1,0.6-0.1,0.9c0,0.1,0,0.3,0,0.4V33l0,0.2c-0.1,0.7-0.1,1.2-0.1,2
				c0,0.4,0.3,0.8,0.6,1C117.9,36.4,118.1,36.7,118.1,37z"/>
			<path class="st3" d="M23.2,38.8c-0.2-0.1-0.4-0.2-0.7-0.2c-0.5-0.1-1-0.2-1.6-0.2c-0.8,0-1.6,0.1-2.4,0.3l-0.2,0
				c-0.1,0-0.2,0-0.3,0c-0.3,0-0.5-0.1-0.5-0.6c0-0.3,0-0.5,0-0.8c0-0.5,0-1,0-1.5c0-0.2,0.3-0.6,0.5-0.6c1.2-0.3,2.4-0.5,3.5-0.7
				c0.6-0.1,1.2-0.2,1.8-0.3c0.1,0,0.1,0,0.2,0c0.2-0.1,0.5-0.1,0.7-0.2c0.3-0.1,0.5-0.3,0.6-0.5c0.2-0.3,0.2-0.7,0-1.1
				c-0.2-0.6-0.6-0.8-1.4-0.6c-1.9,0.4-3.7,0.8-5.5,1.1h-0.1c-0.2,0-0.5-0.2-0.6-0.3c-0.2-0.7-0.6-1-1.1-1c-0.1,0-0.2,0-0.3,0
				c-0.7,0.1-1,0.6-1,1.3c0,0.5-0.2,0.8-0.6,0.9c-0.6,0.2-1.1,0.3-1.7,0.5c-1,0.3-2,0.6-3,0.9c-0.9,0.3-1.6,0.6-2.1,1.1
				c-0.4,0.3-0.5,0.6-0.4,1c0.1,0.4,0.4,0.7,0.8,0.8L8,38c0.3,0.1,0.6,0.2,0.9,0.2c0.4,0,0.7-0.2,1-0.5c0.1-0.1,0.2-0.1,0.4-0.2
				c0.1,0,0.1,0,0.2,0c0.2-0.1,0.4-0.1,0.6-0.2c0.5-0.1,1-0.3,1.5-0.5c0.2-0.1,0.5-0.2,0.7-0.3c0.2-0.1,0.5-0.2,0.7-0.3
				c0.4-0.1,0.6-0.2,0.8-0.2c0.2,0,0.3,0.2,0.3,0.9c0,0.1,0,0.3,0.1,0.4c0,0.1,0.1,0.3,0.1,0.4c0.1,1.1,0.3,2.1,0.5,3.1
				c0.3,1.3,0.5,2.6,0.5,4c0,0.2,0.1,0.4,0.2,0.6c0,0.1,0.1,0.2,0.1,0.3c0,0.1,0.1,0.2,0.1,0.3c0.1,0.2,0.1,0.4,0.3,0.6
				c0,0,0.1,0.1,0.1,0.1c0.3,0.3,0.6,0.7,0.9,0.7h0c0.6,0,1.1-0.3,1.4-0.8c0.2-0.5,0.2-1,0-1.4c-0.6-0.9-0.8-1.9-0.8-3
				c0-0.2-0.1-0.3-0.1-0.5c-0.1-0.2-0.1-0.5,0-0.6c0.1-0.2,0.3-0.2,0.5-0.3c0.1,0,0.3,0,0.4,0c0.6-0.1,1.1-0.1,1.7-0.1
				c0.2,0,0.4,0,0.6,0c0.2,0,0.4,0.1,0.6,0.1c0.7,0.2,1.3,0.6,1.6,1.2c0.3,0.6,0.2,1.4-0.2,2.1c-0.6,1.1-1.6,2-2.7,2.7
				c-0.3,0.2-0.7,0.4-1.1,0.5c-0.6,0.2-1.3,0.5-1.9,0.5c-0.5,0-0.9-0.1-1.3-0.4c-0.1-0.1-0.2-0.1-0.4-0.1c-0.3,0-0.7,0.1-0.9,0.3
				c-0.4,0.3-0.5,0.7-0.5,1c0.1,0.4,0.5,0.8,1.1,1.1c0.7,0.3,1.4,0.4,2.1,0.4c0.6,0,1.1-0.1,1.6-0.2c1.4-0.4,2.6-1.1,3.6-1.9
				c0.9-0.7,1.6-1.5,2.2-2.2c0.7-0.8,1-1.8,1-2.6C26.1,40.9,25.2,39.6,23.2,38.8z M25.1,45.7c-0.6,0.7-1.4,1.5-2.3,2.2
				c-1,0.8-2.1,1.5-3.5,1.8c-0.5,0.1-1.1,0.2-1.6,0.2c-0.7,0-1.4-0.1-2.1-0.4c-0.6-0.2-0.9-0.6-1-1c-0.1-0.3,0.1-0.6,0.4-0.9
				c0.2-0.2,0.6-0.3,0.9-0.3c0.1,0,0.2,0,0.3,0.1c0.4,0.3,0.9,0.4,1.4,0.4c0.7,0,1.4-0.3,2-0.5c0.4-0.2,0.8-0.3,1.1-0.6
				c1.1-0.7,2-1.6,2.6-2.7c0.4-0.7,0.5-1.5,0.2-2.2c-0.3-0.6-0.9-1.1-1.6-1.3c-0.2,0-0.4-0.1-0.5-0.1c-0.2,0-0.5,0-0.7,0
				c-0.6,0-1.1,0.1-1.7,0.1c-0.1,0-0.3,0-0.4,0c-0.3,0-0.5,0.1-0.6,0.3c-0.1,0.1-0.1,0.4,0,0.7c0.1,0.1,0.1,0.3,0.1,0.4
				c0,1.2,0.3,2.1,0.9,3c0.3,0.4,0.3,0.9,0,1.3c-0.3,0.5-0.7,0.8-1.3,0.8c-0.2,0-0.5-0.4-0.8-0.7c0-0.1-0.1-0.1-0.1-0.1
				c-0.1-0.2-0.2-0.4-0.3-0.6c0-0.1-0.1-0.2-0.1-0.3c0-0.1-0.1-0.2-0.1-0.3c-0.1-0.2-0.2-0.4-0.2-0.5c0.1-1.4-0.2-2.7-0.5-4
				c-0.2-1-0.4-2-0.5-3.1c0-0.1,0-0.3-0.1-0.4c0-0.1-0.1-0.3-0.1-0.4c0-0.7,0-1-0.4-1c-0.2,0-0.4,0.1-0.8,0.2
				c-0.3,0.1-0.5,0.2-0.8,0.3c-0.2,0.1-0.5,0.2-0.7,0.3c-0.5,0.2-1,0.3-1.5,0.5c-0.2,0.1-0.4,0.1-0.6,0.2c-0.1,0-0.1,0-0.2,0
				c-0.2,0-0.4,0.1-0.5,0.2c-0.3,0.3-0.6,0.5-0.9,0.5c-0.3,0-0.6-0.1-0.8-0.2l-0.1,0c-0.4-0.1-0.7-0.4-0.8-0.8
				c-0.1-0.3,0.1-0.6,0.4-0.9c0.5-0.4,1.2-0.7,2.1-1c1-0.3,2-0.6,3-0.9c0.6-0.2,1.1-0.3,1.7-0.5c0.5-0.2,0.7-0.5,0.7-1
				c-0.1-0.7,0.3-1.1,0.9-1.2c0.1,0,0.2,0,0.3,0c0.5,0,0.8,0.3,1,0.9c0.1,0.2,0.4,0.4,0.7,0.4H18c1.8-0.3,3.6-0.7,5.5-1.1
				c0.2,0,0.3-0.1,0.5-0.1c0.4,0,0.6,0.2,0.8,0.6c0.1,0.4,0.2,0.8,0,1.1c-0.1,0.2-0.3,0.4-0.6,0.5c-0.2,0.1-0.5,0.1-0.7,0.2
				c-0.1,0-0.1,0-0.2,0c-0.6,0.1-1.2,0.2-1.8,0.3c-1.2,0.2-2.4,0.4-3.5,0.7c-0.2,0.1-0.5,0.4-0.6,0.7c0,0.5,0,1,0,1.6
				c0,0.3,0,0.5,0,0.8c0,0.5,0.2,0.7,0.6,0.7c0.1,0,0.2,0,0.4,0l0.2,0c0.8-0.1,1.6-0.3,2.4-0.3c0.6,0,1.1,0.1,1.6,0.2
				c0.2,0.1,0.5,0.1,0.7,0.2c2,0.8,2.8,2.1,2.8,4.3C26.1,44,25.8,44.9,25.1,45.7z"/>
			<path class="st3" d="M27.3,43.1c0-1.4-0.3-2.4-0.9-3.3c-0.6-0.9-1.5-1.5-2.7-2c-0.2-0.1-0.4-0.2-0.6-0.2
				c-0.7-0.2-1.4-0.3-2.1-0.3c-0.8,0-1.5,0.1-2.2,0.2c0,0,0,0,0-0.1c0,0,0-0.1,0-0.1c0-0.4,0-0.8,0-1.1c0.9-0.2,1.8-0.4,2.6-0.5
				c0.3-0.1,0.6-0.1,0.8-0.2c0.5-0.1,0.9-0.2,1.4-0.3l0.1,0c0.3-0.1,0.5-0.1,0.8-0.2c0,0,0,0,0.1,0c0.6-0.2,1-0.6,1.3-1.1
				c0.2-0.4,0.3-0.9,0.2-1.7c0-0.1-0.1-0.2-0.1-0.3c-0.4-1.3-1.4-1.4-1.9-1.4c-0.2,0-0.5,0-0.7,0.1c-1.6,0.4-3.3,0.7-5,1
				c-0.1-0.3-0.3-0.5-0.5-0.7c-0.5-0.4-1-0.6-1.5-0.6c-0.2,0-0.3,0-0.5,0.1c-0.8,0.2-1.2,0.6-1.5,0.9c-0.3,0.4-0.4,0.8-0.4,1.4
				c-0.4,0.1-0.9,0.3-1.3,0.4l-0.3,0.1c-0.9,0.3-2,0.6-3,0.9c-1.1,0.4-1.8,0.7-2.5,1.2c-0.7,0.5-1,1.3-0.9,2.1
				c0.1,0.8,0.7,1.4,1.6,1.7c0.4,0.1,0.8,0.3,1.3,0.3c0.7,0,1.2-0.3,1.7-0.7c0,0,0.1,0,0.1,0c0.1,0,0.1,0,0.2,0
				c0.2-0.1,0.5-0.1,0.7-0.2l0.1,0c0.4-0.1,0.9-0.3,1.3-0.4c0.3-0.1,0.5-0.2,0.8-0.3c0.1,0,0.1,0,0.2-0.1c0,0,0.1,0,0.1-0.1
				c0,0.1,0,0.1,0,0.2c0,0.1,0,0.2,0,0.3c0.1,1.1,0.3,2.1,0.5,3.1l0.1,0.3c0.3,1.2,0.5,2.4,0.4,3.6c0,0.5,0.2,0.9,0.3,1.1
				c0,0.1,0.1,0.1,0.1,0.2c0,0,0,0.1,0,0.1c0,0,0,0.1,0,0.1c0,0,0,0,0,0.1c-0.4,0.1-0.9,0.3-1.2,0.5c-0.7,0.5-1,1.3-0.9,2
				c0.1,0.8,0.8,1.5,1.8,1.9c0.8,0.3,1.7,0.5,2.5,0.5c0.6,0,1.3-0.1,1.9-0.3c1.8-0.5,3.2-1.4,4.3-2.4c0.8-0.7,1.5-1.4,2-2.1
				C26.9,45.5,27.4,44.3,27.3,43.1z M26,46.5c-0.6,0.7-1.2,1.4-2,2.1c-1.1,1-2.5,1.9-4.2,2.3c-0.7,0.2-1.3,0.3-1.9,0.3
				c-0.8,0-1.7-0.2-2.5-0.5c-1-0.4-1.6-1.1-1.7-1.9c-0.1-0.7,0.2-1.4,0.9-1.9c0.3-0.2,0.7-0.4,1.2-0.5l0.1,0l0-0.1c0,0,0-0.1,0-0.1
				c0,0,0-0.1,0-0.1c0,0,0-0.1,0-0.1c0,0-0.1-0.1-0.1-0.2c-0.2-0.3-0.3-0.7-0.3-1.1c0.1-1.2-0.2-2.4-0.4-3.6l-0.1-0.3
				c-0.2-1-0.4-2-0.5-3.1c0-0.1,0-0.2,0-0.3c0-0.1,0-0.1,0-0.2l0-0.1l-0.1,0c-0.1,0-0.1,0.1-0.2,0.1c-0.1,0-0.1,0-0.2,0.1
				c-0.3,0.1-0.5,0.2-0.8,0.3c-0.5,0.2-0.9,0.3-1.3,0.4l-0.1,0c-0.2,0.1-0.5,0.1-0.7,0.2c-0.1,0-0.1,0-0.1,0c0,0-0.1,0-0.1,0h0l0,0
				c-0.4,0.5-1,0.7-1.6,0.7c-0.4,0-0.8-0.1-1.3-0.3c-0.8-0.3-1.4-0.9-1.5-1.6c-0.1-0.7,0.2-1.5,0.8-2c0.6-0.5,1.4-0.9,2.4-1.2
				c1-0.3,2.1-0.6,3-0.9l0.3-0.1c0.4-0.1,0.9-0.3,1.3-0.4l0,0v0c0-0.5,0.1-1,0.4-1.3c0.2-0.3,0.6-0.7,1.4-0.9c0.2,0,0.4-0.1,0.5-0.1
				c0.5,0,1,0.2,1.4,0.5c0.2,0.2,0.3,0.4,0.5,0.7l0,0l0,0c1.7-0.3,3.4-0.7,5-1c0.3-0.1,0.5-0.1,0.7-0.1c0.5,0,1.4,0.2,1.8,1.4
				c0.1,0.2,0.1,0.3,0.1,0.4c0.1,0.7,0,1.2-0.2,1.5c-0.2,0.5-0.7,0.8-1.2,1c0,0,0,0,0,0c-0.3,0.1-0.6,0.2-0.9,0.2l-0.1,0l0,0
				c-0.5,0.1-1,0.2-1.4,0.3c-0.3,0.1-0.6,0.1-0.8,0.2c-0.9,0.2-1.8,0.3-2.6,0.5l0,0v0c0,0.4,0,0.7,0,1.2c0,0,0,0.1,0,0.1
				c0,0,0,0.1,0,0.1v0.1l0.1,0c0.7-0.1,1.5-0.2,2.3-0.2c0.7,0,1.4,0.1,2.1,0.3c0.2,0.1,0.4,0.1,0.6,0.2c1.2,0.5,2,1.2,2.6,2
				c0.6,0.9,0.9,1.9,0.9,3.3C27.3,44.2,26.8,45.4,26,46.5z"/>
			<path class="st3" d="M84.5,38.3c-0.1-0.7-0.4-1.4-1-2c-1.4-1.6-3.1-2.5-4.7-3.1l-0.1,0c-1-0.4-2.1-0.9-3.4-0.9
				c-0.4,0-0.7,0-1,0.1c-2.2,0.5-4.2,1.7-6.1,3.6c-0.4,0.4-0.6,0.8-0.6,1.2c0,0.3,0,0.6,0.2,0.9c-0.4,0.3-0.8,1-0.6,2
				c0,0.3,0.1,0.5,0.1,0.8c0,0.1,0.1,0.2,0.1,0.4c0,0.1,0,0.2,0.1,0.3c0.2,1,0.5,1.8,0.9,2.5C68.3,44.1,68.2,44,68,44
				c-0.3,0-0.5-0.1-0.8-0.1c-0.3,0-0.6,0-0.9,0c-0.3,0-0.6,0.1-0.9,0.1c-0.3,0.1-0.7,0.1-1,0.1h-0.1c-0.2,0-0.5,0-0.7-0.1
				c-1.6-0.2-3-1-4-1.6c0.2-0.1,0.4-0.3,0.7-0.4c0.1-0.1,0.3-0.2,0.4-0.3c0.3-0.2,0.6-0.4,0.8-0.5c0.9-0.6,1.8-1.2,2.8-1.8
				c0.2-0.1,0.3-0.2,0.4-0.4c0.4-0.5,0.6-1.2,0.6-1.7c-0.1-1.2-0.9-2.2-2.1-2.3c-0.1,0-0.2,0-0.4,0c-0.6,0-1.2,0.2-1.6,0.6
				c-0.3,0.3-0.6,0.6-0.8,1c-0.2,0.3-0.4,0.5-0.8,0.7c-0.5,0.2-0.9,0.4-1.4,0.7c0-0.8-0.1-1.6-0.2-2.4c-0.1-1-0.9-2-2.1-2
				c-0.2,0-0.3,0-0.4,0c-1.1,0.2-1.8,1.2-1.8,2.5c0,0.2,0,0.5,0.1,0.7l0,0.1c0,0.1,0,0.1,0,0.2c0,0,0,0.1,0,0.1c0,0.1,0,0.2,0.1,0.4
				l0,0.1c0,0.1,0,0.3,0,0.3l0,0.1c0,0.3-0.1,0.5-0.1,0.8c-0.1-0.2-0.2-0.3-0.4-0.4C53,38.1,52.6,38,52,38c-0.1,0-0.3,0-0.4,0
				c-0.8,0.1-1.8,0.5-2.3,1.2c-0.4,0.5-0.9,0.9-1.8,1.2c0,0-0.1,0-0.2,0c-0.1,0-0.2,0-0.2,0c-0.2-0.1-0.5-0.3-0.8-0.9
				c-0.1-0.1-0.1-0.2-0.2-0.3c-0.2-0.4-0.2-0.7-0.2-0.7c0.3-1.7,0.9-2.9,2-3.8c0,0,0,0.1,0,0.1c0.1,0.7,0.5,1.2,1.1,1.5
				c0.3,0.2,0.7,0.3,1.1,0.3c0.1,0,0.2,0,0.2,0c0.7-0.1,1.3-0.3,1.6-0.7c0.4-0.4,0.6-1,0.5-1.5c0-0.5-0.1-0.9-0.2-1.3
				c-0.2-1-0.7-1.8-1.4-2.4c-0.7-0.7-1.5-1-2.4-1c-0.6,0-1.2,0.2-1.7,0.5c-0.6,0.4-1.2,0.8-1.8,1.2c-2.3,1.9-3.6,4.4-3.6,7.4
				C41.2,39.9,41.5,41,42,42c0.5,0.9,1.3,1.6,2.3,2.3c0.8,0.5,1.8,1.1,2.9,1.1c0.1,0,0.2,0,0.4,0c0.3,0,0.5-0.1,0.8-0.2
				c0.3-0.1,0.5-0.2,0.8-0.4c1.2-0.7,2.3-1.5,3.5-2.3c0.4-0.3,0.7-0.6,0.9-0.9c0,0.8,0,1.5,0.2,2.3c0,0.1-0.1,0.3,0,0.5
				c0,0.3,0.1,0.5,0.1,0.8v0c0.1,0.8,0.2,1.5,0.4,2.3c0.3,1.2,1.4,2,2.6,2h0.2c0.7,0,1.2-0.3,1.6-0.8c0.3-0.4,0.5-0.8,0.6-1.1
				c0,0,0-0.1,0.1-0.1c0.3,0.1,0.6,0.3,0.8,0.4c0.8,0.3,1.6,0.5,2.4,0.7c0.7,0.1,1.4,0.2,2.2,0.2c0.5,0,1,0,1.5,0c0.2,0,0.3,0,0.5,0
				c0.4,0,0.8,0,1.2,0h0c1.3,0,2.2-1,2.3-2.2c0-0.1,0-0.3,0-0.4c0.1,0.1,0.1,0.1,0.2,0.2c1.3,0.9,2.9,1.4,5.1,1.6l0.2,0l0.2-0.1
				c0.1,0,0.3-0.1,0.5-0.1c0.7-0.1,1.3-0.3,2-0.6c1.5-0.6,2.7-1.5,3.8-2.6c1-1,1.7-2.3,2.3-3.9C84.6,39.7,84.7,39,84.5,38.3z
				 M52.6,42.3c-1.2,0.8-2.3,1.6-3.5,2.3c-0.3,0.2-0.6,0.3-0.8,0.4c-0.2,0.1-0.4,0.1-0.6,0.1c-0.1,0-0.3,0-0.4,0
				c-1.2,0-2.2-0.6-2.9-1c-1-0.6-1.7-1.4-2.2-2.2c-0.6-0.9-0.8-2-0.7-3.2c0.1-3,1.3-5.5,3.6-7.3c0.5-0.4,1.1-0.8,1.7-1.1
				c0.5-0.3,1.1-0.5,1.7-0.5c0.9,0,1.7,0.4,2.3,1c0.7,0.7,1.2,1.5,1.4,2.5c0.1,0.4,0.2,0.8,0.2,1.2c0,0.5-0.1,1-0.5,1.4
				c-0.3,0.4-0.8,0.6-1.6,0.7c-0.1,0-0.2,0-0.2,0c-0.4,0-0.7-0.1-1-0.2c-0.5-0.3-0.9-0.8-1.1-1.4c0-0.1,0-0.2,0-0.2l0-0.1l-0.1,0.1
				c-1.2,0.9-1.8,2.2-2.1,3.9c0,0.1,0,0.4,0.2,0.8c0,0.1,0.1,0.2,0.1,0.3c0.3,0.5,0.7,0.8,0.9,0.9c0.1,0,0.2,0,0.3,0
				c0.1,0,0.2,0,0.2,0c0.9-0.3,1.5-0.7,1.9-1.3c0.5-0.7,1.3-1,2.1-1.2c0.2,0,0.3,0,0.5,0c0.5,0,1,0.1,1.3,0.4l0,0
				c0.2,0.1,0.3,0.3,0.4,0.5c0,0,0.1,0.1,0.1,0.2l0,0c0.2,0.5,0.3,1.1,0.1,1.6c-0.1,0.1-0.1,0.3-0.2,0.4C53.7,41.1,53,42,52.6,42.3z
				 M70,46.3c0,1.2-0.9,2.1-2.2,2.1h0c-0.4,0-0.8,0-1.2,0c-0.2,0-0.3,0-0.5,0c-0.5,0-1,0-1.5,0c-0.8,0-1.5-0.1-2.2-0.2
				c-0.8-0.1-1.6-0.3-2.4-0.6c-0.3-0.1-0.6-0.3-0.9-0.4l0,0l0,0c0,0,0,0,0,0s0,0,0,0v0c0,0,0,0.1-0.1,0.1c-0.1,0.3-0.3,0.7-0.6,1.1
				c-0.4,0.5-0.9,0.7-1.6,0.8h-0.2c-1.2,0-2.2-0.8-2.5-2c-0.2-0.8-0.3-1.6-0.3-2.3v0c0-0.3-0.1-0.5-0.1-0.8c0-0.2,0-0.4,0-0.5v0v0
				c-0.1-0.8-0.2-1.6-0.2-2.4c0.2-0.2,0.3-0.4,0.3-0.6c0.3-0.5,0.2-1.3-0.2-1.8c0-0.3,0.1-0.6,0.1-0.9l0-0.1c0-0.1,0-0.2,0-0.3
				l0-0.1c0-0.1,0-0.3-0.1-0.4c0,0,0-0.1,0-0.1c0-0.1,0-0.1,0-0.1l0-0.1c0-0.2-0.1-0.4-0.1-0.7c0-1.3,0.7-2.2,1.8-2.4
				c0.1,0,0.3,0,0.4,0c1.2,0,1.9,1,2,2c0.1,0.8,0.2,1.6,0.2,2.4v0.1l0.1-0.1c0.5-0.3,0.9-0.6,1.4-0.7c0.5-0.2,0.7-0.4,0.9-0.8
				c0.2-0.4,0.4-0.7,0.7-0.9c0.4-0.3,1-0.5,1.6-0.5c0.1,0,0.2,0,0.3,0c1.1,0.1,1.9,1,2,2.2c0,0.5-0.2,1.2-0.6,1.7
				c-0.1,0.1-0.2,0.3-0.4,0.4c-0.9,0.7-1.9,1.3-2.8,1.8c-0.3,0.2-0.6,0.4-0.8,0.5c-0.1,0.1-0.3,0.2-0.4,0.3
				c-0.3,0.2-0.5,0.3-0.7,0.5l-0.1,0l0.1,0c1.1,0.7,2.5,1.4,4.1,1.7c0.3,0,0.5,0.1,0.8,0.1h0.1c0.3,0,0.6,0,1-0.1
				c0.3-0.1,0.6-0.1,0.9-0.1c0.3,0,0.5,0,0.9,0c0.3,0,0.5,0,0.8,0.1c0.7,0.2,1.2,0.5,1.3,0.6C69.6,45,70,45.4,70,46.3z M84.2,40.4
				c-0.6,1.5-1.3,2.8-2.3,3.8c-1,1.1-2.2,2-3.7,2.5c-0.7,0.3-1.4,0.4-2,0.6c-0.2,0-0.4,0.1-0.5,0.1l-0.2,0.1l-0.2,0
				c-2.2-0.2-3.8-0.7-5-1.5c-0.1-0.1-0.2-0.2-0.3-0.2c-0.1-0.4-0.3-0.8-0.7-1.1c-0.2-0.2-0.5-0.4-0.8-0.5c-0.5-0.8-0.8-1.6-1-2.6
				c0-0.1,0-0.2-0.1-0.3c0-0.1,0-0.2-0.1-0.4c-0.1-0.3-0.1-0.5-0.1-0.8c-0.2-1,0.2-1.6,0.6-1.9l0,0l0,0c-0.1-0.3-0.2-0.6-0.2-0.9
				c0-0.4,0.2-0.8,0.6-1.2c1.9-2,3.9-3.1,6-3.6c0.3-0.1,0.6-0.1,1-0.1c1.2,0,2.3,0.5,3.3,0.9l0.1,0c1.6,0.7,3.3,1.5,4.7,3.1
				c0.5,0.6,0.8,1.2,0.9,1.9C84.6,39,84.5,39.7,84.2,40.4z"/>
			<path class="st3" d="M79.2,38.1c-0.9-0.5-1.8-0.8-2.9-1.1l-0.1,0c-0.1-0.1-0.3-0.1-0.4-0.1c-0.1,0-0.3-0.1-0.4-0.1
				c-0.2-0.1-0.3-0.1-0.5-0.1c-0.4,0-0.8,0.1-1.2,0.4c-0.3,0.2-0.5,0.3-0.8,0.4c0,0,0,0,0,0c0,0,0,0,0,0l0,0v0c0,0.2,0,0.4-0.1,0.6
				c-0.1,0.3-0.3,0.6-0.5,0.8l0,0c-0.4,0.5-0.7,0.9-0.7,1.3v0.1c0,1.9,1.3,3.3,3.1,3.3c0.3,0,0.6,0,0.8-0.1c1.7-0.4,3-1.4,4.1-3
				c0.5-0.8,0.5-1.1,0.5-1.3C80.2,38.8,80,38.6,79.2,38.1z M79.7,40.2c-1,1.6-2.3,2.6-4,3c-0.3,0.1-0.5,0.1-0.8,0.1
				c-1.7,0-3-1.3-3-3.2v-0.1c0-0.3,0.3-0.7,0.7-1.2l0,0c0.2-0.2,0.4-0.4,0.5-0.8c0-0.2,0.1-0.3,0.1-0.6l0,0c0,0,0,0,0,0
				c0.3-0.1,0.5-0.2,0.8-0.4c0.4-0.3,0.8-0.4,1.1-0.4c0.1,0,0.3,0,0.4,0.1c0.1,0.1,0.3,0.1,0.4,0.1c0.1,0,0.3,0.1,0.4,0.1l0.1,0
				c1,0.3,2,0.7,2.8,1.1c0.8,0.4,0.9,0.7,1,0.8C80.2,39.1,80.2,39.4,79.7,40.2z"/>
			<path class="st3" d="M78.4,34.2L78.4,34.2c-1-0.4-2-0.8-3-0.8c-0.2,0-0.5,0-0.7,0.1c-2,0.4-3.8,1.5-5.5,3.3
				c-0.4,0.4-0.4,0.8-0.1,1.2c0.1,0.2,0.2,0.3,0.2,0.5c0,0.1-0.1,0.2-0.3,0.3c-0.6,0.3-0.6,0.8-0.6,1.2c0.1,0.3,0.1,0.7,0.2,1
				c0,0.1,0.1,0.3,0.1,0.4c0.7,3.2,2.8,4.9,6.8,5.2h0h0c0.1,0,0.3-0.1,0.4-0.1c0.5-0.1,1.3-0.3,1.9-0.6c2.6-1,4.3-2.9,5.4-5.8
				c0.4-1.2,0.3-2.1-0.5-3.1C81.6,35.7,80.2,35,78.4,34.2z M83.2,40.1c-1,2.8-2.8,4.7-5.3,5.7c-0.7,0.3-1.4,0.4-1.9,0.5
				c-0.2,0-0.3,0.1-0.4,0.1c-3.9-0.3-6.1-1.9-6.7-5.1c0-0.1-0.1-0.3-0.1-0.4c-0.1-0.3-0.1-0.6-0.2-1c-0.1-0.4-0.1-0.9,0.5-1.1
				c0.2-0.1,0.3-0.2,0.4-0.4c0-0.2,0-0.4-0.2-0.6c-0.4-0.4-0.2-0.8,0.1-1.1c1.7-1.8,3.5-2.9,5.5-3.3c0.3-0.1,0.5-0.1,0.7-0.1
				c1,0,2,0.4,2.9,0.8l0.1,0c1.8,0.7,3.2,1.5,4.3,2.8C83.4,38,83.6,38.9,83.2,40.1z"/>
			<path class="st3" d="M79.8,37.1c-1-0.5-2-0.9-3-1.2c-0.3-0.1-0.5-0.2-0.8-0.3c-0.3-0.1-0.5-0.1-0.8-0.1c-0.6,0-1.1,0.2-1.8,0.6
				c-0.2,0.1-0.4,0.2-0.6,0.3c-0.2,0.1-0.4,0.2-0.6,0.3c-0.2,0.1-0.4,0.5-0.4,0.6c0.2,0.4,0.1,0.6-0.2,0.8l0,0c-0.6,0.7-1,1.3-1,2.1
				c0,2.5,1.8,4.4,4.2,4.4c0.4,0,0.7,0,1.1-0.1c2-0.5,3.6-1.7,4.8-3.6c0.6-0.9,0.8-1.6,0.6-2.2C81.2,38.1,80.7,37.6,79.8,37.1z
				 M80.7,40.8c-1.2,1.9-2.7,3.1-4.7,3.5c-0.4,0.1-0.7,0.1-1.1,0.1c-2.3,0-4.1-1.8-4.1-4.3c-0.1-0.8,0.4-1.4,0.9-2l0,0
				c0.2-0.3,0.4-0.5,0.2-0.9c0-0.1,0.2-0.4,0.3-0.5c0.2-0.1,0.4-0.2,0.6-0.3c0.2-0.1,0.4-0.2,0.6-0.3c0.6-0.4,1.2-0.6,1.7-0.6
				c0.3,0,0.5,0,0.8,0.1c0.3,0.1,0.5,0.2,0.8,0.3c1,0.3,2.1,0.7,3,1.2c0.9,0.5,1.4,1,1.5,1.5C81.4,39.3,81.2,39.9,80.7,40.8z"/>
			<path class="st3" d="M149.7,45.8c-0.5-0.7-1.1-0.9-1.5-0.9c0-0.4,0-0.8,0-1.2c0-0.4,0-0.8,0-1.2c0-1.6,0-3.4,0-5.1
				c0-0.4,0-0.8-0.2-1.3c-0.2-0.7-0.8-1.2-1.5-1.3c-0.1,0-0.2,0-0.3,0c-0.6,0-1.2,0.3-1.6,0.5c-0.1,0-0.2,0.1-0.2,0.1
				c-0.1,0-0.1,0.1-0.2,0.1c-0.3,0.2-0.7,0.4-0.8,0.8c-0.6,1.2-1.2,2.4-2,3.9c-0.1,0.3-0.3,0.6-0.4,0.8c-0.1,0.3-0.3,0.6-0.4,0.8
				c-0.2,0.4-0.4,0.7-0.6,1.1c-0.2,0.5-0.5,1-0.7,1.5c-0.1,0-0.1,0.1-0.1,0.1c-0.1-0.6-0.1-1.1-0.2-1.6c-0.2-1.6-0.5-3.2,0.2-4.6
				c0.2-0.5,0.2-1.1,0-1.6c-0.3-0.6-0.8-1.1-1.4-1.4c-0.2-0.1-0.4-0.1-0.6-0.2c0.6-0.1,1.2-0.2,1.8-0.3c0.3,0,0.7-0.1,1.1-0.4
				c0.6-0.3,0.9-0.9,0.9-1.6c0-0.9-0.7-1.6-1.2-2c-0.3-0.2-0.7-0.3-1.1-0.3c-0.2,0-0.4,0-0.6,0h0c-0.1,0-0.1,0-0.2,0
				c-0.2,0-0.4,0.1-0.6,0.1l-0.1,0c0,0,0,0-0.1,0h-0.1c-2,0-3.9,0.5-5.7,1l0,0c-0.3,0.1-0.5,0.2-0.8,0.2c-0.4-0.5-1.1-0.8-1.8-0.8
				h-0.1c-0.9,0-1.7,0.6-1.9,1.5c-0.5,0.1-0.9,0.2-1.3,0.2h-0.1c-0.6,0-1.2,0-1.9-0.1l-0.1,0c-0.7,0-1.3-0.1-1.9-0.1h0
				c-0.7,0-1.5,0.4-1.9,1c-0.4,0.7-0.5,1.6,0,2.3c0.4,0.8,1.2,1.3,2.1,1.3h0.2c1.8-0.1,3.5-0.3,5-0.4v5.4c0,0.2,0,0.8,0.4,1.2
				c0,0,0,0,0,0c0,0.1-0.1,0.4-0.2,0.5l0,0c-0.3,0.8-0.3,1.7-0.2,2.5c0.2,0.8,0.5,1.5,1.1,2.2c0.5,0.6,1.3,0.9,1.9,1
				c0.1,0,0.2,0,0.3,0c0.6,0,1.2-0.3,1.6-0.8c0.4-0.5,0.5-1.1,0.3-1.7l-0.1-0.3c-0.3-0.9-0.5-1.8-0.8-2.7c0-0.1,0-0.3,0-0.5
				c0-0.6,0-1.3,0-1.9c0-0.3,0-0.6,0-0.9v-2.1l0-0.1v-2.8c0.2,0,0.3-0.1,0.4-0.1c0.1,0,0.2-0.1,0.3-0.1l0.2,0
				c0.4-0.1,0.7-0.2,1.1-0.3c1.1-0.2,2.1-0.4,3.1-0.5c-0.2,0.1-0.4,0.2-0.6,0.5c-0.2,0.2-0.3,0.4-0.4,0.6c0,0,0,0.1,0,0.1l0,0
				c-0.3,0.7-0.7,1.4-0.7,2.2c-0.1,1.5-0.1,3.3,0.1,5c0.1,1.1,0.4,2.2,0.9,3.6c0.3,0.7,0.8,1.3,1.4,1.7c0.8,0.5,1.8,0.7,2.8,0.5
				c0.8-0.1,1.5-0.5,2.2-1.1c0.5-0.4,0.9-1,1.3-1.7c0.2-0.4,0.4-0.8,0.6-1.2c0,0.4,0.1,0.7,0.1,1.1c0.1,0.7,0.4,1.5,0.9,2.3
				c0.6,0.9,1.3,1.3,2.2,1.3c0.8,0,1.6-0.4,2.1-1.2c0.4-0.5,0.6-0.9,0.7-1.4C150,47.2,150.1,46.4,149.7,45.8z M133.3,35.8
				c-0.4,0.1-0.7,0.2-1.1,0.3l-0.2,0c-0.1,0-0.2,0.1-0.4,0.1c-0.2,0-0.3,0.1-0.5,0.1l0,0v2.9l0,0.1v2.1c0,0.3,0,0.6,0,0.9
				c0,0.6,0,1.3,0,1.9c0,0.1,0,0.4,0,0.5c0.3,0.9,0.5,1.8,0.8,2.7l0.1,0.2l0,0.1c0.2,0.5,0,1.1-0.3,1.6c-0.4,0.5-0.9,0.8-1.5,0.8
				c-0.1,0-0.2,0-0.3,0c-0.5-0.1-1.3-0.4-1.8-1c-0.6-0.7-0.9-1.4-1.1-2.1c-0.2-0.8-0.1-1.6,0.2-2.4l0,0c0.1-0.2,0.2-0.5,0.2-0.6
				c0,0,0-0.1,0-0.1c-0.4-0.4-0.4-1-0.4-1.2V37h-0.1c-1.5,0.1-3.2,0.3-5,0.4h-0.2c-0.8,0-1.6-0.5-2-1.2c-0.4-0.7-0.4-1.6,0-2.2
				c0.4-0.6,1.1-1,1.8-1h0c0.6,0,1.2,0,1.9,0.1l0.1,0c0.6,0,1.3,0.1,1.9,0.1h0.1c0.4,0,0.8-0.1,1.4-0.3l0,0l0,0
				c0.2-0.9,0.9-1.4,1.8-1.4h0.1c0.6,0,1.3,0.4,1.7,0.8l0,0l0,0c0.3-0.1,0.6-0.2,0.8-0.2l0,0c1.8-0.5,3.6-1,5.6-1h0.1l0,0
				c0,0,0,0,0.1,0c0,0,0,0,0,0l0,0c0.1,0,0.3-0.1,0.5-0.1c0.1,0,0.1,0,0.2,0h0c0.2,0,0.4,0,0.5,0c0.4,0,0.7,0.1,1,0.3
				c0.5,0.4,1.1,1.1,1.1,1.9c0,0.6-0.3,1.2-0.9,1.5c-0.4,0.2-0.8,0.3-1.1,0.3C137.2,35.1,135.4,35.4,133.3,35.8z M149.8,47.6
				c-0.1,0.4-0.4,0.9-0.7,1.3c-0.6,0.7-1.3,1.2-2.1,1.2c-0.8,0-1.6-0.5-2.1-1.3c-0.5-0.8-0.8-1.5-0.9-2.2c-0.1-0.4-0.1-0.8-0.1-1.2
				l0-0.2l-0.1,0.2c-0.2,0.5-0.5,0.9-0.7,1.4c-0.4,0.7-0.8,1.2-1.3,1.7c-0.6,0.5-1.3,0.9-2.1,1c-0.2,0-0.5,0.1-0.7,0.1
				c-0.7,0-1.4-0.2-2-0.5c-0.7-0.4-1.1-1-1.4-1.6c-0.5-1.4-0.8-2.5-0.9-3.6c-0.2-1.7-0.1-3.5-0.1-5c0-0.8,0.3-1.5,0.7-2.1l0,0
				c0,0,0-0.1,0.1-0.1c0.1-0.2,0.2-0.4,0.4-0.6c0.4-0.5,0.9-0.6,1.2-0.6c0.3,0,0.5,0.1,0.7,0.2c0.6,0.3,1.1,0.8,1.4,1.4
				c0.2,0.5,0.2,1,0,1.5c-0.7,1.5-0.5,3-0.2,4.7c0.1,0.5,0.2,1.1,0.2,1.7l0,0.1l0.1,0c0.1,0,0.1-0.1,0.2-0.1l0,0l0,0
				c0.3-0.5,0.5-1,0.8-1.5c0.2-0.4,0.4-0.7,0.6-1.1c0.1-0.3,0.3-0.6,0.4-0.8c0.1-0.3,0.3-0.6,0.4-0.8c0.8-1.5,1.4-2.8,2-3.9
				c0.2-0.3,0.5-0.6,0.8-0.8c0.1,0,0.1-0.1,0.2-0.1c0.1,0,0.1-0.1,0.2-0.1c0.4-0.2,0.9-0.5,1.5-0.5c0.1,0,0.2,0,0.2,0h0
				c0.7,0.1,1.2,0.5,1.5,1.2c0.2,0.4,0.2,0.9,0.2,1.2c0,1.7,0,3.5,0,5.1c0,0.4,0,0.8,0,1.2c0,0.4,0,0.8,0,1.2V45h0.1
				c0.4,0,1,0.2,1.5,0.9C150,46.4,149.9,47.2,149.8,47.6z"/>
			<path class="st3" d="M148.1,46c-0.1,0-0.3,0-0.4,0.1c-0.1,0.1-0.2,0.1-0.3,0.1c-0.2,0-0.3-0.3-0.3-0.5c0-0.3,0-0.6,0-0.8
				c0-0.8,0-1.7,0-2.5c0-1.6,0-3.3,0-5c0-0.5,0-1.4-0.7-1.5c0,0-0.1,0-0.1,0c-0.3,0-0.7,0.2-1.1,0.4c-0.2,0.1-0.3,0.2-0.5,0.2
				c-0.1,0.1-0.2,0.2-0.3,0.3c-0.7,1.3-1.3,2.6-2,3.9c-0.2,0.4-0.4,0.8-0.6,1.3c-0.5,1-1,2.1-1.6,3.1c-0.1,0.1-0.2,0.2-0.3,0.3
				c-0.1,0.1-0.2,0.1-0.3,0.2c-0.3,0.2-0.5,0.3-0.8,0.3c0,0-0.1,0-0.1,0c-0.3-0.1-0.7-0.7-0.7-1.1c0-0.6-0.1-1.2-0.2-1.7
				c-0.2-1.7-0.5-3.5,0.3-5.2c0.1-0.2,0.1-0.5,0-0.7c-0.1-0.3-0.4-0.6-0.8-0.8c-0.1-0.1-0.2-0.1-0.3-0.1c-0.4,0-0.6,0.4-0.8,0.7l0,0
				c-0.3,0.5-0.6,1.1-0.6,1.7c-0.1,1.6-0.1,3.2,0.1,4.9c0.1,1,0.4,2,0.8,3.3c0.4,0.9,1.3,1.5,2.4,1.5c0.2,0,0.3,0,0.5-0.1
				c1.1-0.2,1.9-0.9,2.7-2.2c0.5-0.9,0.9-1.8,1.4-2.7c0.2-0.4,0.4-0.9,0.6-1.3c0.1-0.2,0.2-0.3,0.3-0.5c0,0,0.1-0.1,0.1-0.1
				c0,0,0,0,0,0c0,0,0.1,0,0.1,0.1l0,0.5c0,0.4,0,0.8,0.1,1.1c0,1,0.1,2.1,0.2,3.2c0.1,0.5,0.3,1.2,0.7,1.8c0.3,0.5,0.8,0.8,1.2,0.8
				c0.4,0,0.9-0.3,1.2-0.8c0.2-0.3,0.4-0.6,0.5-1c0.1-0.3,0.1-0.7-0.1-0.9C148.5,46.1,148.3,46,148.1,46z M148.7,47.3
				c-0.1,0.4-0.3,0.7-0.5,1c-0.4,0.5-0.8,0.7-1.2,0.7c-0.4,0-0.8-0.3-1.2-0.8c-0.4-0.6-0.6-1.2-0.7-1.8c-0.1-1.1-0.2-2.1-0.2-3.2
				c0-0.4,0-0.8-0.1-1.1l0-0.6l0,0c-0.1,0-0.1,0-0.2-0.1c0,0-0.1,0-0.1,0l0,0l0,0c0,0.1-0.1,0.1-0.1,0.1c-0.1,0.2-0.2,0.3-0.3,0.5
				c-0.2,0.4-0.4,0.9-0.6,1.3c-0.4,0.9-0.9,1.8-1.4,2.7c-0.7,1.3-1.5,1.9-2.6,2.1c-0.2,0-0.4,0.1-0.5,0.1c-1.1,0-2-0.6-2.3-1.5
				c-0.5-1.3-0.8-2.3-0.8-3.3c-0.2-1.6-0.1-3.3-0.1-4.9c0-0.6,0.3-1.1,0.6-1.6l0,0c0.2-0.3,0.3-0.6,0.7-0.6c0.1,0,0.2,0,0.3,0.1
				c0.4,0.2,0.7,0.4,0.8,0.7c0.1,0.2,0.1,0.4,0,0.6c-0.8,1.8-0.6,3.6-0.3,5.3c0.1,0.6,0.2,1.2,0.2,1.7c0,0.4,0.4,1,0.8,1.1
				c0,0,0.1,0,0.1,0c0.2,0,0.5-0.2,0.8-0.3c0.1-0.1,0.2-0.1,0.3-0.2c0.1-0.1,0.3-0.2,0.3-0.3c0.5-1,1.1-2.1,1.6-3.1
				c0.2-0.4,0.4-0.8,0.6-1.3c0.7-1.3,1.3-2.6,2-3.9c0.1-0.1,0.2-0.2,0.2-0.2c0.2-0.1,0.3-0.2,0.5-0.2c0.3-0.2,0.7-0.4,1-0.4
				c0,0,0.1,0,0.1,0c0.6,0.1,0.7,0.7,0.7,1.4c0,1.7,0,3.4,0,5c0,0.8,0,1.7,0,2.5c0,0.3,0,0.6,0,0.8c0,0.4,0.2,0.6,0.4,0.6
				c0.1,0,0.2,0,0.4-0.1c0.1-0.1,0.2-0.1,0.3-0.1c0.2,0,0.4,0.2,0.5,0.4C148.8,46.7,148.8,47,148.7,47.3z"/>
			<path class="st3" d="M67.8,45.1c-0.2,0-0.4,0-0.6,0c-0.3,0-0.5,0-0.8,0c-0.3,0-0.5,0.1-0.8,0.1c-0.4,0.1-0.8,0.1-1.2,0.1h-0.1
				c-0.6,0-1.1-0.1-1.6-0.2c-1.6-0.4-3-1.2-4.3-2c-0.2-0.1-0.3-0.3-0.3-0.5c0-0.2,0.1-0.4,0.3-0.5c0.4-0.4,0.9-0.7,1.3-0.9
				c0.4-0.3,0.8-0.5,1.2-0.8c0.9-0.6,1.9-1.2,2.8-1.8c0.1-0.1,0.2-0.2,0.2-0.3c0.2-0.3,0.3-0.6,0.3-0.9c0-0.7-0.4-1.2-1.1-1.2
				c-0.1,0-0.2,0-0.2,0c-0.3,0-0.6,0.1-0.8,0.2c-0.2,0.2-0.4,0.4-0.5,0.6c-0.3,0.6-0.7,1-1.4,1.3c-1.1,0.4-2,1.2-2.7,2.2
				c-0.1,0.1-0.2,0.2-0.4,0.2c-0.1,0-0.1,0-0.1,0.1c0-0.1,0-0.1,0-0.2c0-0.2-0.1-0.3,0-0.4c0.5-1.5,0.3-3.1,0.1-4.5
				c-0.1-0.5-0.5-1.1-1.1-1.1c-0.1,0-0.1,0-0.2,0l-0.1,0c-0.6,0.1-0.9,0.7-0.9,1.4c0,0.2,0,0.4,0.1,0.6c0,0.1,0,0.2,0,0.3
				c0,0.1,0,0.2,0.1,0.4c0,0.2,0.1,0.5,0,0.7l0,0.2c-0.2,1.8-0.5,3.7-0.1,5.5c0,0.1,0,0.1,0,0.2c0,0.1,0,0.2,0,0.2
				c0,0.3,0.1,0.5,0.1,0.8c0.1,0.7,0.2,1.5,0.3,2.2c0.2,0.7,0.8,1.2,1.5,1.2h0.1c0.8-0.1,1-0.6,1.2-1.2c0-0.1,0-0.1,0.1-0.2
				c0.3-0.7-0.1-1-0.5-1.3c-0.1,0-0.1-0.1-0.2-0.1c-0.2-0.1-0.3-0.3-0.4-0.5c-0.1-0.1-0.1-0.1-0.2-0.2c0,0,0,0,0.1-0.1
				c0,0,0.1-0.1,0.1-0.1c0,0,0,0,0.1,0c0,0,0.1,0,0.1,0c0.2,0.1,0.3,0.2,0.4,0.3c1,0.8,2.1,1.5,3.3,1.9c0.6,0.2,1.1,0.3,1.7,0.4
				c0.6,0.1,1.3,0.1,2.1,0.1c0.7,0,1.3,0,2-0.1c0.4,0,0.7,0,1.1,0c0.7,0,1.2-0.5,1.2-1.1C69,45.7,68.5,45.2,67.8,45.1z M67.8,47.3
				c-0.4,0-0.7,0-1.1,0c-0.7,0-1.3,0.1-2,0.1c-0.8,0-1.5,0-2-0.1c-0.6-0.1-1.1-0.2-1.7-0.4c-1.2-0.4-2.3-1-3.3-1.9
				c-0.1-0.1-0.3-0.2-0.4-0.3c0,0-0.1,0-0.1,0c0,0-0.1,0-0.1,0c0,0,0,0-0.1,0h0l0,0c0,0-0.1,0.1-0.1,0.1c0,0-0.1,0.1-0.1,0.1l0,0
				l0,0c0.1,0.1,0.1,0.1,0.2,0.2c0.1,0.2,0.3,0.3,0.4,0.5c0.1,0,0.1,0.1,0.2,0.1c0.4,0.3,0.8,0.6,0.5,1.2c0,0.1,0,0.1-0.1,0.2
				c-0.2,0.6-0.4,1.1-1.1,1.1h-0.1c-0.7,0-1.3-0.5-1.4-1.1c-0.2-0.7-0.3-1.5-0.3-2.2c0-0.3-0.1-0.5-0.1-0.8c0-0.1,0-0.1,0-0.2
				c0-0.1,0-0.2,0-0.3c-0.4-1.8-0.1-3.7,0.1-5.5l0-0.2c0-0.2,0-0.5,0-0.7c0-0.1,0-0.2-0.1-0.4c0-0.1,0-0.2,0-0.3
				c0-0.2-0.1-0.4-0.1-0.6c0-0.7,0.3-1.2,0.9-1.3l0,0c0.1,0,0.1,0,0.2,0c0.5,0,0.9,0.5,1,1c0.2,1.4,0.4,2.9-0.1,4.4
				c-0.1,0.1,0,0.3,0,0.5c0,0.1,0,0.2,0,0.2v0.1l0.1,0c0.1,0,0.1-0.1,0.2-0.1c0.2-0.1,0.3-0.1,0.4-0.3c0.7-1.1,1.5-1.8,2.6-2.2
				c0.7-0.3,1.2-0.7,1.5-1.3c0.1-0.3,0.3-0.5,0.5-0.6c0.2-0.1,0.5-0.2,0.8-0.2c0.1,0,0.2,0,0.2,0c0.6,0.1,1,0.5,1,1.1
				c0,0.3-0.1,0.6-0.2,0.8c-0.1,0.1-0.2,0.2-0.2,0.3c-0.9,0.6-1.8,1.2-2.8,1.8c-0.4,0.3-0.8,0.5-1.2,0.8c-0.4,0.3-0.9,0.6-1.3,0.9
				c-0.2,0.2-0.4,0.4-0.3,0.6c0,0.2,0.1,0.4,0.4,0.6c1.2,0.8,2.6,1.6,4.2,2c0.6,0.1,1.1,0.2,1.7,0.3h0.1c0.4,0,0.8-0.1,1.2-0.1
				c0.3,0,0.5-0.1,0.8-0.1c0.2,0,0.5,0,0.7,0c0.2,0,0.4,0,0.6,0c0.7,0.1,1.1,0.5,1.1,1.1C68.8,46.9,68.4,47.3,67.8,47.3z"/>
			<path class="st3" d="M139.9,33.1c0-0.4-0.4-0.9-0.7-1.1c-0.1-0.1-0.2-0.1-0.4-0.1c-0.1,0-0.2,0-0.3,0c-0.1,0-0.3,0-0.4,0
				c-0.1,0-0.2,0-0.4,0.1c-0.1,0-0.2,0.1-0.4,0.1h-0.2c-1.9,0-3.7,0.5-5.4,1c-0.3,0.1-0.6,0.2-1,0.3c-0.2,0-0.3,0.1-0.4,0.1
				c-0.2,0-0.4-0.1-0.6-0.4c-0.2-0.3-0.7-0.5-1.1-0.5h-0.1c-0.4,0-0.8,0.2-0.8,0.8c0,0.2-0.2,0.4-0.3,0.5l-0.2,0.1
				c-0.6,0.2-1.3,0.4-1.9,0.4h-0.2c-0.7,0-1.3,0-2-0.1c-0.6,0-1.3-0.1-1.9-0.1c-0.3,0-0.8,0.2-0.9,0.5c-0.2,0.4-0.2,0.8,0,1.2
				c0.2,0.4,0.7,0.7,1.1,0.7h0.1c2-0.1,4-0.3,5.5-0.4c0.1,0,0.1,0,0.1,0c0.4,0,0.5,0.1,0.5,0.5c0,1,0,2,0,3c0,1,0,2,0,3
				c0,0,0,0.1,0,0.1c0,0.2,0,0.4,0.1,0.5c0.5,0.6,0.3,1.1,0.1,1.7c-0.4,1.3-0.2,2.5,0.7,3.6c0.3,0.3,0.8,0.6,1.2,0.7
				c0.1,0,0.1,0,0.1,0c0.3,0,0.5-0.1,0.7-0.4c0.2-0.2,0.2-0.5,0.2-0.7c-0.1-0.3-0.2-0.5-0.2-0.7c-0.2-0.7-0.4-1.5-0.6-2.2
				c-0.1-0.3-0.1-0.5-0.1-0.8v-3.8l0-0.1c0-1.4,0-2.8,0-4.2c0-0.5,0.2-0.7,0.6-0.8c0.4-0.1,0.7-0.2,1.1-0.3c0.4-0.1,0.8-0.2,1.3-0.3
				c2.1-0.4,4-0.7,5.8-0.9C139.3,33.8,139.9,33.6,139.9,33.1z M138.8,33.8c-1.8,0.3-3.6,0.5-5.8,0.9c-0.4,0.1-0.9,0.2-1.3,0.3
				c-0.3,0.1-0.7,0.2-1.1,0.3c-0.5,0.1-0.7,0.4-0.7,0.9c0,1.4,0,2.8,0,4.2l0,0.1v3.8c0,0.3,0,0.6,0.1,0.8c0.2,0.7,0.4,1.5,0.6,2.2
				c0.1,0.3,0.2,0.5,0.2,0.7c0.1,0.2,0,0.4-0.1,0.6c-0.2,0.2-0.4,0.3-0.6,0.3c0,0-0.1,0-0.1,0c-0.4-0.1-0.9-0.3-1.2-0.6
				c-0.9-1-1.1-2.2-0.7-3.5c0.2-0.6,0.4-1.2-0.1-1.8c-0.1-0.1-0.1-0.3-0.1-0.4c0,0,0-0.1,0-0.1c0-1,0-2,0-3c0-1,0-2,0-3
				c0-0.4-0.2-0.6-0.6-0.6c0,0-0.1,0-0.1,0c-1.5,0.1-3.5,0.3-5.5,0.4h-0.1c-0.4,0-0.8-0.3-1-0.7c-0.2-0.4-0.2-0.8,0-1.1
				c0.2-0.2,0.6-0.5,0.9-0.5c0.6,0,1.3,0,1.9,0.1c0.7,0,1.3,0.1,2,0.1h0.2c0.6,0,1.3-0.2,1.9-0.4l0.2-0.1c0.2-0.1,0.3-0.4,0.3-0.6
				c0-0.5,0.4-0.7,0.7-0.7h0.1c0.4,0,0.8,0.2,1,0.5c0.2,0.3,0.4,0.4,0.7,0.4c0.1,0,0.2,0,0.4-0.1c0.3-0.1,0.7-0.2,1-0.3
				c1.7-0.5,3.5-1,5.4-1h0.2c0.1,0,0.3,0,0.4-0.1c0.1,0,0.2-0.1,0.3-0.1c0.1,0,0.3,0,0.4,0c0.1,0,0.2,0,0.3,0c0.2,0,0.3,0,0.4,0.1
				c0.3,0.2,0.7,0.7,0.7,1.1C139.8,33.4,139.5,33.7,138.8,33.8z"/>
			<path class="st3" d="M52.7,39.3c-0.2-0.1-0.4-0.2-0.7-0.2c-0.6,0-1.5,0.3-1.8,0.7c-0.6,1-1.6,1.4-2.4,1.7c-0.3,0.1-0.8,0.1-1.2,0
				c-0.4-0.2-0.9-0.6-1.2-1.1c-0.5-0.7-0.8-1.5-0.7-2c0.3-2.1,1.3-3.8,2.9-4.8c0.2-0.1,0.4-0.2,0.6-0.2c0.4,0,0.7,0.3,0.8,0.8
				c0,0.1,0,0.2,0,0.2c0,0.1,0,0.2,0,0.3c0.1,0.5,0.4,0.8,0.9,0.9c0.1,0,0.1,0,0.2,0c0,0,0.1,0,0.1,0c0,0,0.1,0,0.1,0
				c0.8-0.1,1.2-0.4,1.1-1c0-0.1,0-0.3,0-0.4c-0.1-1.1-0.5-1.9-1.2-2.6c-0.5-0.5-1.1-0.7-1.6-0.7c-0.4,0-0.8,0.1-1.2,0.3
				c-3.2,1.8-4.8,4.3-4.8,7.6c-0.1,1.9,0.7,3.4,2.5,4.5c0.7,0.4,1.5,0.9,2.3,0.9c0.1,0,0.1,0,0.2,0c0.4,0,0.8-0.2,1.2-0.4
				c1.2-0.7,2.3-1.5,3.4-2.3c0.4-0.3,0.7-0.7,1-1.2l0,0C53.1,40,52.9,39.5,52.7,39.3z M52.9,40.2c-0.3,0.5-0.6,1-0.9,1.2
				c-1.1,0.8-2.3,1.6-3.4,2.3c-0.4,0.2-0.8,0.4-1.2,0.4c0,0-0.1,0-0.1,0c-0.8,0-1.6-0.4-2.3-0.9c-1.7-1.1-2.6-2.6-2.4-4.4
				c0.1-3.3,1.6-5.8,4.8-7.5c0.4-0.2,0.8-0.3,1.1-0.3c0.6,0,1.1,0.2,1.6,0.7c0.7,0.7,1.1,1.6,1.2,2.6c0,0.1,0,0.2,0,0.3
				c0,0.6-0.3,0.9-1,0.9c0,0-0.1,0-0.1,0c0,0-0.1,0-0.1,0c0,0-0.1,0-0.1,0c-0.5,0-0.8-0.3-0.9-0.8c0-0.1,0-0.2,0-0.3
				c0-0.1,0-0.2,0-0.2c-0.1-0.5-0.4-0.9-0.9-0.9c-0.2,0-0.4,0.1-0.6,0.2c-1.6,1.1-2.6,2.7-2.9,4.9c-0.1,0.6,0.3,1.5,0.8,2.2
				c0.4,0.5,0.8,0.8,1.2,1c0.4,0.1,0.9,0.2,1.2,0c0.8-0.3,1.8-0.7,2.4-1.7c0.3-0.4,1-0.7,1.7-0.7c0.3,0,0.5,0.1,0.7,0.2
				C52.8,39.5,53,40,52.9,40.2z"/>
		</g>
	</g>
</g>
</svg>
