<?xml version="1.0" encoding="utf-8"?>
<!-- Generator: Adobe Illustrator 24.0.0, SVG Export Plug-In . SVG Version: 6.00 Build 0)  -->
<svg version="1.1" id="Слой_1" xmlns="http://www.w3.org/2000/svg" xmlns:xlink="http://www.w3.org/1999/xlink" x="0px" y="0px"
	 viewBox="0 0 1500 600" style="enable-background:new 0 0 1500 600;" xml:space="preserve">
<style type="text/css">
	.st0{fill-rule:evenodd;clip-rule:evenodd;fill:#464342;}
</style>
<g>
	<g>
		<path class="st0" d="M238.8255,483.34006c-35.01163-2.48059-69.00339-14.12543-98.54474-33.75909
			c-18.18095-12.08276-36.01194-28.92065-49.34836-46.60181c-16.19479-21.46783-28.45923-46.87836-34.8086-72.11798
			c-15.19447-60.39319-2.59345-123.60962,34.47094-172.93335c28.13314-37.4397,68.80759-64.29855,114.18761-75.40164
			c59.67007-14.59949,122.3324-1.70316,171.33405,35.26279c17.70651,13.35815,34.49954,31.14099,46.59967,49.34949
			c12.65347,19.04047,22.58832,41.26941,27.92578,62.48785c16.39166,65.15198,0.58484,132.52533-43.08624,183.6568
			c-7.19766,8.42749-20.48706,21.00604-29.87283,28.27539c-24.31464,18.8335-54.10858,32.34106-84.78345,38.44
			c-16.62872,3.30573-36.90332,4.55933-54.07492,3.34259L238.8255,483.34006L238.8255,483.34006z M269.28427,468.54654
			c28.36588-2.20874,56.77261-11.53479,82.49796-27.08429c26.06992-15.75763,50.01501-40.44354,65.53052-67.55902
			c23.86041-41.6994,30.84131-91.10419,19.50626-138.0448c-13.2832-55.00793-51.01822-101.48993-102.36108-126.08685
			c-18.88849-9.04922-38.04517-14.54593-60.25055-17.28812c-8.1669-1.00867-31.81596-1.14401-40.08563-0.22983
			c-28.4252,3.14319-54.58955,11.89926-78.23537,26.1828C88.0002,159.44418,52.85937,237.78635,67.53594,315.4072
			c3.21196,16.98846,8.5107,32.76996,16.31893,48.60138c9.28301,18.8241,20.32998,34.08295,36.01158,49.74139
			c15.79054,15.76776,29.40417,25.64899,48.63322,35.30481C200.43796,465.0903,232.94228,471.37704,269.28427,468.54654
			L269.28427,468.54654z M240.61696,458.45718l0.00288,0.00403c0.86281,0.08105,6.22198,0.18054,11.91049,0.2193
			c20.35458,0.14185,37.47879-2.53882,56.62314-8.86359c46.10129-15.22919,83.91159-48.5163,105.06238-92.49213
			c2.75452-5.7276,6.91937-15.50934,6.91937-16.25085c0-0.12341-1.58191,1.25873-3.5145,3.07043
			c-7.06631,6.62189-16.1568,10.63007-27.16867,11.98035c-7.81836,0.95795-14.1185,0.48602-23.43845-1.75745
			c-3.03787-0.73145-6.08371-1.32965-6.77097-1.32965c-3.68716,0-6.12643,5.03925-9.20016,19.0097
			c-2.33286,10.60364-4.078,13.69147-8.86462,15.69214c-2.4429,1.02057-3.80405,0.8595-5.28754-0.62396
			c-1.19827-1.19794-1.30902-1.57465-1.30902-4.45624c0-3.74573,1.26813-10.62097,3.19965-17.35107
			c1.56671-5.45544,1.76578-8.9989,0.6055-10.76971c-0.59933-0.91388-0.97354-1.07489-1.93805-0.8371
			c-1.69662,0.4187-3.44901,2.23767-4.48227,4.65125c-0.48822,1.14111-1.93369,6.30847-3.21088,11.48199
			c-2.62024,10.61157-3.57639,12.67773-7.66745,16.58636c-2.90216,2.77228-4.37222,3.32922-5.98926,2.27026
			c-1.69373-1.10999-2.4704-2.59851-2.98828-5.72217c-0.4021-2.43024-0.32538-3.57135,0.52332-7.76807
			c1.24207-6.1391,2.29886-9.61163,4.5239-14.86292c0.96051-2.2663,1.74622-4.73566,1.74622-5.48767
			c0-1.16248-0.16937-1.36658-1.13062-1.36658c-0.80634,0-2.23624,1.06073-4.98389,3.69543
			c-4.56006,4.37335-6.68665,7.37109-9.57434,13.4975c-1.37491,2.91663-2.75162,5.1131-3.86267,6.1626
			c-4.05524,3.83051-7.64575,4.1095-9.39413,0.72925c-1.4444-2.79248,0.45166-12.83191,3.60428-19.09259
			c2.76245-5.48767,9.13138-12.57025,15.67941-17.43829c3.60211-2.67743,10.23233-5.80328,14.00848-6.60345
			c5.79965-1.22906,16.7724-0.6319,25.63705,1.3941c5.77466,1.32025,8.03082,0.89642,7.35583-1.38287
			c-1.63147-5.50903-19.50626-9.42163-32.69104-7.1557c-7.64102,1.31335-11.8573,3.07263-15.69717,6.5495
			c-2.32672,2.10815-2.64374,2.25793-4.28827,2.03717c-2.38211-0.31989-5.68634-2.42804-6.81516-4.34869
			c-1.07196-1.82513-1.19394-6.46521-0.51682-19.70825c0.60513-11.83051,0.58994-11.89746-4.48407-18.64343
			c-5.12753-6.81696-6.70947-9.50812-7.3989-12.58258c-0.49945-2.22717-0.45856-2.4715,0.86169-5.15106
			c0.76221-1.54718,2.99374-4.72003,4.95819-7.05078c4.13229-4.90277,5.81772-7.54657,7.91354-12.41748
			c3.39581-7.89111,5.25568-16.81732,5.3009-25.45142c0.03583-6.72144-0.47192-8.95184-2.4856-10.92065
			c-3.17325-3.10303-4.84128-1.98584-4.84418,3.2431c-0.00433,7.73291-1.57794,18.48419-3.59378,24.5462
			c-1.99738,6.00775-3.98972,9.3623-7.83572,13.20038c-3.052,3.04474-4.41135,4.01721-8.31491,5.9458
			c-7.91464,3.91193-14.10294,4.60028-20.00174,2.22723c-2.09076-0.84113-2.50224-0.1958-2.54532,3.99799
			c-0.03185,3.10339-0.19687,3.78125-1.39227,5.71423c-1.75925,2.8446-6.08624,6.46625-13.87386,11.61298
			c-13.62088,9.0022-26.61456,15.62732-37.40204,19.07239c-8.04202,2.56775-8.30875,2.74219-13.07982,8.57544
			c-1.12663,1.37671-2.77731,2.60181-5.15108,3.82361c-6.9534,3.57819-10.49289,4.10046-15.99068,2.36145
			c-9.34273-2.95465-10.07632-11.75775-1.31627-15.78656c1.4375-0.66156,4.22566-1.92535,6.19446-2.80988
			c3.96619-1.78094,9.35106-5.67401,11.19971-8.09808c0.65939-0.86499,1.78893-3.18951,2.51021-5.16559
			c1.77083-4.85358,2.83955-6.85382,4.25752-7.96887c1.59096-1.25189,2.36653-1.1911,6.14815,0.48096
			c1.7654,0.78064,4.25751,1.51025,5.5376,1.62097c2.31261,0.20013,2.34337,0.18567,4.71823-2.20367
			c2.1483-2.16168,2.53917-2.8714,3.86122-7.00983c1.16138-3.63464,1.93695-5.19305,3.681-7.39166
			c1.21565-1.53162,3.06647-3.87897,4.11385-5.21442l1.90401-2.4295l0.04308-6.30597
			c0.05356-7.83899,0.90694-11.62457,3.21521-14.25671c1.01372-1.15631,3.57025-0.97974,7.70761,0.53015
			c5.41455,1.97607,9.98369,2.87866,12.8616,2.54028c2.76065-0.32428,4.842-1.24463,5.43698-2.40381
			c0.22076-0.42889,0.53563-4.30676,0.69994-8.61853c0.58449-15.3186,1.82802-18.61163,9.41222-24.94037
			c2.2283-1.85986,4.51413-4.00818,5.07944-4.77435c1.4411-1.95325,2.04877-4.58575,1.71509-7.42859
			c-0.31088-2.64771-1.73248-6.30591-2.45087-6.30591c-0.55481,0-2.0723,2.02991-4.25427,5.69031
			c-2.52795,4.24231-4.96722,6.5155-8.02139,7.47565c-3.3969,1.06799-5.86621,0.69775-8.8013-1.32135
			c-2.56848-1.76758-4.23979-1.97461-4.96724-0.61633c-0.67206,1.25543,0.3069,2.7002,2.75777,4.0697
			c3.71358,2.0741,3.75374,2.22101,3.75374,13.73846c0,9.41077-0.06984,10.30939-0.9511,12.21454
			c-0.61852,1.33545-1.55948,2.43311-2.68791,3.13483c-1.56346,0.97284-2.20259,1.07526-6.43948,1.03326
			c-3.3712-0.034-5.78189-0.33765-8.5107-1.07196c-5.59007-1.50409-5.91652-1.52368-7.71378-0.46399
			c-2.18919,1.29169-2.58946,2.71869-2.58946,9.23199c0,7.51257-0.65543,11.63074-2.77586,17.43109
			c-4.49855,12.3064-9.01448,18.22076-13.91113,18.22076c-2.75667,0-8.97032-2.57501-11.6785-4.83911
			c-1.39952-1.17041-1.59241-1.2207-2.48598-0.65472c-0.51608,0.32758-0.48712,0.72858,0.17336,2.45813
			c1.68867,4.42255-0.27287,11.54858-3.61729,13.14386c-1.37671,0.65759-1.87614,0.67712-4.12796,0.16724
			c-1.40855-0.31921-3.62671-0.68732-4.92741-0.81757c-2.99663-0.30078-3.69113,0.27795-5.26074,4.38562
			c-2.43565,6.37469-7.22952,11.88879-12.46349,14.33893c-6.20967,2.90503-14.65811,3.38928-19.32387,1.10669
			c-1.83308-0.89752-2.88878-1.86926-4.64803-4.28101c-2.89203-3.96509-6.4858-6.62012-14.98927-11.07446
			c-7.81329-4.09216-11.17328-6.63531-13.20142-9.99097c-1.36006-2.25214-1.46393-2.68066-1.28008-5.3595
			c0.25226-3.7002,1.70605-8.82886,3.1309-11.04773c2.2272-3.46857,7.80171-7.92584,17.55485-14.03705
			c2.94958-1.8479,6.37795-4.36755,7.6204-5.59949c2.76283-2.74005,5.67331-8.26025,8.26569-15.67761
			c1.03288-2.95648,2.39766-6.28241,3.03136-7.39166c3.88728-6.79852,10.70642-13.50073,20.18124-19.83527
			c3.90068-2.60797,8.05759-5.78735,9.33875-7.14343c2.93004-3.09937,5.8036-9.0061,8.51505-17.50269
			c1.11613-3.49823,2.2681-6.86224,2.56052-7.47675c0.8125-1.70605,1.92682-1.659,2.6662,0.11182
			c1.08646,2.60181,3.29231,4.69434,6.03632,5.7287c2.09909,0.79077,3.26335,0.93048,6.60487,0.78894
			c5.51299-0.23303,8.44519-1.63147,11.16351-5.3244c2.32057-3.15259,3.12184-6.00446,3.13522-11.16388
			c0.00833-3.13702-0.18059-4.19598-1.07524-6.01276c-2.32852-4.73126-6.88065-7.71161-12.49931-8.1825
			c-2.69298-0.22546-3.40594-0.11359-5.50502,0.86682c-1.3264,0.61993-3.55252,2.15875-4.94661,3.41931
			c-1.39444,1.26093-2.74835,2.29309-3.00783,2.29309c-1.79871,0-2.10416-6.23755-0.53563-10.90839
			c1.53377-4.56403,7.32471-15.82239,9.65759-18.77161c4.46779-5.64978,9.18494-7.3515,13.7859-4.97266
			c1.89606,0.98077,4.48842,3.83154,7.7876,8.56427c5.60637,8.04095,6.75941,8.87805,11.24783,8.1546
			c6.70621-1.08032,11.75885-3.95172,18.48569-10.50812c2.84064-2.76898,6.06599-5.50787,7.16656-6.08771
			c2.65425-1.39734,7.4767-1.48126,9.92757-0.17224c3.67267,1.96045,10.02423,7.86542,16.87192,15.68488
			c8.22952,9.39697,10.40244,11.12659,13.60822,10.83344c1.4549-0.13354,2.8736-0.69165,4.5029-1.77374
			c3.83881-2.54858,5.86911-3.42657,9.19183-3.97559c3.78052-0.62463,5.87634-0.29535,7.21722,1.13171
			c1.71619,1.82617,1.89386,3.96619,0.94495,11.34009c-0.47412,3.6861-0.75098,7.12787-0.61453,7.65009
			c0.32101,1.22906,1.29349,1.49976,3.51053,0.97571c0.98477-0.23309,2.92352-0.42889,4.30676-0.43396
			c2.99951-0.01337,4.53836,0.97034,5.3447,3.41321c0.70175,2.12769,0.18674,3.78345-2.70023,8.66956
			c-2.58115,4.37048-2.85187,6.15869-1.18381,7.82672c1.07706,1.07703,2.4447,1.55402,7.09418,2.47546
			c5.62085,1.11395,6.35226,5.29871,1.95432,11.17578c-1.71835,2.29529-1.55115,4.10773,0.57544,6.23468
			c2.02707,2.02594,3.83047,2.49573,7.91281,2.0589c5.42868-0.58087,7.62222,1.12122,7.52487,5.84125
			c-0.10062,4.82391-3.21631,11.19751-6.79053,13.88544c-2.4212,1.82184-3.6582,3.75879-3.6582,5.72974
			c0,2.04846,0.89355,2.68866,5.10764,3.6582c4.4924,1.0329,6.82022,2.19031,7.86868,3.90973
			c1.80881,2.96698,0.81683,8.61963-2.17798,12.39978c-2.72992,3.4472-1.35718,7.12897,3.32703,8.92224
			c7.71558,2.95355,10.51025,5.03815,10.51025,7.83972c0,0.79218-0.29855,2.85114-0.66373,4.57562
			c-0.3887,1.8363-0.66702,5.55426-0.67209,8.97137c-0.01013,7.98956-0.82477,8.97253-5.88647,7.10327
			c-3.81201-1.40857-13.77759-0.85162-22.07294,1.23193c-6.9762,1.75348-12.53732,5.78296-11.68503,8.46796
			c0.37134,1.16827,1.16248,1.11725,7.07248-0.45673c6.40076-1.70386,14.83762-3.14429,18.4198-3.14429
			c5.50394,0,15.61212,2.29382,20.19174,4.58252c3.02014,1.50922,6.26721,4.25464,8.10464,6.85101
			c1.70676,2.41284,1.79507,2.4682,3.54239,2.2478c14.88538-1.87939,22.02661-1.15808,33.70657,3.40594
			c4.98676,1.94818,9.23886,4.53943,11.12042,6.77496c1.09369,1.29962,2.13202,3.284,3.21124,6.138
			c0.34055,0.90265,0.68329-0.25873,1.84647-6.27155c4.67914-24.18323,4.6882-46.6286,0.02859-70.09161
			c-8.87985-44.70941-35.05975-84.75085-72.69742-111.18488c-24.43658-17.16327-51.86472-27.55225-82.70425-31.3288
			c-9.12305-1.11722-30.29338-1.11722-39.41753,0c-26.61783,3.25937-49.95673,11.17725-72.00615,24.42755
			c-26.16544,15.72504-48.08131,38.11499-63.29749,64.66803c-34.22773,59.73016-30.79102,134.29791,8.78973,190.71802
			c24.82964,35.39203,61.20566,60.41345,103.20361,70.98846C219.50705,455.95169,227.3768,457.20755,240.61696,458.45718
			L240.61696,458.45718z M148.54718,384.14456c0.80235-0.38037,1.97386-1.237,2.60178-1.90399
			c1.41869-1.50372,3.53333-7.45105,4.83006-13.58289c0.54033-2.55725,1.50374-6.00446,2.13997-7.66022
			c1.53885-4.00092,5.7468-10.24353,7.46948-11.08063c2.05891-1.00031,5.92123-0.82477,8.21936,0.37354
			c2.76067,1.43823,6.19229,1.38501,8.79082-0.13861c2.41902-1.41766,3.17505-2.4621,5.69974-7.86945
			c1.42087-3.04401,2.84064-5.21259,4.98605-7.6153c3.19566-3.58038,5.2278-7.05798,5.2278-8.94684
			c0-1.37671-1.13966-3.14716-2.02525-3.14716c-0.34671,0-2.19934,1.43103-4.11783,3.18121
			c-2.04335,1.86383-4.69325,3.75989-6.39931,4.57959c-4.13229,1.98401-9.22691,2.14288-19.26126,0.5979
			c-11.65932-1.79437-15.87558-2.20367-23.06821-2.23737c-5.00812-0.0246-7.44379,0.16327-9.56639,0.73364
			c-11.59236,3.1153-22.03277,11.67053-26.69962,21.87787c-1.44656,3.16382-3.37627,10.44653-3.36504,12.70056
			c0.01122,2.30933,1.38503,5.31934,2.87248,6.29395c1.51315,0.99091,4.43305,0.63806,5.86803-0.71112
			c0.57652-0.54144,1.87868-2.95142,2.89311-5.35522c3.51271-8.32574,7.49626-14.18256,10.84177-15.94214
			c1.64417-0.86499,3.77509-0.81866,4.12399,0.08936c0.32825,0.85559,0.18457,1.14368-4.75624,9.57764
			c-4.7385,8.08905-6.11015,12.18768-6.29363,18.80341c-0.07491,2.68579-0.01339,2.85297,1.56527,4.2995
			c5.16338,4.73163,8.55304,1.60364,15.57411-14.36859c5.35303-12.17938,5.37981-12.22748,8.10138-14.74713
			c2.72807-2.52576,4.55717-3.32996,5.60237-2.46313c1.24968,1.03723,0.68764,3.0849-2.04335,7.44086
			c-4.31795,6.88684-6.41994,13.81055-6.47639,21.34045c-0.03293,4.28827,0,4.43304,1.22363,5.48767
			c1.45886,1.25653,3.33319,1.39081,5.44241,0.39087L148.54718,384.14456L148.54718,384.14456z M280.9313,353.45016
			c1.84753-0.23596,4.30023-0.73975,5.45145-1.11829c2.33072-0.76831,5.87527-3.65131,6.88174-5.59839
			c0.80923-1.56458,0.85049-4.01434,0.08505-5.06171c-0.80344-1.09875-3.2952-1.55511-6.16553-1.12952
			c-7.53641,1.11829-10.99341,1.29999-25.06558,1.31628c-24.29507,0.02783-37.40385-1.37164-50.3353-5.37476
			c-4.85974-1.50372-7.16077-1.68756-9.40244-0.75098c-3.16383,1.32245-4.67699,5.38092-3.1812,8.53241
			c1.19539,2.51746,3.7816,3.78851,8.78973,4.31909c2.30211,0.24426,6.10001,0.93445,8.44121,1.53558
			c8.24506,2.11646,18.24031,3.2901,32.47462,3.81238c10.75526,0.39484,27.07527,0.14874,32.02696-0.48425L280.9313,353.45016
			L280.9313,353.45016z M288.39462,332.20279c1.88339-0.7868,3.26227-3.55579,3.2764-6.57593
			c0.01337-2.8877-0.59174-4.22028-2.32239-5.11816c-1.32242-0.68616-3.16202-0.75494-17.82486-0.66663
			c-22.33279,0.13428-36.53418-0.98077-51.87811-4.0719c-7.76913-1.56561-9.17879-1.44653-11.49429,0.97064
			c-1.05641,1.10278-1.33147,1.83923-1.48636,3.97925c-0.17336,2.39948-0.0789,2.74542,1.09152,4.00415
			c4.19273,4.51196,34.90594,8.40106,63.87509,8.09015c4.86374-0.05243,8.99493,0.06158,9.1824,0.25446
			c0.48352,0.49548,5.76669-0.10675,7.5806-0.86499V332.20279L288.39462,332.20279z M288.20895,311.80002
			c2.21381-0.6145,3.15442-2.42517,3.20764-6.17059c0.03799-2.64697-0.05429-2.91986-1.39517-4.11926
			c-0.7897-0.70679-2.20044-1.42987-3.13489-1.60651c-0.93481-0.17627-6.25272,0.04523-11.81821,0.49255
			c-11.69949,0.94061-25.32326,0.74988-33.10651-0.46362c-6.93495-1.08136-10.30107-0.35394-12.11281,2.617
			c-1.29564,2.12439-1.1317,4.02551,0.50777,5.89264c2.61407,2.97705,3.26842,3.05524,28.40167,3.36792
			c12.31802,0.15381,23.60602,0.31921,25.08405,0.36737c1.47842,0.0481,3.44287-0.12201,4.36646-0.3786V311.80002
			L288.20895,311.80002z M270.99249,293.94046c12.54132-1.61884,12.57425-1.63947,11.00861-7.1333
			c-0.74588-2.61804-2.37088-4.80835-4.05121-5.46155c-0.61453-0.23926-2.56995-0.04742-5.37549,0.52618
			c-2.42551,0.49548-7.29538,1.38287-10.8222,1.97168c-9.08107,1.51532-10.83635,2.65826-12.2554,7.98053
			c-0.56023,2.10089-0.5425,2.20367,0.53346,3.08057c1.02277,0.83533,1.51134,0.88452,6.04066,0.6178
			c2.71033-0.16034,9.42487-0.87219,14.92157-1.58118V293.94046L270.99249,293.94046z M387.27087,291.6843
			c1.34991-1.34991,0.51392-2.44147-2.01077-2.62531c-1.07922-0.07892-2.11429-0.38037-2.29922-0.67169
			c-0.18457-0.29132-0.33948-2.79688-0.34348-5.56873l-0.0054-5.03925h1.31229c1.2486,0,2.71976-0.96918,2.71976-1.79218
			c0-0.82263-1.47116-1.79218-2.71976-1.79218c-1.29675,0-1.31229-0.02972-1.31229-2.53992
			c0-2.83557-0.80637-4.17865-2.50696-4.17865c-1.50519,0-2.4201,1.62897-2.4201,4.30676c0,2.0683-0.11508,2.34412-1.07019,2.58405
			c-1.93369,0.48535-1.96878,2.74652-0.05029,3.22754c0.9902,0.24823,1.02603,0.44226,1.19104,6.45392
			c0.1806,6.58716,0.49475,7.5332,2.84064,8.56427c1.53995,0.67609,5.64148,0.10571,6.67545-0.92865H387.27087L387.27087,291.6843z
			 M393.61191,292.37375c0.76724-0.56097,0.89536-1.36658,1.09332-6.87451c0.15601-4.34979,0.4104-6.46301,0.83929-6.97906
			c0.89572-1.07819,3.92093-0.9942,4.52097,0.12628c0.25552,0.47699,0.46399,3.50006,0.46399,6.7196
			c0,5.25531,0.09119,5.94403,0.89536,6.74817c1.07016,1.06982,1.72052,1.11938,2.99155,0.22986
			c0.87512-0.61237,0.96451-1.15125,1.10782-6.67255c0.13354-5.14063,0.27902-6.14203,1.00974-6.94836
			c1.12228-1.2392,3.63577-1.28442,4.28214-0.07562c0.25516,0.47589,0.46359,3.5,0.46359,6.71924
			c0,5.25568,0.09122,5.94403,0.89539,6.74854c1.08972,1.09045,2.12369,1.13965,3.21231,0.15491
			c0.72635-0.65649,0.81863-1.52545,0.81863-7.63776c0-5.16125-0.16431-7.21326-0.65253-8.15674
			c-0.74261-1.43756-3.13089-2.73102-5.01462-2.71582c-1.44656,0.01123-4.80508,1.41797-5.30164,2.21997
			c-0.22983,0.3717-0.70792,0.16724-1.58914-0.67603c-1.8027-1.72742-4.51196-1.94092-7.18756-0.56604l-2.0506,1.05353
			l-0.78897-1.04633c-0.54791-0.72559-1.15015-1.00354-1.96951-0.90802c-2.05093,0.23889-2.35242,1.57794-2.21924,9.83533
			c0.10785,6.60229,0.2186,7.56464,0.97464,8.39886c0.99634,1.09875,1.99014,1.19391,3.20508,0.30579V292.37375L393.61191,292.37375
			z M196.5713,175.38962c0.17227-0.44946-0.22873-1.16461-1.10202-1.96155c-3.14825-2.87573-2.82109-8.91095,0.6301-11.62634
			c0.65433-0.51392,1.74297-0.93555,2.41901-0.93555c1.08031,0,1.29057,0.23993,1.72777,1.97675
			c0.27361,1.08752,0.36806,2.6264,0.20918,3.41931c-0.22475,1.12231-0.14874,1.39734,0.33948,1.23523
			c0.98077-0.32428,1.7339-2.19031,1.74078-4.31293c0.00543-1.59924,0.14259-1.91125,0.79114-1.78998
			c1.51532,0.28192,2.4353,2.97491,2.15337,6.30304c-0.26166,3.09399,0.01123,3.59558,1.26886,2.33685
			c2.48091-2.48053,2.02815-10.75128-0.81357-14.88574c-5.45763-7.94141-16.11554-5.75732-18.91528,3.87567
			c-1.53052,5.26617,0.21461,12.4646,3.65857,15.09204c2.43855,1.85986,5.4207,2.50409,5.89262,1.27429V175.38962
			L196.5713,175.38962z M141.24815,287.83719h-0.00108c0.42995,0.94385,0.82805,1.14075,2.29922,1.14075
			c2.55725,0,4.58757-2.21057,5.02548-5.47211c0.17445-1.30072,0.58702-3.02014,0.91637-3.81921
			c0.56819-1.38,0.54468-1.46722-0.45564-1.71838c-1.31012-0.32825-2.50117,0.29462-5.04433,2.63867
			C140.89203,283.46097,140.1483,285.42325,141.24815,287.83719L141.24815,287.83719z M108.32838,273.00174h0.00108
			c0.16395,0.16431,1.25873,0.29858,2.43132,0.29858c1.79218,0,2.28655-0.1969,3.10121-1.23193
			c2.11139-2.68396,3.12402-7.29944,1.44765-6.59949c-0.43104,0.1795-1.38902,0.53345-2.12768,0.7868
			c-2.65208,0.90698-3.51886,1.46613-4.32737,2.78925C108.03487,270.38583,107.76199,272.4357,108.32838,273.00174
			L108.32838,273.00174z M235.27298,177.65884h-0.00108c1.81281,0.81573,10.26921,0.69159,13.10262-0.19183
			c4.23689-1.32025,7.7887-6.78839,8.23383-12.67487c0.84653-11.18738-5.69682-19.44977-15.58929-19.68573
			c-4.64224-0.11078-9.55626,3.34113-11.87358,8.34058c-2.46135,5.30884-2.66945,13.34363-0.46289,17.85449
			C229.98148,173.95755,232.54924,176.43375,235.27298,177.65884L235.27298,177.65884z M240.45047,174.98758
			c0.14694-0.38184-0.41438-1.44257-1.32532-2.50732c-2.59563-3.03284-2.72266-7.30231-0.31595-10.62537
			c1.30397-1.80048,3.55469-3.06537,4.68314-2.63214c0.81863,0.31372,1.59312,3.03424,1.61592,5.67511l0.0163,2.01581
			l0.85049-1.01984c0.47301-0.56714,0.98692-2.11719,1.15919-3.49426c0.36517-2.92676,1.27501-3.15149,2.58223-0.63696
			c0.65434,1.25873,0.76509,2.20367,0.56531,4.81451c-0.20628,2.7002-0.13536,3.24817,0.42343,3.24817
			c0.37061,0,1.08357-0.65582,1.58626-1.45599c0.80634-1.28442,0.89465-2.0343,0.75604-6.383
			c-0.13644-4.26263-0.31487-5.22998-1.32858-7.16693c-1.45451-2.78204-3.55469-4.82574-6.17783-6.01172
			c-5.68127-2.56885-12.27383,0.7868-14.82097,7.54437c-0.77557,2.05713-0.90912,3.21307-0.75531,6.53107
			c0.21643,4.68311,1.35825,7.80389,3.67992,10.05243c2.27858,2.20764,6.28059,3.41534,6.80392,2.05206H240.45047z"/>
	</g>
	<g>
		<path class="st0" d="M1156.86804,351.36307c12.89209,0,25.1062,6.7854,31.8916,16.2851
			c0.33887,0.33905,0.33887,0.33905,0.67847,0.67865c0.33911,0.33893,0.67859,0.67853,0.67859,1.01764l0,0
			c4.41052,5.76764,11.53552,9.1601,19.33862,9.1601c13.57056,0,24.76709-11.19586,24.76709-24.76715
			c0-6.44635-2.37488-12.21411-6.44629-16.62451c-16.96375-21.03479-37.32031-33.2489-70.90808-33.2489
			c-53.26587,0-93.63953,36.98077-93.63953,88.88934c0,52.58734,40.03406,89.56805,93.63953,89.56805
			c34.26648,0,54.28394-11.87451,71.24719-30.87402l0,0c3.73181-4.4104,6.10669-9.83875,6.10669-15.94598
			c0-13.57062-10.85693-24.42755-24.42773-24.42755c-7.46387,0-13.91028,3.39301-18.3208,8.48157
			c-8.14246,8.14246-17.30273,15.94598-34.60596,15.94598c-24.42749,0-38.33789-17.64227-38.33789-42.74835
			C1118.86914,368.66623,1132.44031,351.36307,1156.86804,351.36307L1156.86804,351.36307L1156.86804,351.36307z
			 M1347.20044,371.71964c-23.41016-5.08911-34.26648-6.44635-34.26648-15.94598c0-6.78546,6.10681-10.17822,18.3208-10.17822
			c12.89233,0,24.76733,6.10669,32.90979,12.89215l0,0c3.73206,3.73187,8.82117,5.76758,14.58887,5.76758
			c11.87451,0,21.37427-9.49963,21.37427-21.37415c0-6.10675-2.71448-11.87451-7.125-15.60657
			c-13.91028-14.24933-33.92725-23.40991-62.08691-23.40991c-36.64172,0-66.15845,15.60651-66.15845,54.28394
			c0,35.62354,26.1239,48.51617,49.53381,54.62305c27.82056,7.12482,38.67688,7.12482,38.67688,16.62451
			c0,7.125-5.76758,10.51746-23.40991,10.51746c-13.91028,0-26.80237-5.08929-37.6593-13.5708l0.33899,0.33905l0,0
			c-8.48157-7.80353-22.05273-7.46393-30.19531,1.01764c-6.78552,6.7854-7.80347,16.96362-3.39307,25.10626
			c0,0.33905,0.33911,0.67847,0.33911,0.67847c0.33911,0.67871,0.67871,1.35724,1.3573,2.03577
			c0.33899,0.33911,0.67847,1.01764,1.01758,1.35724c0.33911,0.33905,0.67847,1.01758,1.35718,1.35718
			c0.33911,0.33911,0.67859,0.67853,1.0177,1.01764c14.92786,13.23175,36.30212,23.40991,69.21179,23.40991
			c53.94446,0,70.22961-25.78473,70.22961-56.99768C1403.17993,389.02249,1371.96704,377.4874,1347.20044,371.71964
			L1347.20044,371.71964L1347.20044,371.71964z M588.24609,351.36307c12.89215,0,25.10626,6.7854,31.89166,16.2851
			c0.33905,0.33905,0.33905,0.33905,0.67853,0.67865c0.33905,0.33893,0.67865,0.67853,0.67865,1.01764l0,0
			c4.41058,5.76764,11.53546,9.1601,19.33844,9.1601c13.57068,0,24.76715-11.19586,24.76715-24.76715
			c0-6.44635-2.37482-12.21411-6.44629-16.62451c-16.96362-21.03479-37.32037-33.2489-71.24725-33.2489
			c-53.26617,0.00104-93.30042,36.98175-93.30042,88.89038c0,52.58728,40.03424,89.56805,93.63953,89.56805
			c34.26648,0,54.28394-11.87451,71.24719-30.87402l0,0c3.73193-4.41058,6.10675-9.83875,6.10675-15.94598
			c0-13.57086-10.85687-24.42773-24.42755-24.42773c-7.46411,0-13.9104,3.39294-18.3208,8.48175
			c-8.14264,8.14246-17.30292,15.94598-34.26648,15.94598c-24.42773,0-38.33795-17.64233-38.33795-42.74854
			C549.90833,368.66623,563.47894,351.36307,588.24609,351.36307L588.24609,351.36307L588.24609,351.36307z M940.75079,436.52103
			c-24.08862,0-39.01648-17.64227-39.01648-43.08765c0-25.78473,14.92786-43.08746,39.01648-43.08746
			s38.67688,17.30273,38.67688,43.08746C979.08875,418.87875,964.83942,436.52103,940.75079,436.52103L940.75079,436.52103
			L940.75079,436.52103z M940.75079,303.86502c-52.9267,0-94.31805,37.32019-94.31805,89.56787
			c0,51.90875,41.39136,88.88953,94.31805,88.88953c52.92676,0,93.97845-36.98077,93.97845-88.88953
			C1034.72925,341.18521,993.67755,303.86502,940.75079,303.86502L940.75079,303.86502L940.75079,303.86502z M819.29132,315.061
			c-8.48175-4.41058-14.24939-5.42834-26.80255-4.41058c-22.39185,2.03577-39.69501,17.64215-42.74841,21.37421v1.01758
			c0-0.33905,0-0.67853,0-1.01758l0,0l0,0c-1.01776-14.24939-12.89227-25.78479-27.48102-25.78479
			c-15.26752,0-27.48108,12.21393-27.82068,27.14197v121.12042c0.33911,14.92804,12.55316,26.80255,27.82068,26.80255
			c15.26746,0,27.48102-12.21411,27.8205-27.14197v-32.90973c0-44.7843,26.12384-56.31921,40.71277-56.65881
			c3.73187,0,13.57068,3.73206,21.37421,2.37482c15.26746-2.71423,25.1062-17.30267,22.39178-32.23108
			C832.52283,325.91788,826.75525,318.79288,819.29132,315.061z"/>
	</g>
	<g>
		<path class="st0" d="M1415.39404,253.02512v17.64227h-5.4281v-17.64227h-6.44641v-4.41046h17.98145v4.41046H1415.39404
			L1415.39404,253.02512z M1444.91089,270.66739V255.061l0,0l-5.76782,15.60638h-3.73181l-5.76782-15.60638l0,0v15.60638h-5.08911
			v-22.05273h7.46448l5.42822,14.58881l5.4281-14.58881H1450v22.05273H1444.91089z"/>
	</g>
</g>
</svg>
