<?xml version="1.0" encoding="utf-8"?>
<!-- Generator: Adobe Illustrator 24.0.0, SVG Export Plug-In . SVG Version: 6.00 Build 0)  -->
<svg version="1.1" id="Слой_1" xmlns="http://www.w3.org/2000/svg" xmlns:xlink="http://www.w3.org/1999/xlink" x="0px" y="0px"
	 viewBox="0 0 1500 600" style="enable-background:new 0 0 1500 600;" xml:space="preserve">
<style type="text/css">
	.st0{fill-rule:evenodd;clip-rule:evenodd;fill:#F08B21;}
</style>
<path class="st0" d="M172.10588,0.01715C247.79868,0,323.49237,0.03428,399.18472,0
	c31.06232,0.06766,62.04007,10.37102,86.72391,29.2688c25.93564,19.54072,44.93536,48.11605,52.75153,79.65195
	c7.17389,28.49054,5.51544,59.18051-4.97375,86.65649c-10.6416,28.3886-30.6395,53.08954-56.01675,69.65326
	c-23.63519,15.46295-51.9397,23.922-80.21033,23.2626c-75.11752-0.03406-150.23593,0-225.35344-0.01688
	C172.10588,192.32892,172.10588,96.18159,172.10588,0.01715L172.10588,0.01715z M244.00911,72.34345
	c0,48.08199-0.01691,96.16444,0.01715,144.24622c51.19499-0.01692,102.38979-0.0334,153.58549,0
	c10.25287,0.01642,20.53909-1.97937,29.92889-6.14127c25.05545-10.77765,42.97223-36.69614,43.22638-64.10376
	c0.98102-23.00916-10.33762-45.93351-28.76184-59.62051c-11.75815-8.91621-26.3251-14.26228-41.11151-14.39829
	C348.59927,72.3599,296.3042,72.32584,244.00911,72.34345L244.00911,72.34345z M583.29132,2.28355
	c13.34827-4.97351,28.69348-0.76111,38.70911,9.06869c78.73834,57.16758,157.69684,114.04742,236.55341,171.07898
	c0.03357-60.8047,0-121.6094,0.01715-182.41408c23.97253,0,47.92957,0,71.90277,0
	c0.01715,82.61275-0.03357,165.2081,0.03406,247.82091c0.13531,8.49336-1.09943,17.42604-6.05664,24.56496
	c-8.01917,12.58759-24.41321,18.84796-38.81085,15.04056c-8.00262-1.55585-14.11005-7.1225-20.26776-12.01144
	c-77.97797-56.3893-156.00507-112.71027-233.94873-169.13367c0.03406,60.71991,0,121.44048,0.01709,182.17776
	c-23.97345,0-47.9295,0-71.90344,0c0-84.05113,0-168.10199,0-252.16956C559.21637,21.41928,569.23193,7.13985,583.29132,2.28355
	L583.29132,2.28355z M1019.46503,2.06437C1030.7666-0.21989,1042.3728,0,1053.85974,0.01715
	c69.38269,0.01713,138.74768-0.03406,208.13049,0.03358c9.66052-0.10124,19.47314,2.97773,26.5282,9.76214
	c9.05151,8.37431,13.07813,21.5708,10.59094,33.61649c-2.96069,15.61585-17.52783,28.28758-33.51526,28.47409
	c-74.50891,0.01715-149.0177,0.05053-223.54297-0.01713c-7.51221-0.5753-15.9541,2.11488-19.72729,9.08511
	c-4.34796,6.75037-3.14661,16.12372,2.47009,21.79092c4.21313,4.92371,11.01392,6.14147,17.18945,5.98972
	c64.25598-0.13601,128.52917,0.11746,192.76819-0.15246c26.78223,1.59011,52.24438,16.10589,67.57263,38.06617
	c13.00989,18.37366,18.64368,41.80519,15.46362,64.07014c-3.1814,24.66693-17.27429,47.70944-37.83057,61.70135
	c-14.54919,10.21854-32.22925,15.85242-49.99365,16.03894c-82.39258-0.01718-164.7688,0.03336-247.14355-0.01718
	c-13.36591-0.11813-26.30896-8.5267-31.68842-20.79251c-5.61731-11.91063-3.90839-26.79877,4.21246-37.1526
	c6.80084-9.00105,18.00134-14.09363,29.21753-13.94118c81.2428,0.01692,162.46814-0.01648,243.71021,0.01692
	c10.99683,0.67651,20.62317-10.65858,18.25549-21.40193c-1.54004-8.45909-9.52576-15.17542-18.15344-14.97243
	c-64.32458-0.03406-128.66467-0.01692-192.98914,0c-23.3302-0.2711-46.22101-10.59088-62.34399-27.40807
	c-20.15027-20.52193-29.13348-51.12807-23.63519-79.33083C955.56421,38.43873,984.52832,8.88215,1019.46503,2.06437
	L1019.46503,2.06437z M347.34677,384.94467c0.01715-9.22049,12.38464-13.01004,18.7291-7.35974
	c3.04538,2.60587,3.68759,6.78488,3.56946,10.59088c-0.0336,19.08429-0.01715,38.15164-0.01715,57.23523
	c11.14926-0.03406,22.2821,0,33.43137-0.03406c0.10126-20.69083-0.25415-41.39856,0.15176-62.07364
	c1.25253-9.71094,16.64825-11.25052,20.70776-2.85889c1.32019,2.38602,1.06668,5.19431,1.15079,7.83307
	c-0.10123,18.9321,0.01761,37.86389-0.06766,56.79526c5.58313-0.16867,11.53876,3.16376,11.99521,9.23734
	c0.49048,7.27515,0.677,14.65201-0.13531,21.89264c-1.03174,9.28809-14.80353,11.504-19.9126,4.41562
	c-3.04535-4.51733-1.81067-10.25217-2.09775-15.34479c-19.32129-0.08481-38.64212,0.15244-57.9458-0.10172
	c-6.37851-0.03357-10.20145-6.69916-9.71097-12.50281C347.32962,430.10056,347.00848,407.49734,347.34677,384.94467
	L347.34677,384.94467z M444.25519,383.15155c1.57364-10.86218,20.20081-10.811,21.63913,0.10126
	c0.40591,14.16104,0.10126,28.35522,0.10126,42.53342c12.04639-15.44717,23.75314-31.16425,35.8338-46.5936
	c4.2124-5.60022,14.05862-5.70148,18.06833,0.20294c2.4024,3.58664,1.91193,8.15445,2.03076,12.28275
	c-0.18652,21.41861,0.18579,42.85406-0.16962,64.27313c0.06769,9.10226-12.06284,13.1965-18.52542,7.7316
	c-3.36719-2.55487-3.80719-7.02103-3.77313-10.91226c0-12.28299,0.03363-24.56497,0.01718-36.84863
	c-12.06287,15.56491-23.93988,31.29959-36.29025,46.62723c-5.75201,7.07214-19.55786,2.97766-19.08359-6.63129
	C444.13699,431.67355,443.84995,407.39542,444.25519,383.15155L444.25519,383.15155z M568.8089,384.97873
	c0.9812-5.56622,5.38037-10.5397,11.45349-9.88031c6.02307-0.64297,10.55756,4.28003,11.45392,9.88031
	c9.38983-1.1337,19.6427,0.54117,26.81592,7.15604c16.68182,14.11005,16.14063,43.49771-1.25183,56.84644
	c-7.05505,5.83682-16.69836,7.42737-25.58118,6.091c-0.18585,7.29132-7.51154,12.90872-14.56628,10.6409
	c-5.10974-0.91357-7.66394-5.95496-8.30688-10.6409c-10.08325,1.67465-21.0296-1.01553-28.23706-8.51056
	c-15.44647-14.71942-14.02502-43.12518,3.21497-55.89862C550.87543,385.19879,560.12994,383.9975,568.8089,384.97873
	L568.8089,384.97873z M558.43811,408.69843c-7.47809,5.43018-7.258,18.10236,0.38879,23.27908
	c3.02826,2.45361,7.03857,2.57202,10.76025,2.79193c0.18604-9.79578,0.10193-19.57434,0.06763-29.35339
	C565.73016,405.65308,561.41583,405.73788,558.43811,408.69843L558.43811,408.69843z M590.90448,405.4837
	c-0.08453,9.76218-0.16931,19.52356,0.05072,29.28574c7.05481,0.5412,14.61749-3.5018,16.17426-10.79388
	C610.19177,414.19699,600.92029,403.94412,590.90448,405.4837L590.90448,405.4837z M742.9671,375.19943
	c12.63812-2.55417,26.6803-0.23636,36.62848,8.37521c20.8266,16.83337,22.12964,51.56711,3.87415,70.75262
	c-15.37885,16.3429-44.41058,16.69904-60.31354,0.93073c-18.74597-18.28912-18.57666-52.48093,0.81183-70.22879
	C729.24646,380.08972,735.89557,376.67136,742.9671,375.19943L742.9671,375.19943z M746.70587,396.00983
	c-15.29401,5.71835-17.35815,26.61221-10.94629,39.67316c5.4649,12.14761,24.29504,13.83948,32.01019,3.14734
	c6.97021-9.94824,7.22437-24.15976,1.16699-34.59845C764.74084,396.58441,754.86102,393.13382,746.70587,396.00983
	L746.70587,396.00983z M904.26752,378.83719c6.05664-6.88538,18.72882-6.02307,23.56726,1.89481
	c2.47009,4.23026,3.75623,9.01746,5.4649,13.60245c6.69989,18.4754,13.29755,36.98367,20.01385,55.45862
	c1.18463,3.43411,2.06415,7.39307,0.35516,10.82816c-3.48486,7.34186-15.86884,7.32544-19.30371-0.0343
	c-1.75946-3.94177-2.84167-8.13727-4.1106-12.24866c-10.01636,0.01648-20.01508,0.01648-30.01349,0
	c-1.47198,4.483-2.47003,9.20328-4.73743,13.38235c-4.04303,5.95538-13.97455,5.78601-18.15356,0.05118
	c-2.91003-3.43484-2.1311-8.40857-0.60889-12.24933c7.61316-20.60675,15.26068-41.19635,22.82336-61.81952
	C900.74854,384.57275,902.03375,381.39209,904.26752,378.83719L904.26752,378.83719z M915.04443,402.92953
	c-2.91034,8.17133-5.651,16.42697-8.15442,24.73434c5.51544-0.03406,11.0473-0.03406,16.57922-0.05054
	C920.57703,419.40775,918.73273,410.8298,915.04443,402.92953L915.04443,402.92953z M1076.68311,384.25095
	c0.43994-8.96603,12.41797-11.944,18.6272-6.75012c2.43591,2.3176,3.60364,5.73486,3.50183,9.0849
	c0.05066,13.01068-0.03345,26.0376-0.01697,39.06522c11.91101-15.53131,23.70264-31.12997,35.71497-46.54309
	c5.36292-7.51147,20.03125-4.22955,19.65881,5.76913c0.08557,23.68619,0.08557,47.38831,0,71.07446
	c0.49072,6.98737-7.44385,11.58878-13.65295,9.86337c-4.66956-0.81183-8.30664-5.16025-8.23901-9.88049
	c-0.16931-13.34805,0.03345-26.69751-0.06763-40.02835c-11.92749,15.15869-23.5675,30.55396-35.52905,45.67929
	c-4.14478,5.80322-13.75476,6.05667-18.06836,0.35519c-2.87671-4.24649-2.13184-9.60965-2.25-14.44812
	C1076.6488,426.41205,1075.97253,405.29764,1076.68311,384.25095L1076.68311,384.25095z M639.03699,386.62
	c0.15247,23.65143-0.23633,47.3035,0.18652,70.93872c1.20135,10.21857,17.69666,11.63977,21.02954,2.0975
	c1.79309-7.39236,0.33826-15.19278,0.79541-22.73788c5.81964-0.0683,11.69055,0.32114,17.51019-0.33896
	c11.5387-1.52222,22.0448-10.21857,24.87036-21.62128c2.01288-8.61157,1.18414-18.30606-3.9256-25.71558
	c-5.68414-8.54388-15.93628-13.28128-26.03668-13.5524c-8.44287-0.10126-16.91907-0.32111-25.36108,0.10175
	C642.55664,375.96124,638.41119,381.20627,639.03699,386.62L639.03699,386.62z M661.04846,395.90787
	c4.60144,0.06766,9.271-0.40567,13.83881,0.47357c7.44452,2.40244,8.83167,13.80585,2.67371,18.37366
	c-4.72095,3.55258-11.04822,1.94604-16.51251,2.3179C661.03156,410.01791,661.03156,402.96289,661.04846,395.90787
	L661.04846,395.90787z M808.81366,378.32956c4.72021-3.75598,11.16571-2.52057,16.76593-2.74069
	c10.0163,0.35544,21.33447-1.72586,29.96252,4.73718c11.60614,7.79929,12.46918,26.52814,1.84406,35.54559
	c6.24316,2.99417,11.75812,8.18848,13.65356,15.04056c2.36816,10.33768-0.50781,22.51868-9.54224,28.84595
	c-9.81262,7.37686-22.72144,5.19363-34.17487,5.51544c-5.48187-0.32181-11.40277,1.03174-16.51227-1.45526
	c-4.06091-2.08081-5.651-6.80087-5.49921-11.1152c-0.11816-20.89429,0.0343-41.80591-0.06769-62.7002
	C805.22705,385.92584,805.53125,381.22275,808.81366,378.32956L808.81366,378.32956z M827.69452,395.87451
	c-0.01648,4.53351-0.01648,9.06796,0,13.61862c4.43317-0.33826,9.88025,1.1001,13.34869-2.52057
	c2.41956-3.02844,1.97961-8.6792-1.97955-10.23569C835.47705,395.24802,831.45044,396.07745,827.69452,395.87451
	L827.69452,395.87451z M827.69452,429.74518c0,5.21005-0.01648,10.43796,0,15.64944
	c5.39728-0.13531,10.98035,0.5412,16.25873-0.96478c5.46497-1.86121,7.05511-10.8446,1.48889-13.50116
	C839.84192,428.64511,833.56537,430.11703,827.69452,429.74518L827.69452,429.74518z M971.80609,380.71558
	c10.35388-6.58145,23.16071-4.83893,34.81781-5.14383c5.09241,0.22012,10.89563-0.89642,15.27759,2.41956
	c2.99414,2.41956,3.4342,6.53024,3.34949,10.13403c-0.10107,22.65369,0.05066,45.32462-0.08472,67.9957
	c0.13538,6.85138-7.42737,11.5209-13.70416,9.67667c-4.53351-0.74399-8.27332-4.93948-8.18774-9.57565
	c-0.22009-7.34256,0.05048-14.68536-0.08557-22.01077c-7.68079,9.18686-15.17511,18.54303-22.87305,27.71225
	c-3.87421,4.83893-11.94403,5.75247-16.36011,1.18466c-3.97607-3.40051-5.1095-10.11728-1.53931-14.17749
	c5.80249-6.90329,12.33337-13.14578,18.32239-19.89679c-8.49335-2.36819-16.64771-8.12015-18.98248-17.03638
	C959.2356,400.96643,961.65448,387.22888,971.80609,380.71558L971.80609,380.71558z M988.47083,397.41385
	c-6.46332,2.45316-6.04028,13.02692,0.42303,15.27713c4.63525,1.20111,9.55847,0.35519,14.32928,0.55814
	c0-5.65076,0-11.30151,0-16.95175C998.29993,396.43262,993.20728,395.8233,988.47083,397.41385L988.47083,397.41385z
	 M255.98738,508.90662c5.51546-6.29462,18.06877-4.02728,19.47307,4.78699c0.6601,8.35809,0.08481,16.78381,0.2706,25.19171
	c10.32031,0,21.62201-1.20129,30.69,4.85535c12.55334,7.63031,14.48242,25.42877,8.47626,37.83057
	c-4.6355,9.35498-15.4465,14.32922-25.58118,14.00812c-9.03369-0.18579-18.06808,0.25348-27.08554-0.20367
	c-6.02335-0.62579-9.2545-6.86823-8.88217-12.41803c-0.11887-20.36975,0.05051-40.75635-0.06767-61.12604
	C253.34842,517.44983,253.09424,512.52661,255.98738,508.90662L255.98738,508.90662z M275.73105,558.71381
	c0,5.65076,0,11.30151,0.01718,16.96936c4.24643-0.10162,8.56079,0.35541,12.79034-0.42279
	c5.61667-1.01556,8.93268-9.05157,4.70313-13.26416C288.70746,557.32666,281.53427,559.08612,275.73105,558.71381
	L275.73105,558.71381z M330.68274,505.9787c4.2124-1.2511,9.40601-0.74417,12.45163,2.77481
	c2.97769,3.01126,2.80835,7.52927,2.84241,11.4711c-0.16937,21.92615,0.16934,43.86932-0.15247,65.79559
	c0.2706,6.59833-6.39542,11.5387-12.67221,10.35455c-5.95496-0.2373-10.04919-6.04022-9.59207-11.70819
	c-0.05118-22.63678-0.06763-45.29071,0-67.92737C323.37354,512.10376,325.99606,507.24817,330.68274,505.9787L330.68274,505.9787z
	 M447.43655,506.28342c14.05887-3.89059,30.48654-1.20062,41.17941,9.20401c18.69479,16.69824,19.79419,48.53888,3.78955,67.36896
	c-14.34711,17.49371-43.32767,19.2027-60.14554,4.39917c-20.89426-18.01855-20.96121-54.86688,0.10196-72.78369
	C436.70963,510.68256,441.88702,507.83994,447.43655,506.28342L447.43655,506.28342z M454.11926,526.41656
	c-15.32834,5.58307-17.51065,26.59576-11.04803,39.60571c5.48184,12.28345,24.43036,13.92407,32.12833,3.04541
	c6.85184-9.8634,7.10556-24.00684,1.13345-34.32733C472.10345,527.0426,462.30774,523.64178,454.11926,526.41656
	L454.11926,526.41656z M607.84009,515.67389c2.14825-6.15863,7.8161-11.47107,14.68445-11.09946
	c6.85272-0.30396,12.90869,4.60211,14.80347,11.06516c8.03699,22.41699,16.29309,44.76599,24.12573,67.26794
	c2.99554,7.35931-4.29651,15.20947-11.8421,13.41602c-8.76398-0.6601-9.60986-10.82751-12.02875-17.30725
	c-10.0163,0.03369-20.03192,0.03369-30.04773,0c-1.50598,4.33081-2.57111,8.84784-4.6524,12.95856
	c-4.58496,7.08936-16.85071,5.48206-19.67603-2.41882c-1.52246-4.66949,0.69348-9.23737,2.26709-13.53455
	C593.01941,555.93951,600.29382,535.75513,607.84009,515.67389L607.84009,515.67389z M622.38922,533.20099
	c-3.06183,8.12085-5.39661,16.51245-8.18781,24.73505c5.51477-0.03406,11.04755-0.03406,16.58014-0.05121
	C627.8877,549.6792,625.90881,541.1524,622.38922,533.20099L622.38922,533.20099z M912.10077,510.3443
	c3.60352-5.95566,13.39923-6.85211,17.83179-1.38785c5.34601,6.36203,9.59277,13.58597,14.58344,20.21793
	c4.77142-6.53094,9.13629-13.36511,14.07642-19.79489c4.0097-5.21027,12.7229-5.4137,17.08783-0.5412
	c3.78949,3.84006,3.41718,10.42221,0.13531,14.48239c-5.97192,8.28973-12.18176,16.41125-18.15363,24.7179
	c7.74854,10.09991,15.31122,20.33545,22.85675,30.58832c2.89307,3.90765,3.38361,9.81281,0.30469,13.77106
	c-4.22961,5.29559-13.48407,5.60028-17.66315,0.10168c-6.52997-8.32379-12.35034-17.15521-18.66046-25.64783
	c-6.15863,8.37421-11.99524,16.98578-18.27203,25.27618c-4.43243,6.34454-15.58179,5.68445-19.06708-1.28583
	c-1.94556-4.56781-0.76135-9.99872,2.38525-13.72058c7.22369-9.7793,14.58344-19.43976,21.72327-29.26953
	c-6.12433-8.39142-12.41827-16.66473-18.4585-25.10687C910.10406,519.2262,909.68121,514.1167,912.10077,510.3443
	L912.10077,510.3443z M990.2124,515.13196c0.08557-8.05246,9.96539-12.13046,16.56372-8.57724
	c3.94202,1.77594,5.53186,6.27676,5.65094,10.3367c0.2876,7.7323,0,15.49725,0.10181,23.24573
	c10.97986,0,21.97601-0.01642,32.97345,0c0.30469-8.81378-0.62573-17.71356,0.50696-26.45972
	c1.28613-8.81522,14.00891-11.11594,19.37207-4.68668c2.85876,3.02823,2.55493,7.44357,2.5885,11.30148
	c-0.13489,22.02795,0.08447,44.07233-0.10132,66.10028c0.10132,8.12073-9.82971,12.43518-16.47815,8.94983
	c-4.11145-1.81018-5.78625-6.4455-5.80396-10.62518c-0.23657-7.95074,0.0177-15.90295-0.0675-23.85437
	c-10.99622,0-22.01019-0.01721-32.99005,0.01685c-0.28851,9.00037,0.625,18.06909-0.49072,27.03528
	c-0.98175,9.30573-14.68591,11.47113-19.81207,4.43329c-2.48694-3.1814-2.13177-7.37695-2.14825-11.13318
	C990.24677,559.18713,989.94244,537.15924,990.2124,515.13196L990.2124,515.13196z M1086.15747,506.89227
	c6.5979-4.0766,17.25671-0.01642,17.13831,8.45978c0.42297,13.50055,0.03357,27.0351,0.16956,40.55341
	c11.74109-15.29425,23.38086-30.69,35.20667-45.9166c3.95886-5.81964,13.36584-6.24249,17.90015-0.91357
	c2.70654,3.02847,2.25012,7.37613,2.33398,11.14932c-0.13464,22.06152,0.06763,44.13995-0.08386,66.21838
	c0.18591,6.12433-5.97217,10.81104-11.84363,9.99939c-5.34607,0.03333-10.42163-4.53491-10.06616-10.04987
	c-0.13525-13.41638,0.01685-26.83282-0.0343-40.2323c-12.11328,15.36194-23.82068,31.04541-36.06934,46.28894
	c-5.49854,7.51215-19.72754,3.90778-19.62549-5.88727c-0.33838-22.68787-0.0166-45.40948-0.15247-68.11395
	C1080.84497,514.13385,1081.92798,509.02411,1086.15747,506.89227L1086.15747,506.89227z M1172.03564,516.80688
	c-0.32178-5.71863,4.44971-11.45422,10.35388-11.38657c5.70154-0.81158,11.85925,3.65497,11.9104,9.62711
	c0.32117,7.17316-0.03333,14.34686,0.13538,21.52008c9.11914-9.2879,17.69666-19.11768,26.88342-28.35526
	c5.37939-5.27844,15.51428-2.89294,17.83179,4.33145c2.03015,5.12604-1.42114,10.15094-4.85535,13.68701
	c-7.19031,7.44385-14.66821,14.60059-22.1803,21.70618c9.22034,10.06677,19.06702,19.57495,28.18579,29.74304
	c3.70544,3.90771,5.22766,10.69214,1.28589,14.97284c-4.49951,5.34546-13.24707,4.75366-17.71289-0.33893
	c-10.08411-10.33746-19.81201-21.08014-29.50598-31.78937c-0.1189,9.11853,0.35535,18.25482-0.18665,27.35693
	c-1.14978,8.5943-13.14502,11.31812-18.94824,5.65076c-3.12952-2.62238-3.28259-7.00433-3.28259-10.74341
	C1172.05212,560.79437,1171.88257,538.80054,1172.03564,516.80688L1172.03564,516.80688z M1276.99756,509.82016
	c4.60107-5.98972,13.90613-6.76794,20.04761-2.77493c3.58728,2.3855,5.38013,6.47974,6.85278,10.38812
	c7.56189,21.06317,15.12463,42.10992,22.755,63.15594c1.43762,3.77234,2.11462,8.47626-0.72778,11.80865
	c-3.97607,5.63434-13.73743,5.43158-17.646-0.11816c-2.1825-4.19543-3.29907-8.81378-4.85547-13.24707
	c-10.01563,0.03369-20.03149,0-30.02991,0.01727c-1.81067,4.83881-2.55493,10.28613-5.78613,14.46521
	c-5.29553,5.26123-16.05603,3.36652-18.44128-3.99323c-1.45483-3.26477-0.27136-6.8009,0.87927-9.9472
	c7.03857-18.88165,13.99158-37.77936,20.96252-56.69427C1272.69958,518.41461,1274.07031,513.67743,1276.99756,509.82016
	L1276.99756,509.82016z M1288.43433,532.32104c-2.91003,8.4762-5.48218,17.07062-8.375,25.56378
	c5.53259,0.01715,11.0481,0.01715,16.59705,0.03357C1293.93213,549.37518,1291.22473,540.8313,1288.43433,532.32104
	L1288.43433,532.32104z M182.79849,508.5336c3.14662-2.90958,7.71443-2.1142,11.62286-2.26666
	c11.82651,0.28778,23.70284-0.42349,35.51128,0.33832c9.44055,1.94595,9.20399,17.78122-0.10101,19.86185
	c-9.4234,1.30298-19.05023,0.20288-28.54175,0.55835c0,4.22955,0,8.45978,0.01715,12.68866
	c12.09689,0.03424,25.85155-0.98126,35.74829,7.35968c9.55917,8.34094,10.45583,23.58447,5.27911,34.56506
	c-4.72028,9.40625-15.63298,14.34644-25.85156,13.94049c-9.54155-0.18579-19.11787,0.25348-28.66013-0.20367
	c-6.07359-0.45642-9.37267-6.8349-8.9496-12.36682c0-21.52032,0-43.04059,0-64.56091
	C178.77121,514.77679,179.66856,510.78357,182.79849,508.5336L182.79849,508.5336z M201.28987,560.03375
	c0,5.19385,0,10.40466,0,15.63251c5.34677-0.22003,10.87936,0.72754,16.07298-0.81256
	c5.41374-1.74225,7.19035-10.40436,1.89479-13.28033C213.64095,558.98492,207.26245,560.28748,201.28987,560.03375
	L201.28987,560.03375z M356.73654,525.46893c5.10907,2.70709,11.16644,1.20105,16.69904,1.55652
	c0.03336,19.16907-0.05121,38.35437,0.03336,57.53992c-0.45642,5.34607,3.0961,11.01398,8.6792,11.67334
	c6.25964,1.59082,13.61935-2.87598,13.56815-9.69373c0.33896-19.82855,0.03406-39.69061,0.13602-59.51953
	c5.92136-0.43951,12.77274,1.52295,17.88248-2.3855c6.46237-5.48138,3.06253-18.57596-6.03976-18.30606
	c-15.78473,0-31.60355-0.21915-47.37186,0.1189C351.40762,507.41708,349.41089,521.01929,356.73654,525.46893L356.73654,525.46893z
	 M516.29395,508.72009c4.66956-3.85788,11.11591-2.04724,16.64777-2.43668c9.91461,0.59244,21.19897-2.18185,29.74286,4.33148
	c11.74176,7.68088,12.72296,26.66342,2.03009,35.68063c6.61505,3.07965,12.45233,8.7981,13.90717,16.17426
	c1.10004,7.30853,0.37231,15.32831-3.87439,21.58795c-4.99066,7.56262-14.26233,11.47113-23.12732,11.48755
	c-8.51031,0.05115-17.02014-0.05078-25.52972,0.03406c-3.51965,0.08411-7.42737-0.18579-10.04993-2.8255
	c-3.19781-2.87604-3.41724-7.495-3.46844-11.47107c0.01715-20.35236,0.01715-40.70496,0-61.04108
	C512.63965,516.198,512.74164,511.39319,516.29395,508.72009L516.29395,508.72009z M535.00592,526.11188
	c-0.01715,4.53424,0,9.08514,0,13.63647c3.18066-0.03424,6.37848,0.10175,9.57629-0.20294
	c4.71954-0.71063,7.1391-7.51215,3.68787-10.89514C544.88617,525.02942,539.40503,526.5014,535.00592,526.11188L535.00592,526.11188
	z M535.00592,560.01685c0,5.21075,0,10.42157,0,15.63226c5.4649-0.25348,11.23407,0.86304,16.51245-0.94714
	c5.43066-2.06409,6.49664-10.70972,1.15057-13.51807C547.03516,559.13666,540.85962,560.27032,535.00592,560.01685
	L535.00592,560.01685z M672.50195,517.80505c5.07544-8.27261,15.37885-11.50452,24.61621-11.52164
	c8.96674,0.08478,17.95081-0.15176,26.93402,0.10172c5.17719,0.16959,8.86566,5.31198,8.45911,10.27002
	c-0.06769,23.73615,0.25409,47.50641-0.1687,71.24335c-1.13367,10.59045-18.40729,11.60571-21.30042,1.65753
	c-1.1842-8.23901-0.16937-16.64764-0.55884-24.93799c-7.8667,9.47461-15.54773,19.11786-23.58374,28.45715
	c-4.82202,5.34601-14.80359,4.2464-17.9502-2.38544c-2.09839-3.90851-1.72583-9.18695,1.53937-12.33356
	c5.73511-6.39484,11.74176-12.51996,17.54425-18.84723c-8.17133-2.41882-16.12347-7.85022-18.7113-16.3429
	C667.05396,534.77393,668.06946,525.3172,672.50195,517.80505L672.50195,517.80505z M695.96753,527.70245
	c-6.3949,2.48724-6.34436,12.58759-0.13458,15.2771c4.70288,1.6413,9.81195,0.77826,14.70154,0.96478
	c0-5.63434,0-11.28461,0-16.91888C705.69611,527.21198,700.67114,526.36609,695.96753,527.70245L695.96753,527.70245z
	 M782.26862,525.94293c-8.15442-3.78998-6.66553-18.45819,2.65656-19.49014c16.427-0.25351,32.90594-0.28757,49.33362,0.01712
	c8.98389,1.75949,10.18524,16.03894,1.89551,19.62549c-5.0257,1.69189-10.47272,0.70996-15.65015,0.93005
	c-0.06769,19.89661,0.13531,39.79199-0.08478,59.68817c-0.13538,8.71326-11.63977,12.57043-18.05188,7.66443
	c-3.68762-2.53784-4.26294-7.42743-4.29651-11.53864c0.01648-18.61017,0.01648-37.22021,0.01648-55.81396
	C792.8255,526.75549,787.27643,527.9054,782.26862,525.94293L782.26862,525.94293z M847.97986,518.44794
	c-0.28754-5.17719,2.45319-11.31863,8.17157-11.97803c9.55872-0.49121,19.15192,0.01715,28.7276-0.20297
	c3.94196,0.18585,8.61145-0.82877,11.70758,2.30072c6.00623,5.19363,3.43414,17.0535-4.82196,18.15359
	c-7.12268,0.69366-14.26178,0.10193-21.38501,0.35541c0.01721,4.34772,0.03406,8.69635,0.03406,13.06049
	c7.47815,0.38953,15.20947-0.9812,22.53516,0.93121c7.68085,3.51819,7.51196,15.66589-0.21948,19.0495
	c-7.30914,1.57367-14.90521,0.38947-22.31567,0.74493c-0.01685,4.63544-0.01685,9.30499,0,13.95758
	c7.83331,0.27032,15.76764-0.64319,23.56757,0.50763c9.66022,2.26648,8.96606,18.57593-0.81256,20.04767
	c-11.26746,0.4231-22.552,0.05121-33.81946,0.18652c-6.05737,0.59167-11.87701-4.70319-11.33508-10.84503
	C847.97986,562.62152,848.01416,540.52667,847.97986,518.44794z"/>
</svg>
