<?xml version="1.0" encoding="utf-8"?>
<!-- Generator: Adobe Illustrator 24.0.0, SVG Export Plug-In . SVG Version: 6.00 Build 0)  -->
<svg version="1.1" id="Слой_1" xmlns="http://www.w3.org/2000/svg" xmlns:xlink="http://www.w3.org/1999/xlink" x="0px" y="0px"
	 viewBox="0 0 1500 600" style="enable-background:new 0 0 1500 600;" xml:space="preserve">
<style type="text/css">
	.st0{fill:#FECB29;}
	.st1{fill:#EC3237;}
	.st2{fill:#EC3338;}
	.st3{fill:#FECC2C;}
	.st4{fill:#FECD2F;}
</style>
<g>
	<path class="st0" d="M776.2,321.4c8.5-27.1,7.9-50.8,12.5-73.6c0.3-1.7,0.3-3.5,0.5-5.2c5-35.2,24.1-45.7,57.3-31.5
		c6.6,2.8,8.4,8.2,8.5,14.1c1,53.1,3.7,106.3-1.6,159.4c-0.6,6.2,1.1,16.1-10.5,13.8c-8.7-1.8-18.4-2.3-18.9-16
		c-1.2-33.8-3.9-67.6-6-101.4c0-0.6,0-1.2-0.1-1.8c-0.7-8,0.6-20.1-8.8-20.3c-9.1-0.2-7.9,12.5-9.3,19.9
		c-2.8,15.5-4.5,31.2-6.8,46.7c-0.9,6.2-0.8,14.3-8.6,15.6c-7.4,1.2-12.9-4.1-17.3-10.1c-7.3-10.2-10.8-21.9-14.8-33.5
		c-1.7-5-3.6-9.9-5.5-14.7c-1.4-3.4-3.4-6.6-7.6-5.6c-4.7,1.1-3.8,5.5-3.6,8.6c1.6,18.6,3.3,37.2,5.3,55.8c1.6,14.5,3.4,29,5.6,43.4
		c1.6,10-2.5,14.3-12.3,13.9c-2.9-0.1-5.8-0.7-8.7-1.1c-35.9-4.1-36.4-4.2-34.3-39.8c2.3-38.5,6-76.9,13.9-114.7
		c1.4-6.9,1.5-16.2,12.5-15.9c10.9,0.3,22.4-1.9,27.6,12.5C754.2,265.6,764.4,291,776.2,321.4z"/>
	<path class="st1" d="M423,299c0-22.2,0.5-43.3,1.1-65.5c0.2-9.2,0.7-20,14.4-19.5c13.2,0.5,13.6,10.2,13.5,20.1
		c-0.1,11.1,0,22.2-0.2,33.3c-0.2,9-1.3,17.7,12.9,16.6c11.7-0.9,22.4,0,21.5-16.9c-0.9-16.3-0.4-32.7-0.2-49
		c0.1-7.6-3.3-17.8,9.7-18.3c11.4-0.5,17.3,6,18.2,16.8c1.3,14.5,3.2,29.1,3,43.7c-0.4,37.4-1.6,74.7-3,112.1
		c-0.3,6.8,1.6,16.7-10.5,16.4c-10.6-0.2-16.3-6.8-16.7-16.7c-0.7-15.1,0.2-30.4-0.3-45.5c-0.2-6,2.9-16.7-9.2-13.7
		c-9.3,2.2-24.7-4.4-25.6,13.4c-0.8,16.9-0.1,33.9-0.8,50.8c-0.2,6.1,3.4,15.3-8.3,15.6c-9.6,0.3-15.5-4.6-17.6-13.7
		c-3.4-15-1.4-30.2-1.9-45.4c-0.4-11.1-0.1-22.2-0.1-33.3L423,299z"/>
	<path class="st1" d="M1162.9,324.2c-1.3,21.4-2.2,39.2-3.6,57c-0.4,5.3,1,13-8.1,12.6c-7-0.3-14.7-1-17.5-9
		c-1.7-4.8-2.7-10.2-2.6-15.3c0.8-47.3,1.8-94.6,3.1-141.9c0.2-6.7-2.7-16.9,9.7-16.7c10.9,0.2,17.6,6.1,17.7,17.4
		c0.2,18.6,0.1,37.3,0.1,58.7c11.7-8.4,15.7-19.3,21.7-28.6c9.5-14.7,18.9-29.5,28-44.4c4.4-7.2,9.6-7.8,15.9-3.1
		c5.7,4.3,12.1,8.7,6.4,17.1c-9.4,14.1-18.8,28.1-28.5,42c-17.4,24.8-17.7,35.5-1.3,60.3c8.4,12.7,16.3,25.6,24.7,38.3
		c4.6,6.9,4.6,12.5-2.2,18.2c-7.5,6.2-12.3,0.8-16.2-3.9C1194.8,364.6,1180.1,345.7,1162.9,324.2z"/>
	<path class="st1" d="M201,284.2c16.9-15.1,26-33.4,36.4-50.9c3.9-6.5,8.2-12.8,12.6-19c4.3-5.9,10.1-8.4,16.7-3.9
		c5.9,4.1,10.9,9.1,7.4,17.6c-4.5,11-11.6,20.2-18.9,29.4c-31.9,39.3-31.9,42.8-3.7,85.5c5.8,8.8,11,17.9,16.8,26.7
		c4.3,6.4,3.8,11.6-2,16.9c-6.9,6.3-11.7,2-16.4-2.7c-10.8-10.8-19.5-23.2-28.4-35.6c-5.3-7.4-9.6-16-19.2-21.8
		c-1.1,18.6-1.9,36.3-3.3,53.9c-0.5,6.9-1,14.7-11.8,13.1c-8.9-1.4-16.4-4.9-16.3-15c0.6-52,1.6-104.1,2.7-156.1
		c0.2-7.1,3.3-12.2,12.3-10.8c9.2,1.5,15.3,5.1,15.2,15.6C200.9,246.1,201,265.1,201,284.2z"/>
	<path class="st1" d="M98,286c16,2,18.8-8.3,18-19c-1-13-2-15-5-25c-1.5-4.9-4.7-9.5-10.9-10.8c-6-1.3-10.7,1.8-14.1,5.8
		c-5.5,6.4-6.1,15.7-9.1,23.2c-2.6,6.4-5.4,14-14.3,12.9c-9.7-1.2-11.2-9.5-11.7-17.1c-1.4-21.1,14-42.4,32.8-46.3
		c22.7-4.7,45.1,5.6,53.3,26.3c4.6,11.7,6,17.8,8,34c4.7,38-0.2,68.6-15,100c-9.9,21.1-39.5,30.3-60.3,20.4
		c-15.4-7.4-23.3-29.5-17.4-48.6c2.2-7.2,5.5-13.1,14.1-13.1c9.1,0,11.7,6.2,12.5,13.9c0.1,0.6,0,1.4,0,2.4c0,6.9-2.5,18.6,9.6,18.7
		c9.9,0,13.8-10.2,16.4-18.7c1.9-6.1,4-12,5-18c3.1-18.5,0.6-18.2-13.3-16.5c-12.5,1.5-14.2-8.8-14.3-17.4C82.2,281.4,93,286,98,286
		z"/>
	<path class="st1" d="M1264.3,306.4c0-26.3-1.1-52.6,2.6-78.8c1.3-8.7,4.6-12.3,13-12.8c11.1-0.7,22.2-2.1,33.3-2.9
		c11.3-0.8,20.1,3.4,21.9,15.4c2.2,14.7-10.8,11.4-18.1,12.7c-25,4.5-24,4.1-25.3,27.4c-1,17.6,8.4,17.5,20.4,15.4
		c12.8-2.3,23.9-2.5,25.6,14.5c0.7,6.9-0.6,11.5-8.8,11.4c-2.3,0-4.6,0.7-6.9,1c-33,5.4-34.2,7.3-31.3,41.4
		c0.6,7.7,3.1,10.5,10.6,9.4c7-1,13.9-1.9,21-2.4c11.7-0.8,16.8,6.2,18.9,16.6c2.6,12.5-7.7,11-14.1,12.7
		c-12.5,3.1-25.1,5.8-38.2,5.5c-15.7-0.3-24.3-7.6-24.5-23.3C1264,348.6,1264.3,327.5,1264.3,306.4z"/>
	<path class="st2" d="M1388.7,310.9c0-13.4,0.2-26.9-0.1-40.3c-0.2-12.4,6.7-29.2-18.3-25.7c-8,1.1-9.6-10.5-11.2-17.6
		c-1.7-7.8,4.4-9.8,10.6-10.8c20.8-3.1,41.6-6.4,62.5-9c10.4-1.3,16.8,3.8,17.7,14.6c0.8,10.5-5.1,15.4-14.8,14.9
		c-15.2-0.8-16.4,7.6-16.4,19.8c0.2,40.3-0.4,80.6-1.1,120.9c-0.1,6.1,3.3,15.1-8.5,15.3c-10.9,0.1-18.7-4.2-19.4-15.6
		c-1.1-19.2-1.1-38.5-1.5-57.7c-0.1-2.9,0-5.8,0-8.8C1388.4,310.9,1388.6,310.9,1388.7,310.9z"/>
	<path class="st3" d="M845.9,173.2c-0.2,13.7-7.3,21.4-19.1,21.5c-12.7,0.1-20.4-8.2-20.4-21.2c0-12.6,8.1-19.4,20-19.5
		C838.9,153.9,844.6,162.5,845.9,173.2z"/>
	<path class="st4" d="M726.9,180.9c11.5,1.1,15.7,9.3,15.6,19.3c-0.1,10-6.2,16.7-16.7,16.3c-11-0.4-17.2-7.8-17.3-18.3
		C708.5,187.3,715.5,181.5,726.9,180.9z"/>
	<path class="st1" d="M636.4,236.8c-11.7-18.5-30.8-25.5-50.9-26c-18.6-0.5-26,16.1-32.4,30.5c-12,27.2-15.7,55.8-11.7,85.4
		c2.4,17.7,8.1,34,19.3,48c23.3,29.3,55.7,26.9,73.9-5.5c12.3-21.9,17-45.7,17.4-67C652,276.8,648.3,255.6,636.4,236.8z
		 M607.2,354.4c-3.8,8.6-8.8,18.1-20,16.6c-9.8-1.4-10.6-11.6-12.3-19.3c-7.9-35.9-6.1-70.8,12.4-103.5c3-5.3,5.5-13.5,13.1-12.2
		c6.4,1.1,9.7,8,12.1,14.1c5.2,13.2,6.6,27.1,7.2,42.7C618,312.8,616.1,334.4,607.2,354.4z"/>
	<path class="st1" d="M395.4,297.7c0.1-20.1-4.7-45.2-18.6-67.7c-8.8-14.3-21.8-22.4-39.6-21.2c-17.9,1.2-29.1,11.3-36.1,26.6
		c-8.6,18.8-13.2,38.8-14.7,59.3c-2.6,35.1,2.3,68.1,33.1,91.2c21.1,15.8,40.9,12.6,55.9-9C390.5,354.9,395.8,330,395.4,297.7z
		 M364,297.2c-0.1,20-1.5,39.8-10.7,58.1c-4,8-8.9,16.5-19.1,15.6c-9.9-0.9-11.8-10.3-13.5-18.3c-7.6-36.5-6.5-72.1,13.2-105.2
		c3.3-5.5,6.5-12.5,13.9-11.6c7.3,0.9,9.3,8.5,11,14.6C363.2,265.7,364.5,281.4,364,297.2z"/>
	<path class="st1" d="M1003.9,380.9c-8.4-49.5-17.1-99-25.8-148.4c-2.6-14.7-10.7-23-27.3-22.9c-9.9-1.6-16.7,2.9-19.8,13.7
		c-15.6,52.7-26.7,106.4-35.4,160.7c-1.2,7.7,1.4,12.6,9.1,14.3c8,1.8,13.8-0.2,15.5-9.3c1.8-9.2,5-18.2,5.8-27.4
		c1.6-17.8,13.4-18.4,27.2-19c15.6-0.7,16.1,10.1,18.6,20.2c2.1,8.5,3.7,17.1,6.8,25.2c3.4,8.9,11,11.7,20.1,9.8
		C1010.5,395.4,1004.9,386.8,1003.9,380.9z M948.6,317.7c-7.8,0.4-11.7-2.4-9.6-11.5c3.5-15.1,6.8-30.2,13.7-47.1
		c6.5,17.4,8.3,32.2,10.3,47.1C964.7,318.5,955.9,317.3,948.6,317.7z"/>
	<path class="st1" d="M1105.6,246.9c-7.4-24.5-30.3-37.8-61.3-36c-15.6,0.9-23.2,7.5-22.6,24c0.9,22.7,0.2,45.5,0.2,68.2
		c-1.4,25.7,0.9,51.3,2.6,76.9c0.8,11.2,7.2,16.8,18.3,16.8c11.7,0,10.3-8.9,10.5-16.3c0.3-7.6,0.8-15.3-0.3-22.7
		c-2.5-17.9,1.7-29.1,20.8-37.2C1101.5,309,1114.1,275.1,1105.6,246.9z M1065.4,294.7c-2.6,2.4-5.3,5-9.1,3.6
		c-4.1-1.5-3.9-5.6-4.1-8.9c-0.3-7-0.1-14-0.1-20.9c0-5.2-0.1-10.5,0-15.7c0.1-5.8-0.6-12.8,7.5-13.4c6.8-0.5,12.1,3,15.2,9.6
		C1080.4,260.5,1075.3,285.5,1065.4,294.7z"/>
</g>
</svg>
