<?xml version="1.0" encoding="utf-8"?>
<!-- Generator: Adobe Illustrator 24.0.0, SVG Export Plug-In . SVG Version: 6.00 Build 0)  -->
<svg version="1.1" id="Слой_1" xmlns="http://www.w3.org/2000/svg" xmlns:xlink="http://www.w3.org/1999/xlink" x="0px" y="0px"
	 viewBox="0 0 1500 600" style="enable-background:new 0 0 1500 600;" xml:space="preserve">
<style type="text/css">
	.st0{fill:#015EC5;}
	.st1{fill:#ED2E38;}
</style>
<g>
	<g>
		<path d="M384.75977,267.39203c-7.25778,0-15.13947,3.0061-23.64282,9.01617L351,252.10608
			c5.27841-3.44489,10.64798-6.15814,16.11038-8.13751C372.57065,241.98914,378.74756,241,385.6395,241
			c17.96051,0,31.83563,7.13013,41.62213,21.38824c9.78757,14.25922,14.68082,34.47485,14.68082,60.64581
			c0,26.17316-4.96725,46.62592-14.90076,61.36249c-9.93454,14.7345-23.95502,22.10278-42.06198,22.10278
			c-12.39029,0-22.4332-2.60162-30.13086-7.80817v-26.61084c9.16318,5.42535,18.4744,8.13641,27.93152,8.13641
			c17.08078,0,26.46445-14.88141,28.15149-44.64539h-42.11725v-25.84271h41.89731
			C408.80493,281.50531,400.15512,267.39203,384.75977,267.39203z"/>
		<path d="M537.63165,404.49707h-26.73029v-90.00256h-14.91693c-1.33566,22.62665-3.48834,40.58063-6.45709,53.86206
			c-2.97067,13.28137-6.9425,22.92554-11.914,28.93231c-4.97244,6.00684-11.56287,9.01025-19.77216,9.01025
			c-5.00568,0-9.11035-0.73547-12.31396-2.20251v-21.92535c2.00226,0.66809,4.03726,1.00208,6.1069,1.00208
			c5.60638,0,9.97717-7.15833,13.1149-21.47504c3.13623-14.3158,5.53894-37.22467,7.20816-68.72772h65.67447V404.49707z"/>
		<path d="M606.42969,406.49933c-13.94995,0-24.94537-4.95587-32.98767-14.86664
			c-8.04321-9.91168-12.06342-23.94324-12.06342-42.09747c0-18.4209,3.63684-32.80304,10.91235-43.14941
			c7.27411-10.34442,17.4198-15.51813,30.43457-15.51813c12.14642,0,21.72461,4.42261,28.73254,13.26581
			c7.008,8.84418,10.51196,21.24066,10.51196,37.19147v14.2171h-53.56079c0.20026,9.94489,2.23523,17.33673,6.10693,22.17438
			c3.87024,4.83966,9.21045,7.258,16.01819,7.258c8.67566,0,17.55261-2.70258,26.63019-8.1087v21.92535
			C628.62073,403.93054,618.37592,406.49933,606.42969,406.49933z M602.52527,311.39148c-3.80432,0-6.94202,2.01984-9.41064,6.05664
			c-2.47015,4.0387-3.90448,10.29651-4.30493,18.77148h27.0307c-0.13434-8.14191-1.3689-14.31573-3.70422-18.52148
			C609.79938,313.49432,606.59576,311.39148,602.52527,311.39148z"/>
		<path d="M719.87836,292.97058h28.0318l-30.53461,52.85992l32.43677,58.66656h-29.33325l-29.13306-57.36456v57.36456h-26.63019
			V292.97058h26.63019v53.26038L719.87836,292.97058z"/>
		<path d="M835.12909,292.97058v21.52393H810.3009v90.00256h-26.63019v-90.00256h-24.82813v-21.52393H835.12909z"/>
		<path d="M905.02887,406.49933c-4.80548,0-9.06006-1.08514-12.76575-3.25342c-3.70367-2.16833-7.15735-5.99023-10.36096-11.46375
			h-1.40161c1.06757,9.07758,1.60181,14.55017,1.60181,16.41864v45.55212h-26.83044V292.97058h20.62341l4.60522,14.51697h1.20135
			c5.53894-11.07892,13.58124-16.61987,24.12787-16.61987c10.14417,0,18.08588,5.02332,23.82605,15.06787
			c5.7392,10.04553,8.61072,24.24408,8.61072,42.59753c0,18.08783-2.97119,32.27173-8.91058,42.54877
			C923.41455,401.36084,915.30585,406.49933,905.02887,406.49933z M896.81854,313.49432c-5.20587,0-8.96039,2.41937-11.26154,7.258
			c-2.3031,4.83966-3.52203,12.86438-3.65485,24.07709v3.50446c0,12.28027,1.16718,21.22406,3.50446,26.83044
			c2.33435,5.60632,6.20605,8.40955,11.61316,8.40955c9.34326,0,14.01587-11.81439,14.01587-35.44122
			c0-11.61316-1.15253-20.28833-3.45367-26.02948C905.27887,316.36395,901.69043,313.49432,896.81854,313.49432z"/>
		<path d="M1044.70728,348.53308c0,18.28809-3.8717,32.52179-11.61316,42.69916
			c-7.74341,10.17841-18.35645,15.26709-31.8371,15.26709c-8.54431,0-16.08459-2.33533-22.62469-7.00793
			c-6.54205-4.67065-11.58093-11.39539-15.11761-20.17316c-3.53766-8.77576-5.30554-19.03717-5.30554-30.78516
			c0-18.08588,3.83655-32.21893,11.51257-42.39734c7.67407-10.17737,18.32031-15.26807,31.93573-15.26807
			c13.14856,0,23.60925,5.19031,31.38586,15.56793C1040.81799,316.81519,1044.70728,330.84766,1044.70728,348.53308z
			 M985.44006,348.53308c0,11.61322,1.26581,20.39093,3.80334,26.33038c2.53552,5.94135,6.60846,8.90961,12.21478,8.90961
			c10.67749,0,16.01819-11.74603,16.01819-35.23999c0-11.67859-1.28534-20.40558-3.85413-26.17896
			c-2.57074-5.7724-6.62604-8.66052-12.16406-8.66052c-5.60632,0-9.67926,2.88812-12.21478,8.66052
			C986.70587,328.1275,985.44006,336.85449,985.44006,348.53308z"/>
		<path d="M1122.41589,404.49707l-27.83252-124.64087h-1.10083c1.26685,9.6109,1.90173,18.4209,1.90173,26.42999v98.21088h-25.22864
			V258.13104h41.84839l25.02747,115.03094h0.8009l24.82813-115.03094h42.44812v146.36603h-25.82825v-99.21301
			c0-8.20831,0.46594-16.61786,1.40063-25.22864h-0.8009l-27.73096,124.44165H1122.41589z"/>
		<path d="M1236.06384,258.13104h25.22864v80.39069c0,8.34412-0.63489,16.58661-1.90173,24.72858h1.10071l44.65173-105.11926
			h33.43689v146.36603h-25.02747v-80.19049c0-9.8775,0.76575-18.55469,2.30212-26.02948h-1.30188l-44.85095,106.21997h-33.63806
			V258.13104z"/>
		<path d="M1449.32617,303.18213c0,15.55231-3.92151,27.48096-11.76355,35.79089c-7.84302,8.3089-19.172,12.46387-33.98877,12.46387
			h-6.80774v53.06018h-27.23096V258.13104h37.1427C1435.11011,258.13104,1449.32617,273.14807,1449.32617,303.18213z
			 M1396.76611,327.81012h5.20581c6.67395,0,11.64648-1.83527,14.91748-5.5058c3.26904-3.67047,4.90601-9.67731,4.90601-18.02045
			c0-7.67505-1.5022-13.36536-4.50562-17.07007c-3.00342-3.70374-7.64282-5.55658-13.91528-5.55658h-6.6084V327.81012z"/>
	</g>
	<g>
		<path class="st0" d="M148,257c0,0,1-73-37-105.5H49.5V257H148z"/>
		<path class="st0" d="M148,294.61566H49.5V406.5h63.07568C148.9696,370.87994,148,294.61566,148,294.61566z"/>
	</g>
	<path class="st1" d="M161.35297,151.5C161.35297,151.5,190,195,189,258v34v1.54089
		c0.89581,60.65497-21.99664,104.48425-26.77661,112.95911H307.5v-255H161.35297z"/>
</g>
</svg>
