<?xml version="1.0" encoding="utf-8"?>
<!-- Generator: Adobe Illustrator 24.0.0, SVG Export Plug-In . SVG Version: 6.00 Build 0)  -->
<svg version="1.1" id="Слой_1" xmlns="http://www.w3.org/2000/svg" xmlns:xlink="http://www.w3.org/1999/xlink" x="0px" y="0px"
	 viewBox="0 0 1500 600" style="enable-background:new 0 0 1500 600;" xml:space="preserve">
<style type="text/css">
	.st0{fill-rule:evenodd;clip-rule:evenodd;fill:#010202;}
</style>
<g>
	<polygon class="st0" points="383.00293,364.78802 402.66595,405.26984 422.32874,364.78802 427.53378,403.53497 
		432.16022,403.53497 424.64218,350.33008 402.66595,396.01721 380.69019,350.33008 373.17166,403.53497 377.79858,403.53497 	"/>
	<polygon class="st0" points="498.08871,355.53467 498.08871,351.48633 469.75116,351.48633 469.75116,403.53497 
		498.08871,403.53497 498.08871,399.48669 474.37738,399.48669 474.37738,376.93231 496.93198,376.93231 496.93198,372.8847 
		474.37738,372.8847 474.37738,355.53467 	"/>
	<polygon class="st0" points="535.67963,403.53497 549.55878,379.82391 564.01715,403.53497 569.2215,403.53497 
		552.45013,375.77631 566.90875,351.48633 562.28162,351.48633 549.55878,372.30585 537.41425,351.48633 532.78735,351.48633 
		547.24579,375.77631 530.47455,403.53497 	"/>
	<path class="st0" d="M603.34271,357.84814c-5.78296,5.20502-8.09662,12.14496-8.09662,19.66278
		c0,8.09662,2.8916,14.45795,8.09662,20.24091c5.20508,5.20502,12.14496,7.51801,20.24091,7.51801
		c8.09668,0,15.03656-2.31342,20.24091-7.51801c5.7832-5.20508,8.09668-12.14496,8.09668-20.24091
		c0-8.09668-2.8916-14.45776-8.09668-19.66278c-5.20502-5.20508-12.14496-7.51807-20.24091-7.51807
		C615.487,350.33008,608.5473,352.64307,603.34271,357.84814L603.34271,357.84814L603.34271,357.84814z M646.71613,377.51093
		c0,6.93988-2.31348,12.14496-6.93988,16.77142c-4.62622,4.62622-10.40942,6.36176-16.77118,6.36176
		c-6.93994,0-12.14502-2.31348-16.77142-6.93988c-4.62622-4.62622-6.9397-9.83154-6.9397-16.77118
		c0-6.93994,2.31348-12.14502,6.9397-16.77142c4.62714-3.47021,10.41034-5.78369,16.77142-5.78369
		c6.93988,0,12.14496,2.31348,16.77118,6.36182C644.40338,365.36597,646.71613,371.14911,646.71613,377.51093L646.71613,377.51093z"
		/>
	<path class="st0" d="M716.69293,371.14911c1.15674-2.31342,1.73486-4.62622,1.73486-6.93988
		c0-8.09668-5.7832-12.14496-16.77142-12.14496l-10.98798,0.00067v52.04865h13.87958c5.20502,0,9.83148-1.15674,13.30096-3.46948
		c3.46973-2.8916,5.20532-6.36176,5.20532-10.98822c0-6.93994-4.04834-11.56616-11.56641-13.30103l0,0
		C713.22272,374.61932,714.95807,373.46259,716.69293,371.14911L716.69293,371.14911L716.69293,371.14911z M717.84967,389.07727
		c0,6.93994-4.62622,10.98822-13.30103,10.98822h-9.83197v-21.39783h9.25342
		C713.22272,378.08905,717.84967,381.5592,717.84967,389.07727L717.84967,389.07727L717.84967,389.07727z M702.23523,374.04071
		h-7.51855v-17.92816l7.51855,0.00073c4.04828,0,6.93988,1.15674,8.6745,2.8916c1.73486,1.73486,2.31372,3.46973,2.31372,5.78314
		c0,3.46948-0.57813,5.78296-2.31372,6.93994C709.75299,373.46259,706.86145,374.04071,702.23523,374.04071L702.23523,374.04071z"/>
	<path class="st0" d="M765.85022,387.92053h25.44598l6.93988,15.61444h4.62622l-24.8678-53.78351l-24.28925,53.78351h4.62622
		L765.85022,387.92053L765.85022,387.92053L765.85022,387.92053z M777.99451,360.16089l10.98798,23.71136h-21.39764
		L777.99451,360.16089L777.99451,360.16089z"/>
	<path class="st0" d="M865.89923,403.53497v-52.04865h-13.87964c-5.78314,0-9.83148,1.15674-13.30121,3.46948
		c-3.46948,2.31348-5.20508,6.36182-5.20508,10.98828c0,4.04828,1.15674,7.51782,4.04834,9.83148
		c2.8916,2.31348,6.36182,4.04834,10.98822,4.04834l-15.61444,23.13251l5.20435,0.00043l15.61444-23.13226l6.93994-0.00067v23.13251
		l5.20508,0.00043V403.53497L865.89923,403.53497z M851.4408,376.93231c-8.6748,0-12.7229-3.46973-12.7229-10.40942
		c0-6.93988,4.62622-10.40961,13.30103-10.40961h9.25336v20.81976L851.4408,376.93231L851.4408,376.93231z"/>
	<path class="st0" d="M980.40613,403.53497v-7.51776h2.31348c7.51807,0,13.30096-1.73486,17.3493-5.7832
		c4.04834-3.46973,5.7832-8.6748,5.7832-14.4577c0-5.7832-1.73486-10.98828-5.7832-14.45801
		c-4.04834-4.04828-9.83124-5.7829-17.3493-5.7829l-2.31348-0.00073v-5.7832h-4.62646v5.7832h-2.31342
		c-7.51782,0-13.30103,1.73462-17.34937,5.78296c-4.04828,3.46973-5.78314,8.67474-5.78314,14.45795
		c0,6.36182,1.73486,10.98822,5.78314,14.4577c4.04834,4.04834,9.83154,5.7832,17.34937,5.7832l2.31342,0.00073v7.51776H980.40613
		L980.40613,403.53497L980.40613,403.53497z M980.40613,360.16089h2.31348c5.7832,0,10.40961,1.73486,13.87982,5.20508
		c2.8916,2.89154,4.62646,6.93988,4.62646,10.98822c0,10.98822-6.36206,16.19257-18.50629,16.19257h-2.31348V360.16089
		L980.40613,360.16089L980.40613,360.16089z M973.46625,392.54675c-12.14502,0-18.50604-5.20502-18.50604-16.19257
		c0-4.62622,1.7348-8.09668,4.6264-10.98822c3.46948-3.46948,8.09668-5.20508,13.87964-5.20508h2.31342v32.38586H973.46625
		L973.46625,392.54675z"/>
	<path class="st0" d="M1033.61157,403.53497l6.93982-15.61444h25.44604l6.93982,15.61444h4.62646l-24.86804-53.78351
		l-24.28918,53.78351H1033.61157L1033.61157,403.53497L1033.61157,403.53497z M1053.27454,360.16089l10.98828,23.71136h-21.39844
		L1053.27454,360.16089L1053.27454,360.16089z"/>
	<path class="st0" d="M1140.60059,356.11328v-4.04834h-28.33826v52.04865h13.87988c5.78296,0,10.40942-1.73462,13.30103-4.62622
		s4.62646-6.36176,4.62646-10.98822s-1.73486-8.67456-4.62646-11.5661c-2.8916-2.8916-7.51807-4.04834-13.30103-4.04834h-9.25269
		v-16.77142H1140.60059L1140.60059,356.11328L1140.60059,356.11328z M1126.14221,376.93231
		c9.25342,0,13.87964,4.04834,13.87964,11.5661c0,7.51807-4.62622,11.56641-13.87964,11.56641l-9.25269,0.00067v-23.13245
		L1126.14221,376.93231L1126.14221,376.93231z"/>
	<path class="st0" d="M1182.23914,351.48633v52.04865h4.62646v-23.13245h9.8313c5.20508,0,9.25342-1.15674,12.14502-4.04834
		c2.8916-2.31348,4.04822-5.7832,4.04822-9.8313c0-4.6264-1.73486-8.09662-4.62622-10.98822
		c-2.89148-2.8916-6.93982-4.04834-12.72302-4.04834H1182.23914L1182.23914,351.48633L1182.23914,351.48633z M1208.26392,366.52289
		c0,6.9397-4.04822,10.40942-12.72302,10.40942h-8.67529v-20.81976l9.25342,0.00073
		C1204.2157,355.53467,1208.26392,359.00488,1208.26392,366.52289L1208.26392,366.52289z"/>
	<polygon class="st0" points="1292.11963,403.53497 1292.11963,350.33008 1255.10754,394.28235 1255.10754,351.48633 
		1251.0592,351.48633 1251.0592,405.26984 1287.49341,361.31763 1287.49341,403.53497 	"/>
	<polygon class="st0" points="1337.80652,376.93231 1363.8313,403.53497 1370.19238,403.53497 1343.58972,376.93231 
		1369.6145,351.48633 1363.8313,351.48633 1337.80652,376.35419 1337.80652,351.48633 1333.75891,351.48633 1333.75891,403.53497 
		1337.80652,403.53497 	"/>
	<path class="st0" d="M1397.3739,403.53497h4.62646l6.9397-15.61444h25.44617l6.9397,15.61444h4.62646l-24.28918-53.78351
		L1397.3739,403.53497L1397.3739,403.53497L1397.3739,403.53497z M1410.67493,383.87225l10.98828-23.71136l10.98816,23.71136
		H1410.67493L1410.67493,383.87225z"/>
	<polygon class="st0" points="446.03983,215.00366 446.03983,194.18414 375.48514,194.18414 375.48514,305.7995 448.9314,305.7995 
		448.9314,284.97974 401.50922,284.97974 401.50922,258.95563 443.72635,258.95563 443.72635,238.13617 401.50922,238.13617 
		401.50922,215.00366 	"/>
	<polygon class="st0" points="555.92053,284.97974 510.23297,284.97974 510.23297,194.18414 484.78702,194.18414 
		484.78702,305.7995 555.92053,305.7995 	"/>
	<polygon class="st0" points="662.33081,284.97974 615.487,284.97974 615.487,258.95563 657.70435,258.95563 657.70435,238.13617 
		615.487,238.13617 615.487,215.00366 660.01782,215.00366 660.01782,194.18414 589.46313,194.18414 589.46313,305.7995 
		662.33081,305.7995 	"/>
	<path class="st0" d="M741.56097,263.00397l24.28925,43.37415l27.1806-0.00073V194.18414H769.3197v32.96375
		c0,16.77142,0.57813,31.80774,2.31348,46.84363h-0.57861c-5.20502-12.7229-12.14496-26.60272-18.50604-38.16882l-23.7113-41.06067
		h-30.0722v111.61536h23.71112v-33.5426c0-17.92792-0.57813-34.12048-1.15674-48.57843h0.57788
		C727.10236,236.40131,734.62109,250.85925,741.56097,263.00397L741.56097,263.00397z"/>
	<path class="st0" d="M901.75482,305.7995h27.7594l-35.27747-111.61536h-34.12073L825.41669,305.7995h26.60291l8.09644-28.91638
		h32.96399L901.75482,305.7995L901.75482,305.7995L901.75482,305.7995z M864.16388,258.37708l6.9397-23.71112
		c1.73486-6.362,3.46967-15.03656,5.20526-21.39764h0.57788c1.73486,6.36182,3.46973,15.03632,5.7832,21.39764l6.93988,23.71112
		H864.16388L864.16388,258.37708z"/>
	<polygon class="st0" points="1085.6604,215.00366 1085.6604,194.18414 1015.68359,194.18414 1015.68359,305.7995 
		1041.70764,305.7995 1041.70764,261.26862 1082.7688,261.26862 1082.7688,240.44958 1041.70764,240.44958 1041.70764,215.00366 	
		"/>
	<path class="st0" d="M1216.35986,194.18414h-26.02405v64.1936c0,19.66278-7.51807,28.91614-20.8197,28.91614
		c-13.30103,0-20.81958-9.83124-20.81958-28.91614v-64.1936h-26.02405v62.45807c0,35.85559,16.77136,51.47076,45.68689,51.47076
		c30.07239,0,48.00049-16.19263,48.00049-50.89197V194.18414L1216.35986,194.18414z"/>
	<path class="st0" d="M1308.89111,279.77472c3.46948,13.87982,6.36169,23.13245,8.09656,26.02405l26.60205,0.00073
		c-2.31348-4.04834-5.7832-19.0849-9.25342-31.22919c-2.8916-10.40936-7.51782-17.9281-15.0365-20.8197v-0.57788
		c9.83142-3.46973,20.24084-13.30103,20.24084-27.7597c0-10.40936-3.46948-17.92792-10.40942-23.13226
		c-8.09656-6.362-20.24084-8.67474-37.01233-8.67474c-13.87952,0-26.0238,1.15674-34.69922,2.31348v110.45862l25.44666-0.00073
		v-44.53015h8.09656C1301.37305,262.42535,1305.99951,265.89557,1308.89111,279.77472L1308.89111,279.77472L1308.89111,279.77472z
		 M1282.86633,243.91931v-30.651c1.73486-0.57813,5.20496-0.57813,11.56628-0.57813c12.14502,0,19.08472,5.20508,19.08472,15.61444
		c0,9.83154-7.51782,16.19263-20.81958,16.19263h-9.83142V243.91931z"/>
	<path class="st0" d="M1373.08398,225.99115c0,16.19263,12.14502,26.60272,31.22913,32.96405
		c13.87988,4.62622,19.08496,8.6745,19.08496,15.61444c0,7.51782-6.36182,12.14496-17.92822,12.14496
		c-10.98816,0-21.97644-3.46973-28.91614-6.93988l-5.20508,20.8197c6.36182,3.46948,19.08472,6.9397,32.38586,6.9397
		c31.229,0,46.2655-16.19257,46.2655-34.69934c0-15.61444-9.25342-26.02386-29.49426-33.5426
		c-15.03662-5.20508-21.39771-8.67456-21.39771-15.61444c0-5.7832,5.20508-10.98828,16.77124-10.98828
		c10.98828,0,19.08484,2.8916,23.7113,5.20508l5.78296-20.24091c-6.9397-2.8916-16.19263-5.7832-28.91614-5.7832
		C1389.27722,192.44928,1373.08398,206.90698,1373.08398,225.99115L1373.08398,225.99115z"/>
	<g>
		<path class="st0" d="M164.97731,280.35352c-2.89136,0-5.78296,0-8.67455,0c-0.57813,0-1.15672,0.57788-1.73486,1.15674
			c0,0.57788,0,1.15674-0.57813,1.15674c-2.31346,10.98822-4.62622,21.97626-6.93968,32.38586
			c0,1.15674-0.57813,2.8916-0.57813,4.62622c0,2.31372,1.73486,4.04834,4.04832,5.20508
			c1.15532,0.57813,2.31204,0.57813,3.46901,0.57813c1.15674,0,2.31346,0,3.46948,0c2.31346,0,4.62646,0,6.93993,0
			c1.15672-1.15674,1.15672-2.31348,1.15672-3.46948c1.15674-5.7832,1.73486-10.98828,2.89159-16.77142
			c0.5779-5.20508,1.73486-10.40942,2.31346-15.03656c0.57814-1.73486,0-3.46948,0-4.62622
			C170.18188,282.66699,167.8689,280.35352,164.97731,280.35352z"/>
		<path class="st0" d="M285.84555,193.0274H67.81992c-9.83151,0-17.92815,6.36108-17.92815,14.4577v182.17004
			c0,8.09668,8.09665,15.03656,17.92815,15.03656h218.02563c9.83127,0,17.92792-6.93988,17.92792-15.03656V207.48511
			C303.77347,199.38849,295.67682,193.0274,285.84555,193.0274L285.84555,193.0274z M256.35129,275.14825
			c-1.15698,6.362-1.73488,13.30121-2.8916,19.66302c-0.57814,5.20502-1.15674,9.83148-2.31371,14.4577
			c-0.5779,0.57813-0.5779,0.57813-1.15672,0.57813c-1.73463,0.57788-3.46948,1.15674-5.20506,0.57788
			c-0.57788-0.57788-0.57788-1.73462-0.57788-2.31348c0-3.46948-0.57814-7.51776-1.15674-10.98822
			c-0.57813-2.31348-1.15697-4.62622-1.73486-6.9397c-1.15672-4.6264-4.04832-6.93988-8.67477-8.09662
			c-2.89159-0.57813-6.36179-1.15674-9.25337-1.73486c-8.67455-0.57813-17.92792-1.15674-26.60269-0.57813
			c-0.57813,0-1.15674,0-1.73486,0c-2.31346,0-3.46948,1.15674-4.04832,2.8916c-0.5779,1.15674-1.15672,2.31348-1.15672,3.46973
			c-2.31346,12.14496-4.62622,24.28918-6.93991,36.43396c0,0.57813,0,0.57813,0,1.15692c0,0.57794,0.57813,1.15674,1.15672,1.15674
			c0.57813,0,1.15697,0,1.73486,0c4.62645,0,9.25337-1.15674,13.30099-4.04828c5.78317-4.04834,10.40964-9.25342,12.7231-15.61469
			c0.57813-1.15674,1.15672-2.8916,1.15672-4.04834c1.73486-0.57788,3.46973-1.15674,5.20506-0.57788l0.57813,0.57788
			c0,0.57813,0,0.57813,0,1.15674c-2.31346,12.14496-4.62645,24.86804-6.93991,37.01233
			c-0.57814,2.8916-1.15674,5.20502-1.73486,8.09662c-0.5779,1.73486-0.5779,2.8916-1.15674,4.62646
			c-1.73486,0.57788-4.04832,0.57788-5.78317,0l-0.5779-0.57813c0-0.57813,0-1.15674,0-1.73486c0-2.31348,0-4.04834,0-6.36182
			c0-2.31342-0.57814-4.6264-2.31371-6.36176c-1.15672-2.31348-2.89136-3.46973-5.78294-3.46973c-4.04832,0-8.09665,0-12.14497,0
			c-0.57813,0-1.15672,0.57813-1.15672,1.15674c-0.57813,2.8916-1.15674,6.362-2.31346,9.25336
			c-1.73486,9.25336-4.04832,18.50629-5.78319,27.18085c0,0.57813,0,1.15674,0,1.15674
			c-0.57813,2.31366,0.5779,4.04828,2.89159,4.6264c1.73463,0.57819,2.8916,0.57819,4.62622,1.15674
			c2.31346,0,5.20506,0,7.51805,0.57813c0.5779,0,1.15672,0,1.73462,0.57794c0.57814,0,0.57814,0.57813,0.57814,1.15668
			c0,1.73486,0,3.46973-0.57814,5.20532l-0.5779,0.57788c-0.57813,0-1.15672,0-1.73486,0
			c-17.3493,0-35.27745,0.57813-52.62677,0.57813c-0.5779,0-1.73486,0-2.31346,0l-0.57814-0.57813
			c0-1.15674,0.57814-2.31348,0.57814-3.46948c0.57813-2.8916,0.57813-2.8916,3.46948-2.8916c2.31369,0,4.04832,0,6.36201-0.57813
			c2.31346,0,4.04832-1.15674,6.36179-1.73486c2.8916-1.73462,4.62622-3.46948,5.78319-6.36176
			c0.5779-1.15674,0.5779-2.31348,0.5779-3.46948c1.73486-10.98828,4.04832-21.39764,5.78319-32.38586
			c0-0.57819,0-0.57819,0-1.15674l-0.57814-0.57813c-1.15672,0-2.31346,0-3.46948,0c-15.61469,0-31.80798,0-47.42242,0
			c-1.73486,0-2.89159,0-4.62646,0l-0.57789-0.57819v-0.57788c1.15673-6.36176,0-5.78314,6.93991-6.36176
			c2.31346,0,4.04832-0.57813,6.36179-1.15674c2.89159-1.15698,5.78318-2.8916,6.93991-5.7832
			c1.15673-1.73486,1.73463-3.46973,2.31346-5.20502c1.15673-3.46973,1.73486-6.93994,2.31347-10.98828
			c2.31346-13.30096,4.62645-27.18079,7.51804-40.48248c2.31346-11.56616,4.04832-23.13251,6.36179-34.69934
			c0.5779-3.46973-1.15672-6.36182-4.62645-7.51782c-1.15674-0.57813-2.8916-0.57813-4.62622-0.57813
			c-2.89159,0-5.78318,0-8.67477,0c-0.57813,0-1.15673-0.57813-1.15673-1.15674c0-0.57813,0-0.57813,0-1.15674
			c0-0.57813,0-1.15674,0-1.73486c0.57813-4.62646,0-4.62646,5.20506-4.62646c32.964,0,65.92848,0,98.89224,0
			c1.15697,0,2.89159,0,4.04832,0c0.57813,0,1.15697,0.57819,0.57813,1.15674c0,0.57813,0,1.15698,0,1.73486
			c-1.73486,10.40942-3.46948,21.39764-5.20505,31.80774c0,1.73486-0.57813,4.04834-1.15674,5.7832
			c0,0.57813-0.57813,1.15674-1.15672,1.15674c-1.73486,0-3.46973,0.57813-5.20505,0.57813
			c0-0.57813-0.57814-1.15674-0.57814-1.15674c0-1.15674,0-2.8916,0-4.62646c0-4.04828-0.57813-7.51776-1.73486-11.5661
			c-0.5779-2.31348-1.73462-4.62646-3.46948-6.93994c-2.89159-4.6264-6.93991-7.51801-12.7231-9.25336
			c-2.31346-0.57813-4.62622-1.15674-7.51781-1.15674c-8.09665,0-16.77142,0-24.86806,0c-2.8916,0-4.62622,1.15674-6.36179,3.46948
			c-1.15674,1.73486-1.73486,4.04834-2.31346,6.36182c-0.57814,4.6264-1.73486,9.25336-2.31346,13.87982
			c-1.15674,7.51801-2.31371,15.03656-4.04832,22.55438c0,0.57813,0,1.15668,0,1.15668l0.5779,0.57813c0,0,0.57813,0,1.15672,0
			c2.8916,0,5.78319-0.57813,8.67477-0.57813c4.04832-0.57788,7.51805-1.73462,10.98824-3.46948
			c2.8916-1.73486,5.20506-4.04828,6.93993-6.93988c2.31346-3.46948,4.04831-6.93994,5.20505-10.98822
			c0-0.57794,0.5779-1.15674,0.5779-1.73468c2.31369-0.57813,4.04832-0.57813,5.78319-0.57813
			c0.57813,0,1.15672,0.57813,1.15672,1.15674c0,1.15674-0.5779,2.8916-0.5779,4.04834
			c-1.15697,6.36176-2.89159,12.72308-4.04832,19.66278c0,0.57813,0,1.15674,0,1.73486c0.5779,0,1.15674,0.57813,1.73463,0.57813
			c1.73486,0,2.89159,0,4.62645,0c17.34932,0,35.27747,0,52.62679,0C257.508,271.10016,256.92987,271.10016,256.35129,275.14825z"/>
	</g>
</g>
</svg>
