<?xml version="1.0" encoding="utf-8"?>
<!-- Generator: Adobe Illustrator 24.0.0, SVG Export Plug-In . SVG Version: 6.00 Build 0)  -->
<svg version="1.1" id="Слой_1" xmlns="http://www.w3.org/2000/svg" xmlns:xlink="http://www.w3.org/1999/xlink" x="0px" y="0px"
	 viewBox="0 0 1500 600" style="enable-background:new 0 0 1500 600;" xml:space="preserve">
<style type="text/css">
	.st0{fill-rule:evenodd;clip-rule:evenodd;fill:#2B2A29;}
	.st1{fill-rule:evenodd;clip-rule:evenodd;fill:#FEFEFE;}
	.st2{fill-rule:evenodd;clip-rule:evenodd;fill:url(#SVGID_1_);}
	.st3{fill-rule:evenodd;clip-rule:evenodd;fill:url(#SVGID_2_);}
</style>
<g>
	<path class="st0" d="M968.8183,402.25079h-19.68097v39.92023h-7.4267v-46.41931h27.10767V402.25079L968.8183,402.25079z
		 M1004.9306,414.69171l0.27917-5.75696h-0.27917l-3.80554,5.94189l-20.88782,27.29437h-4.27081v-46.41931h7.4267v28.31573
		l-0.2774,5.47772h0.37164l3.61884-5.75635l20.88959-28.03711h4.36334v46.41931h-7.42853V414.69171L1004.9306,414.69171z
		 M1054.59949,402.25079h-20.51611v39.92023h-7.42676v-46.41931h35.37012v46.41931h-7.42725V402.25079L1054.59949,402.25079z
		 M1110.21021,438.45734c-1.85657,1.48547-4.19263,2.6615-7.0083,3.52698c-2.81445,0.86719-5.802,1.30231-8.95789,1.30231
		c-3.52869,0-6.59326-0.57324-9.1908-1.71906c-2.60095-1.14581-4.73669-2.78418-6.4071-4.91992
		c-1.67163-2.13574-2.90869-4.68817-3.71375-7.66028c-0.80432-2.97095-1.20618-6.31116-1.20618-10.026
		c0-7.92108,1.76465-13.9566,5.2915-18.10181c3.52637-4.14874,8.57263-6.22223,15.13208-6.22223
		c2.10376,0,4.20923,0.23175,6.31299,0.69769c2.10547,0.4635,3.99231,1.34552,5.6626,2.64429
		c1.67163,1.30054,3.03259,3.14044,4.08484,5.52515c1.05334,2.38232,1.5791,5.52277,1.5791,9.42255
		c0,2.04327-0.18616,4.3017-0.55603,6.7771h-29.80115c0,2.72314,0.27856,5.13806,0.83521,7.24176
		c0.55591,2.10376,1.42322,3.88324,2.59924,5.33789c1.17603,1.4552,2.70837,2.56781,4.5957,3.34259
		c1.88672,0.77295,4.19373,1.15942,6.91577,1.15942c2.10364,0,4.20923-0.37164,6.31287-1.11261
		c2.10559-0.74451,3.68286-1.60999,4.73499-2.60107L1110.21021,438.45734L1110.21021,438.45734z M1094.24402,401.13696
		c-3.65259,0-6.57666,0.95911-8.77405,2.87787c-2.19617,1.91937-3.51208,5.19916-3.94543,9.84167h23.02295
		c0-4.70477-0.89746-7.99994-2.69177-9.88849C1100.05969,402.08124,1097.52209,401.13696,1094.24402,401.13696L1094.24402,401.13696
		z M1123.48572,395.75171h5.10669l1.39294,5.56958h0.37109c1.42322-2.16534,3.26489-3.82092,5.52515-4.96497
		c2.25781-1.14581,4.84045-1.71899,7.75098-1.71899c6.18848,0,10.80066,1.8269,13.83325,5.47772
		c3.0332,3.65143,4.54895,9.62469,4.54895,17.91687c0,3.89978-0.51099,7.41309-1.53235,10.53876
		c-1.02185,3.125-2.45996,5.77173-4.31714,7.93768c-1.85645,2.16595-4.10132,3.83752-6.73083,5.01361
		c-2.62939,1.17664-5.55359,1.76465-8.77283,1.76465c-2.28992,0-4.09961-0.14111-5.43213-0.42029
		c-1.32898-0.2774-2.76941-0.7558-4.31653-1.43689v19.30811h-7.42725V395.75171L1123.48572,395.75171z M1142.2395,401.13696
		c-3.15588,0-5.64722,0.81976-7.47412,2.46118c-1.82446,1.63837-3.1084,4.13037-3.85242,7.47235v23.02472
		c1.11389,0.86542,2.38232,1.53113,3.80737,1.99463c1.42322,0.46533,3.31177,0.69592,5.66272,0.69592
		c4.27087,0,7.65845-1.59332,10.16528-4.78064c2.50732-3.1861,3.7605-7.87549,3.7605-14.06567
		c0-2.53705-0.21704-4.84229-0.65027-6.914c-0.43335-2.07526-1.12927-3.8399-2.08838-5.2934
		c-0.95959-1.45343-2.19788-2.58386-3.71362-3.38879C1146.34082,401.54004,1144.46887,401.13696,1142.2395,401.13696
		L1142.2395,401.13696z M1212.05347,414.59741l0.55774-8.81793h-0.46582l-3.34204,7.14752l-11.2323,18.19611h-2.60107
		l-11.69641-18.19611l-3.06519-7.14752h-0.36926l0.7428,8.72546v27.66608h-6.87073v-46.41931h7.33423l12.99695,20.79651
		l2.69177,5.38348h0.18665l2.78601-5.57019l12.15991-20.6098h7.42859v46.41931h-7.24182V414.59741L1212.05347,414.59741z
		 M1232.84998,399.18738c2.35095-1.42267,5.08948-2.47656,8.21631-3.15704c3.12561-0.68054,6.38879-1.01959,9.79297-1.01959
		c3.21936,0,5.802,0.43152,7.75281,1.29877c1.94897,0.86664,3.43445,1.99585,4.45581,3.38879
		c1.02014,1.39124,1.70239,2.92352,2.04321,4.5957c0.33972,1.67041,0.50928,3.34204,0.50928,5.01245
		c0,3.71307-0.09253,7.33423-0.27747,10.86121c-0.18616,3.52869-0.27856,6.87067-0.27856,10.02777
		c0,2.28864,0.09241,4.45636,0.27856,6.49786c0.18494,2.04327,0.52637,3.92999,1.02197,5.66388h-5.47778l-1.94897-6.49908h-0.46533
		c-0.55835,0.86664-1.25366,1.71722-2.08887,2.55365c-0.83521,0.83337-1.8418,1.57788-3.01599,2.22815
		c-1.17603,0.6485-2.53882,1.19147-4.08655,1.62299c-1.54773,0.43573-3.30994,0.65027-5.29102,0.65027
		c-1.98096,0-3.82092-0.30884-5.52515-0.92883c-1.70007-0.61829-3.17065-1.49908-4.40894-2.6449
		c-1.23828-1.14404-2.21277-2.52222-2.92529-4.13159c-0.71069-1.60815-1.06702-3.43445-1.06702-5.47595
		c0-2.72375,0.55786-4.99878,1.67041-6.82568c1.1156-1.82452,2.6781-3.27795,4.68762-4.36151
		c2.01294-1.08417,4.42786-1.85718,7.24231-2.32068c2.81628-0.46533,5.92651-0.69708,9.33069-0.69708c0.8667,0,1.71729,0,2.55371,0
		c0.83521,0,1.68518,0.06165,2.55237,0.1861c0.18677-1.85651,0.27917-3.52869,0.27917-5.01361
		c0-3.40424-0.68042-5.78711-2.04321-7.1499c-1.36096-1.36096-3.8363-2.04144-7.42676-2.04144
		c-1.05212,0-2.1814,0.07764-3.3894,0.23175c-1.2063,0.1701-2.44458,0.38824-3.71362,0.68225
		c-1.26855,0.2774-2.47485,0.63367-3.62061,1.05042c-1.14465,0.40308-2.15112,0.86719-3.01599,1.37756L1232.84998,399.18738
		L1232.84998,399.18738z M1246.03357,436.41412c1.73035,0,3.27808-0.23004,4.64075-0.69531
		c1.36108-0.46417,2.53711-1.05219,3.52698-1.76471c0.99109-0.71069,1.81152-1.50024,2.45996-2.36566
		c0.65027-0.86725,1.13037-1.70245,1.43982-2.50861v-7.70416c-0.86719-0.06219-1.74927-0.10907-2.64661-0.13928
		c-0.89685-0.03021-1.77771-0.04565-2.64441-0.04565c-1.9187,0-3.79248,0.10791-5.61694,0.32428
		c-1.8252,0.21692-3.43628,0.61823-4.82751,1.20685c-1.39294,0.58801-2.50745,1.3924-3.34253,2.41431
		c-0.83643,1.02014-1.25317,2.3053-1.25317,3.8512c0,2.16772,0.77295,3.9472,2.32007,5.33844
		C1241.6377,435.71881,1243.61865,436.41412,1246.03357,436.41412L1246.03357,436.41412z M1279.63916,395.75171h5.10791
		l1.39111,5.56958h0.37292c1.42139-2.16534,3.26318-3.82092,5.52332-4.96497c2.25781-1.14581,4.84229-1.71899,7.75098-1.71899
		c6.19031,0,10.80078,1.8269,13.83398,5.47772c3.03247,3.65143,4.54822,9.62469,4.54822,17.91687
		c0,3.89978-0.51099,7.41309-1.53052,10.53876c-1.02368,3.125-2.45996,5.77173-4.31714,7.93768
		c-1.85645,2.16595-4.10132,3.83752-6.73083,5.01361c-2.63123,1.17664-5.5553,1.76465-8.77466,1.76465
		c-2.28857,0-4.09949-0.14111-5.4303-0.42029c-1.33069-0.2774-2.77112-0.7558-4.31824-1.43689v19.30811h-7.42676V395.75171
		L1279.63916,395.75171z M1298.39246,401.13696c-3.15527,0-5.64734,0.81976-7.47241,2.46118
		c-1.82629,1.63837-3.11023,4.13037-3.85413,7.47235v23.02472c1.1156,0.86542,2.38403,1.53113,3.80725,1.99463
		c1.42334,0.46533,3.31177,0.69592,5.66272,0.69592c4.27087,0,7.66028-1.59332,10.16528-4.78064
		c2.50745-3.1861,3.76233-7.87549,3.76233-14.06567c0-2.53705-0.21814-4.84229-0.6521-6.914
		c-0.43152-2.07526-1.12915-3.8399-2.08655-5.2934c-0.96143-1.45343-2.19971-2.58386-3.71362-3.38879
		C1302.49377,401.54004,1300.62244,401.13696,1298.39246,401.13696L1298.39246,401.13696z M1341.56226,421.2832h-4.27148v20.88782
		h-7.42676v-46.41931h7.42676v20.98145l3.99219-1.29871l14.85535-19.68274h8.0769l-14.39111,18.66077l-3.89856,3.06519
		l4.82751,3.71307l15.50427,20.98029h-9.19141L1341.56226,421.2832L1341.56226,421.2832z M1407.10461,438.45734
		c-1.85706,1.48547-4.1925,2.6615-7.00696,3.52698c-2.81628,0.86719-5.80383,1.30231-8.95911,1.30231
		c-3.52869,0-6.59155-0.57324-9.19141-1.71906c-2.60095-1.14581-4.73499-2.78418-6.40649-4.91992
		c-1.67224-2.13574-2.90869-4.68817-3.71375-7.66028c-0.80432-2.97095-1.2063-6.31116-1.2063-10.026
		c0-7.92108,1.76416-13.9566,5.29102-18.10181c3.52698-4.14874,8.57324-6.22223,15.13269-6.22223
		c2.10547,0,4.20923,0.23175,6.3147,0.69769c2.10376,0.4635,3.99048,1.34552,5.66272,2.64429
		c1.67163,1.30054,3.03259,3.14044,4.08289,5.52515c1.05334,2.38232,1.57922,5.52277,1.57922,9.42255
		c0,2.04327-0.18445,4.3017-0.55603,6.7771h-29.80127c0,2.72314,0.27869,5.13806,0.83521,7.24176
		c0.55603,2.10376,1.42322,3.88324,2.59937,5.33789c1.17603,1.4552,2.70825,2.56781,4.5957,3.34259
		c1.88672,0.77295,4.19373,1.15942,6.91577,1.15942c2.10364,0,4.20911-0.37164,6.31287-1.11261
		c2.10547-0.74451,3.68286-1.60999,4.73499-2.60107L1407.10461,438.45734L1407.10461,438.45734z M1391.13855,401.13696
		c-3.65137,0-6.57666,0.95911-8.77466,2.87787c-2.19556,1.91937-3.51147,5.19916-3.94482,9.84167h23.02295
		c0-4.70477-0.89746-7.99994-2.69177-9.88849C1396.95532,402.08124,1394.41833,401.13696,1391.13855,401.13696L1391.13855,401.13696
		z M1449.99707,402.25079h-14.57666v39.92023h-7.42676v-39.92023h-14.57483v-6.49908h36.57825V402.25079z"/>
	<g>
		<g>
			<path class="st1" d="M162.09497,338.97504c-1.17308-0.59808-2.34201-1.20331-3.51035-1.80969
				c-14.96906-7.79309-29.49176-16.37097-43.84315-25.24109c-19.22569-11.87958-38.1473-24.2428-56.83535-36.95111l-8.1339-5.53107
				l9.44628-2.74567c21.63172-6.28925,43.3814-12.18365,65.26682-17.52386c16.38931-4.00055,32.85274-7.66858,49.49753-10.45636
				c1.40663-0.23529,2.81267-0.46533,4.22107-0.68701c0.20807-1.30054,0.41968-2.59924,0.63663-3.89801
				c2.78778-16.64478,6.4558-33.10822,10.45636-49.49756c5.3568-21.95654,11.26962-43.77319,17.58076-65.47189l2.74747-9.4451
				l5.53107,8.13449c12.66618,18.63058,24.98914,37.4935,36.83374,56.65872c8.86836,14.35138,17.44624,28.87354,25.2393,43.84314
				c0.65854,1.26379,1.31238,2.53052,1.95908,3.80084c1.30051-0.20514,2.60104-0.40308,3.90158-0.59814
				c16.69162-2.49194,33.48462-4.09125,50.30722-5.35144c22.53748-1.68878,45.11407-2.80792,67.70013-3.51215l9.83157-0.30585
				l-6.02722,7.77466c-13.80368,17.80249-27.93457,35.3548-42.50116,52.53906
				c-10.90979,12.87067-22.07391,25.51489-33.90131,37.55389c-0.99762,1.0166-2.00119,2.03021-3.00946,3.03674
				c0.59689,1.17249,1.18967,2.34851,1.77649,3.52814c7.52753,15.10242,14.237,30.57947,20.63528,46.1911
				c8.56958,20.91089,16.61102,42.03699,24.26004,63.3006l3.32837,9.25659l-9.25659-3.33014
				c-21.19662-7.62823-42.25397-15.64301-63.10086-24.18768c-15.6116-6.39655-31.08688-13.10779-46.18933-20.63531
				c-1.27681-0.63483-2.55066-1.27679-3.81917-1.92407c-0.93242,0.92944-1.86661,1.85712-2.80614,2.77765
				c-12.03726,11.82922-24.68327,22.99152-37.55394,33.8996c-17.23816,14.6134-34.84561,28.78815-52.70676,42.63391
				l-7.77469,6.02545l0.30705-9.8316c0.70419-22.5155,1.81978-45.021,3.50381-67.48669
				c1.26022-16.8244,2.85771-33.61566,5.35326-50.30725C161.65633,341.79126,161.87328,340.38165,162.09497,338.97504z"/>
			<g>
				
					<linearGradient id="SVGID_1_" gradientUnits="userSpaceOnUse" x1="256.02405" y1="436.7489" x2="349.4791" y2="225.29683" gradientTransform="matrix(1 0 0 -1 0 600)">
					<stop  offset="0" style="stop-color:#F47D39"/>
					<stop  offset="1" style="stop-color:#ED1C24"/>
				</linearGradient>
				<path class="st2" d="M276.57718,227.26874c-1.13574-2.27856-2.29044-4.53522-3.45642-6.77466
					c-7.86005-15.10248-16.37271-29.46747-25.07152-43.54974c-11.90804-19.27075-24.22269-38.09991-36.72229-56.48743
					c-41.73116,202.6712-31.75731,222.03674,156.47237,307.41785c-7.54944-20.98621-15.56595-42.08563-24.18594-63.11096
					c-6.27914-15.31757-12.89972-30.64465-20.49597-45.88165c-1.07883-2.16418-2.17603-4.33014-3.29813-6.49255
					c1.81445-1.78601,3.604-3.58026,5.37518-5.38348c11.93292-12.14337,22.966-24.67499,33.66895-37.30023
					c14.65018-17.28021,28.74963-34.81061,42.37668-52.38251c-22.29382,0.69531-44.83841,1.79962-67.49976,3.49969
					c-16.50549,1.23645-33.13016,2.79779-49.96643,5.3147C281.38092,226.49402,278.98318,226.86865,276.57718,227.26874z"/>
				
					<linearGradient id="SVGID_2_" gradientUnits="userSpaceOnUse" x1="125.41151" y1="338.52881" x2="192.92525" y2="187.88214" gradientTransform="matrix(1 0 0 -1 0 600)">
					<stop  offset="0" style="stop-color:#58B947"/>
					<stop  offset="1" style="stop-color:#007236"/>
				</linearGradient>
				<path class="st3" d="M177.95496,242.75885c-1.07172,0.1701-2.1387,0.34619-3.20744,0.5246
					c-16.78944,2.81085-33.08154,6.46405-49.16322,10.38757c-22.00813,5.36987-43.72046,11.26251-65.07002,17.47113
					c18.44265,12.54169,37.32869,24.89844,56.66167,36.84381c14.08289,8.69879,28.44733,17.20911,43.54974,25.06915
					c2.14581,1.11615,4.30466,2.22345,6.48602,3.31354c-0.42027,2.51215-0.81209,5.01776-1.18494,7.51624
					c-2.51688,16.83624-4.07643,33.46094-5.3165,49.96643c-1.69351,22.5896-2.79607,45.06305-3.48959,67.28461
					c17.62582-13.66382,35.21489-27.80835,52.55026-42.50415c12.62587-10.70532,25.15749-21.73779,37.30083-33.67072
					c0.67517-0.66211,1.34737-1.32782,2.01955-1.99646C174.50211,346.32294,163.34688,321.13403,177.95496,242.75885z"/>
			</g>
		</g>
		<path class="st0" d="M806.06494,245.91943c-33.08447,0-51.73224,20.6507-51.73224,55.9397
			c0,37.49707,15.64008,54.54016,53.33569,54.54016c11.42908,0,28.07208-3.40894,37.69678-10.026
			c2.00476-1.40485,3.00769-2.40601,2.00476-5.01239l-7.42023-18.24585c-1.00116-2.20624-1.80438-2.60638-5.61407-1.40308
			c-8.01947,2.60461-15.83801,4.21039-22.65662,4.21039c-11.22931,0-18.44617-2.20563-19.04724-14.63831h48.72278
			c10.026,0,13.63354-5.01239,13.63354-18.84747C854.9881,261.55774,837.94678,245.91943,806.06494,245.91943L806.06494,245.91943z
			 M807.26648,275.5932c9.22461,0,12.03253,6.01538,12.43262,14.63708h-26.86755
			C793.8327,280.00574,800.65125,275.5932,807.26648,275.5932L807.26648,275.5932z M734.88354,261.95966
			c0-8.8233-2.00415-13.23407-13.03369-13.23407H645.8576c-11.02722,0-13.03369,4.41077-13.03369,13.23407v87.9892
			c0,2.84113,1.20331,4.2442,4.6123,4.2442H664.104c4.41077,0,4.81207-1.00116,4.81207-4.2442v-72.54889h29.47577v72.54889
			c0,2.84113,1.2027,4.2442,4.61053,4.2442h27.06909c4.41254,0,4.81207-1.00116,4.81207-4.2442V261.95966L734.88354,261.95966z
			 M572.87183,300.05475v50.93085c0,2.39594,0.40125,3.20746,3.81085,3.20746h28.87231c2.60577,0,3.60876-1.00116,3.60876-3.20746
			v-89.02594c0-11.02777-4.01892-13.23407-13.03015-13.23407h-13.03546c-7.20679,0-9.22339,0.60168-13.43378,6.81677
			l-18.24646,29.47577L540.1886,304.0672h-1.00116v-51.93201c0-2.60815-0.41199-3.40961-3.81091-3.40961h-28.67078
			c-2.59747,0-3.6105,1.01361-3.6105,3.24127v88.96075c0,8.00824,1.00293,13.26544,13.03366,13.26544h12.83215
			c7.21869,0,9.22461-0.80139,13.43561-6.85059l17.84454-27.90375l11.62885-19.48291L572.87183,300.05475L572.87183,300.05475z
			 M458.84128,277.39996h25.20609c2.80792,0,4.01065-1.60522,4.01065-5.01422v-18.84747c0-4.41077-0.81329-4.79901-4.01065-4.81268
			l-30.82132-0.11914l0.43863,0.09723c-4.78894,0.14996-9.63834,0.39655-14.50076,0.75281
			c-3.53879,0.2608-7.12442,0.60876-10.73672,1.14105c-2.60638,0.38647-5.27322,0.88916-7.93948,1.65027
			c-1.94604,0.5578-3.95908,1.2934-5.8743,2.32898c-1.51746,0.81799-3.03967,1.90515-4.32004,3.18549
			c-1.28036,1.2804-2.36929,2.80084-3.18552,4.32007c-1.03378,1.91699-1.77118,3.92645-2.32718,5.8725
			c-0.76291,2.6698-1.26556,5.33313-1.65027,7.94244c-0.53409,3.61115-0.88025,7.19678-1.14285,10.73553
			c-0.35446,4.84766-0.59988,9.67987-0.74924,14.45514v49.06067c0,2.83167,1.20151,4.04443,4.61227,4.04443h26.66608
			c4.41074,0,4.81381-0.80139,4.81381-4.04443v-51.25507c0.06049-1.95911,0.16479-3.94659,0.30588-5.93121
			c0.10434-1.44812,0.25549-2.92706,0.47064-4.4054c0.15472-1.0658,0.36633-2.16949,0.67517-3.26019
			c0.22348-0.79431,0.53644-1.62653,0.95496-2.40961c0.33252-0.62,0.78244-1.24658,1.30704-1.77234
			c0.52579-0.52399,1.15588-0.97272,1.77414-1.30707c0.78302-0.41846,1.61646-0.72968,2.40958-0.95496
			c1.09247-0.30878,2.19144-0.52399,3.25842-0.67694c1.47656-0.21692,2.95731-0.3645,4.40543-0.46887
			C454.88458,277.56592,456.87747,277.46039,458.84128,277.39996L458.84128,277.39996z M907.32202,353.79352
			c7.42023,1.40131,12.03253,2.00415,20.854,2.00415c33.28247,0,47.51947-24.06146,47.51947-54.13831
			c0-30.30859-11.50787-54.46783-52.65454-54.73163c-4.71667,0.14996-9.48663,0.3847-14.28088,0.74628
			c-2.60223,0.19507-5.21692,0.42682-7.85352,0.74927c-3.7113,0.5329-7.3728,1.21161-10.87958,2.05688
			c-1.93719,0.56079-3.91522,1.2804-5.82037,2.3136c-1.52576,0.8233-3.03967,1.90509-4.32007,3.18549
			c-1.28033,1.2804-2.36273,2.79608-3.18787,4.32007c-1.03973,1.9223-1.76404,3.92169-2.3266,5.87427
			c-0.76819,2.6734-1.26019,5.3266-1.65027,7.94305c-0.5412,3.61761-0.87549,7.18964-1.14105,10.73669
			c-0.36456,4.85236-0.60162,9.68164-0.75281,14.45691v92.5802c0,2.80731,1.20508,3.60754,4.6123,3.60754h26.86938
			c4.41077,0,4.81262-0.40186,4.81262-3.60754L907.32202,353.79352L907.32202,353.79352z M927.8429,279.28851
			c8.68402,3.44275,9.95605,12.71295,9.95605,20.96777c0,16.84338-6.81561,24.46161-17.84454,24.46161
			c-2.40485,0-7.82031-0.19977-12.63239-1.60284v-31.33051c0-3.02606,0.38116-9.32416,2.63483-11.57019
			C913.48383,276.69873,923.69946,277.64478,927.8429,279.28851L927.8429,279.28851z M1449.96509,310.45068L1450,310.42517v-1.04803
			v-25.76208c0-25.46454-14.43677-37.89532-44.71155-37.89532c-15.03906,0-27.9115,1.89386-40.70508,6.21509
			c-2.04504,0.68762-3.04443,1.41315-2.20447,5.21277l3.80908,17.24469c0.61829,2.79901,1.38647,3.93176,5.21216,3.00769
			c8.6051-2.08063,21.85693-3.40961,29.07568-3.40961c12.02893,0,13.63354,6.21692,13.63354,10.22638v2.80615h-21.85522
			c-24.45984,0-40.50293,12.63177-40.50293,35.89063c0,29.50183,28.2019,34.1817,52.01978,33.6488l0.01477-0.013
			c3.97925-0.13635,8-0.34503,12.03784-0.64557c3.19263-0.23706,6.41663-0.54413,9.67505-1.02844
			c2.35217-0.34912,4.74805-0.79608,7.15588-1.48663c1.75635-0.50446,3.5625-1.16479,5.29333-2.09717
			c1.37109-0.74097,2.73682-1.71906,3.8927-2.87195c1.15479-1.15234,2.13098-2.52161,2.87024-3.89154
			c0.9342-1.73206,1.59631-3.53638,2.09839-5.29456c0.69055-2.40601,1.13623-4.80017,1.48718-7.15582
			c0.48254-3.25665,0.79138-6.48248,1.02844-9.67511C1449.62354,318.39667,1449.82874,314.40259,1449.96509,310.45068
			L1449.96509,310.45068z M1259.71753,248.72559c-11.02771,0-13.03369,3.20923-13.43372,12.63416l-0.80322,22.85699
			c-1.60461,34.78809-4.20923,40.80347-19.24768,48.05414c-3.81079,2.00592-3.40771,3.60931-1.80615,7.42023l7.02014,16.70819
			c1.20337,2.80792,2.80615,4.61053,6.81506,3.2063c36.09387-11.86121,38.29834-32.98254,40.70496-74.78778l0.20154-7.41785
			h16.64136v72.34912c0,3.04089,0.40002,4.44397,4.61047,4.44397h27.0697c4.21045,0,4.81201-0.80139,4.81201-4.2442v-87.9892
			c0-9.42493-2.80786-13.23407-13.03247-13.23407H1259.71753L1259.71753,248.72559z M1180.11597,301.45959
			c0,15.03845-5.21338,24.06146-15.03967,24.06146c-9.82495,0-15.03894-7.01831-15.03894-24.66309
			c0-16.04016,5.01416-24.06146,15.03894-24.06146C1175.10413,276.79651,1180.11597,285.2179,1180.11597,301.45959
			L1180.11597,301.45959z M1218.21289,301.05774c0-34.28607-17.8446-55.13831-53.1366-55.13831
			c-34.88586,0-52.93372,21.45392-52.93372,55.33984c0,33.68494,14.83801,55.14001,52.7334,55.14001
			C1201.37012,356.39929,1218.21289,335.74567,1218.21289,301.05774L1218.21289,301.05774z M1043.86926,326.32251
			c-12.63184,0-14.43677-10.22461-14.43677-20.45038c0-5.01416,0.19971-9.62469,1.20154-15.64185
			c4.01245-1.60278,9.42615-3.2074,15.04016-3.2074c12.83398,0,14.23706,11.62878,14.23706,18.44739
			C1059.91125,316.69781,1056.50159,326.32251,1043.86926,326.32251L1043.86926,326.32251z M1059.10803,256.94543
			c-9.02307,0-17.64307,2.00653-26.26599,7.62061l-1.20154-0.60168c1.00122-16.04016,8.41968-19.85107,31.47815-24.86346
			c9.02124-2.00415,12.02893-2.00415,21.052-4.41193c1.00354-0.40015,2.80786-1.00177,2.00647-4.409l-5.4137-22.65894
			c-0.80139-3.00592-2.80786-2.40607-4.01123-2.2063c-18.44556,3.20984-30.47632,6.21753-38.49646,8.02185
			c-41.70618,9.42316-48.52301,44.1123-48.52301,82.60931c0,33.2843,6.81683,60.35339,54.13654,60.35339
			c39.30017-0.80316,54.33862-24.26117,54.33862-52.13177C1097.80664,278.80243,1087.78003,256.94543,1059.10803,256.94543
			L1059.10803,256.94543z M1402.28015,328.12689c-7.82153,0-12.83215-2.80737-12.83215-9.22284
			c0-9.02124,7.01721-10.62762,12.63062-10.62762h11.83093v8.23169c-0.03369,1.06042-0.08704,2.13397-0.16772,3.20746
			c-0.05566,0.78479-0.13452,1.58148-0.25244,2.3811c-0.08362,0.57794-0.198,1.16956-0.36633,1.76111
			c-0.1239,0.43152-0.28699,0.87848-0.51575,1.30347c-0.18323,0.33612-0.42322,0.67401-0.70715,0.95795
			c-0.28223,0.2821-0.62183,0.52576-0.95789,0.70715c-0.42322,0.22882-0.87195,0.39178-1.30237,0.5163
			c-0.59277,0.16772-1.1825,0.2804-1.76221,0.36633c-0.80029,0.11737-1.59814,0.19324-2.38123,0.25189
			C1404.41772,328.03796,1403.34241,328.09546,1402.28015,328.12689z"/>
	</g>
</g>
</svg>
