<?xml version="1.0" encoding="utf-8"?>
<!-- Generator: Adobe Illustrator 24.0.0, SVG Export Plug-In . SVG Version: 6.00 Build 0)  -->
<svg version="1.1" id="Слой_1" xmlns="http://www.w3.org/2000/svg" xmlns:xlink="http://www.w3.org/1999/xlink" x="0px" y="0px"
	 viewBox="0 0 1500 600" style="enable-background:new 0 0 1500 600;" xml:space="preserve">
<style type="text/css">
	.st0{fill-rule:evenodd;clip-rule:evenodd;fill:#CC071E;}
</style>
<g>
	<g>
		<g>
			<path class="st0" d="M919.94598,18.14762c32.94269-16.17921,49.26868-14.05624,49.6344,2.34259
				c0.43896,21.30329-2.70886,49.63486-4.97754,70.13323c-12.22626,111.41508-32.65106,202.45673-34.18842,316.85159
				c53.80725-139.30026,98.90393-236.11786,157.03076-355.35916c18.44897-37.99458,30.23511-30.89377,45.38928-37.6289
				c59.00574-26.28164,61.2019-10.17598,53.51453,21.96247c-28.62415,119.03655-101.90527,493.83185-113.10608,551.54163
				c-3.22107,16.69922-21.37671,9.61969-26.06201,3.08954c-21.01038-29.06348-44.72986-29.51721-42.09418-48.84442
				c13.17731-96.21747,60.61615-337.62814,72.98846-394.51038c-63.03259,129.2265-128.40704,290.77454-162.0097,382.3725
				c-7.10126,19.4516-20.05957,18.02368-28.11188,3.79236c-11.34692-19.99341-33.38293-30.19821-37.04376-53.82275
				c-11.49353-75.11108,13.17828-218.27676,16.61841-308.84964c-34.33398,98.94073-91.94891,291.03104-117.20605,377.81888
				c-10.39557,35.90845-45.0957,30.05212-35.87177-4.94885C752.8114,398.44116,835.46387,140.84393,871.18909,48.23615
				C879.6076,26.42007,901.64362,27.15196,919.94598,18.14762z"/>
			<path class="st0" d="M710.71661,0.28468c-11.12732-2.70845-43.41223,14.71492-63.25134,18.15561
				c-6.2959,1.09808-12.29932,7.76017-14.42194,12.51857c-31.77209,72.98843-60.25024,142.56537-84.9212,205.94878
				c-31.55261,5.38808-68.4498,12.48219-109.73901,21.75735c29.57608-75.86514,59.44498-150.69122,88.58148-222.65475
				c14.34943-35.43255-23.42627-38.80003-38.06781-2.9284c-19.03409,46.63393-54.68677,134.0076-94.14563,235.84705
				c-28.99042,7.10864-59.73764,15.2345-91.8761,24.51752c-23.35355,6.74246-24.30505,12.96497-14.2023,26.97
				c5.56366,7.79636,17.05716,7.01276,22.32834,12.56976c13.617,14.39957,21.88947,31.6257,46.26758,34.2319
				c-21.74286,58.1636-43.48538,118.14307-63.17865,175.89664c-12.37198,36.25281,22.84128,43.66864,36.38492,5.30762
				c21.81537-61.83893,44.80341-124.42404,68.44928-186.82645c19.69293-4.57596,67.35123-14.83945,111.3494-24.38596
				c-34.92029,95.71231-57.90781,168.40042-66.61951,203.78156c-1.61035,6.8089,1.09845,10.58624,2.56271,13.36072
				c11.78619,17.15259,22.98703,17.85529,38.14084,39.06372c4.09988,5.78339,17.86298,8.90228,22.54779-5.33673
				c32.35809-97.74002,65.66803-189.44788,96.70837-271.66028c12.88458-2.81848,36.09125-8.41904,50.29352-29.6124
				c25.25659-37.61458,32.5047-29.98633,38.58112-41.4213c7.61359-14.35623,2.56171-27.83398-24.37878-24.50253
				c0,0-10.17578,0.72456-28.99042,2.86937c29.8689-76.90466,56.00446-142.13293,74.81891-191.84134
				C720.3808,15.07263,721.1861,2.77386,710.71661,0.28468z"/>
			<path class="st0" d="M666.64557,499.08032c6.9552,17.57709,28.69775,12.25476,20.42529-8.96085
				c-8.41901-21.61096-29.35663-86.67078-34.84723-107.63022c-7.46722-28.24402,24.89142-20.52054,8.49255-2.0571
				c-14.05573,15.87891-23.42725,22.24063-49.41571,52.43155c-25.10999,29.14383-18.30219,66.96335,8.56555,75.31616
				c30.30768,9.42938,57.02893-23.96805,73.57343-48.4711c16.03265-23.72659,0.51263-37.64337-15.66553-23.61667
				c-10.39612,9.01917-22.40228,22.86993-34.55463,30.33746c-9.88281,6.01007-17.64349-0.4469-4.46576-18.58765
				c15.30042-21.0033,32.43115-38.60275,45.16931-58.4491c25.98901-40.4476-25.40314-63.7645-47.51239-37.4902
				c-11.85956,14.00507-8.85779,27.75311-5.63672,39.55429C635.97137,410.35944,655.29865,470.69739,666.64557,499.08032z"/>
		</g>
	</g>
</g>
</svg>
