<?xml version="1.0" encoding="utf-8"?>
<!-- Generator: Adobe Illustrator 24.0.0, SVG Export Plug-In . SVG Version: 6.00 Build 0)  -->
<svg version="1.1" id="Слой_1" xmlns="http://www.w3.org/2000/svg" xmlns:xlink="http://www.w3.org/1999/xlink" x="0px" y="0px"
	 viewBox="0 0 1500 600" style="enable-background:new 0 0 1500 600;" xml:space="preserve">
<style type="text/css">
	.st0{fill-rule:evenodd;clip-rule:evenodd;fill:#E30613;}
</style>
<g>
	<polygon class="st0" points="797.44171,394.60773 797.44171,219.58704 906.16901,219.58704 906.16901,260.24109 
		842.77844,260.24109 842.77844,394.60773 	"/>
	<polygon class="st0" points="1042.96924,394.60773 1042.96924,326.06287 975.61682,326.06287 975.61682,394.60773 
		930.27496,394.60773 930.27496,219.58704 975.61682,219.58704 975.61682,284.90564 1042.96924,284.90564 1042.96924,219.58704 
		1088.31104,219.58704 1088.31104,394.60773 	"/>
	<polygon class="st0" points="1351.41968,394.60773 1351.41968,260.24109 1298.46448,260.24109 1298.46448,219.58704 
		1450,219.58704 1450,260.24109 1396.78357,260.24109 1396.78357,394.60773 	"/>
	<polygon class="st0" points="1231.75269,394.5874 1231.75269,294.86548 1159.58069,394.5874 1121.66785,394.5874 
		1121.66785,219.61304 1167.00464,219.61304 1167.00464,318.29742 1237.96655,219.61304 1277.11096,219.61304 1277.11096,394.5874 	
		"/>
	<polygon class="st0" points="536.89447,394.60773 536.89447,290.59546 491.62494,345.54602 446.3566,290.59546 446.3566,394.60773 
		401.01755,394.60773 401.01755,219.58704 445.76346,219.58704 491.62494,279.77222 537.48755,219.58704 582.23181,219.58704 
		582.23181,394.60773 	"/>
	<path class="st0" d="M668.30286,333.05084h42.13654l-21.06683-54.87646L668.30286,333.05084L668.30286,333.05084z
		 M734.07208,394.58228l-9.48883-24.51868h-70.48877l-9.49329,24.51868h-45.57257L668.758,219.58704h41.92169l69.75201,174.99524
		H734.07208z"/>
	<path class="st0" d="M49.95846,255.14893c0.04128-21.13354,8.33084-41.39246,23.03619-56.33978
		c14.70987-14.94116,34.64984-23.35565,55.44926-23.3924h181.18652v40.52905H128.49026
		c-10.22103,0.04181-20.01234,4.18634-27.23724,11.52997c-7.22998,7.34076-11.31567,17.28931-11.36374,27.67316l-0.2403,68.04163
		c-0.82211,8.7193-4.46848,16.91272-10.36351,23.3042c-5.89334,6.39032-13.70343,10.61346-22.20786,12.0174l-7.11916,1.11102
		V255.14893H49.95846z"/>
	<path class="st0" d="M49.96977,438.77808v-40.5285H231.158c10.22046-0.05316,20.01178-4.20276,27.24174-11.54639
		c7.22375-7.34528,11.31061-17.29382,11.35696-27.68274v-64.57001c0.05316-9.3667,3.37384-18.41449,9.38251-25.51782
		c6.00415-7.1095,14.30334-11.81378,23.40823-13.27539l7.11465-1.08502v104.44824
		c-0.04129,21.13861-8.32465,41.40259-23.03619,56.34937c-14.70535,14.94733-34.64363,23.3653-55.44247,23.40826H49.96977z"/>
	<polygon class="st0" points="203.46391,359.76904 203.46391,307.37476 179.83121,336.04358 156.22394,307.37476 
		156.22394,359.76904 124.9338,359.76904 124.9338,256.66876 154.56387,256.66876 179.83121,289.8197 205.09853,256.66876 
		234.7303,256.66876 234.7303,359.76904 	"/>
</g>
</svg>
