<?xml version="1.0" encoding="utf-8"?>
<!-- Generator: Adobe Illustrator 24.0.0, SVG Export Plug-In . SVG Version: 6.00 Build 0)  -->
<svg version="1.1" id="Слой_1" xmlns="http://www.w3.org/2000/svg" xmlns:xlink="http://www.w3.org/1999/xlink" x="0px" y="0px"
	 viewBox="0 0 1500 600" style="enable-background:new 0 0 1500 600;" xml:space="preserve">
<style type="text/css">
	.st0{clip-path:url(#SVGID_2_);}
	.st1{fill-rule:evenodd;clip-rule:evenodd;fill:#CF0077;}
</style>
<g>
	<g>
		<defs>
			<rect id="SVGID_1_" x="50.22804" y="136.55878" width="1399.77197" height="306.89935"/>
		</defs>
		<clipPath id="SVGID_2_">
			<use xlink:href="#SVGID_1_"  style="overflow:visible;"/>
		</clipPath>
		<g class="st0">
			<polygon class="st1" points="740.58856,253.24451 740.58856,136.55676 814.92383,136.55676 814.92383,163.64001 
				771.55627,163.64001 771.55627,253.24451 			"/>
			<polygon class="st1" points="908.47461,253.24451 908.47461,207.59845 862.43329,207.59845 862.43329,253.24451 
				831.38373,253.24451 831.38373,136.55676 862.43329,136.55676 862.43329,180.11395 908.47461,180.11395 908.47461,136.55676 
				939.44232,136.55676 939.44232,253.24451 			"/>
			<polygon class="st1" points="1119.33301,253.24451 1119.33301,163.64001 1083.0946,163.64001 1083.0946,136.55676 
				1186.69482,136.55676 1186.69482,163.64001 1150.30066,163.64001 1150.30066,253.24451 			"/>
			<polygon class="st1" points="1037.53125,253.24451 1037.53125,186.78497 988.16644,253.24451 962.21997,253.24451 
				962.21997,136.55676 993.26947,136.55676 993.26947,202.3736 1041.75305,136.55676 1068.49902,136.55676 1068.49902,253.24451 
							"/>
			<polygon class="st1" points="562.48541,253.24451 562.48541,183.89063 531.51776,220.53625 500.55005,183.89063 
				500.55005,253.24451 469.58237,253.24451 469.58237,136.55676 500.14584,136.55676 531.51776,176.65967 562.89063,136.55676 
				593.45313,136.55676 593.45313,253.24451 			"/>
			<path class="st1" d="M652.3075,212.25836h28.77795l-14.34906-36.64563L652.3075,212.25836L652.3075,212.25836z
				 M697.21802,253.24152l-6.40552-16.0697h-48.23407l-6.40253,16.0697h-31.21118l47.66815-116.68475h28.61426l47.75,116.36438
				L697.21802,253.24152z"/>
			<g>
				<path class="st1" d="M777.63544,443.37927c-8.4386,0.17267-16.82727-1.32446-24.67798-4.39948
					c-7.85071-3.078-15.00275-7.67303-21.04297-13.52063c-5.93347-5.46838-10.66626-12.09149-13.90295-19.45313
					c-3.23871-7.36365-4.90845-15.30817-4.90845-23.34058c0-8.03131,1.66974-15.97589,4.90845-23.34052
					c3.23669-7.36066,7.96948-13.98376,13.90295-19.45313c8.32874-7.77087,18.53888-13.2851,29.64325-16.00085
					c11.10736-2.71667,22.73175-2.54602,33.75128,0.49207c4.86053,1.29846,9.52344,3.24469,13.86597,5.78571
					c3.30756,2.0061,6.48138,4.23181,9.48352,6.67102c2.19275,1.72266,4.1759,3.69183,5.91254,5.86456l2.19269,2.73273
					l-19.86627,20.49207l-1.46021-1.84741c-1.12878-1.38928-2.40131-2.65381-3.80756-3.77765
					c-1.83643-1.6178-3.81659-3.06903-5.91547-4.33954c-2.54108-1.49109-5.26575-2.65381-8.10522-3.45428
					c-3.26263-0.98407-6.64606-1.49707-10.05542-1.52802c-4.23773-0.1098-8.45355,0.6308-12.39685,2.17877
					c-3.94135,1.547-7.52838,3.86749-10.54449,6.82373c-4.4024,4.51221-7.37561,10.20813-8.54932,16.3811
					c-1.17474,6.16998-0.50104,12.54657,1.93719,18.34125c2.44226,5.79669,6.54126,10.75604,11.79205,14.2702
					c5.25378,3.51019,11.42676,5.42047,17.76141,5.49133c5.61304,0.03894,11.16125-1.19666,16.21442-3.61597
					c4.06805-1.68573,7.77985-4.11102,10.94568-7.1521l3.97424-4.26068l18.88525,20.49408l-0.65076,0.8833l-1.61884,2.0899
					c-1.81848,1.97815-3.7627,3.83154-5.83661,5.54523c-3.0321,2.64282-6.31671,4.98529-9.80493,6.99139
					c-10.00952,5.21082-21.13086,7.9635-32.43085,8.03735L777.63544,443.37927z M777.63544,443.37927L777.63544,443.37927
					L777.63544,443.37927z"/>
			</g>
			<path class="st1" d="M637.95844,351.20276c-3.98022-0.06787-7.92957,0.69666-11.59039,2.24664
				c-3.66089,1.55298-6.94849,3.85345-9.64825,6.75586c-5.45135,6.36261-8.44153,14.43683-8.44153,22.78259
				c0,8.34674,2.99017,16.42102,8.44153,22.78363c2.68481,2.91632,5.97241,5.22784,9.63324,6.78082
				c3.66687,1.55396,7.62219,2.30951,11.60541,2.21869c3.97528,0.1048,7.92456-0.64478,11.57648-2.19873
				c3.65289-1.55298,6.92053-3.87549,9.58234-6.80078c5.54218-6.32068,8.59528-14.41193,8.59528-22.78363
				c0-8.37366-3.0531-16.4649-8.59528-22.78259c-2.6698-2.91632-5.94043-5.22784-9.59332-6.7818
				C645.87402,351.87048,641.93073,351.11194,637.95844,351.20276L637.95844,351.20276z M637.95844,443.37927
				c-13.85999-0.33435-27.17908-5.39551-37.71252-14.33508c-10.52954-8.93762-17.62769-21.20471-20.0979-34.73041
				c-2.46716-13.52362-0.15271-27.47943,6.55524-39.50903c6.70795-12.02655,17.39313-21.39435,30.25708-26.52032
				c12.86694-5.12402,27.12018-5.69293,40.3584-1.60687c13.24023,4.08203,24.65002,12.56952,32.30811,24.02417
				c7.65906,11.45868,11.09937,25.18298,9.73206,38.86133c-1.36334,13.67639-7.4455,26.46948-17.22046,36.21545
				c-5.74884,5.78577-12.64038,10.33289-20.24261,13.35999C654.29663,442.16559,646.14648,443.61078,637.95844,443.37927z"/>
			<polygon class="st1" points="1124.68555,443.37927 1124.68555,354.49933 1089.90723,354.49933 1089.90723,327.17554 
				1190.67004,327.17554 1190.67004,354.49933 1155.80896,354.49933 1155.80896,443.37927 			"/>
			<polygon class="st1" points="547.00159,443.37927 508.33289,394.44055 500.71472,394.3587 500.71472,443.37927 
				469.58237,443.37927 469.58237,327.17554 500.71472,327.17554 500.71472,366.71558 509.79303,366.71558 540.27368,327.0957 
				575.45715,327.17554 534.84229,380.69635 582.83282,443.37927 			"/>
			<polygon class="st1" points="985.65131,443.37927 985.65131,327.17554 1071.26062,327.17554 1071.26062,354.49933 
				1016.8645,354.49933 1016.8645,371.05511 1065.01978,371.05511 1065.01978,397.33191 1016.8645,397.33191 1016.8645,416.05548 
				1071.26062,416.05548 1071.26062,443.37927 			"/>
			<polygon class="st1" points="932.87909,443.37927 932.87909,374.91162 902.39746,410.99432 871.91681,374.91162 
				871.91681,443.37927 840.78546,443.37927 840.78546,327.17554 871.59442,327.17554 902.39746,366.87622 933.448,327.0957 
				964.01044,327.17554 964.01044,443.37927 			"/>
			<polygon class="st1" points="1209.31372,443.37927 1209.31372,327.17554 1240.44604,327.17554 1240.44604,392.02728 
				1288.35376,327.01385 1315.10669,327.17554 1315.10669,443.37927 1283.97437,443.37927 1283.97437,377.80493 
				1235.26025,443.46112 			"/>
			<polygon class="st1" points="1414.16882,443.37927 1375.49707,394.44055 1367.87891,394.3587 1367.87891,443.37927 
				1336.75549,443.37927 1336.75549,327.17554 1367.87891,327.17554 1367.87891,366.71558 1376.95728,366.71558 
				1407.43787,327.0957 1442.62134,327.17554 1402.01245,380.69635 1450,443.37927 			"/>
			<path class="st1" d="M50.22804,229.53571c0-24.64398,9.87078-48.28198,27.44256-65.71802
				c17.57178-17.43304,41.40736-27.23895,66.26995-27.26093h216.52832v47.255H143.94054
				c-12.21321,0.06189-23.90943,4.89941-32.54662,13.46075s-13.51767,20.15479-13.57955,32.26318v79.23871
				c-0.99606,10.15417-5.35258,19.69659-12.39187,27.14014c-7.03829,7.44348-16.36313,12.36591-26.52035,14.00372l-8.10821,1.28448
				L50.22804,229.53571z"/>
			<path class="st1" d="M50.22804,443.46112v-47.17316h216.44649c12.20123-0.1048,23.87149-4.95636,32.5007-13.50867
				c8.62619-8.55237,13.52066-20.12384,13.62546-32.21826v-75.29736c0.07883-10.91779,4.06509-21.45123,11.25409-29.72614
				c7.186-8.27191,17.10168-13.7442,27.98248-15.4389l8.10623-1.28455v121.74695
				c-0.06589,24.633-9.96759,48.23602-27.54736,65.64716c-17.57776,17.4101-41.39639,27.20996-66.24698,27.25293H50.22804z"/>
			<path class="st1" d="M255.57014,349.35535c0,0,8.67412-40.74261-21.15979-47.65417
				c5.65298-0.17267,11.26007-1.03796,16.69748-2.57098c20.83641-6.34863,22.7018-24.10706,23.106-43.39648
				c0-13.01666-0.64774-25.55524-0.64774-25.55524c-14.92993,0.93915-29.72911,3.33551-44.18297,7.15204
				c-6.7249,2.02808-12.66333,6.04822-17.01186,11.52258c-4.34854,5.47437-6.89757,12.14038-7.30777,19.0968
				c-0.37328-6.96545-2.91333-13.6474-7.26486-19.12775c-4.35352-5.4823-10.3119-9.49451-17.05379-11.49164
				c-14.45384-3.81653-29.25302-6.21289-44.18295-7.15204c0,0-0.89127,12.53857-0.64774,25.55524
				c0,19.52997,2.26859,37.04785,23.10301,43.39648c5.4404,1.53302,11.04749,2.39832,16.70047,2.57098
				c-29.83389,6.91156-21.15979,47.65417-21.15979,47.65417l12.81105-1.28448c18.23949-1.8504,30.9677-2.97321,37.6946-27.24396
				c6.80974,24.10907,19.53894,25.39355,37.77742,27.24396L255.57014,349.35535z"/>
		</g>
	</g>
</g>
</svg>
