<?xml version="1.0" encoding="utf-8"?>
<!-- Generator: Adobe Illustrator 24.0.0, SVG Export Plug-In . SVG Version: 6.00 Build 0)  -->
<svg version="1.1" id="Слой_1" xmlns="http://www.w3.org/2000/svg" xmlns:xlink="http://www.w3.org/1999/xlink" x="0px" y="0px"
	 viewBox="0 0 1500 600" style="enable-background:new 0 0 1500 600;" xml:space="preserve">
<style type="text/css">
	.st0{fill:#FA3C1D;}
</style>
<g>
	<polygon class="st0" points="1298,87 1372,87 1286,193 1256,193 	"/>
	<polygon class="st0" points="1136,165 1238,165 1208,330 1350,165 1450,165 1390,478 1289,478 1319,314 1177,478 1078,478 	"/>
	<polygon class="st0" points="831,165 1084,165 1070,237 924,237 916,281 1055,281 1042,354 903,354 894,401 1039,401 1025,478 
		772,478 	"/>
	<polygon class="st0" points="565,332 537,478 431,478 489,165 596,165 573,285 691,165 803,165 673,301 756,478 628,478 	"/>
	<polygon class="st0" points="397,193 439,87 514,87 428,193 	"/>
	<path class="st0" d="M367,198c0,0-48-57-152-41S72,260,72,260c-16,33-61.61298,159.47681,54,211c92,41,181-16,181-16s65-33,87-123
		S367,198,367,198z M292,299c0,0,0,55-39,91s-78,8-78,8s-30-22-12-92c0,0,19-76,78-75S292,299,292,299z"/>
</g>
</svg>
