<?xml version="1.0" encoding="utf-8"?>
<!-- Generator: Adobe Illustrator 24.0.0, SVG Export Plug-In . SVG Version: 6.00 Build 0)  -->
<svg version="1.1" id="Слой_1" xmlns="http://www.w3.org/2000/svg" xmlns:xlink="http://www.w3.org/1999/xlink" x="0px" y="0px"
	 viewBox="0 0 1500 600" style="enable-background:new 0 0 1500 600;" xml:space="preserve">
<style type="text/css">
	.st0{fill-rule:evenodd;clip-rule:evenodd;fill:#C5000C;}
	.st1{fill-rule:evenodd;clip-rule:evenodd;fill:#FEFEFE;}
	.st2{fill:#2B2724;}
</style>
<g>
	<g>
		<path class="st0" d="M49.99981,113.6972H985v363.93762H49.99981V113.6972L49.99981,113.6972z M390.92456,166.57123
			c0.35037,75.29108-0.51495,150.60529,0.42004,225.87323c9.72421-0.09351,19.47183-0.14044,29.19537,0.11664
			c0.74799-75.36145,0.35062-150.76892,0.18747-226.1297c-9.93439,0.18701-19.86923,0.07037-29.80359,0.1405L390.92456,166.57123z
			 M459.73984,180.0824c-13.55728,5.23578-14.16501,26.43689-0.79428,32.30426c12.45886,7.64362,29.56912-5.32928,26.03928-19.35449
			C483.25555,181.90564,469.83783,174.84644,459.73984,180.0824L459.73984,180.0824z M104.13606,192.75189
			c0.07012,66.54865-0.11665,133.09674,0.0935,199.64539c9.86472-0.02319,19.72873-0.07013,29.59298,0.09351
			c1.496-27.76953,0.32724-55.63251,0.60751-83.4483c16.1991,0.935,32.79535,1.54254,48.5737-2.87555
			c16.75987-4.48779,33.02864-13.97827,42.16849-29.17181c10.96265-18.11536,10.9395-41.63086,2.66429-60.77472
			c-8.22754-18.81708-27.46539-30.69159-47.24063-33.98724C154.88318,177.81482,127.58141,181.08752,104.13606,192.75189
			L104.13606,192.75189z M270.63638,240.69354c-12.90277,8.46198-22.01949,21.80933-26.95114,36.30157
			c-8.64899,25.66577-8.62584,54.81415,3.03874,79.5451c8.46129,18.44269,25.71202,33.19275,46.00151,36.51178
			c23.18823,4.815,46.77338-2.17389,67.95135-11.36029c-3.13202-8.41498-6.8255-16.59601-10.02765-24.98785
			c-17.97583,7.03613-38.21811,14.53925-57.33932,7.1759c-11.75714-3.64624-19.3075-14.28168-23.65549-25.245
			c27.88684-2.73462,59.51273-2.12689,81.99994-21.50452c24.42664-20.07935,19.82153-64.09448-7.85446-79.10101
			C321.38348,225.87378,292.02448,226.45819,270.63638,240.69354L270.63638,240.69354z M543.07239,239.82892
			c-17.43848,10.49536-27.98035,29.70935-31.34634,49.36798c-3.88025,21.7619-2.82861,44.90314,5.61026,65.4967
			c7.71393,18.7699,24.37964,33.82361,44.31848,38.28827c20.35962,5.16608,42.63623,0,59.30261-12.59937
			c-3.92651-8.34485-7.76025-16.73602-11.78101-25.05756c-11.78101,10.07416-29.05487,15.54395-43.87463,9.25653
			c-12.13141-4.79187-19.77521-16.69019-22.90796-28.89197c-3.85638-15.59088-3.80988-32.2804,0.37427-47.80188
			c3.38934-12.55212,12.10846-24.40344,24.87073-28.49365c14.42285-4.95544,30.15424,0.74805,41.51447,10.02765
			c3.99664-8.22797,7.92389-16.45624,11.82727-24.73071c-21.99561-16.73651-54.15936-19.65863-77.90887-4.862H543.07239z
			 M641.8551,243.80243c3.45947,8.11157,6.8949,16.22247,9.95752,24.47363c19.14362-9.30353,42.05115-15.84802,62.76135-7.94708
			c10.75323,4.65143,11.15015,17.60114,10.68237,27.62903c-25.94598,1.61267-54.62732,3.83374-75.26721,21.48138
			c-16.87628,14.75012-18.95691,41.84174-8.13477,60.68152c10.4491,17.39117,31.76691,23.63208,50.88763,24.66107
			c21.20111,0.60773,43.45386-2.10376,62.13049-12.83313c-0.34991-34.36102,0.1405-68.72272-0.23328-103.08368
			c-0.1405-18.18579-10.68237-36.34814-28.02661-43.01001c-27.48926-10.98651-58.99896-4.90851-84.75824,7.94727H641.8551z
			 M780.95966,242.28302c-0.44409,50.04614-0.11731,100.06836-0.14044,150.11426c9.91101,0,19.84534-0.04633,29.75586,0
			c0.39832-43.89777-0.28021-87.79626,0.35114-131.69476c15.49762-2.68811,32.56085-6.38135,47.42761,0.72485
			c8.74225,4.09039,13.25385,13.74451,13.23004,23.07117c0.25781,35.9505-0.0697,71.94824,0.16357,107.89874
			c9.88812-0.04633,19.79913-0.02319,29.70966-0.02319c-0.04633-36.79199,0.25708-73.60803-0.13983-110.40009
			c-0.04651-20.7572-13.60443-40.62598-33.5202-47.05383c-28.40033-9.4201-59.8161-3.99738-86.83807,7.36285H780.95966z
			 M452.37717,233.21332c0.1405,53.03833-0.09351,106.07617,0.11664,159.0907c9.81775,0.09326,19.61163,0.09326,29.42935,0.07007
			c0.09326-53.06146-0.04721-106.12244,0.07013-159.1839C472.12927,233.07355,462.24118,233.12006,452.37717,233.21332
			L452.37717,233.21332z M134.40691,211.17139c0.23375,23.35138,0,46.70251,0.11665,70.07776
			c18.16237,1.96399,38.12508,2.17389,54.11357-7.9704c21.17728-13.02008,19.40102-49.83594-3.34262-60.28455
			c-15.94221-6.98914-34.31473-5.797-50.8876-1.82349V211.17139z M279.28537,270.56677
			c-9.23337,10.82288-12.06128,25.36212-13.32422,39.15363c15.42795-0.16364,30.90219-1.30927,46.0022-4.58197
			c7.38651-1.72931,14.95999-4.16052,20.75723-9.3028c10.70551-8.78949,7.29324-28.26062-5.02585-33.96411
			C311.98651,254.50861,290.94901,257.10278,279.28537,270.56677L279.28537,270.56677z M685.7066,319.42078
			c-8.25208,2.66498-17.13434,7.40985-19.79932,16.31573c-3.85687,10.16833-0.2099,23.72559,10.42548,28.09698
			c15.28748,6.87177,32.95898,4.39423,48.92358,1.49597c0.74805-17.2276,1.02899-34.57159-0.30359-51.77606
			C711.81622,315.02649,698.42236,315.54053,685.7066,319.42078z"/>
		<path class="st1" d="M390.92456,166.57123c9.93436-0.06946,19.8685,0.04718,29.80289-0.13983
			c0.16315,75.36078,0.56052,150.76898-0.18747,226.1297c-9.72354-0.25708-19.47116-0.21014-29.19537-0.11664
			c-0.935-75.26794-0.06967-150.58215-0.42075-225.87256L390.92456,166.57123z M459.73984,180.0824
			c10.09799-5.23596,23.51572,1.82324,25.245,12.94977c3.52985,14.02521-13.58041,26.99811-26.03928,19.35449
			C445.57483,206.51929,446.18256,185.31818,459.73984,180.0824L459.73984,180.0824z M104.13606,192.75189
			c23.44535-11.66437,50.74712-14.93707,76.45984-10.51874c19.77524,3.29565,39.01309,15.17017,47.24063,33.98724
			c8.27521,19.14386,8.29836,42.65936-2.66429,60.77472c-9.13985,15.19354-25.40862,24.68402-42.16849,29.17181
			c-15.77835,4.41809-32.3746,3.81055-48.5737,2.87555c-0.28027,27.8158,0.88849,55.67877-0.60751,83.4483
			c-9.86425-0.16364-19.72826-0.1167-29.59298-0.09351C104.01942,325.84863,104.20618,259.30054,104.13606,192.75189
			L104.13606,192.75189z M134.40691,211.17072c0.23375,23.35205,0,46.70392,0.11665,70.07843
			c18.16237,1.96399,38.12508,2.17389,54.11357-7.9704c21.17728-13.02008,19.40102-49.83594-3.34262-60.28455
			c-15.94221-6.98914-34.31473-5.797-50.8876-1.82281V211.17072z M270.63638,240.69354
			c-12.90277,8.46198-22.01949,21.80865-26.95114,36.30157c-8.64899,25.66577-8.62584,54.81415,3.03874,79.5451
			c8.46129,18.44269,25.71202,33.19275,46.00151,36.51178c23.18823,4.815,46.77338-2.17389,67.95135-11.36029
			c-3.13202-8.41498-6.8255-16.59601-10.02765-24.98785c-17.97583,7.03613-38.21811,14.53925-57.33932,7.1759
			c-11.75714-3.64624-19.3075-14.28235-23.65549-25.245c27.88684-2.73462,59.51273-2.12689,81.99994-21.50452
			c24.42664-20.07935,19.82153-64.09448-7.85446-79.10101C321.38348,225.87378,292.02448,226.45819,270.63638,240.69354
			L270.63638,240.69354z M279.28537,270.56677c11.66364-13.46399,32.70114-16.05884,48.40936-8.69525
			c12.31839,5.70349,15.73135,25.17462,5.02585,33.96411c-5.79724,5.14227-13.37073,7.57349-20.75723,9.3028
			c-15.10001,3.27271-30.57425,4.41833-46.0022,4.58197C267.22339,295.92889,270.052,281.38965,279.28537,270.56677
			L279.28537,270.56677z M543.07239,239.82892c23.74878-14.79663,55.91254-11.87451,77.90814,4.862
			c-3.90338,8.27448-7.83063,16.50275-11.82727,24.73071c-11.36023-9.2796-27.09161-14.98309-41.51447-10.02765
			c-12.76227,4.09021-21.48138,15.94153-24.87073,28.49365c-4.18414,15.52148-4.23065,32.211-0.37427,47.80188
			c3.13275,12.20178,10.77588,24.1001,22.90796,28.89197c14.81976,6.28741,32.09363,0.81763,43.87463-9.25653
			c4.02075,8.32153,7.85376,16.71271,11.78101,25.05756c-16.66638,12.59937-38.94299,17.76544-59.30261,12.59937
			c-19.93817-4.46466-36.60522-19.51837-44.31848-38.28827c-8.43817-20.59357-9.49051-43.7348-5.61026-65.4967
			c3.366-19.65863,13.90787-38.87262,31.34561-49.36798H543.07239z M641.8551,243.80243
			c25.75922-12.85651,57.26825-18.93378,84.75751-7.94727c17.34424,6.66187,27.88611,24.82422,28.02661,43.01001
			c0.37445,34.36096-0.11737,68.72266,0.23328,103.08368c-18.6759,10.72937-40.92938,13.44086-62.13049,12.83313
			c-19.12073-1.02899-40.43854-7.2699-50.88763-24.66107c-10.82214-18.84052-8.74219-45.9314,8.13477-60.68152
			c20.64056-17.64764,49.32123-19.86871,75.26721-21.48138c0.46777-10.02789,0.07013-22.9776-10.68237-27.62903
			c-20.70953-7.90094-43.61774-1.35571-62.76135,7.94708c-3.06189-8.25116-6.49872-16.36206-9.95825-24.47363H641.8551z
			 M685.7066,319.42078c-8.2514,2.66498-17.13434,7.40985-19.79932,16.31573c-3.8562,10.16833-0.2099,23.72559,10.42548,28.09698
			c15.28748,6.87177,32.95898,4.39423,48.92358,1.49597c0.74872-17.2276,1.02899-34.57159-0.30359-51.77606
			c-13.13654,1.47308-26.5304,1.98712-39.24689,5.86737H685.7066z M780.95966,242.28302
			c27.0213-11.36023,58.43707-16.78296,86.8374-7.36285c19.91577,6.42786,33.47327,26.29663,33.5202,47.05383
			c0.39764,36.79205,0.09351,73.60809,0.13983,110.40009c-9.91052,0-19.82153-0.02313-29.70966,0.02319
			c-0.23328-35.9505,0.09351-71.94824-0.16357-107.89874c0.0238-9.32666-4.48779-18.98077-13.23004-23.07117
			c-14.86603-7.1062-31.92999-3.41296-47.42761-0.72485c-0.63068,43.8985,0.04651,87.797-0.35114,131.69476
			c-9.91052-0.04633-19.84485,0-29.75586,0c0.02313-50.0459-0.30414-100.06812,0.13977-150.11426H780.95966z M452.37717,233.21332
			c9.86401-0.09326,19.7514-0.13977,29.61612-0.02313c-0.11734,53.06146,0.02313,106.12244-0.07013,159.1839
			c-9.81772,0.02319-19.6116,0.02319-29.42935-0.07007C452.28366,339.28949,452.51697,286.25165,452.37717,233.21332z"/>
	</g>
	<g>
		<path class="st2" d="M1033.46289,395.4765v-18.70898h4.7832c3.69531-5.52539,6.2998-11.34375,7.81543-17.45313
			c1.51563-6.11035,2.27344-13.74316,2.27344-22.90039v-4.07324h29.22363v44.42676h9.37695v18.70898h-8.76172v-11.69922h-35.94922
			v11.69922H1033.46289z M1068.22754,376.76752v-37.41699h-11.27246v1.13672c0,13.26172-2.90527,25.35547-8.71484,36.28027
			H1068.22754z"/>
		<path class="st2" d="M1141.45117,381.74017c-6.47363,2.14746-12.40918,3.2207-17.80859,3.2207
			c-8.8418,0-15.6377-2.27344-20.38965-6.82031c-4.75293-4.54688-7.12891-11.05078-7.12891-19.51367
			c0-7.9873,2.28125-14.55566,6.84473-19.70313c4.5625-5.14551,10.36426-7.71973,17.40527-7.71973
			c7.10547,0,12.33887,2.13184,15.70117,6.39355c3.36328,4.26367,5.04492,10.89453,5.04492,19.89258v2.98438h-35.04883
			c0.69336,11.65137,6.97754,17.47656,18.84961,17.47656c5.02148,0,10.53027-1.19922,16.53027-3.59961V381.74017z
			 M1106.35449,353.46478h24.81836v-1.32617c0-9.2832-3.86816-13.9248-11.60352-13.9248c-3.72656,0-6.74902,1.34277-9.07031,4.02637
			C1108.17871,344.92377,1106.79688,348.66595,1106.35449,353.46478z"/>
		<path class="st2" d="M1172.47461,383.77728v-44.42676h-21.07715v-7.00977h51.43652v7.00977h-21.0293v44.42676H1172.47461z"/>
		<path class="st2" d="M1258.58105,382.11908c-5.52637,1.89453-11.03613,2.8418-16.53027,2.8418
			c-8.96777,0-15.875-2.33594-20.72168-7.00977c-4.84668-4.67188-7.26953-11.30273-7.26953-19.89258
			c0-8.42969,2.3916-15.01367,7.1748-19.75c4.78418-4.73633,11.43848-7.10449,19.96387-7.10449
			c5.43066,0,10.90918,0.82129,16.43555,2.46289v7.81543c-6.09473-2.17969-11.28906-3.26855-15.58301-3.26855
			c-5.62109,0-10.0332,1.76855-13.23828,5.30469c-3.20508,3.53711-4.80762,8.38379-4.80762,14.54004
			c0,6.22168,1.71289,11.0918,5.13965,14.6123c3.42578,3.52051,8.15332,5.28027,14.18457,5.28027
			c4.51563,0,9.59863-1.05664,15.25195-3.17285V382.11908z"/>
		<path class="st2" d="M1285.71973,361.8476v21.92969h-9.33105v-51.43652h9.33105v22.49707l2.03613-0.04688
			c3,0,5.09961-0.48145,6.2998-1.44434c1.19922-0.96289,2.74707-3.43457,4.6416-7.41309l1.04199-2.17773
			c2.27344-4.76758,4.31738-7.86328,6.13379-9.2832c1.81543-1.42188,4.64844-2.13184,8.50195-2.13184v7.00977
			c-1.86426,0-3.25293,0.43457-4.16797,1.30273c-0.91699,0.86816-2.13184,2.88184-3.64746,6.03809l-0.89941,1.89453
			l-1.18457,2.60547c-1.38965,2.87402-3.64746,5.11523-6.77246,6.72559c2.58789,0.88477,4.54688,2.04492,5.87305,3.48145
			s3.125,4.31836,5.39844,8.64355l1.89453,3.59961c2.20996,4.2002,4.18359,7.57813,5.9209,10.13574h-10.3252
			c-0.88477-1.76758-1.87891-3.64648-2.98438-5.63672l-2.55664-4.49902c-3.28516-5.87305-6.01563-9.80371-8.19434-11.79395
			H1285.71973z"/>
		<path class="st2" d="M1362.78027,377.5722c-5.65332,4.73633-11.28906,7.10547-16.90918,7.10547
			c-4.70508,0-8.58105-1.3418-11.62793-4.02637c-3.04688-2.68359-4.57031-6.07813-4.57031-10.18262
			c0-5.33594,2.36816-9.63086,7.10449-12.88281s10.98828-4.87891,18.75586-4.87891h5.77832v-4.4043
			c0-3.63086-0.80469-6.2207-2.41602-7.76758c-1.60938-1.54688-4.27832-2.32129-8.00391-2.32129
			c-5.39941,0-10.98828,1.51563-16.7666,4.54688v-8.00488c6.62207-2.36719,12.83496-3.55176,18.63672-3.55176
			c6.52734,0,11.13965,1.29492,13.83594,3.88379c2.69629,2.58984,4.04395,7.05664,4.04395,13.4043v21.5498
			c0,3.09473,0.33203,5.20215,0.99512,6.32324s1.91016,1.68164,3.74121,1.68164c0.59961,0,1.5791-0.1582,2.9375-0.47461
			l0.85156,5.58984c-3.11621,1.00977-5.47852,1.51563-7.08301,1.51563
			C1367.48633,384.67767,1364.38574,382.30853,1362.78027,377.5722z M1361.31152,371.5097v-12.97656h-2.79492
			c-12.78711,0-19.18164,3.45703-19.18164,10.37207c0,2.49512,0.82031,4.49902,2.46289,6.01465
			c1.6416,1.51563,3.82031,2.27344,6.53613,2.27344C1352.40723,377.1933,1356.73242,375.29877,1361.31152,371.5097z"/>
		<path class="st2" d="M1420.70508,363.03217h-10.00293c-2.24219,2.17871-4.54688,5.33691-6.91504,9.47266l-2.9834,5.20996
			c-1.32617,2.30566-2.44727,4.32617-3.36328,6.0625h-10.50488c1.83008-2.71484,3.83594-6.0625,6.01465-10.04102l1.23145-2.32031
			l2.13086-3.88477c1.83105-3.2207,4.02637-5.57227,6.58398-7.05664c-7.83105-2.14648-11.74609-6.67773-11.74609-13.59375
			c0-5.84082,2.63574-10.04102,7.91016-12.59766c2.71484-1.29492,7.65625-1.94238,14.82422-1.94238h16.15039v51.43652h-9.33008
			V363.03217z M1420.70508,339.35052h-8.47852c-7.41992,0-11.12988,2.7002-11.12988,8.09863
			c0,5.71582,3.88379,8.57324,11.65137,8.57324h7.95703V339.35052z"/>
		<path class="st2" d="M1061.34473,465.16888c-8.87012,0-15.83691-2.81152-20.90137-8.43262
			c-5.06641-5.62305-7.59863-13.35059-7.59863-23.18457c0-9.79688,2.54102-17.50684,7.62598-23.12793
			c5.08398-5.62305,12.04199-8.43359,20.87402-8.43359c8.86914,0,15.83691,2.81055,20.90137,8.43359
			c5.06641,5.62109,7.59863,13.33105,7.59863,23.12793c0,9.83398-2.53223,17.56152-7.59863,23.18457
			C1077.18164,462.35736,1070.21387,465.16888,1061.34473,465.16888z M1061.34473,456.9306
			c5.26855,0,9.3877-2.05957,12.35742-6.17871c2.96875-4.11914,4.45313-9.85254,4.45313-17.2002
			c0-7.31055-1.48438-13.02539-4.45313-17.14453c-2.96973-4.11914-7.08887-6.17871-12.35742-6.17871
			c-5.26953,0-9.38867,2.05957-12.35742,6.17871c-2.96973,4.11914-4.45313,9.83398-4.45313,17.14453
			c0,7.34766,1.4834,13.08105,4.45313,17.2002C1051.95605,454.87103,1056.0752,456.9306,1061.34473,456.9306z"/>
		<path class="st2" d="M1098.58398,477.52631V455.539h5.62207c4.3418-6.49316,7.40332-13.33203,9.18457-20.51172
			c1.78125-7.18164,2.67188-16.15137,2.67188-26.91406v-4.78711h34.34473V455.539h11.02148v21.9873h-10.29785v-13.74902h-42.24902
			v13.74902H1098.58398z M1139.44141,455.539v-43.97461h-13.24805v1.33594c0,15.58594-3.41504,29.7998-10.24219,42.63867H1139.44141
			z"/>
		<path class="st2" d="M1225.49805,461.38373c-7.60742,2.52344-14.58398,3.78516-20.92969,3.78516
			c-10.39063,0-18.37891-2.67188-23.96289-8.01563c-5.58594-5.34375-8.37793-12.98828-8.37793-22.93359
			c0-9.3877,2.68066-17.10742,8.04395-23.15625c5.36133-6.04785,12.18066-9.07324,20.45605-9.07324
			c8.34961,0,14.50098,2.50488,18.45215,7.51465c3.95313,5.00977,5.92871,12.80273,5.92871,23.37891v3.50684h-41.19141
			c0.81543,13.69336,8.20117,20.54004,22.1543,20.54004c5.90039,0,12.37598-1.41016,19.42676-4.23047V461.38373z
			 M1184.25098,428.15228h29.16797v-1.55859c0-10.91016-4.5459-16.36523-13.6377-16.36523
			c-4.37891,0-7.93164,1.57813-10.66016,4.73145C1186.39453,418.1142,1184.77051,422.51166,1184.25098,428.15228z"/>
		<path class="st2" d="M1262.29199,403.32611h10.29785v27.16406c1.26074,0,2.20703-0.31445,2.83887-0.94629
			c0.63086-0.63086,1.37207-1.98438,2.22656-4.06348l1.50293-3.39551l1.33594-3.22852l1.22461-3.06152
			c2.07813-4.97266,4.0166-8.29395,5.81641-9.96387s4.38867-2.50488,7.76563-2.50488h0.6123v8.23828h-0.55664
			c-2.04102,0-3.95215,2.20801-5.7334,6.62402c-0.40918,1.03906-0.7793,1.94824-1.11328,2.72754l-1.05762,2.50488
			c-1.2998,3.1543-2.4209,5.28809-3.36816,6.40137c-0.94531,1.11328-2.55176,2.22656-4.81445,3.33984
			c3.59863,1.00195,6.54883,3.69336,8.85059,8.07129l2.22656,4.23047l2.89453,5.51074
			c0.85352,1.55859,1.70605,3.1543,2.56055,4.78711c1.66992,3.19238,3.17285,5.86426,4.50879,8.01563h-11.2998l-0.7793-1.50293
			c-1.48438-2.85742-2.33789-4.48926-2.56055-4.89844l-3.39551-6.79102c-0.25977-0.51953-1.50293-2.81934-3.72949-6.90234
			c-1.22461-2.2627-2.46875-4.60059-3.72949-7.01367h-2.22656v27.1084h-10.29785v-27.1084h-2.28223
			c-1.15039,2.26367-2.375,4.60156-3.67383,7.01367c-2.15234,3.89648-3.39551,6.19824-3.72949,6.90234l-3.45117,6.79102
			c-0.18652,0.40918-1.03906,2.04102-2.56055,4.89844l-0.7793,1.50293h-11.2998c1.29883-2.04004,2.81934-4.71191,4.56445-8.01563
			l2.50488-4.78711l2.89453-5.51074l2.22656-4.23047c2.33789-4.37793,5.28809-7.06934,8.85059-8.07129
			c-2.26367-1.11328-3.86035-2.22656-4.78711-3.33984c-0.92773-1.11328-2.05957-3.24707-3.39551-6.40137l-1.00195-2.50488
			c-0.29785-0.66797-0.66797-1.57715-1.11328-2.72754c-1.78125-4.41602-3.71094-6.62402-5.78906-6.62402h-0.55664v-8.23828h0.6123
			c3.37598,0,5.98438,0.84473,7.82031,2.5332c1.83789,1.68848,3.77637,5.00098,5.81738,9.93555l1.22461,3.06152l1.28027,3.22852
			l1.50293,3.39551c0.89063,2.0791,1.65039,3.43262,2.28223,4.06348c0.63086,0.63184,1.57715,0.94629,2.83887,0.94629V403.32611z"/>
		<path class="st2" d="M1304.65234,477.52631V455.539h5.62207c4.3418-6.49316,7.40332-13.33203,9.18457-20.51172
			c1.78125-7.18164,2.67188-16.15137,2.67188-26.91406v-4.78711h34.34473V455.539h11.02148v21.9873h-10.29785v-13.74902h-42.24902
			v13.74902H1304.65234z M1345.50977,455.539v-43.97461h-13.24805v1.33594c0,15.58594-3.41504,29.7998-10.24219,42.63867H1345.50977
			z"/>
		<path class="st2" d="M1416.92676,456.48529c-6.64355,5.56641-13.26758,8.34961-19.87207,8.34961
			c-5.53027,0-10.08496-1.57715-13.66602-4.73145c-3.58105-3.15332-5.37109-7.14355-5.37109-11.96777
			c0-6.27051,2.7832-11.31836,8.34961-15.14063c5.56641-3.82129,12.91406-5.7334,22.04297-5.7334h6.79102v-5.17676
			c0-4.2666-0.94629-7.31055-2.83887-9.12891c-1.89258-1.81738-5.0293-2.72754-9.40723-2.72754
			c-6.3457,0-12.91406,1.78125-19.70508,5.34375v-9.40723c7.78223-2.7832,15.08398-4.1748,21.90332-4.1748
			c7.6709,0,13.09082,1.52246,16.26074,4.56445c3.16797,3.04297,4.75293,8.29395,4.75293,15.75293v25.32715
			c0,3.6377,0.38965,6.11426,1.16895,7.43164s2.24512,1.97559,4.39746,1.97559c0.7041,0,1.85547-0.18555,3.45117-0.55664
			l1.00195,6.56836c-3.66309,1.1875-6.43848,1.78125-8.3252,1.78125C1422.45801,464.8349,1418.81445,462.0517,1416.92676,456.48529z
			 M1415.20117,449.36029v-15.25195h-3.28418c-15.0293,0-22.54395,4.06348-22.54395,12.19043
			c0,2.93164,0.96484,5.28809,2.89453,7.06934c1.92871,1.78125,4.48926,2.67188,7.68164,2.67188
			C1404.73633,456.03998,1409.82031,453.81342,1415.20117,449.36029z"/>
	</g>
	<g>
		<rect x="1048" y="110.6972" class="st2" width="25" height="187"/>
		<polygon class="st2" points="1101,229.6972 1157,297.6972 1127,297.6972 1073,230.10101 1123,169.6972 1152,169.6972 		"/>
		<circle class="st2" cx="1189" cy="130.6972" r="15"/>
		<rect x="1176" y="169.6972" class="st2" width="25" height="128"/>
		<path class="st2" d="M1229.24414,235.30933c0-10.46442,1.42871-19.76477,4.29248-27.90112
			c2.86169-8.13416,6.92822-15.00214,12.20398-20.60388c5.27148-5.59955,11.60791-9.85114,19.00732-12.75476
			c7.39941-2.90143,15.63794-4.35382,24.7135-4.35382c3.92456,0,7.78882,0.2453,11.58862,0.7359
			c3.80408,0.49054,7.54358,1.26837,11.22278,2.3302V110.6972h21.4624l0.26477,180c0,0-25,11-55,8
			c-6.99878-0.69989-20.30237-3.66119-25.65564-6.60455c-5.35754-2.94342-9.81128-7.09174-13.37012-12.44818
			c-3.55444-5.35431-6.23535-11.79303-8.03198-19.31616C1230.14355,252.80731,1229.24414,244.46765,1229.24414,235.30933z
			 M1251.07446,233.96027c0,14.88165,2.18604,25.98077,6.5603,33.2973C1262.00891,274.57629,1274,279.6972,1283,280.6972
			c12.92053,1.43561,18,0,29-3l0.27283-85.31262c-3.51575-1.63416-7.40149-2.88214-11.651-3.7406
			c-4.25159-0.85852-8.46228-1.28778-12.63208-1.28778c-11.61011,0-20.66418,3.76215-27.16638,11.28308
			C1254.32556,206.16241,1251.07446,217.9361,1251.07446,233.96027z"/>
		<path class="st2" d="M1364,289.76239v-21.58496c11.3147,8.09436,23.76709,12.14154,37.36377,12.14154
			c18.23865,0,27.35791-5.88684,27.35791-17.66046c0-3.35114-0.78223-6.19342-2.34424-8.52362
			c-1.56213-2.3302-3.6709-4.39362-6.33289-6.19342c-2.65759-1.79767-5.78406-3.41248-9.37256-4.84436
			c-3.58862-1.42975-7.45276-2.92194-11.58801-4.47644c-5.74402-2.20758-10.78809-4.43451-15.1344-6.68402
			c-4.35083-2.24738-7.98157-4.78302-10.89246-7.60382c-2.91541-2.82074-5.11072-6.02881-6.58618-9.62738
			c-1.47986-3.59644-2.21765-7.80713-2.21765-12.63214c0-5.88684,1.39319-11.09912,4.17969-15.6369
			c2.7865-4.53772,6.50171-8.33966,11.14575-11.4057c4.64197-3.06604,9.94373-5.37476,15.89441-6.92926
			c5.95508-1.55243,12.0968-2.3302,18.42969-2.3302c11.22803,0,21.27832,1.88159,30.14429,5.64154v20.35858
			c-9.5437-6.04926-20.51843-9.07556-32.93079-9.07556c-3.88416,0-7.3905,0.42926-10.51245,1.28778
			c-3.12427,0.85846-5.80627,2.06555-8.04163,3.61792c-2.23987,1.55457-3.97083,3.41461-5.19519,5.5802
			c-1.22437,2.16779-1.83545,4.55933-1.83545,7.17462c0,3.27148,0.61108,6.00946,1.83545,8.21698
			c1.22437,2.20758,3.01978,4.16986,5.38403,5.88684c2.36206,1.71698,5.23511,3.27155,8.61267,4.6604
			c3.37524,1.39099,7.21948,2.90363,11.52576,4.53778c5.74182,2.12683,10.89246,4.31396,15.45215,6.56134
			c4.55969,2.24951,8.44153,4.78302,11.65247,7.60382c3.20862,2.82074,5.67725,6.0708,7.40833,9.75006
			c1.73096,3.67926,2.59753,8.05457,2.59753,13.12268c0,6.21497-1.41541,11.61121-4.24194,16.18878
			c-2.83081,4.57971-6.60828,8.38159-11.33679,11.4057c-4.73083,3.02625-10.177,5.27362-16.33875,6.7453
			c-6.16406,1.47174-12.62354,2.20758-19.37854,2.20758C1385.3606,297.24359,1373.7948,294.74878,1364,289.76239z"/>
	</g>
</g>
</svg>
