<?xml version="1.0" encoding="utf-8"?>
<!-- Generator: Adobe Illustrator 24.0.0, SVG Export Plug-In . SVG Version: 6.00 Build 0)  -->
<svg version="1.1" id="Слой_1" xmlns="http://www.w3.org/2000/svg" xmlns:xlink="http://www.w3.org/1999/xlink" x="0px" y="0px"
	 viewBox="0 0 1500 600" style="enable-background:new 0 0 1500 600;" xml:space="preserve">
<style type="text/css">
	.st0{display:none;}
	.st1{display:inline;}
	.st2{fill:#DE2A1B;}
	.st3{display:inline;fill:#DE2A1B;}
	.st4{fill:#FFED00;}
	.st5{fill:#E31F25;}
	.st6{fill:#FFFFFF;}
</style>
<g class="st0">
	<g class="st1">
		<path class="st2" d="M109.3,283.4c34.3,0,59.3,25.4,59.3,57.9c0,33.3-25.1,59.3-59.3,59.3c-34.3,0-59.3-26-59.3-59.3
			C50,308.8,75.1,283.4,109.3,283.4z M109.3,375.3c17,0,30.6-14.6,30.6-34c0-18.6-13.6-32.5-30.6-32.5s-30.6,14-30.6,32.5
			C78.7,360.7,92.4,375.3,109.3,375.3z"/>
		<path class="st2" d="M183.9,375.1c11.6-20.1,14.4-42.5,14.4-63v-26.8h76.8v89.8h12.7V421h-24.6v-22.2h-65.5V421h-25.5v-45.8h11.7
			V375.1z M247.4,375.1v-66h-22.7v5.2c0,18.1-3,43.3-12.4,60.8H247.4z"/>
		<path class="st2" d="M305.3,285.3h71.1v23.8H333v20.6h34.6v23.8H333V375h45.5v23.8h-73.3L305.3,285.3L305.3,285.3z"/>
		<path class="st2" d="M416.2,339.9v-0.3l-28.1-54.3h29.8l20.9,43.8h10.8v-43.8h27.8v43.8h10.8l20.9-43.8H539l-28.1,54.3v0.3
			l30.5,58.9h-31.1l-22.1-46h-10.8v46h-27.8v-46h-10.8l-22.1,46h-31.1L416.2,339.9z"/>
		<path class="st2" d="M555.3,375.1c11.6-20.1,14.4-42.5,14.4-63v-26.8h76.8v89.8h12.7V421h-24.6v-22.2h-65.5V421h-25.5v-45.8h11.7
			V375.1z M618.7,375.1v-66H596v5.2c0,18.1-3,43.3-12.4,60.8H618.7z"/>
		<path class="st2" d="M702.8,285.3H732l38.6,113.4H742l-7-23.8h-35.4l-6.8,23.8h-28.6L702.8,285.3z M728.5,352.8l-6.3-22.1
			c-2.1-7.1-4.6-19.5-4.6-19.5h-0.3c0,0-2.5,12.4-4.6,19.5l-6.5,22.1H728.5z"/>
	</g>
	<g class="st1">
		<path class="st2" d="M986.8,283.4c34.3,0,59.3,25.4,59.3,57.9c0,33.3-25.1,59.3-59.3,59.3c-34.3,0-59.3-26-59.3-59.3
			C927.4,308.8,952.5,283.4,986.8,283.4z M986.8,375.3c17,0,30.6-14.6,30.6-34c0-18.6-13.6-32.5-30.6-32.5s-30.6,14-30.6,32.5
			C956.1,360.7,969.8,375.3,986.8,375.3z"/>
		<path class="st2" d="M1063.7,285.3h73.8v23.8h-46v17.6h19.4c22.1,0,37,15.2,37,36.2s-14.9,35.9-37,35.9h-47.1V285.3H1063.7z
			 M1105.6,375c9.2,0,14-4.9,14-12.1s-4.8-12.4-14.4-12.4h-13.6V375H1105.6z"/>
		<path class="st2" d="M1171.9,371.3c3,2.5,7.3,5.7,12.5,5.7c4.4,0,7.5-2.1,9-5.9l-43.8-85.8h30.5l18.9,40.8
			c3.8,8.1,6.2,15.2,6.2,15.2h0.3c0,0,1.7-7.1,4.4-15.1l14-40.9h29.2l-33.5,85c-5.2,13.3-14,30.3-34,30.3c-10,0-17.9-3-25.9-8.6
			L1171.9,371.3z"/>
		<path class="st2" d="M1263.3,285.3h41.7c22.7,0,38.6,10.2,38.6,29.7c0,9.5-4.6,19.2-13.2,24.1v0.3c13,4,17.8,15.5,17.8,25.5
			c0,24.7-20.6,33.8-43.2,33.8h-41.7L1263.3,285.3L1263.3,285.3z M1305.3,329.3c7,0,10-5.1,10-10.5c0-5.2-3-9.7-10.5-9.7H1291v20.1
			h14.3V329.3z M1307.7,375c8.1,0,12.1-5.6,12.1-11.9s-3.8-11.6-11.9-11.6H1291V375H1307.7z"/>
		<path class="st2" d="M1365.9,285.3h27.8v35.1h19.4c22.1,0,37,16.5,37,39.3s-14.9,39-37,39H1366V285.3H1365.9z M1407.8,375
			c9.2,0,14-6.2,14-15.2s-4.8-15.5-14.4-15.5h-13.6V375H1407.8z"/>
	</g>
	<path class="st3" d="M758.3,205.5c-43.1,0-81.1,21.4-104.2,54.1c15.1-6.3,31.7-9.8,49.1-9.8c70.3,0,127.3,57,127.3,127.3
		c0,27.3-8.6,52.6-23.2,73.3c45.9-19.2,78.2-64.6,78.2-117.5C885.6,262.6,828.6,205.5,758.3,205.5z"/>
	<g class="st1">
		<path class="st4" d="M641.3,204.4l4-3.4l11,13.1l5.7-4.8l-11-13.1l4-3.4l11,13.1l2-1.7l5.6,6.7l-3.6,3l-2.7-3.2L655,221
			L641.3,204.4z"/>
		<path class="st4" d="M661.7,188.1l11.4-7.3l2.4,3.8l-7,4.4l2.1,3.3l5.6-3.5l2.4,3.8l-5.6,3.5l2.2,3.4l7.3-4.7l2.4,3.8l-11.8,7.5
			L661.7,188.1z"/>
		<path class="st4" d="M678.3,177.8l4.8-2.3l3.7,7.8l7.1-3.3l-3.7-7.8l4.8-2.3l9.2,19.5l-4.8,2.3l-3.6-7.7l-7.1,3.3l3.6,7.7
			l-4.8,2.3L678.3,177.8z"/>
		<path class="st4" d="M707.1,170.5l-6.3,2l-1.4-4.3l17.5-5.6l1.4,4.3l-6.3,2l5.2,16.3l-5,1.6L707.1,170.5z"/>
		<path class="st4" d="M721.6,161.6l8.8-1.7c4.1-0.8,7.5,1.7,8.3,6s-1.4,7.9-5.5,8.7l-3.6,0.7l1.2,6.6l-5.2,1L721.6,161.6z
			 M731.3,170.3c1.8-0.3,2.5-1.7,2.2-3.4s-1.4-2.7-3.2-2.4l-2.6,0.5l1.1,5.8L731.3,170.3z"/>
		<path class="st4" d="M750.7,157.3l18.3-0.1l0.1,21.6h-5.3l-0.1-17.1H756l0.1,17.1h-5.3L750.7,157.3z"/>
		<path class="st4" d="M777.4,165.1l1-7l14.4,2l-2.9,21.4l-5.2-0.7l2.3-16.9l-4.2-0.6l-0.4,2.6c-1.4,10.5-5.2,14.1-11.2,13.3
			l0.7-4.8C774.3,174.4,776.3,172.7,777.4,165.1z"/>
		<path class="st4" d="M804.1,162.7l5.4,1.5l1.3,22.8l-5.2-1.4l-0.1-4.7L799,179l-2.5,4l-5.2-1.4L804.1,162.7z M805.4,176.4V172
			c0-1.4,0.1-3.8,0.1-3.8h-0.1c0,0-1.1,2.1-1.8,3.4l-2.3,3.7L805.4,176.4z"/>
		<path class="st4" d="M820.2,167.7l4.9,2l-3.3,8l7.3,3l3.3-8l4.9,2l-8.2,20l-4.9-2l3.2-7.8l-7.3-3l-3.2,7.8l-4.9-2L820.2,167.7z"/>
		<path class="st4" d="M843.5,178.1l11.7,6.9l-2.3,3.9l-7.1-4.2l-2,3.4l5.7,3.3l-2.3,3.9l-5.7-3.3l-2.1,3.5l7.5,4.4l-2.3,3.9
			l-12-7.1L843.5,178.1z"/>
		<path class="st4" d="M861,194.6l-5.2-4l2.7-3.6l14.7,11.1l-2.7,3.6l-5.2-4L855,211.3l-4.2-3.2L861,194.6z"/>
		<path class="st4" d="M878.8,203.5l4,3.8l-9.6,20.7l-3.9-3.8l2.2-4.2l-4.9-4.7l-4.1,2.4l-3.9-3.8L878.8,203.5z M873.5,216.2l2-3.9
			c0.7-1.3,1.9-3.3,1.9-3.3l0,0c0,0-2,1.4-3.2,2.1l-3.8,2.2L873.5,216.2z"/>
	</g>
</g>
<g>
	<path class="st5" d="M1116.2,278.4h-45.5C1045.4,123.2,910.7,4.6,748.4,4.6S451.3,123.2,426.1,278.4H386c-42.7,0-77.7,35-77.7,77.7
		v2.8c0,42.7,35,77.7,77.7,77.7h124.3c39.8,93.4,132.5,158.9,240.4,158.9S951.3,530,991.2,436.6h125c42.7,0,77.7-35,77.7-77.7v-2.8
		C1193.8,313.4,1158.9,278.4,1116.2,278.4z"/>
	<path class="st6" d="M749,132.4c-81.4,0-152.4,44.4-190.1,110.3c36.7-31.6,84.5-50.8,136.7-50.8c115.7,0,209.6,93.8,209.6,209.6
		c0,57.2-22.9,109-60.1,146.8c72.8-35.6,122.9-110.4,122.9-196.9C968.1,230.5,870,132.4,749,132.4z"/>
	<g>
		<path class="st6" d="M475.9,201.6l36.5-54.3l68.3,45.8l-9.3,13.8l-56.8-38.1l-17.9,26.7l56.8,38.1l-9.3,13.8L475.9,201.6z"/>
		<path class="st6" d="M546.2,113.7l46.4-34.2l48.8,66.2l-13.4,9.8l-40.5-55l-19.9,14.7l20.8,28.3c6,8.1,9.9,14,11.7,17.6
			c1.8,3.6,2.3,7.1,1.6,10.4c-0.8,3.3-3.4,6.6-7.8,9.9c-1.6,1.2-4.5,3.1-8.9,5.8l-7.6-10.3l3-2.2c2.8-2.1,4.4-3.8,4.8-5.3
			c0.4-1.5-0.5-3.7-2.6-6.6l-8.4-11.4L546.2,113.7z"/>
		<path class="st6" d="M724.6,118.4l-17.3,5.1l-12.2-15.9l-31.5,9.3l-1.2,19.8l-16.9,5l7.5-88l16.8-5L724.6,118.4z M686.1,95.8
			l-19.5-26.1l-2,32.4L686.1,95.8z"/>
		<path class="st6" d="M730.3,119.3l5.3-82.1l16.6,1.1l-2.1,32.3l32.5,2.1l2.1-32.3l16.6,1.1l-5.3,82.1l-16.6-1.1l2.3-35.9
			l-32.5-2.1l-2.3,35.9L730.3,119.3z"/>
		<path class="st6" d="M809.3,127.1l32.4-75.6l56.1,24l-5.5,12.8l-40.8-17.5l-7.2,16.8l38,16.3l-5.5,12.7l-38-16.3l-8.8,20.6
			l42.2,18.1l-5.5,12.7L809.3,127.1z"/>
		<path class="st6" d="M889.8,170.7l44.9-51.5l-18.4-16.1l9.2-10.5l49.3,43l-9.2,10.5l-18.3-16l-44.9,51.5L889.8,170.7z"/>
		<path class="st6" d="M960.7,261.3l-9.6-15.3l12-16l-17.4-27.9l-19.4,4.1l-9.3-14.9l86.7-16.4l9.3,14.9L960.7,261.3z M972.1,218.1
			l19.9-25.8l-31.8,6.7L972.1,218.1z"/>
	</g>
	<g>
		<path class="st6" d="M356.4,356.6c0-8.4,1.2-15.4,3.7-21.1c1.8-4.2,4.4-7.9,7.5-11.3c3.2-3.3,6.7-5.8,10.5-7.4
			c5-2.2,10.9-3.3,17.5-3.3c11.9,0,21.5,3.8,28.7,11.3c7.2,7.5,10.8,18,10.8,31.4c0,13.3-3.6,23.7-10.7,31.2
			c-7.1,7.5-16.6,11.3-28.5,11.3c-12.1,0-21.6-3.7-28.8-11.2C359.9,380,356.4,369.7,356.4,356.6z M373.3,356
			c0,9.3,2.1,16.4,6.4,21.2c4.2,4.8,9.6,7.2,16.1,7.2c6.5,0,11.9-2.4,16.1-7.2c4.2-4.8,6.3-11.9,6.3-21.5c0-9.4-2-16.5-6.1-21.1
			c-4.1-4.6-9.5-7-16.2-7c-6.7,0-12.2,2.3-16.3,7C375.3,339.5,373.3,346.6,373.3,356z"/>
		<path class="st6" d="M493.4,397.2h-44.5v15.7h-12.6v-28.6h6.4c2.7-3,4.8-7.7,6.6-14c1.7-6.4,2.8-17.2,3.1-32.7h47.4v46.7h6.3v28.6
			h-12.7V397.2z M484.4,384.3l0.1-33.7h-18.8c-0.6,16.5-3.2,27.7-7.7,33.7H484.4z"/>
		<path class="st6" d="M550.7,378.2l15.5,2.6c-2,5.8-5.1,10.1-9.4,13.2c-4.3,3-9.7,4.5-16.1,4.5c-10.2,0-17.8-3.4-22.7-10.2
			c-3.9-5.4-5.8-12.3-5.8-20.5c0-9.9,2.5-17.6,7.6-23.2c5.1-5.6,11.5-8.4,19.3-8.4c8.7,0,15.6,2.9,20.7,8.8c5,5.9,7.5,14.8,7.2,26.9
			h-38.9c0.1,4.7,1.4,8.3,3.8,10.9c2.4,2.6,5.4,3.9,9,3.9c2.4,0,4.5-0.7,6.1-2C548.6,383.4,549.9,381.2,550.7,378.2z M551.6,362.3
			c-0.1-4.6-1.3-8-3.5-10.4c-2.2-2.4-4.9-3.6-8.1-3.6c-3.4,0-6.2,1.3-8.4,3.8c-2.2,2.5-3.3,5.9-3.3,10.2H551.6z"/>
		<path class="st6" d="M602.6,397.2v-25.4c-2,0.1-3.4,0.6-4.2,1.4c-0.8,0.8-2.2,3-4.2,6.8l-7.4,17.2H570l8.3-16.4
			c4.2-8.2,8.6-12.9,13.1-14.1c-3.4-1.3-6-4.7-7.8-10.2c-1.4-4.1-2.6-6.5-3.7-7.3c-1.1-0.8-3.8-1.2-7.9-1.2v-10.4
			c3.1-0.2,5.2-0.3,6.4-0.3c3.4,0,6.4,0.8,8.8,2.3c2.4,1.5,4.7,5.3,6.9,11.4c1.7,4.8,3,7.8,4,9c1,1.3,2.5,1.9,4.5,2v-24.4H618V362
			c2,0,3.5-0.7,4.5-2c1-1.3,2.3-4.3,4-9c2.1-6,4.3-9.8,6.7-11.4c2.4-1.6,5.4-2.4,9.2-2.4c1.1,0,3.1,0.1,6.2,0.3v10.4
			c-4.1,0-6.7,0.4-7.9,1.2c-1.1,0.8-2.4,3.2-3.8,7.3c-1.8,5.5-4.4,8.8-7.8,10.2c4.5,1.2,8.9,5.9,13.1,14.1l8.3,16.4h-16.7l-7.4-17.2
			c-1.3-3.1-2.6-5.2-3.7-6.3c-1.1-1.1-2.7-1.8-4.8-1.9v25.4H602.6z"/>
		<path class="st6" d="M707.1,397.2h-44.5v15.7H650v-28.6h6.4c2.7-3,4.8-7.7,6.6-14c1.7-6.4,2.8-17.2,3.1-32.7h47.4v46.7h6.3v28.6
			h-12.7V397.2z M698,384.3l0.1-33.7h-18.8c-0.6,16.5-3.2,27.7-7.7,33.7H698z"/>
		<path class="st6" d="M742,355.8l-14.1-2.6c1.6-5.8,4.3-10,8.2-12.8c3.9-2.8,9.6-4.2,17.3-4.2c6.9,0,12.1,0.8,15.5,2.5
			c3.4,1.7,5.8,3.8,7.2,6.3c1.4,2.6,2.1,7.3,2.1,14.1l-0.2,18.4c0,5.2,0.2,9.1,0.7,11.6c0.5,2.5,1.4,5.2,2.8,8h-15.4
			c-0.4-1-0.9-2.6-1.5-4.7c-0.3-0.9-0.4-1.6-0.6-1.9c-2.7,2.6-5.5,4.6-8.5,5.9c-3,1.3-6.2,2-9.7,2c-6,0-10.8-1.7-14.3-5
			c-3.5-3.3-5.2-7.5-5.2-12.6c0-3.4,0.8-6.4,2.4-9c1.6-2.6,3.8-4.7,6.7-6.1c2.9-1.4,7-2.6,12.4-3.7c7.3-1.4,12.3-2.7,15.1-3.9v-1.6
			c0-3-0.7-5.2-2.2-6.5c-1.5-1.3-4.3-1.9-8.3-1.9c-2.8,0-4.9,0.6-6.5,1.7C744.2,351.1,743,353,742,355.8z M762.8,368.6
			c-2,0.7-5.1,1.5-9.5,2.4c-4.3,0.9-7.1,1.9-8.5,2.7c-2,1.5-3,3.3-3,5.6c0,2.2,0.8,4.1,2.4,5.7c1.6,1.6,3.7,2.4,6.2,2.4
			c2.8,0,5.5-0.9,8-2.8c1.9-1.4,3.1-3.2,3.7-5.2c0.4-1.3,0.6-3.9,0.6-7.7V368.6z"/>
		<path class="st6" d="M818.2,356.6c0-8.4,1.2-15.4,3.7-21.1c1.8-4.2,4.4-7.9,7.5-11.3c3.2-3.3,6.7-5.8,10.5-7.4
			c5-2.2,10.9-3.3,17.5-3.3c11.9,0,21.5,3.8,28.7,11.3c7.2,7.5,10.8,18,10.8,31.4c0,13.3-3.6,23.7-10.7,31.2
			c-7.1,7.5-16.6,11.3-28.5,11.3c-12.1,0-21.6-3.7-28.8-11.2C821.7,380,818.2,369.7,818.2,356.6z M835,356c0,9.3,2.1,16.4,6.4,21.2
			c4.2,4.8,9.6,7.2,16.1,7.2s11.9-2.4,16.1-7.2c4.2-4.8,6.3-11.9,6.3-21.5c0-9.4-2-16.5-6.1-21.1c-4.1-4.6-9.5-7-16.2-7
			s-12.2,2.3-16.3,7C837.1,339.5,835,346.6,835,356z"/>
		<path class="st5" d="M952.8,313h10.6c-0.3,4.8-1.6,8.4-3.7,10.8c-2.1,2.5-7.3,3.7-15.7,3.7c-1,0-2,0-3-0.1h-2
			c-4.9,0-9,0.6-12.1,1.7c-3.1,1.1-5.6,3.2-7.6,6.4c-2,3.2-3,8.3-3.1,15.4c2.3-4.4,5.2-7.6,8.9-9.8c3.6-2.2,8-3.3,13-3.3
			c7.7,0,14.2,3,19.6,9.1c5.3,6.1,8,13.1,8,21.1c0,8.3-2.8,15.5-8.4,21.5c-5.6,6-13,9-22,9c-6.2,0-11.7-1.5-16.4-4.5
			c-4.7-3-8.1-7.2-10.1-12.4c-2-5.3-3-14-3-26.1c0-14.3,2.6-24.6,7.8-30.8c5.2-6.2,14.2-9.4,27.1-9.4h7.9
			C950.7,315.3,952.1,314.5,952.8,313z M921.6,367.9c0,5.4,1.3,9.7,4,12.9c2.7,3.2,5.9,4.7,9.8,4.7c4.2,0,7.6-1.6,10.3-4.9
			c2.7-3.3,4-7.5,4-12.7c0-5.3-1.4-9.5-4.1-12.8c-2.7-3.2-6.1-4.9-10-4.9c-3.9,0-7.2,1.6-9.9,4.8
			C922.9,358.3,921.6,362.5,921.6,367.9z"/>
		<path class="st6" d="M971.2,337.6h16.5l14,42.3l13.7-42.3h16.1l-20.7,57.3l-3.7,10.4c-1.4,3.5-2.7,6.1-3.9,8
			c-1.2,1.8-2.7,3.3-4.3,4.5c-1.6,1.1-3.6,2-5.9,2.7c-2.3,0.6-5,1-7.9,1c-3,0-5.9-0.3-8.8-1l-1.4-12.3c2.4,0.5,4.6,0.7,6.6,0.7
			c3.6,0,6.3-1.1,8-3.2c1.7-2.2,3.1-4.9,4-8.2L971.2,337.6z"/>
		<path class="st6" d="M1041.7,337.6h34c7,0,12.2,1.3,15.6,3.9c3.5,2.6,5.2,6.5,5.2,11.7c0,3.3-0.9,6.2-2.8,8.7
			c-1.9,2.5-4.3,4.1-7.2,4.9c4.1,1,7.1,2.9,9.1,5.7c2,2.8,3,5.8,3,9.1c0,4.6-1.7,8.4-5,11.3c-3.4,2.9-8.3,4.3-14.9,4.3h-37V337.6z
			 M1057.4,362.4h10c4.8,0,8.3-0.6,10.5-1.9c2.2-1.2,3.2-3.2,3.2-5.8c0-2.5-1-4.3-3-5.4c-2-1.1-5.6-1.6-10.7-1.6h-10V362.4z
			 M1057.4,387.1h12.3c4.4,0,7.6-0.5,9.7-1.6c2-1.1,3-3,3-5.8c0-2.9-1.2-4.9-3.5-6c-2.3-1.1-6.8-1.7-13.5-1.7h-8V387.1z"/>
		<path class="st6" d="M1111.5,337.6h15.5v24.7h15.6c6.1,0,10.8,0.4,14.1,1.3c3.3,0.9,6,2.8,8.2,5.8c2.2,3,3.3,6.4,3.3,10.4
			c0,5.8-1.9,10.1-5.8,13c-3.9,2.9-9.7,4.3-17.5,4.3h-33.3V337.6z M1127,387.2h14.5c4.5,0,7.4-0.7,8.7-2.2c1.3-1.5,1.9-3.3,1.9-5.3
			c0-2.9-1.1-4.9-3.3-5.9c-2.2-1.1-6.1-1.6-11.7-1.6H1127V387.2z"/>
	</g>
</g>
</svg>
