<?xml version="1.0" encoding="utf-8"?>
<!-- Generator: Adobe Illustrator 24.0.0, SVG Export Plug-In . SVG Version: 6.00 Build 0)  -->
<svg version="1.1" id="Слой_1" xmlns="http://www.w3.org/2000/svg" xmlns:xlink="http://www.w3.org/1999/xlink" x="0px" y="0px"
	 viewBox="0 0 1500 600" style="enable-background:new 0 0 1500 600;" xml:space="preserve">
<style type="text/css">
	.st0{fill-rule:evenodd;clip-rule:evenodd;fill:#2B2A29;}
	.st1{fill-rule:evenodd;clip-rule:evenodd;fill:#CE0E2D;}
	.st2{fill-rule:evenodd;clip-rule:evenodd;fill:#FEFEFE;}
</style>
<g>
	<path class="st0" d="M830.23779,231.0838c-3.97906,0-6.27765,3.07574-7.18402,7.13855l-8.27032,30.67102
		c-4.83069,17.72089-11.67474,46.10883-14.28857,59.59229c-2.62201-13.48346-9.47021-42.07501-14.29572-59.59229l-10.26917-37.84784
		h-43.89197l48.52216,140.90314h39.59766l37.3559-108.2912l-0.01245-32.61194L830.23779,231.0838z"/>
	<path class="st0" d="M271.97479,231.07135c-3.98221,0-7.18716,3.17706-7.18716,7.14063l-0.08267,73.55731
		c0,17.3241-6.44098,27.99426-21.73619,27.99426c-15.30243,0-22.14749-10.67017-22.14749-27.99426v-80.72375h-39.85805v80.72375
		c0,44.70227,25.9736,62.40765,61.39783,62.40765c35.44492,0,62.20605-17.70538,62.20605-62.40765l0.07031-80.72375
		L271.97479,231.07135z"/>
	<path class="st0" d="M1074.00195,318.21338c15.50293-7.04346,25.36279-20.13104,25.36279-41.26465
		c0-33.42029-21.94177-45.9032-54.96301-45.9032h-63.00195v140.91449l31.30457-0.00928c3.97705,0,7.18616-3.20294,7.18616-7.16553
		l-0.03827-101.93079h23.54694c12.2887,0,17.12561,6.24048,17.12561,15.10089c0,10.06763-5.0437,15.70135-17.7251,15.70135h-16.1333
		v30.81165h8.88831l22.94434,47.5h43.68726L1074.00195,318.21338z"/>
	<path class="st0" d="M462.60001,280.58569l42.30341-49.56085l-47.7222-0.00623l-10.96988,13.96094
		c-9.10745,11.52905-21.44681,27.91772-27.31619,37.22467c0.40305-10.31152,0.46201-51.15869,0.46201-51.15869h-40.02032
		l-0.07651,102.93744c0,3.96667-3.21115,7.14685-7.18512,7.14685h-3.18323v30.8385l50.6109-0.0083v-42.40265l14.57175-17.60406
		l29.42767,59.97467h46.54086L462.60001,280.58569z"/>
	<path class="st0" d="M361.73477,231.04553h-49.96396v30.81573h2.7709c3.96255,0,7.14069,3.2132,7.14069,7.18707l0.04233,95.7121
		c0,3.98737,3.17712,7.18823,7.13965,7.18823h32.87039V231.04553z"/>
	<polygon class="st0" points="864.89307,371.94244 864.89307,231.06512 972.81427,231.06512 972.81427,263.81256 
		903.5564,263.81256 903.5564,282.53699 945.23346,282.53699 945.23346,314.95569 903.5564,314.95569 903.5564,339.12378 
		974.22504,339.12378 974.22504,371.94244 	"/>
	<path class="st0" d="M623.50708,231.03723c-3.98212,0-7.18713,3.18121-7.18713,7.13861v133.78107h39.86115V231.03723H623.50708z"/>
	<path class="st0" d="M772.81494,371.96002l-11.74194-34.0083l-48.2348-0.00208l-0.02069-99.66327
		c0-3.97906-3.17914-7.18506-7.14063-7.18506l-42.35712-0.05377v30.64832c0.2666-0.00824,1.76215-0.00824,3.05402-0.00208
		c3.8902,0.07031,6.99908,3.24945,6.99908,7.17578l0.0083,103.09045H772.81494z"/>
	<path class="st0" d="M608.88269,323.3407c-2.12494-22.46271-17.9917-32.40735-50.86517-40.24664
		c-0.17572-0.04242-0.35657-0.07648-0.53229-0.11267c-17.29297-4.09277-22.15369-6.534-22.15369-11.68402
		c0-5.06848,2.836-8.71576,14.58099-8.71576c14.38885,0,26.9483,4.86896,39.51703,13.37177l19.04071-30.78986
		c-14.99133-10.53784-32.41663-16.4176-56.52783-16.4176c-34.24493,0-55.91806,18.03607-55.91806,44.77972
		c0,27.77405,15.73752,37.29077,48.52316,45.08356c0.51672,0.15613,1.0531,0.28528,1.60608,0.40619
		c18.91876,4.42767,24.16595,7.67505,24.073,12.9129c-0.09094,5.69995-4.55481,8.74786-18.44543,8.74786
		c-8.44086,0-18.88361-1.6568-27.99207-5.41882c-4.2406-1.91205-8.18457-4.31805-8.18457-4.31805
		c-3.45612-1.97516-7.82898-0.80304-9.78543,2.64069l-3.99768,6.88428l16.34012,31.05243
		c10.58636,1.77667,19.50989,2.77704,32.80621,2.77704c31.76453,0,55.17395-11.71606,57.91492-39.8136
		c0.17572-1.8252,0.27289-3.72382,0.27289-5.68439C609.15558,326.89087,609.04803,325.08221,608.88269,323.3407z"/>
	<path class="st0" d="M113.50886,325.88214l28.6639,48.90765l43.49402-0.00409l-19.7662-32.67194
		c3.114-4.68707,8.09149-10.37872,8.09149-32.40735c0,0,0.68108-25.56226-1.14105-38.51862
		c-5.20692-32.41669-30.14389-43.71729-60.47491-43.89294l0.03103-0.05066c-2.24586,0-4.45245,0.07751-6.62077,0.21393
		c-6.88226,0.42059-13.34929,1.57819-19.26543,3.56671c-17.8421,5.83118-30.79794,18.68414-34.75641,40.05237
		c-1.15828,7.32874-1.53377,13.91028-1.53377,19.10791c0,0-0.37509,19.5575-0.16877,20.82666
		c0.52687,43.73071,27.58879,60.89655,62.68106,60.89655c8.41188,0,12.01997-0.80408,17.61757-3.00134
		c0,0-18.53225-31.94641-18.69759-31.94641c-15.29932,0-22.47462-9.62421-22.47462-27.22626c0,0-0.50467-18.76373,0.32052-25.52612
		c1.50471-13.58368,9.27529-22.00177,22.72977-22.00177c15.29317,0,22.99808,10.66498,22.99808,27.9787v23.66882
		L113.50886,325.88214z"/>
	<path class="st1" d="M1450,448.18597c0,3.96973-3.21423,7.19537-7.23474,7.19537h-296.29224
		c-4.01001,0-7.25537-3.22565-7.25537-7.19537V151.82031c0-3.99146,3.24536-7.20166,7.25537-7.20166h296.29224
		c4.02051,0,7.23474,3.21021,7.23474,7.20166V448.18597z"/>
	<path class="st2" d="M1429.52576,371.98688h-255.46777c-8.77478,0-14.96558-7.36285-15.03796-14.42706V300.3075
		c10.99683,0,20.82568-5.27826,24.41199-7.85999c22.77905-16.28223,41.72363-48.00641,65.99097-58.31177
		c7.07959-3.03442,20.88757-7.95917,38.30249-3.43958l20.83606,20.7605c0,0-10.88306-5.12427-27.01648-5.12427
		c-18.09717,0-53.0304,14.92114-53.0304,53.93579c0,31.41412,21.62146,53.48932,57.13354,53.48932h125.61511L1429.52576,371.98688z"
		/>
	<path class="st2" d="M1283.68445,301.22729c-1.32288,1.30951-0.63049,2.80609,1.12659,2.75128h14.39697l10.13892-8.57416
		c2.12915-2.08875,4.17554-1.69293,4.17554,0.54468v17.09143c-0.04138,2.70685,2.35645,2.70685,3.81372,0.89197l10.52136-9.95392
		h13.80786c1.10596-0.02789,1.8811-1.44177,0.41345-2.8866l-24.93909-24.54321c-1.77759-1.79218-5.63269-1.79218-7.34839,0
		C1309.17126,277.13263,1283.68445,301.22729,1283.68445,301.22729L1283.68445,301.22729z M1400.04956,342.63361h-117.08862
		c-13.28088,0-31.05762-6.33966-36.40088-18.69965c0,0,52.64795-53.70422,55.19043-56.27356
		c6.31494-6.25293,17.54932-6.25293,23.00635,0L1400.04956,342.63361z"/>
</g>
</svg>
