<?xml version="1.0" encoding="utf-8"?>
<!-- Generator: Adobe Illustrator 24.1.3, SVG Export Plug-In . SVG Version: 6.00 Build 0)  -->
<svg version="1.1" id="Слой_1" xmlns="http://www.w3.org/2000/svg" xmlns:xlink="http://www.w3.org/1999/xlink" x="0px" y="0px"
	 viewBox="0 0 150 80" style="enable-background:new 0 0 150 80;" xml:space="preserve">
<g>
	<path d="M34.3,56.5c-0.5-0.9-0.6-1.8-0.6-2.7c0.1-1.7,0.7-3.2,2.1-4.2c0.9-0.7,1.9-0.9,3-0.7c0.2,0,0.4,0.2,0.5,0.3
		c0.1,0.2,0,0.4-0.2,0.6c-1.5,1.7-2.1,3.7-1.3,5.9c0.7,1.8,2.1,2.6,4,2.9c0.4,0.1,0.8,0,1.3,0.1c0.2,0,0.4,0.1,0.5,0.2
		c0,0.1-0.1,0.4-0.2,0.5c-0.4,0.5-1,0.7-1.6,0.9c-1.2,0.4-2.4,0.4-3.6,0.3c-3.4-0.2-6.7-1.1-9.7-2.9c-3.9-2.3-6.3-5.7-7.6-10
		c-1.5-5.1-1.3-10,1-14.8c1.7-3.5,4.3-6.1,7.6-8c0.1-0.1,0.2-0.1,0.3-0.2c0,0,0,0,0-0.1c-0.5-1-1.2-1.8-2.1-2.5
		c-0.6-0.5-0.7-0.9-0.2-1.5c0.9-0.9,1.9-1.4,3.1-1.5c3.9-0.5,7.4,0.4,10.3,3.1c0.2,0.1,0.4,0.2,0.6,0.3c3.7,0.4,7,1.6,9.9,3.9
		c3.5,2.7,5.2,6.3,5.3,10.7c0,2.4-0.5,4.5-1.7,6.5c-0.8,1.2-1.8,2.3-3.1,3c-0.3,0.2-0.3,0.4-0.3,0.7c0.1,1.1-0.2,2.1-0.9,3
		c-0.2,0.2-0.4,0.4-0.7,0.5c-0.6,0.3-1.1,0.1-1.4-0.5c-0.3-0.7-0.4-1.4-0.5-2.2c-0.6-2.6-1.7-4.8-4-6.2c-3-1.9-7.7-1.7-10.4,1.2
		c-1.2,1.3-1.9,2.9-2.1,4.6c-0.4,2.7,0.3,5.2,1.5,7.5c0.2,0.4,0.6,0.8,0.9,1.2C34.2,56.6,34.3,56.6,34.3,56.5z M50.7,43.3
		c0.6-0.5,1.1-1,1.5-1.7c0.9-1.4,1.2-2.9,1.1-4.5c-0.1-2.4-0.8-4.5-2.4-6.3c-1.4-1.6-3.2-2.7-5.2-3.4c-1.8-0.7-3.8-1-5.8-1.1
		c-0.1,0-0.3-0.1-0.4-0.2c-1-1.5-2.4-2.6-4.1-3.2c-1-0.3-1.9-0.4-3-0.2c1.1,1.2,1.9,2.5,2.4,4.1c-3.3,0.9-6,2.7-8,5.4
		c-2.1,2.7-3.1,5.8-3.1,9.2c-0.1,5.6,2.4,10,5.2,12.1c0-0.1-0.1-0.2-0.1-0.3c-0.8-2.2-0.9-4.6-0.4-6.8c0.7-3.4,2.5-6.2,5.8-7.8
		c4.9-2.5,10.9-1.4,14.7,2.7C49.5,41.8,50,42.6,50.7,43.3z"/>
	<path d="M96.5,39.5c-2,0-3.9,0-5.9,0c0-0.2,0-0.5,0-0.7c0-0.1,0-0.2,0.1-0.2c0.5-0.2,0.7-0.7,0.7-1.2c0.2-2.6,0.4-5.2,0.5-7.9
		c0.1-1.9,0.2-3.8,0.3-5.7c0-0.4,0-0.8,0-1.2c-0.1-0.4-0.2-0.8-0.7-1.1c-0.1,0-0.1-0.1-0.1-0.2c0-0.2,0-0.4,0-0.7c0.2,0,0.3,0,0.4,0
		c2,0,4,0,6.1,0c0.3,0,0.4,0.1,0.5,0.3c0.8,2.3,1.5,4.7,2.3,7c0,0.1,0.1,0.2,0.1,0.3c0,0,0.1,0,0.1,0c0.7,0,0.7,0,0.9-0.7
		c0.7-2.2,1.5-4.5,2.2-6.7c0-0.1,0.1-0.2,0.1-0.3c2.2,0,4.5,0,6.8,0c0,0.2,0,0.5,0,0.7c0,0.1-0.1,0.1-0.1,0.2
		c-0.6,0.3-0.7,0.8-0.7,1.3c0,1,0,2.1,0.1,3.1c0.2,2.6,0.3,5.1,0.5,7.7c0.1,1.3,0.2,2.5,0.3,3.8c0,0.5,0.2,0.9,0.7,1.2
		c0.1,0.1,0.1,0.4,0.1,0.6c0,0.1,0,0.1,0,0.2c-2,0-3.9,0-5.9,0c0-0.2,0-0.5,0-0.7c0-0.1,0.1-0.2,0.1-0.2c0.6-0.3,0.7-0.8,0.7-1.4
		c0-0.7-0.1-1.4-0.2-2c-0.2-2.2-0.4-4.4-0.7-6.6c0-0.1,0-0.1,0-0.2c-0.1,0-0.1,0-0.2,0c-0.7,0-0.7,0-0.8,0.6
		c-0.8,3.4-1.5,6.8-2.3,10.1c0,0.1-0.1,0.2-0.1,0.3c-0.8,0-1.6,0-2.4,0c-0.1,0-0.2-0.2-0.2-0.3c-0.4-1.9-0.9-3.8-1.3-5.7
		c-0.4-1.7-0.8-3.3-1.1-5c0,0-0.1,0-0.1,0c-0.7-0.1-0.7-0.1-0.8,0.7c-0.3,2.6-0.5,5.2-0.8,7.8c0,0.4,0.1,0.7,0.1,1.1
		c0,0.2,0.2,0.4,0.3,0.5C96.7,38.7,96.5,39.1,96.5,39.5z"/>
	<path d="M94.8,42.1c0.1,0,0.3,0,0.4,0c2.3,0,4.6,0,6.8,0c0.3,0,0.4,0.1,0.5,0.4c1.6,3.9,3.1,7.9,4.7,11.8c0,0.1,0.1,0.2,0.2,0.5
		c0-0.2,0-0.3,0-0.4c0-3.2,0-6.4,0-9.6c0-0.4-0.1-0.8-0.2-1.2c0-0.1-0.1-0.3-0.2-0.3c-0.5-0.2-0.4-0.6-0.4-1.1c2,0,4,0,6,0
		c0,0.2,0,0.4,0,0.7c0,0.1-0.1,0.2-0.1,0.2c-0.5,0.2-0.6,0.6-0.7,1.1c-0.1,0.3-0.1,0.6-0.1,0.9c0,4.4,0,8.7,0,13.1
		c0,0.4,0,0.8,0.2,1.2c0.1,0.3,0.4,0.5,0.5,0.7c0.1,0.1,0.2,0.2,0.2,0.3c0,0.2,0,0.4,0,0.6c-0.2,0-0.3,0-0.4,0c-1.8,0-3.6,0-5.3,0
		c-0.7,0-0.8-0.1-1.1-0.7c-1.9-4.4-3.8-8.8-5.6-13.2c0-0.1-0.1-0.2-0.2-0.4c0,0.2,0,0.3,0,0.4c0,3.8,0,7.6,0,11.4
		c0,0.4,0.1,0.8,0.2,1.2c0,0.1,0.1,0.2,0.2,0.3c0.5,0.2,0.4,0.6,0.4,1c-2,0-3.9,0-5.9,0c0-0.2,0-0.4,0-0.6c0-0.1,0.1-0.2,0.1-0.2
		c0.4-0.2,0.6-0.6,0.6-1c0.1-0.3,0.1-0.6,0.1-0.9c0-4.4,0-8.9,0-13.3c0-0.4-0.1-0.8-0.1-1.1c0-0.2-0.2-0.5-0.3-0.5
		C94.7,42.9,94.8,42.6,94.8,42.1z"/>
	<path d="M65.2,38.6c0.4-1.3,0.9-2.7,1.3-4.1c0.1-0.2,0.1-0.3,0.2-0.5c0.2-0.6,0.2-0.6,0.8-0.5c0.1,0,0.2,0.1,0.3,0.2
		c1,1.6,2.5,2.5,4.3,3c1.1,0.3,2.1,0.4,3.2,0.2c0.9-0.2,1.6-0.7,1.7-1.4c0.1-0.8-0.2-1.5-0.8-2.1c-0.8-0.7-1.8-1-2.8-1.4
		c-1.4-0.5-2.7-0.9-4-1.5c-2.6-1.3-3.7-4.1-2.7-6.7c0.6-1.6,1.8-2.6,3.3-3.2c2.3-0.9,4.7-0.9,7-0.1c0.9,0.3,1.7,0.6,2.5,0.9
		c0.4,0.1,0.8,0.2,1.2,0.3c0,0.1-0.1,0.2-0.1,0.4c-0.5,1.5-1,2.9-1.5,4.4c-0.1,0.2-0.1,0.3-0.3,0.3c-0.2-0.1-0.6,0.2-0.7-0.3
		c-1-2.9-4.2-3.4-6.1-2.8c-1.1,0.3-1.6,1.2-1.3,2.2c0.1,0.6,0.5,1,1,1.2c0.9,0.4,1.8,0.7,2.7,1.1c1.3,0.5,2.6,0.8,3.9,1.4
		c2.4,1.1,3,2.7,3,5.2c0,0.8-0.1,1.6-0.4,2.3c-0.6,1.9-2,2.8-3.9,3.2c-2.6,0.5-5.1,0.2-7.6-0.6c-0.7-0.2-1.3-0.6-2-0.7
		C66.7,38.7,66,38.7,65.2,38.6z"/>
	<path d="M114.3,60.9c0-0.3,0-0.5,0-0.7c0-0.1,0-0.2,0.1-0.2c0.6-0.2,0.7-0.7,0.7-1.3c0-0.2,0-0.4,0-0.7c0-4.4,0-8.8,0-13.2
		c0-0.4-0.1-0.8-0.1-1.2c0-0.2-0.2-0.5-0.3-0.6c-0.5-0.2-0.4-0.6-0.4-1c0.1,0,0.2,0,0.2,0c2.2,0,4.5,0,6.7,0.1
		c1.3,0,2.5,0.3,3.7,0.8c2.4,1,4,2.7,4.7,5.2c0.6,2.2,0.5,4.4-0.1,6.5c-0.9,3.3-3.2,5.2-6.4,5.9c-0.9,0.2-1.8,0.3-2.7,0.3
		C118.4,60.9,116.4,60.9,114.3,60.9z M119.4,57.5c0.7,0,1.4,0,2.1-0.1c2-0.3,3.5-1.3,4.2-3.3c0.7-1.9,0.7-3.8,0.1-5.8
		c-0.3-1.2-1.1-2-2.3-2.4c-0.6-0.2-1.1-0.3-1.7-0.3c-0.8-0.1-1.5,0-2.3,0C119.4,49.5,119.4,53.5,119.4,57.5z"/>
	<path d="M129.6,39.5c-2.1,0-4,0-6,0c0-0.4-0.1-0.8,0.3-1.1c0.6-0.5,0.6-1.1,0.3-1.8c-0.2-0.4-0.4-1-0.7-1.2
		c-0.3-0.2-0.9-0.1-1.4-0.1c-0.8,0-1.6,0-2.5,0c-0.2,0-0.3,0.1-0.4,0.3c-0.2,0.4-0.4,0.7-0.5,1.1c-0.3,0.6-0.3,1.3,0.3,1.7
		c0.4,0.3,0.4,0.7,0.4,1.2c-2,0-3.9,0-5.9,0c0-0.4-0.1-0.8,0.2-1.2c0.6-0.8,0.8-1.9,1-2.8c1.2-4.2,2.5-8.5,3.7-12.7
		c0.1-0.2,0.1-0.5,0.1-0.7c0-0.4,0-0.8,0-1.3c2,0,3.9,0,5.9,0c0,0.2,0,0.4,0,0.5c-0.1,0.8,0.1,1.5,0.3,2.2c1.3,4.4,2.6,8.9,3.9,13.3
		c0.2,0.6,0.5,1.1,0.7,1.7C129.5,38.8,129.5,39.2,129.6,39.5z M119.4,31.8c1.5,0,2.9,0,4.3,0c0-0.4,0-0.7-0.1-1
		c-0.5-1.8-1-3.6-1.5-5.5c-0.1-0.3-0.3-0.3-0.5-0.3s-0.4,0-0.5,0.3c-0.5,1.8-1,3.6-1.5,5.4C119.4,31.1,119.4,31.4,119.4,31.8z"/>
	<path d="M77.9,60.9c0-0.2,0-0.4,0-0.6c0-0.1,0.1-0.2,0.1-0.2c0.4-0.2,0.6-0.6,0.7-1c0.3-1.1,0.5-2.2,0.8-3.4
		c1.1-3.9,2.2-7.7,3.4-11.6c0.1-0.2,0.1-0.4,0.1-0.6c0-0.5,0-0.9,0-1.4c2,0,3.9,0,5.9,0c0,0,0,0.1,0,0.1c-0.2,1.4,0.4,2.8,0.7,4.1
		c1.1,3.9,2.3,7.8,3.4,11.7c0.1,0.3,0.1,0.6,0.1,0.9c0.1,0.5,0.2,0.9,0.7,1.1c0.1,0,0.1,0.1,0.1,0.2c0,0.2,0,0.4,0,0.7
		c-2,0-3.9,0-5.9,0c0-0.4-0.1-0.8,0.4-1.2c0.6-0.4,0.6-1.1,0.3-1.8c-0.2-0.4-0.3-1-0.7-1.2c-0.4-0.2-1-0.1-1.5-0.1
		c-0.8,0-1.6,0-2.4,0c-0.2,0-0.3,0.1-0.4,0.3c-0.2,0.4-0.4,0.7-0.5,1.1c-0.3,0.6-0.2,1.3,0.3,1.8c0.4,0.3,0.3,0.7,0.3,1.1
		C81.8,60.9,79.9,60.9,77.9,60.9z M88.1,53.2c0-0.4,0-0.8-0.1-1.1c-0.5-1.7-0.9-3.3-1.4-5c-0.2-0.7-0.2-0.7-1-0.7c0,0,0,0.1-0.1,0.1
		c-0.5,1.9-1.1,3.8-1.6,5.7c-0.1,0.3,0,0.6-0.1,0.9C85.3,53.2,86.6,53.2,88.1,53.2z"/>
	<path d="M65.2,42.1c2,0,4,0,6,0c0,0.2,0,0.5,0,0.7c0,0.1-0.1,0.2-0.2,0.2c-0.4,0.2-0.6,0.6-0.6,0.9c-0.1,0.3-0.1,0.5-0.1,0.8
		c0,4.1,0,8.2,0,12.3c0,0.1,0,0.2,0,0.4c0.8,0,1.6,0,2.4,0c0.5,0,1,0,1.5-0.1c0.7-0.1,1.3-0.5,1.7-1.1c0.3-0.5,0.7-0.6,1.2-0.5
		c-0.1,0.3-0.2,0.5-0.3,0.8c-0.4,1.3-0.9,2.7-1.3,4c-0.1,0.2-0.1,0.3-0.3,0.3c-3.3,0-6.6,0-9.8,0c0,0-0.1,0-0.1,0c0-0.2,0-0.5,0-0.7
		c0-0.1,0.1-0.2,0.1-0.2c0.5-0.2,0.6-0.7,0.7-1.2c0-0.2,0-0.5,0-0.7c0-4.4,0-8.8,0-13.2c0-0.4,0-0.8-0.1-1.1
		c-0.1-0.3-0.3-0.6-0.6-0.7c-0.2-0.2-0.1-0.4-0.2-0.5C65.2,42.4,65.2,42.2,65.2,42.1z"/>
	<path d="M88.9,39.5c-2,0-3.9,0-5.9,0c0-0.2,0-0.5,0-0.7c0-0.1,0.1-0.2,0.1-0.2c0.5-0.2,0.6-0.7,0.7-1.2c0-0.2,0-0.3,0-0.5
		c0-4.6,0-9.1,0-13.7c0-0.3,0-0.6-0.1-0.9c-0.1-0.4-0.3-0.7-0.7-0.8c0-0.3,0-0.5,0-0.8c2,0,3.9,0,5.9,0c0,0.2,0,0.5,0,0.7
		c0,0.1,0,0.2-0.1,0.2c-0.7,0.3-0.7,1-0.8,1.6c0,1.4,0,2.7,0,4.1c0,3.2,0,6.5,0,9.7c0,0.4,0.1,0.8,0.2,1.2c0,0.1,0.1,0.3,0.2,0.3
		C89,38.7,88.9,39.1,88.9,39.5z"/>
</g>
</svg>
