<?xml version="1.0" encoding="utf-8"?>
<!-- Generator: Adobe Illustrator 24.0.0, SVG Export Plug-In . SVG Version: 6.00 Build 0)  -->
<svg version="1.1" id="Слой_1" xmlns="http://www.w3.org/2000/svg" xmlns:xlink="http://www.w3.org/1999/xlink" x="0px" y="0px"
	 viewBox="0 0 1500 600" style="enable-background:new 0 0 1500 600;" xml:space="preserve">
<style type="text/css">
	.st0{fill:#E41E25;}
</style>
<g>
	<g>
		<path class="st0" d="M1007.6,506.8c-15.7,0-31.4,0-47.1,0c-1.8,0-3.3-0.1-4.5,2c-12,21.3-31.1,33-54.2,39
			c-11.3,2.9-22.9,3.1-34.5,2.9c-2.8-0.1-4.4,0.7-5.8,3.2c-7.4,12.5-18.7,20.7-31.4,27c-26.2,12.9-54.2,16.8-83.1,15.4
			c-22.5-1.1-44.1-5.8-64.1-16.4c-12.4-6.5-23.1-15-30.4-27.3c-0.6-1-2.5-1.7-3.8-1.8c-9.9-0.7-19.9-0.3-29.6-2
			c-23.1-4.1-42.5-14.7-56.3-34.3c-0.4-0.6-1-1.2-1.3-2c-1.7-4.9-5.1-5.8-10-5.8c-29.5,0.3-59,0.1-88.5,0.1c-1.2,0-2.4,0-3.7,0
			c-5.5-0.2-9.1-3.9-9.2-9.4c-0.1-8.7-0.2-17.4,0-26c0.1-2.9-0.9-4.2-3.6-5.3c-25.1-9.6-47.8-23.1-67.5-41.5
			c-21.3-20-37.5-43.4-44.3-72c-11.9-50.4-0.8-95.5,34.1-134.1c21.5-23.7,47.8-40.3,77.5-51.8c2.9-1.1,3.8-2.5,3.7-5.5
			c-0.2-18.5,0.2-36.9-0.2-55.4C450,96,454.8,93,462.8,93.2c18.1,0.3,36.3,0.1,54.4,0.1c2.4,0,4.2-0.7,6-2.1
			c21.5-16.9,46.3-24.7,73.4-25.5c4.6-0.1,7.5-1.3,10.3-5.3c10-14.1,23.7-24,38.8-31.9c25-13.1,51.8-20.1,79.6-23.1
			c36.3-4,72.2-1.7,107.4,8.5c22.3,6.4,43.4,15.6,61.1,31c6.1,5.3,11.1,11.8,16.3,17.9c1.6,1.9,3,2.8,5.5,2.8
			c23.7,0.2,45.8,6.1,65.9,18.8c3.2,2,6.3,4.2,9.2,6.7c2.1,1.8,4.3,2.4,7,2.4c18.6-0.1,37.2-0.1,55.8,0c7.9,0,11.1,3.2,11.1,11.2
			c0,18.2,0,36.5,0,54.7c0,7.2-1,5.4,5.4,8c28.1,11.3,53.3,27.1,74.1,49.3c20.3,21.7,34.2,46.9,38.6,76.6
			c6.8,46.5-5.6,87.2-37.5,121.9c-21.5,23.4-47.7,39.8-77.2,51.2c-2.6,1-3.6,2.2-3.5,5c0.2,8.6,0.1,17.1,0.1,25.7
			c0,6.4-3.5,9.9-9.9,9.9C1039,506.8,1023.3,506.8,1007.6,506.8z M997.3,488.7c15.1,0,30.3-0.1,45.4,0.1c3.1,0,4-1,3.9-4
			c-0.2-7-0.1-14-0.1-21c0-7.5,1.6-9.7,8.7-12.2c33.3-12,62.4-30.1,84.5-58.3c23.4-29.8,30.8-63.6,24.5-100.5
			c-4.4-25.6-17.1-47-35-65.5c-21-21.7-46.4-36.4-74.7-46.5c-6.4-2.3-8.1-4.6-8.1-11.3c0-18,0-36,0-54.1c0-4,0-4-4.1-4
			c-16.8,0-33.6-0.1-50.4,0c-3.8,0-6.8-1.2-9.6-3.8c-6.3-5.9-13.6-10.4-21.4-14c-16.6-7.7-34.1-10.6-52.3-10
			c-5,0.2-8.4-1.8-10.7-6.3c-3.5-6.8-8.5-12.5-14.2-17.5c-16.5-14.5-36.1-23-57-28.9c-33.8-9.6-68.1-11.5-102.9-7.2
			c-24.1,3-47.4,9.1-69.1,20.4c-15.8,8.3-29.8,18.6-38.5,34.8c-1.7,3.1-4.5,4.5-8,4.6c-3.2,0-6.5,0-9.7,0
			c-24.9,0.8-47.6,7.6-66.8,24c-3.2,2.7-6.5,3.9-10.6,3.9c-16.5-0.1-32.9,0-49.4-0.1c-3,0-3.8,0.9-3.7,3.8c0.1,17,0.1,34,0,51.1
			c0,11.2-0.6,11.8-11.2,15.8c-28.2,10.4-53.3,25.5-73.8,47.8c-30.9,33.5-41.3,72.8-31.1,117.1c6.8,29.4,24.3,52.3,47.2,71.4
			c18,14.9,38.3,25.8,60.3,33.5c7.2,2.5,8.6,4.5,8.6,12.2c0,6.1,0,12.2,0,18.4c0.1,7.5-1,6.5,6.6,6.5c29.3,0.1,58.5,0,87.8,0
			c6.2,0,8.2,1.5,10.7,7.1c1.5,3.2,3.1,6.5,5.2,9.3c11.9,16.1,28.6,24,48,26.4c9.7,1.2,19.5,0.7,29.3,0.9c6.1,0.1,8.1,1.8,10.8,7.1
			c1.9,3.9,4.3,7.9,7.2,11.1c9.9,10.8,22.9,16.7,36.6,21c25.8,7.9,52.1,8.8,78.6,3.9c15.2-2.8,29.7-7.7,42.6-16.5
			c7.2-4.9,13.4-10.7,16.6-19.1c2.1-5.6,4.6-7.4,10.5-7.4c6.2-0.1,12.5,0,18.7,0c10.9,0,21.5-1.9,31.6-6.1
			c14.8-6.2,26.8-15.4,33.2-30.6c2.1-5,5.4-7.1,10.8-7.1C967.7,488.8,982.5,488.7,997.3,488.7z"/>
		<path class="st0" d="M806.3,237.2c1.3,0,2.6,0,3.8,0c100.5,0,201,0,301.5,0c0.2,0,0.4,0,0.7,0c4.8,0,6.5,2.4,4.9,7
			c-0.2,0.6-1.2,1.2-1.9,1.3c-2,0.2-4,0.1-6,0.1c-104.3,0-208.6,0-312.9,0c-5.9,0-11.8,0-17.7,0c-1.1,0-2.1-0.1-4.1-0.2
			c1.8-1.3,2.9-2.2,4.1-3c23.6-16.6,47.3-32.9,72.3-47.3c3.4-2,3.5-2.1,1.4-5.5c-12.4-20.7-24.7-41.4-37.4-61.9
			c-5.4-8.8-11.8-17-17.6-25.5c-1.2-1.8-2.3-1.3-3.6-0.4c-7.8,5.5-15.9,10.6-23.3,16.7c-10.5,8.7-20.7,17.9-30.6,27.3
			c-7.2,6.8-15.3,12.1-24.3,16.2c-8.6,4.1-8.8,4.3-4.3,12.6c9.8,18.2,19.8,36.3,29.8,54.4c0.2,0.4,0.5,0.7,1,1.3
			c20.2-15.8,38.6-34.1,62-45c-7.6-16.3-15.1-32.5-22.8-49c-0.8,0.7-1.7,1.5-2.6,2.3c-6.8,6.5-13.8,13-20.4,19.7
			c-4.3,4.3-8.1,9.1-12.1,13.8c-0.5,0.6-0.7,2-0.4,2.6c3.4,6.8,6.9,13.4,10.6,20.6c4.3-3.9,8.3-7.6,12.2-11.3
			c0.4-0.4,0.3-1.7,0.1-2.4c-0.5-1.5-1.3-3-1.9-4.5c0.2-0.1,0.4-0.2,0.7-0.4c1.1,1.7,2.4,3.4,3.2,5.2c0.4,0.8,0.2,2.3-0.3,2.9
			c-3.9,4.4-8,8.7-12,12.9c-1.6,1.7-3.1,1.8-4.5-0.5c-4.2-7.4-8.5-14.9-12.9-22.2c-1.3-2.2-0.6-3.9,0.7-5.5
			c4.6-5.6,9-11.3,13.9-16.6c7.1-7.7,14.4-15.1,21.6-22.7c5.3-5.6,7-5.5,10,1.6c7.5,17.9,16.3,35.1,25.8,52c0.1,0.2,0.2,0.4,0.3,0.6
			c3,6,2.7,6.9-3.8,8.7c-7.3,2-13.4,6.1-19.1,10.7c-12.5,10.1-24.7,20.7-37.1,31c-3.5,2.9-7.1,5.7-11,7.9c-3.4,1.9-5.1,0.8-7-2.5
			c-8.9-16.1-17.8-32.1-26.7-48.1c-3.5-6.3-7.1-12.6-10.5-19c-1.1-1.9-2-4-2.6-6.1c-1.5-4.8-0.9-7.2,3.4-10
			c4.1-2.7,8.4-5.1,12.8-7.2c7.5-3.6,14.1-8.4,20-14.3c15.4-15.4,31.2-30.4,49.4-42.8c4-2.7,8.3-5.2,12.7-7.2
			c5.1-2.4,7.9-1.2,11,3.5c21.3,31.8,41.3,64.4,59.7,97.9c0.2,0.3,0.3,0.6,0.5,0.9c4.3,8.1,3.9,10.3-3.9,15.1
			c-13.5,8.2-27.2,16-40.8,24.1c-4,2.4-7.9,5-11.8,7.5c-0.8,0.5-1.5,1.2-2.2,1.7C806.2,236.7,806.3,236.9,806.3,237.2z"/>
		<path class="st0" d="M714.3,101.3c-4.7-3.5-9.5-6.4-13.4-10.3c-8.7-8.6-12.6-19-8.9-31.3c1.6-5.4,4.7-9.8,8.9-13.4
			c7.1-6,16.1-6,24-0.2c9.3,6.9,13.1,17.7,10.2,29c-0.6,2.1-1.3,4.3-2,6.3c-2.3,6.2-4.7,12.4-7.2,19c-0.5-1-1.7-2-1.7-3.2
			c-0.1-3.6,0-7.3,0.4-10.9c0.6-4.9,1.9-9.8,2.4-14.8c0.5-5.4-1.6-10-5.7-13.6c-4.1-3.6-8.3-3.8-12.7-0.4c-7.3,5.7-9.6,15.5-5,23.7
			c1.7,3.1,4,5.9,6.4,8.5c3,3.2,6.3,6,9.5,8.9c2.3,2.1,2.3,2.1,2.5,5.3c-3.3,0.5-6.5,1.1-10.4,1.7c1.4,1.2,2.3,1.9,3.5,2.9
			c-0.6,0.2-1,0.5-1.3,0.5c-5.6-0.9-9.8,1.9-13.9,5.2c-7.2,5.8-14.3,11.7-21.7,17.2c-7,5.2-14.5,9.6-23.5,10.4
			c-5.8,0.5-11.1-0.8-15.5-4.8c-3.1-2.9-6.2-5.8-8.7-9.1c-5.6-7.4-5.8-14.3-0.6-21.9c6.5-9.5,14.8-17.2,24.9-22.8
			c8.5-4.7,17.4-5,25.8-0.2c6.7,3.8,13,8.6,19.5,12.8C704.3,98.8,708.7,101.3,714.3,101.3z M704.9,105.1c-3.6-1.7-7.5-3.4-11.2-5.2
			c-5.5-2.7-10.8-5.6-16.4-8.2c-5.4-2.5-10.9-2.4-15.9,1c-8.1,5.5-14.9,12.3-20.2,20.5c-1,1.6-1.7,4.1-1.4,6
			c1.3,7.4,10.2,13,17.4,11c4.2-1.2,8.5-2.8,12.3-5C681.5,118.6,693.1,111.8,704.9,105.1z"/>
		<path class="st0" d="M398.2,245.2c-1.3-8-1.3-8.1,6.3-8.1c95.8,0,191.6,0,287.5,0c1.3,0,2.6,0,4.6,0c-0.7-1.6-1.1-2.7-1.6-3.7
			c-8.3-17.4-19.5-32.8-31-48.2c-3.3-4.4-6.6-8.7-9.8-13.1c-2.8-3.9-2.5-4.6,1.7-6.6c16-7.5,31.2-16.2,44-28.6
			c0.3-0.3,0.7-0.5,1.3-0.5c-11.5,14.4-27.3,23.2-42.9,33c19,23.9,38,47.6,50.4,75.8C605.3,245.2,501.7,245.2,398.2,245.2z"/>
		<path class="st0" d="M788.3,46.7c6,1.2,7.9,9.3,5.7,14c-1.8,3.6-4.1,7.1-6.9,10.1c-8.2,8.7-17.7,15.9-28,21.9
			c-10.7,6.2-20.3,13.6-28.1,23.2c-2,2.4-5.2,3.9-7.8,5.7c-0.3-0.3-0.6-0.5-0.8-0.8c0.4-1.1,0.8-2.2,1.2-3.2
			c8.2-19.6,21.9-33.9,40.6-43.9c6.9-3.7,13.5-8.2,20.1-12.4c4.8-3,6.2-7.3,4.5-12.6C788.6,48.1,788.5,47.6,788.3,46.7z"/>
	</g>
	<path class="st0" d="M1114.5,387.8H400.2c-2,0-3.7-1.6-3.7-3.7v-0.6c0-2,1.6-3.7,3.7-3.7h714.2c2,0,3.7,1.6,3.7,3.7v0.6
		C1118.1,386.1,1116.5,387.8,1114.5,387.8z"/>
	<g>
		<path class="st0" d="M505,425.1c0,0.4,0,0.8-0.1,1.2c0,0.3-0.1,0.6-0.2,0.8c-0.1,0.2-0.2,0.4-0.4,0.4c-0.1,0.1-0.3,0.1-0.5,0.1
			h-14.6V461c0,0.2-0.1,0.3-0.1,0.5c-0.1,0.1-0.3,0.2-0.5,0.3c-0.2,0.1-0.6,0.2-1,0.2c-0.4,0-0.9,0.1-1.5,0.1c-0.6,0-1.1,0-1.5-0.1
			c-0.4-0.1-0.7-0.1-1-0.2c-0.2-0.1-0.4-0.2-0.5-0.3c-0.1-0.1-0.1-0.3-0.1-0.5v-36.2c0-0.8,0.2-1.4,0.6-1.8c0.4-0.4,0.9-0.6,1.5-0.6
			h18.9c0.4,0,0.7,0.2,0.9,0.6C504.9,423.5,505,424.2,505,425.1z"/>
		<path class="st0" d="M558.1,461c0,0.2-0.1,0.3-0.2,0.5c-0.1,0.1-0.3,0.2-0.5,0.3c-0.2,0.1-0.6,0.2-1,0.2c-0.4,0-0.9,0.1-1.6,0.1
			c-0.6,0-1.1,0-1.5-0.1c-0.4-0.1-0.7-0.1-1-0.2c-0.2-0.1-0.4-0.2-0.5-0.3c-0.1-0.1-0.1-0.3-0.1-0.5v-23.6c0-0.6,0-1.4,0-2.2
			c0-0.8,0-1.5,0.1-2.1h0c-0.4,0.7-0.8,1.3-1.3,2c-0.4,0.7-0.9,1.4-1.3,2.1l-16.6,23.8c-0.1,0.2-0.3,0.4-0.4,0.5
			c-0.1,0.1-0.3,0.3-0.5,0.4c-0.2,0.1-0.5,0.1-0.8,0.2c-0.3,0-0.7,0.1-1.2,0.1c-0.6,0-1,0-1.4-0.1c-0.3-0.1-0.6-0.1-0.8-0.2
			c-0.2-0.1-0.3-0.2-0.4-0.4c-0.1-0.1-0.1-0.3-0.1-0.5v-37.6c0-0.1,0.1-0.3,0.2-0.4c0.1-0.1,0.3-0.2,0.5-0.3c0.2-0.1,0.6-0.2,1-0.2
			c0.4,0,0.9-0.1,1.5-0.1c0.6,0,1.1,0,1.5,0.1c0.4,0.1,0.7,0.1,1,0.2c0.2,0.1,0.4,0.2,0.5,0.3c0.1,0.1,0.1,0.3,0.1,0.4v23.8
			c0,0.7,0,1.5,0,2.2c0,0.7-0.1,1.4-0.1,2.1h0.1c0.4-0.7,0.8-1.4,1.2-2.1c0.4-0.7,0.9-1.3,1.3-2l16.7-24.1c0.1-0.2,0.3-0.4,0.4-0.5
			c0.1-0.1,0.3-0.2,0.5-0.3c0.2-0.1,0.5-0.1,0.8-0.2c0.3,0,0.7-0.1,1.2-0.1c0.5,0,1,0,1.4,0.1c0.4,0.1,0.6,0.1,0.9,0.2
			c0.2,0.1,0.4,0.2,0.4,0.3c0.1,0.1,0.1,0.3,0.1,0.4V461z"/>
		<path class="st0" d="M614.8,461c0,0.2-0.1,0.3-0.2,0.5c-0.1,0.1-0.3,0.2-0.5,0.3c-0.2,0.1-0.5,0.2-1,0.2c-0.4,0-0.9,0.1-1.5,0.1
			c-0.7,0-1.2,0-1.6-0.1c-0.4-0.1-0.7-0.1-1-0.2c-0.2-0.1-0.4-0.2-0.5-0.3c-0.1-0.1-0.1-0.3-0.1-0.5v-33.3H591V461
			c0,0.2-0.1,0.3-0.1,0.5c-0.1,0.1-0.3,0.2-0.5,0.3c-0.2,0.1-0.6,0.2-1,0.2c-0.4,0-0.9,0.1-1.5,0.1c-0.6,0-1.1,0-1.5-0.1
			c-0.4-0.1-0.7-0.1-1-0.2c-0.2-0.1-0.4-0.2-0.5-0.3c-0.1-0.1-0.1-0.3-0.1-0.5v-36.2c0-0.8,0.2-1.4,0.6-1.8c0.4-0.4,0.9-0.6,1.5-0.6
			h26c0.6,0,1.1,0.2,1.5,0.6c0.4,0.4,0.6,1,0.6,1.8V461z"/>
		<path class="st0" d="M664.4,459.3c0,0.4,0,0.8-0.1,1.2c-0.1,0.3-0.1,0.6-0.2,0.8c-0.1,0.2-0.2,0.4-0.3,0.4
			c-0.1,0.1-0.3,0.1-0.4,0.1h-20c-0.5,0-1-0.2-1.4-0.5c-0.4-0.4-0.7-1-0.7-1.8v-34.8c0-0.8,0.2-1.4,0.7-1.8c0.4-0.4,0.9-0.5,1.4-0.5
			h19.8c0.2,0,0.3,0,0.5,0.1c0.1,0.1,0.2,0.2,0.3,0.4c0.1,0.2,0.2,0.5,0.2,0.8c0,0.3,0.1,0.7,0.1,1.2s0,0.8-0.1,1.1
			c-0.1,0.3-0.1,0.6-0.2,0.7c-0.1,0.2-0.2,0.3-0.3,0.4c-0.1,0.1-0.3,0.1-0.5,0.1h-15.5v11.5H661c0.2,0,0.3,0,0.5,0.1
			c0.1,0.1,0.3,0.2,0.4,0.4c0.1,0.2,0.2,0.5,0.2,0.8c0,0.3,0.1,0.7,0.1,1.2c0,0.4,0,0.8-0.1,1.1c0,0.3-0.1,0.6-0.2,0.8
			c-0.1,0.2-0.2,0.3-0.4,0.4c-0.1,0.1-0.3,0.1-0.5,0.1h-13.4v12.9h15.8c0.1,0,0.3,0,0.4,0.1c0.1,0.1,0.2,0.2,0.3,0.4
			c0.1,0.2,0.2,0.5,0.2,0.8C664.4,458.5,664.4,458.8,664.4,459.3z"/>
		<path class="st0" d="M715.8,434.2c0,2.1-0.3,3.9-1,5.5c-0.6,1.6-1.6,3-2.8,4.1c-1.2,1.1-2.7,2-4.5,2.6c-1.8,0.6-3.9,0.9-6.4,0.9
			h-5.5V461c0,0.2-0.1,0.3-0.1,0.5c-0.1,0.1-0.3,0.2-0.5,0.3c-0.2,0.1-0.6,0.2-1,0.2c-0.4,0-0.9,0.1-1.5,0.1c-0.6,0-1.1,0-1.5-0.1
			c-0.4-0.1-0.7-0.1-1-0.2c-0.2-0.1-0.4-0.2-0.5-0.3c-0.1-0.1-0.1-0.3-0.1-0.5v-36.1c0-0.8,0.2-1.5,0.7-1.9c0.5-0.4,1-0.6,1.6-0.6
			h10c0.9,0,1.7,0,2.6,0.1c0.8,0.1,1.7,0.2,2.5,0.4c1.4,0.3,2.7,0.8,3.9,1.4c1.1,0.6,2.1,1.4,2.9,2.4c0.8,1,1.4,2.1,1.8,3.3
			C715.6,431.3,715.8,432.7,715.8,434.2z M709.1,434.7c0-1.8-0.4-3.3-1.2-4.5c-0.8-1.2-2-2-3.5-2.5c-0.5-0.1-1.1-0.2-1.7-0.3
			c-0.6-0.1-1.2-0.1-1.7-0.1h-5.4v15h5.9c1.5,0,2.7-0.2,3.6-0.6s1.7-0.9,2.3-1.6c0.6-0.7,1.1-1.5,1.4-2.4
			C709,436.8,709.1,435.8,709.1,434.7z"/>
		<path class="st0" d="M785.2,461c0,0.2,0,0.3-0.1,0.5c-0.1,0.1-0.2,0.2-0.5,0.3c-0.2,0.1-0.6,0.2-1,0.2c-0.4,0-0.9,0.1-1.5,0.1
			c-0.6,0-1.1,0-1.5-0.1c-0.4-0.1-0.7-0.1-0.9-0.2c-0.2-0.1-0.4-0.2-0.5-0.3c-0.1-0.1-0.1-0.3-0.1-0.5v-33.1H779l-13.9,33.3
			c-0.1,0.3-0.4,0.5-0.8,0.7c-0.4,0.1-1.2,0.2-2.1,0.2c-0.5,0-1,0-1.3-0.1c-0.3,0-0.6-0.1-0.9-0.2c-0.2-0.1-0.4-0.2-0.5-0.3
			c-0.1-0.1-0.2-0.2-0.3-0.4l-13.4-33.3h-0.1V461c0,0.2,0,0.3-0.1,0.5c-0.1,0.1-0.2,0.2-0.5,0.3c-0.2,0.1-0.5,0.2-0.9,0.2
			c-0.4,0-0.9,0.1-1.5,0.1c-0.6,0-1.1,0-1.5-0.1c-0.4-0.1-0.7-0.1-0.9-0.2c-0.2-0.1-0.4-0.2-0.5-0.3c-0.1-0.1-0.1-0.3-0.1-0.5v-36.1
			c0-0.8,0.2-1.5,0.7-1.9c0.5-0.4,1-0.6,1.6-0.6h4c0.8,0,1.4,0.1,2,0.2c0.5,0.1,1,0.4,1.4,0.7c0.4,0.3,0.8,0.7,1.1,1.2
			c0.3,0.5,0.6,1.1,0.8,1.8l11.1,26.7h0.1l11.4-26.6c0.3-0.7,0.6-1.4,0.9-1.9c0.3-0.5,0.7-0.9,1.1-1.3c0.4-0.3,0.9-0.6,1.4-0.7
			c0.5-0.1,1.1-0.2,1.8-0.2h3.8c0.6,0,1.2,0.2,1.6,0.6c0.4,0.4,0.7,1,0.7,1.9V461z"/>
		<path class="st0" d="M842.5,459.6c0.2,0.5,0.3,1,0.3,1.3c0,0.3,0,0.6-0.2,0.7c-0.2,0.2-0.5,0.3-1,0.3c-0.5,0-1.1,0.1-1.9,0.1
			s-1.5,0-1.9-0.1c-0.5,0-0.8-0.1-1.1-0.2c-0.2-0.1-0.4-0.2-0.5-0.3c-0.1-0.1-0.2-0.3-0.3-0.6l-3.2-8.8h-16.7l-3.1,8.8
			c-0.1,0.2-0.2,0.4-0.3,0.6c-0.1,0.1-0.3,0.3-0.5,0.4c-0.2,0.1-0.6,0.2-1,0.2c-0.4,0-1,0.1-1.7,0.1c-0.7,0-1.3,0-1.7-0.1
			c-0.4-0.1-0.7-0.2-0.9-0.4c-0.2-0.2-0.2-0.4-0.2-0.8c0-0.3,0.1-0.8,0.3-1.3l13.5-36c0.1-0.3,0.2-0.5,0.4-0.7
			c0.1-0.2,0.4-0.3,0.7-0.4c0.3-0.1,0.7-0.1,1.2-0.2c0.5,0,1.1-0.1,1.8-0.1c0.6,0,1.1,0,1.6,0c0.4,0,0.8,0,1.1,0.1
			c0.3,0,0.6,0.1,0.8,0.1c0.2,0.1,0.4,0.1,0.5,0.2c0.1,0.1,0.3,0.2,0.4,0.4c0.1,0.1,0.2,0.3,0.3,0.5L842.5,459.6z M824.2,428.4
			L824.2,428.4l-6.6,18.7H831L824.2,428.4z"/>
		<path class="st0" d="M890.5,434.2c0,2.1-0.3,3.9-1,5.5c-0.6,1.6-1.6,3-2.8,4.1c-1.2,1.1-2.7,2-4.5,2.6c-1.8,0.6-3.9,0.9-6.4,0.9
			h-5.5V461c0,0.2-0.1,0.3-0.1,0.5c-0.1,0.1-0.3,0.2-0.5,0.3c-0.2,0.1-0.6,0.2-1,0.2c-0.4,0-0.9,0.1-1.5,0.1c-0.6,0-1.1,0-1.5-0.1
			c-0.4-0.1-0.7-0.1-1-0.2c-0.2-0.1-0.4-0.2-0.5-0.3c-0.1-0.1-0.1-0.3-0.1-0.5v-36.1c0-0.8,0.2-1.5,0.7-1.9c0.5-0.4,1-0.6,1.6-0.6
			h10c0.9,0,1.7,0,2.6,0.1c0.8,0.1,1.7,0.2,2.5,0.4c1.4,0.3,2.7,0.8,3.9,1.4c1.1,0.6,2.1,1.4,2.9,2.4c0.8,1,1.4,2.1,1.8,3.3
			C890.3,431.3,890.5,432.7,890.5,434.2z M883.9,434.7c0-1.8-0.4-3.3-1.2-4.5c-0.8-1.2-2-2-3.5-2.5c-0.5-0.1-1.1-0.2-1.7-0.3
			c-0.6-0.1-1.1-0.1-1.7-0.1h-5.4v15h5.9c1.5,0,2.7-0.2,3.6-0.6s1.7-0.9,2.3-1.6c0.6-0.7,1.1-1.5,1.4-2.4
			C883.7,436.8,883.9,435.8,883.9,434.7z"/>
		<path class="st0" d="M942.1,461c0,0.2-0.1,0.3-0.2,0.4c-0.1,0.1-0.3,0.2-0.5,0.3c-0.2,0.1-0.6,0.2-1,0.2c-0.4,0-0.9,0.1-1.5,0.1
			c-0.7,0-1.3,0-1.7-0.1c-0.5-0.1-0.8-0.1-1.1-0.2c-0.3-0.1-0.5-0.2-0.6-0.4c-0.1-0.2-0.2-0.3-0.3-0.5l-3.7-9.6
			c-0.5-1.3-1-2.4-1.5-3.3s-1.1-1.6-1.7-2.2c-0.6-0.6-1.4-1-2.2-1.3c-0.8-0.3-1.8-0.4-2.9-0.4h-2.3V461c0,0.1-0.1,0.3-0.2,0.4
			c-0.1,0.1-0.3,0.2-0.6,0.3c-0.3,0.1-0.6,0.2-1,0.2c-0.4,0.1-0.9,0.1-1.4,0.1c-0.5,0-1,0-1.4-0.1c-0.4-0.1-0.7-0.1-1-0.2
			c-0.2-0.1-0.4-0.2-0.6-0.3c-0.1-0.1-0.2-0.3-0.2-0.4v-37.7c0-0.1,0.1-0.3,0.2-0.4c0.1-0.1,0.3-0.2,0.6-0.3c0.2-0.1,0.6-0.2,1-0.2
			c0.4-0.1,0.9-0.1,1.4-0.1c0.5,0,1,0,1.4,0.1c0.4,0.1,0.7,0.1,1,0.2c0.3,0.1,0.5,0.2,0.6,0.3c0.1,0.1,0.2,0.3,0.2,0.4V439h2.3
			c1,0,1.9-0.1,2.7-0.4c0.8-0.3,1.5-0.7,2.1-1.2c0.6-0.5,1.2-1.3,1.7-2.1c0.5-0.9,1-1.9,1.4-3.2l3.1-8.6c0.1-0.2,0.2-0.4,0.3-0.6
			c0.1-0.2,0.3-0.3,0.5-0.4c0.2-0.1,0.6-0.2,1-0.2c0.4,0,1-0.1,1.7-0.1c0.6,0,1.1,0,1.5,0.1c0.4,0.1,0.7,0.1,0.9,0.2
			c0.2,0.1,0.4,0.2,0.4,0.3c0.1,0.1,0.1,0.3,0.1,0.4c0,0.2,0,0.5-0.1,0.8c-0.1,0.3-0.2,0.6-0.3,0.9l-3.2,8.1
			c-0.5,1.4-1.1,2.6-1.7,3.5c-0.6,0.9-1.2,1.7-1.7,2.3c-0.6,0.6-1.2,1.1-1.8,1.5c-0.6,0.3-1.2,0.6-1.8,0.8v0.1
			c0.9,0.3,1.7,0.7,2.4,1.2c0.7,0.5,1.4,1.1,2,1.8c0.6,0.7,1.2,1.5,1.8,2.5c0.5,1,1.1,2,1.6,3.3l3.9,9.4c0.1,0.3,0.2,0.5,0.3,0.7
			c0.1,0.2,0.1,0.3,0.2,0.5c0,0.1,0.1,0.2,0.1,0.3C942.1,460.8,942.1,460.9,942.1,461z"/>
		<path class="st0" d="M988.3,459.3c0,0.4,0,0.8-0.1,1.2c-0.1,0.3-0.1,0.6-0.2,0.8c-0.1,0.2-0.2,0.4-0.3,0.4
			c-0.1,0.1-0.3,0.1-0.4,0.1h-20c-0.5,0-1-0.2-1.4-0.5c-0.4-0.4-0.7-1-0.7-1.8v-34.8c0-0.8,0.2-1.4,0.7-1.8c0.4-0.4,0.9-0.5,1.4-0.5
			H987c0.2,0,0.3,0,0.5,0.1c0.1,0.1,0.2,0.2,0.3,0.4c0.1,0.2,0.2,0.5,0.2,0.8c0,0.3,0.1,0.7,0.1,1.2s0,0.8-0.1,1.1
			c-0.1,0.3-0.1,0.6-0.2,0.7c-0.1,0.2-0.2,0.3-0.3,0.4c-0.1,0.1-0.3,0.1-0.5,0.1h-15.5v11.5h13.4c0.2,0,0.3,0,0.5,0.1
			s0.3,0.2,0.4,0.4c0.1,0.2,0.2,0.5,0.2,0.8c0,0.3,0.1,0.7,0.1,1.2c0,0.4,0,0.8-0.1,1.1c0,0.3-0.1,0.6-0.2,0.8
			c-0.1,0.2-0.2,0.3-0.4,0.4c-0.1,0.1-0.3,0.1-0.5,0.1h-13.4v12.9h15.8c0.1,0,0.3,0,0.4,0.1c0.1,0.1,0.2,0.2,0.3,0.4
			c0.1,0.2,0.2,0.5,0.2,0.8C988.3,458.5,988.3,458.8,988.3,459.3z"/>
		<path class="st0" d="M1036.7,425c0,0.9-0.1,1.6-0.3,2c-0.2,0.4-0.5,0.6-0.8,0.6h-10.7V461c0,0.2-0.1,0.3-0.2,0.5
			c-0.1,0.1-0.3,0.2-0.5,0.3c-0.2,0.1-0.5,0.2-1,0.2c-0.4,0-0.9,0.1-1.5,0.1c-0.6,0-1.2,0-1.5-0.1c-0.4-0.1-0.7-0.1-1-0.2
			c-0.2-0.1-0.4-0.2-0.5-0.3c-0.1-0.1-0.1-0.3-0.1-0.5v-33.3h-10.7c-0.2,0-0.3-0.1-0.5-0.1c-0.1-0.1-0.3-0.3-0.4-0.5
			c-0.1-0.2-0.2-0.5-0.2-0.8c0-0.3-0.1-0.7-0.1-1.2s0-0.8,0.1-1.2c0-0.3,0.1-0.6,0.2-0.8c0.1-0.2,0.2-0.4,0.4-0.4
			c0.1-0.1,0.3-0.1,0.5-0.1h27.7c0.2,0,0.3,0,0.5,0.1c0.1,0.1,0.2,0.2,0.3,0.4c0.1,0.2,0.2,0.5,0.2,0.8
			C1036.6,424.2,1036.7,424.6,1036.7,425z"/>
	</g>
	<g>
		<path class="st0" d="M457.3,337.8c0,1.4-0.1,2.5-0.3,3.3c-0.2,0.8-0.6,1.5-1.2,2.1c-0.6,0.6-1.6,1.3-2.8,2.1
			c-1.2,0.8-2.7,1.5-4.5,2.2c-1.7,0.7-3.7,1.2-5.9,1.7c-2.2,0.5-4.6,0.7-7.3,0.7c-5.2,0-9.9-0.8-14.1-2.5c-4.2-1.7-7.9-4.2-10.9-7.4
			c-3-3.3-5.4-7.3-7.1-12.1c-1.7-4.8-2.5-10.3-2.5-16.5c0-6.2,0.8-11.7,2.5-16.5c1.7-4.9,4.1-9,7.1-12.4c3.1-3.4,6.7-6,11-7.7
			c4.3-1.8,9-2.6,14.1-2.6c2.2,0,4.4,0.2,6.5,0.6c2.1,0.4,4,0.9,5.8,1.6c1.8,0.7,3.4,1.4,4.8,2.2c1.4,0.8,2.4,1.5,3,2.1
			c0.6,0.6,1,1.3,1.3,2.2c0.2,0.8,0.3,2,0.3,3.6c0,0.9,0,1.6-0.1,2.2c-0.1,0.6-0.2,1.1-0.4,1.5c-0.2,0.4-0.4,0.7-0.6,0.9
			c-0.2,0.2-0.5,0.3-0.9,0.3c-0.5,0-1.2-0.4-2.1-1.1c-0.9-0.7-2.1-1.5-3.6-2.4s-3.4-1.6-5.6-2.4s-4.9-1.1-7.9-1.1
			c-3.3,0-6.4,0.7-9.1,2c-2.7,1.3-5.1,3.2-7,5.7c-1.9,2.5-3.4,5.5-4.5,9.1c-1.1,3.6-1.6,7.6-1.6,12c0,4.7,0.6,8.8,1.7,12.4
			c1.1,3.6,2.7,6.6,4.8,8.9c2.1,2.4,4.5,4.2,7.3,5.4c2.8,1.2,6,1.8,9.5,1.8c2.9,0,5.4-0.4,7.5-1.1c2.1-0.7,3.8-1.5,5.3-2.3
			c1.5-0.8,2.7-1.6,3.6-2.3c1-0.7,1.7-1.1,2.4-1.1c0.3,0,0.5,0.1,0.7,0.2c0.2,0.1,0.3,0.4,0.5,0.8c0.1,0.4,0.2,0.9,0.3,1.6
			C457.2,336,457.3,336.8,457.3,337.8z"/>
		<path class="st0" d="M538.4,347.1c0,0.3-0.1,0.6-0.3,0.9c-0.2,0.3-0.5,0.5-1,0.6c-0.5,0.2-1.1,0.3-1.9,0.4c-0.8,0.1-1.8,0.1-3,0.1
			c-1.1,0-2.1,0-2.8-0.1c-0.7-0.1-1.3-0.2-1.8-0.4c-0.5-0.2-0.8-0.4-1-0.6c-0.2-0.3-0.3-0.6-0.3-0.9v-45.3c0-1.2,0-2.6,0.1-4.2
			c0-1.6,0.1-2.9,0.1-4.1h-0.1c-0.8,1.3-1.6,2.6-2.4,3.9c-0.9,1.3-1.7,2.6-2.6,4L489.4,347c-0.3,0.4-0.6,0.7-0.8,1
			c-0.3,0.3-0.6,0.5-1,0.7c-0.4,0.2-1,0.3-1.6,0.4c-0.6,0.1-1.4,0.1-2.4,0.1c-1.1,0-2,0-2.6-0.1c-0.7-0.1-1.2-0.2-1.6-0.4
			c-0.4-0.2-0.7-0.4-0.8-0.7c-0.2-0.3-0.3-0.6-0.3-1v-72.2c0-0.3,0.1-0.6,0.3-0.8c0.2-0.3,0.6-0.5,1-0.6c0.5-0.2,1.1-0.3,1.9-0.4
			c0.8-0.1,1.7-0.1,2.9-0.1c1.2,0,2.2,0,2.9,0.1c0.8,0.1,1.4,0.2,1.9,0.4c0.5,0.2,0.8,0.4,1,0.6c0.2,0.3,0.3,0.5,0.3,0.8v45.7
			c0,1.4,0,2.9-0.1,4.3c0,1.4-0.1,2.8-0.1,4h0.1c0.8-1.4,1.5-2.7,2.3-4c0.8-1.3,1.6-2.6,2.5-3.8l32-46.2c0.2-0.4,0.5-0.7,0.8-1
			c0.3-0.3,0.6-0.5,1-0.6c0.4-0.2,1-0.3,1.6-0.4c0.6-0.1,1.4-0.1,2.4-0.1c1,0,1.9,0,2.6,0.1c0.7,0.1,1.2,0.2,1.6,0.4
			c0.4,0.2,0.7,0.4,0.9,0.6c0.2,0.2,0.3,0.5,0.3,0.9V347.1z"/>
		<path class="st0" d="M653.2,347.1c0,0.3-0.1,0.6-0.3,0.9c-0.2,0.3-0.5,0.5-0.9,0.6c-0.5,0.2-1.1,0.3-1.8,0.4
			c-0.8,0.1-1.7,0.1-2.8,0.1c-1.2,0-2.2,0-2.9-0.1c-0.8-0.1-1.4-0.2-1.8-0.4c-0.4-0.2-0.7-0.4-0.9-0.6c-0.2-0.3-0.3-0.6-0.3-0.9
			v-63.5h-0.1l-26.7,63.9c-0.2,0.6-0.7,1-1.5,1.3c-0.8,0.3-2.2,0.4-4.1,0.4c-1,0-1.8,0-2.5-0.1c-0.7-0.1-1.2-0.2-1.6-0.3
			c-0.4-0.1-0.8-0.3-1-0.5c-0.2-0.2-0.4-0.5-0.5-0.8l-25.7-63.9h-0.1v63.5c0,0.3-0.1,0.6-0.3,0.9c-0.2,0.3-0.5,0.5-0.9,0.6
			c-0.4,0.2-1,0.3-1.8,0.4c-0.8,0.1-1.7,0.1-2.9,0.1c-1.2,0-2.2,0-2.9-0.1c-0.7-0.1-1.3-0.2-1.8-0.4c-0.4-0.2-0.7-0.4-0.9-0.6
			c-0.2-0.3-0.3-0.6-0.3-0.9v-69.2c0-1.6,0.5-2.8,1.4-3.6c0.9-0.8,1.9-1.1,3.1-1.1h7.7c1.5,0,2.7,0.1,3.8,0.4c1,0.3,2,0.7,2.8,1.4
			c0.8,0.6,1.5,1.4,2,2.4c0.6,1,1.1,2.1,1.5,3.4l21.3,51.3h0.3l21.9-51c0.6-1.4,1.2-2.6,1.8-3.7c0.6-1,1.3-1.8,2.1-2.4
			c0.8-0.6,1.7-1.1,2.6-1.3c1-0.3,2.1-0.4,3.5-0.4h7.3c1.2,0,2.2,0.4,3.1,1.1c0.9,0.8,1.3,2,1.3,3.6V347.1z"/>
		<path class="st0" d="M739.8,344.4c0.3,1.1,0.5,1.9,0.6,2.5c0.1,0.6-0.1,1.1-0.5,1.4c-0.4,0.3-1,0.5-1.9,0.6
			c-0.9,0.1-2.1,0.1-3.7,0.1c-1.6,0-2.8,0-3.7-0.1c-0.9-0.1-1.6-0.2-2-0.3c-0.5-0.1-0.8-0.4-1-0.6c-0.2-0.3-0.4-0.6-0.5-1.1l-6.2-17
			h-32.1l-5.9,16.8c-0.2,0.4-0.4,0.8-0.6,1.1c-0.2,0.3-0.6,0.5-1,0.7c-0.5,0.2-1.1,0.3-2,0.4s-2,0.1-3.3,0.1c-1.4,0-2.5-0.1-3.3-0.2
			c-0.8-0.1-1.4-0.3-1.8-0.7c-0.3-0.3-0.5-0.8-0.4-1.5c0-0.7,0.3-1.5,0.6-2.5l25.8-69.1c0.2-0.5,0.4-1,0.7-1.3
			c0.3-0.3,0.7-0.6,1.3-0.8c0.6-0.2,1.3-0.3,2.3-0.4c0.9-0.1,2.1-0.1,3.5-0.1c1.2,0,2.2,0,3,0c0.8,0,1.5,0.1,2.1,0.1
			s1.1,0.2,1.5,0.3c0.4,0.1,0.8,0.3,1,0.5c0.3,0.2,0.5,0.4,0.7,0.7c0.2,0.3,0.4,0.6,0.5,1L739.8,344.4z M704.6,284.5h-0.1
			l-12.5,35.9h25.7L704.6,284.5z"/>
		<path class="st0" d="M785.9,312.5c0,1.9-0.2,3.2-0.6,3.9c-0.4,0.7-1.1,1.1-1.9,1.1h-29.9c-0.9,0-1.5-0.4-1.9-1.1
			c-0.4-0.7-0.6-2-0.6-3.8c0-1.8,0.2-3.1,0.6-3.8c0.4-0.7,1.1-1.1,1.9-1.1h29.9c0.4,0,0.7,0.1,1,0.2c0.3,0.1,0.6,0.4,0.8,0.8
			c0.2,0.4,0.4,0.9,0.5,1.5C785.9,310.9,785.9,311.6,785.9,312.5z"/>
		<path class="st0" d="M860.6,347.1c0,0.3-0.1,0.6-0.3,0.9c-0.2,0.3-0.5,0.5-1,0.6c-0.5,0.2-1.1,0.3-1.9,0.4c-0.8,0.1-1.8,0.1-3,0.1
			c-1.1,0-2.1,0-2.9-0.1c-0.8-0.1-1.4-0.2-1.9-0.4c-0.5-0.2-0.8-0.4-1-0.6c-0.2-0.3-0.3-0.6-0.3-0.9v-63.9h-20
			c-1.1,9.2-2.3,17.3-3.4,24.1c-1.1,6.9-2.3,12.8-3.5,17.6c-1.3,4.9-2.6,8.9-4.1,12.1c-1.5,3.2-3.1,5.7-5,7.5
			c-1.8,1.9-3.9,3.1-6.2,3.8c-2.3,0.7-5,1-7.9,1c-0.5,0-1-0.1-1.3-0.2c-0.4-0.1-0.6-0.4-0.9-0.8s-0.4-0.9-0.5-1.5
			c-0.1-0.6-0.2-1.4-0.2-2.4c0-1.1,0-2.1,0.1-2.9c0.1-0.8,0.2-1.4,0.4-1.8c0.2-0.5,0.4-0.8,0.7-1c0.3-0.2,0.6-0.3,0.9-0.3
			c1.4,0,2.7-0.3,3.9-0.9c1.2-0.6,2.4-1.6,3.5-3.2c1.1-1.6,2.2-3.8,3.3-6.6c1-2.8,2.1-6.4,3-11c1-4.5,1.9-10,2.9-16.4
			c0.9-6.4,1.8-14,2.8-22.7c0.2-1.6,0.5-2.8,1.1-3.5c0.5-0.8,1.3-1.2,2.4-1.2h36.2c1.2,0,2.2,0.4,2.9,1.1c0.7,0.7,1,1.8,1,3.4V347.1
			z"/>
		<path class="st0" d="M932.6,343.8c0,0.9,0,1.6-0.1,2.2c-0.1,0.6-0.2,1.1-0.4,1.5c-0.2,0.4-0.4,0.7-0.6,0.9
			c-0.3,0.2-0.5,0.3-0.8,0.3h-38.4c-1,0-1.9-0.3-2.7-1c-0.9-0.7-1.3-1.8-1.3-3.4v-66.7c0-1.6,0.4-2.7,1.3-3.4c0.9-0.7,1.8-1,2.7-1
			h37.9c0.3,0,0.6,0.1,0.9,0.3c0.3,0.2,0.5,0.4,0.6,0.8c0.2,0.4,0.3,0.9,0.4,1.5c0.1,0.6,0.1,1.4,0.1,2.3c0,0.9,0,1.6-0.1,2.2
			c-0.1,0.6-0.2,1.1-0.4,1.4c-0.2,0.4-0.4,0.6-0.6,0.8c-0.3,0.2-0.6,0.3-0.9,0.3h-29.8v22.1H926c0.3,0,0.6,0.1,0.9,0.3
			c0.3,0.2,0.5,0.4,0.7,0.8c0.2,0.4,0.3,0.9,0.4,1.5c0.1,0.6,0.1,1.4,0.1,2.3c0,0.8,0,1.5-0.1,2.1c-0.1,0.6-0.2,1.1-0.4,1.5
			c-0.2,0.4-0.4,0.7-0.7,0.8c-0.3,0.2-0.6,0.3-0.9,0.3h-25.7v24.8h30.3c0.3,0,0.6,0.1,0.8,0.3c0.3,0.2,0.5,0.4,0.6,0.8
			c0.2,0.4,0.3,0.9,0.4,1.5C932.5,342.2,932.6,343,932.6,343.8z"/>
		<path class="st0" d="M1015.5,347.1c0,0.3-0.1,0.6-0.3,0.9c-0.2,0.3-0.5,0.5-1,0.6c-0.5,0.2-1.1,0.3-1.9,0.4
			c-0.8,0.1-1.8,0.1-3,0.1c-1.1,0-2.1,0-2.9-0.1c-0.8-0.1-1.4-0.2-1.9-0.4c-0.5-0.2-0.8-0.4-1-0.6c-0.2-0.3-0.3-0.6-0.3-0.9v-32.5
			h-34.5v32.5c0,0.3-0.1,0.6-0.3,0.9c-0.2,0.3-0.5,0.5-1,0.6c-0.5,0.2-1.1,0.3-1.9,0.4c-0.8,0.1-1.7,0.1-2.9,0.1
			c-1.1,0-2.1,0-2.9-0.1c-0.8-0.1-1.4-0.2-1.9-0.4c-0.5-0.2-0.8-0.4-1-0.6c-0.2-0.3-0.3-0.6-0.3-0.9v-72.3c0-0.3,0.1-0.6,0.3-0.9
			c0.2-0.3,0.5-0.5,1-0.6c0.5-0.2,1.1-0.3,1.9-0.4c0.8-0.1,1.8-0.1,2.9-0.1c1.2,0,2.2,0,2.9,0.1c0.8,0.1,1.4,0.2,1.9,0.4
			c0.5,0.2,0.8,0.4,1,0.6c0.2,0.3,0.3,0.6,0.3,0.9v29.6h34.5v-29.6c0-0.3,0.1-0.6,0.3-0.9c0.2-0.3,0.5-0.5,1-0.6
			c0.5-0.2,1.1-0.3,1.9-0.4c0.8-0.1,1.7-0.1,2.9-0.1c1.2,0,2.2,0,3,0.1c0.8,0.1,1.4,0.2,1.9,0.4c0.5,0.2,0.8,0.4,1,0.6
			c0.2,0.3,0.3,0.6,0.3,0.9V347.1z"/>
		<path class="st0" d="M1109.6,369.8c0,0.3-0.1,0.5-0.3,0.8c-0.2,0.2-0.4,0.4-0.8,0.6c-0.4,0.2-0.9,0.3-1.6,0.4
			c-0.7,0.1-1.6,0.1-2.7,0.1c-1,0-1.8,0-2.4-0.1c-0.7-0.1-1.2-0.2-1.6-0.4c-0.4-0.2-0.7-0.4-0.9-0.6c-0.2-0.2-0.3-0.5-0.3-0.8v-21.1
			H1043v21.1c0,0.3-0.1,0.5-0.3,0.8c-0.2,0.2-0.5,0.4-0.9,0.6c-0.4,0.2-1,0.3-1.6,0.4c-0.7,0.1-1.5,0.1-2.5,0.1
			c-1.1,0-1.9,0-2.6-0.1c-0.7-0.1-1.2-0.2-1.6-0.4c-0.4-0.2-0.6-0.4-0.8-0.6c-0.1-0.2-0.2-0.5-0.2-0.8v-28.1c-0.1-1,0.1-1.8,0.5-2.2
			c0.4-0.4,1-0.6,1.8-0.6h4.2c1-1.4,2-2.8,2.9-4.3c0.9-1.5,1.8-3.2,2.6-5.2c0.8-2,1.6-4.4,2.4-7.1c0.8-2.8,1.6-6.2,2.4-10.2
			c0.8-4.1,1.6-8.9,2.4-14.5c0.8-5.6,1.6-12.3,2.5-20c0.2-1.5,0.7-2.7,1.3-3.4c0.6-0.7,1.5-1.1,2.6-1.1h38.6c1.1,0,2.1,0.4,2.8,1.1
			c0.7,0.7,1,1.8,1,3.4v61.4h6.4c1,0,1.6,0.2,2,0.7c0.4,0.5,0.6,1.2,0.6,2.3V369.8z M1088.4,283h-22.6c-0.8,6.7-1.6,12.6-2.3,17.7
			c-0.7,5.1-1.5,9.5-2.3,13.3c-0.8,3.8-1.5,7-2.3,9.6c-0.8,2.6-1.5,4.9-2.3,6.8c-0.8,1.9-1.6,3.5-2.4,4.8c-0.8,1.3-1.7,2.6-2.5,3.7
			h36.8V283z"/>
	</g>
</g>
</svg>
