<?xml version="1.0" encoding="utf-8"?>
<!-- Generator: Adobe Illustrator 24.0.0, SVG Export Plug-In . SVG Version: 6.00 Build 0)  -->
<svg version="1.1" id="Слой_1" xmlns="http://www.w3.org/2000/svg" xmlns:xlink="http://www.w3.org/1999/xlink" x="0px" y="0px"
	 viewBox="0 0 1500 600" style="enable-background:new 0 0 1500 600;" xml:space="preserve">
<style type="text/css">
	.st0{fill-rule:evenodd;clip-rule:evenodd;}
</style>
<path class="st0" d="M387.9,168.3c6.8-7,17.1-8.9,26.4-9.1c25.3,0,50.6-0.1,75.9,0.1c0.5,4.9,0.2,9.7,0.4,14.6
	c-18.9,0.5-37.8-0.2-56.7,0.3c-5.6,0-10.7,2.4-15.1,5.7c-1.6,4.8-3.3,9.7-3.2,14.9c0,16.4,0.1,32.8,0,49.2c0,6.7,0,13.9,3.6,19.9
	c3.6,4.9,10.4,5.9,16.1,6.2c18.4,0.1,36.8,0,55.2,0.1c0,4.9,0,9.8,0,14.7c-25.4,0-50.8,0.1-76.2,0c-9.8,0-20.5-2.5-27.3-10.1
	c-6.5-6.8-8.5-16.5-8.6-25.6c0-18.1,0-36.3,0-54.4C378.4,185.3,380.8,175.1,387.9,168.3L387.9,168.3z M61.1,164.7
	c4-1.3,8-2.8,12.2-2.7c77.9,0,155.8-0.1,233.6,0c11.1-0.1,21.7,9,21.6,20.4c0.2,79.7,0,159.4,0.1,239.1c0.3,8.6-5.6,15.6-12.4,20
	c-3.6,0.6-7.2,1.5-10.9,1.5c-77.9,0-155.8,0-233.8,0c-7.4-0.3-14.7-4.1-18.3-10.7c-3.2-5.4-2.8-11.9-2.9-17.9
	c0.2-75.6-0.1-151.2,0.1-226.7c0-5.4,0.8-10.7,3-15.7C56,169.6,58.5,167.1,61.1,164.7L61.1,164.7z M188.7,212.9
	c-3.6,5.7-6.8,11.7-10.2,17.5l-1.5,3.2c-10.6,21.9-17.8,45.4-20.1,69.7c-3.9-6.5-10.1-11.1-16-15.8c-17.9-12.4-38.7-20.7-60.3-23.9
	c7.2,5.5,13.8,11.7,19.6,18.7c24.6,28,42.3,62.9,46.1,100.3c13.6,3.8,26.9,10,41.3,10.3c16.1,0.5,31.2-5.8,46-11.2
	c0.5-14.8,4.7-29.2,10-42.9c12.1-28.8,30.5-55.2,54.6-75.2c-9.4,1.1-18.4,3.9-27.2,7.1l-4.1,1.6c-17.2,6-32.6,16.7-45.1,29.9
	c-2.5-31.5-14.2-61.8-30.9-88.5C190.4,213.5,189.2,213.1,188.7,212.9L188.7,212.9z M530,188.7c2.3-4.1,6.2-6.7,10.4-8.6
	c6.3,0.2,12.7,0.1,19.1,0c0.2,13.9,0.2,27.9,0,41.8c17.6,0,35.3-0.1,52.9,0.1c1-11.2-2.1-23.1,2.1-33.9c5.8-10.7,19.2-7.4,29.2-7.9
	c0,29.5,0,59,0,88.5c0.7,8.3-6.6,16.1-14.9,16.2c-5.5,0.2-10.9,0-16.4-0.1c0.1-17.5,0-34.9,0-52.4c-17.6,0.2-35.3,0-52.9,0.1
	c0,12.7,0.2,25.3,0,38c0,4-2.6,7.3-4.4,10.8c-8,5.2-17.7,3.5-26.7,3.5c0-27.6,0.1-55.3-0.1-82.9C528.4,197.4,528.5,192.9,530,188.7
	L530,188.7z M690.1,187.6c5.6-5.4,13.6-7.3,21.2-7.3c22.3,0,44.7,0.1,67-0.1c3,1.1,6,2.2,9.1,3.3c6,4.6,11.8,10.4,13.7,18.1
	c3.2,11.7,0.7,25.6-8.7,33.8c-4.7,4.7-11.2,7.5-17.8,7.6c-20.6,0.2-41.3-0.2-61.9,0.2c0.1,7.3-0.2,15,2.3,22c1.9,5.7,8.6,7,13.8,7.4
	c19.3,0.2,38.5,0,57.8,0.1c-0.1,4.1-0.1,8.2-0.2,12.4c-25-0.2-50,0.1-75-0.1c-9.6,0.2-19.9-3.7-25.2-12.1c-3-5.6-4.2-12-4.2-18.4
	c-0.1-14.6,0-29.2,0-43.9C681.9,202.3,684,193.4,690.1,187.6L690.1,187.6z M718.2,194.5c-7.7,11-5.4,25.4-4.7,38
	c15.7-0.4,31.4-0.1,47.1-0.2c1-0.4,3-1.3,4.1-1.7c8.6-8.6,7.2-22.4,3.6-33c-3.7-3-8-5.8-13-5.3C742.9,192.6,730.3,191.1,718.2,194.5
	L718.2,194.5z M843.6,180.2c5.7,0.1,11.4,0.1,17.1,0.1c12.4,13,24.9,26,37.4,39c0.7,1.2,1.4,2.4,2.2,3.6c1.3-9.9-0.1-20,1-29.9
	c0.3-6.5,6.5-10.2,11.7-12.8c6.4,0.2,12.7,0.2,19.1,0.1c0,13.5,0,27-0.1,40.6c0.6-0.2,1.9-0.6,2.5-0.8c7.8-8.8,16.3-17,24.3-25.6
	c4.4-4.4,8.1-9.6,13.1-13.4c5.8-1.8,12.1-0.5,18.1-0.7c-7.1,9-15.8,16.6-23.6,25c-5.8,5.8-11.1,12.2-17.2,17.7
	c6.2,7,12.9,13.5,19.2,20.4c12.7,13.9,26.5,26.8,38.6,41.3c-9.5,0.2-19,0.1-28.5,0.1c-2.5,0.2-4.7-1.2-6.9-2.1
	c-11.7-14.6-24.9-28.1-37.5-41.9c-0.4-0.7-1.2-2-1.6-2.7c-1.6,13.2,1.6,26.9-2.4,39.9l-1.2,0.1c-1.1,1.6-2.2,3.1-3.4,4.6
	c-7.9,3.3-16.5,1.9-24.8,2.1c0.6-15.1-0.9-30.2,1-45.2c-0.5,0-1.7,0.1-2.2,0.2c-12,13.4-24.2,26.6-36.1,40.1c-2.2,2.1-4.3,5.5-7.8,5
	c-10,0.1-19.9,0.1-29.9-0.1c19.1-20.3,38-40.9,57.7-60.7c-1.8-2.6-3.7-5.1-6-7.4c-10.9-10.9-21.7-22-32.1-33.5l-1.6-0.2L843.6,180.2
	L843.6,180.2z M1045.4,180.8c6.5-1.2,13.2-0.3,19.8-0.5c-0.1,13.9-0.3,27.8,0,41.7c16-0.2,32-0.1,48.1-0.1
	c0.7-11.5-1.8-23.5,2.1-34.6c3.2-2.7,6.1-6.1,10.5-6.9c6.3-0.4,12.6-0.1,18.9-0.2c0.1,24.8,0,49.5,0.1,74.3
	c-0.2,8.6,1.5,17.9-3.6,25.4c-7.6,7.1-18.4,4.7-27.8,4.9c-0.1-17.5,0.1-35-0.1-52.4c-16,0.1-32.1,0-48.1,0.1
	c-0.1,12.1,0,24.1,0,36.2c0.4,4.9-2.5,9.1-5.1,12.9c-7.9,4.8-17.4,3.1-26.2,3.3c0.1-31.2-0.3-62.4,0.2-93.7
	C1036.5,186.5,1039.9,181.9,1045.4,180.8L1045.4,180.8z M1198.5,192.3c0-4.1,0-8.1,0.1-12.2c22.7,0.4,45.4,0,68.2,0.1
	c5.6-0.1,11.1,1.5,16.4,3.2c8.1,5.3,13,14.4,13,24.1c0.3,25.8,0.1,51.5,0,77.3c-28,0.2-56,0-84,0.1c-6.6,0.1-13.3-2-18.2-6.6
	c-14.4-11.6-15-36.2-1.4-48.6c5.2-5.2,12.5-8,19.8-7.9c17.6,0,35.3,0,52.9,0c-0.8-8.1,1.2-17.2-3.3-24.5c-3.8-4.8-10.6-4.9-16.2-5.1
	C1230,192.4,1214.2,192.3,1198.5,192.3L1198.5,192.3z M1227.1,232.7c-4.8,0-9.1,3.2-10.9,7.5c-3.7,9.1-2.8,19.4,1.4,28.2
	c2.3,1.4,4.5,2.8,6.8,4.2c13.6,0.3,27.2,0,40.8,0.2c0.1-13.4-0.1-26.8-0.1-40.2C1252.3,232.6,1239.7,232.2,1227.1,232.7
	L1227.1,232.7z M1336.7,192.6c4.9-7.7,14.1-12.4,23.2-12.3c29.8-0.1,59.5,0.2,89.3-0.2c1.1,8.4,0.5,16.8,0.6,25.3
	c-0.1,21.1,0.1,42.2,0,63.3c0.1,7.9-6.2,15.9-14.3,16.2c-5.6,0.3-11.2,0.1-16.7,0.1c-0.2-13.9-0.2-27.8,0-41.7
	c-4.4-0.2-8.8-0.2-13.2-0.1c-12.8,14-25.8,27.8-38.8,41.7c-9.9,0.3-19.9,0.3-29.8,0.1c0.5-0.4,1.5-1.3,2-1.7
	c13.4-13.3,27.5-26,40.3-40c-8.3-0.2-16.7-0.1-25-0.3c-3.3-1.4-6.6-2.8-9.9-4.3C1330.1,228.4,1326.8,206.8,1336.7,192.6
	L1336.7,192.6z M1364.3,200.4c-3.3,9.2-2.5,19.7,1.9,28.3c3.1,1.3,6,3.5,9.4,3.5c14.4,0.2,28.8,0,43.2,0.1c-0.1-13.3-0.1-26.7,0-40
	c-13.7,0.1-27.5-0.1-41.2,0C1372,192.1,1366.3,195.1,1364.3,200.4L1364.3,200.4z M378.4,335.4c-0.4-8.8,6.6-15.4,14.3-18.1
	c7.6,0.2,15.2,0.1,22.7,0c0.3,16.5,0,33.1,0.3,49.6c17-15.6,31.8-33.4,48.4-49.5c7.3,0,14.7,0,22.1,0c-12.5,13.3-25.7,26-38.1,39.4
	c-3.9,4.1-7.8,8.3-12,12.2c23.4,24.6,46.8,49.2,70,74c-13.7-0.2-27.5,0.9-41.1-0.6c-6.8-9.4-15.5-17.2-22.9-26.1
	c-9.2-9.2-17-19.7-26.5-28.6c-0.2,12.4,0.2,24.9-0.1,37.3c0,8.2-6.2,15.7-14.3,17.3c-7.5,1.5-15.2,0.4-22.8,0.7
	C378.3,407.2,378.4,371.3,378.4,335.4L378.4,335.4z M664.8,346.7c5.5-6.2,14.1-8.2,22-8.6c18.2,0,36.4,0,54.6,0
	c10.6-0.5,21.1,5.5,26.1,14.8c7.8,13.5,4.7,31.9-7,42.2c-5.3,3.2-11.1,6.2-17.5,6c-18.1,0.2-36.3,0-54.4,0
	c-0.1,9.2,0.3,18.3-0.1,27.5c-0.1,7.3-6.5,13.6-13.7,14.2c-5.7,0.4-11.5,0.1-17.2,0.3c-0.3-23.6-0.1-47.2-0.1-70.8
	C657.5,363.4,658.4,353.5,664.8,346.7L664.8,346.7z M692.1,354.4c-0.8,1.7-1.6,3.4-2.4,5.1c-1.5,10.2-0.8,20.6-1,30.9
	c12.9,0,25.8,0.2,38.8-0.2c3.4,0,6.2-2.2,9.2-3.5c4.5-8.1,5-18,2.6-26.8c-1.5-6.1-7.8-9.9-13.8-9.5
	C714.2,350.7,702.3,348.7,692.1,354.4L692.1,354.4z M1168.3,338.1c10.9,0,20.5,7.7,25.2,17.2c3.2,7.8,3.4,16.7,1.4,24.9
	c-3.7,11.3-14.4,20.8-26.6,20.9c-18.9,0.2-37.9,0-56.8,0.1c0.2,7.4-0.7,15.2,1.9,22.3c2.6,6.2,10.5,6.7,16.3,7.2c17,0.4,34,0,51,0.2
	c0.1,4,0.1,8.1,0.1,12.2c-23.6,0.1-47.2,0-70.7,0c-5.6,0-11-1.9-16.3-3.4c-7.3-4.9-12.8-12.7-12.8-21.7c-0.4-17.6-0.2-35.2-0.1-52.8
	c-0.1-7.4,3.1-14.2,7.7-19.9c6.2-4.7,13.9-7.3,21.7-7.2C1129.6,338.1,1149,338.1,1168.3,338.1L1168.3,338.1z M1124.4,350.8
	c-1.9,0.5-3.8,1-5.7,1.5c-2,1.7-3.9,3.5-5.8,5.3c-1.9,10.9-1,21.9-1.4,32.9c13.1-0.1,26.2,0.1,39.3-0.1c4.7,0.1,9.9-2,11.8-6.7
	c4.1-8.9,3-19.5-0.5-28.4c-2.9-2.1-5.9-4.5-9.6-4.7C1143.2,350.2,1133.8,350.4,1124.4,350.8L1124.4,350.8z M1222.2,343.7
	c6.3-4.3,14.2-5.7,21.8-5.6c16.4,0,32.8,0,49.2,0c6.6-0.2,12.7,2.4,18.5,5.3c12.1,10.2,12.3,30.3,1.1,41.3
	c15.6,10.8,18.1,35.5,5.1,49.2c-5.3,6-13.1,9.3-21.1,9.2c-28.3,0-56.7-0.1-85,0c0.1-24.7-0.1-49.5,0.2-74.2
	C1211.9,359.7,1214.6,349.6,1222.2,343.7L1222.2,343.7z M1245.7,356.4c-4.2,7.2-1.9,15.9-2.5,23.7c10.8,0,21.6,0.1,32.4,0
	c4.3-0.1,9.2-1.1,11.6-5.1c4-6.9,3.8-17.5-3.3-22.3c-5.7-3.4-12.7-1.8-19-2.2C1258.4,350.7,1249.9,350.2,1245.7,356.4L1245.7,356.4z
	 M1243.2,390.5c0.1,13.5,0.1,26.9,0,40.4c12-0.2,23.9,0.2,35.9-0.1c5,0.1,9.3-2.4,12.9-5.7c4.4-11.2,5.3-28.2-7.5-34.2
	C1270.8,390,1257,390.7,1243.2,390.5L1243.2,390.5z M515.6,348.9c4.6-5.8,11.4-8.8,18.4-10.5c23.4-0.6,46.8-0.1,70.2-0.3
	c6.7-0.4,13.2,1.8,19.4,4.2c3.9,3.7,8,7.7,9.6,13.1c3.3,10.6,1.5,21.8,2,32.7c-0.6,14.3,2.2,29.2-3.8,42.7
	c-5.4,7.7-14.3,11.7-23.6,12.1c-21.7,0.3-43.4,0.1-65.1,0.2c-6.3,0.1-12.7-0.9-18.5-3.6c-7.2-4-12.2-11.5-13-19.7
	c-1.5-10.5-0.5-21.1-0.8-31.7C510.7,375,508.7,360.8,515.6,348.9L515.6,348.9z M548.7,352.3c-1.6,1.4-3.1,2.7-4.7,4
	c-1.4,4.6-2.4,9.4-2.2,14.2c0.1,14.7-0.1,29.4,0.1,44.1c0.1,5.6,1.9,12.3,7.7,14.4c8.6,2.6,17.7,1.6,26.6,1.8
	c8.7-0.1,18.3,0.8,25.4-5.3c3.4-9.2,2-19,2.3-28.6c-0.5-12.4,1.1-24.9-1-37.2c-1.8-7.9-11.2-9.2-18-9.2
	C572.8,350.8,560.5,349.1,548.7,352.3L548.7,352.3z M796.6,347c5.4-6.4,14.1-8.2,22-8.9c21.7-0.1,43.4,0,65-0.1
	c6.7-0.2,13,1.8,19.2,4.1c4.8,4.4,9.3,9.6,10.4,16.3c2.3,12,0.9,24.3,1.2,36.5c-0.4,12.3,1.9,25.6-4.9,36.6
	c-5.3,8.8-16.4,11.3-25.9,11.5c-21.1,0-42.2-0.1-63.3-0.1c-8.3-0.3-17.6-2-23.4-8.7c-5.7-6.3-7.1-15.2-7.2-23.4c0-13.5,0-27,0-40.5
	C790,362.3,791.2,353.5,796.6,347L796.6,347z M827.6,352.8c-5.8,3-6.3,10.2-6.6,15.9c0,14.7-0.1,29.4,0,44c0.2,6.2,1.5,14,8.2,16.5
	c10.9,2.4,22.2,1.4,33.3,1.5c6.4-0.4,14.5-0.1,18.4-6.2c3.8-9.3,1.8-19.7,2.3-29.5c-0.6-13.1,1.6-26.7-2.3-39.5
	c-8.7-7-20.4-4.8-30.7-5.2C842.7,350.8,834.6,349.4,827.6,352.8L827.6,352.8z M952.3,346.1c5.9-5.9,14.6-7.9,22.6-8
	c26.9,0,53.7,0.1,80.6-0.1c0.3,29,0.1,58.1,0.1,87.1c0.3,5.9-2,12.3-7.3,15.3c-7.1,4.3-15.7,2.1-23.6,2.7c-0.4-3.7-0.9-7.5-0.8-11.2
	c0.1-27.2,0-54.4,0-81.5c-11.1,0.1-22.1-0.2-33.2,0.3c-4,0.1-7.6,1.8-11.2,3.3c-1.8,4.1-3.8,8.3-3.6,12.8
	c-0.2,19.9-0.1,39.9-0.1,59.9c0.2,4.1-1.9,7.7-3.6,11.3c-3.1,1.8-6.2,3.6-9.4,5.1c-9.3-0.2-18.6-0.2-27.8,0
	c-0.5-3.8-0.9-7.7-1.1-11.6c3.2-0.9,6.4-1.9,9.3-3.6l0.9-0.3c1.1-20.2,0.1-40.4,0.6-60.6C945.1,359.6,946.9,351.7,952.3,346.1
	L952.3,346.1z M1356.1,338.1c21.2,0.2,42.4,0,63.6,0.1c9.3,0.2,19.7,2.8,25,11.1c6.9,10.4,4.9,23.5,5.2,35.3
	c-0.4,19.5,0.8,39.1-0.6,58.6c-26.8-0.3-53.7,0.1-80.5-0.1c-10.7-0.3-20.4-7.3-24.9-16.8c-4-8-3.2-17.3-1.9-25.8
	c4.6-10.1,13.4-19.5,25-20.2c17.2-0.2,34.5,0,51.7-0.1c0.1-8.1,0-16.2-2.2-24.1c-3.7-2.9-7.9-5.3-12.6-5.3c-16-0.5-31.9,0-47.9-0.3
	C1356.1,346.3,1356.1,342.2,1356.1,338.1L1356.1,338.1z M1377.4,393c-7.6,9.5-6.5,23.2-1.8,33.8c3.8,2.1,7.9,4.1,12.4,3.9
	c10.2,0.2,20.5,0,30.7,0c-0.1-13.4-0.2-26.8,0-40.2c-12,0-24.1-0.5-36.1,0.4C1380.9,391.7,1379.2,392.3,1377.4,393z"/>
</svg>
