<?xml version="1.0" encoding="utf-8"?>
<!-- Generator: Adobe Illustrator 24.0.0, SVG Export Plug-In . SVG Version: 6.00 Build 0)  -->
<svg version="1.1" id="Слой_1" xmlns="http://www.w3.org/2000/svg" xmlns:xlink="http://www.w3.org/1999/xlink" x="0px" y="0px"
	 viewBox="0 0 1500 600" style="enable-background:new 0 0 1500 600;" xml:space="preserve">
<style type="text/css">
	.st0{fill-rule:evenodd;clip-rule:evenodd;fill:#2C2C2C;}
</style>
<path class="st0" d="M129.39977,203.34317l-79.28512,28.31335c0,0,1.14086,49.83453,113.26402,46.4361
	c10.1922,0,21.52705,0,33.98245-1.13171c1.12799,5.65833,1.12799,11.32562,1.12799,15.84668
	c1.1373,56.63947,1.1373,104.20355,1.1373,104.20355h53.22601V287.14944c0,0,0-5.65839,0-14.7243
	c129.11615-13.58539,305.80017-41.90607,305.80017-41.90607s-207.25497-3.39685-313.72729-5.6582
	c-4.53027-20.38599-11.32573-39.64417-22.64771-49.83289l-50.97191,12.45361c0,0,6.79546,13.58698,14.72426,33.98242
	c-1.12422,0-1.12422,0-1.12422,0C158.84294,216.93387,130.53329,206.73996,129.39977,203.34317L129.39977,203.34317
	L129.39977,203.34317z M409.15378,282.61923c40.76892-5.65833,49.82938,54.36469,41.90237,96.26904
	c-3.39865,18.12286-12.45929,15.86115-26.05011,18.12286c-28.315,3.40222-5.66193-41.90588-33.97327-14.7207
	c-22.66058,21.51599-73.62695,23.78461-79.2851,21.51599c-5.66382-2.26508-46.4361-19.25824-20.38629-67.95563
	C312.87943,297.34348,384.23734,286.01572,409.15378,282.61923L409.15378,282.61923L409.15378,282.61923z M343.45584,312.06558
	c16.98746-9.05481,30.58749,0,45.31177,24.91833c6.78635,11.32941,6.78635,26.05365-5.66739,36.24615
	c-12.46283,10.19391-28.31509,3.3927-30.58026,3.3927c-2.26877,0-22.65118-20.38043-24.91626-29.44653
	C324.21042,336.98392,326.47928,319.99478,343.45584,312.06558L343.45584,312.06558L343.45584,312.06558z M498.62396,381.15891
	c0,0-5.66193-64.55737-2.26508-72.48621c5.66351-18.12109,33.9787-22.65698,39.64063-22.65698
	c9.06036-1.12781-1.13177,19.25482,24.91833,3.40253c26.04816-15.85596,49.83276-5.66193,56.62799,0
	c5.66412,4.52661,11.32605,21.51581,36.24438-1.13171c24.9162-21.51971,50.96606,1.13171,61.15839,10.19409
	c10.19391,10.19208,26.04993,46.4361,21.51953,80.40765c-3.39844,24.91815-32.84515,22.65308-43.03748,0l-16.98914-38.50177
	c-12.45941-26.05542-45.30457-27.18359-36.24402,11.32013c12.45898,49.83472-39.63922,65.69958-46.43628,20.38617
	c-2.26526-12.46295-2.26526-28.31323-12.45715-45.30273c-16.98956-24.91656-40.77441-4.5304-38.50909,16.9895
	c1.13312,13.59985-1.13177,26.06262-1.13177,29.4505c-3.3988,29.44855-24.91656,23.78107-32.84534,22.64734
	C499.75751,394.74942,498.62396,381.15891,498.62396,381.15891L498.62396,381.15891L498.62396,381.15891z M895.03143,273.56229
	c-22.65344,1.1333-89.47552,6.79144-112.12701,43.03925c-29.44672,46.43604,6.79547,67.94666,11.32562,70.21552
	c4.53021,3.40222,52.10004,6.79547,74.75146-13.58698c28.31482-23.78302,3.39648,19.25806,29.44635,18.12292
	c13.59113-1.13373,21.51996,2.25952,26.05029-15.85803C935.80383,333.58908,933.53851,272.42514,895.03143,273.56229
	L895.03143,273.56229L895.03143,273.56229z M828.20715,299.61234c14.7243-6.80475,30.58026,5.6582,39.64087,28.31482
	c4.52997,10.19208,3.39838,22.65149-6.79572,30.58026c-11.32544,7.92725-22.65106,1.12244-24.91632,1.12244
	c-2.26508,0-15.85583-19.24335-18.12109-28.30566C816.88153,322.25967,813.4845,305.27054,828.20715,299.61234L828.20715,299.61234
	L828.20715,299.61234z M977.70953,317.73306c2.26526,13.59113,3.39862,43.03412,2.26526,54.35974
	c-1.13196,14.72424-4.53058,21.51971,10.19373,20.39532c14.72266-1.13513,29.44714,3.38928,35.11078-43.04108
	c5.66174-46.43628,12.45703-38.513,37.37537-39.64081c26.04834-1.13354,41.90588-35.11066,15.85608-37.3811
	c-26.04993-3.39307-31.71362,4.53577-37.37561,9.06592c-4.5304,4.52466-18.12109,13.58716-23.78497,0
	c-5.6637-14.72424-21.51971-2.27045-31.71185,1.12817C970.91406,288.28653,975.44421,306.40744,977.70953,317.73306
	L977.70953,317.73306L977.70953,317.73306z M1144.19958,199.94455c16.98962-1.13379,31.71387,7.92877,31.71387,19.24884
	c0,12.46313-14.72424,22.65704-31.71387,23.78125c-18.12122,1.13715-32.84351-6.78235-32.84351-19.24548
	C1111.35608,212.39792,1126.07837,201.06857,1144.19958,199.94455L1144.19958,199.94455L1144.19958,199.94455z M1120.41638,308.6727
	c0,0,2.26526,58.88599,1.13184,69.09314c-1.13184,11.3161-1.13184,13.58716,10.19385,13.58716
	c12.45752,0,33.97729,0,35.1106-36.24774c0-36.2442-2.26489-67.95581-2.26489-67.95581s1.13159-16.98956-18.12305-7.92883
	C1121.54822,291.68314,1119.28308,289.41824,1120.41638,308.6727L1120.41638,308.6727L1120.41638,308.6727z M1346.93359,310.93405
	c-43.03748,3.39703-39.64063-14.71875-53.23157-18.12646c-12.45898-3.38934-47.56763,28.3241,12.45935,35.11957
	c6.79529,1.12817,12.45703,1.12817,19.25244,2.2597c44.17114,2.26514,61.1604,3.40222,61.1604,23.78485
	c-2.26489,32.84534-50.96655,40.77771-77.01636,43.03943c-26.04993,2.26489-99.66772-9.05676-95.13757-33.97357
	c5.66394-26.05365,40.77441-6.79523,46.43652-2.27039c6.79504,4.53571,29.44849,19.258,44.17102,18.12109
	c15.85583-2.2655,35.11023-29.44122,2.26514-35.1087c-31.71204-4.53015-70.22119,0-79.28149-12.45538
	c-9.06055-11.32941-36.24219-39.64105,9.0603-54.36328c35.11047-11.32587,75.88489-3.39862,94.00598-2.26532
	C1351.46375,274.69559,1388.83948,306.40744,1346.93359,310.93405L1346.93359,310.93405L1346.93359,310.93405z
	 M1416.02112,206.73996c-19.25281,0-35.10889,15.85205-35.10889,35.11047c0,18.11713,15.85608,33.98224,35.10889,33.98224
	c18.12292,0,33.97888-15.86511,33.97888-33.98224C1450,222.59201,1434.14404,206.73996,1416.02112,206.73996L1416.02112,206.73996
	L1416.02112,206.73996z M1416.02112,212.39792c-16.98755,0-29.4469,12.46295-29.4469,29.45251
	c0,15.85223,12.45935,29.44653,29.4469,29.44653c15.85754,0,29.44849-13.5943,29.44849-29.44653
	C1445.4696,224.86087,1431.87866,212.39792,1416.02112,212.39792L1416.02112,212.39792L1416.02112,212.39792z M1404.69543,220.32712
	h12.45923c1.13147,0,2.26501,0,3.39661,0c1.13354,0,2.26514,1.1369,3.39844,1.1369c2.2655,0,3.39856,1.12799,5.66406,3.39685
	c1.13159,1.12445,2.26489,3.40778,2.26489,5.6582c0,3.40234-1.1333,5.67322-3.39856,6.79565
	c-2.26489,2.27045-6.79529,3.40198-12.45898,4.53571l18.12292,16.98932h-5.66394l-16.98938-16.98932h-2.26514v16.98932h-4.53015
	V220.32712L1404.69543,220.32712z M1413.75586,238.45163h-4.53027v-14.72247h5.66382c3.39673,0,5.66187,0,7.927,1.13171
	c2.26526,1.12445,4.53186,3.40778,4.53186,5.6582c0,2.27063-1.13306,4.53015-3.39856,5.67322
	C1422.81641,237.31473,1419.41968,238.45163,1413.75586,238.45163L1413.75586,238.45163z"/>
</svg>
