<?xml version="1.0" encoding="utf-8"?>
<!-- Generator: Adobe Illustrator 24.0.0, SVG Export Plug-In . SVG Version: 6.00 Build 0)  -->
<svg version="1.1" id="Слой_1" xmlns="http://www.w3.org/2000/svg" xmlns:xlink="http://www.w3.org/1999/xlink" x="0px" y="0px"
	 viewBox="0 0 1500 600" style="enable-background:new 0 0 1500 600;" xml:space="preserve">
<style type="text/css">
	.st0{fill:#FD8912;}
	.st1{fill:#F84A0C;}
	.st2{fill:#101479;}
	.st3{fill:#FFFFFF;stroke:#999999;stroke-miterlimit:10;}
</style>
<g>
	
		<rect x="781.3" y="110.9" transform="matrix(0.7071 -0.7071 0.7071 0.7071 117.6966 663.976)" class="st0" width="158.1" height="158.1"/>
	
		<rect x="537.2" y="60.2" transform="matrix(0.4821 -0.8761 0.8761 0.4821 180.4044 677.0787)" class="st1" width="251.4" height="251.4"/>
	
		<rect x="348.2" y="52.1" transform="matrix(0.7071 -0.7071 0.7071 0.7071 13.0668 387.176)" class="st0" width="251.4" height="251.4"/>
	<g>
		<g>
			<path class="st2" d="M483.3,285.2c-7.8,0-15.5-1.5-22.8-4.5c-7.9-3.2-12.9-8.5-13.8-14.6c-0.8-5.4,1.6-10.6,6.7-14.6
				c3-2.4,8-4.1,12.4-4.1c2.3,0,4.3,0.5,5.9,1.4c-0.2-0.2-0.3-0.4-0.5-0.6c-0.3-0.4-0.5-0.7-0.8-1c-1.9-2.5-2.8-5.3-3.6-7.8
				c-0.3-0.8-0.5-1.6-0.8-2.3c-0.2-0.6-0.6-1.3-0.9-2.1c-1.1-2.3-2.4-5.2-2.3-8.5c0.6-12.8-1.9-25.1-4.6-38.1
				c-2.1-10.3-4.3-20.9-4.8-31.9c0-1-0.3-2.1-0.5-3.3c-0.3-1.4-0.6-3.1-0.6-4.8c-0.1-1.3-0.1-2.6-0.2-3.8c-1.2,0.3-2.6,0.8-3.7,1.1
				c-2.3,0.7-4.6,1.8-7,2.9c-2.3,1.1-4.7,2.2-7.3,3c-4.8,1.6-9.6,3-14.3,4.4c-2.3,0.7-4.8,1.4-7.1,2.1c-0.8,0.2-1.6,0.4-2.4,0.6
				c-0.4,0.1-1,0.2-1.4,0.3c-3.6,4.4-8.2,6.7-13.7,6.7c-4.1,0-8.1-1.3-11-2.2c-6.4-2-10.9-6.7-11.9-12.3c-1-5.4,1.4-10.8,6.3-14.6
				c5.7-4.4,13-8,22.8-11.3c9.9-3.3,20.1-6.2,29.9-9c5.7-1.6,11.6-3.3,17.4-5c2.5-0.7,2.9-1.6,2.7-3.7c-0.7-9.7,4.4-16.5,13.6-18.3
				c1.4-0.3,2.7-0.4,3.9-0.4c7.1,0,12.3,4.2,15.4,12.3c0.3,0.2,0.7,0.4,1,0.6c18.2-3.4,36.4-7.2,54-11.2c2.3-0.5,4.2-0.8,6-0.8
				c6.6,0,11.1,3.5,13.5,10.3c2,5.8,1.9,11.1-0.2,15.3c-1.8,3.7-5.1,6.3-9.4,7.7c-3,1-6.1,1.5-9,2.1l-0.3,0.1
				c-4.7,0.9-9.4,1.8-14.1,2.7c-12.5,2.3-25.4,4.8-38,7.5c-0.4,0.4-1.1,1.2-1.2,1.7c-0.3,4.9-0.1,9.8,0.1,14.9
				c0.1,2.5,0.2,5,0.2,7.6c0,0.4,0,0.7,0.1,1c0.6,0,1.3-0.1,2.1-0.3c8.5-1.4,17.2-2.9,26.1-2.9c9,0,17.1,1.5,24.7,4.7
				c21.7,9.1,31.6,24.1,32.1,48.4c1,9.8-2.8,20.3-10.8,29.7c-13.4,15.8-32.4,35-60.2,42.6C495,284.3,489.1,285.2,483.3,285.2z
				 M491.8,192.5c0,0.3,0.2,0.7,0.4,1.2c0.8,1.6,1.8,4,1.8,6.7c0,10.2,2.4,18.9,7.5,27.1c3.6,5.7,3.9,12.7,0.8,18.7
				c13.7-6,24.8-15.9,32.2-28.7c3.2-5.5,3.8-11.5,1.6-16.4c-2.1-4.6-6.4-7.8-12.1-9.1c-3.2-0.7-6.9-1-11.1-1
				c-4.9,0-10.1,0.5-15.1,0.9c-1.8,0.2-3.6,0.3-5.4,0.5C492.1,192.4,491.9,192.4,491.8,192.5z"/>
			<path class="st3" d="M469,94.3c5.4,0,8.4,3.6,10.4,9.3c0.6,1.7,4,3.7,6,3.7c0.2,0,0.3,0,0.5,0c18.3-3.4,36.6-7.2,54.8-11.3
				c1.8-0.4,3.4-0.6,4.8-0.6c4.1,0,6.6,1.9,8.2,6.5c2.7,7.9,0.5,13.8-6.1,15.8c-2.8,0.9-5.8,1.4-8.7,2c-17.6,3.4-35.3,6.5-52.8,10.2
				c-2.2,0.5-5,4.2-5.1,6.5c-0.5,7.7,0.2,15.4,0.3,23.2c0.1,4.8,1.7,6.5,5.3,6.5c1,0,2.1-0.1,3.4-0.3c8.4-1.4,16.8-2.9,25.2-2.9
				c7.4,0,14.9,1.1,22.5,4.3c19.2,8.1,28.3,20.6,28.7,43.6c1,9.3-3.2,18.4-9.4,25.7c-15.6,18.4-33.4,34.2-57.5,40.8
				c-5.3,1.5-10.7,2.2-16.1,2.2c-7,0-13.9-1.3-20.7-4.1c-11.2-4.5-13.8-13.3-5.7-19.8c2.1-1.6,5.9-2.9,8.9-2.9
				c1.3,0,2.4,0.2,3.2,0.7c4.5,2.7,9,3.8,13.3,3.8c6.8,0,13.3-2.5,19.6-5c15.8-6.3,28.7-17.2,37.3-32.1c8.3-14.3,2.1-30.3-14.2-33.7
				c-4-0.8-8.1-1.1-12.2-1.1c-6.9,0-14,0.8-20.9,1.4c-4.7,0.4-7.4,4-4.8,9.4c0.6,1.3,1.2,2.8,1.2,4.3c0,10.8,2.4,20.5,8.4,30.1
				c5.9,9.4-1.5,21.2-12.7,21.4c0,0,0,0-0.1,0c-3.1,0-6.6-5-9.3-8.3c-1.8-2.3-2.4-5.6-3.5-8.5c-1-2.8-3-5.6-2.8-8.3
				c1.2-24.1-8.3-46.7-9.4-70.5c-0.1-2.7-1-5.4-1.1-8.1c-0.3-7.1-0.4-9.6-3.4-9.6c-1.6,0-4,0.7-7.8,1.9c-5,1.5-9.5,4.3-14.5,5.9
				c-7,2.4-14.2,4.3-21.3,6.4c-2.1,0.6-5,0.8-6.1,2.2c-2.9,3.9-6.3,5.1-9.7,5.1c-3.1,0-6.2-1-9.3-1.9c-8.9-2.8-11.1-11.6-3.8-17.2
				c6.1-4.7,13.7-7.9,21.2-10.4c15.5-5.1,31.4-9.3,47.1-14c4.4-1.3,7.1-4.2,6.7-9.4c-0.5-6.5,2.4-11.2,9.1-12.5
				C467.1,94.4,468.1,94.3,469,94.3 M469,83.2c-1.6,0-3.3,0.2-5,0.5c-7.7,1.5-12,5.6-14.2,8.8c-2.7,3.8-4,8.5-3.9,13.7
				c-5.3,1.6-10.7,3.1-16,4.6c-9.9,2.8-20.1,5.7-30.1,9c-10.5,3.5-18.2,7.3-24.5,12.2c-6.6,5.1-9.7,12.6-8.4,20
				c1.4,7.7,7.2,14,15.7,16.7c4.1,1.3,8.1,2.5,12.7,2.5c6.5,0,12.2-2.5,16.7-7.2c0.7-0.2,1.5-0.3,2.4-0.6c2.3-0.7,4.7-1.4,7.1-2.1
				c4.8-1.4,9.7-2.8,14.6-4.5c2.8-1,5.4-2.1,7.8-3.2c1.2-0.5,2.3-1.1,3.4-1.5c0.1,0.7,0.2,1.4,0.4,2.1c0.2,1,0.4,2,0.4,2.6
				c0.5,11.4,2.8,22.2,4.9,32.7c2.6,12.7,5.1,24.6,4.5,36.7c-0.2,4.7,1.5,8.4,2.8,11.1c0.3,0.7,0.6,1.3,0.8,1.7
				c0.2,0.5,0.4,1.2,0.7,2c0.1,0.4,0.2,0.7,0.4,1.1c-4.4,0.7-8.8,2.5-11.9,5c-6.6,5.3-9.8,12.5-8.7,19.8c1.2,8.1,7.5,15.1,17.2,19
				c8,3.2,16.3,4.9,24.9,4.9c6.2,0,12.6-0.9,19-2.6c29.3-8,49.1-27.9,63-44.4c8.9-10.5,13.1-22.4,12.1-33.6
				c-0.3-13.4-3.3-24.2-9.2-33c-5.8-8.6-14.4-15.2-26.3-20.2c-8.3-3.5-17.1-5.2-26.8-5.2c-7.9,0-15.5,1.1-22.9,2.3
				c0-0.8-0.1-1.5-0.1-2.3c-0.2-4-0.3-7.9-0.2-11.7c11.6-2.4,23.4-4.6,34.8-6.8c4.6-0.9,9.4-1.8,14.2-2.7l0.3-0.1
				c3-0.6,6.3-1.2,9.7-2.3c5.8-1.8,10.2-5.5,12.7-10.5c2-3.9,3.7-10.5,0.5-19.6C560.3,85.9,551,84,545.8,84c-2.2,0-4.5,0.3-7.2,0.9
				c-16.4,3.7-33.3,7.2-50.2,10.4c-1.3-2.7-2.9-4.9-4.8-6.7C479.4,85.2,474.4,83.2,469,83.2L469,83.2z M499.3,197.4
				c4.8-0.4,9.3-0.8,13.7-0.8c3.8,0,7.1,0.3,9.9,0.9c4,0.9,6.9,2.9,8.2,5.9c1.4,3.2,1,7.4-1.4,11.4c-5,8.6-11.7,15.7-19.8,21.1
				c-0.3-3.9-1.5-7.7-3.7-11.2c-4.6-7.4-6.7-14.9-6.7-24.1C499.6,199.4,499.5,198.4,499.3,197.4L499.3,197.4z"/>
		</g>
		<g>
			<path class="st2" d="M473,580.1c-10.7,0-19.4-8.2-19.6-18.4c-0.1-6.1,0.4-12.1,0.8-18c0.2-3,0.4-6.2,0.6-9.2l0.3-6.7
				c0.6-12,1.2-24.3,1.5-36.5c0.4-12.1,0.5-25,0.6-39.5c0-0.5,0-1,0-1.3c-0.4,0.1-0.9,0.2-1.4,0.4l-1.1,0.3
				c-6.2,1.7-12.6,3.5-19.2,4.4c-1.1,0.2-2.2,0.2-3.3,0.2c-8.8,0-15.6-5.3-16.5-12.8c-1-8,5.4-15,15.5-17.1
				c3.7-0.7,7.5-1.6,11.2-2.5c2.7-0.7,5.6-1.3,8.4-1.9c0.4-0.1,0.8-0.2,1.2-0.3c5.4-1.1,5.9-1.5,6.2-4.6c0.7-6.6,9.6-10.9,14-11.7
				c0.4-0.1,0.9-0.1,1.3-0.1c5.9,0,10.9,6.8,12.2,9.1c0.2,0.3,0.3,0.5,0.4,0.7c0.2,0,0.5-0.1,0.9-0.2c7-2,14.4-4.1,22.1-5.4
				c10.2-1.6,20.5-2.9,30.6-4.1c2-0.2,4-0.5,5.9-0.7c2-0.2,4.1-0.5,6.1-0.8c6-0.8,12.1-1.7,18.3-1.7c0.7,0,1.5,0,2.2,0
				c6,0.2,12.2,4.5,15.7,8.7c2.9,3.5,3.7,7.9,2.3,12.1c-1.6,4.6-5.8,8.2-11,9.4c-1.4,0.3-2.7,0.5-4,0.5c-0.5,0-1.1,0-1.6-0.1
				c-2.3-0.3-3.9-0.4-5.2-0.4c-2.4,0-2.9,0.4-2.9,0.4c-0.5,0.5-1.3,2.8-1,12.3c0.1,3.2-0.4,6.3-0.9,9.2c-0.4,2-0.7,3.9-0.8,5.7
				c-0.6,12.1-0.8,22.7-0.9,32.4c0,13.8,0.2,27.9,0.4,41.5l0.1,6.9c0,1.7,0.2,3,0.6,4.1c3.8,10.8,1.1,17.4-9.2,22.5
				c-1.9,1-4,1.5-6.2,1.5c-6.3,0-12.4-4-16-10.5c-1-1.8-3-6.3-0.6-9.9c1.7-2.6,1.3-5.2,0.5-9.6c-0.4-2.4-0.9-4.8-0.9-7.5
				c0.1-21.2,0.5-42.8,0.9-63.6c0.1-7.1,0.3-14.2,0.4-21.3c0-1,0.1-1.9,0.2-2.7c0.1-0.8,0.2-1.6,0.1-2.2c-0.1-3-0.7-3.7-0.7-3.8l0,0
				c0,0-0.3-0.2-1.3-0.2c-0.5,0-1.1,0.1-1.8,0.2c-6.6,1-13.4,2.1-19.9,3.3c-5.8,1-11.7,2-17.6,2.9c-2.3,0.4-3,0.5-3,4.2
				c0.1,13,0.1,26.2,0.1,38.9c0,4.8,0,9.6,0,14.4c0,0.5,0,1.1-0.1,1.6l-0.1,0.9c0,0.2,0,0.4,0,0.6c0,10.1,0.4,19.8,0.7,29.3
				c0.4,9.7,0.8,19.7,0.8,30.1c0,8.9-6.6,16-15.4,16.4C473.7,580.1,473.3,580.1,473,580.1z"/>
			<path class="st3" d="M570,407.5c0.7,0,1.4,0,2,0c4,0.1,8.9,3.4,11.6,6.7c3.9,4.7,0.6,11.1-5.6,12.5c-0.9,0.2-1.9,0.3-2.8,0.3
				c-0.3,0-0.6,0-0.9-0.1c-2.3-0.3-4.2-0.4-5.9-0.4c-8.4,0-10,3.9-9.5,18.4c0.2,4.8-1.5,9.6-1.7,14.4c-0.5,10.9-0.8,21.8-0.9,32.7
				c0,16.1,0.3,32.3,0.5,48.4c0,2,0.3,4,0.9,5.8c2.8,8.1,1.4,11.8-6.4,15.7c-1.2,0.6-2.4,0.9-3.7,0.9c-4.1,0-8.5-2.8-11.1-7.6
				c-0.7-1.2-1.4-3.3-0.8-4.2c4.5-6.7,0.6-13.5,0.6-20.2c0.1-28.3,0.8-56.5,1.4-84.8c0-1.7,0.4-3.5,0.3-5.2
				c-0.2-6.3-2.4-9.3-7.6-9.3c-0.8,0-1.7,0.1-2.6,0.2c-12.6,1.9-25,4.3-37.6,6.2c-5.9,0.9-7.8,4.2-7.7,9.8
				c0.2,17.8,0.1,35.5,0.1,53.3c0,0.4,0,0.7,0,1.1l-0.1,0.9c0,0.4-0.1,0.8-0.1,1.1c0,20.4,1.5,38.9,1.5,59.4
				c0,5.9-4.3,10.5-10.1,10.8c-0.2,0-0.4,0-0.7,0c-7.4,0-13.9-5.4-14-12.9c-0.1-8.9,0.9-17.9,1.4-26.9c0.7-14.4,1.4-28.8,1.9-43.3
				c0.4-13.2,0.5-26.4,0.6-39.6c0-5.3-0.8-7.2-3.7-7.2c-1.2,0-2.8,0.3-4.8,0.9c-6.5,1.8-13,3.6-19.6,4.6c-0.9,0.1-1.7,0.2-2.5,0.2
				c-6,0-10.4-3.3-11-7.9c-0.6-5.1,4-9.5,11-10.9c6.6-1.3,13.1-3,19.7-4.5c5.6-1.2,10.9-1.7,11.8-9.8c0.3-2.7,5.9-6.1,9.4-6.8
				c0.1,0,0.2,0,0.3,0c2.3,0,5.9,3.6,7.4,6.2c1.4,2.6,2.8,3.6,4.8,3.6c0.8,0,1.8-0.2,2.9-0.5c7-2.1,14.2-4,21.4-5.2
				c12-1.9,24.2-3.3,36.3-4.8C554.2,409,562.1,407.5,570,407.5 M570,396.4c-6.6,0-12.9,0.9-19.1,1.7c-2.1,0.3-4,0.6-6,0.8
				c-2,0.2-3.9,0.5-5.9,0.7c-10.1,1.2-20.5,2.4-30.8,4.1c-6.8,1.1-13.4,2.8-19.7,4.6c-3.1-4.1-8.6-8.9-15.1-8.9
				c-0.8,0-1.5,0.1-2.2,0.2c-3.3,0.6-7.1,2.2-10.3,4.4c-5.8,4-7.7,8.4-8.2,11.6c-0.6,0.1-1.3,0.3-1.9,0.4c-0.4,0.1-0.8,0.2-1.3,0.3
				c-2.9,0.6-5.7,1.3-8.5,2c-3.8,0.9-7.4,1.8-11,2.5c-5.6,1.1-10.4,3.5-14,7c-4.5,4.4-6.6,10.3-5.9,16.2c0.7,5.3,3.5,10,7.9,13.3
				c3.9,2.9,8.8,4.4,14.1,4.4c1.3,0,2.7-0.1,4.1-0.3c5.3-0.8,10.4-2,15.4-3.3c-0.1,12.1-0.2,23-0.5,33.3c-0.4,12.1-1,24.4-1.5,36.4
				c-0.1,2.2-0.2,4.5-0.3,6.7c-0.1,3-0.4,5.9-0.6,9.1c-0.4,6-0.9,12.1-0.8,18.5c0.1,6.7,2.9,12.9,8,17.4c4.7,4.2,10.8,6.5,17.1,6.5
				c0.4,0,0.8,0,1.2,0c5.7-0.3,11-2.7,14.9-6.8c3.8-4.1,5.9-9.4,5.8-15.1c0-10.5-0.4-20.6-0.8-30.3c-0.4-9.4-0.7-19.2-0.7-29.1v-0.1
				l0.1-0.9c0.1-0.7,0.1-1.4,0.1-2.1c0-4.8,0-9.6,0-14.4c0-12.4,0-25.2-0.1-37.9c5.4-0.8,10.8-1.8,16-2.7c5.6-1,11.4-2,17.1-2.9
				c-0.1,0.8-0.2,1.7-0.2,2.7c-0.1,7.1-0.3,14.2-0.4,21.3c-0.4,20.9-0.9,42.4-0.9,63.7c0,3.2,0.5,6,1,8.5c0.7,3.5,0.8,4.8,0.3,5.5
				c-2.9,4.3-2.7,10.2,0.3,15.7c4.5,8.3,12.5,13.4,20.9,13.4c3.1,0,6-0.7,8.7-2.1c4.1-2.1,9.9-5.6,12.5-12.1s0.9-13-0.6-17.3
				c-0.1-0.2-0.3-0.9-0.3-2.3l-0.1-6.9c-0.2-13.6-0.4-27.6-0.4-41.4c0-9.6,0.3-20.1,0.8-32.2c0.1-1.4,0.4-3.1,0.7-5
				c0.5-3,1.1-6.5,1-10.3c-0.1-3.2-0.1-5.4,0-6.9c0.8,0.1,1.8,0.1,3,0.3c0.7,0.1,1.5,0.1,2.2,0.1c1.6,0,3.3-0.2,5.2-0.6
				c7.1-1.5,12.9-6.5,15.1-13c2.1-6,0.9-12.5-3.3-17.5c-4-4.8-11.5-10.5-19.8-10.8C571.6,396.4,570.8,396.4,570,396.4L570,396.4z"/>
		</g>
		<g>
			<path class="st2" d="M599.4,269.4c-1.3,0-2.8-0.1-4.2-0.4c-13.6-2.6-16.1-10.8-15.7-17.3c0.2-4.7,1.5-9.2,2.7-13
				c1.3-4.2,2.7-8.4,4.1-12.5c1.7-5,3.5-10.3,5-15.4c0-0.3-0.2-1.2-0.7-2.4c-5.7-12-3-21.2,8.6-28.8c5.8-3.8,10.3-8.6,12.1-12.9
				c3.4-8.4,6-17.5,8.4-26.2c1.3-4.5,2.6-9.1,4-13.7l0.3-1.1c1.5-4.7,3-9.6,5.7-14c3.4-5.5,9.8-15.8,22.4-15.8
				c3.1,0,6.3,0.6,9.8,1.8c1.9,0.6,4.2,0.7,6.3,0.7c0.8,0,1.6,0,2.4,0h1.3h0.3c9.5,0,15.1,5.3,16,14.8c0.5,5.2,1,10.6,1.5,15.7
				c0.6,6,1.2,12.3,1.7,18.4c0.3,3.3,1.1,4.3,4.1,5.2c6.6,1.9,11.2,6.5,12,12c0.7,4.7-1.5,9.3-5.9,12.2c-6.3,4.2-5.6,7.6-3.3,15.6
				c0.5,1.7,1,3.4,1.4,5.2c0.2,0.9,0.4,1.9,0.6,2.8c0.9,4.3,1.8,8.4,3.2,12.3c1.4,3.7,3.4,7.5,5.9,10.9c3.4,4.8,4.3,12,2.2,19.3
				c-1.9,6.9-5.9,12-11,14.2c-1.4,0.6-3,0.9-4.7,0.9c-6.8,0-15.7-5.3-18.3-13.2c-1.4-4.2-2.2-8.5-3-12.6c-0.5-2.6-1-5-1.6-7.4
				c-1-4.1-2.2-8.3-3.4-12.4c-0.7-2.4-1.4-4.9-2-7.4c-0.2-0.6-0.4-1.3-0.6-2.1c-0.7-2.3-1.5-5-1.6-7.9c0-0.5,0-0.8-0.1-1.1
				c-0.1,0-0.2,0-0.3,0c-0.3,0-0.6,0-1,0.1c-0.2,0-0.5,0-0.7,0.1c-9.7,5.3-20,8.1-30.1,10.7c-1,0.3-2.1,0.6-3.1,0.8
				c-5.1,1.4-5,9.4-3.9,15.9l0.2,1.2l-0.4,1.2c-0.2,0.8-0.5,1.7-0.8,2.7c-0.8,2.9-1.9,6.8-3.3,10.7c-1.3,3.7-2.7,7.3-4.1,10.9
				c-1.3,3.2-2.6,6.6-3.7,9.9C611.8,265.4,606.5,269.4,599.4,269.4z M656.4,137.4c-0.4,0.4-0.7,0.8-1,1.2c-0.2,0.3-0.6,1.4-0.8,2.1
				c-0.2,0.6-0.4,1.2-0.7,1.9l-2.1,5.1c-2.5,6.2-5.1,12.6-7.6,18.9c4.9-1.5,9.6-3,14.1-4.9c2.1-0.9,2.6-1.6,1.9-4.3
				c-1.3-4.6-2-9.3-2.7-13.8c-0.3-1.8-0.6-3.7-0.9-5.4L656.4,137.4z"/>
			<path class="st3" d="M652.2,101.5c2.4,0,5,0.5,8.1,1.5c2.5,0.8,5.3,1,8.1,1c1.3,0,2.5,0,3.8,0c0.1,0,0.2,0,0.3,0
				c6.6,0,9.8,3.2,10.4,9.7c1,11.4,2.3,22.8,3.3,34.2c0.4,5.4,2.7,8.4,8.1,10.1c8.3,2.5,11,9.9,4.6,14.3c-12,8.1-6.3,17.3-4.2,26.7
				c1.2,5.3,2.2,10.7,4,15.8c1.6,4.3,3.9,8.5,6.6,12.3c5,6.9,1.4,21.8-6.4,25.1c-0.7,0.3-1.6,0.5-2.5,0.5c-4.8,0-11.3-4-13-9.3
				c-2.1-6.3-2.9-13.1-4.5-19.6c-1.7-6.7-3.6-13.3-5.4-19.9c-0.8-2.8-2-5.7-2-8.5c0-4.8-2.1-6.6-6-6.6c-0.5,0-1,0-1.6,0.1
				c-0.7,0.1-1.6,0-2.2,0.4c-10.2,5.8-21.4,8.4-32.6,11.4c-8.1,2.2-9.7,11.2-8,22.1c-0.9,2.9-2.2,8.1-4,13.1
				c-2.5,7-5.4,13.8-7.8,20.8c-1.8,5.2-5.1,7.5-9.7,7.5c-1,0-2.1-0.1-3.2-0.3c-6.5-1.2-11.6-4.1-11.2-11.6c0.2-3.9,1.3-7.8,2.5-11.6
				c3-9.4,6.4-18.7,9.2-28.1c0.5-1.8-0.2-4.4-1.1-6.2c-4.8-10-2.2-15.9,6.7-21.7c5.7-3.7,11.7-9.3,14.2-15.4
				c5.3-13,8.4-26.9,12.6-40.4c1.5-4.7,2.9-9.7,5.5-13.8C639.1,107.2,643.8,101.5,652.2,101.5 M640.3,173.4c0.4,0,0.8,0,1.1-0.1
				c6.4-2,12.9-3.8,19-6.5c4.4-1.9,6.6-5.3,5.1-10.9c-1.7-6.2-2.4-12.7-3.5-19l-0.5-2c-1.2-3.7-0.7-5.2-2.3-8.4
				c-2.7,2.8-5.7,5.5-8.1,8.6c-1.2,1.5-1.6,3.6-2.4,5.4c-3.8,9.3-7.6,18.6-11.2,28c-0.5,1.2-0.6,3.2,0,4
				C638,173.1,639.3,173.4,640.3,173.4 M652.2,90.3c-15.7,0-23.5,12.5-27.2,18.5c-3.1,5.1-4.8,10.5-6.3,15.3l-0.3,1
				c-1.4,4.6-2.8,9.3-4,13.8c-2.5,9-4.9,17.6-8.2,25.6c-1.3,3.2-5.2,7.2-10,10.3c-4.3,2.8-10.4,7.5-12.9,15.1
				c-2.1,6.3-1.3,13,2.3,20.7c-1.4,4.6-3,9.2-4.5,13.7c-1.4,4.1-2.8,8.3-4.2,12.6c-1.4,4.5-2.7,9.3-3,14.4
				c-0.3,5.7,1.2,19.4,20.3,23c1.8,0.3,3.6,0.5,5.3,0.5c9.5,0,16.8-5.4,20.2-14.9c1.1-3.2,2.4-6.4,3.7-9.7c1.4-3.6,2.8-7.3,4.2-11.1
				c1.4-4,2.5-8,3.4-11c0.3-1,0.5-1.9,0.8-2.6l0.7-2.4l-0.4-2.5c-1-6.3-0.2-8.9,0.1-9.7c1-0.3,1.9-0.5,2.9-0.8
				c8.6-2.3,17.5-4.6,26.1-8.6c0.3,1.1,0.6,2.1,0.9,3c0.2,0.7,0.4,1.3,0.6,1.9c0.7,2.5,1.4,5,2.1,7.4c1.2,4.2,2.3,8.2,3.3,12.3
				c0.6,2.3,1,4.6,1.5,7.1c0.8,4.3,1.7,8.7,3.2,13.3c1.6,4.8,5,9.2,9.7,12.4c4.4,3,9.3,4.6,13.9,4.6c2.4,0,4.7-0.5,6.8-1.3
				c6.7-2.8,11.8-9.3,14.2-17.8c2.5-8.9,1.3-17.9-3.1-24.1c-2.2-3-4-6.4-5.1-9.6c-1.3-3.5-2.1-7.4-3-11.5c-0.2-0.9-0.4-1.9-0.6-2.8
				c-0.4-2-1-3.8-1.5-5.6c-0.7-2.6-1.6-5.5-1.4-6.9c0.1-0.8,1.6-1.9,2.5-2.5c6.3-4.2,9.4-10.8,8.3-17.7c-1.2-7.6-7.3-13.9-15.9-16.5
				c-0.1,0-0.1,0-0.1,0c0-0.1,0-0.2,0-0.3c-0.5-6.2-1.1-12.5-1.8-18.5c-0.5-5.1-1.1-10.5-1.5-15.7c-0.5-6.1-2.7-10.9-6.4-14.5
				c-3.8-3.6-8.9-5.4-15.1-5.4c-0.1,0-0.3,0-0.4,0c-0.4,0-0.9,0-1.3,0c-0.8,0-1.6,0-2.3,0c-0.9,0-3.3,0-4.5-0.4
				C659.7,91,655.9,90.3,652.2,90.3L652.2,90.3z M653.8,157.5c0.1-0.3,0.3-0.6,0.4-0.9c0.1,0.2,0.1,0.5,0.2,0.7
				C654.2,157.3,654,157.4,653.8,157.5L653.8,157.5z"/>
		</g>
		<g>
			<path class="st2" d="M684.8,543.9c-8.8,0-17.5-8.7-18.4-18.2c-0.3-3.9-0.2-7.7-0.1-11.4c0.1-2.6,0.2-5.1,0.1-7.5
				c-0.1-4.7-0.5-9.6-0.9-14.4c-0.1-1.6-0.2-3.1-0.4-4.7c0-0.6-0.2-1.3-0.3-2c-0.3-1.6-0.6-3.4-0.4-5.5c0.2-2.7,0.2-4,0.1-4.7
				c-0.4,0-0.9-0.1-1.7-0.1c-0.9,0-1.9,0-3.2,0.1c-0.3,0-0.5,0-0.8,0.1c-0.4,0-1,0.1-1.3,0.1c-6.7,4.2-13.6,4.7-18.2,4.7
				c-2.9,0-5.8-0.2-8.8-0.5c-0.3,0-0.6,0-0.9,0c-3.4,0-7.6,1.8-8.2,6.9c-1.4,12.2-7.4,21.6-13.1,30.6c-2.7,4.2-5.2,8.2-7.2,12.4
				c-2.6,5.4-7.3,8.3-13.1,8.3c-2.3,0-4.8-0.5-7.3-1.4c-13.2-4.7-12.4-14.3-11.4-18.2c1.4-5.7,3.9-11,6.2-15.5
				c1.4-2.7,2.9-5.3,4.3-7.8c2-3.5,4-6.7,5.3-10.1c1.5-3.7,2.3-8.3,2.2-12.6c-0.4-11.7,1.8-17.9,15.4-21.7
				c10.8-3,15.4-11.9,20.8-22.3l0.6-1.1c2.1-4.1,4.1-8.4,6.1-12.6c2.7-5.9,5.5-11.9,8.8-17.7c3.5-6.2,8.9-11.1,13.3-14.7
				c4-3.3,8.4-5,13-5c3.5,0,7.1,1,10.6,2.9c3.2,1.8,7,3.1,10.7,3.7c13,2.1,13.9,11.4,13.2,16.7c-0.3,2.3-0.4,4.6-0.6,7v1.4l0.3,4.2
				c-0.2,2.4-0.5,4.7-0.8,7c-0.7,5.6-1.3,10.8-1.1,16c0,1.1,1.6,4,3.8,5.6c7.1,5.5,8.2,10.7,7.8,14.1c-0.4,3.3-2.4,8-10,11.5
				c-3.7,1.7-4.5,3.2-4.1,7.3c0.6,5.7,1,11.6,1.4,17.2c0.3,4.6,0.6,9.4,1.1,14c0.1,1.4,0.7,3.1,1.7,5.1c5.9,11.8,3,23.2-7.7,30.6
				C689.7,543.1,687.3,543.9,684.8,543.9z M667.7,413.6c-0.7,0.5-1.9,2.6-2.6,3.8c-0.6,1-1.2,2.1-1.9,3.1
				c-5.2,7.5-10.1,15.5-14.9,23.1c-0.7,1-1.3,2.1-2,3.1c0.6-0.1,1.3-0.1,1.9-0.2l3.5-0.3c0.1,0,0.2-0.1,0.4-0.1
				c3.4-0.7,6.8-1.5,10.4-2.1c2.8-0.5,4-0.8,3.6-5.7c-0.3-4.3-0.1-8.6,0.1-12.8c0.1-1.4,0.1-2.8,0.2-4.1c0.1-1.8,0.5-3.6,0.8-5.1
				C667.4,415.5,667.7,414.4,667.7,413.6L667.7,413.6z"/>
			<path class="st3" d="M665.4,383c2.5,0,5.2,0.7,7.9,2.2c3.8,2.1,8.2,3.6,12.5,4.3c6.4,1,9.4,3.9,8.5,10.5
				c-0.5,4.2-0.6,8.5-0.9,12.7v1.9c0,0.3,0,0.5,0,0.8c-0.8,7.7-1.5,13.5-1.2,21.2c0.1,3.4,3,7.6,6,9.9c7.7,5.9,7.8,12-1.1,16.2
				c-6,2.8-8,6.6-7.3,12.9c1,10.4,1.5,20.8,2.4,31.2c0.2,2.4,1.2,4.9,2.3,7.1c4.7,9.3,2.7,17.6-5.8,23.5c-1.1,0.8-2.4,1.1-3.7,1.1
				c-5.5,0-12.2-5.9-12.8-13.1c-0.5-6.2,0.2-12.5,0-18.7c-0.2-6.4-0.8-12.9-1.3-19.3c-0.2-2.2-0.8-4.5-0.7-6.6
				c0.7-8.5-0.3-10.9-7.1-10.9c-1,0-2.2,0.1-3.6,0.2c-1.5,0.1-3.2,0.1-4.4,0.8c-4.9,3.2-10.1,4-15.5,4c-2.7,0-5.5-0.2-8.3-0.4
				c-0.4,0-0.9-0.1-1.3-0.1c-6.9,0-12.9,4.5-13.7,11.8c-1.9,16.2-13.1,27.6-19.8,41.2c-1.8,3.7-4.7,5.2-8.1,5.2
				c-1.7,0-3.6-0.4-5.4-1.1c-5.5-2-9.4-5.4-7.9-11.6c1.2-5,3.5-9.7,5.7-14.3c3.1-6.2,7.3-11.9,9.9-18.3c1.9-4.6,2.7-9.9,2.6-14.9
				c-0.3-10.3,1.3-13.3,11.3-16.1c13.6-3.7,19.1-15.1,24.8-26.1c5.2-9.9,9.2-20.4,14.8-30.1c2.9-5,7.4-9.4,12-13.1
				C658.8,384.3,662,383,665.4,383 M643.6,452.5c1.7,0,3.4-0.3,5.2-0.5c0,0.2,0.1,0.3,0.1,0.5c4.8-1,9.6-2.2,14.5-3
				c6.8-1.1,8.8-5.1,8.3-11.6c-0.4-5.4,0.1-10.9,0.2-16.4c0.1-4.6,4.2-11-2.1-13.2c-0.8-0.3-1.6-0.4-2.2-0.4c-4.6,0-6.5,5.8-8.9,9.3
				c-6.5,9.5-12.6,19.4-18.7,29.1c-2.1,3.4-1.5,5.8,2.9,6C643.1,452.5,643.3,452.5,643.6,452.5 M665.4,371.9L665.4,371.9
				L665.4,371.9c-5.9,0-11.6,2.2-16.6,6.2c-4.7,3.9-10.6,9.2-14.5,16.2c-3.4,6-6.3,12.2-9,18.1c-2,4.3-3.9,8.4-5.9,12.3l-0.6,1.1
				c-5.5,10.6-9.3,17.3-17.3,19.5c-5.6,1.5-11.9,3.9-15.9,9.7c-3.7,5.5-3.9,11.9-3.7,17.5c0.1,3.5-0.5,7.3-1.7,10.3s-3,6.1-5,9.4
				c-1.5,2.6-3.1,5.2-4.5,8.1c-2.5,5.1-5.1,10.7-6.6,16.6c-1.5,6.2-0.4,12.3,3.3,17c2.7,3.4,6.6,6,11.6,7.8c3.2,1.1,6.3,1.7,9.2,1.7
				c8,0,14.6-4.2,18.1-11.5c1.9-3.9,4.3-7.8,6.9-11.8c5.8-9.2,12.3-19.5,13.9-33c0.2-2,2-2,2.6-2l0,0c0.1,0,0.3,0,0.4,0
				c3.1,0.3,6.1,0.5,9.2,0.5c4.9,0,12.1-0.5,19.4-4.5c0,2,0.3,3.8,0.5,5.1c0.1,0.6,0.2,1.2,0.2,1.6c0.1,1.6,0.2,3.1,0.4,4.7
				c0.4,4.9,0.7,9.5,0.9,14.1c0.1,2.3,0,4.7-0.1,7.2c-0.1,3.9-0.3,7.9,0.1,12.1c0.5,6,3.3,11.8,7.9,16.3c4.6,4.5,10.4,7,16,7
				c3.6,0,7.1-1.1,10-3.1c6.4-4.4,10.7-10.3,12.4-17c1.6-6.6,0.6-13.7-2.9-20.7c-1-1.9-1.1-2.9-1.1-3.1c-0.4-4.6-0.7-9.3-1.1-13.9
				c-0.4-5.7-0.8-11.5-1.4-17.4c0-0.5-0.1-0.9-0.1-1.1c0.2-0.1,0.5-0.3,1-0.5c9.9-4.6,12.6-11.2,13.1-16s-0.8-12.1-9.9-19.1
				c-0.6-0.5-1.3-1.4-1.6-2c-0.1-4.6,0.5-9.4,1.1-14.6c0.3-2.3,0.6-4.7,0.8-7.1v-7.7l0.2-3.5c0-0.4,0.1-0.9,0.1-1.3
				c1.5-12.3-5.2-20.9-17.8-22.9c-3.1-0.5-6.2-1.6-8.9-3C674.3,373.1,669.9,371.9,665.4,371.9L665.4,371.9z M657.6,439.3
				c0.9-1.5,1.8-2.9,2.8-4.4c0,1.3,0.1,2.5,0.2,3.8C659.6,438.9,658.6,439.1,657.6,439.3L657.6,439.3z"/>
		</g>
		<g>
			<path class="st2" d="M1058.4,249.4c-20.4-1.4-36-6.1-47.7-14.5c-13-9.3-21.1-22.7-24.8-41c-0.2-1-0.4-2-0.6-3.1
				c-0.7-3.6-1.5-7.3-2.1-11c-1.4-8.3,1.3-14.2,8-17.5l-0.1-0.1c-5.2-5.8-4.9-13.1,0.7-18.9c18.1-18.8,36.9-30.1,57.6-34.6
				c2.8-0.6,5.7-0.9,8.6-0.9c11.2,0,21.4,4.3,31.2,8.4l1,0.4c15,6.3,32.2,14.3,44.8,29.4c9,10.7,11,22.5,6.1,35.8
				c-5.3,14.4-12.5,26.8-21.4,36.7c-9.5,10.5-21.4,18.6-35.2,24c-6.9,2.7-14.1,4.4-19.4,5.6c-1.9,0.4-3.6,0.8-4.9,1.2l-0.9,0.2
				L1058.4,249.4z M1029.1,150.7c2.1,6-1.5,10.3-3.5,12.7l-0.2,0.3c-5.1,6.1-8.7,10.9-8.2,16.5v0.2v0.2c0.2,21.8,15.4,37.6,36,37.6
				l0,0c3.1,0,6.2-0.4,9.4-1.1c18-4.1,32.7-15.1,43.6-32.7c4.7-7.6,6.4-13,5.3-17.1c-1.1-3.9-5.2-7.8-12.6-11.8
				c-9.2-5-19.6-8.5-29.7-11.9c-2.5-0.8-5-1.7-7.4-2.5c-2.1-0.7-4.1-1.1-6.2-1.1c-4.5,0-9.2,1.6-14.6,5c-2.2,1.4-4.6,2.3-6.8,3.1
				c-1.7,0.6-3.3,1.2-4.5,2C1029.4,150.3,1029.3,150.5,1029.1,150.7z"/>
			<path class="st3" d="M1057.9,113.4c10.4,0,20.4,4.3,30.1,8.4c15.9,6.6,31.3,14.2,42.7,27.8c7.7,9.2,9.4,18.6,5.2,30.4
				c-9.8,26.9-26.6,46.8-53.4,57.4c-8.9,3.5-18.6,5.2-23.7,6.5c-36.7-2.5-60.5-16.4-67.4-51c-0.9-4.6-1.9-9.2-2.7-13.9
				c-0.8-5-0.2-9.2,5.3-11.8c3.9-1.8,4.3-5.3,1.3-8.7c-3.6-4-2.7-8,0.6-11.3c15.3-15.9,32.9-28.3,54.7-33
				C1053,113.7,1055.5,113.4,1057.9,113.4 M1053.2,223.9c3.5,0,7-0.4,10.6-1.2c20.8-4.8,36.1-17.5,47.1-35.2
				c10.7-17.2,8.4-27.1-9.4-36.7c-11.9-6.4-25.2-10.3-38-14.8c-2.7-1-5.4-1.4-8.1-1.4c-6.1,0-11.9,2.3-17.5,5.8
				c-3.5,2.2-7.8,2.9-11.3,5.1c-1.7,1.1-4,4.6-3.5,5.5c2.5,4.1,0.3,6.4-2,9.2c-5.2,6.1-10.2,12.4-9.4,20.6
				C1011.8,206.1,1030.1,223.9,1053.2,223.9 M1057.9,102.3L1057.9,102.3c-3.3,0-6.6,0.3-9.8,1c-21.8,4.7-41.6,16.5-60.4,36.1
				c-3.4,3.6-5.5,7.8-5.9,12.1c-0.2,2.5,0,5.8,1.7,9.3c-4.1,3.7-7.5,9.9-5.8,19.9c0.6,3.8,1.4,7.5,2.1,11.2c0.2,1,0.4,2,0.6,3.1
				c3.9,19.5,13,34.5,27,44.5c12.6,9,29.2,14,50.6,15.5l1.9,0.1l1.8-0.5c1.2-0.3,2.8-0.7,4.7-1.1c5.5-1.2,12.9-2.9,20.2-5.8
				c14.6-5.8,27.1-14.3,37.2-25.5c9.5-10.4,17.1-23.4,22.6-38.5c2.8-7.8,3.6-14.9,2.4-21.9c-1.2-6.9-4.3-13.3-9.5-19.5
				c-13.4-16-31.3-24.4-46.9-30.9l-1-0.4C1081.4,106.9,1070.2,102.3,1057.9,102.3L1057.9,102.3z M1035.3,153.8
				c0.2-0.1,0.5-0.2,0.7-0.3c2.4-0.9,5-1.9,7.8-3.6c4.4-2.8,8.2-4.1,11.6-4.1c1.5,0,2.9,0.3,4.4,0.8c2.5,0.9,5,1.7,7.5,2.6
				c10.3,3.5,20.1,6.8,28.9,11.5c7.7,4.2,9.5,7,9.8,8.3c0.4,1.4,0.2,4.8-4.6,12.7c-10.2,16.5-23.3,26.3-40.1,30.2
				c-2.7,0.6-5.5,0.9-8.1,0.9c-17.4,0-30.2-13.5-30.4-32.1v-0.5v-0.5c-0.3-3.5,2.5-7.1,6.9-12.3l0.2-0.3c1.5-1.8,3.5-4.2,4.7-7.6
				C1035,157.9,1035.4,156,1035.3,153.8L1035.3,153.8z"/>
		</g>
		<g>
			<path class="st2" d="M992.1,580.6c-6.4,0-12.3-3.7-16.7-10.4c-3.1-4.8-7-12.2-7.9-20.2c-1.2-10.3-1.6-20.8-2-31
				c0-1.2-0.1-2.4-0.1-3.6c-1.1,2.3-2.2,4.6-3.2,6.9c-4.2,8.9-8.5,18.1-13.3,26.9c-4.9,9-13.3,21.3-30.1,24.3
				c-2,0.4-4.1,0.5-6.2,0.5c-13.4,0-24.8-7.3-29-18.5c-5-13.4-7.8-24.3-8.8-34.3c-1.6-17-1.2-34.3-0.7-49.3c0.2-6.6,3.1-13,6.2-18.9
				l0.1-0.1c1.7-3.3,4.9-9.4,12.1-9.4c1.7,0,3.5,0.4,5.3,1.1c5.1,2.1,9.2,6.1,11,10.7c1.4,3.6,1.3,7.5-0.3,11
				c-7.4,16-5,32.3-2.5,49.5c0.8,5.7,1.7,11.5,2.1,17.4c0.2,2,2.1,5,3.3,5.9c1.1-0.3,3.3-1.5,4.7-2.3c1.2-0.7,2.4-1.3,3.6-1.9
				c0.1-0.1,0.4-0.4,0.5-0.6c4.6-9,9.1-18.1,13.6-27c2.8-5.6,5.6-11.1,8.3-16.7c7.4-14.7,13.9-27.5,19.9-39.2
				c1.2-2.3,3.2-4.2,5.3-5.2c1.3-0.6,2.7-1.3,4.1-2.1c3.9-2.1,8.2-4.4,12.9-4.4c0.6,0,1.2,0,1.7,0.1c11.8,1.5,11.8,15.2,11.8,19.7
				c0,17-0.1,34.3-0.2,51c0,7.9-0.1,15.8-0.1,23.7c0,2,0,4.4,0.2,6.8c1.7-0.8,3.4-1.2,5.1-1.2c2.9,0,7,1.1,10.4,6.5
				c2.5,3.9,2.5,9.4,1.5,13.1c-1,3.6-3,7.3-6.1,11.5C1004,577.3,998.1,580.6,992.1,580.6z"/>
			<path class="st3" d="M984.3,445.4c0.3,0,0.7,0,1,0.1c6.4,0.8,6.9,8.4,6.9,14.2c0.1,24.9-0.2,49.8-0.3,74.7c0,2.7,0,5.5,0.3,8.2
				c0.3,3.1,1.4,5.3,3.6,5.3c0.9,0,2-0.4,3.2-1.2c1.4-0.9,2.6-1.2,3.7-1.2c2.5,0,4.4,1.9,5.7,3.9c1.4,2.2,1.6,6,0.8,8.6
				c-1,3.5-3.1,6.8-5.2,9.7c-3.6,4.8-7.8,7.3-12,7.3c-4.3,0-8.6-2.6-12-7.8c-3.4-5.3-6.4-11.6-7.1-17.8c-1.6-14.3-1.8-28.7-2.5-43.1
				c-0.1-1.9-0.2-3.7-0.3-5.6c-0.8-0.3-1.6-0.7-2.3-1c-1.4,2-3,4-4.1,6.2c-6.6,13.6-12.6,27.4-19.8,40.7
				c-5.7,10.4-13.3,19.2-26.2,21.5c-1.7,0.3-3.5,0.5-5.2,0.5c-10.2,0-20.2-5.3-23.8-14.9c-4-10.5-7.4-21.7-8.4-32.8
				c-1.5-16.1-1.2-32.4-0.7-48.5c0.2-5.6,2.9-11.4,5.6-16.5c1.5-2.9,3.3-6.6,7.2-6.6c0.9,0,2,0.2,3.2,0.7c6.1,2.6,10.4,8.7,7.8,14.2
				c-10.6,23.2-2.7,46.5-0.9,69.7c0.3,4,3.9,9.8,7.2,10.9c0.4,0.1,0.8,0.2,1.3,0.2c3.2,0,7.4-3.1,11-4.8c1.3-0.6,2.5-1.9,3.1-3.1
				c7.4-14.5,14.6-29.1,21.9-43.7c6.6-13.1,13.2-26.1,19.9-39.2c0.5-1.1,1.6-2.1,2.6-2.6C974.4,449.4,979.6,445.4,984.3,445.4
				 M984.3,434.3c-6.1,0-11.3,2.8-15.5,5.1c-1.4,0.7-2.7,1.4-3.7,1.9c-3.4,1.5-6.3,4.3-8.1,7.7c-6,11.7-12.5,24.6-19.9,39.3
				c-2.8,5.5-5.5,11.1-8.3,16.6c-4.3,8.5-8.6,17.3-13,25.9c-0.8,0.4-1.5,0.8-2.2,1.2c-0.5-5.7-1.3-11.4-2.1-16.8
				c-2.4-16.4-4.6-31.9,2.1-46.4c2.2-4.8,2.4-10.3,0.4-15.3c-2.4-6-7.5-11.1-14-13.8c-2.5-1.1-5-1.6-7.5-1.6c-3.4,0-8.4,1-12.7,5.9
				c-2.1,2.3-3.3,4.8-4.3,6.6l-0.1,0.1c-3.4,6.5-6.6,13.6-6.8,21.3c-0.5,15.1-0.9,32.7,0.7,50c1,10.5,3.9,21.8,9.1,35.7
				c2.6,7,7.5,12.7,14.1,16.7c5.9,3.5,12.9,5.4,20.1,5.4c2.4,0,4.8-0.2,7.2-0.6c8-1.4,15.2-4.9,21.3-10.4c4.7-4.2,8.9-9.7,12.7-16.8
				c2.5-4.6,4.9-9.3,7.1-13.9c0.3,4.2,0.6,8.5,1.1,12.7c1,9.1,5.4,17.3,8.8,22.6c5.4,8.3,13,12.9,21.3,12.9c7.9,0,15.3-4.2,21-11.7
				c3.6-4.8,5.8-9.1,7-13.3c1.3-4.6,1.5-11.9-2.1-17.6c-4.9-7.7-11.3-9-14.9-9.1c0-7.9,0.1-15.9,0.1-23.6
				c0.1-16.8,0.2-34.1,0.2-51.1c0-3.8-0.2-8.3-1.7-12.5c-2.4-7.2-7.9-11.8-15-12.7C985.9,434.3,985.1,434.3,984.3,434.3L984.3,434.3
				z"/>
		</g>
		<g>
			<path class="st2" d="M872.3,267.8c-9.7,0-18-6.5-20.2-15.7c-1.8-7.6-2.6-15.3-3.3-22.8c-0.3-2.6-0.5-5.3-0.8-7.9
				c-0.2-1.7,0.2-3.2,0.4-4.1c0-0.1,0.1-0.3,0.1-0.4c-3.6-19.4-1.3-38.5,1-57.1l0.1-1c0.2-1.6-0.1-3.5-0.5-5.6
				c-0.2-1.1-0.4-2.2-0.5-3.4c-0.1-0.9-0.2-1.9-0.4-2.8c-0.3-2.1-0.6-4.3-0.7-6.6c0-10.3,5-17.5,13.4-19.3c1-0.2,2.1-0.3,3.1-0.3
				c8.7,0,14.4,7.5,15.6,15c1.8,11.3,3.3,24.1,1,37c6.3-7.1,14-12.4,23-15.7c5.8-2.1,9.4-5.2,11.6-10c3.5-7.4,10.1-11.6,18.2-11.6
				c0.9,0,1.9,0.1,2.9,0.2c8.9,1.1,15,7.7,15.4,17c0.2,5.2-2.4,12.6-7.1,16c-8.9,6.4-18.3,12.4-27.4,18.2c-4.2,2.7-8.5,5.4-12.7,8.2
				c-3.8,2.5-8.2,5.4-12.2,8.7c-0.7,0.5-1,1-1.1,1.2c0.2,0.2,0.5,0.5,1.1,0.9c16.5,10.8,34.7,20.9,56.3,21.6c0.3,0,0.7,0,1,0
				c3.4,0,6.9-0.6,10.6-1.2c2.7-0.4,5.5-0.9,8.4-1.2c2.4-0.2,5.2-0.4,8-0.4c2.5,0,4.7,0.2,6.8,0.5c9.9,1.7,15.9,8.1,15.7,16.9
				c-0.2,9.2-7.3,16-16.7,16.3c-3.9,0.1-8,0.3-11.9,0.4c-6.2,0.3-12.7,0.5-19.1,0.5c-8.2,0-15-0.4-21.4-1.4
				c-13.5-2-26.3-6.6-37.9-13.5c0.1,2-0.2,4.3-1.3,6.9c-0.2,0.5-0.4,0.9-0.5,1.4c-2.3,5.8-5.8,14.5-16.8,15.2
				C873.1,267.8,872.7,267.8,872.3,267.8z"/>
			<path class="st3" d="M864.1,126.2c5.7,0,9.3,5.5,10,10.2c2.3,14.7,3.8,29.6-1.3,44.3c-0.7,1.9,0.2,4.4,0.3,6.6
				c2-1,4.9-1.5,5.9-3.2c6.4-10.3,15.1-17.7,26.5-21.9c6.5-2.4,11.6-6.2,14.7-12.9c2.6-5.5,7.2-8.4,13.2-8.4c0.7,0,1.5,0,2.2,0.1
				c6.9,0.8,10.2,5.9,10.5,11.8c0.2,3.8-1.9,9.2-4.8,11.2c-12.9,9.2-26.5,17.5-39.8,26.2c-4.3,2.8-8.7,5.8-12.7,9.1
				c-4.4,3.6-4.4,7.9,0.4,11.1c18,11.8,37,21.7,59.1,22.5c0.4,0,0.8,0,1.2,0c6.5,0,13-1.8,19.5-2.4c2.5-0.2,5-0.4,7.5-0.4
				c2,0,4,0.1,5.9,0.4c6.1,1,11.2,4.6,11,11.2c-0.2,6.5-5,10.7-11.3,10.8c-10.2,0.3-20.6,1-30.9,1c-6.9,0-13.8-0.3-20.5-1.3
				c-18.1-2.7-35.3-10.4-49.7-22.6c-1.3-1.1-2.6-2.2-4.1-3.1c-0.2-0.1-0.4-0.2-0.7-0.2c-0.5,0-1,0.1-1.4,0.1
				c-0.6,0.6-1.3,1.1-1.9,1.7c2,2.4,3.7,5,6,7c4.4,3.7,9.6,6.7,6.7,14c-2.5,6.1-4.4,12.6-12.5,13.1c-0.3,0-0.6,0-0.9,0
				c-6.6,0-13.1-4.1-14.8-11.4c-2.3-9.8-2.9-20-4.1-30.1c-0.2-1.4,0.8-3,0.5-4.4c-3.7-19-1.2-37.9,1.1-56.8
				c0.4-3.4-0.6-6.9-0.9-10.4c-0.3-3-1-5.9-1-8.9c0-6.5,2.5-12.4,9-13.8C862.8,126.3,863.4,126.2,864.1,126.2 M864.1,115
				c-1.4,0-2.8,0.1-4.2,0.4c-11.1,2.3-17.9,11.8-17.9,24.8c0,2.7,0.4,5.2,0.7,7.4c0.1,0.9,0.3,1.8,0.4,2.6c0.1,1.3,0.3,2.6,0.5,3.7
				c0.2,1.5,0.5,3.3,0.4,4.1l-0.1,1c-2.3,18.6-4.7,37.8-1.2,57.6c-0.3,1.3-0.6,3.1-0.3,5.3c0.3,2.6,0.6,5.2,0.8,7.8
				c0.8,7.7,1.6,15.6,3.5,23.5c2.8,11.8,13.3,20,25.6,20c0.5,0,1.1,0,1.6,0c6.4-0.4,11.9-3.1,15.9-7.9c2.9-3.5,4.4-7.3,5.7-10.7
				c0.2-0.4,0.4-0.9,0.5-1.3c0.1-0.2,0.1-0.3,0.2-0.5c10.3,5.1,21.4,8.7,33,10.4c6.7,1,13.7,1.5,22.2,1.5c6.5,0,13-0.3,19.3-0.5
				c3.9-0.2,7.9-0.3,11.8-0.4c12.5-0.3,21.9-9.5,22.2-21.7c0.2-6.3-2.3-12.1-6.8-16.2c-3.5-3.2-8.2-5.4-13.5-6.3
				c-2.4-0.4-4.9-0.6-7.8-0.6c-3.1,0-6,0.2-8.5,0.4c-3.1,0.3-6,0.7-8.9,1.2c-3.5,0.6-6.8,1.1-9.7,1.1c-0.3,0-0.5,0-0.8,0
				c-18-0.7-33.8-8.4-48.3-17.4c2.4-1.7,4.8-3.3,7.1-4.8c4.2-2.7,8.5-5.5,12.6-8.1c9.1-5.8,18.5-11.8,27.6-18.3
				c6.6-4.7,9.8-14.1,9.5-20.8c-0.6-12-8.7-21-20.3-22.3c-1.2-0.1-2.4-0.2-3.5-0.2c-10.2,0-18.9,5.6-23.3,14.9
				c-1.6,3.5-4.1,5.5-8.5,7.2c-5.2,1.9-9.9,4.4-14.3,7.4c0-8.6-1.1-16.8-2.3-24.4C883.6,124.9,875.9,115,864.1,115L864.1,115z"/>
		</g>
		<g>
			<path class="st2" d="M824.8,579.9c-0.7,0-1.5-0.1-2.2-0.2c-4.8-0.8-11.3-3.3-15.4-8.1c-10.2-12-13-25.9-8.1-40.3l0.1-0.2
				c2.2-6.3,2.7-8.8,0-11.7c-2.3-2.5-2.2-5.8-2.2-8c0-0.3,0-0.6,0-0.8c0-11.8,0-23.6,0-35.4c0-8.3,0-16.6,0-24.9c-0.3,0-0.5,0-0.8,0
				c-17.5,1.5-36.2,3.1-55.1,4.3c-0.4,0-0.7,0-1.1,0c-6.3,0-12.2-3.7-15.5-9.7c-3.2-5.7-3.2-12.1,0-17.2c2.6-4.2,8.6-7.5,13.7-7.5
				h0.1c6.4,0.1,12.7,0.4,18.9,0.8c6.5,0.4,13.2,0.8,19.7,0.8c0.5,0,1,0,1.5,0c5.3,0,10.9-1.6,16.7-3.2c0.6-0.2,1.1-0.3,1.7-0.5
				c0.1-0.1,0.1-0.3,0.1-0.4c0.2-7.7,5.6-13.1,13.2-13.1c0.3,0,0.6,0,0.9,0c5.4,0.3,11.3,3.2,14.3,7c1.1,1.3,1.5,1.7,1.7,1.8h0.1
				c0.3,0,0.9-0.1,2.1-0.4c3.2-0.9,6.5-1.8,9.7-2.7c17.7-4.9,35.9-10,55.2-10c0.5,0,1.1,0,1.6,0l0,0c0.4,0,1.4-0.3,2.1-0.5
				c1.3-0.4,2.8-0.9,4.6-1c0.7,0,1.5-0.1,2.3-0.2c1.5-0.2,3.2-0.4,4.8-0.4c3,0,5.3,0.7,7.2,2c4.4,3.2,9.2,9.4,9.3,15.4
				c0.1,5-2.5,11.3-15.1,13.1c-18.1,2.6-36.9,5.6-57.3,9.1c-4.2,0.7-8.4,1.8-12.8,3c-3.3,0.9-6.7,1.8-10.2,2.5
				c-1.9,0.4-2.1,0.5-2.1,2.9c0.1,10.1,0.1,20.3,0.1,30.2c0,2.1,0,4.2,0,6.3h0.1l0.1,5.5c0,3.3,0,6.7,0,10c0,9.2,0,18.7,0,28.1
				c0,2.2,0,4.8,0.6,6.7c2.7,9.7,5.6,19.6,8.4,29.1l0.1,0.5c1.1,3.8,0.3,8-2.2,11.4C833.1,577.8,829,579.9,824.8,579.9z"/>
			<path class="st3" d="M909.6,404.2c1.5,0,2.9,0.2,3.9,0.9c3.4,2.5,7,7.2,7,11c0.1,5.1-5.1,6.7-10.4,7.5
				c-19.2,2.7-38.4,5.8-57.5,9.1c-7.8,1.4-15.4,3.9-23.2,5.5c-4.8,1-6.6,3.6-6.5,8.4c0.1,14,0.1,27.9,0.1,41.9h0.1
				c0,12.7,0,25.4,0,38.1c0,2.7,0,5.5,0.8,8.1c2.7,9.9,5.7,19.8,8.6,29.7c1.3,4.5-2.6,9.8-7.8,9.8c-0.4,0-0.8,0-1.3-0.1
				c-4.3-0.7-9.3-3-12.1-6.3c-8.6-10.1-11.5-21.9-7-34.9c2.1-6,4.1-11.8-1.1-17.5c-0.9-1-0.7-3.3-0.7-5c0-20.1,0.1-40.2,0.1-60.3
				c0-4.1-2-5.5-5.5-5.5c-0.4,0-0.9,0-1.4,0.1c-18.3,1.6-36.6,3.1-55,4.3c-0.2,0-0.5,0-0.7,0c-8.7,0-15.4-10.9-10.8-18.3
				c1.6-2.6,5.9-4.9,9-4.9l0,0c12.9,0.1,25.8,1.6,38.6,1.6c0.5,0,1,0,1.5,0c7-0.1,14.1-2.3,21-4.2c1.4-0.4,3-3.4,3-5.2
				c0.1-5.4,3.6-7.8,7.6-7.8c0.2,0,0.4,0,0.6,0c3.6,0.2,8.1,2.2,10.3,5c2.1,2.7,3.6,3.9,6.2,3.9c1,0,2.1-0.2,3.6-0.6
				c20.8-5.6,41.5-12.5,63.4-12.5c0.5,0,1,0,1.5,0h0.1c2.4,0,4.7-1.4,7.1-1.5C905,404.6,907.5,404.2,909.6,404.2 M909.6,393
				L909.6,393c-2,0-3.8,0.2-5.5,0.4c-0.8,0.1-1.5,0.2-2,0.2c-2.4,0.2-4.4,0.8-5.8,1.2c-0.3,0.1-0.7,0.2-0.9,0.3c-0.4,0-0.8,0-1.2,0
				c-20.1,0-38.7,5.2-56.7,10.2c-2.8,0.8-5.6,1.6-8.4,2.3c-4.2-4.6-11.1-7.9-17.7-8.3c-0.4,0-0.8,0-1.2,0c-9.3,0-16.4,5.9-18.3,14.6
				c-4.8,1.3-9.4,2.4-13.5,2.5c-0.5,0-0.9,0-1.4,0c-6.3,0-12.7-0.4-19.4-0.8c-6.2-0.4-12.7-0.8-19.2-0.8h-0.1
				c-6.9,0-14.8,4.4-18.4,10.1c-4.3,6.8-4.3,15.4-0.2,22.9c4.3,7.7,12.1,12.5,20.4,12.5c0.5,0,1,0,1.5,0c17.1-1.2,34-2.5,50-3.9
				c0,6.3,0,12.5,0,18.7c0,11.6,0,23.6,0,35.5c0,0.2,0,0.4,0,0.7c-0.1,2.5-0.2,7.8,3.6,11.9c0.2,0.2,0.3,0.3,0.3,0.4
				c0.1,1-0.9,3.9-1.5,5.6l-0.1,0.2c-2.8,8.3-3.4,16.5-1.7,24.4c1.6,7.6,5.2,14.7,10.8,21.3c5.1,5.9,13,9.1,18.7,10
				c1,0.2,2.1,0.3,3.1,0.3c6,0,11.7-2.9,15.4-7.8c3.6-4.8,4.7-10.9,3.1-16.3l-0.2-0.6c-2.8-9.5-5.7-19.3-8.4-28.9
				c-0.3-1.2-0.4-3.5-0.4-5.3c-0.1-9.3,0-18.8,0-28c0-3.3,0-6.7,0-10v-11.1h-0.1c0-0.2,0-0.5,0-0.7c0-9.2,0-18.7,0-28.1
				c2.8-0.6,5.5-1.4,8.1-2c4.3-1.1,8.4-2.2,12.4-2.9c20.3-3.5,39-6.5,57.1-9.1c3-0.4,7.3-1.2,11.2-3.5c5.7-3.3,8.8-8.8,8.7-15.2
				c-0.2-8.4-6.3-15.9-11.6-19.8C917.3,394.1,913.9,393,909.6,393L909.6,393z"/>
		</g>
		<g>
			<path class="st2" d="M777.4,225.8c-10.2,0-19.3-5.1-26.1-9.5c-19.3-12.6-28.4-29.3-27.1-49.7c0.8-34.7,17.8-61.7,50.7-80.2
				c4.5-2.5,9.3-3.8,14.2-3.8c7.3,0,14.3,2.9,20,8.4c8.8,8.5,13.5,19.7,14.1,33.4c0.2,4.3-1.1,14.4-15.9,15.6
				c-0.7,0.1-1.3,0.1-2,0.1c-8.1,0-13.7-4.6-15.4-12.7c-0.3-1.3-0.3-2.5-0.4-3.6c0-0.7-0.1-1.3-0.2-1.8c-0.1-0.6-0.7-3.7-2.5-3.7
				c-0.7,0-1.7,0.4-2.6,1c-14.7,10-23.3,24.7-26.5,44.9c-1.2,7.5,8.2,22.3,16,25.3c1.3,0.5,2.9,0.8,4.5,0.8c1.3,0,2.6-0.2,3.6-0.5
				c10.3-3.7,16.8-8.2,21.2-14.8c4.1-6.2,14.4-9.6,22.1-9.6c4.2,0,7.6,0.9,10.1,2.7c4.2,3,6.3,11,4.1,15.6
				c-2,4.3-5.6,10.2-11.2,14.3c-11.2,8.2-22.8,16-34.5,23C788.5,224.3,783.1,225.8,777.4,225.8z"/>
			<path class="st3" d="M838.4,163.8c-3.5-2.5-8-3.8-13.4-3.8c-9,0-21.2,3.8-26.7,12.1c-3.7,5.5-9.2,9.3-18.4,12.6
				c-0.2,0.1-0.8,0.2-1.7,0.2c-1.1,0-2.1-0.2-2.6-0.4c-1.7-0.6-5.3-3.5-8.7-8.7c-3.2-5-4-9.1-3.8-10.5c2.7-17,9.6-29.7,20.9-38.7
				c0.1,0.7,0.2,1.4,0.3,2.2c2.2,10.6,10.2,17.1,20.9,17.1c0.8,0,1.6,0,2.4-0.1c16-1.4,21.3-12,21-21.4
				c-0.6-15.2-5.9-27.7-15.8-37.2c-6.5-6.6-14.9-10.1-23.6-10.1c-5.8,0-11.5,1.5-16.9,4.6c-34.7,19.5-52.7,48-53.5,84.8
				c-0.7,11.7,1.7,22.6,7.3,32.1c5,8.5,12.5,16.1,22.3,22.4c7.5,4.9,17.5,10.4,29.1,10.4c6.6,0,13-1.8,19-5.4
				c11.8-7.1,23.6-15,34.9-23.3c6.4-4.7,10.6-11.5,12.9-16.4C847.7,179.3,844.8,168.3,838.4,163.8z M834,181.4
				c-2.2,4.6-5.4,9.3-9.4,12.2c-11,8.1-22.4,15.7-34.1,22.7c-4.5,2.7-9,3.8-13.3,3.8c-8.2,0-15.9-4-23-8.6
				c-15.9-10.3-25.9-24.7-24.5-44.7c0.7-34.9,18.4-59,47.9-75.6c3.9-2,7.8-3,11.6-3c5.8,0,11.4,2.4,16.1,6.9
				c8.3,8,11.9,18.3,12.3,29.6c0.3,7-4.7,9.4-10.8,9.9c-0.5,0-1,0.1-1.5,0.1c-5.2,0-8.8-2.6-10-8.3c-0.4-1.7-0.2-3.5-0.5-5.2
				c-0.9-5.2-4-8.3-8-8.3c-1.8,0-3.8,0.6-5.8,2c-17.1,11.7-25.8,28.8-28.9,48.6c-1.7,10.4,9.5,27.6,19.5,31.4
				c1.9,0.7,4.2,1.1,6.5,1.1c1.9,0,3.8-0.3,5.4-0.9c9.4-3.4,18.1-8.1,23.9-16.9c2.7-4.1,10.9-7.1,17.4-7.1c2.8,0,5.2,0.5,6.9,1.7
				C833.7,174.2,835,179.3,834,181.4z"/>
		</g>
	</g>
</g>
</svg>
