<?xml version="1.0" encoding="utf-8"?>
<!-- Generator: Adobe Illustrator 24.0.0, SVG Export Plug-In . SVG Version: 6.00 Build 0)  -->
<svg version="1.1" id="Слой_1" xmlns="http://www.w3.org/2000/svg" xmlns:xlink="http://www.w3.org/1999/xlink" x="0px" y="0px"
	 viewBox="0 0 1500 600" style="enable-background:new 0 0 1500 600;" xml:space="preserve">
<style type="text/css">
	.st0{fill-rule:evenodd;clip-rule:evenodd;fill:#F7BB02;}
	.st1{fill-rule:evenodd;clip-rule:evenodd;fill:#B82479;}
	.st2{fill-rule:evenodd;clip-rule:evenodd;fill:#55A83A;}
	.st3{fill-rule:evenodd;clip-rule:evenodd;fill:#1C65AE;}
	.st4{fill-rule:evenodd;clip-rule:evenodd;fill:#197E3D;}
	.st5{fill-rule:evenodd;clip-rule:evenodd;fill:#703079;}
	.st6{fill-rule:evenodd;clip-rule:evenodd;fill:#E14924;}
</style>
<g>
	<path class="st0" d="M249.20576,221.62323l-43.938-68.89709l4.25063-12.15741l94.78847-20.25647
		c4.19324-0.90814,6.40332,1.05896,4.00269,5.49054l-51.76974,95.50165C254.30948,225.3985,251.20738,224.75671,249.20576,221.62323
		z"/>
	<path class="st1" d="M251.90443,178.64032v-57.40228c0-4.61487-1.45357-7.71906-6.32077-8.20477l-64.34117-6.57312
		c-4.88123-0.49225-6.16682,2.87964-5.72678,6.96252l7.34961,68.71826c0.37151,3.66339,2.09273,6.30908,6.88646,6.06403
		l56.29321-2.75317C250.45087,185.23627,251.90443,183.22791,251.90443,178.64032z"/>
	<path class="st2" d="M235.06393,387.44751L235.06393,387.44751c6.89529,0,12.49408,5.59357,12.49408,12.51044
		c0,6.89111-5.59879,12.47797-12.49408,12.47797c-6.90282,0-12.49953-5.58685-12.49953-12.47797
		C222.56441,393.04108,228.16112,387.44751,235.06393,387.44751L235.06393,387.44751z M103.57854,419.39844L103.57854,419.39844
		c37.58142-11.56543,77.06061-24.08026,114.63736-35.61871c5.14188-1.72644,7.33353-3.71637,7.26939-12.72388l2.26071-93.49561
		l42.14331-21.7879c10.87592-5.61438,3.08109-18.66791-6.62555-13.78284l-42.02156,21.19708
		c-5.01831,2.52863-8.71622,8.31927-8.9709,13.89679l-0.69679,14.28485L62.10709,303.80493
		c-7.83379,0.64905-9.89926,7.8382-7.79251,13.57666L89.2438,412.1402C90.76124,416.24652,95.9906,421.72095,103.57854,419.39844
		L103.57854,419.39844z M162.20749,422.43408c13.22281,0,23.93179,10.72223,23.93179,23.92664
		c0,13.22333-10.70898,23.94995-23.93179,23.94995c-13.22334,0-23.92947-10.72662-23.92947-23.94995
		C138.27802,433.15631,148.98415,422.43408,162.20749,422.43408z"/>
	<path class="st3" d="M126.6043,210.85449l-10.63007,45.58215L66.9369,279.17633c-3.78489,1.76538-3.64054,5.21533-0.57764,6.91449
		l38.49603,21.33856l-8.67259,64.07611c-0.42628,3.19092,2.27679,5.20886,5.68784,1.70074l50.46026-51.8866l52.04051,9.99585
		c6.34802,1.21942,5.87787-3.08807,4.6834-5.51361L184.75218,276.703l37.96825-59.91248
		c2.51979-3.9549,0.30037-6.30231-3.33498-4.8371l-62.44186,25.12524l-24.60057-28.16528
		C129.12851,205.22638,127.22321,208.19348,126.6043,210.85449z"/>
	<path class="st2" d="M359.9827,108.0882l-8.26865,4.66779l-11.52936-2.04962c-2.88635-0.52545-3.19324,0.2796-2.68024,2.36816
		l1.91931,8.0119l-9.72507,8.54022c-1.63449,1.44885-1.13269,3.25708,1.4079,3.14075l14.91003-0.74329l7.71228,8.20038
		c1.40579,1.49982,2.73035,0.87335,3.3721-0.66901l4.52582-10.62799l16.37762-5.00037
		c2.54703-0.77496,2.31805-2.50085,0.48132-3.07849l-14.84412-4.70026l0.21133-6.24707
		C363.98306,106.09149,361.95419,106.97833,359.9827,108.0882z"/>
	<path class="st4" d="M93.60632,301.17999l11.24899,6.23383l-8.66532,64.09167c-0.43797,3.20258,2.25551,5.19928,5.67823,1.69836
		l50.46571-51.88861l52.0374,10.00232c6.34569,1.21057,5.88072-3.09949,4.68858-5.52295l-16.28207-32.86041L93.60632,301.17999z"/>
	<path class="st5" d="M251.90443,178.64032v-46.82233c-15.57541,3.26019-31.14796,6.53577-46.72131,9.8053
		c-3.66104,0.50415-3.78255,5.09851-2.46683,7.29431l23.96114,37.47626l19.36757-0.94208
		C250.45087,185.23627,251.90443,183.22791,251.90443,178.64032z"/>
	<path class="st6" d="M476.76187,311.88379L476.76187,311.88379c-3.96661,16.62115-18.97998,26.91217-31.39383,26.91217
		c-7.64844,0-12.40298-3.43469-12.40298-11.60229c0-4.48248,1.58209-8.45276,4.75455-11.61194
		c5.53491-5.53625,16.09879-8.43219,32.95981-8.43219h7.12946L476.76187,311.88379L476.76187,311.88379z M643.65027,314.52924
		l16.34515-73.86218c-9.49969-2.37781-24.789-4.75244-38.24573-4.75244c-20.57324,0-35.7403,5.17407-47.22107,18.20709
		c-19.37433,22.04028-25.17694,54.73816-34.97467,71.06122c-4.43835,7.38647-26.70837,11.17554-33.51489,8.55579
		c-0.05215,0.18976,1.66464-9.53009,3.42508-16.30469l3.7023-14.25006c2.10675-9.23883,4.20703-19.25958,4.20703-27.96674
		c0-32.70746-27.42566-39.30261-49.58017-39.30261c-16.35037,0-33.24615,3.95905-47.21432,9.75879l4.74493,25.07098
		c12.12778-5.01099,24.25995-8.17981,35.33475-8.17981c16.37112,0,21.10721,6.33032,21.10721,15.82593
		c0,1.05219-0.25156,3.41803-0.52466,5.27478l-11.87076,0.25909c-22.92944,0-43.51666,4.48169-56.45081,16.09363
		c-8.4462,7.64526-13.48035,17.93396-13.48035,32.44604c0,20.04773,13.48035,34.07324,35.10785,34.07324
		c15.31659,0,29.55264-8.75281,38.51678-21.14093c2.00812,15.63434,15.0087,21.71887,30.2905,21.29254
		c20.29126-0.59161,55.22491-6.97864,66.26129-30.51349c9.64404-20.53632,17.04663-44.12439,28.39709-60.70581
		c4.24335-6.19202,10.27496-10.00702,17.67725-10.00702c1.05457,0,2.62805,0,3.69141,0.27081l-11.3476,50.63208
		c-3.72076,16.66888-2.52423,38.12946,7.00122,53.28326l32.54858-12.02234
		C638.95959,343.40643,640.69482,327.8559,643.65027,314.52924z"/>
	<path class="st6" d="M738.39331,311.88379L738.39331,311.88379c-3.97339,16.62115-19.00281,26.91217-31.39172,26.91217
		c-7.65497,0-12.40741-3.43469-12.40741-11.60229c0-4.48248,1.58649-8.45276,4.75244-11.61194
		c5.54584-5.53625,16.08197-8.43219,32.97308-8.43219h7.11621L738.39331,311.88379L738.39331,311.88379z M944.79987,314.52924
		l16.34595-75.4422H927.6452l-34.28021,40.35565c-4.2254,4.74725-11.35278,12.92688-15.84619,19.78632h-0.52258
		c-6.85425-20.31177-15.04114-41.15265-23.99799-60.14197h-27.42566c-6.08612,32.44843-13.17065,67.31561-21.89545,83.12
		c-4.59668,8.28992-27.59961,16.39398-36.24048,13.29211c0.61212-5.43549,2.11426-12.16827,3.65454-18.06512l3.68597-14.25006
		c2.12311-9.23883,4.22571-19.25958,4.22571-27.96674c0-32.70746-27.42804-39.30261-49.57813-39.30261
		c-16.36151,0-33.24408,3.95905-47.23273,9.75879l4.75244,25.07098c12.13867-5.01099,24.26569-8.17981,35.33887-8.17981
		c16.37555,0,21.11401,6.33032,21.11401,15.82593c0,1.05219-0.27002,3.41803-0.52466,5.27478l-11.86353,0.25909
		c-22.96472,0-43.526,4.48169-56.46478,16.09363c-8.44391,7.64526-13.49438,17.93396-13.49438,32.44604
		c0,20.04773,13.49438,34.07324,35.13068,34.07324c15.29376,0,29.54175-8.75281,38.51471-21.14093
		c3.81476,27.94305,57.01965,24.67426,78.49548,10.51086c15.19952-10.01636,20.60541-22.90009,26.17413-40.44702
		c2.09296-6.65771,4.06885-13.73187,5.71063-22.03583h0.52234c6.08014,14.50763,12.1366,31.91174,16.35712,44.83936h14.77557
		l22.68646-26.65302c3.96143-4.73639,10.82318-12.6496,14.51672-17.39325h0.78815
		c-6.18317,22.95306-15.42407,51.57996-0.83466,75.19299l34.03278-12.66205
		C942.17053,344.61621,940.75616,333.0993,944.79987,314.52924z"/>
	<path class="st6" d="M1191.95374,293.68628L1191.95374,293.68628c-1.03394,23.45416-15.00427,43.78204-39.02295,43.78204
		c-4.4729,0-10.28198-0.78381-15.81824-3.15405l4.88281-27.31116C1149.08118,267.96631,1193.98706,247.54419,1191.95374,293.68628
		L1191.95374,293.68628z M1038.89832,311.88379L1038.89832,311.88379c-3.96375,16.62555-18.99091,26.90985-31.39307,26.90985
		c-7.64404,0-12.3913-3.42792-12.3913-11.61841c0-4.47961,1.57715-8.43219,4.74725-11.58911
		c5.52972-5.53412,16.0827-8.45709,32.95776-8.45709h7.13672L1038.89832,311.88379L1038.89832,311.88379z M1198.2052,236.89099
		c-18.77515-3.99359-35.00635,1.33209-49.99451,22.22382c0.70361-10.27258-2.82214-19.73206-6.47888-25.34406l-29.79333,11.43304
		c3.18884,7.00146,5.10742,16.28131,3.41113,24.21375l-13.65405,63.14746c-7.58667,4.3786-31.18359,6.62012-34.11975,3.15637
		c1.35693-9.17908,5.05725-22.276,7.71899-32.54419c2.10681-9.22766,4.22034-19.25049,4.22034-27.95264
		c0-32.71478-27.43018-39.30994-49.58459-39.30994c-16.36884,0-33.23944,3.94739-47.23071,9.75647l4.75037,25.07098
		c12.14545-5.00867,24.27966-8.17749,35.35004-8.17749c16.3504,0,21.10284,6.33032,21.10284,15.82361
		c0,1.05243-0.26123,3.42474-0.51794,5.26752l-11.88428,0.271c-22.94861,0-43.526,4.48169-56.44403,16.09338
		c-8.43219,7.65491-13.49878,17.94824-13.49878,32.4411c0,20.0506,13.49878,34.07611,35.13306,34.07611
		c15.29578,0,29.53705-8.75049,38.50043-21.14093c-0.46289,7.61285,26.05469,29.86676,60.11475,16.73297l-13.88147,64.27942
		h35.38977l13.96838-64.13531c8.17725,2.93207,16.35925,4.26385,25.06348,4.26385c40.88708,0,70.06226-30.93744,71.74744-76.27893
		C1228.48071,266.48779,1220.52771,241.65021,1198.2052,236.89099z"/>
	<path class="st6" d="M1232.23596,363.85736h35.38452l10.5509-46.95758c3.44324-16.35919,8.71838-27.17047,14.51343-34.82776
		c9.23645-11.86139,18.73254-15.27942,24.52783-15.27942c6.06165,0,9.23645,3.41803,9.23645,10.01349
		c0,2.63141-0.52466,7.64294-1.83386,12.92322l-16.37109,74.12805h35.34875l10.54541-46.95758
		c3.7002-16.62268,8.97498-27.42957,14.78882-35.08685c9.22314-11.60229,18.72522-15.02032,24.52112-15.02032
		c5.802,0,8.97522,3.41803,8.97522,10.27234c0,2.37256-0.69031,7.36127-1.8479,12.66437l-10.68323,48.28729
		c-3.39551,15.32513-0.64148,27.16162,3.47803,34.72882l33.5-12.28302c-3.34253-6.96906-3.21167-14.96301-1.13708-24.56451
		l9.66772-44.85052c1.93774-9.00751,4.27991-19.79388,4.21606-27.95294c-0.17676-17.93402-11.8866-27.17773-29.55054-27.17773
		c-19.77966,0-37.71436,13.99542-48.00537,27.69385h-0.53662c-0.24927-18.2027-10.27991-27.69385-27.97327-27.69385
		c-19.23669,0-36.65247,13.45233-46.6615,27.17773h-0.52551c1.64624-10.53143-0.34607-22.10205-3.6582-29.22943l-31.35046,11.48077
		c2.87207,4.83734,3.13123,17.40729,1.82947,23.41388L1232.23596,363.85736z"/>
	<path class="st6" d="M385.78528,183.84009c-12.15503,0-47.04221-0.1449-55.5824,36.68964l-31.74872,143.32764h41.24921
		l27.85403-128.4425c2.09299-8.94806,5.27737-17.73981,20.02777-17.13696h58.12866l6.61646-34.43781H385.78528z"/>
</g>
</svg>
