<?xml version="1.0" encoding="utf-8"?>
<!-- Generator: Adobe Illustrator 24.0.0, SVG Export Plug-In . SVG Version: 6.00 Build 0)  -->
<svg version="1.1" id="Слой_1" xmlns="http://www.w3.org/2000/svg" xmlns:xlink="http://www.w3.org/1999/xlink" x="0px" y="0px"
	 viewBox="0 0 1500 600" style="enable-background:new 0 0 1500 600;" xml:space="preserve">
<style type="text/css">
	.st0{fill-rule:evenodd;clip-rule:evenodd;fill:#F1C51A;}
	.st1{fill-rule:evenodd;clip-rule:evenodd;fill:#293A81;}
</style>
<g>
	<g>
		<path class="st0" d="M1185.04968,39.94171h0.74438c0.44861,4.83173,2.32861,9.71033,0.93542,14.54779
			c4.22754,3.93845,10.20166,4.78394,15.20239,7.3902c2.04224,4.09317,2.03271,8.81711,1.50781,13.25565
			c-0.37219,1.58893-0.43909,3.71909-2.20459,4.41479c-8.51257,3.66562-18.37085,3.10632-26.52075,7.77679
			c1.0498,4.97406,0.17175,10.01944-0.98291,14.88654c-3.12061-1.07733-6.57544-1.19675-9.52417-2.61768
			c-3.27332-3.2428-2.44324-8.32465-2.48132-12.50751c-7.26245,0.54779-14.55347,1.39243-21.85413,0.64899
			c-1.63196-4.95663-1.29785-10.40024-0.09546-15.41037c2.28088-2.2666,4.93384-4.11713,7.30066-6.28906
			c-0.1145-1.34473-1.82275-1.64819-2.70081-2.43933c-0.62988-3.48615-1.04016-7.00858-0.98291-10.55493
			c0.08594-4.18271-0.16223-8.58603,1.66052-12.47675c3.25427,1.29694,6.43225,2.80844,9.43835,4.62268
			c3.55005,2.18448,6.54663,5.07611,9.56238,7.92004c3.02515-1.58899,5.71631-3.72485,8.6366-5.49222
			C1176.74707,44.95764,1181.05103,42.69104,1185.04968,39.94171L1185.04968,39.94171z M1164.31213,68.95322
			c-1.19299,0.41034-0.84937,1.73782-0.78259,2.68939c3.64551-0.67194,7.23389-1.69583,10.77454-2.80185
			c1.08789-2.21317,2.08984-4.63525,1.68909-7.1575C1171.91821,63.78943,1168.20593,66.53214,1164.31213,68.95322
			L1164.31213,68.95322z M1159.62646,116.58771c3.40686-2.48132,8.44568-2.30188,11.65247,0.44659
			c5.06738,4.18842,6.90918,11.15027,6.59424,17.49854c-0.45801,12.56653-3.57874,24.90027-7.88269,36.66901
			c-8.39819,22.98993-20.87122,44.27802-34.96655,64.21021c-13.48474,18.75452-28.64905,36.31213-45.37842,52.258
			c-14.95422,14.07159-31.14929,26.98267-49.00476,37.20453c-1.74646,0.89813-3.27332,2.3858-5.33459,2.40399
			c-0.25769-2.88013,2.99646-4.07593,4.48523-6.12878c15.46021-15.01154,29.61292-31.32007,42.55347-48.54474
			c15.13574-20.12201,28.69678-41.41687,40.4541-63.6814c11.71912-22.53162,21.75867-46.10553,27.91394-70.80347
			c1.04028-4.05115,1.7655-8.1748,2.73901-12.24402C1154.42542,122.22858,1156.51526,118.79492,1159.62646,116.58771z"/>
	</g>
	<g>
		<path class="st1" d="M110.48049,304.32941c18.60238-17.07129,43.10003-28.79938,68.69947-28.5238
			c26.84006-0.26044,52.45511,12.14136,71.97644,29.97864c27.75873,25.1095,45.88675,59.36017,56.38986,94.94238
			c3.53665,9.04858-0.93399,19.16919-7.41031,25.7066c-10.04376-26.05859-23.88522-50.81622-41.82922-72.26703
			c-17.11784-20.24091-39.10422-38.35333-65.72978-43.57452c-23.6395-4.63904-47.96873,3.81244-67.01512,17.69934
			c-29.25918,21.11365-50.18925,51.56665-67.00057,83.03058c-3.00062,5.12915-4.5931,11.19226-8.69656,15.61737
			c-0.10718-7.4259,2.51113-14.49939,4.07269-21.66486C64.01207,367.76239,81.43566,330.87854,110.48049,304.32941z"/>
		<path class="st1" d="M321.51004,278.14783c5.54224-4.01141,13.15173-2.63342,19.01608,0
			c2.35742,7.13519-1.28641,14.19348-3.06247,21.00653c-2.37305,6.90546-4.08786,14.02484-6.95099,20.74646
			c-3.91956-10.57996-7.24234-21.38922-10.45746-32.21429C319.32043,284.53265,318.07996,280.19952,321.51004,278.14783z"/>
		<path class="st1" d="M1130.77954,282.2666c20.77686-8.31378,44.57007-8.65063,65.59167-1.02594
			c23.64014,8.40576,43.72803,24.92633,59.0542,44.53925c18.34253,23.45636,31.17261,50.93951,38.92017,79.61658
			c0.47485,6.98138-2.60278,13.99426-6.99719,19.30695c-0.52026,0.07623-1.57715,0.24512-2.09741,0.33667
			c-10.59509-26.01312-24.32874-50.98511-42.67126-72.38953c-15.58667-17.68402-34.48022-33.83698-57.56897-40.40533
			c-19.03137-5.6803-39.93054-2.6947-57.47668,6.21637c-21.08325,10.39575-38.43054,27.0235-52.92981,45.28918
			c-12.00342,15.0965-22.09326,31.6322-31.03516,48.70398c-2.55676,4.85352-4.54712,10.04388-7.83911,14.49933
			c-0.73474-5.22113,1.0105-10.3042,2.11292-15.32611c7.83948-32.41309,21.15955-63.93811,42.02844-90.16559
			C1093.57471,304.81952,1110.49268,290.15173,1130.77954,282.2666z"/>
		<path class="st1" d="M357.1073,300.02704c24.49768-15.4024,54.01669-20.13361,82.495-20.76117
			c30.17752-0.41357,61.68741,6.15466,86.12335,24.72687c16.85724,12.60095,29.84119,32.30573,29.62665,53.94025
			c0.49011,18.86279-10.05939,36.66931-24.97198,47.67798c-24.97183,18.60236-57.18616,24.16034-87.70038,24.00708
			c-29.64194-0.03027-61.02902-2.21991-86.73608-18.5108c1.63824-3.52118,6.72147-5.09833,10.24295-6.65991
			c15.20383,10.48779,33.65338,14.94342,51.87314,16.26013c23.11954,1.74512,47.64752,1.54639,68.77634-9.24792
			c18.11304-8.95697,30.71353-28.0343,31.49423-48.27509c-8.26785,1.86792-16.61209,3.91956-25.15555,3.61353
			c-13.88693,0.24481-26.22748-7.41058-39.82367-8.95703c-13.85617-1.94446-27.66669,1.31677-40.98682,4.83826
			c-0.01517-3.75116,0.0611-7.487,0.29074-11.22302c13.09094-4.27142,26.91632-7.90021,40.77295-5.71063
			c12.17212,1.24005,23.11905,7.51746,35.26102,8.91058c9.95175,1.56201,19.94958-0.62756,29.65695-2.70984
			c-0.94958-19.67456-10.70258-39.11938-27.10034-50.35724c-15.8772-10.96252-35.7049-14.30048-54.67502-13.93286
			c-24.09912,0.04596-48.81116,5.45068-69.12833,18.87799C364.22733,304.42145,357.8269,304.29907,357.1073,300.02704z"/>
		<g>
			<path class="st1" d="M889.84821,321.23273c13.55011-7.24231,29.2287-8.6203,44.29443-9.76819
				c17.07159-0.44397,34.23492-0.35242,51.18433,1.95953c8.48218,1.43921,17.23969,3.46039,24.17554,8.84979
				c5.58875,4.51685,8.08429,11.85059,8.05347,18.87811c0.13794,28.30994-0.04559,56.63501,0.07672,84.94458
				c-31.90778-0.06122-63.83075,0.03076-95.75391-0.06122c-13.70331-0.47437-28.06506-2.43427-39.85413-9.95178
				c-8.65063-5.31317-14.40778-15.95416-11.98853-26.13562c1.92914-10.93225,11.28424-18.78638,21.00635-23.04327
				c17.86774-7.67059,37.7262-8.1449,56.86462-7.9613c12.86096,0.0459,25.70673-0.07642,38.56769,0.07642
				c0.18408-8.55878,0.70447-17.22455-0.42822-25.73773c-1.3017-7.83899-9.3399-12.09528-16.50537-13.24371
				c-12.7077-2.28119-25.73755-1.86792-38.56775-1.13269c-7.96191,0.9032-17.11768,2.18915-22.354,8.98749
				c-2.89355,3.39868-3.10791,8.02252-3.36835,12.26367c-9.50818,0.22968-19.03125,0.1225-28.53961,0.03076
				C877.29364,331.9502,882.62152,324.93793,889.84821,321.23273L889.84821,321.23273L889.84821,321.23273z M901.82159,382.27692
				c-4.7312,9.70691-3.26123,23.08875,5.61908,29.9635c7.04272,5.64941,16.45886,6.90503,25.20154,7.22668
				c17.99005,0.0152,35.98059,0.0152,53.9707-0.01526c0-17.83734,0.24481-35.67413-0.1225-53.51141
				c-18.00568,0.18353-35.99561-0.09204-53.98621,0.13745C920.60803,366.41522,907.67017,371.23798,901.82159,382.27692z"/>
		</g>
		<path class="st1" d="M563.83466,320.22235c0.01514-2.38879,0.36719-4.74664,0.41309-7.13501
			c38.49176,0.33673,76.98309-0.13763,115.45923,0.24512c-0.01514,2.34241-0.03076,4.70032-0.04608,7.04272
			c-13.9021-0.03046-27.81976,0-41.72205,0.01563c0.0769,35.29132-0.01514,70.5827,0.06128,105.87421
			c-10.3042,0-20.6084,0-30.91229-0.06128c0.12244-35.24542,0-70.50647,0.06122-105.75171
			C592.71094,320.17645,578.27277,320.6203,563.83466,320.22235z"/>
		<path class="st1" d="M697.00824,313.3017c10.79431-0.24481,21.60364,0.03076,32.39795-0.18353
			c19.276,24.09912,37.84808,48.74957,56.81824,73.09381c4.13391,5.09833,7.59418,10.77869,12.49365,15.21899
			c20.91492-29.56555,42.16608-58.93134,63.3717-88.29767c3.26123,0.0459,6.52228,0.10718,9.79913,0.18359
			c-8.75781,14.08612-19.16937,27.08514-28.64679,40.69653c-19.27649,26.97754-38.67535,53.84821-57.95135,80.84094
			c-8.58942,11.74341-16.91852,23.68604-25.58478,35.3985c-3.18433-0.04547-6.36914-0.07623-9.53864-0.15265
			c6.66022-11.315,15.28052-21.32813,22.32324-32.39789c3.07745-4.7771,7.16547-8.88025,9.76862-13.96332
			C754.34723,386.56396,725.10382,350.35382,697.00824,313.3017z"/>
		<g>
			<path class="st1" d="M1310.54456,325.841c-0.03088-4.27142-0.18408-8.58893,0.93396-12.73846
				c10.07458,0.32153,20.16443,0.0459,30.23853,0.15308c0.15332,15.11182,0.12292,30.22345,0,45.33575
				c19.18457,0.45917,38.43066-0.64325,57.59949,0.84192c15.46423,1.89838,32.16821,5.11395,43.72803,16.41339
				c7.62463,7.30298,9.2782,19.96521,3.47559,28.83014c-3.99634,6.73682-11.00867,10.90149-17.95959,14.0246
				c-13.94824,5.74158-29.21313,7.53308-44.20264,7.59436c-24.45154,0.10718-48.90271-0.06128-73.33911,0.10718
				c-1.16345-11.63623,0.19922-23.30328-0.42834-34.93939C1310.45251,369.58441,1310.92725,347.70502,1310.54456,325.841
				L1310.54456,325.841L1310.54456,325.841z M1341.73267,365.80231c0.15283,17.8985,0.03052,35.78192,0.06128,53.67999
				c14.17773-0.04565,28.35547,0.03076,42.51807,0c10.31934-0.15283,21.25159-2.25043,29.12109-9.41589
				c9.38586-8.43671,9.96753-24.52795,1.45483-33.77588c-6.47681-7.3186-16.59692-10.25812-26.10522-10.38092
				C1373.10461,365.71075,1357.41089,365.92523,1341.73267,365.80231z"/>
		</g>
	</g>
</g>
</svg>
