<?xml version="1.0" encoding="utf-8"?>
<!-- Generator: Adobe Illustrator 24.0.0, SVG Export Plug-In . SVG Version: 6.00 Build 0)  -->
<svg version="1.1" id="Слой_1" xmlns="http://www.w3.org/2000/svg" xmlns:xlink="http://www.w3.org/1999/xlink" x="0px" y="0px"
	 viewBox="0 0 1500 600" style="enable-background:new 0 0 1500 600;" xml:space="preserve">
<style type="text/css">
	.st0{fill:#2B2A29;}
	.st1{fill:#A32A7E;}
</style>
<g>
	<path class="st0" d="M209.5,250c-13.66797,0-26.08276,5.33441-35.30249,14.02234L209,301h-50.98737
		C158.01105,301.1673,158,301.33234,158,301.5c0,28.44263,23.05731,51.5,51.5,51.5s51.5-23.05737,51.5-51.5
		C261,273.05731,237.94269,250,209.5,250z"/>
	<path class="st1" d="M50.00989,90c0,0-9.23629,99.54663,62.60148,124.1767c71.83778,24.63013,112.88792,4.10504,201.14577,65.68024
		c0,0,9.2363-57.47021-86.20531-95.44159S102.34883,144.39145,50.00989,90z"/>
	<g>
		<path class="st1" d="M313.87445,299.38007c-5.60461-3.87042-11.01404-7.40137-16.24823-10.62476
			C298.52722,293.87018,299,299.13074,299,304.5c0,49.90186-40.59808,90.5-90.5,90.5c-49.90186,0-90.5-40.59814-90.5-90.5
			c0-23.67682,9.1438-45.255,24.08008-61.40033c-0.5788-0.1413-13.27673-0.65845-19.03534-0.44885
			C110.44342,260.02966,103,281.39172,103,304.5c0,58.26605,47.23395,105.5,105.5,105.5S314,362.76605,314,304.5
			C314,302.7832,313.95557,301.07678,313.87445,299.38007z"/>
	</g>
	<g>
		<path class="st0" d="M475.9292,311.59082c0,29.51855-16.73926,48.23828-42.6582,48.23828
			c-26.09912,0-42.83838-19.0791-42.83838-48.77832c0-29.33887,17.09961-48.77832,43.01855-48.77832
			C459.18994,262.27246,475.9292,281.53223,475.9292,311.59082z M397.8125,311.05078
			c0,25.91895,13.85938,42.47852,35.63867,42.47852c21.23926,0,34.91846-16.55957,34.91846-41.93848
			c0-26.09863-13.85938-43.01855-35.09863-43.01855S397.8125,285.67188,397.8125,311.05078z"/>
		<path class="st0" d="M552.06787,312.31055c-3.6001,1.44043-20.15918,7.01953-31.31885,7.01953
			c-20.33887,0-29.51855-8.45898-29.51855-30.23828v-24.11914h7.19971v25.37891c0,17.63965,8.63965,22.49902,22.49902,22.49902
			c10.97949,0,26.45898-5.21973,31.13867-7.37988v-40.49805h7.19971v92.15625h-7.19971V312.31055z"/>
		<path class="st0" d="M646.38721,357.12891l-39.23828-49.67773l-20.15918,18.89941v30.77832h-7.19971v-92.15625h7.19971v52.91797
			l55.97754-52.91797h9.89941l-40.49805,37.79883l43.19824,54.35742H646.38721z"/>
		<path class="st0" d="M729.00635,274.33203h-0.17969l-57.05762,82.79688h-8.81982v-92.15625h7.19971v83.15625h0.18018
			l56.87744-83.15625h8.99951v92.15625h-7.19971V274.33203z"/>
		<path class="st0" d="M883.625,357.12891h-78.83594v28.97852h-7.2002V350.8291h10.7998
			c9.35938-19.0791,12.95898-52.37793,12.95898-77.93652v-7.91992h56.87793v85.85645h12.59961v35.27832h-7.2002V357.12891z
			 M828.54785,271.27246v7.01953c0,23.21875-4.31934,55.79785-12.59961,72.53711h55.07715v-79.55664H828.54785z"/>
		<path class="st0" d="M972.54395,271.27246h-43.01855l-1.7998,49.31836c-0.90039,26.63867-8.81934,38.33789-21.41895,38.33789
			c-3.24023,0-7.91992-0.89941-10.25977-1.7998v-6.47949c2.69922,1.25977,6.2998,1.97949,10.08008,1.97949
			c9.71875,0,14.03906-13.31934,14.75879-32.75879l1.97949-54.89746h56.87793v92.15625h-7.19922V271.27246z"/>
		<path class="st0" d="M1061.82129,318.25h-27.17871c-2.16016,0-4.13965,0-6.11914-0.17969l-30.41895,39.05859h-9.36035
			l31.31934-40.13867c-15.83984-3.23926-22.13965-15.29883-22.13965-26.09863c0-18.89941,14.58008-25.91895,33.11914-25.91895
			h37.97852v92.15625h-7.2002V318.25z M1032.12305,271.27246c-15.83984,0-26.81934,6.12012-26.81934,19.61914
			c0,15.65918,13.13965,21.05957,27.53906,21.05957h28.97852v-40.67871H1032.12305z"/>
		<path class="st0" d="M1139.22461,357.12891v-92.15625h39.41797c16.01953,0,32.03906,5.39941,32.03906,22.67871
			c0,10.97949-7.74023,18.71973-19.61914,20.33984v0.17969c13.67871,1.25977,21.95898,10.0791,21.95898,21.95898
			c0,18.35938-15.83984,26.99902-34.37891,26.99902H1139.22461z M1146.78418,271.27246v34.01855h26.99902
			c10.97949,0,29.69824-2.87988,29.69824-17.63965c0-11.87891-13.85938-16.37891-25.91895-16.37891H1146.78418z
			 M1146.78418,311.59082v39.23828h30.77832c15.83984,0,28.0791-7.19922,28.0791-20.69922
			c0-15.47949-17.45898-18.53906-31.8584-18.53906H1146.78418z"/>
		<path class="st0" d="M1309.50098,356.40918c-2.51953,0.89941-4.5,1.08008-7.37988,1.08008
			c-8.09961,0-10.61914-3.60059-10.61914-15.47949v-4.5c-7.74023,15.11914-18.35938,22.13867-35.99902,22.13867
			c-19.0791,0-30.41895-9.53906-30.41895-25.73828c0-20.87988,17.63965-26.81934,35.2793-28.25879
			c24.11914-1.98047,26.81836-2.33984,29.33887-6.2998c1.0791-1.62012,1.25977-5.40039,1.25977-9.54004
			c0-13.85938-9.17969-21.23926-26.09961-21.23926c-17.09863,0-26.45801,8.45996-27.89844,24.65918h-6.83984
			c1.25977-19.97949,13.85938-30.77832,35.45898-30.77832c11.87891,0,21.59863,3.41992,27.3584,9.89941
			c5.40039,6.11914,5.21973,13.67969,5.21973,21.41895v47.69824c0,5.39941,0,9.89941,6.66016,9.89941
			c1.62012,0,2.51953-0.17969,4.67969-0.71973V356.40918z M1284.8418,308.35059c-13.49902,4.13965-28.0791,1.98047-41.21777,7.91992
			c-6.83984,3.05957-10.7998,9.17969-10.7998,16.91895c0,12.41992,9.17969,20.15918,23.93848,20.15918
			c19.7998,0,34.37891-13.67871,34.37891-32.21777v-16.2002C1288.98145,306.91113,1288.08203,307.45117,1284.8418,308.35059z"/>
		<path class="st0" d="M1358.46289,359.8291c-28.0791,0-42.29883-21.95898-42.29883-48.41797
			c0-29.87891,16.91992-49.13867,43.19824-49.13867c21.23926,0,35.27832,11.51953,37.61914,30.95898h-7.37988
			c-1.98047-14.93945-13.31934-24.83887-30.05859-24.83887c-21.95996,0-35.99902,16.73926-35.99902,42.6582
			c0,25.73926,13.85938,42.6582,34.73828,42.6582c17.63965,0,29.87891-10.97949,32.21875-28.97852h7.2002
			C1394.82129,346.86914,1380.42188,359.8291,1358.46289,359.8291z"/>
	</g>
	<g>
		<path class="st0" d="M418.66068,445.12537h-4.64282v-31.11743h-18.57181v31.11743h-4.64282V409.9574h27.85745V445.12537z"/>
		<path class="st0" d="M453.7756,414.00793h-19.70767v11.01428h18.42374v3.90198h-18.42374v12.15063h19.95462v4.05054h-24.59744
			V409.9574h24.35049V414.00793z"/>
		<path class="st0" d="M477.23523,409.9574c6.71729,0,11.70596,2.8158,11.70596,10.12585
			c0,7.95251-5.13675,10.61975-12.00259,10.61975h-9.53259v14.42236h-4.64282V409.9574H477.23523z M467.40601,426.80103h8.93982
			c4.49475,0,7.95251-1.23474,7.95251-6.42163c0-5.63062-4.00085-6.42065-8.59448-6.42065h-8.29785V426.80103z"/>
		<path class="st0" d="M512.10419,445.96466c-10.02698,0-16.29956-7.11237-16.29956-18.3736
			c0-10.07666,5.82837-18.42371,16.64539-18.42371c6.91504,0,13.87927,3.85278,14.57092,11.3606h-4.64331
			c-1.03699-4.59363-4.79089-7.35925-10.02649-7.35925c-8.34753,0-11.85449,6.96375-11.85449,14.37317
			c0,8.93933,4.49475,14.42236,11.8053,14.42236c5.97644,0,9.63147-3.55664,10.37231-10.12585h4.64282
			C526.52704,440.77869,520.79706,445.96466,512.10419,445.96466z"/>
		<path class="st0" d="M567.86536,427.24475c0,10.32361-5.6803,18.71991-16.84314,18.71991
			c-11.26123,0-16.84265-8.59406-16.84265-18.8183c0-10.96509,6.56921-18.0282,16.79346-18.0282
			C561.88892,409.11816,567.86536,416.77356,567.86536,427.24475z M538.82239,427.4917
			c0,8.79272,4.79089,14.47253,12.24951,14.47253c7.35925,0,12.15063-5.72998,12.15063-14.47253
			c0-8.69238-4.79138-14.323-12.24951-14.323C542.67517,413.1687,538.82239,419.98486,538.82239,427.4917z"/>
		<path class="st0" d="M604.51166,445.12537h-4.64282v-16.44812h-18.57178v16.44812h-4.64282V409.9574h4.64282v14.67029h18.57178
			V409.9574h4.64282V445.12537z"/>
		<path class="st0" d="M643.77557,445.12537h-5.18597l-3.90198-10.76733h-14.76868l-4.00085,10.76733h-4.93896l13.82959-35.16797
			h5.23608L643.77557,445.12537z M627.32788,414.40344l-6.07532,16.24939h12.05176L627.32788,414.40344z"/>
		<path class="st0" d="M676.17499,445.12537h-4.64282v-31.11743h-12.99036l-0.69116,19.80603
			c-0.24695,7.06409-2.8158,12.05225-8.14978,12.05225c-0.98828,0-2.46997-0.34534-3.35889-0.69165v-3.95117
			c0.64197,0.39551,1.97559,0.4939,2.51917,0.4939c2.51868,0,4.34619-1.3833,4.59363-10.32263l0.64197-21.43726h22.07825V445.12537z
			"/>
		<path class="st0" d="M702.44995,445.12537h-15.41064V409.9574h4.64282v14.27478h10.76782
			c6.91504,0,10.81702,3.80359,10.81702,10.47119C713.26697,441.32178,709.31531,445.12537,702.44995,445.12537z
			 M700.86938,428.23352h-9.18726v12.84131h9.18726c5.13672,0,7.70508-2.07397,7.70508-6.37146
			C708.57446,430.35669,706.05579,428.23352,700.86938,428.23352z"/>
		<path class="st0" d="M749.86407,445.12537h-4.64185v-16.44812h-18.57227v16.44812h-4.64282V409.9574h4.64282v14.67029h18.57227
			V409.9574h4.64185V445.12537z"/>
		<path class="st0" d="M789.12891,445.12537h-5.18591l-3.90295-10.76733h-14.76868l-4.00037,10.76733h-4.93896l13.83008-35.16797
			h5.23608L789.12891,445.12537z M772.68079,414.40344l-6.07532,16.24939h12.05127L772.68079,414.40344z"/>
		<path class="st0" d="M797.22711,445.12537h-5.72998l11.7561-15.16321c-5.48303-0.74084-8.74353-4.05054-8.74353-9.9281
			c0-6.61841,4.24829-10.07666,11.11462-10.07666h15.11401v35.16797h-4.6438v-15.01563h-7.25989L797.22711,445.12537z
			 M816.09454,413.90955h-8.89014c-5.1377,0-8.00171,1.82703-8.00171,6.12451c0,4.34668,2.8158,6.12451,8.00171,6.12451h8.89014
			V413.90955z"/>
		<path class="st0" d="M861.92761,424.08362l15.41022,21.04175h-5.92682l-12.74292-17.88062l-5.82837,5.53223v12.34839h-4.6438
			V409.9574h4.6438v17.43591l17.83044-17.43591h6.07532L861.92761,424.08362z"/>
		<path class="st0" d="M914.92413,427.24475c0,10.32361-5.67981,18.71991-16.84265,18.71991
			c-11.26123,0-16.84265-8.59406-16.84265-18.8183c0-10.96509,6.56921-18.0282,16.79248-18.0282
			C908.9472,409.11816,914.92413,416.77356,914.92413,427.24475z M885.88068,427.4917c0,8.79272,4.79138,14.47253,12.25,14.47253
			c7.35925,0,12.15063-5.72998,12.15063-14.47253c0-8.69238-4.79138-14.323-12.25-14.323
			C889.73346,413.1687,885.88068,419.98486,885.88068,427.4917z"/>
		<path class="st0" d="M938.38232,409.9574c6.71777,0,11.70691,2.8158,11.70691,10.12585
			c0,7.95251-5.1377,10.61975-12.00305,10.61975h-9.53259v14.42236h-4.64282V409.9574H938.38232z M928.55359,426.80103h8.94031
			c4.49426,0,7.95154-1.23474,7.95154-6.42163c0-5.63062-4.00037-6.42065-8.59399-6.42065h-8.29785V426.80103z"/>
		<path class="st0" d="M973.35065,409.9574c6.71777,0,11.70691,2.8158,11.70691,10.12585
			c0,7.95251-5.1377,10.61975-12.00305,10.61975h-9.53259v14.42236h-4.64282V409.9574H973.35065z M963.52191,426.80103h8.94031
			c4.49426,0,7.95154-1.23474,7.95154-6.42163c0-5.63062-4.00037-6.42065-8.59399-6.42065h-8.29785V426.80103z"/>
		<path class="st0" d="M1017.99915,414.00793H998.2915v11.01428h18.42371v3.90198H998.2915v12.15063h19.95459v4.05054h-24.59741
			V409.9574h24.35046V414.00793z"/>
		<path class="st0" d="M1040.52063,424.08362l15.41016,21.04175h-5.92676l-12.7439-17.88062l-5.82837,5.53223v12.34839h-4.64282
			V409.9574h4.64282v17.43591l17.83044-17.43591h6.07532L1040.52063,424.08362z"/>
		<path class="st0" d="M1089.21875,445.12537h-26.81995V409.9574h4.64282v31.11743h18.17676V409.9574h4.64282v31.11743h3.85278
			v12.79315h-4.49524V445.12537z"/>
		<path class="st0" d="M1101.31726,409.9574h4.64282v29.7843h0.09937l17.23718-29.7843h5.87854v35.16797h-4.64282v-29.88269
			h-0.09937l-17.28735,29.88269h-5.82837V409.9574z"/>
		<path class="st0" d="M1141.56995,445.12537h-5.72998l11.7561-15.16321c-5.48303-0.74084-8.74255-4.05054-8.74255-9.9281
			c0-6.61841,4.24731-10.07666,11.11267-10.07666h15.11401v35.16797h-4.64282v-15.01563h-7.26086L1141.56995,445.12537z
			 M1160.43738,413.90955h-8.89014c-5.13672,0-8.00171,1.82703-8.00171,6.12451c0,4.34668,2.81482,6.12451,8.00171,6.12451h8.89014
			V413.90955z"/>
		<path class="st0" d="M1205.03577,445.91547c-8.39636,0-14.57007-3.90204-14.57007-12.39764h4.49426
			c0.19775,6.37146,4.84058,8.59497,10.47119,8.59497c4.8407,0,8.64417-2.86499,8.64417-7.36023
			c0-5.13672-4.19897-6.17371-8.89111-6.17371c-0.98779,0-2.42029,0.04919-3.16113,0.09839v-3.85181
			c0.79004,0.09839,2.37109,0.09839,3.16113,0.09839c4.44519,0,7.65637-1.53088,7.65637-6.32227
			c0-4.34668-3.60583-5.63062-7.55786-5.63062c-5.18604,0-8.19861,2.07397-8.74268,7.1615h-4.49426
			c0.29614-7.55701,5.92676-11.01428,13.38538-11.01428c6.76709,0,12.05237,2.86499,12.05237,9.4834
			c0,3.70422-2.86499,6.76697-5.82849,7.6554v0.14856c4.64294,0.8894,7.06323,4.59363,7.06323,8.44641
			C1218.71826,439.19861,1214.91467,445.91547,1205.03577,445.91547z"/>
		<path class="st0" d="M1242.17639,409.9574c6.71777,0,11.70691,2.8158,11.70691,10.12585
			c0,7.95251-5.1377,10.61975-12.00305,10.61975h-9.53259v14.42236h-4.64282V409.9574H1242.17639z M1232.34766,426.80103h8.94031
			c4.49426,0,7.95154-1.23474,7.95154-6.42163c0-5.63062-4.00037-6.42065-8.59399-6.42065h-8.29785V426.80103z"/>
		<path class="st0" d="M1286.82495,414.00793h-19.70776v11.01428h18.42383v3.90198h-18.42383v12.15063h19.95471v4.05054h-24.59753
			V409.9574h24.35059V414.00793z"/>
		<path class="st0" d="M1323.47266,445.12537h-4.64282v-16.44812h-18.57227v16.44812h-4.64282V409.9574h4.64282v14.67029h18.57227
			V409.9574h4.64282V445.12537z"/>
		<path class="st0" d="M1334.23706,409.9574h4.64282v29.7843h0.09937l17.23718-29.7843h5.87854v35.16797h-4.64282v-29.88269
			h-0.09937l-17.28735,29.88269h-5.82837V409.9574z"/>
		<path class="st0" d="M1374.48975,445.12537h-5.72998l11.7561-15.16321c-5.48303-0.74084-8.74255-4.05054-8.74255-9.9281
			c0-6.61841,4.24731-10.07666,11.11267-10.07666H1398v35.16797h-4.64282v-15.01563h-7.26086L1374.48975,445.12537z
			 M1393.35718,413.90955h-8.89014c-5.13672,0-8.00171,1.82703-8.00171,6.12451c0,4.34668,2.81482,6.12451,8.00171,6.12451h8.89014
			V413.90955z"/>
	</g>
	<path class="st0" d="M1427,244c9.92529,0,18,8.07477,18,18s-8.07471,18-18,18s-18-8.07477-18-18S1417.07471,244,1427,244 M1427,239
		c-12.70251,0-23,10.29742-23,23s10.29749,23,23,23s23-10.29742,23-23S1439.70251,239,1427,239L1427,239z"/>
	<circle class="st0" cx="1427.5" cy="262.5" r="5.5"/>
</g>
</svg>
