<?xml version="1.0" encoding="utf-8"?>
<!-- Generator: Adobe Illustrator 24.0.0, SVG Export Plug-In . SVG Version: 6.00 Build 0)  -->
<svg version="1.1" id="Слой_1" xmlns="http://www.w3.org/2000/svg" xmlns:xlink="http://www.w3.org/1999/xlink" x="0px" y="0px"
	 viewBox="0 0 100 100" style="enable-background:new 0 0 100 100;" xml:space="preserve">
<style type="text/css">
	.st0{fill:#B9CE76;}
</style>
<path class="st0" d="M50,7.6c24.5,0,44.2,20.8,42.3,45.7c-1.6,20.7-18.3,37.5-39,39C28.4,94.2,7.6,74.5,7.6,50
	C7.6,26.6,26.6,7.6,50,7.6 M50,5C24.6,5,4.1,26.1,5,51.8C5.9,75.1,24.9,94.1,48.2,95C73.9,95.9,95,75.4,95,50C95,25.1,74.9,5,50,5
	L50,5z"/>
<g>
	<circle class="st0" cx="40" cy="61.3" r="2.5"/>
	<path class="st0" d="M40,33.8v2.2c14,0,25.3,11.4,25.3,25.3h2.2C67.5,46.1,55.2,33.8,40,33.8z"/>
	<path class="st0" d="M40,41.3v2.1c9.9,0,17.9,8,17.9,17.9H60C60,50.2,51,41.3,40,41.3z"/>
	<path class="st0" d="M40,48.8v2.2c5.7,0,10.3,4.6,10.3,10.3h2.2C52.5,54.3,46.9,48.8,40,48.8z"/>
</g>
</svg>
