<?xml version="1.0" encoding="utf-8"?>
<!-- Generator: Adobe Illustrator 24.0.0, SVG Export Plug-In . SVG Version: 6.00 Build 0)  -->
<svg version="1.1" id="Слой_1" xmlns="http://www.w3.org/2000/svg" xmlns:xlink="http://www.w3.org/1999/xlink" x="0px" y="0px"
	 viewBox="0 0 100 100" style="enable-background:new 0 0 100 100;" xml:space="preserve">
<style type="text/css">
	.st0{fill:#B9CE76;}
	.st1{display:none;fill:#F763DB;}
</style>
<image style="display:none;overflow:visible;" width="331" height="360" xlink:href="C:\Users\annak\Desktop\876564.JPG"  transform="matrix(0.1768 0 0 0.1768 20.7447 16.2353)">
</image>
<path class="st0" d="M50,7.6c24.5,0,44.2,20.8,42.3,45.7c-1.6,20.7-18.3,37.5-39,39C28.4,94.2,7.6,74.5,7.6,50
	C7.6,26.6,26.6,7.6,50,7.6 M50,5C24.6,5,4.1,26.1,5,51.8C5.9,75.1,24.9,94.1,48.2,95C73.9,95.9,95,75.4,95,50C95,25.1,74.9,5,50,5
	L50,5z"/>
<path class="st1" d="M50,24.7C64,24.7,75.3,36,75.3,50S64,75.3,50,75.3S24.7,64,24.7,50S36,24.7,50,24.7 M50,22.5
	c-15.2,0-27.5,12.3-27.5,27.5S34.8,77.5,50,77.5S77.5,65.2,77.5,50S65.2,22.5,50,22.5L50,22.5z"/>
<g>
	<circle class="st0" cx="41.7" cy="53.5" r="1.7"/>
</g>
<path class="st0" d="M61.1,19.9c-5.1,0-9.3,4.1-9.3,9.3s4.1,9.3,9.3,9.3s9.3-4.1,9.3-9.3S66.3,19.9,61.1,19.9z M53.9,29.2
	c0-4,3.3-7.3,7.3-7.3c1.6,0,3.2,0.6,4.4,1.5L55.4,33.6C54.4,32.4,53.9,30.8,53.9,29.2z M61.1,36.5c-1.6,0-3.2-0.6-4.4-1.5l10.2-10.2
	c0.9,1.2,1.5,2.7,1.5,4.4C68.4,33.2,65.2,36.5,61.1,36.5z"/>
<path class="st0" d="M63.1,40.7v30.5c0,0.9-0.8,1.7-1.7,1.7H38.6c-0.9,0-1.7-0.8-1.7-1.7V28.8c0-0.9,0.8-1.7,1.7-1.7h11.2
	c0.6,0,1-0.4,1-1v0c0-0.6-0.4-1-1-1H38.6c-2,0-3.7,1.7-3.7,3.7v42.4c0,2,1.7,3.7,3.7,3.7h22.8c2,0,3.7-1.7,3.7-3.7V40.7
	c0-0.6-0.4-1-1-1l0,0C63.5,39.7,63.1,40.2,63.1,40.7z"/>
</svg>
