<?xml version="1.0" encoding="utf-8"?>
<!-- Generator: Adobe Illustrator 24.0.0, SVG Export Plug-In . SVG Version: 6.00 Build 0)  -->
<svg version="1.1" id="Слой_1" xmlns="http://www.w3.org/2000/svg" xmlns:xlink="http://www.w3.org/1999/xlink" x="0px" y="0px"
	 viewBox="0 0 100 100" style="enable-background:new 0 0 100 100;" xml:space="preserve">
<style type="text/css">
	.st0{fill:#B9CE76;}
	.st1{display:none;fill:#F763DB;}
</style>
<path class="st0" d="M50,7.6c24.5,0,44.2,20.8,42.3,45.7c-1.6,20.7-18.3,37.5-39,39C28.4,94.2,7.6,74.5,7.6,50
	C7.6,26.6,26.6,7.6,50,7.6 M50,5C24.6,5,4.1,26.1,5,51.8C5.9,75.1,24.9,94.1,48.2,95C73.9,95.9,95,75.4,95,50C95,25.1,74.9,5,50,5
	L50,5z"/>
<path class="st1" d="M50,24.7C64,24.7,75.3,36,75.3,50S64,75.3,50,75.3S24.7,64,24.7,50S36,24.7,50,24.7 M50,22.5
	c-15.2,0-27.5,12.3-27.5,27.5S34.8,77.5,50,77.5S77.5,65.2,77.5,50S65.2,22.5,50,22.5L50,22.5z"/>
<path class="st0" d="M75.9,56.5c-0.3-0.5-0.9-0.7-1.4-0.4L50.3,69.3L26.2,56.1c-0.5-0.3-1.1-0.1-1.4,0.4c-0.3,0.5-0.1,1.1,0.4,1.4
	l24.6,13.4c0.2,0.1,0.4,0.1,0.5,0.1c0.2,0,0.4,0,0.5-0.1l24.6-13.4C76,57.6,76.2,57,75.9,56.5z"/>
<path class="st0" d="M75.9,48.8c-0.3-0.5-0.9-0.7-1.4-0.4L50.3,61.6L26.2,48.4c-0.5-0.3-1.1-0.1-1.4,0.4c-0.3,0.5-0.1,1.1,0.4,1.4
	l24.6,13.4c0.2,0.1,0.4,0.1,0.5,0.1c0.2,0,0.4,0,0.5-0.1l24.6-13.4C76,49.9,76.2,49.3,75.9,48.8z"/>
<path class="st0" d="M76,41.6c0,0,0-0.1,0-0.1c0-0.3-0.2-0.6-0.5-0.8L50.9,27.3c-0.2-0.1-0.4-0.1-0.5-0.1c-0.2,0-0.4,0-0.5,0.1
	L25.2,40.7c-0.3,0.2-0.5,0.4-0.5,0.8c0,0,0,0.1,0,0.1c0,0,0,0.1,0,0.1c0,0.3,0.2,0.6,0.5,0.8l24.6,13.4C50,56,50.2,56,50.3,56
	c0.2,0,0.4,0,0.5-0.1l24.6-13.4c0.3-0.2,0.5-0.4,0.5-0.8C76,41.7,76,41.6,76,41.6z M50.3,53.9L27.7,41.6l22.6-12.3L73,41.6
	L50.3,53.9z"/>
</svg>
