<?xml version="1.0" encoding="utf-8"?>
<!-- Generator: Adobe Illustrator 24.0.0, SVG Export Plug-In . SVG Version: 6.00 Build 0)  -->
<svg version="1.1" id="Слой_1" xmlns="http://www.w3.org/2000/svg" xmlns:xlink="http://www.w3.org/1999/xlink" x="0px" y="0px"
	 viewBox="0 0 100 100" style="enable-background:new 0 0 100 100;" xml:space="preserve">
<style type="text/css">
	.st0{fill:#B8CC76;}
	.st1{display:none;fill:#F763DB;}
</style>
<path class="st0" d="M50,9c22.6,0,41,18.4,41,41S72.6,91,50,91S9,72.6,9,50S27.4,9,50,9 M50,6.5C26,6.5,6.5,26,6.5,50
	S26,93.5,50,93.5S93.5,74,93.5,50S74,6.5,50,6.5L50,6.5z"/>
<path class="st1" d="M50,24.7C64,24.7,75.3,36,75.3,50S64,75.3,50,75.3S24.7,64,24.7,50S36,24.7,50,24.7 M50,22.5
	c-15.2,0-27.5,12.3-27.5,27.5S34.8,77.5,50,77.5S77.5,65.2,77.5,50S65.2,22.5,50,22.5L50,22.5z"/>
<g>
	<path class="st0" d="M33.6,65.2c-0.5,0-1,0.5-1,1v2.1c-4.8-4.6-7.9-11.1-7.9-18.3C24.7,36,36,24.7,50,24.7c2.1,0,4.1,0.3,6.1,0.7
		c0.5-0.1,0.9-0.7,0.9-1.2c0-0.5-0.4-1-0.9-1.1c-2-0.4-4-0.7-6.1-0.7c-15.2,0-27.5,12.3-27.5,27.5c0,7.8,3.2,14.8,8.5,19.8h-1.9
		c-0.6,0-1,0.5-1,1c0,0.6,0.4,1,1,1h4.5c0.5,0,1-0.4,1-1c0,0,0-0.1,0-0.1c0,0,0-0.1,0-0.1v-4.5C34.6,65.6,34.1,65.2,33.6,65.2z"/>
	<path class="st0" d="M67.8,29.1h2c0.6,0,1-0.5,1-1c0-0.6-0.4-1-1-1h-4.5c-0.5,0-1,0.4-1,1c0,0,0,0.1,0,0.1c0,0,0,0.1,0,0.1v4.5
		c0,0.5,0.5,1,1,1s1-0.5,1-1v-2c5.5,4.6,9,11.6,9,19.3C75.3,64,64,75.3,50,75.3c-2.7,0-5.2-0.4-7.6-1.2c-0.5,0.1-0.9,0.5-0.9,1.1
		s0.4,1.1,0.9,1.2c2.4,0.7,5,1.1,7.6,1.1c15.2,0,27.5-12.3,27.5-27.5C77.5,41.6,73.7,34.1,67.8,29.1z"/>
</g>
<path class="st0" d="M60.8,39.5c0,0-0.1,0-0.1,0c-4.4,0-7.7-1.7-9.7-3.1v-0.1c0-0.5-0.4-0.9-0.9-0.9h-0.2c-0.5,0-0.9,0.4-0.9,0.9
	v0.1c0,0,0,0,0,0c-2,1.4-5.3,3.1-9.7,3.1c0,0-0.1,0-0.1,0c0,0-2.5,6.2-2,13.9c0.3,5.8,8.1,10.3,11.8,12.1c0,0.5,0.4,0.9,0.9,0.9h0.2
	c0.5,0,0.9-0.4,0.9-0.9c3.7-1.8,11.5-6.3,11.8-12.1C63.3,45.8,60.8,39.5,60.8,39.5z M49,63.2c-4-2.1-9.6-5.9-9.8-10
	c-0.3-5.2,0.8-9.7,1.5-11.8c3.5-0.3,6.3-1.5,8.3-2.6V63.2z M60.8,53.3c-0.2,4.1-5.8,7.9-9.8,10V38.8c2,1.2,4.8,2.4,8.3,2.6
	C60,43.6,61.1,48.1,60.8,53.3z"/>
</svg>
