<?xml version="1.0" encoding="utf-8"?>
<!-- Generator: Adobe Illustrator 24.1.3, SVG Export Plug-In . SVG Version: 6.00 Build 0)  -->
<svg version="1.1" id="Слой_1" xmlns="http://www.w3.org/2000/svg" xmlns:xlink="http://www.w3.org/1999/xlink" x="0px" y="0px"
	 viewBox="0 0 270 85" style="enable-background:new 0 0 270 85;" xml:space="preserve">
<style type="text/css">
	.st0{display:none;fill:#4F92A5;}
	.st1{fill:#3D3D3D;}
	.st2{fill:#7DB4C5;}
	.st3{fill:#B7CB76;}
	.st4{fill:#A1CED8;}
	.st5{fill:#429180;}
	.st6{fill:#4F92A5;}
	.st7{display:none;}
	.st8{display:inline;fill:#3D3D3D;}
</style>
<g id="Лого">
	<g>
		<g>
			<g>
				<path class="st0" d="M76.29,29.63L76.29,29.63L76.29,29.63L60.58,1.6h-0.03H35.17h-0.03L3.39,58.27h25.4l28.5-17.2l9.64,17.2
					h25.4L76.29,29.63z M50.88,29.57l-9.12,5.5l6.11-10.88L50.88,29.57L50.88,29.57z"/>
				<path class="st1" d="M60.58,1.57l31.76,56.68H66.92l-9.64-17.2l-28.5,17.18H3.39L35.15,1.57h0.03h25.38H60.58 M41.75,35.07
					l9.12-5.5l-3.02-5.38L41.75,35.07 M61.52,0h-0.94h-0.03H35.17h-0.03H34.2l-0.46,0.81L2,57.48l-1.3,2.33h2.69h25.4h0.44
					l0.38-0.24l27.08-16.34L65.53,59l0.46,0.81h0.94h25.4h2.69l-1.31-2.33L61.96,0.81L61.52,0L61.52,0z M46.05,30.63l1.81-3.22
					l0.89,1.59L46.05,30.63L46.05,30.63z"/>
			</g>
			<polygon class="st2" points="41.75,35.07 41.75,35.07 47.86,24.18 35.15,1.57 3.39,58.24 			"/>
			<polygon class="st3" points="92.34,58.24 76.27,29.57 57.29,41.04 66.92,58.24 			"/>
			<polygon class="st3" points="50.88,29.57 76.27,29.57 60.58,1.57 47.86,24.18 			"/>
			<polygon class="st4" points="50.88,29.57 41.75,35.07 41.75,35.07 28.79,58.24 57.29,41.04 			"/>
			<polygon class="st5" points="47.86,24.18 60.58,1.57 35.15,1.57 			"/>
			<polygon class="st5" points="50.88,29.57 50.88,29.57 50.88,29.57 57.29,41.04 76.27,29.57 			"/>
			<polygon class="st6" points="41.75,35.07 3.39,58.24 28.79,58.24 			"/>
		</g>
	</g>
	<g>
		<path class="st1" d="M99.06,59.77l13.85-27.71h0.09l13.7,27.25h-2.87l-2.68-5.33L99.06,59.77z M112.85,37.5l-9.33,18.6l16.51-4.3
			L112.85,37.5z"/>
		<path class="st1" d="M133.76,59.32h-2.39V39.83h2.39v9.23l8.36-9.23h2.83l-8.66,9.32l10.28,10.18h-3.17l-9.64-9.7V59.32z"/>
		<path class="st1" d="M165.69,43.62c-1.65-1.4-3.5-2.09-5.53-2.09c-1.04,0-2.05,0.19-2.98,0.56c-0.94,0.37-1.76,0.91-2.47,1.6
			s-1.26,1.54-1.69,2.53c-0.43,0.98-0.63,2.08-0.63,3.29c0,0.98,0.17,1.96,0.49,2.92c0.32,0.96,0.82,1.82,1.47,2.58
			c0.65,0.76,1.48,1.38,2.47,1.86c0.99,0.47,2.15,0.73,3.45,0.73c2.06,0,3.84-0.69,5.34-2.06l1.45,1.79
			c-0.65,0.52-1.3,0.95-1.93,1.27c-0.63,0.32-1.23,0.57-1.81,0.76c-0.58,0.19-1.13,0.3-1.65,0.35c-0.53,0.05-0.99,0.08-1.42,0.08
			c-1.72,0-3.24-0.3-4.54-0.93s-2.37-1.42-3.24-2.38c-0.87-0.96-1.52-2.06-1.94-3.27c-0.43-1.22-0.65-2.43-0.65-3.65
			c0-1.37,0.26-2.67,0.78-3.9c0.53-1.23,1.25-2.31,2.17-3.24c0.92-0.93,2.01-1.67,3.29-2.21c1.28-0.54,2.66-0.81,4.16-0.81
			c1.52,0,2.83,0.24,3.96,0.73c1.13,0.47,2.08,1.06,2.87,1.72L165.69,43.62z"/>
		<path class="st1" d="M188.41,39.35h0.2V59.3h-2.39V44.79l-13.61,14.99h-0.2V39.83h2.39v14.56L188.41,39.35z"/>
		<path class="st1" d="M193.51,49.56c0-1.42,0.27-2.75,0.8-4c0.53-1.25,1.28-2.33,2.22-3.24s2.03-1.64,3.27-2.18
			c1.25-0.52,2.58-0.79,3.97-0.79c1.4,0,2.75,0.27,3.97,0.79c1.25,0.52,2.34,1.25,3.27,2.18c0.94,0.91,1.67,1.99,2.22,3.24
			c0.53,1.25,0.8,2.58,0.8,4c0,1.4-0.27,2.72-0.8,3.97c-0.53,1.25-1.26,2.33-2.2,3.26c-0.92,0.93-2.01,1.67-3.27,2.19
			c-1.26,0.52-2.59,0.79-4.01,0.79s-2.75-0.27-4.01-0.79c-1.26-0.52-2.35-1.27-3.27-2.19c-0.92-0.93-1.65-2.03-2.2-3.26
			C193.78,52.28,193.51,50.96,193.51,49.56z M195.98,49.56c0,1.08,0.2,2.13,0.63,3.11c0.43,0.98,0.99,1.84,1.69,2.57
			c0.7,0.73,1.53,1.3,2.47,1.72c0.94,0.42,1.94,0.64,3.02,0.64c1.09,0,2.11-0.22,3.05-0.64c0.94-0.42,1.76-1.01,2.47-1.76
			c0.72-0.74,1.26-1.59,1.67-2.57c0.41-0.98,0.61-1.99,0.61-3.09s-0.2-2.13-0.61-3.11s-0.96-1.84-1.67-2.57
			c-0.7-0.73-1.53-1.3-2.49-1.72c-0.96-0.42-1.96-0.64-3.04-0.64s-2.08,0.22-3.02,0.64s-1.76,1-2.47,1.72
			c-0.7,0.73-1.26,1.57-1.69,2.55C196.19,47.42,195.98,48.45,195.98,49.56z"/>
		<path class="st1" d="M233.95,45.53l-6.69,14.24h-0.09l-6.53-14.24l-0.15,0.03V59.3h-2.39V39.83h2.39l6.65,14.51h0.15l6.81-14.51
			h2.39v19.49h-2.39V45.58L233.95,45.53z"/>
		<path class="st1" d="M240.19,59.77l13.85-27.71h0.09l13.7,27.25h-2.87L262.29,54L240.19,59.77z M254,37.5l-9.35,18.6l16.51-4.3
			L254,37.5z"/>
	</g>
	<g class="st7">
		<path class="st8" d="M4.91,73.15c-1.13,0-2.01,0.37-2.66,1.11c-0.65,0.74-0.97,1.76-0.97,3.04c0,1.32,0.31,2.35,0.94,3.07
			s1.52,1.08,2.68,1.08c0.72,0,1.53-0.14,2.44-0.39v1.03c-0.72,0.27-1.59,0.39-2.63,0.39c-1.5,0-2.66-0.46-3.48-1.35
			S0,78.94,0,77.29c0-1.05,0.2-1.96,0.6-2.73c0.39-0.78,0.96-1.38,1.71-1.81c0.75-0.42,1.62-0.64,2.63-0.64
			c1.07,0,2.01,0.19,2.81,0.57l-0.51,1.01C6.46,73.32,5.68,73.15,4.91,73.15z"/>
		<path class="st8" d="M10.3,72.24h1.11v5.62c0,1.05-0.03,1.97-0.1,2.82h0.05l5.73-8.44h1.3v10.13h-1.13V76.8
			c0-0.93,0.03-1.91,0.12-2.92h-0.07l-5.75,8.49h-1.3L10.3,72.24L10.3,72.24z"/>
		<path class="st8" d="M26.3,73.15c-1.13,0-2.01,0.37-2.66,1.11c-0.65,0.74-0.97,1.76-0.97,3.04c0,1.32,0.31,2.35,0.94,3.07
			c0.63,0.73,1.52,1.08,2.68,1.08c0.72,0,1.53-0.14,2.44-0.39v1.03c-0.72,0.27-1.59,0.39-2.63,0.39c-1.5,0-2.66-0.46-3.48-1.35
			s-1.23-2.19-1.23-3.85c0-1.05,0.2-1.96,0.6-2.73c0.39-0.78,0.96-1.38,1.71-1.81c0.75-0.42,1.62-0.64,2.63-0.64
			c1.07,0,2.01,0.19,2.81,0.57l-0.51,1.01C27.85,73.32,27.07,73.15,26.3,73.15z"/>
		<path class="st8" d="M34.83,82.37h-1.19v-9.08h-3.24v-1.05h7.67v1.05h-3.24V82.37L34.83,82.37z"/>
		<path class="st8" d="M46.01,82.37h-5.7V72.24h5.7v1.05H41.5v3.26h4.25v1.05H41.5v3.73h4.52V82.37z"/>
		<path class="st8" d="M53.52,82.37l-3.46-8.98h-0.05c0.07,0.71,0.1,1.55,0.1,2.53v6.43H49V72.23h1.79l3.24,8.35h0.05l3.27-8.35
			h1.77v10.13h-1.19v-6.51c0-0.74,0.03-1.55,0.1-2.43h-0.05l-3.5,8.96H53.52z"/>
		<path class="st8" d="M62.64,82.37V72.24h1.19v4.32h1.67c1.21,0,2.15,0.24,2.78,0.71c0.63,0.47,0.96,1.18,0.96,2.14
			c0,0.95-0.31,1.69-0.9,2.19s-1.48,0.76-2.64,0.76L62.64,82.37L62.64,82.37z M63.84,81.35h1.72c0.84,0,1.47-0.17,1.86-0.49
			c0.39-0.32,0.6-0.81,0.6-1.45c0-0.62-0.2-1.1-0.63-1.37c-0.43-0.27-1.09-0.42-2.03-0.42h-1.53L63.84,81.35L63.84,81.35z
			 M72.06,82.37h-1.19V72.24h1.19V82.37z"/>
		<path class="st8" d="M87.66,82.37h-1.19v-9.08h-5.25v9.08h-1.19V72.24h7.62L87.66,82.37L87.66,82.37z"/>
		<path class="st8" d="M97.67,75.2c0,1.03-0.36,1.81-1.06,2.36c-0.7,0.56-1.72,0.83-3.04,0.83h-1.21v3.98h-1.19V72.24h2.64
			C96.4,72.24,97.67,73.22,97.67,75.2z M92.37,77.37h1.07c1.06,0,1.82-0.17,2.29-0.51c0.48-0.34,0.7-0.88,0.7-1.62
			c0-0.68-0.22-1.16-0.67-1.5c-0.44-0.32-1.13-0.49-2.06-0.49h-1.33V77.37z"/>
		<path class="st8" d="M106.22,82.37h-5.7V72.24h5.7v1.05h-4.52v3.26h4.25v1.05h-4.25v3.73h4.52V82.37z"/>
		<path class="st8" d="M117.27,85h-1.13v-2.63h-7.11V85h-1.13v-3.7h0.78c0.72-1.2,1.33-2.65,1.84-4.35c0.51-1.7,0.8-3.27,0.85-4.69
			h4.59v9.05h1.3V85L117.27,85z M114.8,81.29v-7.98h-2.34c-0.09,1.11-0.36,2.46-0.85,4.03c-0.48,1.57-1.04,2.89-1.67,3.97h4.86
			V81.29z"/>
		<path class="st8" d="M128.6,77.29c0,1.62-0.41,2.89-1.25,3.81c-0.84,0.93-1.98,1.38-3.45,1.38c-1.5,0-2.66-0.46-3.48-1.37
			c-0.82-0.91-1.23-2.19-1.23-3.86c0-1.65,0.41-2.92,1.23-3.83c0.82-0.91,1.98-1.37,3.5-1.37c1.47,0,2.61,0.46,3.45,1.38
			C128.2,74.37,128.6,75.67,128.6,77.29z M120.44,77.29c0,1.37,0.29,2.41,0.89,3.12c0.6,0.71,1.45,1.06,2.58,1.06s2-0.35,2.58-1.06
			c0.58-0.71,0.87-1.76,0.87-3.12c0-1.37-0.29-2.4-0.87-3.11c-0.58-0.71-1.43-1.06-2.56-1.06s-2,0.35-2.59,1.06
			C120.73,74.91,120.44,75.94,120.44,77.29z"/>
		<path class="st8" d="M134.74,82.37h-1.19v-9.08h-3.24v-1.05h7.67v1.05h-3.24V82.37z"/>
		<path class="st8" d="M140.23,72.24h2.88c1.36,0,2.34,0.2,2.95,0.61c0.61,0.41,0.9,1.03,0.9,1.91c0,0.61-0.17,1.1-0.51,1.49
			c-0.34,0.39-0.84,0.64-1.48,0.76v0.07c1.55,0.27,2.34,1.06,2.34,2.43c0,0.91-0.31,1.6-0.92,2.13c-0.61,0.51-1.48,0.76-2.59,0.76
			h-3.56V72.24L140.23,72.24z M141.42,76.58h1.96c0.84,0,1.45-0.14,1.81-0.39c0.38-0.25,0.55-0.69,0.55-1.32
			c0-0.57-0.2-0.98-0.61-1.23c-0.41-0.25-1.06-0.37-1.96-0.37h-1.76v3.31H141.42z M141.42,77.57v3.78h2.13
			c0.82,0,1.45-0.15,1.86-0.47c0.41-0.32,0.63-0.81,0.63-1.49c0-0.62-0.22-1.1-0.65-1.38c-0.43-0.29-1.07-0.44-1.94-0.44H141.42z"/>
		<path class="st8" d="M156.72,75.2c0,1.03-0.36,1.81-1.06,2.36c-0.7,0.56-1.72,0.83-3.04,0.83h-1.21v3.98h-1.19V72.24h2.64
			C155.44,72.24,156.72,73.22,156.72,75.2z M151.42,77.37h1.07c1.06,0,1.82-0.17,2.29-0.51c0.48-0.34,0.7-0.88,0.7-1.62
			c0-0.68-0.22-1.16-0.67-1.5c-0.44-0.32-1.13-0.49-2.06-0.49h-1.33V77.37z"/>
		<path class="st8" d="M166,82.37l-1.28-3.22h-4.09l-1.26,3.22h-1.21l4.04-10.16h1.01l4.03,10.16H166z M164.36,78.08l-1.19-3.14
			c-0.15-0.4-0.31-0.88-0.48-1.47c-0.1,0.44-0.26,0.93-0.44,1.47l-1.21,3.14H164.36z"/>
		<path class="st8" d="M169.36,82.37V72.24h1.19v9.05h4.08v-9.05h1.21v9.05h4.09v-9.05h1.19v9.05h1.21v3.7h-1.13v-2.63h-11.85V82.37
			z"/>
		<path class="st8" d="M190.57,82.37h-5.7V72.24h5.7v1.05h-4.52v3.26h4.25v1.05h-4.25v3.73h4.52V82.37z"/>
		<path class="st8" d="M201.32,82.37h-1.19v-4.76h-5.39v4.76h-1.19V72.24h1.19v4.3h5.39v-4.3h1.19V82.37z"/>
		<path class="st8" d="M204.85,72.24h1.11v5.62c0,1.05-0.03,1.97-0.1,2.82h0.05l5.73-8.44h1.3v10.13h-1.13V76.8
			c0-0.93,0.03-1.91,0.12-2.92h-0.07l-5.75,8.49h-1.3L204.85,72.24L204.85,72.24z"/>
		<path class="st8" d="M219.52,78.13l-2.68,4.22h-1.4l2.87-4.42c-0.75-0.24-1.3-0.59-1.64-1.06c-0.34-0.47-0.51-1.08-0.51-1.81
			c0-0.91,0.32-1.6,0.96-2.09c0.63-0.49,1.59-0.73,2.87-0.73h2.81v10.13h-1.19v-4.22h-2.08V78.13z M221.6,73.25h-1.59
			c-0.85,0-1.5,0.15-1.94,0.44s-0.67,0.76-0.67,1.42c0,1.35,0.89,2.01,2.64,2.01h1.55L221.6,73.25L221.6,73.25z"/>
		<path class="st8" d="M238.11,82.37h-1.43l-4.72-5.13v5.13h-1.19V72.24h1.19v4.89l4.6-4.89h1.36l-4.52,4.91L238.11,82.37z"/>
		<path class="st8" d="M246.7,75.2c0,1.03-0.36,1.81-1.06,2.36c-0.7,0.56-1.72,0.83-3.04,0.83h-1.21v3.98h-1.19V72.24h2.64
			C245.44,72.24,246.7,73.22,246.7,75.2z M241.42,77.37h1.07c1.06,0,1.82-0.17,2.29-0.51c0.46-0.34,0.7-0.88,0.7-1.62
			c0-0.68-0.22-1.16-0.67-1.5c-0.44-0.34-1.13-0.49-2.06-0.49h-1.33V77.37z"/>
		<path class="st8" d="M256,82.37l-1.28-3.22h-4.09l-1.26,3.22h-1.21l4.04-10.16h1.01l4.03,10.16H256z M254.36,78.08l-1.19-3.14
			c-0.15-0.4-0.31-0.88-0.48-1.47c-0.1,0.44-0.26,0.93-0.44,1.47l-1.21,3.14H254.36z"/>
		<path class="st8" d="M262.12,77.15l-4.02-4.91h1.33l3.97,4.89v-4.89h1.14v4.89l3.99-4.89h1.33l-4.03,4.89l4.16,5.21h-1.36
			l-4.08-5.13v5.13h-1.14v-5.13l-4.06,5.13h-1.4L262.12,77.15z"/>
	</g>
</g>
<g>
	<path class="st1" d="M8.68,82.08l-1.4-3.56H2.73l-1.39,3.56H0l4.44-11.25h1.19l4.41,11.25H8.68z M6.89,77.36l-1.33-3.53
		c-0.03-0.09-0.08-0.24-0.15-0.45c-0.07-0.21-0.14-0.43-0.21-0.65c-0.07-0.22-0.13-0.41-0.18-0.54C4.96,72.39,4.9,72.6,4.85,72.8
		c-0.06,0.21-0.12,0.4-0.17,0.57c-0.06,0.18-0.11,0.33-0.15,0.45l-1.35,3.53H6.89z"/>
	<path class="st1" d="M21.02,82.08H19.7v-5.28h-5.97v5.28h-1.32V70.87h1.32v4.78h5.97v-4.78h1.32V82.08z"/>
	<path class="st1" d="M28.43,82.08H27.1V72.02h-3.57v-1.15h8.46v1.15h-3.56V82.08z"/>
	<path class="st1" d="M34.52,70.87h1.24v6.48c0,0.25,0,0.51-0.01,0.8c-0.01,0.29-0.01,0.57-0.02,0.85
		c-0.01,0.28-0.02,0.53-0.04,0.75c-0.01,0.23-0.02,0.4-0.03,0.52h0.06l6.33-9.4h1.45v11.21h-1.24v-6.4c0-0.27,0-0.56,0.02-0.86
		c0.01-0.3,0.02-0.6,0.04-0.89c0.01-0.29,0.03-0.54,0.04-0.77c0.02-0.23,0.03-0.4,0.03-0.52h-0.07l-6.33,9.44h-1.46V70.87z"/>
	<path class="st1" d="M55.54,82.08h-1.6l-5.22-5.69v5.69h-1.32V70.87h1.32v5.43l5.09-5.43h1.52l-5.03,5.44L55.54,82.08z"/>
	<path class="st1" d="M60.86,70.87c1.47,0,2.54,0.28,3.21,0.85c0.68,0.56,1.01,1.37,1.01,2.43c0,0.48-0.08,0.93-0.24,1.35
		c-0.16,0.43-0.41,0.8-0.77,1.13c-0.35,0.32-0.81,0.58-1.39,0.77c-0.57,0.19-1.27,0.28-2.1,0.28h-1.38v4.41h-1.32V70.87H60.86z
		 M60.74,71.98h-1.52v4.57h1.24c0.73,0,1.33-0.08,1.81-0.23c0.48-0.15,0.85-0.4,1.09-0.75c0.24-0.35,0.37-0.8,0.37-1.38
		c0-0.75-0.24-1.3-0.72-1.67C62.52,72.16,61.76,71.98,60.74,71.98z"/>
	<path class="st1" d="M75.39,82.08l-1.4-3.56h-4.55l-1.39,3.56h-1.34l4.44-11.25h1.19l4.41,11.25H75.39z M73.6,77.36l-1.33-3.53
		c-0.03-0.09-0.08-0.24-0.15-0.45c-0.07-0.21-0.14-0.43-0.21-0.65c-0.07-0.22-0.13-0.41-0.18-0.54c-0.05,0.21-0.11,0.42-0.17,0.63
		s-0.12,0.4-0.17,0.57c-0.06,0.18-0.11,0.33-0.15,0.45l-1.35,3.53H73.6z"/>
	<path class="st1" d="M82.22,76.31l-4.45-5.44h1.47l4.38,5.43v-5.43h1.27v5.43l4.38-5.43h1.47L86.3,76.3l4.61,5.77h-1.52L84.9,76.4
		v5.68h-1.27V76.4l-4.5,5.68H77.6L82.22,76.31z"/>
	<path class="st1" d="M101.92,82.08h-1.32v-5.28h-5.97v5.28h-1.32V70.87h1.32v4.78h5.97v-4.78h1.32V82.08z"/>
	<path class="st1" d="M115.69,76.46c0,0.86-0.11,1.65-0.33,2.36c-0.22,0.71-0.55,1.32-0.99,1.82c-0.44,0.51-0.98,0.9-1.63,1.18
		c-0.65,0.28-1.4,0.41-2.25,0.41c-0.88,0-1.65-0.14-2.3-0.41c-0.66-0.28-1.2-0.67-1.63-1.18c-0.43-0.51-0.76-1.12-0.97-1.83
		c-0.21-0.71-0.32-1.5-0.32-2.36c0-1.14,0.19-2.15,0.58-3.01c0.38-0.86,0.97-1.54,1.74-2.02c0.78-0.48,1.76-0.72,2.93-0.72
		c1.12,0,2.07,0.24,2.84,0.71c0.77,0.48,1.35,1.14,1.75,2C115.49,74.27,115.69,75.29,115.69,76.46z M106.65,76.46
		c0,0.95,0.14,1.77,0.41,2.47c0.27,0.7,0.7,1.23,1.26,1.61c0.57,0.38,1.29,0.57,2.16,0.57c0.88,0,1.6-0.19,2.16-0.57
		c0.56-0.38,0.98-0.91,1.25-1.61c0.27-0.69,0.4-1.52,0.4-2.47c0-1.45-0.31-2.58-0.92-3.39c-0.61-0.82-1.57-1.22-2.87-1.22
		c-0.88,0-1.61,0.19-2.18,0.56c-0.57,0.37-0.99,0.9-1.27,1.59C106.79,74.68,106.65,75.5,106.65,76.46z"/>
	<path class="st1" d="M125.34,82.08h-6.33V70.87h6.33v1.15h-5v3.63h4.72v1.13h-4.72v4.15h5V82.08z"/>
	<path class="st1" d="M143.44,76.46c0,0.86-0.11,1.65-0.33,2.36c-0.22,0.71-0.55,1.32-0.99,1.82c-0.44,0.51-0.98,0.9-1.63,1.18
		c-0.65,0.28-1.4,0.41-2.25,0.41c-0.88,0-1.65-0.14-2.3-0.41c-0.66-0.28-1.2-0.67-1.63-1.18c-0.43-0.51-0.76-1.12-0.97-1.83
		c-0.21-0.71-0.32-1.5-0.32-2.36c0-1.14,0.19-2.15,0.58-3.01c0.38-0.86,0.97-1.54,1.74-2.02c0.78-0.48,1.76-0.72,2.93-0.72
		c1.12,0,2.07,0.24,2.84,0.71c0.77,0.48,1.35,1.14,1.75,2C143.24,74.27,143.44,75.29,143.44,76.46z M134.39,76.46
		c0,0.95,0.14,1.77,0.41,2.47c0.27,0.7,0.7,1.23,1.26,1.61c0.57,0.38,1.29,0.57,2.16,0.57c0.88,0,1.6-0.19,2.16-0.57
		c0.56-0.38,0.98-0.91,1.25-1.61c0.27-0.69,0.4-1.52,0.4-2.47c0-1.45-0.31-2.58-0.92-3.39c-0.61-0.82-1.57-1.22-2.87-1.22
		c-0.88,0-1.61,0.19-2.18,0.56c-0.57,0.37-0.99,0.9-1.27,1.59C134.53,74.68,134.39,75.5,134.39,76.46z"/>
	<path class="st1" d="M146.76,82.08V70.87h6.68v1.15h-5.35v3.62h1.76c1.09,0,1.95,0.13,2.56,0.4c0.62,0.27,1.05,0.64,1.3,1.11
		c0.25,0.48,0.38,1.03,0.38,1.66c0,1.03-0.31,1.84-0.94,2.41c-0.62,0.57-1.66,0.86-3.1,0.86H146.76z M148.08,80.96h1.83
		c1.03,0,1.75-0.18,2.18-0.53c0.43-0.36,0.64-0.9,0.64-1.62c0-0.51-0.1-0.91-0.31-1.2c-0.21-0.3-0.53-0.51-0.98-0.64
		c-0.45-0.13-1.03-0.19-1.76-0.19h-1.6V80.96z"/>
	<path class="st1" d="M167.15,76.46c0,0.86-0.11,1.65-0.33,2.36c-0.22,0.71-0.55,1.32-0.99,1.82c-0.44,0.51-0.98,0.9-1.63,1.18
		c-0.65,0.28-1.4,0.41-2.25,0.41c-0.88,0-1.65-0.14-2.3-0.41c-0.66-0.28-1.2-0.67-1.63-1.18c-0.43-0.51-0.76-1.12-0.97-1.83
		c-0.21-0.71-0.32-1.5-0.32-2.36c0-1.14,0.19-2.15,0.58-3.01c0.38-0.86,0.97-1.54,1.74-2.02c0.78-0.48,1.76-0.72,2.93-0.72
		c1.12,0,2.07,0.24,2.84,0.71c0.77,0.48,1.35,1.14,1.75,2C166.95,74.27,167.15,75.29,167.15,76.46z M158.1,76.46
		c0,0.95,0.14,1.77,0.41,2.47c0.27,0.7,0.7,1.23,1.26,1.61c0.57,0.38,1.29,0.57,2.16,0.57c0.88,0,1.6-0.19,2.16-0.57
		c0.56-0.38,0.98-0.91,1.25-1.61c0.27-0.69,0.4-1.52,0.4-2.47c0-1.45-0.31-2.58-0.92-3.39c-0.61-0.82-1.57-1.22-2.87-1.22
		c-0.88,0-1.61,0.19-2.18,0.56c-0.57,0.37-0.99,0.9-1.27,1.59C158.24,74.68,158.1,75.5,158.1,76.46z"/>
	<path class="st1" d="M173.43,70.87c1.47,0,2.54,0.28,3.21,0.85c0.68,0.56,1.01,1.37,1.01,2.43c0,0.48-0.08,0.93-0.24,1.35
		c-0.16,0.43-0.41,0.8-0.77,1.13c-0.35,0.32-0.81,0.58-1.39,0.77c-0.57,0.19-1.27,0.28-2.1,0.28h-1.38v4.41h-1.32V70.87H173.43z
		 M173.31,71.98h-1.52v4.57h1.24c0.73,0,1.33-0.08,1.81-0.23c0.48-0.15,0.85-0.4,1.09-0.75c0.24-0.35,0.37-0.8,0.37-1.38
		c0-0.75-0.24-1.3-0.72-1.67C175.09,72.16,174.34,71.98,173.31,71.98z"/>
	<path class="st1" d="M189.11,70.87l-3.7,8.13c-0.32,0.72-0.65,1.31-0.98,1.79c-0.33,0.48-0.73,0.84-1.18,1.08
		c-0.46,0.24-1.03,0.36-1.73,0.36c-0.3,0-0.58-0.02-0.84-0.06c-0.26-0.04-0.49-0.1-0.69-0.17v-1.3c0.21,0.1,0.43,0.17,0.67,0.23
		c0.24,0.05,0.5,0.08,0.77,0.08c0.4,0,0.74-0.06,1.03-0.18c0.29-0.12,0.54-0.31,0.75-0.58c0.22-0.26,0.42-0.61,0.62-1.05l-4.38-8.34
		h1.45l3.23,6.26c0.04,0.08,0.09,0.16,0.13,0.26s0.09,0.2,0.14,0.31c0.05,0.1,0.09,0.21,0.12,0.31h0.05
		c0.03-0.08,0.07-0.17,0.1-0.27c0.04-0.1,0.08-0.2,0.12-0.31c0.04-0.1,0.08-0.19,0.11-0.26l2.79-6.31H189.11z"/>
	<path class="st1" d="M199.03,70.87v10.04h1.4V85h-1.27v-2.93h-7.9V85H190v-4.09h0.87c0.39-0.65,0.75-1.39,1.09-2.2
		c0.34-0.82,0.64-1.67,0.91-2.56c0.27-0.89,0.48-1.79,0.65-2.69s0.28-1.76,0.32-2.59H199.03z M197.72,72.04h-2.7
		c-0.05,0.63-0.15,1.34-0.31,2.12c-0.16,0.78-0.37,1.58-0.62,2.4c-0.25,0.82-0.53,1.6-0.84,2.35c-0.31,0.75-0.63,1.42-0.98,2h5.45
		V72.04z"/>
	<path class="st1" d="M213,76.46c0,0.86-0.11,1.65-0.33,2.36c-0.22,0.71-0.55,1.32-0.99,1.82c-0.44,0.51-0.98,0.9-1.63,1.18
		c-0.65,0.28-1.4,0.41-2.25,0.41c-0.88,0-1.65-0.14-2.3-0.41c-0.66-0.28-1.2-0.67-1.63-1.18c-0.43-0.51-0.76-1.12-0.97-1.83
		s-0.32-1.5-0.32-2.36c0-1.14,0.19-2.15,0.58-3.01c0.38-0.86,0.97-1.54,1.74-2.02c0.78-0.48,1.76-0.72,2.93-0.72
		c1.12,0,2.07,0.24,2.84,0.71c0.77,0.48,1.35,1.14,1.75,2C212.8,74.27,213,75.29,213,76.46z M203.95,76.46
		c0,0.95,0.14,1.77,0.41,2.47c0.27,0.7,0.7,1.23,1.26,1.61c0.57,0.38,1.29,0.57,2.16,0.57c0.88,0,1.6-0.19,2.16-0.57
		c0.56-0.38,0.98-0.91,1.25-1.61c0.27-0.69,0.4-1.52,0.4-2.47c0-1.45-0.31-2.58-0.92-3.39c-0.61-0.82-1.57-1.22-2.87-1.22
		c-0.88,0-1.61,0.19-2.18,0.56c-0.57,0.37-0.99,0.9-1.27,1.59C204.09,74.68,203.95,75.5,203.95,76.46z"/>
	<path class="st1" d="M216.32,70.87h3.22c1.42,0,2.49,0.21,3.2,0.63c0.72,0.42,1.07,1.13,1.07,2.14c0,0.43-0.08,0.82-0.25,1.17
		c-0.17,0.34-0.41,0.63-0.73,0.85c-0.32,0.23-0.72,0.38-1.19,0.47v0.08c0.5,0.08,0.94,0.22,1.32,0.42c0.38,0.2,0.68,0.49,0.9,0.86
		c0.22,0.37,0.33,0.84,0.33,1.4c0,0.69-0.16,1.27-0.49,1.75c-0.32,0.48-0.78,0.83-1.37,1.08s-1.29,0.36-2.1,0.36h-3.91V70.87z
		 M217.64,75.67h2.18c0.99,0,1.67-0.16,2.06-0.48c0.38-0.32,0.57-0.79,0.57-1.41c0-0.64-0.23-1.1-0.68-1.38
		c-0.45-0.28-1.18-0.42-2.16-0.42h-1.96V75.67z M217.64,76.77v4.19H220c1.01,0,1.72-0.2,2.14-0.59c0.42-0.39,0.63-0.92,0.63-1.58
		c0-0.42-0.09-0.79-0.28-1.09c-0.19-0.3-0.49-0.53-0.92-0.69c-0.42-0.16-0.99-0.24-1.69-0.24H217.64z"/>
	<path class="st1" d="M234.52,82.08l-1.4-3.56h-4.55l-1.39,3.56h-1.34l4.44-11.25h1.19l4.41,11.25H234.52z M232.73,77.36l-1.33-3.53
		c-0.03-0.09-0.08-0.24-0.15-0.45c-0.07-0.21-0.14-0.43-0.21-0.65c-0.07-0.22-0.13-0.41-0.18-0.54c-0.05,0.21-0.11,0.42-0.17,0.63
		c-0.06,0.21-0.12,0.4-0.17,0.57c-0.06,0.18-0.11,0.33-0.15,0.45l-1.35,3.53H232.73z"/>
	<path class="st1" d="M246.87,82.08h-1.32v-5.28h-5.97v5.28h-1.32V70.87h1.32v4.78h5.97v-4.78h1.32V82.08z"/>
	<path class="st1" d="M250.8,70.87h1.24v6.48c0,0.25,0,0.51-0.01,0.8c-0.01,0.29-0.01,0.57-0.02,0.85
		c-0.01,0.28-0.02,0.53-0.04,0.75c-0.01,0.23-0.02,0.4-0.03,0.52H252l6.33-9.4h1.45v11.21h-1.24v-6.4c0-0.27,0-0.56,0.02-0.86
		c0.01-0.3,0.02-0.6,0.04-0.89c0.01-0.29,0.03-0.54,0.04-0.77s0.03-0.4,0.03-0.52h-0.07l-6.33,9.44h-1.46V70.87z"/>
	<path class="st1" d="M270,82.08h-6.33V70.87H270v1.15h-5v3.63h4.72v1.13H265v4.15h5V82.08z"/>
</g>
</svg>
