<?xml version="1.0" encoding="utf-8"?>
<!-- Generator: Adobe Illustrator 24.0.0, SVG Export Plug-In . SVG Version: 6.00 Build 0)  -->
<svg version="1.1" id="Слой_1" xmlns="http://www.w3.org/2000/svg" xmlns:xlink="http://www.w3.org/1999/xlink" x="0px" y="0px"
	 viewBox="0 0 1762 384" style="enable-background:new 0 0 1762 384;" xml:space="preserve">
<style type="text/css">
	.st0{display:none;fill:#4F92A5;}
	.st1{fill:#3D3D3D;}
	.st2{fill:#7DB4C5;}
	.st3{fill:#B7CB76;}
	.st4{fill:#A1CED8;}
	.st5{fill:#429180;}
	.st6{fill:#4F92A5;}
</style>
<g id="Для_сайта_1_">
	<g>
		<g>
			<g>
				<path class="st0" d="M451.411,192.611l0.076-0.046h-0.101l-92.056-166.07h-0.187H210.387H210.2L24.023,362.358h148.942
					l167.123-101.882l56.476,101.882h148.942L451.411,192.611z M302.469,192.238l-53.482,32.604l35.777-64.543L302.469,192.238
					L302.469,192.238z"/>
				<path class="st1" d="M359.329,26.308l186.177,335.864H396.563L340.088,260.29L172.965,362.172H24.023L210.2,26.308h0.187
					h148.755H359.329 M248.987,224.842l53.482-32.604l-17.704-31.939L248.987,224.842 M364.812,16.999h-5.483h-0.187H210.387H210.2
					h-5.483l-2.658,4.796L15.882,357.659L8.22,371.481h15.804h148.942h2.614l2.232-1.361l158.839-96.832l51.772,93.397l2.658,4.796
					h5.483h148.942h15.804l-7.662-13.822L367.47,21.795L364.812,16.999L364.812,16.999z M274.191,198.575l10.573-19.075l5.232,9.439
					L274.191,198.575L274.191,198.575z"/>
			</g>
			<polygon class="st2" points="248.987,224.842 248.987,224.842 284.764,160.299 210.2,26.308 24.023,362.172 248.987,224.842 			
				"/>
			<polygon class="st3" points="545.505,362.172 451.298,192.221 340.088,260.29 396.563,362.172 			"/>
			<polygon class="st3" points="302.469,192.238 451.298,192.221 359.329,26.308 284.764,160.299 			"/>
			<polygon class="st4" points="302.469,192.238 248.987,224.842 248.987,224.842 172.965,362.172 340.088,260.29 			"/>
			<polygon class="st5" points="284.764,160.299 359.329,26.308 210.2,26.308 			"/>
			<polygon class="st5" points="302.469,192.238 302.469,192.238 302.469,192.238 340.088,260.29 451.298,192.221 			"/>
			<polygon class="st6" points="248.987,224.842 24.023,362.172 172.965,362.172 248.987,224.842 			"/>
		</g>
	</g>
	<g>
		<path class="st1" d="M606.001,267.418l93.642-189.404h0.531l92.58,186.221h-19.365l-18.039-36.342L606.001,267.418z
			 M699.377,115.152l-63.135,127.065l111.68-29.446L699.377,115.152z"/>
		<path class="st1" d="M840.766,264.235h-16.182V131.068h16.182v63.135l56.503-63.135h19.1l-58.625,63.666l69.502,69.501h-21.487
			l-64.991-66.318V264.235z"/>
		<path class="st1" d="M1056.696,157.065c-11.142-9.55-23.609-14.325-37.404-14.325c-7.075,0-13.794,1.285-20.161,3.846
			c-6.367,2.566-11.937,6.234-16.712,11.009c-4.775,4.775-8.58,10.524-11.407,17.243c-2.831,6.722-4.245,14.237-4.245,22.548
			c0,6.723,1.103,13.355,3.316,19.895c2.209,6.545,5.525,12.426,9.948,17.641c4.419,5.218,9.989,9.463,16.712,12.733
			c6.719,3.274,14.499,4.907,23.344,4.907c13.969,0,25.997-4.684,36.077-14.059l9.815,12.203c-4.422,3.539-8.754,6.412-12.998,8.621
			c-4.244,2.213-8.314,3.938-12.202,5.173c-3.893,1.235-7.606,2.031-11.142,2.387c-3.54,0.353-6.723,0.531-9.55,0.531
			c-11.672,0-21.885-2.122-30.639-6.366c-8.754-4.245-16.049-9.682-21.885-16.314c-5.836-6.632-10.213-14.101-13.131-22.416
			c-2.918-8.311-4.377-16.621-4.377-24.936c0-9.372,1.766-18.258,5.306-26.66c3.536-8.397,8.397-15.783,14.59-22.15
			c6.188-6.367,13.616-11.407,22.283-15.121c8.663-3.714,18.039-5.571,28.119-5.571c10.255,0,19.187,1.638,26.792,4.908
			c7.602,3.274,14.06,7.208,19.365,11.804L1056.696,157.065z"/>
		<path class="st1" d="M1210.286,127.884h1.327v136.35h-16.182v-99.212l-92.05,102.395h-1.326v-136.35h16.182v99.477
			L1210.286,127.884z"/>
		<path class="st1" d="M1244.771,197.651c0-9.724,1.811-18.834,5.438-27.323c3.623-8.489,8.621-15.871,14.988-22.15
			c6.367-6.275,13.749-11.228,22.15-14.855c8.397-3.623,17.375-5.438,26.925-5.438c9.55,0,18.524,1.816,26.925,5.438
			c8.397,3.627,15.784,8.58,22.15,14.855c6.367,6.279,11.361,13.662,14.987,22.15c3.623,8.489,5.438,17.599,5.438,27.323
			c0,9.55-1.816,18.569-5.438,27.058c-3.627,8.489-8.58,15.916-14.855,22.283c-6.279,6.367-13.661,11.366-22.15,14.988
			c-8.489,3.623-17.508,5.438-27.058,5.438c-9.55,0-18.569-1.815-27.058-5.438c-8.489-3.622-15.875-8.621-22.15-14.988
			c-6.279-6.367-11.232-13.794-14.855-22.283C1246.582,216.221,1244.771,207.201,1244.771,197.651z M1261.482,197.651
			c0,7.428,1.414,14.503,4.245,21.222c2.827,6.723,6.632,12.559,11.407,17.508c4.774,4.953,10.345,8.887,16.712,11.804
			c6.367,2.918,13.172,4.377,20.426,4.377c7.427,0,14.325-1.459,20.691-4.377c6.367-2.918,11.937-6.897,16.712-11.937
			c4.775-5.04,8.53-10.876,11.274-17.508c2.74-6.632,4.112-13.662,4.112-21.089c0-7.428-1.372-14.499-4.112-21.222
			c-2.744-6.719-6.499-12.555-11.274-17.508c-4.775-4.949-10.391-8.887-16.845-11.804c-6.458-2.918-13.309-4.377-20.559-4.377
			c-7.254,0-14.059,1.459-20.426,4.377c-6.366,2.918-11.937,6.855-16.712,11.804c-4.775,4.953-8.58,10.743-11.407,17.375
			C1262.896,182.929,1261.482,190.05,1261.482,197.651z"/>
		<path class="st1" d="M1518.264,170.063l-45.229,97.355h-0.534l-44.164-97.355l-1.061,0.265v93.906h-16.182V131.068h16.182
			l44.959,99.212h1.065l46.025-99.212h16.181v133.167h-16.181v-93.906L1518.264,170.063z"/>
		<path class="st1" d="M1560.44,267.418l93.642-189.404h0.531l92.58,186.221h-19.365l-18.039-36.342L1560.44,267.418z
			 M1653.816,115.152l-63.135,127.065l111.68-29.446L1653.816,115.152z"/>
	</g>
	<g>
		<path class="st1" d="M626.756,333.09c-4.75,0-8.5,1.582-11.25,4.745c-2.75,3.164-4.124,7.495-4.124,12.994
			c0,5.657,1.326,10.028,3.977,13.112c2.651,3.085,6.431,4.627,11.338,4.627c3.016,0,6.455-0.542,10.318-1.626v4.405
			c-2.996,1.123-6.692,1.685-11.087,1.685c-6.367,0-11.279-1.932-14.739-5.795c-3.459-3.863-5.189-9.353-5.189-16.468
			c0-4.455,0.832-8.357,2.498-11.708c1.666-3.351,4.07-5.933,7.214-7.746c3.144-1.813,6.844-2.72,11.102-2.72
			c4.533,0,8.495,0.828,11.885,2.484l-2.129,4.317C633.3,333.859,630.028,333.09,626.756,333.09z"/>
		<path class="st1" d="M649.534,329.217h4.701v24.037c0,4.435-0.138,8.446-0.414,12.033h0.237l24.244-36.07h5.499v43.225h-4.731
			v-23.8c0-3.962,0.167-8.121,0.503-12.477h-0.266l-24.273,36.277h-5.499V329.217z"/>
		<path class="st1" d="M717.162,333.09c-4.75,0-8.5,1.582-11.25,4.745c-2.75,3.164-4.124,7.495-4.124,12.994
			c0,5.657,1.326,10.028,3.977,13.112c2.651,3.085,6.431,4.627,11.339,4.627c3.016,0,6.455-0.542,10.318-1.626v4.405
			c-2.996,1.123-6.692,1.685-11.087,1.685c-6.367,0-11.279-1.932-14.739-5.795c-3.459-3.863-5.189-9.353-5.189-16.468
			c0-4.455,0.832-8.357,2.498-11.708c1.666-3.351,4.07-5.933,7.214-7.746c3.144-1.813,6.844-2.72,11.102-2.72
			c4.533,0,8.495,0.828,11.885,2.484l-2.129,4.317C723.706,333.859,720.434,333.09,717.162,333.09z"/>
		<path class="st1" d="M753.185,372.442h-5.026v-38.761H734.47v-4.464h32.404v4.464h-13.689V372.442z"/>
		<path class="st1" d="M800.502,372.442h-24.096v-43.225h24.096v4.464h-19.07v13.925h17.917v4.435h-17.917v15.906h19.07V372.442z"/>
		<path class="st1" d="M832.238,372.442l-14.665-38.317h-0.237c0.276,3.035,0.414,6.642,0.414,10.821v27.496h-4.642v-43.225h7.569
			l13.689,35.656h0.237l13.807-35.656h7.51v43.225h-5.026v-27.851c0-3.193,0.138-6.662,0.414-10.407h-0.237l-14.783,38.258H832.238z
			"/>
		<path class="st1" d="M870.804,372.442v-43.225h5.026v18.449h7.066c5.144,0,9.066,1.01,11.767,3.03
			c2.7,2.02,4.051,5.071,4.051,9.151c0,4.06-1.276,7.175-3.829,9.343c-2.553,2.168-6.283,3.252-11.191,3.252H870.804z
			 M875.83,368.155h7.303c3.567,0,6.189-0.695,7.865-2.084c1.675-1.39,2.513-3.464,2.513-6.224c0-2.7-0.882-4.657-2.646-5.869
			c-1.764-1.212-4.617-1.818-8.559-1.818h-6.475V368.155z M910.57,372.442h-5.026v-43.225h5.026V372.442z"/>
		<path class="st1" d="M976.495,372.442h-5.026v-38.761h-22.204v38.761h-5.026v-43.225h32.256V372.442z"/>
		<path class="st1" d="M1018.816,341.812c0,4.376-1.493,7.741-4.479,10.097s-7.258,3.533-12.817,3.533h-5.085v17h-5.026v-43.225
			h11.205C1013.415,329.217,1018.816,333.415,1018.816,341.812z M996.434,351.125h4.524c4.454,0,7.677-0.719,9.668-2.158
			c1.991-1.439,2.986-3.745,2.986-6.918c0-2.858-0.936-4.987-2.809-6.386c-1.873-1.399-4.79-2.099-8.751-2.099h-5.617V351.125z"/>
		<path class="st1" d="M1054.987,372.442h-24.096v-43.225h24.096v4.464h-19.07v13.925h17.917v4.435h-17.917v15.906h19.07V372.442z"
			/>
		<path class="st1" d="M1101.683,383.707h-4.79v-11.265h-30.039v11.265h-4.79v-15.818h3.341c3.035-5.105,5.632-11.314,7.791-18.626
			c2.158-7.313,3.356-13.994,3.592-20.046h19.425v38.672h5.47V383.707z M1091.187,367.889v-34.148h-9.845
			c-0.355,4.77-1.548,10.501-3.577,17.193c-2.03,6.692-4.396,12.344-7.096,16.956H1091.187z"/>
		<path class="st1" d="M1149.502,350.77c0,6.918-1.749,12.358-5.248,16.32c-3.499,3.962-8.363,5.943-14.591,5.943
			c-6.367,0-11.279-1.946-14.739-5.839c-3.459-3.893-5.189-9.387-5.189-16.483c0-7.037,1.734-12.492,5.204-16.365
			c3.469-3.873,8.397-5.81,14.783-5.81c6.209,0,11.058,1.971,14.546,5.913S1149.502,343.832,1149.502,350.77z M1115.058,350.77
			c0,5.854,1.246,10.294,3.74,13.319c2.493,3.026,6.115,4.538,10.865,4.538c4.79,0,8.406-1.508,10.851-4.524
			c2.444-3.016,3.666-7.46,3.666-13.334c0-5.815-1.217-10.225-3.651-13.231c-2.435-3.006-6.036-4.509-10.806-4.509
			c-4.79,0-8.431,1.513-10.925,4.538C1116.304,340.595,1115.058,344.995,1115.058,350.77z"/>
		<path class="st1" d="M1175.473,372.442h-5.026v-38.761h-13.689v-4.464h32.404v4.464h-13.689V372.442z"/>
		<path class="st1" d="M1198.694,329.217h12.211c5.736,0,9.885,0.857,12.447,2.572c2.562,1.715,3.844,4.425,3.844,8.131
			c0,2.562-0.714,4.676-2.144,6.342c-1.429,1.666-3.514,2.745-6.253,3.237v0.296c6.564,1.123,9.845,4.573,9.845,10.348
			c0,3.863-1.306,6.879-3.917,9.047c-2.612,2.168-6.263,3.252-10.954,3.252h-15.078V329.217z M1203.72,347.725h8.278
			c3.548,0,6.1-0.557,7.657-1.67c1.557-1.114,2.336-2.991,2.336-5.632c0-2.424-0.868-4.174-2.602-5.248
			c-1.735-1.074-4.494-1.611-8.278-1.611h-7.391V347.725z M1203.72,351.983v16.172h9.018c3.489,0,6.115-0.675,7.879-2.025
			c1.764-1.35,2.646-3.464,2.646-6.342c0-2.681-0.902-4.652-2.705-5.913c-1.804-1.261-4.549-1.892-8.234-1.892H1203.72z"/>
		<path class="st1" d="M1268.363,341.812c0,4.376-1.493,7.741-4.479,10.097c-2.986,2.355-7.258,3.533-12.817,3.533h-5.085v17h-5.026
			v-43.225h11.205C1262.962,329.217,1268.363,333.415,1268.363,341.812z M1245.981,351.125h4.524c4.454,0,7.677-0.719,9.668-2.158
			c1.991-1.439,2.986-3.745,2.986-6.918c0-2.858-0.936-4.987-2.809-6.386c-1.873-1.399-4.79-2.099-8.751-2.099h-5.617V351.125z"/>
		<path class="st1" d="M1307.609,372.442l-5.381-13.748h-17.326l-5.322,13.748h-5.085l17.089-43.403h4.228l17,43.403H1307.609z
			 M1300.661,354.171l-5.026-13.393c-0.65-1.695-1.321-3.775-2.01-6.238c-0.434,1.892-1.054,3.972-1.863,6.238l-5.086,13.393
			H1300.661z"/>
		<path class="st1" d="M1321.782,372.442v-43.225h5.026v38.672h17.237v-38.672h5.085v38.672h17.266v-38.672h5.026v38.672h5.085
			v15.818h-4.79v-11.265H1321.782z"/>
		<path class="st1" d="M1411.466,372.442h-24.096v-43.225h24.096v4.464h-19.07v13.925h17.917v4.435h-17.917v15.906h19.07V372.442z"
			/>
		<path class="st1" d="M1456.891,372.442h-5.026v-20.341H1429.1v20.341h-5.026v-43.225h5.026v18.39h22.766v-18.39h5.026V372.442z"/>
		<path class="st1" d="M1471.834,329.217h4.701v24.037c0,4.435-0.138,8.446-0.414,12.033h0.236l24.244-36.07h5.499v43.225h-4.73
			v-23.8c0-3.962,0.167-8.121,0.503-12.477h-0.266l-24.273,36.277h-5.499V329.217z"/>
		<path class="st1" d="M1533.786,354.407l-11.324,18.035h-5.943l12.122-18.893c-3.173-1.005-5.479-2.528-6.918-4.568
			s-2.158-4.617-2.158-7.731c0-3.863,1.335-6.835,4.006-8.914s6.716-3.119,12.137-3.119h11.885v43.225h-5.026v-18.035H1533.786z
			 M1542.567,333.563h-6.711c-3.607,0-6.347,0.621-8.219,1.863c-1.873,1.242-2.809,3.262-2.809,6.061
			c0,5.736,3.735,8.604,11.205,8.604h6.534V333.563z"/>
		<path class="st1" d="M1612.366,372.442h-6.091l-19.986-21.908v21.908h-5.026v-43.225h5.026v20.933l19.484-20.933h5.765
			l-19.129,20.992L1612.366,372.442z"/>
		<path class="st1" d="M1648.744,341.812c0,4.376-1.493,7.741-4.479,10.097c-2.986,2.355-7.258,3.533-12.817,3.533h-5.085v17h-5.026
			v-43.225h11.205C1643.343,329.217,1648.744,333.415,1648.744,341.812z M1626.362,351.125h4.524c4.455,0,7.677-0.719,9.668-2.158
			c1.991-1.439,2.986-3.745,2.986-6.918c0-2.858-0.936-4.987-2.809-6.386c-1.873-1.399-4.79-2.099-8.751-2.099h-5.618V351.125z"/>
		<path class="st1" d="M1687.989,372.442l-5.381-13.748h-17.326l-5.322,13.748h-5.085l17.089-43.403h4.228l17,43.403H1687.989z
			 M1681.041,354.171l-5.026-13.393c-0.651-1.695-1.321-3.775-2.01-6.238c-0.434,1.892-1.055,3.972-1.863,6.238l-5.085,13.393
			H1681.041z"/>
		<path class="st1" d="M1713.901,350.209l-17-20.992h5.617l16.823,20.933v-20.933h4.849v20.933l16.853-20.933h5.617l-17.03,20.933
			l17.562,22.293h-5.795l-17.207-21.908v21.908h-4.849v-21.908l-17.178,21.908h-5.884L1713.901,350.209z"/>
	</g>
</g>
</svg>
