<?xml version="1.0" encoding="utf-8"?>
<!-- Generator: Adobe Illustrator 24.0.0, SVG Export Plug-In . SVG Version: 6.00 Build 0)  -->
<svg version="1.1" id="Слой_1" xmlns="http://www.w3.org/2000/svg" xmlns:xlink="http://www.w3.org/1999/xlink" x="0px" y="0px"
	 viewBox="0 0 1608 523" style="enable-background:new 0 0 1608 523;" xml:space="preserve">
<style type="text/css">
	.st0{display:none;fill:#4F92A5;}
	.st1{fill:#3D3D3D;}
	.st2{fill:#7DB4C5;}
	.st3{fill:#B7CB76;}
	.st4{fill:#A1CED8;}
	.st5{fill:#429180;}
	.st6{fill:#4F92A5;}
</style>
<g id="Для_сайта">
	<g>
		<g>
			<g>
				<path class="st0" d="M461.963,184.169l0.076-0.046h-0.101l-92.056-166.07h-0.187H220.939h-0.187L34.575,353.917h148.942
					L350.64,252.034l56.476,101.882h148.942L461.963,184.169z M313.021,183.797l-53.482,32.604l35.777-64.543L313.021,183.797
					L313.021,183.797z"/>
				<path class="st1" d="M369.881,17.867l186.177,335.864H407.115L350.64,251.848L183.517,353.731H34.575L220.752,17.867h0.187
					h148.755H369.881 M259.539,216.401l53.482-32.604l-17.704-31.939L259.539,216.401 M375.364,8.558h-5.483h-0.187H220.939h-0.187
					h-5.483l-2.658,4.796L26.434,349.218l-7.662,13.822h15.804h148.942h2.614l2.232-1.361l158.839-96.832l51.772,93.397l2.658,4.796
					h5.483h148.942h15.804l-7.662-13.822L378.022,13.354L375.364,8.558L375.364,8.558z M284.743,190.133l10.573-19.075l5.232,9.439
					L284.743,190.133L284.743,190.133z"/>
			</g>
			<polygon class="st2" points="259.539,216.401 259.539,216.401 295.316,151.858 220.752,17.867 34.575,353.731 259.539,216.401 
							"/>
			<polygon class="st3" points="556.057,353.731 461.85,183.779 350.64,251.848 407.115,353.731 			"/>
			<polygon class="st3" points="313.021,183.797 461.85,183.779 369.881,17.867 295.316,151.858 			"/>
			<polygon class="st4" points="313.021,183.797 259.539,216.401 259.539,216.401 183.517,353.731 350.64,251.848 			"/>
			<polygon class="st5" points="295.316,151.858 369.881,17.867 220.752,17.867 			"/>
			<polygon class="st5" points="313.021,183.797 313.021,183.797 313.021,183.797 350.64,251.848 461.85,183.779 			"/>
			<polygon class="st6" points="259.539,216.401 34.575,353.731 183.517,353.731 259.539,216.401 			"/>
		</g>
	</g>
	<g>
		<path class="st1" d="M595.461,362.811l81.19-164.22h0.46l80.27,161.46h-16.79l-15.64-31.51L595.461,362.811z M676.421,230.791
			l-54.74,110.17l96.83-25.53L676.421,230.791z"/>
		<path class="st1" d="M799.011,360.051h-14.03v-115.46h14.03v54.74l48.99-54.74h16.56l-50.83,55.2l60.26,60.26h-18.63l-56.35-57.5
			V360.051z"/>
		<path class="st1" d="M986.229,267.131c-9.66-8.28-20.47-12.42-32.43-12.42c-6.134,0-11.96,1.114-17.48,3.335
			c-5.52,2.225-10.35,5.405-14.49,9.545c-4.14,4.14-7.439,9.125-9.89,14.95c-2.455,5.829-3.68,12.344-3.68,19.55
			c0,5.829,0.956,11.579,2.875,17.25c1.916,5.674,4.791,10.774,8.625,15.295c3.831,4.524,8.661,8.205,14.49,11.04
			c5.825,2.839,12.571,4.255,20.24,4.255c12.111,0,22.54-4.061,31.28-12.19l8.51,10.58c-3.834,3.069-7.59,5.56-11.27,7.475
			c-3.68,1.919-7.209,3.414-10.58,4.485c-3.375,1.071-6.595,1.761-9.66,2.07c-3.069,0.306-5.829,0.46-8.28,0.46
			c-10.12,0-18.975-1.84-26.565-5.52c-7.59-3.68-13.915-8.395-18.975-14.145c-5.06-5.75-8.855-12.226-11.385-19.435
			c-2.53-7.206-3.795-14.411-3.795-21.62c0-8.125,1.531-15.831,4.6-23.115c3.065-7.281,7.281-13.685,12.65-19.205
			c5.365-5.52,11.805-9.89,19.32-13.11c7.511-3.22,15.64-4.83,24.38-4.83c8.891,0,16.636,1.42,23.23,4.255
			c6.591,2.839,12.19,6.25,16.79,10.235L986.229,267.131z"/>
		<path class="st1" d="M1119.397,241.831h1.15v118.22h-14.03v-86.02l-79.81,88.78h-1.15v-118.22h14.03v86.25L1119.397,241.831z"/>
		<path class="st1" d="M1149.296,302.321c0-8.431,1.57-16.33,4.715-23.69c3.141-7.36,7.475-13.761,12.995-19.205
			c5.52-5.441,11.92-9.735,19.205-12.88c7.281-3.141,15.065-4.715,23.345-4.715c8.28,0,16.061,1.574,23.345,4.715
			c7.281,3.145,13.685,7.439,19.205,12.88c5.52,5.444,9.85,11.845,12.995,19.205c3.141,7.36,4.715,15.259,4.715,23.69
			c0,8.28-1.574,16.1-4.715,23.46c-3.145,7.36-7.439,13.8-12.88,19.32c-5.444,5.52-11.845,9.854-19.205,12.995
			c-7.36,3.141-15.18,4.715-23.46,4.715c-8.28,0-16.1-1.574-23.46-4.715c-7.36-3.141-13.764-7.475-19.205-12.995
			c-5.444-5.52-9.739-11.96-12.88-19.32C1150.866,318.421,1149.296,310.601,1149.296,302.321z M1163.786,302.321
			c0,6.44,1.226,12.575,3.68,18.4c2.451,5.829,5.75,10.889,9.89,15.18c4.14,4.294,8.97,7.705,14.49,10.235
			c5.52,2.53,11.421,3.795,17.71,3.795c6.44,0,12.42-1.265,17.94-3.795c5.52-2.53,10.35-5.98,14.49-10.35
			c4.14-4.37,7.396-9.43,9.775-15.18c2.375-5.75,3.565-11.845,3.565-18.285s-1.189-12.571-3.565-18.4
			c-2.379-5.826-5.635-10.886-9.775-15.18c-4.14-4.291-9.01-7.705-14.605-10.235c-5.599-2.53-11.54-3.795-17.825-3.795
			c-6.289,0-12.19,1.265-17.71,3.795c-5.52,2.53-10.35,5.944-14.49,10.235c-4.14,4.294-7.439,9.315-9.89,15.065
			C1165.011,289.556,1163.786,295.73,1163.786,302.321z"/>
		<path class="st1" d="M1386.424,278.401l-39.215,84.41h-0.463l-38.292-84.41l-0.92,0.23v81.42h-14.03v-115.46h14.03l38.981,86.02
			h0.923l39.905-86.02h14.03v115.46h-14.03v-81.42L1386.424,278.401z"/>
		<path class="st1" d="M1422.992,362.811l81.19-164.22h0.46l80.27,161.46h-16.79l-15.64-31.51L1422.992,362.811z M1503.952,230.791
			l-54.74,110.17l96.83-25.53L1503.952,230.791z"/>
	</g>
	<g>
		<path class="st1" d="M43.477,442.059c-6.59,0-11.792,2.194-15.606,6.583s-5.722,10.397-5.722,18.026
			c0,7.848,1.839,13.911,5.517,18.19c3.677,4.279,8.921,6.419,15.729,6.419c4.184,0,8.955-0.752,14.314-2.256v6.111
			c-4.157,1.559-9.284,2.338-15.381,2.338c-8.833,0-15.647-2.68-20.446-8.039s-7.198-12.975-7.198-22.846
			c0-6.18,1.155-11.594,3.466-16.242c2.311-4.648,5.646-8.23,10.008-10.746c4.361-2.516,9.495-3.773,15.401-3.773
			c6.289,0,11.785,1.148,16.488,3.445l-2.953,5.988C52.555,443.125,48.015,442.059,43.477,442.059z"/>
		<path class="st1" d="M75.076,436.686h6.521v33.346c0,6.152-0.191,11.717-0.574,16.693h0.328l33.633-50.039h7.629v59.965h-6.563
			v-33.018c0-5.496,0.232-11.266,0.697-17.309h-0.369L82.704,496.65h-7.629V436.686z"/>
		<path class="st1" d="M168.894,442.059c-6.59,0-11.792,2.194-15.606,6.583s-5.722,10.397-5.722,18.026
			c0,7.848,1.839,13.911,5.517,18.19c3.677,4.279,8.921,6.419,15.729,6.419c4.184,0,8.955-0.752,14.314-2.256v6.111
			c-4.157,1.559-9.284,2.338-15.381,2.338c-8.833,0-15.647-2.68-20.446-8.039s-7.198-12.975-7.198-22.846
			c0-6.18,1.155-11.594,3.466-16.242c2.311-4.648,5.646-8.23,10.008-10.746c4.361-2.516,9.495-3.773,15.401-3.773
			c6.289,0,11.785,1.148,16.488,3.445l-2.953,5.988C177.972,443.125,173.433,442.059,168.894,442.059z"/>
		<path class="st1" d="M218.868,496.65h-6.973v-53.771h-18.99v-6.193h44.953v6.193h-18.99V496.65z"/>
		<path class="st1" d="M284.509,496.65h-33.428v-59.965h33.428v6.193h-26.455v19.318h24.855v6.152h-24.855v22.066h26.455V496.65z"/>
		<path class="st1" d="M328.535,496.65l-20.344-53.156h-0.328c0.383,4.211,0.574,9.215,0.574,15.012v38.145h-6.439v-59.965h10.5
			l18.99,49.465h0.328l19.154-49.465h10.418v59.965h-6.973v-38.637c0-4.43,0.191-9.242,0.574-14.438h-0.328l-20.508,53.074H328.535z
			"/>
		<path class="st1" d="M382.036,496.65v-59.965h6.973v25.594h9.803c7.137,0,12.578,1.401,16.324,4.204
			c3.746,2.803,5.619,7.034,5.619,12.694c0,5.633-1.771,9.953-5.312,12.961c-3.542,3.008-8.716,4.512-15.524,4.512H382.036z
			 M389.009,490.703h10.131c4.949,0,8.586-0.964,10.91-2.892c2.324-1.928,3.486-4.806,3.486-8.634c0-3.746-1.224-6.46-3.671-8.142
			c-2.447-1.682-6.405-2.522-11.874-2.522h-8.982V490.703z M437.202,496.65h-6.973v-59.965h6.973V496.65z"/>
		<path class="st1" d="M528.659,496.65h-6.973v-53.771h-30.803v53.771h-6.973v-59.965h44.748V496.65z"/>
		<path class="st1" d="M587.368,454.158c0,6.07-2.071,10.739-6.214,14.007s-10.069,4.901-17.78,4.901h-7.055v23.584h-6.973v-59.965
			h15.545C579.876,436.686,587.368,442.51,587.368,454.158z M556.32,467.078h6.275c6.179,0,10.65-0.998,13.412-2.994
			c2.762-1.996,4.143-5.195,4.143-9.598c0-3.965-1.299-6.918-3.896-8.859c-2.598-1.941-6.645-2.912-12.141-2.912h-7.793V467.078z"/>
		<path class="st1" d="M637.547,496.65h-33.428v-59.965h33.428v6.193h-26.455v19.318h24.855v6.152h-24.855v22.066h26.455V496.65z"/>
		<path class="st1" d="M702.327,512.277h-6.645V496.65h-41.672v15.627h-6.645v-21.943h4.635c4.21-7.082,7.813-15.695,10.808-25.84
			s4.655-19.414,4.983-27.809h26.947v53.648h7.588V512.277z M687.767,490.334v-47.373h-13.658
			c-0.492,6.617-2.147,14.567-4.963,23.851c-2.816,9.283-6.098,17.124-9.844,23.522H687.767z"/>
		<path class="st1" d="M768.666,466.586c0,9.598-2.427,17.145-7.28,22.641c-4.854,5.496-11.601,8.244-20.241,8.244
			c-8.833,0-15.647-2.7-20.446-8.101s-7.198-13.022-7.198-22.866c0-9.762,2.406-17.329,7.219-22.702
			c4.813-5.373,11.648-8.06,20.508-8.06c8.613,0,15.34,2.734,20.18,8.203S768.666,456.961,768.666,466.586z M720.883,466.586
			c0,8.121,1.729,14.28,5.188,18.478c3.459,4.197,8.483,6.296,15.073,6.296c6.645,0,11.662-2.092,15.053-6.275
			c3.39-4.184,5.086-10.35,5.086-18.498c0-8.066-1.688-14.185-5.065-18.354c-3.377-4.17-8.374-6.255-14.991-6.255
			c-6.645,0-11.696,2.099-15.155,6.296C722.612,452.47,720.883,458.574,720.883,466.586z"/>
		<path class="st1" d="M804.694,496.65h-6.973v-53.771h-18.99v-6.193h44.953v6.193h-18.99V496.65z"/>
		<path class="st1" d="M836.908,436.686h16.939c7.957,0,13.713,1.189,17.268,3.568c3.554,2.379,5.332,6.139,5.332,11.279
			c0,3.555-0.991,6.487-2.974,8.798c-1.983,2.311-4.875,3.808-8.675,4.491v0.41c9.105,1.559,13.658,6.344,13.658,14.355
			c0,5.359-1.812,9.543-5.435,12.551c-3.624,3.008-8.689,4.512-15.196,4.512h-20.918V436.686z M843.88,462.361h11.484
			c4.922,0,8.463-0.772,10.623-2.317c2.16-1.545,3.24-4.149,3.24-7.813c0-3.363-1.204-5.79-3.609-7.28
			c-2.406-1.49-6.234-2.235-11.484-2.235H843.88V462.361z M843.88,468.268v22.436h12.51c4.84,0,8.483-0.937,10.931-2.81
			c2.447-1.873,3.671-4.806,3.671-8.798c0-3.719-1.251-6.453-3.753-8.203s-6.31-2.625-11.423-2.625H843.88z"/>
		<path class="st1" d="M933.557,454.158c0,6.07-2.071,10.739-6.214,14.007s-10.069,4.901-17.78,4.901h-7.055v23.584h-6.973v-59.965
			h15.545C926.065,436.686,933.557,442.51,933.557,454.158z M902.508,467.078h6.275c6.179,0,10.65-0.998,13.412-2.994
			c2.762-1.996,4.143-5.195,4.143-9.598c0-3.965-1.299-6.918-3.896-8.859c-2.598-1.941-6.645-2.912-12.141-2.912h-7.793V467.078z"/>
		<path class="st1" d="M988.002,496.65l-7.465-19.072h-24.036l-7.383,19.072h-7.055l23.708-60.211h5.865l23.584,60.211H988.002z
			 M978.363,471.303l-6.973-18.58c-0.902-2.352-1.832-5.236-2.789-8.654c-0.602,2.625-1.463,5.51-2.584,8.654l-7.055,18.58H978.363z
			"/>
		<path class="st1" d="M1007.664,496.65v-59.965h6.973v53.648h23.912v-53.648h7.055v53.648h23.953v-53.648h6.973v53.648h7.055
			v21.943h-6.645V496.65H1007.664z"/>
		<path class="st1" d="M1132.08,496.65h-33.428v-59.965h33.428v6.193h-26.455v19.318h24.855v6.152h-24.855v22.066h26.455V496.65z"/>
		<path class="st1" d="M1195.097,496.65h-6.973v-28.219h-31.582v28.219h-6.973v-59.965h6.973v25.512h31.582v-25.512h6.973V496.65z"
			/>
		<path class="st1" d="M1215.827,436.686h6.521v33.346c0,6.152-0.191,11.717-0.574,16.693h0.328l33.633-50.039h7.629v59.965h-6.563
			v-33.018c0-5.496,0.232-11.266,0.697-17.309h-0.369l-33.674,50.326h-7.629V436.686z"/>
		<path class="st1" d="M1301.771,471.631l-15.709,25.02h-8.244l16.816-26.209c-4.402-1.395-7.602-3.507-9.598-6.337
			s-2.994-6.405-2.994-10.726c0-5.359,1.853-9.481,5.558-12.366s9.317-4.327,16.837-4.327h16.488v59.965h-6.973v-25.02H1301.771z
			 M1313.953,442.715h-9.311c-5.004,0-8.805,0.861-11.402,2.584s-3.896,4.525-3.896,8.408c0,7.957,5.182,11.936,15.545,11.936h9.064
			V442.715z"/>
		<path class="st1" d="M1410.782,496.65h-8.449l-27.727-30.393v30.393h-6.973v-59.965h6.973v29.039l27.029-29.039h7.998
			l-26.537,29.121L1410.782,496.65z"/>
		<path class="st1" d="M1461.247,454.158c0,6.07-2.071,10.739-6.214,14.007s-10.069,4.901-17.78,4.901h-7.055v23.584h-6.973v-59.965
			h15.545C1453.755,436.686,1461.247,442.51,1461.247,454.158z M1430.199,467.078h6.275c6.18,0,10.65-0.998,13.412-2.994
			s4.143-5.195,4.143-9.598c0-3.965-1.299-6.918-3.896-8.859s-6.645-2.912-12.141-2.912h-7.793V467.078z"/>
		<path class="st1" d="M1515.692,496.65l-7.465-19.072h-24.035l-7.383,19.072h-7.055l23.707-60.211h5.865l23.584,60.211H1515.692z
			 M1506.053,471.303l-6.973-18.58c-0.902-2.352-1.832-5.236-2.789-8.654c-0.602,2.625-1.463,5.51-2.584,8.654l-7.055,18.58
			H1506.053z"/>
		<path class="st1" d="M1551.638,465.807l-23.584-29.121h7.793l23.338,29.039v-29.039h6.727v29.039l23.379-29.039h7.793
			l-23.625,29.039l24.363,30.926h-8.039l-23.871-30.393v30.393h-6.727v-30.393l-23.83,30.393h-8.162L1551.638,465.807z"/>
	</g>
</g>
</svg>
