<?xml version="1.0" encoding="utf-8"?>
<!-- Generator: Adobe Illustrator 24.0.0, SVG Export Plug-In . SVG Version: 6.00 Build 0)  -->
<svg version="1.1" id="Слой_1" xmlns="http://www.w3.org/2000/svg" xmlns:xlink="http://www.w3.org/1999/xlink" x="0px" y="0px"
	 viewBox="0 0 250 100" style="enable-background:new 0 0 250 100;" xml:space="preserve">
<style type="text/css">
	.st0{display:none;fill:#FBCC4C;}
	.st1{fill:#6B7B92;}
	.st2{fill:#FBCC4C;}
	.st3{display:none;fill:#6B7B92;}
	.st4{fill:#FFFFFF;}
	.st5{fill:#FCFCFC;}
</style>
<path class="st0" d="M236.6,100H0V0h236.6C244,0,250,6,250,13.4v73.2C250,94,244,100,236.6,100z"/>
<path class="st1" d="M34.2,63.7L0.1,100h237.5c6.8,0,12.4-5.5,12.4-12.4V51.1H63.4C52.4,51.1,41.8,55.7,34.2,63.7z"/>
<path class="st2" d="M236.6,0H0v100h0.1c4.8,0,9.2-2.8,12-6.9L30.7,68c1.1-1.4,2.2-2.8,3.4-4.1l0.2-0.2c7.6-8,18.1-12.6,29.2-12.6
	H250V13.4C250,6,244,0,236.6,0z"/>
<path class="st3" d="M250,51.1V13.4c0-2.9-1-5.6-2.6-7.8L205,51.1H250z"/>
<path class="st4" d="M220.4,57.6c3.5,0,6.4-2.9,6.4-6.4s-2.9-6.4-6.4-6.4c-2.4,0-4.5,1.3-5.6,3.3h-37.5l6.6-13h30.9
	c1.1,2,3.2,3.3,5.6,3.3c3.5,0,6.4-2.9,6.4-6.4s-2.9-6.4-6.4-6.4c-2.4,0-4.5,1.3-5.6,3.3h-34.6l0,0l0,0l-9.7,19.3h-8.8
	c-1.1-2-3.2-3.4-5.6-3.4c-3.5,0-6.4,2.9-6.4,6.4s2.9,6.4,6.4,6.4c2.4,0,4.5-1.3,5.6-3.3h24.8l9.7,19l0,0h18.6c1.1,2,3.2,3.3,5.6,3.3
	c3.5,0,6.4-2.9,6.4-6.4s-2.9-6.4-6.4-6.4c-2.4,0-4.5,1.3-5.6,3.3H200l-6.6-12.9h21.5C215.9,56.3,218,57.6,220.4,57.6z"/>
<g>
	<path class="st5" d="M93.3,71c0,2.9-0.9,5.2-2.7,6.8c-1.8,1.6-4.4,2.4-7.7,2.4h-2.7v10.5h-4.3V62.5h7.6c3.3,0,5.8,0.7,7.4,2.2
		C92.5,66.1,93.3,68.2,93.3,71z M80.1,76.3h2.3c2.2,0,3.8-0.4,4.9-1.2c1-0.8,1.6-2.1,1.6-3.9c0-1.6-0.5-2.8-1.4-3.6
		c-0.9-0.8-2.4-1.2-4.3-1.2h-3V76.3z"/>
	<path class="st5" d="M117.9,90.7h-4.3V79.4c-1.6,0.6-3.1,1.1-4.3,1.3c-1.3,0.3-2.5,0.4-3.8,0.4c-2.5,0-4.4-0.6-5.8-1.9
		c-1.4-1.3-2-3-2-5.3V62.5h4.3v10.4c0,1.5,0.3,2.6,1,3.3c0.7,0.7,1.8,1.1,3.4,1.1c1.1,0,2.3-0.1,3.3-0.3c1.1-0.2,2.4-0.6,3.9-1.2
		V62.5h4.3V90.7z"/>
</g>
<g>
	<path class="st5" d="M42,41.2l-2.8-7.8H28.4l-2.8,7.8h-4.9l10.6-28.3h5l10.6,28.3H42z M37.9,29.3l-2.6-7.7
		c-0.2-0.5-0.5-1.3-0.8-2.4c-0.3-1.1-0.6-1.9-0.7-2.4c-0.3,1.6-0.9,3.3-1.5,5.2l-2.5,7.4H37.9z"/>
	<path class="st5" d="M62.8,41.2l-8.2-23.6h-0.2c0.2,3.5,0.3,6.8,0.3,9.8v13.7h-4.2V12.9h6.5l7.8,22.4H65l8.1-22.4h6.5v28.2h-4.4
		v-14c0-1.4,0-3.2,0.1-5.5c0.1-2.3,0.1-3.6,0.2-4.1h-0.2l-8.5,23.5H62.8z"/>
</g>
<path class="st1" d="M8.9,99.1"/>
</svg>
