<?xml version="1.0" encoding="utf-8"?>
<!-- Generator: Adobe Illustrator 24.0.0, SVG Export Plug-In . SVG Version: 6.00 Build 0)  -->
<svg version="1.1" id="Слой_1" xmlns="http://www.w3.org/2000/svg" xmlns:xlink="http://www.w3.org/1999/xlink" x="0px" y="0px"
	 viewBox="0 0 250 100" style="enable-background:new 0 0 250 100;" xml:space="preserve">
<style type="text/css">
	.st0{fill:#FBCB4B;}
	.st1{fill:#FFFFFF;}
	.st2{fill:#FCFCFC;}
</style>
<path class="st0" d="M236.6,100H0V0h236.6C244,0,250,6,250,13.4v73.2C250,94,244,100,236.6,100z"/>
<path class="st1" d="M220.4,57.6c3.5,0,6.4-2.9,6.4-6.4s-2.9-6.4-6.4-6.4c-2.4,0-4.5,1.3-5.6,3.3h-37.5l6.6-13h30.9
	c1.1,2,3.2,3.3,5.6,3.3c3.5,0,6.4-2.9,6.4-6.4s-2.9-6.4-6.4-6.4c-2.4,0-4.5,1.3-5.6,3.3h-34.6l0,0l0,0l-9.7,19.3h-8.8
	c-1.1-2-3.2-3.4-5.6-3.4c-3.5,0-6.4,2.9-6.4,6.4s2.9,6.4,6.4,6.4c2.4,0,4.5-1.3,5.6-3.3h24.8l9.7,19l0,0h18.6c1.1,2,3.2,3.3,5.6,3.3
	c3.5,0,6.4-2.9,6.4-6.4s-2.9-6.4-6.4-6.4c-2.4,0-4.5,1.3-5.6,3.3H200l-6.6-12.9h21.5C215.9,56.3,218,57.6,220.4,57.6z"/>
<g>
	<path class="st2" d="M76.2,69.1l-3.6-9.9H59l-3.5,9.9h-6.2l13.4-35.8h6.3l13.4,35.8H76.2z M71.1,54.1l-3.3-9.7
		c-0.2-0.7-0.6-1.7-1-3.1c-0.4-1.4-0.7-2.4-0.9-3.1c-0.4,2-1.1,4.2-1.9,6.6l-3.2,9.3H71.1z"/>
	<path class="st2" d="M102.6,69.1L92.2,39.2H92c0.3,4.4,0.4,8.6,0.4,12.5v17.4h-5.3V33.4h8.2l9.9,28.4h0.1l10.2-28.4h8.3v35.7h-5.6
		V51.4c0-1.8,0-4.1,0.1-6.9c0.1-2.8,0.2-4.6,0.2-5.2h-0.2l-10.7,29.8H102.6z"/>
</g>
</svg>
