<?xml version="1.0" encoding="UTF-8" standalone="no"?>
<!-- Generator: Adobe Illustrator 24.0.0, SVG Export Plug-In . SVG Version: 6.00 Build 0)  -->

<svg
   xmlns:dc="http://purl.org/dc/elements/1.1/"
   xmlns:cc="http://creativecommons.org/ns#"
   xmlns:rdf="http://www.w3.org/1999/02/22-rdf-syntax-ns#"
   xmlns:svg="http://www.w3.org/2000/svg"
   xmlns="http://www.w3.org/2000/svg"
   xmlns:sodipodi="http://sodipodi.sourceforge.net/DTD/sodipodi-0.dtd"
   xmlns:inkscape="http://www.inkscape.org/namespaces/inkscape"
   version="1.1"
   id="Слой_1"
   x="0px"
   y="0px"
   viewBox="0 0 250 100"
   style="enable-background:new 0 0 250 100;"
   xml:space="preserve"
   sodipodi:docname="t-rc.svg"
   inkscape:version="0.92.3 (2405546, 2018-03-11)"><metadata
   id="metadata19"><rdf:RDF><cc:Work
       rdf:about=""><dc:format>image/svg+xml</dc:format><dc:type
         rdf:resource="http://purl.org/dc/dcmitype/StillImage" /></cc:Work></rdf:RDF></metadata><defs
   id="defs17" /><sodipodi:namedview
   pagecolor="#ffffff"
   bordercolor="#666666"
   borderopacity="1"
   objecttolerance="10"
   gridtolerance="10"
   guidetolerance="10"
   inkscape:pageopacity="0"
   inkscape:pageshadow="2"
   inkscape:window-width="1920"
   inkscape:window-height="1014"
   id="namedview15"
   showgrid="false"
   inkscape:zoom="1.884"
   inkscape:cx="125"
   inkscape:cy="50"
   inkscape:window-x="0"
   inkscape:window-y="0"
   inkscape:window-maximized="1"
   inkscape:current-layer="Слой_1" />
<style
   type="text/css"
   id="style2">
	.st0{fill:#6A7A91;}
	.st1{fill:#FFFFFF;}
	.st2{fill:#FCFCFC;}
</style>
<path
   class="st0"
   d="M 13.4,0 250,0 V 100 L 13.4,100 C 6,100 0,94 0,86.6 V 13.4 C 0,6 6,0 13.4,0 Z"
   id="path4"
   inkscape:connector-curvature="0"
   style="fill:#6a7a91" />
<path
   class="st1"
   d="M220.4,57.6c3.5,0,6.4-2.9,6.4-6.4s-2.9-6.4-6.4-6.4c-2.4,0-4.5,1.3-5.6,3.3h-37.5l6.6-13h30.9  c1.1,2,3.2,3.3,5.6,3.3c3.5,0,6.4-2.9,6.4-6.4s-2.9-6.4-6.4-6.4c-2.4,0-4.5,1.3-5.6,3.3h-34.6l0,0l0,0l-9.7,19.3h-8.8  c-1.1-2-3.2-3.4-5.6-3.4c-3.5,0-6.4,2.9-6.4,6.4s2.9,6.4,6.4,6.4c2.4,0,4.5-1.3,5.6-3.3h24.8l9.7,19l0,0h18.6c1.1,2,3.2,3.3,5.6,3.3  c3.5,0,6.4-2.9,6.4-6.4s-2.9-6.4-6.4-6.4c-2.4,0-4.5,1.3-5.6,3.3H200l-6.6-12.9h21.5C215.9,56.3,218,57.6,220.4,57.6z"
   id="path6" />
<g
   id="g12">
	<path
   class="st2"
   d="M77.7,44.2c0,3.7-1.2,6.6-3.7,8.6s-5.9,3-10.4,3h-3.7v13.4h-5.8V33.4h10.3c4.5,0,7.8,0.9,10,2.7   C76.6,37.9,77.7,40.6,77.7,44.2z M59.9,50.8H63c3,0,5.2-0.5,6.6-1.6c1.4-1,2.1-2.7,2.1-4.9c0-2.1-0.6-3.6-1.9-4.6   c-1.3-1-3.2-1.5-5.9-1.5h-4.1V50.8z"
   id="path8" />
	<path
   class="st2"
   d="M111,69.1h-5.9V54.8c-2.2,0.8-4.2,1.3-5.9,1.7c-1.7,0.3-3.4,0.5-5.2,0.5c-3.4,0-6-0.8-7.8-2.4   s-2.7-3.8-2.7-6.8V33.4h5.9v13.1c0,1.9,0.5,3.2,1.4,4.2c0.9,0.9,2.4,1.4,4.5,1.4c1.5,0,3.1-0.1,4.5-0.4c1.5-0.3,3.2-0.8,5.3-1.5   V33.4h5.9V69.1z"
   id="path10" />
</g>
</svg>