<?xml version="1.0" encoding="utf-8"?>
<!-- Generator: Adobe Illustrator 24.1.3, SVG Export Plug-In . SVG Version: 6.00 Build 0)  -->
<svg version="1.1" id="Слой_1" xmlns="http://www.w3.org/2000/svg" xmlns:xlink="http://www.w3.org/1999/xlink" x="0px" y="0px"
	 viewBox="0 0 100 100" style="enable-background:new 0 0 100 100;" xml:space="preserve">
<style type="text/css">
	.st0{fill:#B8CC76;}
</style>
<path class="st0" d="M50,2c26.5,0,48,21.5,48,48S76.5,98,50,98S2,76.5,2,50S23.5,2,50,2 M50,0C22.4,0,0,22.4,0,50s22.4,50,50,50
	s50-22.4,50-50S77.6,0,50,0L50,0z"/>
<path class="st0" d="M77.5,22.2h-5.7c-0.7,0-1.4,0.3-1.8,0.7l-4.3,4.3L32,33.1c-5.1,0.9-8.7,5.5-8.2,10.7l0.7,8.1
	c0.3,3.5,3,6.2,6.5,6.6L65.5,63c0.2,0.4,0.3,0.8,0.4,1.3c0.3,2.2-1.4,4.2-3.6,4.2h-0.7c-1.3-1.7-3.3-2.8-5.7-2.8s-4.4,1.1-5.7,2.8
	h-8.8c-1.3-1.7-3.3-2.8-5.7-2.8s-4.4,1.1-5.7,2.8h-2c-1.6,0-2.9,1.3-2.9,2.9s1.3,2.9,2.9,2.9h0.7c0.7,3.2,3.6,5.7,7,5.7
	s6.3-2.4,7-5.7h6.2c0.7,3.2,3.6,5.7,7,5.7c3.5,0,6.3-2.5,7-5.7c4.8-0.3,8.8-4.3,8.8-9.2c0.1-2.6-1-5-2.7-6.7L71.4,30l1.6-2
	c0.1-0.1,0.2-0.1,0.3-0.1h4.2c1.6,0,2.9-1.3,2.9-2.9C80.3,23.5,79.1,22.2,77.5,22.2z M43.4,48.5c0,1.7-1.3,3-3,3s-3-1.3-3-3v-5.7
	c0-1.7,1.3-3,3-3s3,1.3,3,3V48.5z M52.3,48.5c0,1.7-1.3,3-3,3s-3-1.3-3-3v-5.7c0-1.7,1.3-3,3-3s3,1.3,3,3V48.5z M60.8,48.5
	c0,1.7-1.3,3-3,3l0,0c-1.7,0-3-1.3-3-3v-5.7c0-1.7,1.3-3,3-3l0,0c1.7,0,3,1.3,3,3V48.5z"/>
</svg>
