<?xml version="1.0" encoding="utf-8"?>
<!-- Generator: Adobe Illustrator 24.1.3, SVG Export Plug-In . SVG Version: 6.00 Build 0)  -->
<svg version="1.1" id="Слой_1" xmlns="http://www.w3.org/2000/svg" xmlns:xlink="http://www.w3.org/1999/xlink" x="0px" y="0px"
	 viewBox="0 0 50 50" style="enable-background:new 0 0 50 50;" xml:space="preserve">
<style type="text/css">
	.st0{fill:#4D4D4D;}
</style>
<g>
	<path class="st0" d="M46.82,46.44L45.4,10.51c-0.07-1.84-1.58-3.29-3.42-3.29h-7.2C33.62,3.06,29.81,0,25.28,0
		c-4.53,0-8.34,3.06-9.5,7.22H8.02c-1.84,0-3.35,1.45-3.42,3.29L3.18,46.44C3.1,48.38,4.66,50,6.6,50h36.8
		C45.34,50,46.9,48.38,46.82,46.44z M25.28,2.64c3.05,0,5.66,1.9,6.72,4.58H18.56C19.62,4.54,22.23,2.64,25.28,2.64z M43.96,47.12
		c-0.09,0.09-0.27,0.24-0.57,0.24H6.6c-0.29,0-0.48-0.15-0.57-0.24c-0.09-0.09-0.23-0.28-0.22-0.57l1.42-35.93
		c0.02-0.42,0.36-0.75,0.78-0.75h33.96c0.42,0,0.77,0.33,0.78,0.75l1.42,35.93C44.19,46.83,44.05,47.03,43.96,47.12z"/>
	<circle class="st0" cx="17.2" cy="17.59" r="1.85"/>
	<circle class="st0" cx="32.87" cy="17.59" r="1.85"/>
</g>
</svg>
