<?xml version="1.0" encoding="utf-8"?>
<!-- Generator: Adobe Illustrator 24.0.0, SVG Export Plug-In . SVG Version: 6.00 Build 0)  -->
<svg version="1.1" id="Слой_1" xmlns="http://www.w3.org/2000/svg" xmlns:xlink="http://www.w3.org/1999/xlink" x="0px" y="0px"
	 viewBox="0 0 29.5 29.5" style="enable-background:new 0 0 29.5 29.5;" xml:space="preserve">
<style type="text/css">
	.st0{fill:#3D3D3D;}
</style>
<g>
	<path class="st0" d="M29.4,20.2l-4.2-4.2l2.3-2.5V2h-6.3H17h-6.7L5.9,6.8v9H0l4.4,4.4L0,24.7v0h20.8v4.1L29.4,20.2z M26.4,13.2
		l-2,2.2L23.1,14V7.6l3.3-3.8V13.2z M25.8,3l-3.4,3.8h-5.7L20.2,3H25.8z M17.4,3h1.4l-3.4,3.8H14L17.4,3z M15.6,7.9v1.6l-0.4-0.3
		l-0.6-0.5L14,9.1l-0.5,0.4V7.9H15.6z M10.7,3H16l-3.5,3.8H7.3L10.7,3z M6.9,7.9h5.5v3.7l2.1-1.6l2,1.5V7.9h5.5v5.1l-1.3-1.3v4.1
		H6.9V7.9z M2.5,23.7L5.2,21l0.7-0.7l-0.7-0.7l-2.7-2.7h3.4h1h13.9h1v-1v-1.7l0.2,0.2l1,1l0.7,0.7l0.7,0.7l3.4,3.4l-6.1,6.1v-1.6v-1
		h-1H2.5z"/>
</g>
</svg>
