<?xml version="1.0" encoding="utf-8"?>
<!-- Generator: Adobe Illustrator 24.1.3, SVG Export Plug-In . SVG Version: 6.00 Build 0)  -->
<svg version="1.1" id="Слой_1" xmlns="http://www.w3.org/2000/svg" xmlns:xlink="http://www.w3.org/1999/xlink" x="0px" y="0px"
	 viewBox="0 0 500 500" style="enable-background:new 0 0 500 500;" xml:space="preserve">
<style type="text/css">
	.st0{fill:#B8CC76;}
	.st1{display:none;}
	.st2{display:inline;fill:#F7931E;}
</style>
<g>
	<g>
		<path class="st0" d="M134,142H58c-2.761,0-5,2.239-5,5v5c0,2.761,2.239,5,5,5h76c2.761,0,5-2.239,5-5v-5
			C139,144.239,136.761,142,134,142L134,142z"/>
		<path class="st0" d="M168,170H58c-2.761,0-5,2.239-5,5v5c0,2.761,2.239,5,5,5h110c2.761,0,5-2.239,5-5v-5
			C173,172.239,170.761,170,168,170L168,170z"/>
		<path class="st0" d="M191.5,48.5l-15-15l-15-15H152H30.5c-2.761,0-5,2.239-5,5v229c0,2.761,2.239,5,5,5h171c2.761,0,5-2.239,5-5
			V74V63.5L191.5,48.5z M180.787,59H167V45.213L180.787,59z M191.5,242.5h-151v-209H152v36.551c0,2.181,1.768,3.949,3.949,3.949
			H191.5V242.5z"/>
	</g>
	<g>
		<path class="st0" d="M404,361h-76c-2.761,0-5,2.239-5,5v5c0,2.761,2.239,5,5,5h76c2.761,0,5-2.239,5-5v-5
			C409,363.239,406.761,361,404,361L404,361z"/>
		<path class="st0" d="M438,389H328c-2.761,0-5,2.239-5,5v5c0,2.761,2.239,5,5,5h110c2.761,0,5-2.239,5-5v-5
			C443,391.239,440.761,389,438,389L438,389z"/>
		<path class="st0" d="M461.5,267.5l-15-15l-15-15H422H300.5c-2.761,0-5,2.239-5,5v229c0,2.761,2.239,5,5,5h171c2.761,0,5-2.239,5-5
			V293v-10.5L461.5,267.5z M450.787,278H437v-13.787L450.787,278z M461.5,461.5h-151v-209H422v36.551
			c0,2.181,1.768,3.949,3.949,3.949H461.5V461.5z"/>
	</g>
	<path class="st0" d="M168.216,437.881l-28.271-28.271c-1.187-1.187-2.646-1.718-4.077-1.718c-2.994,0-5.867,2.326-5.867,5.837
		v20.424c-29.998-8.69-52-36.391-52-69.152c0-30.934,19.616-57.356,47.058-67.523c2.961-1.097,4.942-3.899,4.942-7.057
		c0-5.248-5.237-8.866-10.159-7.047C86.658,295.638,63,327.555,63,365c0,41.166,28.592,75.65,67,84.686v20.585
		c0,3.511,2.873,5.837,5.867,5.837c1.431,0,2.89-0.531,4.077-1.718l28.271-28.271C170.49,443.844,170.49,440.156,168.216,437.881z
		 M145,448.121v-12.243l6.121,6.121L145,448.121z"/>
	<path class="st0" d="M319.784,57.124l28.271,28.271c1.187,1.187,2.646,1.718,4.077,1.718c2.994,0,5.867-2.326,5.867-5.837V60.853
		c29.998,8.69,52,36.391,52,69.152c0,30.934-19.616,57.356-47.058,67.523c-2.961,1.097-4.942,3.899-4.942,7.057
		c0,5.248,5.237,8.866,10.159,7.047C401.342,199.368,425,167.451,425,130.005c0-41.166-28.592-75.65-67-84.686V24.734
		c0-3.511-2.873-5.837-5.867-5.837c-1.431,0-2.89,0.531-4.077,1.718l-28.271,28.271C317.51,51.161,317.51,54.85,319.784,57.124z
		 M343,46.884v12.243l-6.121-6.121L343,46.884z"/>
</g>
<g class="st1">
	<path class="st2" d="M93.5,255.5c0,87.813,71.187,159,159,159s159-71.187,159-159s-71.187-159-159-159S93.5,167.687,93.5,255.5z
		 M252.5,111.5c38.464,0,74.625,14.979,101.823,42.177S396.5,217.037,396.5,255.5c0,38.464-14.979,74.625-42.177,101.823
		S290.964,399.5,252.5,399.5s-74.625-14.979-101.823-42.177S108.5,293.964,108.5,255.5s14.979-74.625,42.177-101.823
		S214.036,111.5,252.5,111.5z"/>
	<path class="st2" d="M252.5,283.5c15.464,0,28-12.536,28-28c0-12.683-8.435-23.391-20-26.834V160h-15v68.382
		c-9.573,2.464-17.157,9.866-19.893,19.326H175v15h50.441C228.622,274.678,239.529,283.5,252.5,283.5z M252.5,242.5
		c7.168,0,13,5.832,13,13s-5.832,13-13,13s-13-5.832-13-13S245.332,242.5,252.5,242.5z"/>
	<path class="st2" d="M429.378,104.595c-1.907-2.233-3.845-4.418-5.834-6.577c-0.002-0.002-0.004-0.004-0.006-0.006
		c-0.059-0.064-0.113-0.123-0.172-0.187c-0.003-0.003-0.005-0.005-0.007-0.008c-0.034-0.037-0.07-0.075-0.104-0.113
		c-0.004-0.005-0.009-0.009-0.013-0.014c-0.02-0.021-0.033-0.036-0.053-0.057c-0.007-0.008-0.014-0.015-0.021-0.023
		c-0.03-0.032-0.056-0.06-0.085-0.092c-0.01-0.01-0.019-0.021-0.029-0.031c-0.025-0.027-0.044-0.047-0.069-0.074
		c-0.014-0.015-0.028-0.03-0.042-0.046c-0.015-0.016-0.025-0.027-0.04-0.043c-0.015-0.017-0.031-0.034-0.047-0.051
		c-0.02-0.021-0.032-0.034-0.051-0.055c-0.017-0.018-0.034-0.037-0.051-0.055c-0.01-0.011-0.023-0.024-0.033-0.035
		c-0.024-0.026-0.048-0.051-0.071-0.077c-0.01-0.011-0.023-0.024-0.033-0.035c-0.019-0.02-0.037-0.04-0.056-0.06
		c-0.01-0.011-0.016-0.017-0.026-0.028c-0.025-0.027-0.05-0.054-0.075-0.081c-0.01-0.011-0.019-0.02-0.029-0.031
		c-0.026-0.027-0.051-0.055-0.076-0.082c-0.005-0.005-0.013-0.014-0.018-0.019c-0.023-0.024-0.046-0.049-0.068-0.073
		c-0.005-0.005-0.017-0.019-0.022-0.024c-0.026-0.028-0.053-0.057-0.08-0.085c-0.005-0.005-0.016-0.017-0.021-0.022
		c-0.025-0.027-0.051-0.054-0.076-0.081c-0.005-0.005-0.006-0.006-0.011-0.011c-0.029-0.03-0.057-0.061-0.086-0.091
		c-0.005-0.005-0.01-0.011-0.015-0.016c-0.029-0.031-0.058-0.061-0.087-0.092c-0.005-0.005-0.003-0.003-0.008-0.008
		c-0.03-0.031-0.059-0.063-0.089-0.094l-0.003-0.003c-0.031-0.033-0.061-0.065-0.092-0.098c-0.005-0.005-0.002-0.003-0.007-0.008
		c-0.062-0.066-0.124-0.131-0.186-0.197c-0.005-0.005,0,0-0.005-0.005c-1.351-1.429-2.72-2.841-4.107-4.236
		c-0.005-0.005,0.001,0.001-0.004-0.004c-0.063-0.063-0.125-0.126-0.188-0.189l-0.008-0.008l-10.624,10.589
		c3.948,3.961,7.791,8.125,11.422,12.377L429.378,104.595z"/>
	<path class="st2" d="M273.487,23.934c-0.008-0.001-0.006-0.001-0.014-0.001c-0.04-0.004-0.08-0.007-0.12-0.011
		c-0.008-0.001,0.001,0-0.007-0.001c-0.042-0.004-0.085-0.008-0.127-0.011c-0.008-0.001-0.016-0.001-0.024-0.002
		c-0.037-0.003-0.075-0.007-0.112-0.01c-0.008-0.001-0.01-0.001-0.018-0.002c-0.04-0.003-0.08-0.007-0.12-0.01
		c-0.008-0.001-0.027-0.002-0.034-0.003c-0.033-0.003-0.067-0.006-0.101-0.009c-0.008-0.001-0.016-0.001-0.023-0.002
		c-0.038-0.003-0.078-0.007-0.116-0.01c-0.015-0.001-0.024-0.002-0.039-0.003c-0.032-0.003-0.064-0.005-0.096-0.008
		c-0.008-0.001-0.024-0.002-0.032-0.003c-0.036-0.003-0.072-0.006-0.108-0.009c-0.015-0.001-0.031-0.003-0.047-0.004
		c-0.029-0.002-0.058-0.005-0.086-0.007c-0.015-0.001-0.032-0.003-0.047-0.004c-0.031-0.003-0.063-0.005-0.094-0.008
		c-0.015-0.001-0.036-0.003-0.051-0.004c-0.027-0.002-0.054-0.005-0.081-0.007c-0.015-0.001-0.047-0.004-0.062-0.005
		c-0.028-0.002-0.054-0.005-0.082-0.007c-0.015-0.001-0.04-0.003-0.056-0.005c-0.022-0.002-0.044-0.004-0.066-0.005
		c-0.031-0.003-0.061-0.005-0.092-0.007c-0.02-0.002-0.039-0.003-0.058-0.005c-0.015-0.001-0.048-0.004-0.063-0.005
		c-0.02-0.002-0.04-0.003-0.06-0.005c-0.038-0.003-0.066-0.005-0.105-0.008c-0.015-0.001-0.031-0.002-0.046-0.004
		c-0.023-0.002-0.049-0.004-0.073-0.006c-0.013-0.001-0.027-0.002-0.04-0.003c-0.046-0.004-0.078-0.006-0.124-0.01
		c-0.013-0.001-0.026-0.002-0.038-0.003c-0.031-0.002-0.045-0.004-0.076-0.006c-0.01-0.001-0.02-0.002-0.03-0.002
		c-0.046-0.004-0.088-0.007-0.134-0.01c-0.013-0.001-0.026-0.002-0.038-0.003c-0.023-0.002-0.054-0.004-0.077-0.006
		c-0.007,0-0.013-0.001-0.02-0.002c-0.046-0.004-0.1-0.008-0.146-0.011c-0.01-0.001-0.021-0.002-0.032-0.002
		c-0.031-0.002-0.048-0.004-0.079-0.006c-0.005,0-0.01-0.001-0.016-0.001c-0.054-0.004-0.11-0.008-0.164-0.012
		c-0.004,0-0.008-0.001-0.012-0.001c-0.092-0.007-0.178-0.013-0.27-0.02c-0.001,0-0.003,0-0.004,0
		c-0.092-0.007-0.18-0.013-0.272-0.02c-0.002,0-0.004,0-0.006,0c-4.678-0.341-9.382-0.543-14.133-0.604l0,0l-0.191,14.999
		c5.607,0.071,11.268,0.36,16.826,0.857L273.487,23.934z"/>
	<path class="st2" d="M308.95,29.9c-1.085-0.271-2.174-0.534-3.265-0.789l0,0c-0.089-0.021-0.179-0.042-0.269-0.063
		c-0.007-0.002-0.002-0.001-0.01-0.002c-0.087-0.02-0.174-0.04-0.261-0.06l-0.014-0.003c-0.085-0.02-0.171-0.039-0.256-0.059
		c-0.007-0.002-0.011-0.003-0.018-0.004c-0.042-0.01-0.083-0.019-0.125-0.029c-0.007-0.002-0.006-0.001-0.013-0.003
		c-0.037-0.008-0.074-0.017-0.11-0.025c-0.007-0.002-0.02-0.005-0.027-0.006c-0.039-0.009-0.079-0.018-0.118-0.027
		c-0.007-0.002-0.017-0.004-0.025-0.006c-0.035-0.008-0.07-0.016-0.106-0.024c-0.007-0.002-0.013-0.003-0.021-0.005
		c-0.039-0.009-0.078-0.018-0.117-0.027c-0.007-0.002-0.025-0.006-0.032-0.007c-0.034-0.008-0.066-0.015-0.1-0.023
		c-0.007-0.002-0.017-0.004-0.024-0.006c-0.038-0.009-0.075-0.017-0.113-0.026c-0.015-0.003-0.023-0.005-0.038-0.008
		c-0.035-0.008-0.07-0.016-0.105-0.024c-0.007-0.002-0.026-0.006-0.033-0.007c-0.031-0.007-0.063-0.014-0.094-0.021
		c-0.015-0.003-0.024-0.005-0.039-0.009c-0.036-0.008-0.073-0.016-0.109-0.024c-0.015-0.003-0.026-0.006-0.041-0.009
		c-0.027-0.006-0.053-0.012-0.08-0.018c-0.015-0.003-0.029-0.006-0.044-0.01c-0.035-0.008-0.07-0.016-0.105-0.023
		c-0.015-0.003-0.032-0.007-0.046-0.01c-0.025-0.005-0.049-0.011-0.074-0.016c-0.015-0.003-0.031-0.007-0.046-0.01
		c-0.034-0.008-0.068-0.015-0.102-0.023c-0.022-0.005-0.028-0.006-0.05-0.011c-0.026-0.006-0.051-0.011-0.077-0.017
		c-0.022-0.005-0.035-0.008-0.057-0.013c-0.029-0.006-0.057-0.013-0.086-0.019c-0.015-0.003-0.04-0.009-0.055-0.012
		c-0.025-0.005-0.051-0.011-0.076-0.017c-0.022-0.005-0.047-0.01-0.069-0.015c-0.023-0.005-0.046-0.01-0.069-0.015
		c-0.015-0.003-0.042-0.009-0.057-0.013c-0.028-0.006-0.057-0.013-0.086-0.019c-0.022-0.005-0.039-0.009-0.061-0.013
		c-0.024-0.005-0.048-0.01-0.072-0.016c-0.022-0.005-0.028-0.006-0.05-0.011c-0.034-0.007-0.068-0.015-0.102-0.022
		c-0.015-0.003-0.033-0.007-0.048-0.01c-0.023-0.005-0.046-0.01-0.07-0.015c-0.015-0.003-0.036-0.008-0.051-0.011
		c-0.033-0.007-0.066-0.014-0.099-0.021c-0.022-0.005-0.033-0.007-0.055-0.012c-0.021-0.005-0.044-0.009-0.065-0.014
		c-0.022-0.005-0.05-0.011-0.072-0.016c-0.027-0.006-0.053-0.011-0.08-0.017c-0.015-0.003-0.04-0.008-0.054-0.012
		c-0.022-0.005-0.044-0.01-0.067-0.014c-0.029-0.006-0.054-0.012-0.084-0.018c-0.021-0.005-0.042-0.009-0.064-0.014
		c-0.015-0.003-0.041-0.009-0.056-0.012c-0.028-0.006-0.056-0.012-0.083-0.018c-0.022-0.005-0.047-0.01-0.069-0.015
		c-0.021-0.005-0.043-0.009-0.064-0.014c-0.022-0.005-0.034-0.007-0.056-0.012c-0.033-0.007-0.066-0.014-0.099-0.021
		c-0.022-0.005-0.031-0.007-0.054-0.011c-0.021-0.004-0.042-0.009-0.063-0.013c-0.022-0.005-0.032-0.007-0.054-0.011
		c-0.032-0.007-0.065-0.014-0.097-0.02c-0.022-0.005-0.035-0.007-0.057-0.012s-0.044-0.009-0.066-0.014s-0.046-0.01-0.068-0.014
		c-0.027-0.006-0.054-0.011-0.081-0.017c-0.015-0.003-0.041-0.008-0.056-0.012c-0.025-0.005-0.051-0.011-0.076-0.016
		c-0.015-0.003-0.047-0.01-0.062-0.013c-0.027-0.006-0.052-0.011-0.079-0.016c-0.015-0.003-0.038-0.008-0.053-0.011
		c-0.03-0.006-0.06-0.012-0.09-0.019c-0.022-0.005-0.033-0.007-0.055-0.011c-0.025-0.005-0.051-0.01-0.076-0.016
		c-0.022-0.005-0.026-0.005-0.048-0.01c-0.035-0.007-0.071-0.015-0.106-0.022c-0.015-0.003-0.025-0.005-0.04-0.008
		c-0.028-0.006-0.057-0.012-0.085-0.017c-0.015-0.003-0.022-0.005-0.037-0.008c-0.037-0.008-0.074-0.015-0.111-0.023
		c-0.007-0.002-0.031-0.006-0.038-0.008c-0.03-0.006-0.06-0.012-0.09-0.018c-0.015-0.003-0.019-0.004-0.034-0.007
		c-0.038-0.008-0.075-0.015-0.113-0.023c-0.015-0.003-0.021-0.004-0.036-0.007c-0.037-0.007-0.073-0.015-0.11-0.022l-0.014-0.003
		c-0.039-0.008-0.078-0.016-0.117-0.023c-0.015-0.003-0.015-0.003-0.03-0.006c-0.04-0.008-0.08-0.016-0.12-0.024
		c-0.007-0.001-0.011-0.002-0.018-0.004c-0.036-0.007-0.072-0.014-0.107-0.022c-0.007-0.001-0.021-0.004-0.029-0.006
		c-0.04-0.008-0.08-0.016-0.12-0.024l-0.02-0.004c-0.037-0.007-0.073-0.015-0.11-0.022c-0.007-0.001-0.013-0.003-0.021-0.004
		c-0.041-0.008-0.082-0.016-0.123-0.024c-0.007-0.001-0.015-0.003-0.022-0.004c-0.04-0.008-0.08-0.016-0.12-0.024
		c-0.007-0.001,0.001,0-0.007-0.001c-0.043-0.008-0.086-0.017-0.129-0.025c-0.007-0.001-0.009-0.002-0.017-0.003
		c-0.087-0.017-0.173-0.034-0.26-0.051l-0.013-0.003c-0.09-0.018-0.18-0.035-0.27-0.053h-0.001c-1.936-0.377-3.88-0.729-5.833-1.058
		l-2.487,14.792c5.514,0.927,11.056,2.082,16.473,3.433L308.95,29.9z"/>
	<path class="st2" d="M463.718,203.377l14.566-3.582c-0.018-0.073-0.034-0.14-0.052-0.213c-0.001-0.004-0.002-0.008-0.003-0.011
		c-0.02-0.08-0.041-0.164-0.06-0.244c-0.002-0.009-0.004-0.018-0.007-0.027c-0.011-0.044-0.024-0.098-0.035-0.142
		c-0.002-0.008-0.004-0.015-0.005-0.022c-0.005-0.022-0.012-0.047-0.017-0.069c-0.004-0.015-0.007-0.028-0.011-0.043
		c-0.009-0.036-0.017-0.067-0.026-0.103c-0.005-0.019-0.009-0.038-0.014-0.056c-0.004-0.015-0.011-0.044-0.015-0.059
		c-0.005-0.021-0.01-0.042-0.016-0.063c-0.007-0.029-0.015-0.059-0.022-0.088c-0.005-0.021-0.01-0.041-0.016-0.062
		c-0.005-0.022-0.008-0.033-0.014-0.055c-0.008-0.034-0.017-0.067-0.025-0.1c-0.004-0.015-0.008-0.031-0.011-0.045
		c-0.006-0.025-0.013-0.051-0.019-0.076c-0.004-0.015-0.007-0.028-0.011-0.043c-0.009-0.036-0.018-0.071-0.027-0.107
		c-0.002-0.007-0.008-0.033-0.01-0.041c-0.008-0.03-0.015-0.061-0.023-0.091c-0.002-0.007-0.005-0.021-0.007-0.029
		c-0.01-0.038-0.019-0.076-0.029-0.113c-0.004-0.015-0.005-0.02-0.009-0.034c-0.01-0.039-0.02-0.079-0.03-0.118l-0.001-0.003
		c-0.01-0.039-0.02-0.079-0.03-0.119c-0.002-0.007-0.005-0.019-0.007-0.026c-0.01-0.041-0.021-0.082-0.031-0.123l-0.002-0.009
		c-0.01-0.041-0.021-0.082-0.031-0.122l-0.003-0.012c-0.011-0.043-0.022-0.086-0.033-0.13l-0.002-0.007
		c-0.023-0.089-0.046-0.178-0.069-0.268l-0.001-0.002c-1.229-4.733-2.602-9.408-4.117-14.019V182.9
		c-0.014-0.043-0.028-0.085-0.042-0.128c-0.002-0.007-0.002-0.007-0.005-0.014c-0.013-0.039-0.026-0.078-0.038-0.117
		c-0.002-0.007-0.001-0.003-0.003-0.01c-0.013-0.038-0.025-0.077-0.038-0.116c-0.002-0.007-0.003-0.008-0.005-0.015l-14.243,4.706
		C460.819,192.511,462.384,197.951,463.718,203.377z"/>
	<path class="st2" d="M469.188,236.567l14.945-1.288c-0.298-3.457-0.67-6.884-1.118-10.297c0-0.002-0.001-0.005-0.001-0.007
		c-0.012-0.091-0.023-0.174-0.035-0.265c0-0.003-0.001-0.007-0.001-0.01c-0.012-0.091-0.022-0.169-0.035-0.26
		c-0.001-0.007-0.002-0.013-0.003-0.02c-0.007-0.053-0.014-0.105-0.021-0.158c-0.001-0.004-0.001-0.009-0.002-0.013
		c-0.004-0.03-0.007-0.054-0.011-0.084c-0.001-0.005-0.001-0.01-0.002-0.015c-0.006-0.045-0.014-0.107-0.021-0.152
		c-0.001-0.008-0.002-0.017-0.003-0.025c-0.004-0.03-0.007-0.05-0.011-0.08c-0.001-0.007-0.002-0.014-0.003-0.021
		c-0.006-0.045-0.013-0.093-0.019-0.138c-0.002-0.014-0.004-0.028-0.006-0.041c-0.003-0.023-0.007-0.049-0.01-0.071
		c-0.002-0.014-0.004-0.028-0.006-0.042c-0.005-0.038-0.01-0.076-0.016-0.114c-0.002-0.018-0.005-0.035-0.007-0.053
		c-0.003-0.023-0.005-0.039-0.009-0.062c-0.004-0.032-0.009-0.065-0.013-0.097c-0.003-0.023-0.005-0.038-0.008-0.06
		c-0.003-0.02-0.005-0.04-0.008-0.06c-0.003-0.023-0.005-0.034-0.008-0.057c-0.005-0.034-0.01-0.068-0.014-0.102
		c-0.003-0.023-0.004-0.029-0.007-0.052c-0.003-0.024-0.007-0.047-0.01-0.071c-0.002-0.015-0.005-0.033-0.007-0.048
		c-0.005-0.035-0.01-0.07-0.015-0.105c-0.002-0.015-0.005-0.032-0.007-0.047c-0.004-0.029-0.008-0.057-0.012-0.086
		c-0.002-0.015-0.003-0.018-0.005-0.034c-0.005-0.038-0.011-0.075-0.016-0.113c-0.002-0.015-0.003-0.023-0.005-0.038
		c-0.005-0.037-0.01-0.073-0.016-0.11c-0.001-0.008,0-0.003-0.002-0.011c-0.006-0.04-0.012-0.081-0.017-0.121
		c-0.002-0.015-0.002-0.016-0.005-0.031c-0.006-0.04-0.012-0.081-0.017-0.121l-0.001-0.008c-0.006-0.039-0.012-0.08-0.017-0.119
		c-0.001-0.008-0.003-0.018-0.004-0.025c-0.013-0.087-0.025-0.174-0.038-0.26c-0.001-0.008,0-0.002-0.001-0.009
		c-0.013-0.091-0.027-0.181-0.04-0.272v-0.002c-0.191-1.293-0.392-2.583-0.604-3.869l-14.801,2.438
		C468.004,225.369,468.708,230.989,469.188,236.567z"/>
	<path class="st2" d="M453.168,171.448l13.833-5.801c-1.855-4.423-3.842-8.775-5.958-13.054v-0.001
		c-0.041-0.084-0.083-0.167-0.124-0.251l0,0c-0.02-0.04-0.04-0.08-0.059-0.12c-0.003-0.007-0.003-0.006-0.006-0.012
		c-0.038-0.077-0.077-0.155-0.115-0.232c-0.003-0.007-0.008-0.017-0.012-0.023c-0.018-0.036-0.036-0.071-0.053-0.107
		c-0.007-0.013-0.007-0.014-0.014-0.028c-0.014-0.028-0.028-0.056-0.042-0.083c-0.007-0.013-0.01-0.02-0.016-0.033
		c-0.016-0.032-0.032-0.064-0.048-0.096c-0.007-0.013-0.015-0.031-0.022-0.044c-0.011-0.023-0.023-0.045-0.034-0.068
		c-0.013-0.026-0.024-0.048-0.037-0.074c-0.008-0.017-0.017-0.033-0.025-0.05c-0.01-0.02-0.022-0.043-0.032-0.063
		c-0.005-0.01-0.01-0.02-0.015-0.03c-0.02-0.039-0.038-0.076-0.058-0.116c-0.005-0.009-0.009-0.018-0.014-0.028
		c-0.036-0.072-0.073-0.145-0.109-0.217c-0.003-0.005-0.005-0.011-0.008-0.016c-0.261-0.517-0.532-1.049-0.797-1.565l-13.34,6.859
		C448.617,161.166,451.009,166.298,453.168,171.448z"/>
	<path class="st2" d="M437.789,141.534l12.769-7.871c-0.705-1.144-1.411-2.266-2.135-3.397c-0.003-0.004-0.005-0.008-0.008-0.013
		c-0.047-0.074-0.086-0.134-0.133-0.208c-0.004-0.007-0.009-0.013-0.013-0.02c-0.024-0.037-0.054-0.084-0.077-0.121
		c-0.004-0.006-0.008-0.012-0.012-0.018c-0.016-0.025-0.028-0.043-0.044-0.068c-0.002-0.004-0.005-0.007-0.007-0.011
		c-0.024-0.037-0.054-0.084-0.078-0.121c-0.007-0.01-0.013-0.021-0.02-0.031c-0.02-0.031-0.04-0.062-0.06-0.093
		c-0.009-0.014-0.018-0.028-0.027-0.042c-0.012-0.018-0.024-0.038-0.036-0.056c-0.009-0.014-0.019-0.029-0.028-0.043
		c-0.016-0.025-0.039-0.061-0.055-0.085c-0.01-0.016-0.02-0.031-0.03-0.047c-0.012-0.018-0.022-0.034-0.034-0.053
		c-0.016-0.025-0.033-0.05-0.049-0.076c-0.012-0.018-0.021-0.032-0.033-0.051c-0.012-0.018-0.024-0.037-0.036-0.056
		c-0.008-0.012-0.02-0.031-0.028-0.043c-0.018-0.028-0.036-0.056-0.055-0.084c-0.012-0.018-0.018-0.028-0.03-0.046
		c-0.014-0.021-0.028-0.044-0.042-0.065c-0.008-0.012-0.027-0.041-0.035-0.053c-0.015-0.023-0.03-0.046-0.045-0.07
		c-0.008-0.012-0.018-0.027-0.026-0.039c-0.02-0.03-0.039-0.06-0.059-0.091c-0.008-0.012-0.013-0.02-0.021-0.032
		c-0.016-0.025-0.032-0.049-0.049-0.074c-0.008-0.012-0.012-0.018-0.02-0.03c-0.02-0.031-0.041-0.063-0.062-0.094
		c-0.008-0.012-0.013-0.019-0.021-0.032c-0.021-0.032-0.042-0.063-0.062-0.095c-0.004-0.006-0.009-0.013-0.013-0.019
		c-0.02-0.03-0.039-0.06-0.059-0.09c-0.004-0.006-0.012-0.018-0.016-0.024c-0.022-0.033-0.044-0.066-0.065-0.099
		c-0.004-0.006-0.011-0.017-0.015-0.023c-0.021-0.032-0.043-0.065-0.064-0.097c-0.004-0.006-0.001-0.001-0.005-0.007
		c-0.023-0.036-0.047-0.071-0.07-0.106c-0.004-0.006-0.009-0.013-0.013-0.019c-0.048-0.072-0.095-0.144-0.143-0.216
		c-0.004-0.006-0.005-0.008-0.009-0.014c-0.024-0.037-0.048-0.073-0.073-0.11l-0.004-0.006c-0.05-0.076-0.1-0.151-0.15-0.227
		l-0.005-0.008c-1.709-2.576-3.467-5.115-5.275-7.618c-0.004-0.006-0.002-0.002-0.006-0.008c-0.026-0.036-0.052-0.072-0.078-0.107
		l-0.007-0.01c-0.024-0.034-0.049-0.067-0.073-0.101l-0.006-0.009c-0.025-0.034-0.049-0.068-0.074-0.102
		c-0.004-0.006-0.011-0.015-0.015-0.021c-0.024-0.034-0.049-0.067-0.073-0.1c-0.004-0.006-0.001-0.002-0.006-0.008
		c-0.022-0.031-0.045-0.062-0.067-0.093c-0.004-0.006-0.014-0.019-0.018-0.025c-0.023-0.031-0.045-0.062-0.068-0.093
		c-0.009-0.012-0.013-0.018-0.021-0.029c-0.018-0.025-0.035-0.048-0.053-0.073c-0.004-0.006-0.011-0.016-0.016-0.022l-12.123,8.834
		C431.701,132.074,434.857,136.778,437.789,141.534z"/>
	<path class="st2" d="M343.062,41.298c-1.118-0.473-2.241-0.938-3.368-1.394l-0.002-0.001c-0.085-0.034-0.169-0.068-0.254-0.103
		c-0.007-0.003-0.003-0.001-0.01-0.004c-0.042-0.017-0.083-0.034-0.126-0.051h-0.001c-0.041-0.017-0.082-0.033-0.123-0.049
		l-0.011-0.004c-0.04-0.016-0.081-0.033-0.121-0.049c-0.007-0.003-0.007-0.003-0.014-0.005c-0.038-0.015-0.075-0.03-0.113-0.045
		c-0.007-0.003-0.005-0.002-0.011-0.005c-0.038-0.015-0.077-0.031-0.115-0.046c-0.014-0.005-0.01-0.004-0.024-0.01
		c-0.038-0.015-0.077-0.031-0.115-0.046c-0.007-0.003-0.008-0.003-0.015-0.006c-0.034-0.014-0.069-0.028-0.104-0.041
		c-0.007-0.003-0.02-0.008-0.027-0.011c-0.037-0.015-0.074-0.029-0.11-0.044c-0.007-0.003-0.02-0.008-0.027-0.011
		c-0.031-0.012-0.062-0.025-0.094-0.037c-0.014-0.005-0.013-0.005-0.026-0.011c-0.035-0.014-0.071-0.028-0.106-0.042
		c-0.014-0.005-0.023-0.009-0.037-0.015c-0.031-0.012-0.063-0.025-0.094-0.037c-0.014-0.005-0.019-0.007-0.032-0.013
		c-0.031-0.012-0.062-0.025-0.093-0.037c-0.014-0.005-0.026-0.01-0.039-0.016c-0.035-0.014-0.07-0.028-0.105-0.042
		c-0.014-0.005-0.013-0.005-0.027-0.011c-0.029-0.011-0.057-0.023-0.086-0.034c-0.014-0.005-0.024-0.01-0.038-0.015
		c-0.034-0.013-0.068-0.027-0.102-0.04c-0.014-0.005-0.026-0.01-0.04-0.016c-0.025-0.01-0.05-0.02-0.076-0.03
		c-0.021-0.008-0.039-0.016-0.06-0.024c-0.026-0.01-0.051-0.02-0.076-0.03c-0.014-0.005-0.037-0.014-0.05-0.02
		c-0.027-0.011-0.055-0.021-0.082-0.032c-0.021-0.008-0.036-0.014-0.056-0.022c-0.023-0.009-0.044-0.017-0.067-0.026
		c-0.021-0.008-0.032-0.012-0.052-0.02c-0.03-0.012-0.06-0.023-0.09-0.035c-0.021-0.008-0.035-0.014-0.056-0.022
		c-0.019-0.008-0.038-0.015-0.058-0.022c-0.021-0.008-0.049-0.019-0.07-0.027c-0.024-0.009-0.049-0.019-0.073-0.028
		c-0.021-0.008-0.036-0.014-0.057-0.022c-0.022-0.008-0.042-0.016-0.064-0.025c-0.028-0.011-0.045-0.018-0.073-0.028
		c-0.021-0.008-0.042-0.016-0.063-0.024s-0.037-0.015-0.058-0.023c-0.021-0.008-0.042-0.016-0.063-0.024
		c-0.028-0.011-0.055-0.021-0.083-0.032c-0.017-0.006-0.034-0.013-0.051-0.019c-0.028-0.011-0.06-0.023-0.088-0.034
		c-0.019-0.008-0.039-0.015-0.059-0.023c-0.021-0.008-0.042-0.016-0.063-0.024c-0.015-0.006-0.03-0.011-0.044-0.017
		c-0.035-0.013-0.067-0.026-0.101-0.039c-0.016-0.006-0.031-0.012-0.046-0.018c-0.021-0.008-0.042-0.016-0.063-0.024
		c-0.016-0.006-0.033-0.013-0.05-0.019c-0.035-0.013-0.061-0.023-0.096-0.037c-0.017-0.006-0.033-0.013-0.05-0.019
		c-0.021-0.008-0.04-0.015-0.061-0.023c-0.024-0.009-0.048-0.018-0.072-0.028c-0.028-0.01-0.048-0.018-0.076-0.029
		c-0.015-0.006-0.031-0.012-0.046-0.018c-0.035-0.013-0.054-0.02-0.088-0.034c-0.019-0.007-0.039-0.015-0.058-0.022
		c-0.021-0.008-0.043-0.016-0.064-0.024c-0.015-0.006-0.031-0.012-0.046-0.017c-0.035-0.013-0.068-0.026-0.103-0.039
		c-0.014-0.005-0.029-0.011-0.043-0.016c-0.021-0.008-0.046-0.017-0.067-0.025c-0.014-0.005-0.027-0.01-0.041-0.016
		c-0.035-0.013-0.07-0.026-0.105-0.04c-0.015-0.006-0.03-0.011-0.045-0.017c-0.021-0.008-0.041-0.016-0.062-0.023
		c-0.029-0.011-0.058-0.022-0.088-0.033c-0.021-0.008-0.038-0.014-0.059-0.022c-0.018-0.007-0.034-0.013-0.052-0.02
		c-0.028-0.01-0.06-0.023-0.088-0.033c-0.02-0.007-0.04-0.015-0.06-0.023c-0.014-0.005-0.042-0.016-0.056-0.021
		c-0.021-0.008-0.042-0.016-0.063-0.023c-0.028-0.01-0.054-0.02-0.081-0.03c-0.019-0.007-0.038-0.014-0.057-0.021
		c-0.021-0.008-0.033-0.012-0.054-0.02c-0.03-0.011-0.06-0.023-0.091-0.034c-0.021-0.008-0.038-0.014-0.059-0.022
		c-0.018-0.007-0.036-0.013-0.054-0.02c-0.028-0.01-0.043-0.016-0.07-0.026c-0.026-0.01-0.052-0.019-0.078-0.029
		c-0.014-0.005-0.039-0.015-0.053-0.02c-0.022-0.008-0.045-0.017-0.067-0.025c-0.028-0.01-0.042-0.015-0.07-0.026
		c-0.023-0.008-0.046-0.017-0.069-0.026c-0.014-0.005-0.036-0.013-0.05-0.018c-0.033-0.012-0.066-0.024-0.099-0.036
		c-0.014-0.005-0.026-0.01-0.04-0.015c-0.025-0.009-0.05-0.018-0.075-0.028c-0.014-0.005-0.03-0.011-0.044-0.016
		c-0.034-0.012-0.067-0.025-0.101-0.037c-0.014-0.005-0.027-0.01-0.04-0.015c-0.028-0.01-0.055-0.02-0.082-0.03
		c-0.007-0.003-0.03-0.011-0.037-0.014c-0.034-0.013-0.068-0.025-0.102-0.037c-0.014-0.005-0.021-0.008-0.035-0.013
		c-0.036-0.013-0.073-0.027-0.11-0.04c-0.007-0.003-0.017-0.006-0.024-0.009c-0.032-0.012-0.064-0.023-0.097-0.035
		c-0.007-0.003-0.022-0.008-0.029-0.011c-0.037-0.014-0.074-0.027-0.111-0.04c-0.007-0.003-0.022-0.008-0.029-0.011
		c-0.032-0.012-0.065-0.023-0.097-0.035c-0.007-0.003-0.015-0.006-0.022-0.008c-0.038-0.014-0.075-0.027-0.113-0.041
		c-0.007-0.003-0.022-0.008-0.029-0.01c-0.039-0.014-0.078-0.028-0.117-0.042l-0.003-0.001c-0.039-0.014-0.077-0.028-0.116-0.042
		c-0.007-0.003-0.018-0.006-0.025-0.009c-0.04-0.014-0.079-0.029-0.119-0.043l-0.008-0.003c-0.041-0.015-0.081-0.029-0.121-0.044
		l-0.008-0.003c-0.042-0.015-0.085-0.031-0.128-0.046c-0.007-0.003,0.002,0.001-0.005-0.002c-0.087-0.031-0.174-0.063-0.261-0.094
		l-0.003-0.001c-1.547-0.554-3.101-1.092-4.663-1.614l-4.753,14.227c5.297,1.77,10.593,3.772,15.739,5.951L343.062,41.298z"/>
	<path class="st2" d="M374.992,57.847c-5.087-3.159-10.305-6.128-15.644-8.895l-6.903,13.317c4.959,2.57,9.882,5.37,14.633,8.32
		L374.992,57.847z"/>
	<path class="st2" d="M403.989,79.122c-0.425-0.365-0.85-0.729-1.278-1.09c-0.006-0.005-0.006-0.005-0.011-0.009
		c-0.067-0.057-0.134-0.114-0.201-0.171c-0.006-0.005-0.007-0.006-0.013-0.011c-0.032-0.027-0.065-0.055-0.098-0.082l-0.013-0.011
		c-0.03-0.025-0.06-0.05-0.089-0.075c-0.006-0.005-0.007-0.006-0.013-0.011c-0.031-0.026-0.063-0.053-0.094-0.079
		c-0.006-0.005-0.015-0.013-0.021-0.017c-0.031-0.026-0.062-0.052-0.093-0.078c-0.006-0.005-0.009-0.007-0.014-0.012
		c-0.028-0.023-0.055-0.046-0.083-0.07c-0.006-0.005-0.017-0.015-0.023-0.019c-0.029-0.025-0.059-0.049-0.088-0.074
		c-0.006-0.005-0.022-0.018-0.027-0.023c-0.026-0.022-0.052-0.044-0.078-0.066c-0.006-0.005-0.01-0.009-0.016-0.013
		c-0.029-0.025-0.059-0.049-0.088-0.074c-0.011-0.009-0.02-0.016-0.031-0.026c-0.029-0.024-0.057-0.048-0.086-0.072
		c-0.011-0.009-0.013-0.011-0.025-0.021c-0.024-0.02-0.047-0.04-0.071-0.059c-0.011-0.009-0.019-0.016-0.03-0.025
		c-0.028-0.023-0.056-0.047-0.084-0.07c-0.011-0.009-0.02-0.017-0.031-0.026c-0.024-0.02-0.048-0.04-0.072-0.06
		c-0.011-0.009-0.018-0.015-0.03-0.025c-0.026-0.022-0.052-0.043-0.078-0.065c-0.011-0.009-0.022-0.018-0.033-0.027
		c-0.028-0.023-0.056-0.046-0.083-0.069c-0.011-0.009-0.02-0.016-0.031-0.026c-0.022-0.018-0.044-0.037-0.067-0.055
		c-0.011-0.009-0.019-0.016-0.031-0.025c-0.028-0.023-0.055-0.046-0.083-0.069c-0.011-0.009-0.023-0.019-0.034-0.029
		c-0.025-0.021-0.051-0.042-0.076-0.063c-0.011-0.009-0.019-0.016-0.03-0.025c-0.023-0.019-0.047-0.039-0.071-0.058
		c-0.011-0.009-0.024-0.02-0.035-0.029c-0.028-0.023-0.056-0.046-0.084-0.069c-0.011-0.009-0.017-0.014-0.028-0.023
		c-0.024-0.02-0.048-0.04-0.073-0.06c-0.011-0.009-0.014-0.012-0.025-0.021c-0.029-0.024-0.057-0.047-0.086-0.071
		c-0.011-0.009-0.019-0.016-0.031-0.025c-0.029-0.024-0.059-0.048-0.088-0.072c-0.006-0.005-0.016-0.013-0.021-0.017
		c-0.025-0.021-0.05-0.042-0.076-0.062c-0.006-0.005-0.021-0.017-0.026-0.022c-0.03-0.024-0.059-0.049-0.089-0.073
		c-0.006-0.005-0.02-0.016-0.026-0.021c-0.026-0.021-0.053-0.043-0.079-0.064c-0.006-0.005-0.014-0.011-0.019-0.016
		c-0.029-0.024-0.059-0.048-0.088-0.072c-0.011-0.009-0.019-0.016-0.031-0.025c-0.03-0.024-0.059-0.049-0.089-0.073
		c-0.006-0.005-0.012-0.01-0.018-0.014c-0.027-0.022-0.054-0.044-0.081-0.066c-0.006-0.005-0.017-0.014-0.023-0.019
		c-0.031-0.025-0.062-0.05-0.093-0.076c-0.006-0.005-0.014-0.012-0.02-0.016c-0.029-0.024-0.059-0.048-0.088-0.072
		c-0.006-0.005-0.008-0.007-0.014-0.011c-0.031-0.025-0.062-0.05-0.092-0.075c-0.006-0.005-0.016-0.013-0.022-0.018
		c-0.031-0.026-0.063-0.051-0.094-0.077c-0.006-0.005-0.011-0.009-0.017-0.014c-0.028-0.023-0.057-0.046-0.085-0.069
		c-0.006-0.005-0.012-0.009-0.017-0.014c-0.031-0.025-0.062-0.05-0.093-0.076c-0.006-0.005-0.017-0.014-0.023-0.019
		c-0.032-0.026-0.064-0.052-0.097-0.078l-0.001-0.001c-0.033-0.026-0.065-0.053-0.098-0.079c-0.006-0.005-0.012-0.01-0.018-0.015
		c-0.032-0.026-0.065-0.053-0.098-0.079l-0.013-0.01c-0.032-0.026-0.064-0.052-0.096-0.077c-0.006-0.005-0.001-0.001-0.007-0.006
		c-0.035-0.028-0.069-0.056-0.104-0.084l-0.008-0.006c-0.07-0.056-0.14-0.113-0.21-0.169c-0.006-0.005-0.003-0.002-0.009-0.007
		c-0.034-0.027-0.068-0.055-0.102-0.082c-0.006-0.005-0.005-0.004-0.011-0.008c-0.07-0.056-0.14-0.112-0.209-0.168l-0.006-0.005
		c-0.071-0.057-0.143-0.114-0.214-0.171l-0.004-0.003c-0.036-0.029-0.072-0.057-0.108-0.086c-0.006-0.005,0.004,0.003-0.002-0.002
		c-0.072-0.058-0.145-0.115-0.217-0.173l-0.003-0.002c-0.036-0.029-0.072-0.058-0.109-0.087l0,0
		c-0.073-0.058-0.146-0.116-0.22-0.174l-0.001-0.001c-0.661-0.524-1.324-1.044-1.991-1.561l-0.002-0.001
		c-0.184-0.143-0.367-0.284-0.552-0.426l-0.008-0.006c-0.071-0.055-0.143-0.11-0.214-0.164l-0.008-0.006
		c-0.034-0.026-0.069-0.053-0.103-0.079c-0.006-0.004-0.008-0.006-0.013-0.01c-0.068-0.052-0.136-0.104-0.204-0.156
		c-0.006-0.004-0.016-0.012-0.021-0.016c-0.032-0.025-0.064-0.049-0.096-0.074c-0.006-0.004-0.012-0.009-0.018-0.013
		c-0.027-0.021-0.054-0.041-0.081-0.062c-0.012-0.009-0.016-0.012-0.027-0.021c-0.03-0.023-0.059-0.045-0.089-0.068
		c-0.012-0.009-0.021-0.016-0.032-0.025c-0.025-0.019-0.051-0.039-0.076-0.058c-0.012-0.009-0.022-0.017-0.034-0.026
		c-0.025-0.019-0.05-0.038-0.074-0.057c-0.012-0.009-0.027-0.02-0.038-0.029c-0.027-0.02-0.054-0.041-0.081-0.062
		c-0.017-0.013-0.026-0.02-0.044-0.033c-0.017-0.013-0.034-0.026-0.051-0.039c-0.023-0.018-0.037-0.028-0.06-0.045
		c-0.02-0.015-0.04-0.03-0.06-0.046c-0.017-0.013-0.034-0.026-0.051-0.039c-0.014-0.011-0.028-0.022-0.043-0.032
		c-0.029-0.022-0.058-0.044-0.087-0.066c-0.01-0.008-0.02-0.015-0.03-0.023c-0.064-0.048-0.13-0.098-0.194-0.147
		c-0.004-0.003-0.008-0.006-0.013-0.01c-0.842-0.636-1.687-1.264-2.538-1.889l-8.874,12.094c4.506,3.306,8.942,6.832,13.183,10.478
		L403.989,79.122z"/>
	<path class="st2" d="M484.93,250h-14.998c0.045,1.83,0.067,3.663,0.067,5.5c0,29.369-5.749,57.851-17.086,84.656
		c-10.954,25.898-26.639,49.16-46.618,69.139c-19.98,19.98-43.242,35.664-69.14,46.618C310.351,467.251,281.869,473,252.5,473
		s-57.851-5.749-84.656-17.086c-25.898-10.954-49.16-26.638-69.14-46.618s-35.664-43.241-46.618-69.139
		C40.749,313.351,35,284.869,35,255.5s5.749-57.851,17.086-84.656c10.954-25.898,26.638-49.16,46.618-69.14
		s43.242-35.664,69.14-46.618c18.024-7.624,36.811-12.7,56.112-15.217l-12.223,16.956l12.168,8.771l25.729-35.693l-0.283-0.204
		l0.204-0.283L213.858,3.687l-8.771,12.168l13.37,9.637C106.19,41.966,20,138.66,20,255.5C20,383.906,124.094,488,252.5,488
		S485,383.906,485,255.5C485,253.661,484.973,251.829,484.93,250z"/>
	<rect x="245" y="130" class="st2" width="15" height="15"/>
	<rect x="365.208" y="247.708" class="st2" width="15" height="15"/>
	<rect x="245.5" y="365.917" class="st2" width="15" height="15"/>
	<rect x="125.292" y="248.208" class="st2" width="15" height="15"/>
</g>
<g class="st1">
	<path class="st2" d="M212.528,164.4l-46.214,46.214c-5.593,5.593-5.593,14.661,0,20.254L322.13,386.683
		c5.593,5.593,14.661,5.593,20.254,0l46.214-46.214c5.593-5.593,5.593-14.661,0-20.254L232.782,164.4
		C227.189,158.807,218.121,158.807,212.528,164.4z M377.511,330.342l-45.255,45.255L177.4,220.741l45.255-45.255L377.511,330.342z"
		/>
	<path class="st2" d="M200.203,91.872l-7.953,7.953l-82.024-82.024l-92.631,92.631l82.024,82.024l-7.246,7.246
		c-11.619,11.619-11.619,30.457,0,42.076l218.846,218.846c11.619,11.619,30.457,11.619,42.076,0l22.104-22.104
		c18.186,17.805,47.358,17.696,65.398-0.345c18.041-18.041,18.15-47.212,0.345-65.398l19.983-19.983
		c11.619-11.619,11.619-30.457,0-42.076L242.279,91.872C230.66,80.253,211.822,80.253,200.203,91.872z M38.807,110.432
		l71.418-71.418l71.418,71.418l-71.418,71.418L38.807,110.432z M430.191,427.57c-12.163,12.163-31.876,12.273-44.185,0.345
		l44.53-44.53C442.464,395.694,442.354,415.406,430.191,427.57z M450.518,321.325c5.752,5.752,5.752,15.111,0,20.863l-107.83,107.83
		c-5.752,5.752-15.111,5.752-20.863,0L102.979,231.172c-5.752-5.752-5.752-15.111,0-20.863l7.246-7.246l92.631-92.631l7.953-7.953
		c5.752-5.752,15.111-5.752,20.863,0L450.518,321.325z"/>
	<path class="st2" d="M76.638,103.715c-2.929,2.929-2.929,7.678,0,10.607l27.577,27.577c2.929,2.929,7.678,2.929,10.607,0
		s2.929-7.678,0-10.607l-27.577-27.577C84.315,100.786,79.566,100.786,76.638,103.715z"/>
	<path class="st2" d="M104.215,76.138c-2.929,2.929-2.929,7.678,0,10.607l27.577,27.577c2.929,2.929,7.678,2.929,10.607,0
		s2.929-7.678,0-10.607l-27.577-27.577C111.892,73.209,107.144,73.209,104.215,76.138z"/>
</g>
<g class="st1">
	<path class="st2" d="M444.049,58H58.951C39.096,58,23,74.096,23,93.951v296.098C23,409.904,39.096,426,58.951,426h385.098
		C463.904,426,480,409.904,480,390.049V93.951C480,74.096,463.904,58,444.049,58z M58.951,73h385.098
		C455.602,73,465,82.398,465,93.951V125.5H38V93.951C38,82.398,47.398,73,58.951,73z M444.049,411H58.951
		C47.398,411,38,401.602,38,390.049V140.5h427v249.549C465,401.602,455.602,411,444.049,411z"/>
	<circle class="st2" cx="75.5" cy="100.5" r="7.5"/>
	<circle class="st2" cx="106.5" cy="100.5" r="7.5"/>
	<circle class="st2" cx="138.5" cy="100.5" r="7.5"/>
	<path class="st2" d="M419.205,115.295c1.248,1.248,2.884,1.872,4.519,1.872c1.636,0,3.271-0.624,4.519-1.872l5.423-5.423
		l5.423,5.423c1.248,1.248,2.884,1.872,4.519,1.872c1.636,0,3.271-0.624,4.519-1.872c2.496-2.496,2.496-6.543,0-9.039l-5.423-5.423
		l5.423-5.423c2.496-2.496,2.496-6.543,0-9.039c-1.248-1.248-2.884-1.872-4.519-1.872c-1.636,0-3.271,0.624-4.519,1.872
		l-5.423,5.423l-5.423-5.423c-1.248-1.248-2.884-1.872-4.519-1.872c-1.636,0-3.271,0.624-4.519,1.872
		c-2.496,2.496-2.496,6.543,0,9.039l5.423,5.423l-5.423,5.423C416.709,108.753,416.709,112.799,419.205,115.295z"/>
	<path class="st2" d="M332.532,185H171.468C161.82,185,154,192.821,154,202.468v113.063c0,9.648,7.821,17.468,17.468,17.468h63.235
		L272,370.296V333h60.532c9.648,0,17.468-7.821,17.468-17.468V202.468C350,192.821,342.179,185,332.532,185z M335,315.531
		c0,1.361-1.107,2.468-2.468,2.468H272h-15v15v1.083l-11.69-11.69L240.917,318h-6.213h-63.235c-1.361,0-2.468-1.107-2.468-2.468
		V202.468c0-1.361,1.107-2.468,2.468-2.468h161.063c1.361,0,2.468,1.107,2.468,2.468V315.531z"/>
	<path class="st2" d="M192.5,257h101c4.142,0,7.5-3.358,7.5-7.5s-3.358-7.5-7.5-7.5h-101c-4.142,0-7.5,3.358-7.5,7.5
		S188.358,257,192.5,257z"/>
	<path class="st2" d="M192.5,229h33c4.142,0,7.5-3.358,7.5-7.5s-3.358-7.5-7.5-7.5h-33c-4.142,0-7.5,3.358-7.5,7.5
		S188.358,229,192.5,229z"/>
	<path class="st2" d="M309.5,270h-117c-4.142,0-7.5,3.358-7.5,7.5s3.358,7.5,7.5,7.5h117c4.142,0,7.5-3.358,7.5-7.5
		S313.642,270,309.5,270z"/>
</g>
</svg>
