<?xml version="1.0" encoding="utf-8"?>
<!-- Generator: Adobe Illustrator 24.0.0, SVG Export Plug-In . SVG Version: 6.00 Build 0)  -->
<svg version="1.1" id="Слой_1" xmlns="http://www.w3.org/2000/svg" xmlns:xlink="http://www.w3.org/1999/xlink" x="0px" y="0px"
	 viewBox="0 0 30 30" style="enable-background:new 0 0 30 30;" xml:space="preserve">
<style type="text/css">
	.st0{fill:#3D3D3D;}
</style>
<g>
	<path class="st0" d="M14.7,5.9c1.3,0,2.3,1,2.3,2.3s-1,2.3-2.3,2.3s-2.3-1-2.3-2.3S13.4,5.9,14.7,5.9 M14.7,4.8
		c-1.8,0-3.3,1.5-3.3,3.3c0,1.8,1.5,3.3,3.3,3.3c1.8,0,3.3-1.5,3.3-3.3C18,6.3,16.5,4.8,14.7,4.8L14.7,4.8z"/>
	<path class="st0" d="M24.9,13.3C24.8,13.3,24.8,13.3,24.9,13.3c-1.3,0-3.2,0.1-5.3,0.9c1.1-2.2,2-4.5,2-6c0-3.8-3.1-6.9-6.9-6.9
		S7.8,4.3,7.8,8.1c0,1.6,0.9,3.8,2,6c-2.1-0.7-3.9-0.8-5.1-0.8c0,0-0.1,0-0.1,0C3.2,17.1,1.6,20.9,0,24.7c0.8-0.2,1.9-0.3,3.3-0.3
		c1.3,0,2.8,0.1,4.5,0.6c3.5,1,5.8,2.8,7,3.8c1.1-1,3.4-2.9,7-3.8c1.6-0.4,3.2-0.6,4.5-0.6c1.4,0,2.6,0.2,3.3,0.3
		C28,20.9,26.4,17.1,24.9,13.3z M8.8,8.1c0-3.2,2.6-5.9,5.9-5.9s5.9,2.6,5.9,5.9c0,1.5-1,4.1-2.4,6.7c0,0,0,0,0,0
		c-0.4,0.6-0.7,1.2-1.1,1.8c-0.2,0.3-0.4,0.5-0.5,0.7c-0.2,0.2-0.3,0.4-0.5,0.6c-0.1,0.1-0.2,0.2-0.3,0.3c-0.1,0.2-0.3,0.3-0.4,0.4
		C15,18.9,14.8,19,14.7,19c-0.1-0.1-0.2-0.2-0.4-0.4c-0.1-0.1-0.3-0.3-0.5-0.5c-0.1-0.1-0.2-0.3-0.4-0.5c-0.1-0.1-0.2-0.3-0.4-0.5
		c-0.2-0.3-0.4-0.5-0.6-0.8c-0.4-0.6-0.8-1.1-1.1-1.8c0,0,0,0,0-0.1C9.8,12,8.8,9.5,8.8,8.1z M14.3,27c-1.8-1.4-4-2.4-6.2-3.1
		c-1.5-0.4-3.1-0.6-4.7-0.6c-0.6,0-1.1,0-1.7,0.1l3.7-9.1c1.6,0.1,3.3,0.4,4.8,1c0.2,0.1,0.3,0.1,0.5,0.2c0.5,0.8,0.9,1.5,1.4,2.1
		c-1.1,0.5-1.9,1.2-1.9,2c0,1.3,1.8,2.3,4.1,2.5V27z M14.3,21.1c-0.9-0.1-1.7-0.3-2.3-0.6c-0.5-0.3-0.8-0.6-0.8-0.9s0.3-0.6,0.8-0.9
		c0.2-0.1,0.4-0.2,0.7-0.3c0.6,0.7,1.2,1.3,1.6,1.5c0.1,0.1,0.3,0.1,0.4,0.1c0.2,0,0.4-0.1,0.6-0.2c0.5-0.3,1-0.8,1.5-1.4
		c0.3,0.1,0.5,0.2,0.7,0.3c0.5,0.3,0.8,0.6,0.8,0.9s-0.3,0.6-0.8,0.9c-0.6,0.3-1.4,0.5-2.3,0.6c-0.2,0-0.3,0-0.5,0
		C14.6,21.1,14.5,21.1,14.3,21.1z M21.5,23.9c-2.2,0.6-4.3,1.7-6.2,3.1v-4.9c2.3-0.1,4.1-1.2,4.1-2.5c0-0.8-0.8-1.6-1.9-2
		c0.4-0.6,0.9-1.3,1.3-2c0.2-0.1,0.4-0.2,0.6-0.2c1.5-0.6,3.1-0.9,4.8-1l3.7,9.1c-0.6-0.1-1.1-0.1-1.7-0.1
		C24.6,23.3,23,23.5,21.5,23.9z"/>
</g>
</svg>
