<?xml version="1.0" encoding="utf-8"?>
<!-- Generator: Adobe Illustrator 24.0.0, SVG Export Plug-In . SVG Version: 6.00 Build 0)  -->
<svg version="1.1" id="Слой_1" xmlns="http://www.w3.org/2000/svg" xmlns:xlink="http://www.w3.org/1999/xlink" x="0px" y="0px"
	 viewBox="0 0 55 55" style="enable-background:new 0 0 55 55;" xml:space="preserve">
<style type="text/css">
	.st0{fill:#B8CC76;}
	.st1{enable-background:new    ;}
	.st2{fill:#FFFFFF;}
</style>
<g>
	<circle class="st0" cx="27.5" cy="27.5" r="27.5"/>
</g>
<g class="st1">
	<path class="st2" d="M38.8,34.7c0,0.3-0.1,0.7-0.2,1.2c-0.1,0.5-0.2,0.9-0.4,1.1c-0.2,0.6-0.9,1.1-2,1.8c-1,0.6-2.1,0.9-3.1,0.9
		c-0.3,0-0.6,0-0.9-0.1c-0.3,0-0.6-0.1-1-0.2c-0.4-0.1-0.6-0.2-0.8-0.2c-0.2-0.1-0.5-0.2-0.9-0.3c-0.4-0.2-0.7-0.3-0.8-0.3
		c-1.1-0.4-2.1-0.9-2.9-1.4c-1.4-0.9-2.9-2.1-4.4-3.6s-2.7-3-3.6-4.4c-0.5-0.9-1-1.8-1.4-2.9c0-0.1-0.1-0.4-0.3-0.8
		c-0.2-0.4-0.3-0.8-0.3-0.9c-0.1-0.2-0.1-0.4-0.2-0.8c-0.1-0.4-0.2-0.7-0.2-1c0-0.3-0.1-0.6-0.1-0.9c0-1,0.3-2.1,0.9-3.1
		c0.6-1.1,1.2-1.8,1.8-2c0.3-0.1,0.7-0.2,1.1-0.4c0.5-0.1,0.9-0.2,1.2-0.2c0.2,0,0.3,0,0.4,0c0.2,0.1,0.5,0.5,0.9,1.3
		c0.1,0.2,0.3,0.5,0.5,0.9s0.4,0.7,0.6,1.1c0.2,0.3,0.4,0.6,0.5,0.9c0,0,0.1,0.2,0.3,0.4s0.3,0.4,0.4,0.6s0.1,0.3,0.1,0.5
		c0,0.2-0.2,0.5-0.5,0.8c-0.3,0.3-0.7,0.6-1,0.9c-0.4,0.3-0.7,0.6-1,0.9c-0.3,0.3-0.5,0.6-0.5,0.8c0,0.1,0,0.2,0.1,0.4
		c0.1,0.2,0.1,0.3,0.1,0.3s0.1,0.2,0.2,0.4s0.2,0.3,0.2,0.3c0.8,1.5,1.8,2.8,2.9,3.9s2.4,2.1,3.9,2.9c0,0,0.1,0.1,0.3,0.2
		c0.2,0.1,0.3,0.2,0.4,0.2s0.2,0.1,0.3,0.1c0.2,0.1,0.3,0.1,0.4,0.1c0.2,0,0.5-0.2,0.8-0.5s0.6-0.7,0.9-1c0.3-0.4,0.6-0.7,0.9-1
		c0.3-0.3,0.6-0.5,0.8-0.5c0.2,0,0.3,0,0.5,0.1s0.4,0.2,0.6,0.4c0.2,0.2,0.4,0.3,0.4,0.3c0.3,0.2,0.6,0.3,0.9,0.5
		c0.3,0.2,0.7,0.4,1.1,0.6s0.7,0.4,0.9,0.5c0.8,0.4,1.2,0.7,1.3,0.9C38.8,34.5,38.8,34.6,38.8,34.7z"/>
</g>
</svg>
