<?xml version="1.0" encoding="utf-8"?>
<!-- Generator: Adobe Illustrator 24.1.3, SVG Export Plug-In . SVG Version: 6.00 Build 0)  -->
<svg version="1.1" id="Слой_1" xmlns="http://www.w3.org/2000/svg" xmlns:xlink="http://www.w3.org/1999/xlink" x="0px" y="0px"
	 viewBox="0 0 45 45" style="enable-background:new 0 0 45 45;" xml:space="preserve">
<style type="text/css">
	.st0{fill:#F6F6F6;}
	.st1{fill:#B8CC76;}
	.st2{display:none;}
	.st3{display:inline;fill:#B8CC76;}
	.st4{display:none;fill:#B8CC76;}
</style>
<path class="st0" d="M41,45H4c-2.209,0-4-1.791-4-4V4c0-2.209,1.791-4,4-4h37c2.209,0,4,1.791,4,4v37C45,43.209,43.209,45,41,45z"/>
<g>
	<path class="st1" d="M34.107,32.964c0,0.483-0.178,0.901-0.529,1.255c-0.354,0.354-0.773,0.53-1.256,0.53
		c-0.502,0-0.922-0.177-1.256-0.53l-4.785-4.771c-1.666,1.153-3.521,1.729-5.567,1.729c-1.33,0-2.602-0.258-3.815-0.774
		c-1.214-0.516-2.26-1.214-3.139-2.093s-1.576-1.925-2.092-3.139s-0.774-2.485-0.774-3.815s0.258-2.602,0.774-3.816
		c0.516-1.213,1.213-2.26,2.092-3.139s1.925-1.577,3.139-2.093s2.485-0.774,3.815-0.774s2.602,0.258,3.815,0.774
		c1.215,0.516,2.262,1.214,3.141,2.093s1.576,1.925,2.092,3.139c0.516,1.214,0.773,2.486,0.773,3.816
		c0,2.046-0.576,3.901-1.729,5.566l4.785,4.785C33.936,32.052,34.107,32.471,34.107,32.964z M25.131,25.771
		c1.223-1.223,1.834-2.694,1.834-4.415s-0.611-3.192-1.834-4.416c-1.225-1.223-2.696-1.834-4.417-1.834s-3.192,0.611-4.416,1.834
		c-1.223,1.223-1.834,2.695-1.834,4.416s0.612,3.192,1.834,4.415c1.223,1.224,2.695,1.835,4.416,1.835S23.906,26.995,25.131,25.771z
		"/>
</g>
<g class="st2">
	<path class="st3" d="M33.758,16.417c0.373,0.53,0.457,1.13,0.252,1.8l-3.836,12.639c-0.178,0.596-0.533,1.096-1.068,1.5
		s-1.104,0.607-1.709,0.607H14.521c-0.716,0-1.407-0.249-2.072-0.747c-0.665-0.497-1.128-1.108-1.388-1.834
		c-0.223-0.623-0.232-1.214-0.028-1.772c0-0.037,0.014-0.162,0.042-0.376c0.028-0.214,0.047-0.386,0.056-0.517
		c0.009-0.074-0.005-0.174-0.042-0.3s-0.051-0.216-0.042-0.272c0.019-0.102,0.056-0.199,0.112-0.293
		c0.056-0.093,0.132-0.202,0.23-0.327c0.098-0.126,0.174-0.235,0.23-0.328c0.214-0.354,0.423-0.779,0.627-1.276
		c0.205-0.498,0.344-0.923,0.419-1.276c0.028-0.094,0.03-0.232,0.007-0.419c-0.023-0.187-0.026-0.316-0.007-0.391
		c0.028-0.102,0.106-0.232,0.237-0.391c0.13-0.158,0.209-0.265,0.237-0.321c0.195-0.335,0.391-0.762,0.586-1.283
		s0.312-0.939,0.349-1.256c0.009-0.083-0.002-0.232-0.035-0.446c-0.033-0.214-0.03-0.344,0.007-0.391
		c0.037-0.121,0.14-0.263,0.307-0.426c0.167-0.163,0.27-0.267,0.307-0.313c0.177-0.242,0.375-0.635,0.593-1.179
		c0.218-0.544,0.346-0.993,0.383-1.346c0.009-0.074-0.005-0.193-0.042-0.355c-0.038-0.163-0.047-0.286-0.028-0.37
		c0.019-0.074,0.061-0.158,0.126-0.251c0.065-0.093,0.148-0.2,0.251-0.321c0.102-0.121,0.181-0.218,0.237-0.293
		c0.074-0.112,0.151-0.253,0.23-0.425c0.079-0.172,0.148-0.335,0.209-0.488c0.06-0.154,0.134-0.321,0.223-0.502
		c0.088-0.181,0.179-0.33,0.272-0.446c0.093-0.116,0.216-0.226,0.37-0.328c0.153-0.102,0.321-0.155,0.502-0.16
		c0.181-0.005,0.402,0.021,0.663,0.077l-0.014,0.042c0.354-0.084,0.591-0.126,0.711-0.126h10.618c0.688,0,1.217,0.261,1.59,0.781
		c0.371,0.521,0.455,1.125,0.25,1.814l-3.822,12.64c-0.334,1.106-0.666,1.82-0.996,2.142c-0.332,0.32-0.928,0.48-1.793,0.48H13.069
		c-0.251,0-0.428,0.07-0.53,0.21c-0.102,0.148-0.107,0.349-0.014,0.6c0.223,0.651,0.893,0.977,2.009,0.977H27.41
		c0.27,0,0.531-0.072,0.781-0.216c0.252-0.145,0.414-0.338,0.488-0.579l4.186-13.77c0.066-0.204,0.088-0.469,0.07-0.795
		C33.289,15.958,33.563,16.157,33.758,16.417z M17.757,20.017c-0.037,0.121-0.028,0.226,0.028,0.314
		c0.056,0.088,0.149,0.132,0.279,0.132h8.483c0.119,0,0.238-0.044,0.355-0.132c0.115-0.088,0.191-0.193,0.23-0.314l0.293-0.893
		c0.037-0.121,0.027-0.225-0.029-0.314c-0.055-0.088-0.148-0.132-0.279-0.132h-8.481c-0.121,0-0.239,0.044-0.355,0.132
		c-0.117,0.089-0.193,0.193-0.23,0.314L17.757,20.017z M18.915,16.446c-0.038,0.121-0.028,0.226,0.028,0.313
		c0.056,0.089,0.148,0.133,0.279,0.133h8.481c0.121,0,0.24-0.044,0.357-0.133c0.115-0.088,0.191-0.193,0.229-0.313l0.293-0.893
		c0.037-0.121,0.029-0.226-0.027-0.314c-0.055-0.088-0.148-0.132-0.279-0.132h-8.481c-0.121,0-0.24,0.044-0.356,0.132
		s-0.193,0.193-0.23,0.314L18.915,16.446z"/>
</g>
<g class="st2">
	<path class="st3" d="M14.018,15.106v17.857h-0.893c-0.856,0-1.59-0.308-2.204-0.921C10.307,31.429,10,30.694,10,29.839V18.231
		c0-0.856,0.307-1.59,0.921-2.205c0.614-0.614,1.348-0.92,2.204-0.92H14.018z M29.643,15.106v17.857H15.357V15.106h1.786v-2.232
		c0-0.372,0.13-0.688,0.391-0.949c0.26-0.26,0.576-0.391,0.948-0.391h8.036c0.372,0,0.688,0.13,0.949,0.391
		c0.26,0.261,0.391,0.577,0.391,0.949v2.232H29.643z M18.929,15.106h7.143v-1.786h-7.143V15.106z M35,18.231v11.607
		c0,0.855-0.307,1.59-0.921,2.204c-0.613,0.613-1.349,0.921-2.204,0.921h-0.893V15.106h0.893c0.855,0,1.591,0.307,2.204,0.92
		C34.693,16.641,35,17.375,35,18.231z"/>
</g>
<g class="st2">
	<path class="st3" d="M33.215,20.729v3.098c0,0.111-0.037,0.219-0.111,0.32c-0.076,0.103-0.168,0.163-0.279,0.182l-2.582,0.391
		c-0.176,0.502-0.357,0.925-0.543,1.27c0.324,0.465,0.822,1.106,1.492,1.925c0.094,0.111,0.139,0.229,0.139,0.349
		c0,0.121-0.041,0.229-0.125,0.321c-0.25,0.344-0.711,0.847-1.381,1.507s-1.107,0.99-1.311,0.99c-0.113,0-0.234-0.042-0.363-0.126
		l-1.926-1.506c-0.408,0.214-0.832,0.391-1.27,0.529c-0.148,1.266-0.283,2.13-0.404,2.596c-0.064,0.26-0.232,0.391-0.502,0.391
		h-3.098c-0.13,0-0.244-0.04-0.342-0.119s-0.151-0.179-0.16-0.3l-0.391-2.567c-0.456-0.148-0.875-0.32-1.256-0.516l-1.967,1.492
		c-0.093,0.084-0.209,0.126-0.349,0.126c-0.13,0-0.247-0.051-0.349-0.153c-1.172-1.061-1.939-1.842-2.302-2.344
		c-0.065-0.093-0.098-0.2-0.098-0.321c0-0.111,0.037-0.218,0.112-0.32c0.139-0.195,0.376-0.505,0.711-0.928
		c0.334-0.424,0.586-0.751,0.753-0.983c-0.251-0.466-0.442-0.926-0.572-1.382l-2.553-0.376c-0.121-0.019-0.219-0.077-0.293-0.175
		c-0.075-0.098-0.112-0.207-0.112-0.328v-3.097c0-0.112,0.037-0.219,0.112-0.321c0.074-0.103,0.163-0.163,0.265-0.182l2.595-0.391
		c0.13-0.428,0.312-0.855,0.544-1.283c-0.372-0.53-0.87-1.172-1.493-1.925c-0.093-0.112-0.14-0.223-0.14-0.335
		c0-0.093,0.042-0.2,0.125-0.321c0.242-0.335,0.7-0.835,1.375-1.5c0.674-0.665,1.113-0.997,1.318-0.997
		c0.121,0,0.242,0.046,0.362,0.139l1.925,1.493c0.409-0.214,0.833-0.391,1.27-0.53c0.149-1.265,0.284-2.13,0.405-2.595
		c0.065-0.26,0.232-0.391,0.502-0.391h3.098c0.129,0,0.244,0.04,0.342,0.119c0.098,0.079,0.15,0.179,0.16,0.3l0.391,2.567
		c0.455,0.149,0.875,0.321,1.256,0.516l1.98-1.493c0.084-0.084,0.195-0.125,0.336-0.125c0.119,0,0.236,0.046,0.348,0.139
		c1.199,1.107,1.967,1.897,2.303,2.372c0.064,0.075,0.098,0.177,0.098,0.307c0,0.112-0.037,0.219-0.111,0.321
		c-0.141,0.195-0.377,0.505-0.713,0.928c-0.334,0.423-0.586,0.751-0.752,0.983c0.24,0.465,0.432,0.921,0.57,1.367l2.555,0.391
		c0.119,0.019,0.217,0.077,0.293,0.175C33.178,20.499,33.215,20.608,33.215,20.729z M25.025,24.774
		c0.697-0.698,1.047-1.54,1.047-2.525s-0.35-1.828-1.047-2.525c-0.697-0.698-1.539-1.046-2.525-1.046
		c-0.986,0-1.828,0.349-2.525,1.046c-0.697,0.697-1.046,1.54-1.046,2.525s0.349,1.827,1.046,2.525
		c0.698,0.697,1.54,1.046,2.525,1.046C23.486,25.82,24.328,25.472,25.025,24.774z"/>
</g>
<g class="st2">
	<path class="st3" d="M28.331,16.878c0.875,1.098,1.312,2.293,1.312,3.585c0,1.293-0.437,2.488-1.312,3.585
		c-0.874,1.098-2.066,1.965-3.578,2.602c-1.512,0.638-3.155,0.956-4.932,0.956c-0.8,0-1.618-0.074-2.455-0.224
		c-1.153,0.818-2.446,1.414-3.878,1.786c-0.335,0.084-0.735,0.158-1.2,0.223h-0.042c-0.103,0-0.198-0.037-0.286-0.111
		s-0.142-0.172-0.16-0.293c-0.009-0.027-0.014-0.058-0.014-0.091c0-0.032,0.002-0.063,0.007-0.091
		c0.005-0.027,0.014-0.056,0.028-0.083c0.014-0.028,0.025-0.052,0.035-0.07s0.025-0.044,0.049-0.076
		c0.023-0.033,0.042-0.056,0.056-0.07c0.014-0.014,0.035-0.037,0.063-0.069s0.046-0.054,0.056-0.063
		c0.046-0.057,0.153-0.173,0.321-0.35c0.167-0.176,0.288-0.313,0.363-0.411c0.074-0.098,0.179-0.232,0.314-0.404
		s0.251-0.352,0.349-0.537c0.098-0.187,0.193-0.391,0.286-0.614c-1.153-0.67-2.06-1.492-2.72-2.47C10.33,22.612,10,21.57,10,20.463
		c0-1.292,0.437-2.488,1.312-3.585c0.874-1.097,2.067-1.964,3.578-2.602s3.155-0.956,4.932-0.956s3.42,0.318,4.932,0.956
		S27.457,15.781,28.331,16.878z M35,24.035c0,1.116-0.33,2.16-0.99,3.132c-0.661,0.972-1.567,1.793-2.721,2.462
		c0.093,0.224,0.188,0.428,0.286,0.614c0.098,0.186,0.214,0.365,0.349,0.537s0.239,0.307,0.313,0.404
		c0.075,0.098,0.195,0.235,0.363,0.412c0.167,0.176,0.274,0.293,0.32,0.349c0.01,0.009,0.028,0.03,0.057,0.063
		c0.027,0.032,0.049,0.056,0.063,0.069c0.014,0.015,0.032,0.037,0.056,0.07c0.023,0.032,0.039,0.058,0.049,0.076
		c0.009,0.019,0.021,0.042,0.035,0.07c0.014,0.027,0.022,0.056,0.027,0.084c0.005,0.027,0.007,0.058,0.007,0.09
		c0,0.033-0.004,0.063-0.014,0.091c-0.027,0.131-0.088,0.232-0.182,0.308c-0.093,0.074-0.195,0.106-0.307,0.098
		c-0.465-0.065-0.865-0.14-1.199-0.224c-1.433-0.372-2.726-0.968-3.879-1.786c-0.837,0.149-1.655,0.224-2.455,0.224
		c-2.521,0-4.715-0.614-6.585-1.842c0.539,0.037,0.949,0.056,1.228,0.056c1.498,0,2.935-0.209,4.311-0.627
		c1.377-0.419,2.604-1.019,3.684-1.8c1.162-0.855,2.056-1.842,2.679-2.958c0.623-1.116,0.935-2.297,0.935-3.543
		c0-0.716-0.107-1.423-0.321-2.121c1.2,0.661,2.148,1.488,2.847,2.483C34.651,21.821,35,22.891,35,24.035z"/>
</g>
<path class="st4" d="M16.788,13.142l-3.054-3.054L9.153,14.67l3.054,3.054l-1.527,1.527l14.312,14.312
	c0.952,0.952,2.494,0.952,3.446,0l4.19-4.19c0.952-0.952,0.952-2.494,0-3.446L18.315,11.615L16.788,13.142z M13.429,14.975
	l-1.222,1.222L10.68,14.67l1.222-1.222L13.429,14.975z M15.261,13.142l-1.222,1.222l-1.527-1.527l1.222-1.222L15.261,13.142z"/>
</svg>
