<?xml version="1.0" encoding="utf-8"?>
<!-- Generator: Adobe Illustrator 24.0.0, SVG Export Plug-In . SVG Version: 6.00 Build 0)  -->
<svg version="1.1" id="Слой_1" xmlns="http://www.w3.org/2000/svg" xmlns:xlink="http://www.w3.org/1999/xlink" x="0px" y="0px"
	 viewBox="0 0 55 55" style="enable-background:new 0 0 55 55;" xml:space="preserve">
<style type="text/css">
	.st0{fill:#B8CC76;}
	.st1{fill:#FFFFFF;}
</style>
<g>
	<circle class="st0" cx="27.5" cy="27.5" r="27.5"/>
</g>
<g>
	<path class="st1" d="M40.2,38.1c0,0.5-0.2,0.9-0.5,1.2s-0.7,0.5-1.2,0.5s-0.9-0.2-1.2-0.5l-4.6-4.6c-1.6,1.1-3.4,1.7-5.3,1.7
		c-1.3,0-2.5-0.2-3.7-0.7s-2.2-1.2-3-2s-1.5-1.8-2-3S18,28.3,18,27c0-1.3,0.2-2.5,0.7-3.7s1.2-2.2,2-3s1.8-1.5,3-2s2.4-0.7,3.7-0.7
		c1.3,0,2.5,0.2,3.7,0.7s2.2,1.2,3,2s1.5,1.8,2,3s0.7,2.4,0.7,3.7c0,2-0.6,3.7-1.7,5.3l4.6,4.6C40,37.3,40.2,37.7,40.2,38.1z
		 M31.6,31.2c1.2-1.2,1.8-2.6,1.8-4.2c0-1.7-0.6-3.1-1.8-4.2C30.4,21.6,29,21,27.3,21s-3.1,0.6-4.2,1.8c-1.2,1.2-1.8,2.6-1.8,4.2
		c0,1.7,0.6,3.1,1.8,4.2c1.2,1.2,2.6,1.8,4.2,1.8C29,33,30.4,32.4,31.6,31.2z"/>
</g>
</svg>
