<?xml version="1.0" encoding="utf-8"?>
<!-- Generator: Adobe Illustrator 24.1.3, SVG Export Plug-In . SVG Version: 6.00 Build 0)  -->
<svg version="1.1" id="Слой_1" xmlns="http://www.w3.org/2000/svg" xmlns:xlink="http://www.w3.org/1999/xlink" x="0px" y="0px"
	 viewBox="0 0 100 100" style="enable-background:new 0 0 100 100;" xml:space="preserve">
<style type="text/css">
	.st0{fill:#B8CC76;}
</style>
<g>
	<circle class="st0" cx="49" cy="51.1" r="8.8"/>
	<path class="st0" d="M49.9,21.5c-16.7,0-30.2,13.5-30.2,30.2s13.5,30.2,30.2,30.2S80,68.3,80,51.7S66.5,21.5,49.9,21.5z M65.7,68.8
		c-0.5,0.5-1.1,0.7-1.7,0.7c-0.6,0-1.2-0.2-1.7-0.7l-6-6c-2.1,1.3-4.5,2.1-7.1,2.1c-7.5,0-13.6-6.1-13.6-13.6s6.1-13.6,13.6-13.6
		s13.6,6.1,13.6,13.6c0,3.1-1.1,6-2.8,8.3l5.9,5.9C66.6,66.3,66.6,67.8,65.7,68.8z"/>
</g>
<path class="st0" d="M50,2c26.5,0,48,21.5,48,48S76.5,98,50,98S2,76.5,2,50S23.5,2,50,2 M50,0C22.4,0,0,22.4,0,50s22.4,50,50,50
	s50-22.4,50-50S77.6,0,50,0L50,0z"/>
</svg>
