<?xml version="1.0" encoding="utf-8"?>
<!-- Generator: Adobe Illustrator 24.0.0, SVG Export Plug-In . SVG Version: 6.00 Build 0)  -->
<svg version="1.1" id="Слой_1" xmlns="http://www.w3.org/2000/svg" xmlns:xlink="http://www.w3.org/1999/xlink" x="0px" y="0px"
	 viewBox="0 0 29.5 29.5" style="enable-background:new 0 0 29.5 29.5;" xml:space="preserve">
<style type="text/css">
	.st0{fill:#3D3D3D;}
</style>
<g>
	<path class="st0" d="M29.3,24.2c-2.4-2.4-4.9-4.9-7.3-7.3l-3.2,3.2c-0.7-0.2-2-0.6-3.4-1.5l6.2-7c1.9,0.6,4,0.2,5.5-1.3
		c1.5-1.5,1.9-3.7,1.3-5.6c-0.1-0.3-0.3-0.6-0.4-1l-0.7,0.7l-2,2c-0.6,0.6-1.6,0.6-2.1,0c-0.6-0.6-0.6-1.6,0-2.1l2-2l0.7-0.7
		c-0.3-0.2-0.6-0.3-1-0.4c-1.9-0.6-4-0.1-5.4,1.4c-1.5,1.5-1.9,3.6-1.4,5.5c-2.3,2.1-4.7,4.2-7,6.2c-0.6-1-1.1-2.2-1.5-3.5l3.2-3.2
		c-2.4-2.4-4.9-4.9-7.3-7.3C5,0.6,4.3,1.1,3.6,1.8C3,2.4,2.4,3.1,1.9,4C1.2,5.3,0.8,6.5,0.6,7.4c0,0,1.7,5.1,6.3,10.6
		c-1.9,1.7-3.8,3.4-5.8,5.1c0,0.3-0.2,2.4,1.4,4c0,0,0,0,0,0c1.6,1.6,3.7,1.4,4,1.4l5.1-5.8c2.8,2.4,6.3,4.6,10.4,6.2h0
		c0.9-0.2,2.1-0.5,3.4-1.3c0.9-0.5,1.6-1.1,2.2-1.7C28.5,25.4,29,24.7,29.3,24.2z M18.9,7.4c-0.3-1.4,0.1-2.9,1.2-4
		c1.1-1.1,2.6-1.5,3.9-1.2l-1.6,1.6c-1,1-1,2.6,0,3.5c1,1,2.6,1,3.5,0l1.6-1.6c0.3,1.4-0.1,3-1.2,4.1c-1.1,1.1-2.7,1.5-4.1,1.2
		c-0.3-0.1-0.7-0.2-1-0.3l-0.7,0.8l-6.1,6.9c-1-0.7-2.1-1.7-3-3l6.9-6.1l0.8-0.7C19.1,8.1,19,7.8,18.9,7.4z M6.2,27.6
		c-0.6,0-1.9-0.2-2.9-1.1c0,0,0,0,0,0c-0.6-0.6-0.9-1.2-1.1-2c-0.1-0.3-0.1-0.6-0.1-0.9l5.4-4.8c1,1.2,2.2,2.3,3.4,3.5L6.2,27.6z
		 M25.2,26.9c-0.8,0.5-1.7,0.8-2.6,1.1c-0.3-0.1-0.7-0.1-1.1-0.3c-0.3-0.1-0.6-0.2-0.8-0.4c0,0-0.1-0.1-0.2-0.1
		c-2.8-1.3-5.5-3-7.9-5c0,0-0.1-0.1-0.1-0.1c-0.2-0.2-0.5-0.4-0.7-0.6c-1.2-1-2.3-2.2-3.4-3.4c-0.2-0.2-0.4-0.5-0.6-0.7
		c-0.6-0.7-1.1-1.4-1.6-2.1c-1.8-2.4-2.9-4.6-3.6-6.1C2.4,9.1,2.3,9,2.3,9C2.2,8.7,2.1,8.4,2,8.1c-0.1-0.4-0.2-0.7-0.3-1
		C1.8,6.6,2,5.9,2.4,5.2c0.1-0.2,0.2-0.5,0.4-0.7c0.4-0.7,0.9-1.4,1.5-2l0,0C4.6,2.2,5,1.9,5.3,1.6l6,6l-2.5,2.5l-0.4,0.4L8.6,11
		c0.1,0.2,0.1,0.4,0.2,0.6c0.4,1.3,0.9,2.4,1.6,3.4c0.2,0.3,0.4,0.6,0.6,0.8c1,1.3,2.1,2.3,3.1,3.1c0.2,0.2,0.5,0.3,0.7,0.5
		c0,0,0.1,0,0.1,0.1c1.2,0.8,2.4,1.2,3.2,1.5c0.3,0.1,0.5,0.2,0.7,0.2l0.4,0.1l0.5-0.5l2.4-2.4l6,6c-0.3,0.4-0.6,0.7-0.9,1.1
		C26.5,26,25.9,26.5,25.2,26.9z"/>
</g>
</svg>
