<?xml version="1.0" encoding="utf-8"?>
<!-- Generator: Adobe Illustrator 24.1.3, SVG Export Plug-In . SVG Version: 6.00 Build 0)  -->
<svg version="1.1" id="Слой_1" xmlns="http://www.w3.org/2000/svg" xmlns:xlink="http://www.w3.org/1999/xlink" x="0px" y="0px"
	 viewBox="0 0 100 100" style="enable-background:new 0 0 100 100;" xml:space="preserve">
<style type="text/css">
	.st0{fill:#B8CC76;}
</style>
<path class="st0" d="M50.1,19.7c-22.1-0.5-37.4,24.5-27.2,44l0,0c0.5,0.9,1,1.8,1.6,2.7l0,0l0,0c1,1.6,2.2,3,3.5,4.4l0,0
	c0.4,0.4,0.9,0.9,1.3,1.3c1.4,1.3,2.9,2.6,4.6,3.5c8.6,5.7,20.2,6.3,29.5,1.7c2.3-1.1,4.4-2.5,6.3-4.1c0.1,0,0.1-0.1,0.1-0.1
	c1.9-1.6,3.6-3.4,5-5.5c0-0.1,0.1-0.1,0.1-0.1C88.8,48.3,74.4,19,50.1,19.7z M50.5,50.1c-13.3,0-13.9-20.5-0.2-20.5
	C63.9,29.8,64.3,49.8,50.5,50.1z M50.1,78c-10.5,0-19.6-5.8-24.4-14.3C29,57,35,51.8,42.2,49.6c4.4,3.9,11.9,3.9,16.4,0.1
	c7.1,2.2,12.8,7.2,16.1,13.7C70,72.1,60.7,78,50.1,78z"/>
<path class="st0" d="M50,2c26.5,0,48,21.5,48,48S76.5,98,50,98S2,76.5,2,50S23.5,2,50,2 M50,0C22.4,0,0,22.4,0,50s22.4,50,50,50
	s50-22.4,50-50S77.6,0,50,0L50,0z"/>
</svg>
