<?xml version="1.0" encoding="utf-8"?>
<!-- Generator: Adobe Illustrator 24.1.3, SVG Export Plug-In . SVG Version: 6.00 Build 0)  -->
<svg version="1.1" id="Слой_1" xmlns="http://www.w3.org/2000/svg" xmlns:xlink="http://www.w3.org/1999/xlink" x="0px" y="0px"
	 viewBox="0 0 100 100" style="enable-background:new 0 0 100 100;" xml:space="preserve">
<style type="text/css">
	.st0{fill:#B8CC76;}
</style>
<path class="st0" d="M50,2c26.5,0,48,21.5,48,48S76.5,98,50,98S2,76.5,2,50S23.5,2,50,2 M50,0C22.4,0,0,22.4,0,50s22.4,50,50,50
	s50-22.4,50-50S77.6,0,50,0L50,0z"/>
<path class="st0" d="M77.1,35.7c-0.2-4.2-3.5-7.5-7.7-7.6c-6.4-0.2-12.9-0.6-19.3-0.6c-6.5,0-12.9,0.4-19.4,0.6
	c-4.2,0.1-7.6,3.5-7.7,7.6c-0.2,4.7-0.4,9.4-0.4,14.1c0,4.7,0.3,9.4,0.4,14.1c0.2,4.2,3.5,7.5,7.7,7.6C37.1,71.6,43.6,72,50,72
	c6.5,0,12.9-0.3,19.3-0.5c4.2-0.1,7.6-3.4,7.7-7.6c0.2-4.7,0.5-9.4,0.5-14.1C77.5,45.1,77.3,40.4,77.1,35.7z M44.7,59.5v-19
	l16.5,9.5L44.7,59.5z"/>
</svg>
