<?xml version="1.0" encoding="utf-8"?>
<!-- Generator: Adobe Illustrator 24.0.0, SVG Export Plug-In . SVG Version: 6.00 Build 0)  -->
<svg version="1.1" id="Слой_1" xmlns="http://www.w3.org/2000/svg" xmlns:xlink="http://www.w3.org/1999/xlink" x="0px" y="0px"
	 viewBox="0 0 116 115" style="enable-background:new 0 0 116 115;" xml:space="preserve">
<style type="text/css">
	.st0{display:none;}
	.st1{display:inline;fill:#B9CE76;}
	.st2{display:inline;}
	.st3{fill:#B9CE76;}
	.st4{fill:none;}
</style>
<g class="st0">
	<path class="st1" d="M98.9,110.6V5.2V1l0,0h-4.2l0,0h-71l0,0h-4.2l0,0l0,0v4.2l0,0v105.4v4.2h4.2h71.1H99l0,0L98.9,110.6
		L98.9,110.6z M23.7,110.6V5.2h71.1v105.4H23.7z"/>
	<rect x="42" y="93.4" class="st1" width="11.6" height="4.2"/>
	<rect x="34.5" y="68.9" class="st1" width="49.3" height="4.2"/>
	<rect x="34.5" y="76.6" class="st1" width="49.3" height="4.2"/>
	<rect x="34.5" y="84" class="st1" width="49.3" height="4.2"/>
	<rect x="64.8" y="93.4" class="st1" width="11.6" height="4.2"/>
	<g class="st2">
		<path class="st3" d="M59.2,14.5c-7,0-12.8,5.7-12.8,12.8c0,4.2,2,7.9,5.2,10.2v14.2V56l7.5-6l3.3,2.6l0,0l4.2,3.4l0,0l0,0v-4.3
			l0,0V37.5c3.2-2.3,5.3-6.1,5.3-10.3C71.9,20.2,66.2,14.5,59.2,14.5L59.2,14.5z M59.2,35.7c-4.7,0-8.5-3.8-8.5-8.5s3.8-8.5,8.5-8.5
			s8.5,3.8,8.5,8.5S63.9,35.7,59.2,35.7L59.2,35.7z M55.8,48.4v-8.8c1.1,0.3,2.2,0.5,3.3,0.5s2.2-0.2,3.3-0.4v8.8l-3.3-2.6
			L55.8,48.4L55.8,48.4z"/>
	</g>
	<path class="st1" d="M87.5,12.7V103H31V12.7H87.5 M91.7,8.5H26.8v98.8h64.9V8.5L91.7,8.5z"/>
	<g class="st2">
		<path class="st3" d="M85.9,103c0.3-0.6,0.8-1.1,1.5-1.3c0.2-0.1,0.4-0.1,0.6-0.1h3.6v-3.2V17.7v-3.2H88c-0.2,0-0.4,0-0.6-0.1
			c-0.8-0.2-1.4-0.9-1.6-1.7c-0.1-0.2-0.1-0.4-0.1-0.6V8.5h-3.2H35.8h-3.2v3.6l0,0c0,0.1,0,0.2,0,0.3c0,0.2-0.1,0.3-0.1,0.5
			c-0.1,0.2-0.2,0.4-0.2,0.5c-0.2,0.3-0.3,0.5-0.6,0.7c-0.2,0.1-0.3,0.2-0.5,0.2c-0.1,0-0.3,0.1-0.4,0.1s-0.2,0-0.3,0l0,0l0,0
			c0,0,0,0-0.1,0h-3.5v3.2v80.6v3.2h3.4l0,0h0.1c0.3,0,0.5,0.1,0.7,0.1c0.6,0.2,1.2,0.7,1.4,1.3c0.1,0.3,0.2,0.6,0.2,1v3.3H36h46.3
			h3.4V104C85.7,103.6,85.8,103.3,85.9,103z M81.5,103H36.8c-0.4-3-2.8-5.3-5.8-5.6V18.7c3.1-0.3,5.6-2.8,5.9-6h44.6
			c0.3,3.2,2.8,5.7,5.9,6v78.7C84.4,97.7,82,100,81.5,103z"/>
	</g>
	<rect x="44" y="61.1" class="st1" width="30.5" height="4.2"/>
</g>
<g>
	<path class="st4" d="M79.5,108.3l13.7-7.4l-7.4-13.6c-4.3,2.9-9.1,5.2-14.2,6.5L79.5,108.3z"/>
	<path class="st4" d="M24.1,48.4c0-19.4,15.7-35.1,35.1-35.1S94.3,29,94.3,48.4c0,10-4.2,19-10.9,25.4l3.8,7.1
		c9.1-7.9,15-19.5,15-32.5c0-23.6-19.2-42.9-42.9-42.9S16.5,24.8,16.5,48.4c0,13.3,6.1,25.2,15.6,33l3.7-6.9
		C28.6,68.1,24.1,58.8,24.1,48.4z"/>
	<path class="st4" d="M59.2,83.5c-0.3,0-0.6,0-0.8,0L54.3,91c1.6,0.2,3.3,0.3,5,0.3c2,0,3.9-0.1,5.9-0.4l-4-7.4
		C60.5,83.4,59.9,83.5,59.2,83.5z"/>
	<path class="st4" d="M39.2,77.2L35.5,84c4.3,2.9,9.2,5,14.4,6.2l3.9-7.2C48.4,82.2,43.5,80.2,39.2,77.2z"/>
	<path class="st4" d="M80.1,76.6c-4.2,3.1-9.1,5.3-14.4,6.3l3.9,7.2c5.2-1.3,10-3.5,14.3-6.5L80.1,76.6z"/>
	<path class="st4" d="M26.4,100.9l13.7,7.4L47.8,94c-5.2-1.3-10-3.5-14.3-6.3L26.4,100.9z"/>
</g>
<g>
	<path class="st3" d="M48.9,64.6h-5.2V43.8c0-2.5,0.1-4.4,0.2-5.9c-0.3,0.4-0.8,0.7-1.2,1.2s-2.1,1.8-4.9,4l-2.6-3.3l9.4-7.4h4.3
		C48.9,32.4,48.9,64.6,48.9,64.6z"/>
	<path class="st3" d="M81.2,48.5c0,5.6-0.9,9.7-2.7,12.4S73.9,65,70.2,65c-3.6,0-6.3-1.4-8.1-4.2s-2.8-6.9-2.8-12.3
		c0-5.7,0.9-9.8,2.7-12.5s4.5-4,8.2-4c3.6,0,6.3,1.4,8.2,4.2S81.2,43.1,81.2,48.5z M64.6,48.5c0,4.4,0.5,7.5,1.4,9.4
		s2.3,2.8,4.3,2.8s3.4-1,4.3-2.9s1.4-5,1.4-9.3s-0.5-7.4-1.4-9.3c-0.9-1.9-2.4-2.9-4.3-2.9c-2,0-3.4,0.9-4.3,2.8
		S64.6,44.1,64.6,48.5z"/>
</g>
<g>
	<path class="st3" d="M106.4,48.4c0-26-21.1-47.1-47.1-47.1S12.2,22.4,12.2,48.4c0,14.9,6.9,28.2,17.8,36.8l-9.4,17.4l21.2,11.5
		L52.2,95c2.3,0.4,4.7,0.5,7.2,0.5c2.7,0,5.4-0.2,8-0.7l10.4,19.3L99,102.6l-9.7-17.9C99.8,76.1,106.4,63,106.4,48.4z M16.5,48.4
		c0-23.6,19.2-42.9,42.9-42.9s42.9,19.2,42.9,42.9c0,13-5.8,24.6-15,32.5l-3.8-7.1c6.7-6.4,10.9-15.4,10.9-25.4
		c0-19.4-15.7-35.1-35.1-35.1c-19.4,0-35.2,15.7-35.2,35.1c0,10.4,4.5,19.7,11.7,26.2l-3.7,6.9C22.6,73.6,16.5,61.7,16.5,48.4z
		 M81.3,69.9c-1,1-2.1,2-3.3,2.9c-4.1,3.2-9.1,5.3-14.5,6.1c-0.9,0.1-1.9,0.2-2.9,0.3c-0.5,0-1,0-1.5,0c-0.1,0-0.2,0-0.3,0
		c-1,0-2-0.1-3-0.2c-5.5-0.6-10.5-2.6-14.7-5.6c-1.2-0.8-2.3-1.8-3.3-2.8C32,65,28.4,57.1,28.4,48.4c0-17,13.8-30.9,30.9-30.9
		c17.1,0,30.9,13.8,30.9,30.9C90.1,56.7,86.7,64.3,81.3,69.9z M49.9,90.3C49.9,90.3,49.9,90.3,49.9,90.3l-3,5.5l-6.8,12.5l-13.7-7.4
		l6.2-11.4h0l2.9-5.5c0,0,0,0,0,0l0.1-0.1l0,0h0l3.6-6.7c4.3,3,9.2,5,14.6,5.9L49.9,90.3z M59.3,91.3c-1.7,0-3.4-0.1-5-0.3l4.1-7.5
		c0.3,0,0.6,0,0.8,0c0.7,0,1.3,0,2-0.1l4,7.4C63.3,91.1,61.3,91.3,59.3,91.3z M93.2,100.9l-13.7,7.4l-6.8-12.6l-3.4-6.2l0,0
		l-3.6-6.6c5.3-1,10.2-3.2,14.4-6.3l3.8,6.9c0,0,0,0,0,0l2.8,5.2L93.2,100.9z"/>
</g>
</svg>
