<?xml version="1.0" encoding="utf-8"?>
<!-- Generator: Adobe Illustrator 24.0.0, SVG Export Plug-In . SVG Version: 6.00 Build 0)  -->
<svg version="1.1" id="Слой_1" xmlns="http://www.w3.org/2000/svg" xmlns:xlink="http://www.w3.org/1999/xlink" x="0px" y="0px"
	 viewBox="0 0 276 276" style="enable-background:new 0 0 276 276;" xml:space="preserve">
<style type="text/css">
	.st0{fill:#B9D076;}
</style>
<path class="st0" d="M134.5,2.6c-36.8,1.8-66,32.2-66,69.4c0,15.8,4,30.4,12.4,42c3.6,5.1,6.7,10.5,9.3,16.2
	C98.9,149,118,162,138.5,162c21.9,0,43.6-14.9,51.6-35.9c1.6-4.2,3.8-8,6.3-11.7c7.6-10.7,10.6-23.9,11-38.2
	C208.8,34.3,176.4,0.5,134.5,2.6z"/>
<path class="st0" d="M88,154l28,121c0,0-94-2-114-43c0,0,4.4-38.2,21-48C40,174,85,153,88,154z"/>
<path class="st0" d="M190,154l-28,121c0,0,94-2,114-43c0,0-4.4-38.2-21-48C238,174,193,153,190,154z"/>
<polygon class="st0" points="122,175 132,194 144,194 156,175 "/>
</svg>
