<?xml version="1.0" encoding="utf-8"?>
<!-- Generator: Adobe Illustrator 24.0.0, SVG Export Plug-In . SVG Version: 6.00 Build 0)  -->
<svg version="1.1" id="Слой_1" xmlns="http://www.w3.org/2000/svg" xmlns:xlink="http://www.w3.org/1999/xlink" x="0px" y="0px"
	 viewBox="0 0 276 276" style="enable-background:new 0 0 276 276;" xml:space="preserve">
<style type="text/css">
	.st0{fill:#B9D076;}
</style>
<path class="st0" d="M243.8,178c-62.3,14-150.2,14-212.6,0c0,0,31.9,69.4,105.8,72.9h1C211.8,247.4,243.8,178,243.8,178z"/>
<path class="st0" d="M258.9,92.7C246.1,91.7,151.6,37,151.6,37s-6.9-2-9.8-2c-3,0-3.9,0-3.9,0s-1,0-3.9,0c-3,0-9.8,2-9.8,2
	S29.5,91.7,16.8,92.7C4,93.6,1,102.4,1,106.3c0,3.9,2,12.7,15.8,21.5s12.8,22.5,12.8,22.5c25,11.5,94.7,13.4,107.3,13.6l0,0
	c0,0,0.3,0,1,0c0.6,0,1,0,1,0l0,0c12.6-0.2,82.3-2.1,107.3-13.6c0,0-1-13.7,12.8-22.5c13.8-8.8,15.8-17.6,15.8-21.5
	C274.7,102.4,271.7,93.6,258.9,92.7z M139,143c0,0-22.2-1-28.2-41c0,0,27.2-30,55.4,0C166.2,102,161.2,140,139,143z"/>
</svg>
