<?xml version="1.0" encoding="utf-8"?>
<!-- Generator: Adobe Illustrator 24.0.0, SVG Export Plug-In . SVG Version: 6.00 Build 0)  -->
<svg version="1.1" id="Слой_1" xmlns="http://www.w3.org/2000/svg" xmlns:xlink="http://www.w3.org/1999/xlink" x="0px" y="0px"
	 viewBox="0 0 276 276" style="enable-background:new 0 0 276 276;" xml:space="preserve">
<style type="text/css">
	.st0{fill:#B9D076;}
</style>
<path class="st0" d="M250.4,68c-1-15-10-19-10-19s-92-44-96-46c-2.3-1.2-4.6-1.3-6.2-1.2c-1.5-0.1-3.9,0.1-6.2,1.2c-4,2-96,46-96,46
	s-9,4-10,19c0,0-11,150,106,205c0,0,2.6,1.3,5.2,1.8c0,0.1,0.1,0.2,0.1,0.2c0.3,0,0.5,0,0.8,0c0.3,0,0.5,0,0.8,0
	c0,0,0.1-0.1,0.1-0.2c2.6-0.5,5.2-1.8,5.2-1.8C261.4,218,250.4,68,250.4,68z M209.2,101.3l-70.9,70.9c-3.7,3.7-9.8,3.7-13.5,0
	c-0.1-0.1-0.2-0.3-0.3-0.4c-0.1-0.1-0.1-0.1-0.2-0.1l-52.6-52.6c-3.7-3.7-3.7-9.8,0-13.5s9.8-3.7,13.5,0l46.4,46.4l64.2-64.2
	c3.7-3.7,9.8-3.7,13.5,0h0C212.9,91.6,212.9,97.6,209.2,101.3z"/>
</svg>
