<?xml version="1.0" encoding="utf-8"?>
<!-- Generator: Adobe Illustrator 24.0.0, SVG Export Plug-In . SVG Version: 6.00 Build 0)  -->
<svg version="1.1" id="Слой_1" xmlns="http://www.w3.org/2000/svg" xmlns:xlink="http://www.w3.org/1999/xlink" x="0px" y="0px"
	 viewBox="0 0 276 276" style="enable-background:new 0 0 276 276;" xml:space="preserve">
<style type="text/css">
	.st0{fill:#B9D076;}
</style>
<path class="st0" d="M255.9,113.1h-11.7C236.1,62,192,23,138.8,23S41.5,62,33.3,113.1H20.6C9.8,113.1,1,122,1,132.8v2.1
	c0,10.8,8.8,19.7,19.6,19.7h14.1c32.1,2.6,66.7,4.1,103.5,4.1c37.3,0,72.2-1.6,104.6-4.1h13.1c10.8,0,19.6-8.9,19.6-19.7v-2.1
	C275.5,122,266.7,113.1,255.9,113.1z"/>
<g>
	<path class="st0" d="M231,175.3c-2.2,0-19.8,1.2-39.2,2.5c-36,2.4-72.1,2.4-108.1,0c-19.3-1.3-36.9-2.5-39.2-2.5
		c-5.2,0-30-4.1-26.9,28S75.6,254,86,254c12.3,0,27.6-1.5,35.3-11.4c3.6-4.7,9-7.9,14.9-8.2c11.7-0.6,13.6,5.9,22.3,12.4
		c8.3,6.2,20.7,7.3,31.1,7.3c10.4,0,65.3-18.6,68.4-50.8C261,171.1,236.2,175.3,231,175.3z M112,220.6c-1.7,7.3-15.8,10.2-31.6,6.6
		c-15.8-3.6-27.2-12.4-25.6-19.7s15.8-10.2,31.6-6.6C102.2,204.5,113.6,213.3,112,220.6z M196.2,227.2c-15.8,3.6-29.9,0.6-31.6-6.6
		c-1.7-7.3,9.8-16.1,25.6-19.7c15.8-3.6,29.9-0.6,31.6,6.6C223.4,214.7,212,223.6,196.2,227.2z"/>
</g>
</svg>
