<?xml version="1.0" encoding="utf-8"?>
<!-- Generator: Adobe Illustrator 24.0.0, SVG Export Plug-In . SVG Version: 6.00 Build 0)  -->
<svg version="1.1" id="Слой_1" xmlns="http://www.w3.org/2000/svg" xmlns:xlink="http://www.w3.org/1999/xlink" x="0px" y="0px"
	 viewBox="0 0 116 115" style="enable-background:new 0 0 116 115;" xml:space="preserve">
<style type="text/css">
	.st0{display:none;}
	.st1{display:inline;fill:#B9CE76;}
	.st2{display:inline;}
	.st3{fill:#B9CE76;}
	.st4{display:none;fill:#B9CE76;}
	.st5{display:none;fill:#C44949;}
</style>
<g class="st0">
	<path class="st1" d="M7.3-3l-49.8-92.9l-2-3.7l0,0l-3.7,2l0,0l-62.6,33.6l0,0l-3.7,2l0,0l0,0l2,3.7l0,0l49.8,92.9l2,3.7l3.7-2
		L5.7,2.6l3.7-2l0,0L7.3-3L7.3-3z M-58.9,32.5l-49.8-92.9L-46.1-94L3.7-1.1L-58.9,32.5z"/>
	
		<rect x="-50.6" y="5.7" transform="matrix(0.8813 -0.4725 0.4725 0.8813 -9.007 -20.2592)" class="st1" width="11.6" height="4.2"/>
	
		<rect x="-71.1" y="-21.3" transform="matrix(0.8813 -0.4725 0.4725 0.8813 3.5436 -24.2024)" class="st1" width="49.3" height="4.2"/>
	
		<rect x="-67.4" y="-14.5" transform="matrix(0.8813 -0.4725 0.4725 0.8813 0.7688 -21.6776)" class="st1" width="49.3" height="4.2"/>
	
		<rect x="-63.9" y="-7.9" transform="matrix(0.8813 -0.4725 0.4725 0.8813 -1.8979 -19.2512)" class="st1" width="49.3" height="4.2"/>
	
		<rect x="-30.5" y="-5.1" transform="matrix(0.8813 -0.4725 0.4725 0.8813 -1.531 -12.0428)" class="st1" width="11.6" height="4.2"/>
	<g class="st2">
		<path class="st3" d="M-73.1-69c-6.2,3.3-8.6,11.1-5.2,17.3c2,3.7,5.5,6,9.4,6.5l6.7,12.5l2,3.8l3.8-8.8l4.1,0.7l0,0l5.3,1l0,0l0,0
			l-2-3.8l0,0l-6.7-12.5c1.7-3.5,1.8-7.9-0.2-11.6C-59.2-70-66.9-72.3-73.1-69L-73.1-69z M-63-50.3c-4.1,2.2-9.3,0.7-11.5-3.5
			c-2.2-4.1-0.7-9.3,3.5-11.5c4.1-2.2,9.3-0.7,11.5,3.5C-57.3-57.7-58.9-52.5-63-50.3L-63-50.3z M-60-37.5l-4.2-7.8
			c1.1-0.3,2.2-0.6,3.1-1.1s1.8-1.2,2.7-1.9l4.2,7.8l-4.1-0.7L-60-37.5L-60-37.5z"/>
	</g>
	<path class="st1" d="M-49-83.9L-6.3-4.3l-49.8,26.7l-42.7-79.6L-49-83.9 M-47.3-89.6L-104.5-59l46.7,87.1L-0.6-2.5L-47.3-89.6
		L-47.3-89.6z"/>
	<g class="st2">
		<path class="st3" d="M-7.7-3.6c0-0.7,0.2-1.3,0.7-1.9c0.1-0.2,0.3-0.3,0.5-0.4l3.2-1.7l-1.5-2.8L-43-81.5l-1.5-2.8l-3.2,1.7
			c-0.2,0.1-0.4,0.2-0.6,0.2c-0.8,0.2-1.7-0.1-2.2-0.7c-0.2-0.1-0.3-0.3-0.4-0.5l-1.7-3.2l-2.8,1.5l-41.2,22.1l-2.8,1.5l1.7,3.2l0,0
			c0,0.1,0.1,0.2,0.1,0.3c0.1,0.2,0.1,0.3,0.1,0.5c0,0.2,0,0.4,0.1,0.5c0,0.4,0,0.6-0.2,0.9c-0.1,0.2-0.2,0.3-0.3,0.4
			c-0.1,0-0.2,0.2-0.3,0.3c-0.1,0-0.2,0.1-0.3,0.1l0,0l0,0c0,0,0,0-0.1,0l-3.1,1.7l1.5,2.8l38.1,71l1.5,2.8l3-1.6l0,0l0.1,0
			c0.3-0.1,0.5-0.1,0.7-0.2c0.6-0.1,1.4,0,1.8,0.5c0.2,0.2,0.5,0.4,0.6,0.8l1.6,2.9l2.9-1.6L-8.9,1.7l3-1.6l-1.5-2.7
			C-7.6-3-7.7-3.3-7.7-3.6z M-11.6-1.5L-51,19.6c-1.8-2.5-5-3.3-7.8-2.2l-37.2-69.4c2.6-1.7,3.6-5.1,2.4-8.1l39.3-21.1
			c1.8,2.7,5.2,3.7,8,2.5L-9-9.2C-11.5-7.6-12.6-4.4-11.6-1.5z"/>
	</g>
	
		<rect x="-65.3" y="-28.2" transform="matrix(0.8813 -0.4725 0.4725 0.8813 6.3873 -26.724)" class="st1" width="30.5" height="4.2"/>
</g>
<path class="st4" d="M26.9,68c-0.6-0.9-0.9-2-0.8-3.1H11.8V12.4h56.4L64,16.6l3,3l9.4-9.4l0,0l0,0L67,0.7l-3,3l4.4,4.4H7.5v61.1
	h20.3C27.5,68.8,27.2,68.4,26.9,68z"/>
<path class="st3" d="M80.6,64.9c0.1,0.1,0.1,0.1,0.2,0.2c0.6,0.1,1.2,0.4,1.5,1c0.2,0.4,0.4,0.9,0.7,1.3c0.1,0.2,0.2,0.4,0.3,0.6
	c0.2,0.4,0.3,0.8,0.2,1.1h28.9v-4.3H80.6z"/>
<path class="st3" d="M44.1,36.3c0.1-0.1,0.3-0.2,0.4-0.3l0,0c0,0,0,0,0,0c1.2-0.9,2.5-1.5,3.9-1.9c0.6-0.3,1.1-0.6,1.7-0.9
	c0,0,0.1,0,0.1-0.1H8.2v4.3h35.3C43.6,36.9,43.8,36.5,44.1,36.3z"/>
<path class="st4" d="M109.2,33.1H77.3c0.8,0.5,1.6,1.1,2.4,1.6c0.3,0,0.5,0,0.8,0c1.6,0.3,3,1.1,4.1,2.2c0.1,0.1,0.2,0.2,0.3,0.3h20
	v65H48.5l4.2-4.2l-3-3l-9.4,9.4l0,0l0,0l9.4,9.4l3-3l-4.4-4.4h60.9V33.1z"/>
<path class="st5" d="M58.1,5C87.3,5,111,28.7,111,57.9s-23.7,52.9-52.9,52.9S5.3,87,5.3,57.9S29,5,58.1,5 M58.1,0.7
	C26.6,0.7,1,26.3,1,57.9S26.6,115,58.1,115s57.1-25.6,57.1-57.1S89.7,0.7,58.1,0.7L58.1,0.7z"/>
<path class="st3" d="M109.7,33.1h-1.4h-3.4H85.6l-20.5-8.3c-0.1,0-0.4-0.2-0.5-0.2c-0.3-0.1-1-0.5-1.3-0.6c-1.5-0.6-1.8-0.4-3.6,0.5
	c-2.5,1.2-21.3,11.3-22.1,11.7c-0.7,0.4-1.2,1.2-1.1,2c0,0.4,0.3,3.6,3.2,6.1c2.3,2,5.5,2.9,9.5,2.6c6.3-0.4,9.8-1.6,11.7-2.6
	l26.7,29.2c0.1,0.2,0.4,0.9,0.2,1.1c-1.3,1.2-17,10.6-29.9,11.3c0.2-0.7,0.4-1.5,0.5-2.4c0.5-4.3-0.9-12.9-6.6-18.9
	c-4.4-4.7-10.6-6.9-17.9-6.6c-4.7,0.2-7.9,1.4-9.7,3.5c-0.9,1-1.3,2.2-1.5,3.5H5.8c-0.3-2.3-0.5-4.7-0.5-7.1C5.3,28.7,29,5,58.1,5
	C69,5,79.1,8.3,87.5,13.9h-8.4v4.3h10.5v0l4.3,0v0l0,0v-4.3h0V3.4h-4.3l0,6.8c-9-6-19.8-9.5-31.5-9.5C26.6,0.7,1,26.3,1,57.9
	c0,3.9,0.4,7.7,1.1,11.3h1.3h3.1h17.2c0.4,0.6,0.9,1.1,1.4,1.5l24,18c0.9,0.7,2,1.1,3.1,1.2c0.4,0.1,1.5,0.2,4,0.2
	c14.3,0,32.8-10.8,34.5-12.7c2.2-2.3,1-5.4,0.2-6.6c-0.1-0.1-0.1-0.1-0.2-0.2l-28-30.4c-0.4-0.5-1-0.8-1.6-0.8
	c-0.5,0-0.9,0.3-1.4,0.5c-0.2,0.2-0.5,0.3-0.8,0.4c-1,0.5-3.5,1.4-10.2,2.1c-5.3,0.5-7.2-1.9-7.8-3.5c4.5-2.4,18.5-9.9,20.5-10.8
	c0.2-0.1,0.4-0.2,0.9,0l21.8,8.9c0.2,0.1,0.4,0.2,0.6,0.2c0,0,0,0,0,0h21.9c2.7,6.3,4.2,13.2,4.2,20.5c0,29.2-23.7,52.9-52.9,52.9
	c-14.7,0-28.1-6.1-37.7-15.8h7.3v-4.3H17.3v0l-4.3,0v0l0,0v4.3h0v10.5h4.3l0-7.7C27.6,108.4,42.1,115,58.1,115
	c31.6,0,57.1-25.6,57.1-57.1C115.3,49,113.3,40.6,109.7,33.1z M54.1,82.9c-0.1,1.2-0.5,2.7-1.4,2.7c0,0,0,0,0,0
	c-0.3,0-0.6-0.1-1-0.4l-24-18h0c-0.4-0.3-0.7-0.8-0.8-1.2c-0.1-0.8,0.1-1.4,0.5-1.9c0.6-0.7,2.2-1.8,6.6-2c0.4,0,0.8,0,1.3,0
	c5.5,0,10,1.8,13.3,5.3C53.3,72.4,54.4,79.6,54.1,82.9z"/>
</svg>
