<?xml version="1.0" encoding="utf-8"?>
<!-- Generator: Adobe Illustrator 24.0.0, SVG Export Plug-In . SVG Version: 6.00 Build 0)  -->
<svg version="1.1" id="Слой_1" xmlns="http://www.w3.org/2000/svg" xmlns:xlink="http://www.w3.org/1999/xlink" x="0px" y="0px"
	 viewBox="0 0 116 115" style="enable-background:new 0 0 116 115;" xml:space="preserve">
<style type="text/css">
	.st0{fill:#B8CC75;}
	.st1{clip-path:url(#SVGID_2_);fill:#B8CC75;}
</style>
<g>
	<path class="st0" d="M74.04,10.45H43.89L7.09,77.46h31.22l30.27-18.42l10.33,18.42h31.82L74.04,10.45L74.04,10.45L74.04,10.45z
		 M71.94,14.04l32.75,59.83H80.99l-9.31-16.59l-1.8-3.22l-3.14,1.91l-29.42,17.9H13.13l32.86-59.83H71.94"/>
	<path class="st0" d="M58.9,41.41l-1.83,3.26l2.74-1.63L58.9,41.41L58.9,41.41z M47.41,54.6l11.5-20.5l5.7,10.25L47.41,54.6
		L47.41,54.6z"/>
	<path class="st0" d="M14.52,95.24l-8.63,2.29l4.88-9.89L14.52,95.24L14.52,95.24z M10.35,81.63l-10.11,20.6l15.66-4.17l1.71,3.48
		h3.5l-9.82-19.9H10.35L10.35,81.63z"/>
	<polygon class="st0" points="33.75,86.89 29.93,86.89 25.4,91.99 25.4,86.89 22.38,86.89 22.38,101.53 25.4,101.53 25.4,95.99 
		30.78,101.53 34.92,101.53 27.34,93.9 33.75,86.89 	"/>
	<path class="st0" d="M39.13,90.74c0.4-0.4,0.87-0.72,1.41-0.93c0.54-0.22,1.12-0.33,1.72-0.33c1.19,0,2.25,0.41,3.22,1.25
		l0.56,0.49l1.85-2.36l-0.51-0.45c-0.58-0.5-1.28-0.94-2.09-1.29c-0.84-0.36-1.82-0.54-2.92-0.54c-1.08,0-2.11,0.2-3.05,0.61
		c-0.94,0.4-1.75,0.96-2.42,1.66c-0.67,0.69-1.2,1.51-1.58,2.42c-0.38,0.92-0.58,1.9-0.58,2.92c0,0.9,0.16,1.81,0.47,2.71
		c0.32,0.91,0.8,1.73,1.43,2.46c0.64,0.73,1.44,1.33,2.38,1.79c0.96,0.47,2.07,0.7,3.33,0.7c0.3,0,0.64-0.02,1.01-0.06
		c0.4-0.04,0.81-0.13,1.24-0.27c0.42-0.14,0.86-0.32,1.31-0.56c0.46-0.24,0.93-0.55,1.4-0.93l0.56-0.45l-1.89-2.37l-0.56,0.53
		c-0.86,0.81-1.87,1.2-3.07,1.2c-0.76,0-1.43-0.14-1.99-0.41c-0.57-0.28-1.04-0.64-1.41-1.08c-0.37-0.45-0.66-0.96-0.85-1.51
		c-0.19-0.57-0.29-1.16-0.29-1.74c0-0.72,0.12-1.38,0.36-1.96C38.4,91.65,38.73,91.15,39.13,90.74L39.13,90.74z"/>
	<polygon class="st0" points="52.71,95.6 52.71,86.89 49.7,86.89 49.7,101.85 50.86,101.85 58.89,92.84 58.89,101.53 61.91,101.53 
		61.91,86.57 60.75,86.57 52.71,95.6 	"/>
	<path class="st0" d="M71.3,98.94c-0.61,0-1.18-0.12-1.71-0.37c-0.54-0.25-1.02-0.59-1.43-1.02c-0.41-0.43-0.74-0.94-0.98-1.52
		c-0.24-0.57-0.36-1.19-0.36-1.83c0-0.65,0.12-1.27,0.36-1.84c0.24-0.57,0.57-1.08,0.98-1.51c0.41-0.42,0.89-0.77,1.43-1.02
		c0.53-0.25,1.11-0.37,1.71-0.37c0.61,0,1.19,0.12,1.73,0.37c0.55,0.25,1.03,0.59,1.44,1.01c0.4,0.42,0.73,0.93,0.96,1.51
		c0.23,0.58,0.35,1.19,0.35,1.83c0,0.64-0.12,1.25-0.35,1.82c-0.24,0.57-0.56,1.08-0.97,1.52c-0.4,0.43-0.88,0.77-1.42,1.02
		C72.51,98.81,71.93,98.94,71.3,98.94L71.3,98.94z M76.63,88.79c-0.69-0.68-1.49-1.23-2.4-1.62c-0.91-0.4-1.9-0.6-2.93-0.6
		c-1.03,0-2.02,0.2-2.93,0.6c-0.91,0.39-1.71,0.94-2.4,1.62c-0.69,0.69-1.24,1.5-1.63,2.43c-0.39,0.93-0.59,1.93-0.59,2.99
		c0,1.04,0.2,2.04,0.59,2.97c0.39,0.92,0.93,1.74,1.61,2.43c0.68,0.69,1.49,1.25,2.41,1.64c0.92,0.4,1.91,0.6,2.94,0.6
		c1.03,0,2.02-0.2,2.94-0.6c0.92-0.39,1.73-0.95,2.41-1.64c0.68-0.69,1.22-1.51,1.61-2.43c0.39-0.93,0.59-1.93,0.59-2.97
		c0-1.06-0.2-2.06-0.59-2.99C77.87,90.29,77.32,89.48,76.63,88.79L76.63,88.79z"/>
	<g>
		<defs>
			<rect id="SVGID_1_" x="0.24" y="10.45" width="114.84" height="91.77"/>
		</defs>
		<clipPath id="SVGID_2_">
			<use xlink:href="#SVGID_1_"  style="overflow:visible;"/>
		</clipPath>
		<polygon class="st1" points="86.91,95.84 82.89,86.89 80.12,86.89 80.12,101.53 83.14,101.53 83.14,94.56 86.42,101.85 
			87.39,101.85 90.78,94.49 90.78,101.53 93.8,101.53 93.8,86.89 91.04,86.89 86.91,95.84 		"/>
		<path class="st1" d="M108.48,95.24l-8.63,2.29l4.88-9.89L108.48,95.24L108.48,95.24z M105.25,81.63h-0.94l-10.11,20.6l15.66-4.17
			l1.71,3.48h3.5L105.25,81.63L105.25,81.63z"/>
	</g>
</g>
</svg>
