<?xml version="1.0" encoding="utf-8"?>
<!-- Generator: Adobe Illustrator 24.0.0, SVG Export Plug-In . SVG Version: 6.00 Build 0)  -->
<svg version="1.1" id="Слой_1" xmlns="http://www.w3.org/2000/svg" xmlns:xlink="http://www.w3.org/1999/xlink" x="0px" y="0px"
	 viewBox="0 0 116 115" style="enable-background:new 0 0 116 115;" xml:space="preserve">
<style type="text/css">
	.st0{fill:#B8CC75;}
	.st1{clip-path:url(#SVGID_2_);fill:#B8CC75;}
</style>
<g>
	<path class="st0" d="M24.24,80.84c-1.45,0-2.62,1.18-2.62,2.63c0,1.45,1.17,2.63,2.62,2.63c1.45,0,2.62-1.18,2.62-2.63
		C26.86,82.02,25.69,80.84,24.24,80.84L24.24,80.84z"/>
	<path class="st0" d="M90.07,83.46c0,1.45,1.17,2.63,2.62,2.63c1.45,0,2.62-1.18,2.62-2.63c0-1.45-1.17-2.63-2.62-2.63
		C91.25,80.83,90.07,82.01,90.07,83.46L90.07,83.46z"/>
	<polygon class="st0" points="106.99,50.64 91.51,50.64 91.51,54.87 106.99,54.87 106.99,50.64 	"/>
	<g>
		<defs>
			<rect id="SVGID_1_" x="0.16" y="20.45" width="115" height="75.65"/>
		</defs>
		<clipPath id="SVGID_2_">
			<use xlink:href="#SVGID_1_"  style="overflow:visible;"/>
		</clipPath>
		<polygon class="st1" points="93.67,62.86 104.93,62.86 104.93,58.62 93.67,58.62 93.67,62.86 		"/>
		<path class="st1" d="M110.93,66.22H85.31v0c0.85-2.45,1.31-5.07,1.31-7.81c0-8.44-4.38-15.85-10.98-20.07l6.15-1.48l8.8,2.12
			v-4.24V24.69h20.34V66.22L110.93,66.22z M101.11,83.22c0,4.72-3.83,8.56-8.53,8.56c-4.7,0-8.53-3.84-8.53-8.56
			c0-4.72,3.83-8.56,8.53-8.56C97.28,74.66,101.11,78.5,101.11,83.22L101.11,83.22z M81.53,73.15L81.53,73.15
			c0.67-0.85,1.28-1.75,1.83-2.69c0,0,0,0,0,0h8.17c-2.56,0.21-4.91,1.18-6.82,2.68H81.53L81.53,73.15z M80,81.06h-9.77
			c2.55-0.83,4.91-2.08,7-3.67h3.99C80.64,78.52,80.22,79.75,80,81.06L80,81.06z M62.9,82.22c-0.37,0-0.74-0.01-1.1-0.03
			C62.16,82.21,62.53,82.22,62.9,82.22c0.37,0,0.74-0.01,1.1-0.03C63.63,82.21,63.27,82.22,62.9,82.22L62.9,82.22z M52.38,81.06
			v-1.3c0,0,0,0,0,0c1.02,0.51,2.09,0.95,3.19,1.3H52.38L52.38,81.06z M43.4,58.42c0-10.79,8.75-19.57,19.5-19.57
			c10.75,0,19.49,8.78,19.49,19.57c0,10.79-8.75,19.57-19.49,19.57C52.15,77.98,43.4,69.21,43.4,58.42L43.4,58.42z M40.98,67.51
			L40.98,67.51v13.55h-4.11c-1.05-6.02-6.28-10.6-12.58-10.6s-11.53,4.57-12.58,10.6H4.38v-7.21h7.74v-9.63H4.38v-3.13l12.37-21.57
			h24.23v9.81l0,0c-1.15,2.8-1.79,5.87-1.79,9.09C39.18,61.64,39.82,64.71,40.98,67.51L40.98,67.51z M24.28,91.85
			c-4.71,0-8.54-3.84-8.54-8.57c0-4.73,3.83-8.57,8.54-8.57s8.54,3.85,8.54,8.57C32.82,88.01,28.99,91.85,24.28,91.85L24.28,91.85z
			 M52.38,37.08V24.69H73v10.05v2.13c-3.07-1.45-6.49-2.26-10.1-2.26C59.12,34.61,55.55,35.51,52.38,37.08L52.38,37.08L52.38,37.08z
			 M77.22,24.69h9.15v9.04l-4.58-1.1l-4.57,1.1V24.69L77.22,24.69z M110.93,77.38v3.67h-5.78c-0.22-1.3-0.64-2.54-1.22-3.67H110.93
			L110.93,77.38z M115.15,20.45h-67v19.33l0,0c-1.06,0.85-2.05,1.78-2.96,2.8v-7.29H19.18h-4.22l-2.43,4.24l-8.15,14.2l-4.22,7.36
			v3.13v9.63V85.3h11.51c0.96,6.12,6.24,10.81,12.62,10.81c6.37,0,11.65-4.68,12.62-10.81h8.3V74.26l0,0
			c0.9,1.02,1.89,1.95,2.96,2.8l0,0v8.24h31.83c0.99,6.09,6.25,10.74,12.59,10.74c6.34,0,11.61-4.65,12.59-10.74h9.98V73.15h-14.7
			c-1.91-1.51-4.26-2.47-6.82-2.68h21.52V20.45L115.15,20.45z"/>
	</g>
	<path class="st0" d="M21.41,47.62h13.33v9.66H21.41V47.62L21.41,47.62z M17.89,60.57h20.27V44.31H17.89V60.57L17.89,60.57z"/>
	<polygon class="st0" points="76.43,50.43 73.25,47.7 57.42,63.98 52.29,56.86 48.86,59.34 56.88,70.54 59.91,67.43 59.9,67.41 
		76.43,50.43 	"/>
</g>
</svg>
