<?xml version="1.0" encoding="utf-8"?>
<!-- Generator: Adobe Illustrator 24.0.0, SVG Export Plug-In . SVG Version: 6.00 Build 0)  -->
<svg version="1.1" id="Слой_1" xmlns="http://www.w3.org/2000/svg" xmlns:xlink="http://www.w3.org/1999/xlink" x="0px" y="0px"
	 viewBox="0 0 116 115" style="enable-background:new 0 0 116 115;" xml:space="preserve">
<style type="text/css">
	.st0{clip-path:url(#SVGID_2_);fill:#B8CC75;}
	.st1{fill:#B8CC75;}
</style>
<g>
	<g>
		<defs>
			<rect id="SVGID_1_" x="1.1" y="-0.1" width="113.55" height="115.21"/>
		</defs>
		<clipPath id="SVGID_2_">
			<use xlink:href="#SVGID_1_"  style="overflow:visible;"/>
		</clipPath>
		<path class="st0" d="M110.4,110.82H5.46v-4.29H110.4V110.82L110.4,110.82z M12.49,97.16h24.26v5.08H12.49V97.16L12.49,97.16z
			 M12.49,58.06c1.7,0.39,3.44,0.68,5.18,0.91v33.9h-5.18V58.06L12.49,58.06z M32.63,47.29c7.58-2.86,14.92-6.37,21.95-10.41
			c1.03-0.59,2.06-1.19,3.08-1.82c3.49,2.19,7.15,4.14,10.83,5.99c8.53,4.28,17.5,7.96,26.8,10.14c3.33,0.78,6.73,1.37,10.15,1.67
			c-0.75,0.27-1.51,0.5-2.29,0.71c-4.1,1.07-7.93,1.48-12.11,1.85c-9.07,0.8-18.2,0.97-27.29,0.93c-1.93-0.01-17.38,0.03-22.87-0.09
			c-9.17-0.2-18.65-0.39-27.45-2.38c-0.91-0.21-1.82-0.44-2.71-0.72c-0.27-0.09-0.54-0.18-0.81-0.28
			C17.69,52.21,25.38,50.02,32.63,47.29L32.63,47.29z M27.59,23.4c3.25,0.36,6.52,0.55,9.76,0.69c6.73,0.31,13.47,0.28,20.21,0.11
			c0.02,0,0.03,0,0.05,0c0.02,0,0.03,0,0.05,0c9.97,0.25,20.04,0.28,29.97-0.86v21.18c-1.35-0.46-2.68-0.94-4-1.44
			C76.4,40.35,69.4,36.94,62.7,33.07c-1.3-0.75-2.61-1.52-3.87-2.33c-0.4-0.26-0.8-0.36-1.16-0.34c-0.37-0.02-0.77,0.08-1.18,0.34
			c-3.65,2.36-7.51,4.43-11.38,6.39c-5.66,2.86-11.5,5.42-17.51,7.44V23.4L27.59,23.4z M22.89,19.14
			c10.1-2.45,19.72-7.26,28.82-12.2c1.97-1.07,3.92-2.16,5.85-3.31c1.93,1.14,3.88,2.24,5.85,3.31c9.1,4.95,18.72,9.75,28.82,12.2
			c0.12,0.03,0.25,0.06,0.37,0.09c-4.97,0.93-10.08,1.24-15.1,1.46c-6.61,0.29-13.22,0.26-19.83,0.1c-0.02,0-0.03,0-0.05,0
			c-0.02,0-0.03,0-0.05,0c-10.03,0.25-20.16,0.27-30.14-0.87c-1.61-0.19-3.23-0.4-4.84-0.69C22.68,19.19,22.79,19.16,22.89,19.14
			L22.89,19.14z M97.74,92.88V58.96c1.78-0.25,3.55-0.56,5.29-0.97v34.89H97.74L97.74,92.88z M83.94,92.88h-5.18V60.4
			c1.73-0.06,3.45-0.13,5.18-0.22V92.88L83.94,92.88z M88.2,92.88V59.91c0.95-0.07,1.9-0.14,2.85-0.23
			c0.81-0.07,1.63-0.15,2.44-0.23v33.42H88.2L88.2,92.88z M31.46,60.21c1.76,0.1,3.52,0.17,5.29,0.23v32.44h-5.29V60.21L31.46,60.21
			z M22.39,59.51c1.6,0.16,3.21,0.3,4.82,0.42v32.95h-5.29V59.46C22.08,59.48,22.24,59.5,22.39,59.51L22.39,59.51z M69.26,70.96
			c0-0.48-0.19-0.98-0.65-1.41c-4.06-3.92-9.45-6.38-15.08-4.66c-2.5,0.76-5.05,2.23-6.84,4.19c-0.39,0.42-0.56,0.89-0.58,1.35
			h-0.01v31.83h-5.11v-5.08v-4.28V60.55c3.33,0.06,6.66,0.08,9.98,0.07c2.22-0.01,4.44-0.02,6.67-0.08
			c5.62,0.14,11.24,0.12,16.86-0.01v32.36v4.28v5.08h-5.25L69.26,70.96L69.26,70.96L69.26,70.96z M65.01,102.25H50.37V71.46
			c0.22-0.2,0.42-0.36,0.5-0.43c0.72-0.56,2.15-1.44,3.26-1.84c4.06-1.47,7.82,0.1,10.88,2.82V102.25L65.01,102.25z M103.03,102.25
			H78.77v-5.08h24.26V102.25L103.03,102.25z M107.28,102.25v-5.08v-4.28V56.73c1.89-0.76,3.67-1.88,4.36-3.71
			c0.17-0.01,0.34-0.01,0.52-0.02c2.73-0.12,2.74-4.4,0-4.29c-6.86,0.29-13.68-0.91-20.27-2.85V22.81c2.75-0.4,5.51-0.96,8.07-1.99
			c0.43-0.17,0.92-0.35,1.34-0.6c1.29-0.09,2.55-0.34,3.74-0.79c4.04-1.55,5.73-5.32,5.66-9.5c-0.04-2.21-3.44-2.21-3.4,0
			c0.02,1.21-0.02,1.95-0.34,3.04c-0.18,0.6-0.16,0.58-0.4,0.99c-0.29,0.49-0.39,0.65-0.58,0.86c-0.64,0.69-0.82,0.82-1.76,1.27
			c-0.2,0.1,0.07-0.01-0.3,0.12c-0.22,0.08-0.45,0.15-0.67,0.21c-0.43,0.12-0.87,0.21-1.31,0.27c-0.03,0-0.5,0.05-0.56,0.05
			c-0.21,0.02-0.42,0.03-0.63,0.04c-0.47,0.02-0.94,0.02-1.41,0c-0.96-0.03-1.94-0.13-2.79-0.26c-2.33-0.36-4.61-0.95-6.86-1.64
			c-4.95-1.52-9.75-3.55-14.43-5.76c-5.74-2.71-11.4-5.67-16.82-8.96c-0.07-0.05-0.15-0.08-0.22-0.12c-0.03-0.02-0.07-0.03-0.1-0.04
			c-0.01,0-0.02-0.01-0.03-0.01c-0.16-0.06-0.33-0.09-0.5-0.09c-0.18,0-0.34,0.03-0.5,0.09c-0.01,0-0.02,0.01-0.03,0.01
			c-0.03,0.01-0.07,0.03-0.1,0.04c-0.07,0.03-0.15,0.07-0.22,0.12c-5.43,3.3-11.09,6.26-16.82,8.96c-4.69,2.21-9.48,4.24-14.44,5.76
			c-2.25,0.69-4.54,1.28-6.86,1.64c-0.85,0.13-1.84,0.23-2.8,0.26c-0.47,0.02-0.94,0.02-1.41,0c-0.21-0.01-0.42-0.02-0.63-0.04
			c-0.07-0.01-0.53-0.06-0.56-0.05c-0.44-0.06-0.88-0.15-1.31-0.27c-0.23-0.06-0.45-0.14-0.67-0.21c-0.37-0.13-0.09-0.02-0.3-0.12
			c-0.94-0.45-1.11-0.58-1.76-1.27c-0.2-0.21-0.3-0.37-0.58-0.86c-0.24-0.42-0.22-0.39-0.4-0.99c-0.32-1.09-0.36-1.83-0.34-3.04
			c0.04-2.21-3.37-2.21-3.4,0c-0.07,4.18,1.62,7.96,5.66,9.5c1.22,0.47,2.52,0.71,3.84,0.8c1.29,0.84,3.08,1.23,4.52,1.59
			c1.61,0.4,3.24,0.73,4.89,1v23.06c-1.34,0.39-2.69,0.75-4.05,1.07c-5.29,1.27-10.69,2-16.14,1.77c-2.74-0.12-2.73,4.17,0,4.29
			c0.17,0.01,0.35,0.01,0.52,0.02c0.73,1.9,2.63,3.02,4.56,3.77v36.08v4.28v5.08H1.21v12.86h113.45v-12.86H107.28L107.28,102.25z"/>
	</g>
	<path class="st1" d="M65.79,14.97c0,1.18-0.95,2.14-2.13,2.14c-1.17,0-2.13-0.96-2.13-2.14c0-1.18,0.95-2.14,2.13-2.14
		C64.84,12.82,65.79,13.78,65.79,14.97L65.79,14.97z"/>
	<path class="st1" d="M54.26,47.58c0,1.18-0.95,2.14-2.13,2.14c-1.17,0-2.13-0.96-2.13-2.14c0-1.18,0.95-2.14,2.13-2.14
		C53.3,45.44,54.26,46.4,54.26,47.58L54.26,47.58z"/>
	<path class="st1" d="M55.63,17.11h-3.5c-1.17,0-2.13-0.96-2.13-2.14l0,0c0-1.18,0.96-2.14,2.13-2.14h3.5
		c1.17,0,2.13,0.96,2.13,2.14l0,0C57.75,16.15,56.8,17.11,55.63,17.11L55.63,17.11z"/>
	<path class="st1" d="M63.05,49.73h-3.5c-1.17,0-2.13-0.96-2.13-2.14l0,0c0-1.18,0.96-2.14,2.13-2.14h3.5
		c1.17,0,2.13,0.96,2.13,2.14l0,0C65.17,48.76,64.22,49.73,63.05,49.73L63.05,49.73z"/>
</g>
</svg>
