<?xml version="1.0" encoding="utf-8"?>
<!-- Generator: Adobe Illustrator 24.0.0, SVG Export Plug-In . SVG Version: 6.00 Build 0)  -->
<svg version="1.1" id="Слой_1" xmlns="http://www.w3.org/2000/svg" xmlns:xlink="http://www.w3.org/1999/xlink" x="0px" y="0px"
	 viewBox="0 0 116 115" style="enable-background:new 0 0 116 115;" xml:space="preserve">
<style type="text/css">
	.st0{clip-path:url(#SVGID_2_);fill:#B8CC75;}
	.st1{fill:#B8CC75;}
</style>
<g>
	<g>
		<defs>
			<rect id="SVGID_1_" x="1" y="13" width="114.69" height="89.5"/>
		</defs>
		<clipPath id="SVGID_2_">
			<use xlink:href="#SVGID_1_"  style="overflow:visible;"/>
		</clipPath>
		<path class="st0" d="M105.51,98.18V84.19v-2.84v-1.47H80.17v1.47l-0.04,16.84h-1.97V17.32h29.35v80.86H105.51L105.51,98.18z
			 M84.44,98.18V84.19h16.77v13.99H84.44L84.44,98.18z M69.97,98.18V74.76v-3.92v-0.4H12.34v0.18v4.14v23.42H8.78v-39.1l65.09-11.01
			v50.1H69.97L69.97,98.18z M16.64,95.34h49.03v2.84H16.64V95.34L16.64,95.34z M16.64,88.43h49.03v2.59H16.64V88.43L16.64,88.43z
			 M16.64,81.52h49.03v2.59H16.64V81.52L16.64,81.52z M65.67,74.76v2.45H16.64v-2.45H65.67L65.67,74.76z M111.82,98.18V17.32h2.46
			V13h-2.46h-4.3H78.16h-4.3h-2.59v4.32h2.59v26.44L4.48,55.49v2.25v2.06v38.37H1v4.32h3.48h4.3h65.09h4.3h1.97h4.3h16.77h4.3h2.01
			h4.3h3.87v-4.32H111.82L111.82,98.18z"/>
	</g>
	<polygon class="st1" points="16.96,69.59 27,69.59 27,65.28 16.96,65.28 16.96,69.59 	"/>
	<polygon class="st1" points="55.96,69.59 65.99,69.59 65.99,65.28 55.96,65.28 55.96,69.59 	"/>
	<polygon class="st1" points="42.93,69.59 52.97,69.59 52.97,65.28 42.93,65.28 42.93,69.59 	"/>
	<polygon class="st1" points="29.91,69.59 39.95,69.59 39.95,65.28 29.91,65.28 29.91,69.59 	"/>
	<polygon class="st1" points="87.34,66.03 80.54,66.03 80.54,70 87.34,70 87.34,66.03 	"/>
	<polygon class="st1" points="89.86,50.45 96.37,50.45 96.37,46.48 89.86,46.48 89.86,50.45 	"/>
	<polygon class="st1" points="87.34,72.54 80.54,72.54 80.54,76.51 87.34,76.51 87.34,72.54 	"/>
	<polygon class="st1" points="89.86,37.41 96.37,37.41 96.37,33.45 89.86,33.45 89.86,37.41 	"/>
	<polygon class="st1" points="89.86,43.93 96.37,43.93 96.37,39.96 89.86,39.96 89.86,43.93 	"/>
	<polygon class="st1" points="96.37,26.93 89.86,26.93 89.86,30.9 96.37,30.9 96.37,26.93 	"/>
	<polygon class="st1" points="87.34,53 80.54,53 80.54,56.96 87.34,56.96 87.34,53 	"/>
	<polygon class="st1" points="87.34,33.45 80.54,33.45 80.54,37.41 87.34,37.41 87.34,33.45 	"/>
	<polygon class="st1" points="87.34,59.51 80.54,59.51 80.54,63.48 87.34,63.48 87.34,59.51 	"/>
	<polygon class="st1" points="87.34,26.93 80.54,26.93 80.54,30.9 87.34,30.9 87.34,26.93 	"/>
	<polygon class="st1" points="87.34,39.96 80.54,39.96 80.54,43.93 87.34,43.93 87.34,39.96 	"/>
	<polygon class="st1" points="87.34,46.48 80.54,46.48 80.54,50.45 87.34,50.45 87.34,46.48 	"/>
	<polygon class="st1" points="89.86,56.96 96.37,56.96 96.37,53 89.86,53 89.86,56.96 	"/>
	<polygon class="st1" points="98.89,63.48 105.2,63.48 105.2,59.51 98.89,59.51 98.89,63.48 	"/>
	<polygon class="st1" points="98.89,37.41 105.2,37.41 105.2,33.45 98.89,33.45 98.89,37.41 	"/>
	<polygon class="st1" points="98.89,43.93 105.2,43.93 105.2,39.96 98.89,39.96 98.89,43.93 	"/>
	<polygon class="st1" points="98.89,30.9 105.2,30.9 105.2,26.93 98.89,26.93 98.89,30.9 	"/>
	<polygon class="st1" points="98.89,50.45 105.2,50.45 105.2,46.48 98.89,46.48 98.89,50.45 	"/>
	<polygon class="st1" points="89.86,19.62 89.86,24.38 96.37,24.38 96.37,19.62 98.89,19.62 98.89,24.38 105.2,24.38 105.2,19.62 
		89.86,19.62 	"/>
	<polygon class="st1" points="80.54,24.38 87.34,24.38 87.34,19.62 80.54,19.62 80.54,24.38 	"/>
	<polygon class="st1" points="89.86,63.48 96.37,63.48 96.37,59.51 89.86,59.51 89.86,63.48 	"/>
	<polygon class="st1" points="98.89,56.96 105.2,56.96 105.2,53 98.89,53 98.89,56.96 	"/>
	<polygon class="st1" points="89.86,76.51 96.37,76.51 96.37,72.54 89.86,72.54 89.86,76.51 	"/>
	<polygon class="st1" points="89.86,70 96.37,70 96.37,66.03 89.86,66.03 89.86,70 	"/>
	<polygon class="st1" points="98.89,76.51 105.2,76.51 105.2,72.54 98.89,72.54 98.89,76.51 	"/>
	<polygon class="st1" points="98.89,70 105.2,70 105.2,66.03 98.89,66.03 98.89,70 	"/>
	<polygon class="st1" points="87.34,19.6 87.34,19.62 89.86,19.62 89.86,19.6 87.34,19.6 	"/>
</g>
</svg>
