<?xml version="1.0" encoding="utf-8"?>
<!-- Generator: Adobe Illustrator 24.0.0, SVG Export Plug-In . SVG Version: 6.00 Build 0)  -->
<svg version="1.1" id="Слой_1" xmlns="http://www.w3.org/2000/svg" xmlns:xlink="http://www.w3.org/1999/xlink" x="0px" y="0px"
	 viewBox="0 0 115 115" style="enable-background:new 0 0 115 115;" xml:space="preserve">
<style type="text/css">
	.st0{clip-path:url(#SVGID_2_);fill:#B8CC75;}
	.st1{clip-path:url(#SVGID_4_);fill:#B8CC75;}
	.st2{clip-path:url(#SVGID_6_);fill:#B8CC75;}
	.st3{clip-path:url(#SVGID_8_);fill:#B8CC75;}
	.st4{fill:#B8CC75;}
</style>
<g>
	<g>
		<g>
			<defs>
				<rect id="SVGID_1_" y="11" width="115" height="92.78"/>
			</defs>
			<clipPath id="SVGID_2_">
				<use xlink:href="#SVGID_1_"  style="overflow:visible;"/>
			</clipPath>
			<polygon class="st0" points="110.66,64.61 110.66,103.78 115,103.78 115,64.61 			"/>
		</g>
		<g>
			<defs>
				<rect id="SVGID_3_" y="11" width="115" height="92.78"/>
			</defs>
			<clipPath id="SVGID_4_">
				<use xlink:href="#SVGID_3_"  style="overflow:visible;"/>
			</clipPath>
			<polygon class="st1" points="99.01,103.78 103.34,103.78 103.34,64.61 99.01,64.61 			"/>
		</g>
		<g>
			<defs>
				<rect id="SVGID_5_" y="11" width="115" height="92.78"/>
			</defs>
			<clipPath id="SVGID_6_">
				<use xlink:href="#SVGID_5_"  style="overflow:visible;"/>
			</clipPath>
			<polygon class="st2" points="104.84,103.78 109.17,103.78 109.17,64.61 104.84,64.61 			"/>
		</g>
		<g>
			<defs>
				<rect id="SVGID_7_" y="11" width="115" height="92.78"/>
			</defs>
			<clipPath id="SVGID_8_">
				<use xlink:href="#SVGID_7_"  style="overflow:visible;"/>
			</clipPath>
			<path class="st3" d="M93.18,99.42h-71.5V68.96h71.5V99.42L93.18,99.42z M93.18,64.61h-71.5h-4.34h-0.02v4.35h0.02v30.46h-0.01
				v4.35h0.01l0,0h4.34l0,0h71.5l0,0h4.34V64.61h-0.51H93.18L93.18,64.61z"/>
		</g>
	</g>
	<polygon class="st4" points="103.27,56.82 85.92,56.82 85.92,61.17 103.27,61.17 	"/>
	<polygon class="st4" points="103.27,51.15 85.92,51.15 85.92,55.5 103.27,55.5 	"/>
	<polygon class="st4" points="103.27,39.79 85.92,39.79 85.92,44.15 103.27,44.15 	"/>
	<polygon class="st4" points="103.27,45.47 85.92,45.47 85.92,49.82 103.27,49.82 	"/>
	<polygon class="st4" points="105.29,33.88 87.95,33.88 87.95,38.24 105.29,38.24 	"/>
	<path class="st4" d="M12.5,42.59h4.34v4.35H12.5V42.59L12.5,42.59z M8.17,51.29h13.01V38.24H8.17V51.29L8.17,51.29z"/>
	<path class="st4" d="M34.18,46.94h-4.34v-4.35h4.34V46.94L34.18,46.94z M38.52,38.24H25.51v13.05h13.01V38.24L38.52,38.24z"/>
	<path class="st4" d="M51.53,46.94h-4.34v-4.35h4.34V46.94L51.53,46.94z M55.86,38.24H42.85v13.05h13.01V38.24L55.86,38.24z"/>
	<path class="st4" d="M68.87,46.94h-4.34v-4.35h4.34L68.87,46.94L68.87,46.94z M73.21,38.24H60.2v13.05h13.01V38.24L73.21,38.24z"/>
	<polygon class="st4" points="21.17,30.4 8.17,30.4 8.17,34.75 21.17,34.75 	"/>
	<polygon class="st4" points="38.52,30.4 25.51,30.4 25.51,34.75 38.52,34.75 	"/>
	<polygon class="st4" points="55.86,30.4 42.85,30.4 42.85,34.75 55.86,34.75 	"/>
	<polygon class="st4" points="73.21,30.4 60.2,30.4 60.2,34.75 73.21,34.75 	"/>
	<path class="st4" d="M4.34,95.07L4.34,95.07V19.32c0,0,0.01-0.01,0-0.01h7.44v4.75h4.34V19.3h8.67v4.75h4.34V19.3h8.67v4.75h4.34
		V19.3h8.67v4.75h4.34V19.3h8.67v4.75h4.34V19.3h8.88c0,0,0,0,0.01,0l0,0v41.87h4.33V19.3c0-2.39-1.95-4.35-4.33-4.35h-8.89V11
		h-4.34v3.95h-8.67V11H50.8v3.95h-8.67V11H37.8v3.95h-8.67V11h-4.34v3.95h-8.67V11h-4.34v3.95H4.34C1.95,14.95,0,16.91,0,19.3v75.77
		c0,2.39,1.95,4.35,4.34,4.35h8.82v-4.35h-8.8C4.35,95.07,4.34,95.07,4.34,95.07L4.34,95.07z"/>
	<polygon class="st4" points="8.17,86.4 14.55,86.4 14.55,82.05 12.5,82.05 12.5,77.7 14.55,77.7 14.55,73.35 8.17,73.35 	"/>
	<polygon class="st4" points="21.17,62.24 21.17,55.79 8.17,55.79 8.17,68.85 14.55,68.85 14.55,64.5 12.5,64.5 12.5,60.14 
		16.84,60.14 16.84,62.24 	"/>
	<polygon class="st4" points="38.52,62.22 38.52,55.79 25.51,55.79 25.51,62.22 29.85,62.22 29.85,60.14 34.18,60.14 34.18,62.22 	
		"/>
	<polygon class="st4" points="55.86,62.24 55.86,55.79 42.85,55.79 42.85,62.24 47.19,62.24 47.19,60.14 51.53,60.14 51.53,62.24 	
		"/>
	<polygon class="st4" points="73.21,62.24 73.21,55.79 60.2,55.79 60.2,62.24 60.2,62.24 64.53,62.24 64.53,60.14 68.87,60.14 
		68.87,62.24 	"/>
	<path class="st4" d="M57.52,80.7c1.83,0,3.32,1.5,3.32,3.34s-1.49,3.34-3.32,3.34c-1.83,0-3.32-1.5-3.32-3.34
		S55.69,80.7,57.52,80.7L57.52,80.7z M57.52,91.73c4.23,0,7.66-3.44,7.66-7.69s-3.43-7.69-7.66-7.69s-7.66,3.44-7.66,7.69
		C49.86,88.28,53.29,91.73,57.52,91.73L57.52,91.73z"/>
	<path class="st4" d="M29.23,77.78c1.31-0.76,2.4-1.86,3.17-3.17h50.04c0.76,1.31,1.85,2.41,3.16,3.18v12.5
		c-1.31,0.77-2.41,1.86-3.17,3.18H32.4c-0.76-1.32-1.86-2.42-3.17-3.18L29.23,77.78L29.23,77.78z M29.23,97.82H85.6
		c0-2.4,1.94-4.35,4.34-4.35V74.61c-2.39-0.01-4.33-1.95-4.33-4.35H29.23c0,2.4-1.94,4.34-4.34,4.34v18.87
		C27.29,93.47,29.23,95.41,29.23,97.82L29.23,97.82z"/>
</g>
</svg>
