<?xml version="1.0" encoding="utf-8"?>
<!-- Generator: Adobe Illustrator 24.0.0, SVG Export Plug-In . SVG Version: 6.00 Build 0)  -->
<svg version="1.1" id="Слой_1" xmlns="http://www.w3.org/2000/svg" xmlns:xlink="http://www.w3.org/1999/xlink" x="0px" y="0px"
	 viewBox="0 0 116 115" style="enable-background:new 0 0 116 115;" xml:space="preserve">
<style type="text/css">
	.st0{fill:#B9CE76;}
</style>
<path class="st0" d="M98.9,110.6V5.2V1l0,0h-4.2l0,0h-71l0,0h-4.2l0,0l0,0v4.2l0,0v105.4v4.2h4.2h71.1H99l0,0L98.9,110.6L98.9,110.6
	z M23.7,110.6V5.2h71.1v105.4H23.7z"/>
<rect x="42" y="93.4" class="st0" width="11.6" height="4.2"/>
<rect x="34.5" y="68.9" class="st0" width="49.3" height="4.2"/>
<rect x="34.5" y="76.6" class="st0" width="49.3" height="4.2"/>
<rect x="34.5" y="84" class="st0" width="49.3" height="4.2"/>
<rect x="64.8" y="93.4" class="st0" width="11.6" height="4.2"/>
<rect x="44" y="61.1" class="st0" width="30.5" height="4.2"/>
<g>
	<path class="st0" d="M59.2,14.5c-7,0-12.8,5.7-12.8,12.8c0,4.2,2,7.9,5.2,10.2v14.2V56l7.5-6l3.3,2.6l0,0l4.2,3.4l0,0l0,0v-4.3l0,0
		V37.5c3.2-2.3,5.3-6.1,5.3-10.3C71.9,20.2,66.2,14.5,59.2,14.5L59.2,14.5z M59.2,35.7c-4.7,0-8.5-3.8-8.5-8.5s3.8-8.5,8.5-8.5
		s8.5,3.8,8.5,8.5S63.9,35.7,59.2,35.7L59.2,35.7z M55.8,48.4v-8.8c1.1,0.3,2.2,0.5,3.3,0.5s2.2-0.2,3.3-0.4v8.8l-3.3-2.6L55.8,48.4
		L55.8,48.4z"/>
</g>
<g>
	<path class="st0" d="M85.9,103c0.3-0.6,0.8-1.1,1.5-1.3c0.2-0.1,0.4-0.1,0.6-0.1h3.6v-3.2V17.7v-3.2H88c-0.2,0-0.4,0-0.6-0.1
		c-0.8-0.2-1.4-0.9-1.6-1.7c-0.1-0.2-0.1-0.4-0.1-0.6V8.5h-3.2H35.8h-3.2v3.6l0,0c0,0.1,0,0.2,0,0.3c0,0.2-0.1,0.3-0.1,0.5
		c-0.1,0.2-0.2,0.4-0.2,0.5c-0.2,0.3-0.3,0.5-0.6,0.7c-0.2,0.1-0.3,0.2-0.5,0.2c-0.1,0-0.3,0.1-0.4,0.1s-0.2,0-0.3,0l0,0l0,0
		c0,0,0,0-0.1,0h-3.5v3.2v80.6v3.2h3.4l0,0h0.1c0.3,0,0.5,0.1,0.7,0.1c0.6,0.2,1.2,0.7,1.4,1.3c0.1,0.3,0.2,0.6,0.2,1v3.3H36h46.3
		h3.4V104C85.7,103.6,85.8,103.3,85.9,103z M81.5,103H36.8c-0.4-3-2.8-5.3-5.8-5.6V18.7c3.1-0.3,5.6-2.8,5.9-6h44.6
		c0.3,3.2,2.8,5.7,5.9,6v78.7C84.4,97.7,82,100,81.5,103z"/>
</g>
</svg>
