<?xml version="1.0" encoding="utf-8"?>
<!-- Generator: Adobe Illustrator 24.0.0, SVG Export Plug-In . SVG Version: 6.00 Build 0)  -->
<svg version="1.1" id="Слой_1" xmlns="http://www.w3.org/2000/svg" xmlns:xlink="http://www.w3.org/1999/xlink" x="0px" y="0px"
	 viewBox="0 0 116 115" style="enable-background:new 0 0 116 115;" xml:space="preserve">
<style type="text/css">
	.st0{fill:#B9CE76;}
</style>
<g>
	<path class="st0" d="M57.88,18.45c-21.46,0-38.86,17.4-38.86,38.86s17.4,38.86,38.86,38.86s38.86-17.4,38.86-38.86
		S79.34,18.45,57.88,18.45z M82.38,81.82c-6.55,6.55-15.25,10.15-24.51,10.15s-17.96-3.61-24.51-10.15
		c-6.55-6.55-10.15-15.25-10.15-24.51s3.61-17.96,10.15-24.51c6.55-6.55,15.25-10.15,24.51-10.15s17.96,3.61,24.51,10.15
		c6.55,6.55,10.15,15.25,10.15,24.51S88.93,75.27,82.38,81.82z"/>
	<path class="st0" d="M57.97,66.56c5.21,0,9.44-4.22,9.44-9.44c0-5.21-4.22-9.44-9.44-9.44c-5.21,0-9.44,4.22-9.44,9.44
		C48.53,62.34,52.76,66.56,57.97,66.56z M57.97,51.89c2.88,0,5.23,2.35,5.23,5.23c0,2.88-2.35,5.23-5.23,5.23
		c-2.88,0-5.23-2.35-5.23-5.23C52.74,54.24,55.09,51.89,57.97,51.89z"/>
	<path class="st0" d="M115.33,71.33V42.74h-9.2c-0.98-3.22-2.29-6.31-3.87-9.22l6.45-6.45L88.49,6.86l-6.39,6.39
		c-3.07-1.68-6.33-3.06-9.75-4.08V0H43.77v9.05c-3.63,1.06-7.1,2.51-10.34,4.31l-6.31-6.31L6.91,27.27l6.46,6.46
		c-1.53,2.85-2.78,5.86-3.74,9.01H0.38v28.59h8.97c1.02,3.59,2.43,7.01,4.17,10.23L7.1,87.97l20.21,20.21l6.39-6.39
		c3.16,1.73,6.53,3.13,10.06,4.15V115h28.59v-9.17c3.47-1.04,6.79-2.44,9.91-4.17l6.35,6.35l20.21-20.21l-6.47-6.47
		c1.69-3.15,3.06-6.5,4.06-10H115.33z M102.36,70.18c-0.9,3.16-2.15,6.25-3.72,9.16l-1.48,2.75l2.21,2.21l3.5,3.5l-14.27,14.27
		l-3.38-3.38L83,96.46l-2.77,1.53c-2.88,1.59-5.93,2.88-9.08,3.82l-3,0.9v3.13v4.96H47.97v-4.85v-3.16l-3.03-0.88
		c-3.2-0.93-6.3-2.21-9.22-3.81l-2.76-1.51l-2.23,2.23l-3.42,3.42L13.05,87.97l3.45-3.45l2.22-2.22l-1.5-2.76
		c-1.61-2.97-2.9-6.12-3.82-9.37l-0.87-3.05H9.35H4.58V46.94h5.05h3.11l0.91-2.98c0.87-2.85,2.03-5.63,3.43-8.25l1.47-2.75
		l-2.21-2.21l-3.49-3.49L27.12,13l3.34,3.34l2.24,2.24l2.77-1.54c3-1.67,6.19-2.99,9.47-3.95l3.03-0.88V9.05V4.2h20.18v4.96v3.13
		l3,0.9c3.08,0.92,6.08,2.18,8.93,3.74l2.76,1.52l2.23-2.23l3.42-3.42l14.27,14.27l-3.47,3.47l-2.22,2.22l1.49,2.76
		c1.46,2.7,2.66,5.55,3.54,8.44l0.91,2.98h3.11h5v20.18h-4.72h-3.18L102.36,70.18z"/>
	<path class="st0" d="M75.7,43.11c-0.39-6.95-6.2-12.52-13.24-12.52h-9.44c-7.05,0-12.85,5.57-13.24,12.52h-0.96
		c-7.04,0-12.8,5.76-12.8,12.8v2.8c0,7.04,5.76,12.8,12.8,12.8h0.93h0.37h3.83V43.86c0-5,4.06-9.06,9.06-9.06h9.44
		c5,0,9.06,4.06,9.06,9.06v30.97c0,1.78-1.44,3.22-3.22,3.22h-3.08c-0.46-1.82-2.11-3.18-4.07-3.18h-6.17c-2.31,0-4.2,1.89-4.2,4.2
		v2.34c0,2.31,1.89,4.2,4.2,4.2h6.17c2.02,0,3.73-1.45,4.12-3.36h3.03c4.08,0,7.43-3.34,7.43-7.43v-3.32h1.21
		c7.04,0,12.8-5.76,12.8-12.8v-2.8c0-7.04-5.76-12.8-12.8-12.8H75.7z M32.89,64.92c-1.64-1.57-2.66-3.77-2.66-6.21v-2.8
		c0-2.44,1.02-4.64,2.66-6.21V64.92z M38.82,67.31c-0.59,0-1.17-0.06-1.73-0.17V47.49c0.56-0.11,1.14-0.17,1.73-0.17h0.93v19.99
		H38.82z M61.14,81.42l-6.15,0c0,0-0.01-0.01-0.01-0.01c0,0,0,0,0,0l0-2.32c0,0,0.01-0.01,0.01-0.01h6.16c0,0,0,0,0.01,0
		c0,0,0,0,0,0l0,2.32C61.15,81.41,61.14,81.41,61.14,81.42z M82.77,49.61c1.69,1.57,2.76,3.81,2.76,6.3v2.8
		c0,2.49-1.06,4.73-2.76,6.3V49.61z M78.57,67.15c-0.53,0.1-1.08,0.16-1.63,0.16h-1.21V47.32h1.21c0.56,0,1.11,0.06,1.63,0.16V67.15
		z"/>
</g>
</svg>
