<?xml version="1.0" encoding="iso-8859-1"?>
<!-- Generator: Adobe Illustrator 17.0.0, SVG Export Plug-In . SVG Version: 6.00 Build 0)  -->
<!DOCTYPE svg PUBLIC "-//W3C//DTD SVG 1.1//EN" "http://www.w3.org/Graphics/SVG/1.1/DTD/svg11.dtd">
<svg version="1.1" id="&#x421;&#x43B;&#x43E;&#x439;_1"
	 xmlns="http://www.w3.org/2000/svg" xmlns:xlink="http://www.w3.org/1999/xlink" x="0px" y="0px" width="800px" height="115px"
	 viewBox="0 0 800 115" enable-background="new 0 0 800 115" xml:space="preserve">
<g>
	<path fill-rule="evenodd" clip-rule="evenodd" fill="#336882" d="M108.684,81.797L51.793,115.24H0L65.777,1.31h49.172l0.891,1.543
		c20.738,35.92,41.476,71.839,62.215,107.759l2.672,4.628h-52.735L108.684,81.797L108.684,81.797z M67.559,4.395L5.344,112.154
		h45.61l58.848-34.593l19.972,34.593h45.61C153.985,75.091,134.607,41.53,113.168,4.395H67.559L67.559,4.395z M97.991,57.106
		l-7.628-13.211L74.77,70.903L97.991,57.106L97.991,57.106z M93.796,56.009l-3.432-5.945l-7.016,12.153L93.796,56.009z"/>
	<polygon fill-rule="evenodd" clip-rule="evenodd" fill="#B8CC76" points="98.097,57.08 143.658,57.108 113.255,4.328 
		90.445,43.741 	"/>
	<polygon fill-rule="evenodd" clip-rule="evenodd" fill="#439280" points="113.327,4.328 67.562,4.4 90.445,43.813 	"/>
	<polygon fill-rule="evenodd" clip-rule="evenodd" fill="#439280" points="143.704,57.132 98.085,57.019 109.829,77.596 	"/>
	<polygon fill-rule="evenodd" clip-rule="evenodd" fill="#B8CC76" points="109.853,77.634 129.934,112.08 175.362,112.08 
		143.773,57.252 	"/>
	<polygon fill-rule="evenodd" clip-rule="evenodd" fill="#A3D0D9" points="109.778,77.484 98.044,57.026 75.03,70.639 
		51.263,112.08 	"/>
	<polygon fill-rule="evenodd" clip-rule="evenodd" fill="#5093A6" points="51.338,112.005 5.309,112.08 75.03,70.564 	"/>
	<polygon fill-rule="evenodd" clip-rule="evenodd" fill="#7CB4C5" points="5.459,112.005 67.584,4.378 90.448,43.939 74.879,70.94 	
		"/>
</g>
<path fill-rule="evenodd" clip-rule="evenodd" fill="#336882" d="M344.29,115.546c-3.215-7.814-10.317-17.86-19.391-20.298
	c-1.786-0.46-3.845-0.703-6.17-0.703h-7.705v21.002h-13.097V66.083h13.097V84.07h7.705c2.003,0,3.843-0.216,5.494-0.676
	c8.048-2.076,15.619-10.496,18.385-17.311h13.546c-4.153,9.561-12.139,19.186-23.082,22.589v0.162
	c1.84,0.623,3.547,1.409,5.114,2.299c8.574,4.878,16.538,15.744,20.302,24.412H344.29L344.29,115.546z M429.732,100.138
	c-0.112,0.285-0.228,0.567-0.35,0.847c-1.398,3.28-3.518,6.106-6.313,8.479c-2.795,2.374-6.313,4.221-10.53,5.543
	c-4.215,1.324-9.107,1.993-14.645,1.993c-5.415,0-10.13-0.598-14.148-1.757c-4.016-1.16-7.384-2.863-10.054-5.091
	c-2.67-2.229-4.665-4.945-5.988-8.135c-1.323-3.17-1.972-6.794-1.972-10.815c0-3.896,0.698-7.483,2.07-10.744
	c1.397-3.279,3.493-6.104,6.289-8.479c2.795-2.373,6.313-4.204,10.504-5.507c4.191-1.323,9.082-1.975,14.671-1.975
	c5.413,0,10.129,0.58,14.147,1.757c4.017,1.16,7.384,2.862,10.054,5.09c2.695,2.229,4.692,4.947,6.039,8.116
	c0.261,0.619,0.496,1.251,0.705,1.898h-13.85c-0.463-0.657-0.992-1.276-1.583-1.86c-1.522-1.481-3.569-2.636-6.138-3.5
	c-2.594-0.863-5.814-1.294-9.656-1.294c-3.569,0-6.612,0.401-9.181,1.186c-2.545,0.771-4.665,1.881-6.312,3.315
	c-1.672,1.433-2.895,3.129-3.694,5.087c-0.798,1.957-1.196,4.085-1.196,6.413c0,2.22,0.324,4.317,0.971,6.274
	c0.649,1.958,1.747,3.669,3.294,5.118c1.522,1.464,3.594,2.62,6.162,3.483c2.597,0.863,5.815,1.281,9.656,1.281
	c3.519,0,6.562-0.386,9.132-1.172c2.596-0.785,4.717-1.88,6.363-3.298c0.813-0.683,1.52-1.435,2.121-2.253H429.732L429.732,100.138z
	 M800.069,115.475L766.99,57.25h-15.544l-33.078,58.224l14.853-0.008l40.885-20.382l11.584,20.391H800.069L800.069,115.475z
	 M742.681,97.99l16.538-29.11l9.146,16.1L742.681,97.99L742.681,97.99z M286.15,115.475L253.071,57.25h-15.544l-33.078,58.224
	l14.853-0.008l40.885-20.382l11.584,20.391H286.15L286.15,115.475z M228.762,97.99l16.538-29.11l9.146,16.1L228.762,97.99
	L228.762,97.99z M626.847,115.546l7.179-39.521l20.272,39.521c5.841,0,3.836,0,8.755,0l20.272-39.521l7.178,39.521h12.723
	l-8.985-49.463c-6.624,0-13.247,0-19.871,0l-15.694,30.596l-15.695-30.596c-6.624,0-13.247,0-19.871,0l-8.985,49.463H626.847
	L626.847,115.546z M599.689,90.242c0,3.894-0.757,7.482-2.297,10.743c-1.514,3.28-3.81,6.106-6.836,8.479
	c-3.028,2.373-6.838,4.221-11.404,5.543c-4.566,1.323-9.864,1.993-15.861,1.993c-5.864,0-10.972-0.597-15.322-1.757
	c-4.35-1.161-7.997-2.863-10.889-5.091c-2.892-2.229-5.052-4.945-6.485-8.134c-1.433-3.171-2.135-6.794-2.135-10.817
	c0-3.895,0.756-7.482,2.242-10.743c1.513-3.279,3.782-6.104,6.811-8.479c3.026-2.372,6.836-4.204,11.376-5.507
	c4.538-1.323,9.835-1.975,15.888-1.975c5.862,0,10.97,0.58,15.321,1.757c4.35,1.16,7.998,2.862,10.889,5.091
	c2.918,2.227,5.08,4.946,6.54,8.116C598.986,82.651,599.689,86.238,599.689,90.242L599.689,90.242z M586.17,90.874
	c0-2.189-0.377-4.269-1.079-6.228c-0.703-1.957-1.892-3.669-3.513-5.148c-1.648-1.481-3.865-2.636-6.647-3.499
	c-2.81-0.863-6.296-1.295-10.458-1.295c-3.865,0-7.161,0.4-9.943,1.186c-2.757,0.771-5.052,1.881-6.836,3.315
	c-1.811,1.433-3.135,3.13-4,5.087c-0.865,1.957-1.296,4.085-1.296,6.413c0,2.22,0.351,4.317,1.052,6.274
	c0.703,1.959,1.892,3.669,3.568,5.118c1.648,1.464,3.892,2.621,6.673,3.484c2.813,0.863,6.297,1.28,10.458,1.28
	c3.811,0,7.107-0.386,9.89-1.172c2.811-0.785,5.108-1.88,6.89-3.299c1.81-1.403,3.134-3.098,3.973-5.056
	C585.738,95.376,586.17,93.234,586.17,90.874L586.17,90.874z M509.412,66.083v49.463h-13.226V81.046l-37.158,34.5l-0.035-0.001
	h-13.227V66.083h13.227v34.611l37.133-34.563l0.06-0.048H509.412z"/>
</svg>
