<?xml version="1.0" encoding="utf-8"?>
<!-- Generator: Adobe Illustrator 24.0.0, SVG Export Plug-In . SVG Version: 6.00 Build 0)  -->
<svg version="1.1" id="Слой_1" xmlns="http://www.w3.org/2000/svg" xmlns:xlink="http://www.w3.org/1999/xlink" x="0px" y="0px"
	 viewBox="0 0 30 30" style="enable-background:new 0 0 30 30;" xml:space="preserve">
<style type="text/css">
	.st0{fill:#3D3D3D;}
</style>
<g>
	<path class="st0" d="M0.5,0.5V24v5.5h13V24V0.5H0.5z M12.5,28.5h-11V25h11V28.5z M1.5,24V1.5H3V2h8V1.5h1.5V24H1.5z"/>
	<path class="st0" d="M2,3v6h10V3H2z M11,8H3V4h8V8z"/>
	<path class="st0" d="M2,16h10v-6H2V16z M3,11h8v4H3V11z"/>
	<path class="st0" d="M2,23h10v-6H2V23z M3,18h8v4H3V18z"/>
</g>
<g>
	<path class="st0" d="M16.5,0.5V24v5.5h13V24V0.5H16.5z M28.5,28.5h-11V25h11V28.5z M17.5,24V1.5H19V2h8V1.5h1.5V24H17.5z"/>
	<path class="st0" d="M18,3v20h10V3H18z M27,22h-8V4h8V22z"/>
</g>
</svg>
