<?xml version="1.0" encoding="utf-8"?>
<!-- Generator: Adobe Illustrator 24.1.3, SVG Export Plug-In . SVG Version: 6.00 Build 0)  -->
<svg version="1.1" id="Слой_1" xmlns="http://www.w3.org/2000/svg" xmlns:xlink="http://www.w3.org/1999/xlink" x="0px" y="0px"
	 viewBox="0 0 20 20" style="enable-background:new 0 0 20 20;" xml:space="preserve">
<style type="text/css">
	.st0{fill:#B7CB76;}
</style>
<g>
	<path class="st0" d="M15.4,18.5h-3v-7.3c0,0,0,0,0.1,0c0.3,0.3,0.6,0.6,0.9,0.9c0.3,0.3,0.8,0.5,1.2,0.4c0.9-0.2,1.3-1.3,0.7-2
		c-1.1-1.3-2.4-2.5-3.5-3.7c-0.3-0.3-0.7-0.4-1.1-0.4c-0.6,0-1.1,0-1.7,0C8.6,6.3,8.3,6.4,8,6.7C7.7,7.1,7.3,7.5,6.9,7.9
		c-0.7,0.8-1.5,1.6-2.2,2.5c-0.5,0.5-0.5,1.3,0,1.8c0.5,0.5,1.3,0.5,1.8,0c0.2-0.2,0.5-0.5,0.7-0.7c0.1,0,0.1,0,0.1,0v7.1H4.6
		c-0.2,0-0.3,0.1-0.3,0.3l0,0c0,0.2,0.1,0.3,0.3,0.3c1.8,0,3.6,0,5.4,0c1.8,0,3.6,0,5.4,0c0.2,0,0.3-0.1,0.3-0.3l0,0
		C15.7,18.7,15.6,18.5,15.4,18.5z M10.2,18.5H9.5v-4h0.6V18.5z M12,10.1c-0.1,0.1-0.2,0.3-0.2,0.4c0,1.2,0,2.5,0,3.7
		c0,1.2,0,2.5,0,3.7c0,0.3-0.1,0.5-0.4,0.6c-0.4,0.1-0.6-0.1-0.6-0.5c0-0.9,0-1.9,0-2.8c0-0.3,0-0.6,0-0.9c0-0.3-0.2-0.4-0.6-0.4
		c-0.2,0-0.4,0-0.6,0c-0.5-0.1-0.6,0.1-0.6,0.4c0,1.2,0,2.4,0,3.6c0,0.4-0.1,0.6-0.4,0.6c-0.4,0.1-0.6-0.2-0.6-0.6
		c0-0.6,0-1.2,0-1.8c0-1.8,0-3.6,0-5.4c0-0.2-0.1-0.4-0.2-0.5c-0.2-0.1-0.3,0.1-0.5,0.2c-0.4,0.4-0.7,0.7-1.1,1.1
		c-0.3,0.3-0.7,0.3-1,0.1c-0.3-0.3-0.3-0.7,0-1c1-1.1,2-2.2,3-3.3c0.3-0.3,0.6-0.5,1-0.5c0.5,0,1,0,1.5,0c0.2,0,0.4,0.1,0.6,0.2
		C12.2,8,13,8.9,13.9,9.7c0.3,0.3,0.6,0.6,0.9,1c0.3,0.3,0.3,0.7,0,1c-0.3,0.3-0.7,0.2-1-0.1c-0.4-0.4-0.9-0.9-1.3-1.3
		C12.4,10.2,12.1,10.1,12,10.1z"/>
	<path class="st0" d="M7.6,3.2c0-1.3,1.1-2.4,2.4-2.4c1.3,0,2.4,1.1,2.4,2.4c0,1.3-1.1,2.4-2.4,2.4C8.7,5.6,7.6,4.5,7.6,3.2z
		 M11.7,3.2c0-1-0.8-1.8-1.8-1.8c-1,0-1.7,0.8-1.7,1.7C8.2,4.2,9,5,10,5C11,5,11.7,4.2,11.7,3.2z"/>
	<path class="st0" d="M1.7,2C0.8,2,0,2.8,0,3.8v14.6c0,0.4,0.3,0.7,0.7,0.7h2c0.4,0,0.7-0.3,0.7-0.7V3.8C3.5,2.8,2.7,2,1.7,2z
		 M1.7,2.6c0.6,0,1.2,0.5,1.2,1.2v2H0.6v-2C0.6,3.2,1.1,2.6,1.7,2.6z M2.8,18.6h-2c-0.1,0-0.1-0.1-0.1-0.1v-12h2.3v12
		C2.9,18.5,2.8,18.6,2.8,18.6z"/>
	<path class="st0" d="M18.3,2c-1,0-1.7,0.8-1.7,1.7v14.6c0,0.4,0.3,0.7,0.7,0.7h2c0.4,0,0.7-0.3,0.7-0.7V3.8C20,2.8,19.2,2,18.3,2z
		 M18.3,2.6c0.6,0,1.2,0.5,1.2,1.2v2h-2.3v-2C17.1,3.2,17.6,2.6,18.3,2.6z M19.3,18.6h-2c-0.1,0-0.1-0.1-0.1-0.1v-12h2.3v12
		C19.4,18.5,19.3,18.6,19.3,18.6z"/>
</g>
</svg>
