<?xml version="1.0" encoding="utf-8"?>
<!-- Generator: Adobe Illustrator 24.1.3, SVG Export Plug-In . SVG Version: 6.00 Build 0)  -->
<svg version="1.1" id="Слой_1" xmlns="http://www.w3.org/2000/svg" xmlns:xlink="http://www.w3.org/1999/xlink" x="0px" y="0px"
	 viewBox="0 0 30 30" style="enable-background:new 0 0 30 30;" xml:space="preserve">
<style type="text/css">
	.st0{fill:#3D3D3D;}
</style>
<path class="st0" d="M27,23h-1v-9h1c1.103,0,2-0.897,2-2s-0.897-2-2-2h-1V2h-1v8h-4V4h-2V2h-2h-1h-2v1h-2v1h-1h-1H8v6H4V2H3v8H2
	c-1.103,0-2,0.897-2,2s0.897,2,2,2h1v9H2c-1.103,0-2,0.897-2,2s0.897,2,2,2h1v3h1v-3h1v-1H4v-2h4h2h1h1h1h1h1h1h1h1h1h2h4v2H12v1h13
	v3h1v-3h1c1.103,0,2-0.897,2-2S28.103,23,27,23z M27,11c0.552,0,1,0.449,1,1s-0.448,1-1,1h-1v-2H27z M20,5v5h-1V5H20z M17,3h1v1v6
	h-1V3z M16,3v7h-1V3H16z M14,4v6h-1V4H14z M11,5h1v5h-1V5z M9,5h1v5H9V5z M2,13c-0.551,0-1-0.449-1-1s0.449-1,1-1h1v2H2z M3,26H2
	c-0.552,0-1-0.449-1-1s0.448-1,1-1h1V26z M9,23v-6h1v6H9z M11,23v-5h1v5H11z M13,23v-6h1v6H13z M15,23v-6h1v1v5H15z M17,23v-4h1v4
	H17z M19,23v-5h1v5H19z M21,23v-6h-3v1h-1v-2h-2h-1h-2v1h-1v-1H8v7H4v-9h13v-1H4v-2h4h2h1h1h1h1h1h1h1h1h1h2h4v2h-1v1h1v9H21z
	 M27,26h-1v-2h1c0.551,0,1,0.449,1,1S27.551,26,27,26z"/>
</svg>
