<?xml version="1.0" encoding="utf-8"?>
<!-- Generator: Adobe Illustrator 24.1.3, SVG Export Plug-In . SVG Version: 6.00 Build 0)  -->
<svg version="1.1" id="Слой_1" xmlns="http://www.w3.org/2000/svg" xmlns:xlink="http://www.w3.org/1999/xlink" x="0px" y="0px"
	 viewBox="0 0 20 20" style="enable-background:new 0 0 20 20;" xml:space="preserve">
<style type="text/css">
	.st0{fill:#B7CB76;}
</style>
<g>
	<path class="st0" d="M15.2,12.2c0-3.3,0-6.5,0-9.8c0-1.4-0.9-2.4-2.3-2.4C11,0,9.1,0,7.1,0C5.7,0,4.8,0.9,4.8,2.4
		c0,2.1,0,4.2,0,6.3c0,1.1,0,2.3,0,3.4c0,0,0,0,0,0c0,1.9,0,3.7,0,5.6c0,1.4,0.9,2.4,2.3,2.4c1.9,0,3.8,0,5.8,0
		c1.4,0,2.3-0.9,2.3-2.4C15.2,15.8,15.2,14,15.2,12.2L15.2,12.2z M7.1,0.9c1.9,0,3.9,0,5.8,0c0.9,0,1.4,0.5,1.4,1.4
		c0,2.1,0,4.3,0,6.4c0,2.1,0,4.2,0,6.4c0,0.9-0.5,1.4-1.4,1.4c-1.9,0-3.9,0-5.8,0c-0.9,0-1.4-0.5-1.4-1.4c0-4.3,0-8.5,0-12.8
		C5.7,1.4,6.2,0.9,7.1,0.9z M12.9,19.1c-1.9,0-3.9,0-5.8,0c-0.9,0-1.4-0.5-1.4-1.4c0-0.2,0-0.5,0-0.7c0.4,0.3,0.9,0.4,1.5,0.4
		c1.9,0,3.8,0,5.8,0c0.6,0,1.1-0.2,1.5-0.4c0,0.2,0,0.5,0,0.7C14.3,18.6,13.8,19.1,12.9,19.1z"/>
	<path class="st0" d="M7.8,8.2c0.1,0,0.1-0.1,0.2-0.1c0.6-0.4,1.3-0.7,2.1-0.7c0.7,0,1.4,0.2,2.1,0.7c0.3,0.2,0.5,0.2,0.7,0
		c0.1-0.2,0.1-0.5-0.2-0.7c-1-0.8-2.2-1-3.5-0.8C8.5,6.7,7.8,7,7.3,7.5C7.1,7.6,7.1,7.9,7.2,8.1C7.3,8.3,7.6,8.3,7.8,8.2z"/>
	<path class="st0" d="M11.5,9.4c0.2-0.2,0.1-0.5-0.1-0.7C11,8.4,10.5,8.3,10,8.3c-0.5,0-1,0.2-1.4,0.5C8.4,8.9,8.3,9.2,8.5,9.4
		c0.2,0.2,0.4,0.2,0.7,0c0.6-0.4,1.1-0.4,1.7,0C11.1,9.6,11.3,9.6,11.5,9.4z"/>
	<path class="st0" d="M11.2,14.8c-0.4,0-0.8,0-1.2,0c-0.4,0-0.8,0-1.3,0c-0.3,0-0.5,0.2-0.5,0.4c0,0.3,0.2,0.4,0.5,0.4
		c0.8,0,1.7,0,2.5,0c0.3,0,0.5-0.2,0.5-0.4C11.7,15,11.6,14.8,11.2,14.8z"/>
	<path class="st0" d="M9.6,10.4c0,0.3,0.2,0.5,0.4,0.5c0.2,0,0.4-0.2,0.4-0.4c0-0.2-0.2-0.4-0.4-0.4C9.8,10,9.6,10.2,9.6,10.4z"/>
	<path class="st0" d="M10,2.6c0.2,0,0.4-0.2,0.4-0.4c0-0.2-0.2-0.4-0.4-0.4c-0.2,0-0.4,0.2-0.4,0.4C9.6,2.4,9.7,2.6,10,2.6z"/>
</g>
</svg>
