<?xml version="1.0" encoding="utf-8"?>
<!-- Generator: Adobe Illustrator 24.1.3, SVG Export Plug-In . SVG Version: 6.00 Build 0)  -->
<svg version="1.1" id="Слой_1" xmlns="http://www.w3.org/2000/svg" xmlns:xlink="http://www.w3.org/1999/xlink" x="0px" y="0px"
	 viewBox="0 0 30 30" style="enable-background:new 0 0 30 30;" xml:space="preserve">
<style type="text/css">
	.st0{fill:#3D3D3D;}
</style>
<g>
	<g>
		<path class="st0" d="M12.167,6v6h-6V6H12.167 M13.167,5h-8v8h8V5L13.167,5z"/>
		<path class="st0" d="M24.167,6v6h-6V6H24.167 M25.167,5h-8v8h8V5L25.167,5z"/>
		<path class="st0" d="M12.167,18v6h-6v-6H12.167 M13.167,17h-8v8h8V17L13.167,17z"/>
		<path class="st0" d="M20.167,18v2h-2v-2H20.167 M21.167,17h-4v4h4V17L21.167,17z"/>
		<path class="st0" d="M24.167,22v2h-2v-2H24.167 M25.167,21h-4v4h4V21L25.167,21z"/>
		<polygon class="st0" points="15.333,5 14.333,5 14.333,13 15.333,13 15.333,5 		"/>
		<polygon class="st0" points="15.333,17 14.333,17 14.333,25 15.333,25 15.333,17 		"/>
		<polygon class="st0" points="13.167,15 5.167,15 5.167,16 13.167,16 13.167,15 		"/>
		<polygon class="st0" points="25.167,15 17.167,15 17.167,16 25.167,16 25.167,15 		"/>
	</g>
	<g>
		<polygon class="st0" points="2.083,8 2.083,2 8.083,2 8.083,1 1.083,1 1.083,8 		"/>
		<polygon class="st0" points="2.083,22 1.083,22 1.083,29 8.083,29 8.083,28 2.083,28 		"/>
	</g>
	<g>
		<polygon class="st0" points="28.083,8 29.083,8 29.083,1 22.083,1 22.083,2 28.083,2 		"/>
		<polygon class="st0" points="28.083,22 28.083,28 22.083,28 22.083,29 29.083,29 29.083,22 		"/>
	</g>
</g>
</svg>
