<?xml version="1.0" encoding="utf-8"?>
<!-- Generator: Adobe Illustrator 24.1.3, SVG Export Plug-In . SVG Version: 6.00 Build 0)  -->
<svg version="1.1" id="Слой_1" xmlns="http://www.w3.org/2000/svg" xmlns:xlink="http://www.w3.org/1999/xlink" x="0px" y="0px"
	 viewBox="0 0 20 20" style="enable-background:new 0 0 20 20;" xml:space="preserve">
<style type="text/css">
	.st0{fill:#B7CB76;}
</style>
<g>
	<path class="st0" d="M6.8,1.9c0.2,0,0.4,0,0.7,0c0,0.9,0,1.7,0,2.6c0.4,0,0.8,0,1.3,0c0-0.9,0-1.7,0-2.6c0.2,0,0.4,0,0.7,0
		c0,0.8,0,1.7,0,2.5c0.4,0,0.8,0,1.3,0c0-0.8,0-1.7,0-2.6c0.2,0,0.4,0,0.7,0c0,0.9,0,1.7,0,2.6c0.4,0,0.8,0,1.3,0c0-0.8,0-1.7,0-2.6
		c0.2,0,0.4,0,0.7,0c0,0.1,0,0.2,0,0.2c0,0.8,0,1.7,0,2.5c0,0.1,0.1,0.2,0.1,0.3c0.4,0.4,0.6,0.8,0.6,1.3c0,0.4,0,0.9,0,1.3
		c0,0.5-0.2,1-0.5,1.3c-0.6,0.5-0.8,1.1-0.7,1.8c0,1.7,0,3.4,0,5c0,1.5-0.8,2.7-2.3,2.9c0,0.3,0,0.6,0,0.9c0,0.2-0.1,0.3-0.2,0.4
		c-0.2,0.1-0.4-0.1-0.4-0.3c0-0.3,0-0.6,0-0.9c-0.2-0.1-0.5-0.1-0.7-0.2c-1-0.4-1.7-1.4-1.7-2.5c0-1.9,0-3.9,0-5.8
		c0-0.4-0.1-0.8-0.4-1C6.5,8.9,6.2,8.5,6.1,8c0-0.7,0-1.4,0-2.1c0-0.4,0.3-0.7,0.5-0.9c0.1-0.1,0.1-0.2,0.1-0.3c0-0.8,0-1.7,0-2.5
		C6.8,2.1,6.8,2,6.8,1.9z M8,16c1.3,0,2.7,0,4,0c0-0.1,0-0.2,0-0.3c0-1.8,0-3.6,0-5.5c0-0.6,0.2-1.1,0.6-1.5
		c0.1-0.1,0.2-0.2,0.3-0.3c0.3-0.2,0.4-0.5,0.4-0.9c0-0.4,0-0.8,0-1.2c0-0.7-0.5-1.2-1.2-1.2c-1.4,0-2.8,0-4.2,0
		c-0.7,0-1.2,0.5-1.2,1.2c0,0.3,0,0.6,0,0.9C6.7,7.8,6.9,8.3,7.3,8.7C7.8,9.1,8,9.7,8,10.3c0,1.8,0,3.6,0,5.4C8,15.8,8,15.9,8,16z
		 M8.1,16.7c0.2,0.9,1.1,1.5,2,1.4c0.8-0.1,1.6-0.7,1.7-1.4C10.6,16.7,9.4,16.7,8.1,16.7z"/>
	<path class="st0" d="M3.6,0.7c0,0.5,0,0.9,0,1.4c0,0.1,0,0.2,0,0.2c0,0.2-0.1,0.3-0.3,0.3C3.1,2.6,3,2.5,2.9,2.4c0-0.1,0-0.1,0-0.2
		c0-0.6,0-1.1,0-1.7C2.9,0.1,3,0,3.3,0c0.6,0,1.2,0,1.8,0c0.3,0,0.4,0.1,0.4,0.3c0,0.2-0.1,0.3-0.4,0.3C4.6,0.7,4.1,0.7,3.6,0.7z"/>
	<path class="st0" d="M16.4,0.7c-0.5,0-1,0-1.4,0c-0.4,0-0.5-0.1-0.5-0.3C14.5,0.1,14.7,0,15,0c0.6,0,1.1,0,1.7,0
		c0.3,0,0.4,0.1,0.4,0.4c0,0.6,0,1.2,0,1.8c0,0.3-0.1,0.4-0.3,0.4c-0.2,0-0.3-0.2-0.3-0.4C16.4,1.7,16.4,1.2,16.4,0.7z"/>
	<path class="st0" d="M3.6,7C4,7,4.5,7,4.9,7C5,7,5.1,7,5.2,7c0.2,0,0.3,0.2,0.3,0.3c0,0.2-0.1,0.3-0.3,0.3c-0.4,0-0.9,0-1.3,0
		c-0.2,0-0.4,0-0.6,0C3,7.6,2.9,7.5,2.9,7.2c0-0.6,0-1.2,0-1.9C2.9,5.2,3.1,5,3.3,5c0.2,0,0.3,0.1,0.3,0.4C3.6,5.9,3.6,6.4,3.6,7z"
		/>
	<path class="st0" d="M16.4,7c0-0.5,0-1,0-1.5c0-0.1,0.1-0.3,0.2-0.3c0.2-0.1,0.5,0,0.5,0.3c0,0.6,0,1.3,0,1.9
		c0,0.2-0.1,0.3-0.4,0.3c-0.6,0-1.3,0-1.9,0c-0.2,0-0.3-0.1-0.3-0.3c0-0.2,0.1-0.3,0.4-0.3c0.4,0,0.9,0,1.3,0C16.2,7,16.3,7,16.4,7z
		"/>
	<path class="st0" d="M4.8,1.9c0.2,0,0.4,0,0.6,0c0,1.2,0,2.5,0,3.7c-0.2,0-0.4,0-0.6,0C4.8,4.4,4.8,3.2,4.8,1.9z"/>
	<path class="st0" d="M15.2,5.7c-0.2,0-0.4,0-0.6,0c0-1.2,0-2.5,0-3.7c0.2,0,0.4,0,0.6,0C15.2,3.2,15.2,4.4,15.2,5.7z"/>
	<path class="st0" d="M10,8.6c-0.4,0-0.7,0-1.1,0c-0.5,0-0.7-0.3-0.7-0.7c0-0.3,0-0.7,0-1c0-0.4,0.3-0.6,0.7-0.6c0.8,0,1.5,0,2.3,0
		c0.4,0,0.6,0.3,0.6,0.6c0,0.4,0,0.7,0,1.1c0,0.4-0.3,0.6-0.7,0.6C10.8,8.6,10.4,8.6,10,8.6z M8.9,7.9c0.8,0,1.5,0,2.3,0
		c0-0.3,0-0.7,0-1c-0.8,0-1.5,0-2.3,0C8.9,7.2,8.9,7.5,8.9,7.9z"/>
</g>
</svg>
