<?xml version="1.0" encoding="utf-8"?>
<!-- Generator: Adobe Illustrator 24.1.3, SVG Export Plug-In . SVG Version: 6.00 Build 0)  -->
<svg version="1.1" id="Слой_1" xmlns="http://www.w3.org/2000/svg" xmlns:xlink="http://www.w3.org/1999/xlink" x="0px" y="0px"
	 viewBox="0 0 30 30" style="enable-background:new 0 0 30 30;" xml:space="preserve">
<style type="text/css">
	.st0{fill:#3D3D3D;}
</style>
<g>
	<path class="st0" d="M21.07,11.948h-7.088c1.732,4.045,3.443,8.04,5.178,12.093c-0.29,0.135-0.56,0.26-0.884,0.41
		c-1.273-2.965-2.531-5.894-3.792-8.831c-1.101,0.804-2.06,0.788-2.734-0.045c-0.168-0.207-0.283-0.465-0.389-0.714
		c-0.403-0.948-0.804-1.898-1.165-2.862c-0.03-0.079-0.105-0.128-0.189-0.124c-0.848,0.041-1.698,0-2.547,0.025
		c-0.342,0.01-0.56-0.081-0.633-0.433c-0.073-0.353-0.306-0.465-0.642-0.412c-0.018,0.003-0.036,0.001-0.055,0
		c-0.668-0.021-1.495,0.19-1.961-0.127c-0.469-0.32-3.756-8.815-3.85-9.065c0.827,0,1.614,0,2.478,0C2.695,1.544,2.621,1.313,2.52,1
		c0.255,0,12.436,0,18.318,0c3.03,0,5.294,1.953,5.667,4.886c0.338,2.66-1.486,5.155-4.298,5.878
		c-0.034,0.009-0.063,0.034-0.148,0.081c0.282,1.213,3.199,13.583,4.161,17.653c0.065,0.275-0.115,0.495-0.398,0.495
		c-2.3-0.001-4.6,0.019-6.899-0.008c-0.578-0.007-1.152-0.225-1.539-0.654c-0.837-0.929-0.951-1.931-0.36-2.842
		c0.431-0.664,1.059-1.082,1.85-1.108c1.528-0.051,5.013-0.053,5.324-0.053C23.146,20.827,22.113,16.411,21.07,11.948z M4.001,1.986
		c0.822,1.965,1.606,3.857,2.414,5.737c0.047,0.108,0.288,0.188,0.439,0.188c4.458,0.004,8.916,0.02,13.374-0.02
		c2.199-0.02,4.134-1.927,4.219-4.114c0.005-0.13-0.07-0.321-0.16-0.415c-0.868-0.91-1.933-1.38-3.194-1.379
		C15.598,1.989,4.256,1.986,4.001,1.986z M25.285,5.008C25.226,5.1,25.19,5.141,25.171,5.189c-0.962,2.428-2.824,3.699-5.42,3.699
		c-4.096,0-8.191,0-12.287,0c-0.19,0-0.38,0-0.641,0c0.282,0.685,0.547,1.247,0.734,1.858c0.03,0.099,0.119,0.168,0.223,0.167
		c4.44-0.013,8.88,0.021,13.319-0.018C24.173,10.869,26.28,7.9,25.285,5.008z M25.082,29.004c-0.101-0.424-0.177-0.778-0.27-1.127
		c-0.134-0.504-0.132-1.198-0.464-1.455c-0.336-0.26-1.007-0.103-1.532-0.102c-1.291,0.003-2.584-0.016-3.872,0.048
		c-0.787,0.039-1.303,0.661-1.278,1.363c0.024,0.661,0.598,1.255,1.335,1.264C21,29.021,23,29.004,25.082,29.004z M1.78,2.828
		c0,0,1.753,4.27,2.514,6.097c0.497,1.194,0.499,1.193,1.786,1.132c0.028-0.001,0.055-0.033,0.084-0.051
		C6.166,9.972,6.18,9.932,6.168,9.903C5.2,7.557,3.252,2.872,3.252,2.872L1.78,2.828z M11.198,11.896
		c0.427,1.023,0.807,1.977,1.223,2.914c0.18,0.406,0.546,0.517,0.96,0.372c0.387-0.136,0.57-0.564,0.409-0.985
		c-0.288-0.756-0.596-1.505-0.934-2.24c-0.004-0.009-0.015-0.017-0.025-0.018C12.317,11.862,11.817,11.896,11.198,11.896z"/>
	<path class="st0" d="M20.245,2.967c0.929,0.01,1.645,0.738,1.646,1.674c0.001,0.954-0.746,1.692-1.7,1.679
		c-0.919-0.013-1.653-0.758-1.652-1.678C18.539,3.697,19.293,2.957,20.245,2.967z M20.179,5.331c0.465-0.007,0.696-0.26,0.747-0.661
		c0.048-0.374-0.321-0.724-0.718-0.713c-0.438,0.012-0.669,0.262-0.675,0.683C19.527,5.072,19.791,5.286,20.179,5.331z"/>
</g>
</svg>
