<?xml version="1.0" encoding="utf-8"?>
<!-- Generator: Adobe Illustrator 24.1.3, SVG Export Plug-In . SVG Version: 6.00 Build 0)  -->
<svg version="1.1" id="Слой_1" xmlns="http://www.w3.org/2000/svg" xmlns:xlink="http://www.w3.org/1999/xlink" x="0px" y="0px"
	 viewBox="0 0 30 30" style="enable-background:new 0 0 30 30;" xml:space="preserve">
<style type="text/css">
	.st0{fill:#3D3D3D;}
</style>
<g>
	<path class="st0" d="M26.653,6.179c-0.091-0.999-0.821-1.822-1.801-2.032l-10.21-2.188c-0.244-0.052-0.489-0.078-0.732-0.078
		c-1.064,0-2.086,0.487-2.755,1.348L6.221,9.573C5.754,10.174,5.5,10.913,5.5,11.675V13.5v0.308v0.517v2.87
		c-0.458,0.768-0.883,1.537-1.16,2.305C3.56,21.667,3.78,23.833,3,26c3.333,1,6.667,2,10,3c0.625-2.033,0.416-4.066,0.904-6.099
		L19,24.357l0.5,0.143L20,24l6.5-6.5L27,10L26.653,6.179z M6.5,14.588l0.453,0.12C6.81,14.982,6.66,15.256,6.5,15.53V14.588z
		 M13.231,21.669c-0.048,0.134-0.103,0.266-0.144,0.4c-0.058,0.187-0.098,0.372-0.143,0.557c-0.248,1.015-0.34,2.009-0.419,2.974
		c-0.06,0.737-0.118,1.445-0.246,2.139l-3.991-1.197L4.245,25.33c0.208-0.834,0.313-1.653,0.417-2.451
		c0.137-1.059,0.266-2.059,0.619-3.039c0.062-0.173,0.141-0.348,0.219-0.523c0.268-0.598,0.618-1.21,1-1.842
		c0.091-0.15,0.18-0.299,0.274-0.452c0.408-0.669,0.814-1.355,1.165-2.053l7.596,2.003c-0.265,0.564-0.568,1.138-0.892,1.733
		C14.121,19.664,13.594,20.654,13.231,21.669z M19,23.317l-4.806-1.373c0.575-1.571,1.608-3.142,2.323-4.714L19,17.885V23.317z
		 M19.721,12.573C19.254,13.174,19,13.913,19,14.675v2.177l-2.107-0.556L7.38,13.787L6.5,13.554V13.5v-1.825
		c0-0.536,0.181-1.065,0.51-1.488l4.934-6.344c0.475-0.611,1.192-0.962,1.966-0.962c0.175,0,0.351,0.019,0.522,0.055l10.21,2.188
		c0.248,0.053,0.459,0.182,0.629,0.35l-0.616,0.755L19.721,12.573z M25.527,17.059L20,22.586v-4.879l0.904-0.904
		c0.005-0.002,0.011-0.004,0.016-0.006l-0.008-0.002l4.964-4.964L25.527,17.059z M25.977,10.316L20,16.293v-1.618
		c0-0.536,0.181-1.065,0.51-1.488l4.934-6.344l0.239-0.283l0.314,3.452L25.977,10.316z"/>
	<polygon class="st0" points="8,12.984 10,13.511 10,12.477 8,11.95 	"/>
	<polygon class="st0" points="11,13.775 13,14.303 13,13.269 11,12.741 	"/>
	<polygon class="st0" points="14,14.566 15,14.83 15,13.796 14,13.532 	"/>
</g>
</svg>
