<?xml version="1.0" encoding="utf-8"?>
<!-- Generator: Adobe Illustrator 24.1.3, SVG Export Plug-In . SVG Version: 6.00 Build 0)  -->
<svg version="1.1" id="Слой_1" xmlns="http://www.w3.org/2000/svg" xmlns:xlink="http://www.w3.org/1999/xlink" x="0px" y="0px"
	 viewBox="0 0 20 20" style="enable-background:new 0 0 20 20;" xml:space="preserve">
<style type="text/css">
	.st0{fill:#B7CB76;}
</style>
<g>
	<path class="st0" d="M20,10.8c0-0.7-0.4-1.2-1.2-1.2c-0.7,0-1.4,0-2.1,0c-0.1,0-0.2,0-0.3,0V8.6c0.1,0,0.2,0,0.3,0
		c0.6,0,1.2,0,1.8,0c0.7,0,1.1-0.5,1.1-1.1c0-0.4,0-0.9,0-1.3c0-0.7-0.4-1.2-1.2-1.2c-2.3,0-4.6,0-7,0c-0.7,0-1.2,0.4-1.2,1.2
		c0,0.4,0,0.8,0,1.3c0,0.7,0.4,1.2,1.2,1.2c0.6,0,1.2,0,1.8,0c0.1,0,0.2,0,0.2,0v1.1h-0.2c-1.1,0-2.2,0-3.3,0
		c-0.4,0-0.5-0.1-0.5-0.5c0-1,0-2,0-3C9.6,5.4,9.2,5,8.5,5C8.3,5,8.1,5,7.9,5V3.9h0.3c0.7,0,1.4,0,2.1,0c0.4,0,0.5-0.1,0.5-0.6
		c-0.1-1.1-1-1.9-2.2-1.9c-1.5,0-3.1,0-4.6,0c-1.3,0-2.2,0.9-2.2,2.2c0,0.4,0,0.9,0,1.3C1.6,5,1.4,5,1.2,5C0.4,5,0,5.4,0,6.2
		c0,3.5,0,7,0,10.5c0,1.1,0.7,1.9,1.9,1.9c5.4,0,10.8,0,16.3,0c1.1,0,1.9-0.8,1.9-1.9C20,14.7,20,12.8,20,10.8z M11.6,7.9
		c-0.4,0-0.5-0.1-0.5-0.5c0-0.4,0-0.8,0-1.2c0-0.3,0.1-0.4,0.4-0.4c2.3,0,4.6,0,7,0c0.3,0,0.4,0.1,0.5,0.5c0,0.4,0,0.8,0,1.2
		c0,0.3-0.1,0.5-0.5,0.5c-1.2,0-2.3,0-3.5,0C13.8,7.9,12.7,7.9,11.6,7.9z M15.7,8.6v1h-1.4v-1H15.7z M5.7,2.1c0.9,0,1.9,0,2.8,0
		c0.7,0,1.3,0.5,1.4,1.1H9.7c-1.1,0-2.3,0-3.4,0C6.1,3.2,6,3.2,6,3C5.9,2.7,5.7,2.4,5.6,2.2C5.6,2.2,5.7,2.1,5.7,2.1z M2.5,3.3
		C2.6,2.6,3.3,2.1,4,2.1c0.7,0,1.3,0.6,1.4,1.3c0.1,0.4,0.1,0.5,0.5,0.5c0.4,0,0.8,0,1.2,0V5H2.5C2.5,4.4,2.5,3.8,2.5,3.3z
		 M19.3,16.6c0,0.8-0.4,1.2-1.3,1.2c-5.4,0-10.7,0-16.1,0c-0.8,0-1.2-0.4-1.2-1.2c0-3.5,0-6.9,0-10.4c0-0.4,0.1-0.5,0.5-0.5
		c2.4,0,4.8,0,7.1,0c0.4,0,0.5,0.1,0.5,0.5c0,1,0,1.9,0,2.9c0,0.8,0.4,1.2,1.2,1.2c0,0,8.5,0,8.9,0c0.2,0,0.3,0.1,0.3,0.3
		c0,0.1,0,0.1,0,0.2C19.3,12.8,19.3,14.7,19.3,16.6z"/>
</g>
</svg>
