<?xml version="1.0" encoding="utf-8"?>
<!-- Generator: Adobe Illustrator 24.1.3, SVG Export Plug-In . SVG Version: 6.00 Build 0)  -->
<svg version="1.1" id="Слой_1" xmlns="http://www.w3.org/2000/svg" xmlns:xlink="http://www.w3.org/1999/xlink" x="0px" y="0px"
	 viewBox="0 0 20 20" style="enable-background:new 0 0 20 20;" xml:space="preserve">
<style type="text/css">
	.st0{fill:#B7CB76;}
</style>
<g>
	<path class="st0" d="M6.3,3.3c0-0.1,0-0.3,0-0.4c0-0.8,0-1.6,0-2.4C6.3,0.1,6.5,0,6.9,0c2.1,0,4.3,0,6.4,0c0.4,0,0.4,0.1,0.4,0.4
		c0,0.9,0,1.9,0,2.9c0.4,0,0.7,0,1.1,0c0.8,0,1.4,0.6,1.4,1.4c0,2.6,0,5.3,0,7.9c-0.1,2-0.3,4-0.4,6.1c-0.1,0.7-0.6,1.3-1.3,1.3
		c-2.9,0-5.9,0-8.8,0c-0.7,0-1.3-0.5-1.3-1.2c-0.1-1.4-0.2-2.7-0.3-4.1c-0.3-3.3-0.1-6.6-0.2-9.8c0-1,0.6-1.5,1.6-1.5
		C5.7,3.3,6,3.3,6.3,3.3z M6.3,4.2c-0.3,0-0.6,0-0.9,0c-0.5,0-0.7,0.2-0.7,0.7c0,2.4,0,4.7,0,7.1c0,0.1,0,0.3,0,0.4
		c0.1,2,0.3,4,0.4,6c0,0.5,0.2,0.7,0.7,0.7c2.8,0,5.6,0,8.4,0c0.5,0,0.7-0.2,0.7-0.7c0-0.8,0.1-1.5,0.2-2.3c0.1-1.8,0.2-3.6,0.3-5.4
		c0-1.8,0-3.7,0-5.5c0-0.2,0-0.4,0-0.5c0-0.3-0.1-0.5-0.4-0.5c-0.4,0-0.8,0-1.2,0c0,0.6,0,1.1,0,1.7c0.1,0,0.2,0,0.2,0
		c0.4,0,0.5,0.2,0.5,0.4c0,0.3-0.2,0.4-0.5,0.4c-0.1,0-0.1,0-0.2,0c-2.5,0-5,0-7.5,0c-0.1,0-0.2,0-0.3,0c-0.3,0-0.4-0.2-0.4-0.4
		c0-0.3,0.1-0.4,0.4-0.4c0.1,0,0.2,0,0.3,0C6.3,5.3,6.3,4.8,6.3,4.2z M7.2,0.9c0,1.7,0,3.3,0,5c1.9,0,3.7,0,5.6,0c0-1.7,0-3.3,0-5
		C11,0.9,9.1,0.9,7.2,0.9z"/>
	<path class="st0" d="M10,12.6c-1.1,0-2.3,0-3.4,0C6.1,12.6,6,12.5,6,12c0-1.2,0-2.3,0-3.5c0-0.5,0.1-0.6,0.6-0.6c2.3,0,4.6,0,6.8,0
		c0.5,0,0.6,0.2,0.6,0.6c0,1.2,0,2.3,0,3.5c0,0.5-0.1,0.6-0.6,0.6C12.3,12.6,11.2,12.6,10,12.6z M6.9,8.9c0,1,0,1.9,0,2.8
		c2.1,0,4.2,0,6.3,0c0-0.9,0-1.9,0-2.8C11.1,8.9,9,8.9,6.9,8.9z"/>
	<path class="st0" d="M10,16.4c-0.2,0-0.4,0-0.6,0C9.1,16.4,9,16.2,9,16c0-0.3,0.2-0.4,0.5-0.4c0.4,0,0.8,0,1.2,0
		c0.3,0,0.5,0.2,0.5,0.4c0,0.3-0.2,0.4-0.5,0.5c0,0,0,0-0.1,0C10.4,16.4,10.2,16.4,10,16.4C10,16.4,10,16.4,10,16.4z"/>
	<path class="st0" d="M10.1,18.4c-0.2,0-0.4,0-0.7,0C9.1,18.4,9,18.3,9,18c0-0.3,0.1-0.4,0.4-0.5c0.5,0,0.9,0,1.4,0
		c0.3,0,0.4,0.2,0.4,0.5c0,0.2-0.2,0.4-0.5,0.4C10.5,18.4,10.3,18.4,10.1,18.4C10.1,18.4,10.1,18.4,10.1,18.4z"/>
	<path class="st0" d="M12.9,16.4c-0.2,0-0.4,0-0.6,0c-0.3,0-0.4-0.2-0.4-0.5c0-0.3,0.2-0.4,0.4-0.4c0.4,0,0.8,0,1.3,0
		c0.3,0,0.4,0.2,0.4,0.4c0,0.3-0.1,0.4-0.4,0.5C13.3,16.4,13.1,16.4,12.9,16.4z"/>
	<path class="st0" d="M12.9,18.4c-0.2,0-0.4,0-0.6,0c-0.3,0-0.4-0.2-0.5-0.4c0-0.3,0.1-0.5,0.4-0.5c0.4,0,0.9,0,1.3,0
		c0.3,0,0.4,0.2,0.4,0.5c0,0.3-0.2,0.4-0.4,0.4C13.3,18.4,13.1,18.4,12.9,18.4z"/>
	<path class="st0" d="M7.2,16.4c-0.2,0-0.4,0-0.6,0c-0.3,0-0.5-0.2-0.5-0.4c0-0.3,0.2-0.4,0.5-0.5c0.4,0,0.8,0,1.2,0
		c0.3,0,0.5,0.2,0.5,0.4c0,0.3-0.2,0.4-0.5,0.4C7.6,16.4,7.4,16.4,7.2,16.4z"/>
	<path class="st0" d="M7.2,18.4c-0.2,0-0.4,0-0.6,0c-0.3,0-0.4-0.1-0.4-0.4c0-0.3,0.1-0.5,0.4-0.5c0.4,0,0.9,0,1.3,0
		c0.3,0,0.4,0.2,0.4,0.5c0,0.3-0.2,0.4-0.4,0.4C7.6,18.4,7.4,18.4,7.2,18.4z"/>
	<path class="st0" d="M10,14.4c-0.2,0-0.4,0-0.6,0C9.1,14.4,9,14.3,9,14c0-0.3,0.1-0.4,0.4-0.5c0.5,0,0.9,0,1.4,0
		c0.3,0,0.4,0.2,0.4,0.5c0,0.3-0.2,0.4-0.4,0.4C10.5,14.4,10.3,14.4,10,14.4z"/>
	<path class="st0" d="M12.9,14.4c-0.2,0-0.4,0-0.7,0c-0.2,0-0.4-0.2-0.4-0.4c0-0.3,0.1-0.4,0.4-0.5c0.5,0,0.9,0,1.4,0
		c0.3,0,0.4,0.2,0.4,0.5c0,0.3-0.1,0.4-0.4,0.4C13.3,14.4,13.1,14.4,12.9,14.4C12.9,14.4,12.9,14.4,12.9,14.4z"/>
	<path class="st0" d="M7.2,14.4c-0.2,0-0.4,0-0.7,0c-0.3,0-0.4-0.2-0.4-0.4c0-0.2,0.1-0.4,0.4-0.4c0.5,0,0.9,0,1.4,0
		c0.3,0,0.4,0.2,0.4,0.5c0,0.2-0.2,0.4-0.4,0.4C7.7,14.4,7.4,14.4,7.2,14.4C7.2,14.4,7.2,14.4,7.2,14.4z"/>
	<path class="st0" d="M10,4.2c-0.6,0-1.1,0-1.7,0c-0.4,0-0.6-0.4-0.4-0.6c0.1-0.1,0.3-0.2,0.4-0.2c1.1,0,2.3,0,3.4,0
		c0.3,0,0.5,0.2,0.5,0.4c0,0.3-0.2,0.4-0.5,0.4C11.1,4.2,10.5,4.2,10,4.2C10,4.2,10,4.2,10,4.2z"/>
	<path class="st0" d="M9.3,2.6c-0.3,0-0.5,0-0.8,0C8.2,2.5,8,2.4,8,2.1c0-0.3,0.1-0.4,0.4-0.5c0.5,0,1.1,0,1.6,0
		c0.3,0,0.4,0.2,0.4,0.4c0,0.3-0.1,0.4-0.4,0.4C9.8,2.6,9.5,2.6,9.3,2.6z"/>
</g>
</svg>
