<?xml version="1.0" encoding="utf-8"?>
<!-- Generator: Adobe Illustrator 24.1.3, SVG Export Plug-In . SVG Version: 6.00 Build 0)  -->
<svg version="1.1" id="Слой_1" xmlns="http://www.w3.org/2000/svg" xmlns:xlink="http://www.w3.org/1999/xlink" x="0px" y="0px"
	 viewBox="0 0 29.5 29.5" style="enable-background:new 0 0 29.5 29.5;" xml:space="preserve">
<style type="text/css">
	.st0{fill:#3D3D3D;}
</style>
<g>
	<path class="st0" d="M19.872,2.007c0.17,0,0.308,0.124,0.308,0.275v14.234l-1.418,1.844l-0.207,0.27v0.34v8.762
		c0,0.152-0.138,0.275-0.308,0.275h-7.135c-0.17,0-0.308-0.124-0.308-0.275V18.97v-0.34l-0.207-0.27l-1.418-1.844V2.283
		c0-0.152,0.138-0.275,0.308-0.275H19.872 M19.872,1.007H9.487c-0.722,0-1.308,0.571-1.308,1.275v14.574l1.625,2.113v8.762
		c0,0.704,0.585,1.275,1.308,1.275h7.135c0.722,0,1.308-0.571,1.308-1.275V18.97l1.625-2.113V2.283
		C21.179,1.578,20.594,1.007,19.872,1.007L19.872,1.007z"/>
	<path class="st0" d="M18.179,4.007v11h-7v-11H18.179 M19.179,3.007h-9v13h9V3.007L19.179,3.007z"/>
	<g>
		<polygon class="st0" points="13.179,26.007 12.179,26.007 12.179,27.007 13.179,27.007 13.179,26.007 		"/>
		<polygon class="st0" points="15.179,26.007 14.179,26.007 14.179,27.007 15.179,27.007 15.179,26.007 		"/>
		<polygon class="st0" points="17.179,26.007 16.179,26.007 16.179,27.007 17.179,27.007 17.179,26.007 		"/>
		<polygon class="st0" points="13.179,24.007 12.179,24.007 12.179,25.007 13.179,25.007 13.179,24.007 		"/>
		<polygon class="st0" points="15.179,24.007 14.179,24.007 14.179,25.007 15.179,25.007 15.179,24.007 		"/>
		<polygon class="st0" points="17.179,24.007 16.179,24.007 16.179,25.007 17.179,25.007 17.179,24.007 		"/>
		<polygon class="st0" points="13.179,22.007 12.179,22.007 12.179,23.007 13.179,23.007 13.179,22.007 		"/>
		<polygon class="st0" points="15.179,22.007 14.179,22.007 14.179,23.007 15.179,23.007 15.179,22.007 		"/>
		<polygon class="st0" points="17.179,22.007 16.179,22.007 16.179,23.007 17.179,23.007 17.179,22.007 		"/>
	</g>
	<g>
		<path class="st0" d="M15.179,17.078v1.429h1.429C16.427,17.807,15.88,17.259,15.179,17.078L15.179,17.078z"/>
		<path class="st0" d="M14.179,17.078c-0.7,0.181-1.248,0.729-1.429,1.429h1.429V17.078L14.179,17.078z"/>
		<path class="st0" d="M14.179,19.507H12.75c0.181,0.7,0.729,1.248,1.429,1.429V19.507L14.179,19.507z"/>
		<path class="st0" d="M16.608,19.507h-1.429v1.429C15.88,20.755,16.427,20.208,16.608,19.507L16.608,19.507z"/>
	</g>
</g>
</svg>
