<?xml version="1.0" encoding="utf-8"?>
<!-- Generator: Adobe Illustrator 24.0.0, SVG Export Plug-In . SVG Version: 6.00 Build 0)  -->
<svg version="1.1" id="Слой_1" xmlns="http://www.w3.org/2000/svg" xmlns:xlink="http://www.w3.org/1999/xlink" x="0px" y="0px"
	 viewBox="0 0 30 30" style="enable-background:new 0 0 30 30;" xml:space="preserve">
<style type="text/css">
	.st0{display:none;}
	.st1{display:inline;}
	.st2{fill:#3D3D3D;}
</style>
<g class="st0">
	<path class="st1" d="M19.777,15.985c-3.093,3.412-5.472,7.862-3.788,9.389s6.09,1.472,10.456-3.344s3.99-9.205,2.306-10.732
		C27.067,9.771,22.871,12.573,19.777,15.985z M20.518,16.657c3.537-3.902,6.788-5.319,7.561-4.618
		c0.773,0.701-0.32,4.075-3.857,7.976c-3.537,3.901-6.788,5.319-7.561,4.618S16.981,20.558,20.518,16.657z M18.889,25.402
		c1.888-0.782,4.185-2.632,6.074-4.715c1.889-2.083,3.505-4.55,4.099-6.506c0.15,1.91-0.935,4.505-3.358,7.178
		C23.282,24.03,20.805,25.365,18.889,25.402z"/>
	<polygon class="st1" points="22.759,18.138 17.777,13.936 17.558,13.967 17.549,14.188 22.212,18.742 21.568,20.359 21.721,20.497 
		24.458,17.478 24.305,17.339 	"/>
</g>
<g>
	<g>
		<path class="st2" d="M7,3C5.622,3,4.5,4.122,4.5,5.5S5.622,8,7,8c1.379,0,2.5-1.122,2.5-2.5S8.379,3,7,3z M7,7
			C6.173,7,5.5,6.327,5.5,5.5S6.173,4,7,4s1.5,0.673,1.5,1.5S7.827,7,7,7z"/>
		<circle class="st2" cx="7" cy="10.5" r="0.5"/>
		<circle class="st2" cx="7" cy="5.5" r="0.5"/>
	</g>
	<path class="st2" d="M28.751,11.298c-1.651-1.496-5.711,1.167-8.785,4.485l-2.19-1.847l-0.219,0.031l-0.009,0.221l2.052,2.004
		c-1.113,1.254-2.11,2.626-2.856,3.944C16.034,20.049,15.286,20,14.5,20C8,20,4,23.202,4,25.5S9.282,29,14.5,29S25,27.798,25,25.5
		c0-0.5-0.2-1.042-0.562-1.585c0.663-0.524,1.335-1.144,2.008-1.885C30.811,17.214,30.436,12.825,28.751,11.298z M20.317,16.891
		l1.895,1.851l-0.644,1.616l0.153,0.139l2.737-3.019l-0.153-0.139l-1.546,0.799l-2.027-1.71c3.453-3.724,6.59-5.077,7.347-4.39
		c0.773,0.701-0.32,4.075-3.857,7.976c-0.67,0.739-1.322,1.362-1.957,1.924c-1.164-0.714-2.673-1.309-4.477-1.644
		C18.406,19.259,19.24,18.106,20.317,16.891z M14.5,28C8.614,28,5,26.544,5,25.5S8,21,14.5,21s9.5,3.456,9.5,4.5S20.386,28,14.5,28z
		 M25.704,21.358c-0.629,0.693-1.26,1.287-1.884,1.797c-0.211-0.215-0.454-0.426-0.717-0.632c0.642-0.577,1.273-1.189,1.861-1.837
		c1.889-2.083,3.505-4.55,4.099-6.506C29.213,16.091,28.127,18.686,25.704,21.358z"/>
	<path class="st2" d="M11.5,1.5C12.327,1.5,13,2.173,13,3v13c0,0.827-0.673,1.5-1.5,1.5h-9C1.673,17.5,1,16.827,1,16V3
		c0-0.827,0.673-1.5,1.5-1.5H11.5 M11.5,0.5h-9C1.125,0.5,0,1.625,0,3v13c0,1.375,1.125,2.5,2.5,2.5h9c1.375,0,2.5-1.125,2.5-2.5V3
		C14,1.625,12.875,0.5,11.5,0.5L11.5,0.5z"/>
</g>
</svg>
