<?xml version="1.0" encoding="utf-8"?>
<!-- Generator: Adobe Illustrator 24.1.3, SVG Export Plug-In . SVG Version: 6.00 Build 0)  -->
<svg version="1.1" id="Слой_1" xmlns="http://www.w3.org/2000/svg" xmlns:xlink="http://www.w3.org/1999/xlink" x="0px" y="0px"
	 viewBox="0 0 20 20" style="enable-background:new 0 0 20 20;" xml:space="preserve">
<style type="text/css">
	.st0{fill:#B7CB76;}
</style>
<g>
	<path class="st0" d="M8.1,2.6L8.1,2.6c0.1,0.1,0.3,0.1,0.5,0c0.9-0.7,2.1-0.7,3,0c0.1,0.1,0.3,0.1,0.5,0l0,0c0.2-0.2,0.1-0.4,0-0.5
		c-1.1-0.8-2.7-0.8-3.8,0C7.9,2.2,7.9,2.5,8.1,2.6z"/>
	<path class="st0" d="M9.1,3.6L9.1,3.6c0.1,0.1,0.3,0.1,0.4,0.1c0.3-0.2,0.7-0.2,1,0c0.1,0.1,0.3,0.1,0.4-0.1l0,0
		c0.2-0.2,0.1-0.4-0.1-0.5c-0.5-0.3-1.2-0.3-1.7,0C8.9,3.2,8.9,3.5,9.1,3.6z"/>
	<path class="st0" d="M7.1,1.6L7.1,1.6c0.1,0.1,0.3,0.1,0.5,0c1.4-1.2,3.5-1.2,5,0c0.1,0.1,0.3,0.1,0.5,0l0,0c0.1-0.1,0.1-0.4,0-0.5
		c-1.7-1.4-4.2-1.4-5.9,0C6.9,1.2,6.9,1.4,7.1,1.6z"/>
	<circle class="st0" cx="10" cy="4.6" r="0.4"/>
	<g>
		<path class="st0" d="M14.8,8.5c0-1-0.6-1.6-1.5-1.6H9.7v0H9.4c-0.9,0-1.7,0-2.6,0c-1,0-1.6,0.6-1.6,1.6c0,3.3,0,6.6,0,9.9
			c0,1,0.6,1.6,1.6,1.6c2.1,0,4.3,0,6.4,0c0.2,0,0.3,0,0.5,0c0.7-0.2,1.1-0.8,1.1-1.5C14.8,15.1,14.8,11.8,14.8,8.5z M14.2,18.4
			c0,0.6-0.3,0.9-0.9,0.9c-2.2,0-4.3,0-6.5,0c-0.6,0-0.9-0.3-0.9-0.9c0-1.7,0-3.3,0-5c0-1.7,0-3.3,0-5c0-0.6,0.3-0.9,0.9-0.9
			c2.2,0,4.3,0,6.5,0c0.6,0,0.9,0.3,0.9,0.9C14.2,11.8,14.2,15.1,14.2,18.4z"/>
		<path class="st0" d="M10,14.9c-1,0-1.9,0-2.9,0c-0.3,0-0.4-0.1-0.4-0.4c0-1.7,0-3.3,0-5c0-0.3,0.1-0.5,0.5-0.5c1.9,0,3.9,0,5.8,0
			c0.3,0,0.5,0.1,0.5,0.5c0,1.7,0,3.3,0,5c0,0.3-0.1,0.4-0.4,0.4C11.9,14.9,11,14.9,10,14.9z M12.7,9.8c-1.8,0-3.5,0-5.3,0
			c0,1.5,0,3,0,4.5c0.3,0,0.5,0,0.8,0c0-0.7,0-1.3,0-2c0.2,0,0.4,0,0.7,0c0,0.7,0,1.3,0,1.9c0.3,0,0.6,0,0.9,0c0-1,0-1.9,0-2.9
			c0.2,0,0.4,0,0.7,0c0,1,0,1.9,0,2.9c0.3,0,0.6,0,0.9,0c0-0.4,0-0.8,0-1.3c0.2,0,0.4,0,0.7,0c0,0.4,0,0.9,0,1.3c0.3,0,0.5,0,0.8,0
			C12.7,12.7,12.7,11.2,12.7,9.8z"/>
		<path class="st0" d="M10.7,17.2c0,0.4-0.4,0.8-0.8,0.7c-0.4,0-0.7-0.4-0.7-0.8c0-0.4,0.3-0.7,0.8-0.7
			C10.4,16.4,10.8,16.8,10.7,17.2z"/>
	</g>
</g>
</svg>
