<?xml version="1.0" encoding="utf-8"?>
<!-- Generator: Adobe Illustrator 24.0.0, SVG Export Plug-In . SVG Version: 6.00 Build 0)  -->
<svg version="1.1" id="Слой_1" xmlns="http://www.w3.org/2000/svg" xmlns:xlink="http://www.w3.org/1999/xlink" x="0px" y="0px"
	 viewBox="0 0 30 30" style="enable-background:new 0 0 30 30;" xml:space="preserve">
<style type="text/css">
	.st0{fill:#3D3D3D;}
</style>
<g>
	<path class="st0" d="M27,0.5H3C1.622,0.5,0.5,1.622,0.5,3v24c0,1.379,1.122,2.5,2.5,2.5h24c1.379,0,2.5-1.121,2.5-2.5V3
		C29.5,1.622,28.379,0.5,27,0.5z M28.5,27c0,0.827-0.673,1.5-1.5,1.5H3c-0.827,0-1.5-0.673-1.5-1.5V3c0-0.827,0.673-1.5,1.5-1.5h24
		c0.827,0,1.5,0.673,1.5,1.5V27z"/>
	<path class="st0" d="M24,4H6C4.897,4,4,4.897,4,6v18c0,1.103,0.897,2,2,2h10.989c0.463,0,0.898-0.181,1.226-0.508l7.277-7.277
		C25.819,17.888,26,17.452,26,16.989V6C26,4.897,25.103,4,24,4z M25,16.989c0,0.196-0.076,0.38-0.215,0.519l-7.277,7.277
		C17.369,24.924,17.186,25,16.989,25H6c-0.551,0-1-0.448-1-1V6c0-0.551,0.449-1,1-1h18c0.552,0,1,0.449,1,1V16.989z"/>
	<path class="st0" d="M21.857,6.5H8.143C7.237,6.5,6.5,7.237,6.5,8.143v13.714c0,0.905,0.737,1.643,1.643,1.643h8.373
		c0.385,0,0.746-0.149,1.019-0.422l5.544-5.544c0.272-0.272,0.422-0.634,0.422-1.019V8.143C23.5,7.237,22.763,6.5,21.857,6.5z
		 M22.5,16.516c0,0.118-0.046,0.229-0.129,0.312l-5.544,5.544c-0.083,0.083-0.193,0.129-0.312,0.129H8.143
		c-0.354,0-0.643-0.288-0.643-0.643V8.143C7.5,7.789,7.789,7.5,8.143,7.5h13.714c0.354,0,0.643,0.289,0.643,0.643V16.516z"/>
	<path class="st0" d="M19.714,9h-9.428C9.577,9,9,9.577,9,10.286v9.428C9,20.423,9.577,21,10.286,21H15v-1h-4.714
		C10.131,20,10,19.869,10,19.714v-9.428C10,10.131,10.131,10,10.286,10h9.428C19.869,10,20,10.131,20,10.286V15h-1.5v-2.5
		c0-0.55-0.45-1-1-1h-5c-0.55,0-1,0.45-1,1v5c0,0.55,0.45,1,1,1h5c0.55,0,1-0.45,1-1V16H20c0.552,0,1-0.448,1-1v-4.714
		C21,9.577,20.423,9,19.714,9z"/>
</g>
</svg>
