<?xml version="1.0" encoding="utf-8"?>
<!-- Generator: Adobe Illustrator 24.1.3, SVG Export Plug-In . SVG Version: 6.00 Build 0)  -->
<svg version="1.1" id="Слой_1" xmlns="http://www.w3.org/2000/svg" xmlns:xlink="http://www.w3.org/1999/xlink" x="0px" y="0px"
	 viewBox="0 0 20 20" style="enable-background:new 0 0 20 20;" xml:space="preserve">
<style type="text/css">
	.st0{fill:#B7CB76;}
</style>
<g>
	<path class="st0" d="M16.7,1.3c0.5-0.1,1.1-0.2,1.6-0.3c0.9-0.2,1.6,0.4,1.6,1.3c0,1,0.1,2.1,0.1,3.1c0,1.1,0,2.1,0.1,3.2
		c0,0.3-0.1,0.6-0.3,0.8c-2.6,3.3-5.1,6.5-7.7,9.8c-0.4,0.5-1,0.6-1.5,0.2c-0.4-0.4-0.9-0.7-1.4-1.1c-0.2,0.2-0.3,0.4-0.4,0.6
		c-0.4,0.5-1,0.6-1.5,0.2c-2.3-1.8-4.5-3.6-6.8-5.3c-0.5-0.4-0.6-1-0.2-1.5c2.6-3.3,5.2-6.7,7.9-10C8.3,2,8.5,1.9,8.8,1.8
		c2.1-0.5,4.1-1,6.2-1.4c0.2,0,0.3-0.1,0.5-0.1c0.6,0,1.1,0.3,1.3,0.9C16.7,1.2,16.7,1.3,16.7,1.3z M19.2,2.4c0-0.7-0.3-0.9-0.9-0.7
		c-2,0.5-4.1,0.9-6.1,1.4c-0.1,0-0.3,0.1-0.4,0.3C9.2,6.5,6.7,9.8,4.1,13c-0.2,0.3-0.2,0.4,0.1,0.6c2.2,1.8,4.5,3.5,6.7,5.3
		c0.3,0.2,0.4,0.2,0.6-0.1c2.5-3.2,5.1-6.5,7.6-9.7c0.1-0.1,0.2-0.3,0.2-0.5L19.2,2.4z M16,1.5C16,1.1,15.8,0.9,15.4,1
		c-0.1,0-0.3,0-0.4,0.1C13,1.5,11,2,9,2.5c-0.1,0-0.3,0.1-0.4,0.2C6,6,3.4,9.3,0.8,12.6c-0.2,0.3-0.2,0.4,0.1,0.6
		c1.3,1,2.7,2.1,4,3.1c0.9,0.7,1.8,1.4,2.7,2.1c0.2,0.1,0.3,0.2,0.5,0c0.2-0.2,0.3-0.4,0.5-0.6c-0.1-0.1-0.1-0.1-0.2-0.2
		c-1.5-1.2-3.1-2.4-4.6-3.6c-0.6-0.4-0.6-1-0.2-1.5c2.6-3.3,5.1-6.5,7.7-9.8c0.2-0.2,0.4-0.4,0.7-0.4c0.4-0.1,0.9-0.2,1.3-0.3
		C14.2,1.9,15.1,1.7,16,1.5z"/>
	<path class="st0" d="M16.5,8.6c0,0.1-0.1,0.2-0.2,0.3c-1.4,1.8-2.8,3.5-4.2,5.3c-0.5,0.7-1.1,1.4-1.6,2.1c0,0.1-0.1,0.1-0.1,0.2
		c-0.1,0.1-0.3,0.1-0.4,0c-0.1-0.1-0.2-0.3-0.1-0.4c0,0,0.1-0.1,0.1-0.1c2-2.5,3.9-5,5.9-7.5c0.1-0.1,0.1-0.1,0.2-0.2
		C16.3,8.1,16.5,8.3,16.5,8.6z"/>
	<path class="st0" d="M15,7.2c-0.1,0.1-0.1,0.2-0.2,0.3c-2,2.5-3.9,5-5.9,7.5c-0.2,0.2-0.4,0.3-0.5,0.1c-0.2-0.1-0.2-0.3,0-0.5
		c2-2.5,3.9-5,5.9-7.5C14.4,7,14.5,6.9,14.7,7C14.8,7,14.9,7.1,15,7.2z"/>
	<path class="st0" d="M13.4,6c-0.1,0.1-0.1,0.2-0.2,0.3c-2,2.5-3.9,5-5.9,7.5C7.2,14,7,14.1,6.8,13.9c-0.2-0.1-0.2-0.3,0-0.5
		c2-2.5,3.9-5,5.9-7.5c0-0.1,0.1-0.1,0.1-0.1c0.1,0,0.3-0.1,0.4,0C13.3,5.8,13.3,5.9,13.4,6z"/>
	<path class="st0" d="M16.7,5.6c-0.5,0-1-0.5-1-1c0-0.6,0.5-1,1-1c0.5,0,1,0.5,1,1C17.7,5.2,17.3,5.6,16.7,5.6z M17.1,4.6
		c0-0.2-0.2-0.3-0.3-0.3c-0.2,0-0.3,0.2-0.3,0.3c0,0.2,0.2,0.3,0.4,0.3C16.9,5,17.1,4.8,17.1,4.6z"/>
</g>
</svg>
