<?xml version="1.0" encoding="utf-8"?>
<!-- Generator: Adobe Illustrator 24.0.0, SVG Export Plug-In . SVG Version: 6.00 Build 0)  -->
<svg version="1.1" id="Слой_1" xmlns="http://www.w3.org/2000/svg" xmlns:xlink="http://www.w3.org/1999/xlink" x="0px" y="0px"
	 viewBox="0 0 30 33" style="enable-background:new 0 0 30 33;" xml:space="preserve">
<style type="text/css">
	.st0{fill:#3D3D3D;}
</style>
<path class="st0" d="M29.5,0.5h-29v29h4.617c2.091,0.9,6.658,2.696,9.712,2.696c1.354,0,2.669-0.244,3.776-0.894
	c0.753-0.442,1.352-1.051,1.814-1.803h9.08V0.5z M18.1,30.439C15.05,32.233,9.883,30.406,7.726,29.5h11.465
	C18.88,29.874,18.52,30.193,18.1,30.439z M28.5,28.5h-7.585c0.284-0.729,0.464-1.564,0.543-2.5h0.403l1-3h3.64V6H23V5h-1.515
	c-0.006-0.032-0.012-0.059-0.018-0.093c-0.188-0.94-1.005-1.753-2.301-2.29c-2.154-0.891-5.664-1.022-7.93,0.487
	C8.691,4.801,8.761,7.731,8.929,9H7v1H4v1h3v3H4v1h3v1h3.765C11.447,16,12,15.447,12,14.765v-4.529C12,9.553,11.447,9,10.765,9
	H9.892c-0.145-0.99-0.301-3.655,1.872-5.104c1.92-1.279,5.085-1.208,7.038-0.4C19.743,3.887,20.33,4.419,20.495,5H19v1h-3.5v17h3.64
	l1,3h0.317c-0.09,0.964-0.295,1.803-0.625,2.5H1.5v-27h27V28.5z M21.807,23l-0.667,2H20.86l-0.667-2H21.807z M18.807,22H16.5V7h9v15
	h-2.307H18.807z M10.765,10C10.894,10,11,10.106,11,10.235v4.529C11,14.894,10.894,15,10.765,15H8v-5H10.765z"/>
</svg>
