<?xml version="1.0" encoding="utf-8"?>
<!-- Generator: Adobe Illustrator 24.1.3, SVG Export Plug-In . SVG Version: 6.00 Build 0)  -->
<svg version="1.1" id="Слой_1" xmlns="http://www.w3.org/2000/svg" xmlns:xlink="http://www.w3.org/1999/xlink" x="0px" y="0px"
	 viewBox="0 0 20 20" style="enable-background:new 0 0 20 20;" xml:space="preserve">
<style type="text/css">
	.st0{fill:#B7CB76;}
</style>
<g>
	<path class="st0" d="M19.6,20H0.4C0.2,20,0,19.8,0,19.6V0.4C0,0.2,0.2,0,0.4,0h19.2C19.8,0,20,0.2,20,0.4v19.2
		C20,19.8,19.8,20,19.6,20z M0.8,19.2h18.4V0.8H0.8V19.2z"/>
	<path class="st0" d="M8,10.6L8,10.6c0.1,0.1,0.3,0.1,0.5,0c0.9-0.7,2.1-0.7,3,0c0.1,0.1,0.3,0.1,0.5,0l0,0c0.2-0.2,0.1-0.4,0-0.5
		C10.8,9.1,9.2,9.2,8,10C7.9,10.2,7.9,10.4,8,10.6z"/>
	<path class="st0" d="M9,11.6L9,11.6c0.1,0.1,0.3,0.1,0.4,0.1c0.3-0.2,0.7-0.2,1,0c0.1,0.1,0.3,0.1,0.4-0.1l0,0
		c0.2-0.2,0.1-0.4-0.1-0.6c-0.6-0.3-1.2-0.3-1.8,0C8.9,11.2,8.9,11.4,9,11.6z"/>
	<path class="st0" d="M7,9.5L7,9.5c0.1,0.1,0.3,0.1,0.5,0c1.4-1.2,3.6-1.2,5,0c0.1,0.1,0.4,0.1,0.5,0l0,0c0.1-0.1,0.1-0.4,0-0.5
		c-1.7-1.4-4.2-1.4-6,0C6.9,9.2,6.9,9.4,7,9.5z"/>
</g>
</svg>
