<?xml version="1.0" encoding="utf-8"?>
<!-- Generator: Adobe Illustrator 24.0.0, SVG Export Plug-In . SVG Version: 6.00 Build 0)  -->
<svg version="1.1" id="Слой_1" xmlns="http://www.w3.org/2000/svg" xmlns:xlink="http://www.w3.org/1999/xlink" x="0px" y="0px"
	 viewBox="0 0 30 30" style="enable-background:new 0 0 30 30;" xml:space="preserve">
<style type="text/css">
	.st0{fill:#3D3D3D;}
</style>
<path class="st0" d="M29.066,19.702L25.738,6.388C25.74,6.354,25.75,6.32,25.75,6.286c0-0.629-0.47-1.168-1.253-1.619
	c-0.433-0.25-0.962-0.472-1.57-0.667C20.861,3.34,17.924,3,15,3S9.139,3.34,7.073,4c-0.608,0.194-1.137,0.417-1.57,0.667
	C4.72,5.118,4.25,5.657,4.25,6.286c0,0.035,0.01,0.068,0.012,0.102L0.934,19.702C0.799,20.121,0.5,21.094,0.5,21.5
	C0.5,24.584,6.869,27,15,27s14.5-2.416,14.5-5.5C29.5,21.094,29.201,20.121,29.066,19.702z M24.726,6.286
	c0,0.905-3.581,2.204-9.226,2.279V7.951c1.693-0.031,5.956-0.254,5.956-1.701S17.193,4.58,15.5,4.549V4.007
	C21.145,4.081,24.726,5.38,24.726,6.286z M15.5,5.466c2.855,0.049,4.552,0.493,4.976,0.784c-0.423,0.291-2.121,0.735-4.976,0.784
	c-0.168,0.003-0.324,0.01-0.5,0.01s-0.332-0.007-0.5-0.01C11.645,6.985,9.947,6.541,9.524,6.25c0.423-0.291,2.121-0.735,4.976-0.784
	c0.168-0.003,0.324-0.01,0.5-0.01S15.332,5.463,15.5,5.466z M14.5,4.007v0.542C12.807,4.58,8.543,4.803,8.543,6.25
	s4.264,1.67,5.957,1.701v0.613C8.854,8.49,5.274,7.191,5.274,6.286S8.854,4.081,14.5,4.007z M1.5,21.5c0-0.498,0.5-2,0.5-2
	L4.999,7.566C5.808,8.21,7.221,8.702,8.937,9.038l-1.888,16.05C3.595,24.202,1.5,22.807,1.5,21.5z M15,26
	c-2.63,0-4.988-0.263-6.978-0.687L9.917,9.208c1.572,0.24,3.329,0.364,5.083,0.364s3.511-0.124,5.083-0.364l1.895,16.106
	C19.988,25.737,17.63,26,15,26z M22.951,25.087l-1.888-16.05c1.716-0.336,3.129-0.828,3.938-1.471L28,19.5c0,0,0.5,1.502,0.5,2
	C28.5,22.807,26.405,24.203,22.951,25.087z"/>
</svg>
