<?xml version="1.0" encoding="utf-8"?>
<!-- Generator: Adobe Illustrator 24.1.3, SVG Export Plug-In . SVG Version: 6.00 Build 0)  -->
<svg version="1.1" id="Слой_1" xmlns="http://www.w3.org/2000/svg" xmlns:xlink="http://www.w3.org/1999/xlink" x="0px" y="0px"
	 viewBox="0 0 20 20" style="enable-background:new 0 0 20 20;" xml:space="preserve">
<style type="text/css">
	.st0{fill:#B7CB76;}
</style>
<g>
	<path class="st0" d="M10,18.8c-0.8,0-1.8,0-2.8-0.2c-3.4-0.8-5.8-2.8-6.8-6.2c-1-3.4,0.2-7.1,3.1-9.3c1.7-1.3,3.6-1.9,5.8-1.9
		c1,0,1.9,0,2.9,0c0.4,0,0.5,0.1,0.5,0.5c0,0.8,0,1.7,0,2.5c0,0.5-0.1,0.6-0.6,0.6c-1.1,0-2.3-0.1-3.4,0C6.3,5,4.6,6.1,3.8,8.2
		c-0.9,2.2,0,4.7,2,6c1,0.7,2.2,1,3.4,1c1,0,1.9,0,2.9,0c0.4,0,0.5,0.1,0.5,0.5c0,0.9,0,1.7,0,2.6c0,0.4-0.1,0.5-0.5,0.5
		C11.5,18.8,10.9,18.8,10,18.8z M9,16C9,16,9,15.9,9,16c-0.1,0-0.2,0-0.2,0c-1.3-0.1-2.4-0.4-3.5-1.2c-2.1-1.4-3.1-4-2.4-6.3
		C3.7,6,5.4,4.7,7.8,4.2C8.2,4.1,8.6,4.1,9,4c0-0.7,0-1.4,0-2.1C6,2,3.5,3.2,2,5.8c-1.8,2.9-1.7,5.9,0.2,8.7c1.6,2.4,4,3.5,6.9,3.6
		C9,17.4,9,16.7,9,16z M9.7,18.1c0.7,0,1.4,0,2.1,0c0-0.7,0-1.4,0-2.1c-0.7,0-1.4,0-2.1,0C9.7,16.7,9.7,17.4,9.7,18.1z M9.7,4
		c0.7,0,1.4,0,2.1,0c0-0.7,0-1.4,0-2.1c-0.7,0-1.4,0-2.1,0C9.7,2.6,9.7,3.3,9.7,4z"/>
	<path class="st0" d="M11,8.7c0.7,0,1.3,0,2,0c0.1,0,0.2,0,0.3,0c0.3,0,0.4,0.3,0.3,0.5c0,0.1-0.1,0.1-0.1,0.2
		c-0.8,1.5-1.6,2.9-2.4,4.4c0,0,0,0,0,0.1c-0.1,0.2-0.2,0.3-0.4,0.2c-0.2-0.1-0.3-0.2-0.3-0.4c0-0.8,0-1.5,0-2.3c0-0.1,0-0.2,0-0.3
		c-0.1,0-0.2,0-0.3,0c-0.7,0-1.4,0-2.1,0c-0.4,0-0.6-0.3-0.4-0.6c0.9-1.6,1.8-3.1,2.7-4.7c0.1-0.2,0.2-0.3,0.5-0.3
		C10.9,5.6,11,5.8,11,6c0,0.8,0,1.6,0,2.4C11,8.5,11,8.6,11,8.7z M8.4,10.4c0.5,0,1,0,1.5,0c1.2,0,1.1-0.1,1.1,1.1
		c0,0.3,0,0.5,0,0.8c0,0,0,0,0.1,0c0.5-0.9,1-1.9,1.5-2.8c0,0-0.1,0-0.1,0c-0.6,0-1.1,0-1.7,0c-0.4,0-0.5-0.1-0.5-0.5
		c0-0.5,0-1,0-1.4c0-0.1,0-0.1,0-0.2C9.6,8.3,9,9.4,8.4,10.4z"/>
	<path class="st0" d="M15.8,14.8c0.1,0.1,0.2,0.1,0.3,0.2c0.4,0.4,0.7,0.7,1.1,1.1c0.2,0.2,0.2,0.4,0,0.5c-0.1,0.1-0.4,0.1-0.5,0
		c-0.4-0.4-0.7-0.7-1.1-1.1c-0.1-0.1-0.2-0.3-0.1-0.4C15.6,14.9,15.7,14.9,15.8,14.8z"/>
	<path class="st0" d="M15.4,1.8C15.4,2,15.4,2,15.3,2.1c-0.2,0.4-0.5,0.8-0.7,1.3c-0.1,0.2-0.3,0.3-0.5,0.2C13.9,3.5,13.8,3.3,14,3
		c0.2-0.4,0.5-0.9,0.8-1.3c0.1-0.2,0.3-0.3,0.4-0.2C15.3,1.6,15.3,1.7,15.4,1.8z"/>
	<path class="st0" d="M17.4,3.3c-0.1,0.1-0.1,0.2-0.2,0.3c-0.4,0.4-0.7,0.7-1.1,1.1c-0.2,0.2-0.4,0.2-0.5,0c-0.1-0.1-0.1-0.4,0-0.5
		c0.4-0.4,0.7-0.7,1.1-1.1C16.8,3,17,2.9,17.1,3C17.2,3.1,17.3,3.2,17.4,3.3z"/>
	<path class="st0" d="M19.7,7.5c-0.1,0.1-0.1,0.2-0.3,0.2c-0.5,0.2-1,0.3-1.6,0.4c-0.2,0-0.4-0.1-0.4-0.2c-0.1-0.2,0-0.4,0.2-0.4
		c0.5-0.2,1.1-0.3,1.6-0.4C19.5,7,19.7,7.2,19.7,7.5z"/>
	<path class="st0" d="M15.4,17.8c-0.1,0.1-0.2,0.2-0.3,0.3c-0.1,0.1-0.3,0-0.4-0.1c-0.3-0.5-0.6-1-0.9-1.5c-0.1-0.2,0-0.3,0.1-0.4
		c0.2-0.1,0.3-0.1,0.4,0c0.3,0.5,0.6,1,0.9,1.6C15.4,17.7,15.4,17.7,15.4,17.8C15.4,17.8,15.4,17.8,15.4,17.8z"/>
	<path class="st0" d="M18.8,14.3c0,0.3-0.3,0.5-0.5,0.4c-0.5-0.3-1-0.5-1.4-0.8c-0.2-0.1-0.2-0.3-0.1-0.5c0.1-0.2,0.3-0.2,0.5-0.1
		c0.5,0.3,1,0.5,1.4,0.8C18.7,14.2,18.7,14.3,18.8,14.3z"/>
	<path class="st0" d="M18.8,5.3c0,0-0.1,0.2-0.2,0.2c-0.4,0.3-0.9,0.5-1.4,0.8c-0.2,0.1-0.4,0.1-0.5-0.1c-0.1-0.2-0.1-0.4,0.2-0.5
		c0.5-0.3,0.9-0.5,1.4-0.8C18.5,4.8,18.8,4.9,18.8,5.3z"/>
	<path class="st0" d="M17.8,11.4c0.2,0,0.4,0.1,0.6,0.1c0.3,0.1,0.7,0.2,1,0.3c0.2,0.1,0.3,0.2,0.3,0.4c0,0.2-0.2,0.3-0.4,0.3
		c-0.5-0.1-1.1-0.3-1.6-0.4c-0.2-0.1-0.3-0.2-0.2-0.4C17.5,11.5,17.6,11.4,17.8,11.4z"/>
	<path class="st0" d="M18.8,9.5c0.3,0,0.5,0,0.8,0c0.2,0,0.4,0.2,0.4,0.4c0,0.2-0.1,0.4-0.4,0.4c-0.5,0-1.1,0-1.6,0
		c-0.2,0-0.4-0.2-0.4-0.4c0-0.2,0.2-0.4,0.4-0.4C18.3,9.5,18.6,9.5,18.8,9.5z"/>
</g>
</svg>
