<?xml version="1.0" encoding="utf-8"?>
<!-- Generator: Adobe Illustrator 24.0.0, SVG Export Plug-In . SVG Version: 6.00 Build 0)  -->
<svg version="1.1" id="Слой_1" xmlns="http://www.w3.org/2000/svg" xmlns:xlink="http://www.w3.org/1999/xlink" x="0px" y="0px"
	 viewBox="0 0 30 30" style="enable-background:new 0 0 30 30;" xml:space="preserve">
<style type="text/css">
	.st0{fill:#3D3D3D;}
</style>
<path class="st0" d="M28.981,12.849l-1.81-0.426l1.181-1.637c0.102-0.142,0.127-0.325,0.066-0.488
	c-0.061-0.164-0.2-0.286-0.37-0.326L3.635,4.221C3.354,4.155,3.073,4.329,3.007,4.61L0.611,14.782
	C0.545,15.063,0.719,15.344,1,15.41l9.845,2.319v7.162H1.962c-0.289,0-0.523,0.234-0.523,0.523c0,0.289,0.234,0.523,0.523,0.523
	h9.405c0.289,0,0.523-0.234,0.523-0.523v-7.438l9.297,2.19c0.206,0.048,0.42-0.032,0.544-0.203l1.435-1.989l4.366,1.028
	c0.295,0.07,0.59-0.113,0.659-0.408l1.198-5.086C29.458,13.213,29.276,12.918,28.981,12.849z M21.087,19.068L1.748,14.513
	l2.156-9.155l23.142,5.451L21.087,19.068z M27.249,17.809l-3.389-0.798l2.616-3.626l1.719,0.405L27.249,17.809z"/>
</svg>
