<?xml version="1.0" encoding="utf-8"?>
<!-- Generator: Adobe Illustrator 24.1.3, SVG Export Plug-In . SVG Version: 6.00 Build 0)  -->
<svg version="1.1" id="Слой_1" xmlns="http://www.w3.org/2000/svg" xmlns:xlink="http://www.w3.org/1999/xlink" x="0px" y="0px"
	 viewBox="0 0 20 20" style="enable-background:new 0 0 20 20;" xml:space="preserve">
<style type="text/css">
	.st0{fill:#B7CB76;}
</style>
<g>
	<path class="st0" d="M1.7,5.8c-0.1,0-0.3,0-0.4,0C0.6,5.8,0,5.3,0,4.6c0-1.4,0-2.8,0-4.1C0,0.2,0.2,0,0.5,0c0.1,0,0.2,0,0.2,0
		c6.2,0,12.4,0,18.6,0C19.9,0,20,0.1,20,0.7c0,1.2,0,2.4,0,3.6c0,1-0.4,1.5-1.5,1.5c0,0-0.1,0-0.2,0c0,0.1,0,0.2,0,0.3
		c0,1.8,0,3.7,0,5.5c0,4.1-3,7.6-7,8.2c-4.5,0.7-8.8-2.4-9.5-7c-0.1-0.4-0.1-0.9-0.1-1.3c0-1.8,0-3.6,0-5.5C1.7,6.1,1.7,6,1.7,5.8z
		 M2.5,5.8c0,0.1,0,0.1,0,0.2c0,2,0,3.9,0,5.9c0,1,0.3,2,0.7,3c0.1,0.3,0.3,0.6,0.5,0.8c0,0,0,0,0.1,0c0-0.6,0-1.3,0-1.9
		c0-3.4,2.7-6.2,6.1-6.3c3.1-0.1,5.8,2.1,6.3,5.1c0.1,0.9,0.1,1.8,0.1,2.8c0,0.1,0,0.2,0,0.3c0.1,0,0.1-0.1,0.1-0.1
		c0-0.1,0.1-0.1,0.1-0.2c0.7-1.2,1-2.4,1-3.7c0-1.9,0-3.8,0-5.6c0-0.1,0-0.2,0-0.3C12.5,5.8,7.5,5.8,2.5,5.8z M4.6,15
		c0,0.5,0,1.1,0,1.6c0,0.2,0.1,0.3,0.2,0.5c2.9,2.8,7.5,2.8,10.4,0c0.2-0.2,0.2-0.3,0.2-0.6c0-0.9,0-1.8,0-2.7c0-0.3,0-0.5-0.1-0.8
		c-0.4-2.6-2.5-4.5-5.2-4.7c-2.5-0.1-4.8,1.6-5.4,4.1C4.6,13.2,4.6,15,4.6,15z M0.8,3.3c6.1,0,12.2,0,18.3,0c0-0.8,0-1.6,0-2.5
		c-6.1,0-12.2,0-18.3,0C0.8,1.7,0.8,2.5,0.8,3.3z M19.2,4.2c-6.1,0-12.2,0-18.3,0C0.8,4.7,0.9,5,1.5,5c5.7,0,11.3,0,17,0
		c0.1,0,0.2,0,0.3,0c0.2,0,0.4-0.2,0.4-0.4C19.2,4.5,19.2,4.3,19.2,4.2z"/>
	<path class="st0" d="M10,17.5c-2.1,0-3.7-1.7-3.7-3.7c0-2.1,1.7-3.8,3.8-3.7c2.1,0,3.7,1.7,3.7,3.7C13.8,15.8,12.1,17.5,10,17.5z
		 M10,16.7c1.6,0,2.9-1.3,2.9-2.9c0-1.6-1.3-2.9-2.9-2.9c-1.6,0-2.9,1.3-2.9,2.9C7.1,15.4,8.4,16.7,10,16.7z"/>
	<path class="st0" d="M8.8,13.7c0-0.7,0.6-1.3,1.3-1.2c0.7,0,1.2,0.6,1.2,1.3c0,0.7-0.6,1.2-1.2,1.2C9.3,15,8.8,14.4,8.8,13.7z
		 M10,13.3c-0.2,0-0.4,0.2-0.4,0.4c0,0.2,0.2,0.4,0.4,0.4c0.2,0,0.4-0.2,0.4-0.4C10.4,13.5,10.2,13.3,10,13.3z"/>
</g>
</svg>
