<?xml version="1.0" encoding="utf-8"?>
<!-- Generator: Adobe Illustrator 24.0.0, SVG Export Plug-In . SVG Version: 6.00 Build 0)  -->
<svg version="1.1" id="Слой_1" xmlns="http://www.w3.org/2000/svg" xmlns:xlink="http://www.w3.org/1999/xlink" x="0px" y="0px"
	 viewBox="0 0 30 30" style="enable-background:new 0 0 30 30;" xml:space="preserve">
<style type="text/css">
	.st0{fill:#3D3D3D;}
</style>
<g>
	<g>
		<path class="st0" d="M13.053,4.316H2.028c-0.772,0-1.399,0.628-1.399,1.399V24.96c0,0.772,0.628,1.4,1.399,1.4h11.024
			c0.771,0,1.399-0.628,1.399-1.4V5.715C14.451,4.943,13.824,4.316,13.053,4.316z M13.417,24.96c0,0.202-0.163,0.365-0.364,0.365
			H2.028c-0.201,0-0.365-0.163-0.365-0.365V5.715c0-0.201,0.163-0.365,0.365-0.365h11.024c0.201,0,0.364,0.163,0.364,0.365V24.96z"
			/>
		<path class="st0" d="M11.335,18.872h-7.59c-0.831,0-1.506-0.676-1.506-1.507V7.644c0-0.831,0.676-1.506,1.506-1.506h7.59
			c0.831,0,1.506,0.676,1.506,1.506v9.721C12.841,18.196,12.166,18.872,11.335,18.872z M3.745,7.149
			c-0.273,0-0.495,0.222-0.495,0.495v9.721c0,0.274,0.222,0.495,0.495,0.495h7.59c0.273,0,0.494-0.222,0.494-0.495V7.644
			c0-0.273-0.222-0.495-0.494-0.495H3.745z"/>
		<path class="st0" d="M7.282,16.741c-0.866,0-1.572-0.705-1.572-1.572s0.705-1.572,1.572-1.572s1.572,0.705,1.572,1.572
			S8.148,16.741,7.282,16.741z M7.282,14.609c-0.309,0-0.56,0.251-0.56,0.56s0.251,0.56,0.56,0.56s0.56-0.251,0.56-0.56
			S7.59,14.609,7.282,14.609z"/>
	</g>
	<path class="st0" d="M27.972,4.316H16.948c-0.772,0-1.399,0.628-1.399,1.399V24.96c0,0.772,0.628,1.4,1.399,1.4h11.024
		c0.771,0,1.399-0.628,1.399-1.4V5.715C29.371,4.943,28.744,4.316,27.972,4.316z M28.337,24.96c0,0.202-0.163,0.365-0.364,0.365
		H16.948c-0.201,0-0.365-0.163-0.365-0.365V5.715c0-0.201,0.163-0.365,0.365-0.365h11.024c0.201,0,0.364,0.163,0.364,0.365V24.96z"
		/>
	<path class="st0" d="M26.255,18.872h-7.59c-0.831,0-1.506-0.676-1.506-1.507V7.644c0-0.831,0.676-1.506,1.506-1.506h7.59
		c0.831,0,1.506,0.676,1.506,1.506v9.721C27.761,18.196,27.086,18.872,26.255,18.872z M18.665,7.149
		c-0.273,0-0.495,0.222-0.495,0.495v9.721c0,0.274,0.222,0.495,0.495,0.495h7.59c0.273,0,0.494-0.222,0.494-0.495V7.644
		c0-0.273-0.222-0.495-0.494-0.495H18.665z"/>
	<path class="st0" d="M22.202,16.741c-0.866,0-1.572-0.705-1.572-1.572s0.705-1.572,1.572-1.572s1.572,0.705,1.572,1.572
		S23.068,16.741,22.202,16.741z M22.202,14.609c-0.309,0-0.56,0.251-0.56,0.56s0.251,0.56,0.56,0.56c0.309,0,0.56-0.251,0.56-0.56
		S22.51,14.609,22.202,14.609z"/>
	<path class="st0" d="M25.124,9.308h-5.329c-0.293,0-0.533-0.24-0.533-0.533v0c0-0.293,0.24-0.533,0.533-0.533h5.329
		c0.293,0,0.533,0.24,0.533,0.533v0C25.657,9.068,25.417,9.308,25.124,9.308z"/>
</g>
</svg>
