<?xml version="1.0" encoding="utf-8"?>
<!-- Generator: Adobe Illustrator 24.1.3, SVG Export Plug-In . SVG Version: 6.00 Build 0)  -->
<svg version="1.1" id="Слой_1" xmlns="http://www.w3.org/2000/svg" xmlns:xlink="http://www.w3.org/1999/xlink" x="0px" y="0px"
	 viewBox="0 0 20 20" style="enable-background:new 0 0 20 20;" xml:space="preserve">
<style type="text/css">
	.st0{fill:#B7CB76;}
</style>
<g>
	<path class="st0" d="M2.9,13.7c0.1,0,0.2-0.1,0.3-0.1c0.3-0.2,0.6-0.4,0.8-0.8c0.2-0.3,0.3-0.7,0.3-1.1c0-0.4-0.1-0.8-0.3-1.1
		C3.8,10.3,3.6,10,3.2,9.8S2.5,9.6,2,9.6H0.4c-0.1,0-0.2,0-0.3,0.1C0,9.7,0,9.8,0,9.9v6.4c0,0.1,0,0.2,0.1,0.3
		c0.1,0.1,0.2,0.1,0.3,0.1c0.1,0,0.2,0,0.3-0.1c0.1-0.1,0.1-0.2,0.1-0.3v-2.4H2c0.1,0,0.1,0,0.2,0l1.6,2.6c0,0.1,0.1,0.1,0.1,0.1
		c0,0,0.1,0,0.2,0c0.2,0,0.3-0.1,0.3-0.2c0.1-0.1,0-0.2,0-0.4L2.9,13.7z M0.7,13.2v-2.9H2c0.3,0,0.6,0.1,0.8,0.2
		c0.2,0.1,0.4,0.3,0.6,0.5c0.1,0.2,0.2,0.5,0.2,0.8c0,0.3-0.1,0.5-0.2,0.7c-0.1,0.2-0.3,0.4-0.6,0.5c-0.2,0.1-0.5,0.2-0.8,0.2H0.7z"
		/>
	<path class="st0" d="M10.3,9.6H6.1c-0.1,0-0.2,0-0.3,0.1C5.8,9.7,5.7,9.8,5.7,9.9v6.4c0,0.1,0,0.2,0.1,0.2s0.2,0.1,0.2,0.1
		c0.1,0,0.2,0,0.3-0.1c0.1-0.1,0.1-0.2,0.1-0.2v-2.9h2.8c0.1,0,0.2,0,0.3-0.1c0.1-0.1,0.1-0.1,0.1-0.2c0-0.1,0-0.2-0.1-0.2
		c-0.1-0.1-0.2-0.1-0.3-0.1H6.5v-2.5h3.9c0.1,0,0.2,0,0.3-0.1c0.1-0.1,0.1-0.1,0.1-0.2c0-0.1,0-0.2-0.1-0.2
		C10.5,9.6,10.5,9.6,10.3,9.6z"/>
	<path class="st0" d="M12.3,9.6c-0.1,0-0.2,0-0.3,0.1C12,9.7,12,9.8,12,9.9v6.4c0,0.1,0,0.2,0.1,0.3c0.1,0.1,0.2,0.1,0.3,0.1
		c0.1,0,0.2,0,0.3-0.1c0.1-0.1,0.1-0.2,0.1-0.3V9.9c0-0.1,0-0.2-0.1-0.3C12.5,9.6,12.4,9.6,12.3,9.6z"/>
	<path class="st0" d="M19.7,11.7c-0.2-0.4-0.4-0.8-0.7-1.1c-0.3-0.3-0.7-0.6-1.1-0.7c-0.4-0.2-0.9-0.3-1.4-0.3h-1.6
		c-0.1,0-0.2,0-0.3,0.1c-0.1,0.1-0.1,0.2-0.1,0.3v6.4c0,0.1,0,0.2,0.1,0.3c0.1,0.1,0.2,0.1,0.3,0.1h1.6c0.5,0,1-0.1,1.4-0.3
		c0.4-0.2,0.8-0.4,1.1-0.7c0.3-0.3,0.6-0.7,0.7-1.1c0.2-0.4,0.3-0.9,0.3-1.4C20,12.6,19.9,12.1,19.7,11.7z M18.9,14.6
		c-0.2,0.4-0.6,0.8-1,1C17.5,15.9,17,16,16.5,16h-1.3v-5.8h1.3c0.6,0,1,0.1,1.5,0.4c0.4,0.2,0.8,0.6,1,1c0.2,0.4,0.4,0.9,0.4,1.5
		C19.3,13.7,19.2,14.2,18.9,14.6z"/>
	<path class="st0" d="M10.4,5.9L10.4,5.9c0.1,0.1,0.3,0.1,0.5,0c0.9-0.7,2.1-0.7,3,0c0.1,0.1,0.3,0.1,0.5,0l0,0
		c0.2-0.2,0.1-0.4,0-0.5c-1.1-0.8-2.7-0.8-3.8,0C10.2,5.5,10.2,5.8,10.4,5.9z"/>
	<path class="st0" d="M11.4,6.9L11.4,6.9c0.1,0.1,0.3,0.1,0.4,0.1c0.3-0.2,0.7-0.2,1,0C13,7.1,13.1,7,13.2,6.9l0,0
		c0.2-0.2,0.1-0.4-0.1-0.5c-0.5-0.3-1.2-0.3-1.7,0C11.2,6.5,11.2,6.8,11.4,6.9z"/>
	<path class="st0" d="M9.4,4.9L9.4,4.9c0.1,0.1,0.3,0.1,0.5,0c1.4-1.2,3.5-1.2,4.9,0c0.1,0.1,0.3,0.1,0.5,0l0,0
		c0.1-0.1,0.1-0.4,0-0.5C13.6,3,11.1,3,9.4,4.4C9.2,4.6,9.2,4.8,9.4,4.9z"/>
	<circle class="st0" cx="12.3" cy="8" r="0.4"/>
</g>
</svg>
