<?xml version="1.0" encoding="utf-8"?>
<!-- Generator: Adobe Illustrator 24.0.0, SVG Export Plug-In . SVG Version: 6.00 Build 0)  -->
<svg version="1.1" id="Слой_1" xmlns="http://www.w3.org/2000/svg" xmlns:xlink="http://www.w3.org/1999/xlink" x="0px" y="0px"
	 viewBox="0 0 30 30" style="enable-background:new 0 0 30 30;" xml:space="preserve">
<style type="text/css">
	.st0{fill:#3D3D3D;}
</style>
<g>
	<path class="st0" d="M4.098,15.721v3.563H3.102v-8.566h2.35c1.051,0,1.827,0.201,2.329,0.604s0.753,1.008,0.753,1.816
		c0,1.133-0.574,1.898-1.723,2.297l2.326,3.85H7.96l-2.074-3.563H4.098z M4.098,14.865h1.365c0.703,0,1.219-0.14,1.547-0.419
		s0.492-0.698,0.492-1.257c0-0.566-0.167-0.975-0.501-1.225s-0.87-0.375-1.608-0.375H4.098V14.865z"/>
	<path class="st0" d="M11.516,19.283H10.52v-8.566h4.775v0.885h-3.779v3.135h3.551v0.885h-3.551V19.283z"/>
	<path class="st0" d="M16.714,19.283v-8.566h0.997v8.566H16.714z"/>
	<path class="st0" d="M26.898,14.918c0,1.414-0.384,2.495-1.151,3.243s-1.872,1.122-3.313,1.122H20.06v-8.566h2.625
		c1.332,0,2.367,0.369,3.105,1.107S26.898,13.594,26.898,14.918z M25.843,14.953c0-1.117-0.28-1.959-0.841-2.525
		s-1.394-0.85-2.499-0.85h-1.447v6.844h1.213c1.188,0,2.08-0.292,2.678-0.876S25.843,16.098,25.843,14.953z"/>
</g>
<g>
	<path class="st0" d="M8.645,21.386c-0.006-0.006-0.011-0.013-0.017-0.019l-0.707,0.707c0.006,0.006,0.011,0.013,0.017,0.019
		c3.78,3.78,9.851,3.884,13.771,0.336l-0.707-0.707C17.472,24.881,12.035,24.775,8.645,21.386z"/>
	<path class="st0" d="M7.938,7.951l0.707,0.707c3.509-3.509,9.219-3.509,12.728,0c0.119,0.119,0.224,0.247,0.336,0.371l0.707-0.707
		c-0.112-0.124-0.216-0.252-0.336-0.371C18.181,4.052,11.837,4.051,7.938,7.951z"/>
</g>
<g>
	<path class="st0" d="M7.231,22.8c-0.006-0.006-0.011-0.013-0.017-0.019l-0.707,0.707c0.006,0.006,0.011,0.013,0.017,0.019
		c4.559,4.559,11.897,4.663,16.599,0.336l-0.707-0.707C18.105,27.073,11.4,26.969,7.231,22.8z"/>
	<path class="st0" d="M6.524,6.536l0.707,0.707c4.289-4.289,11.267-4.289,15.556,0c0.119,0.119,0.223,0.248,0.336,0.371l0.707-0.707
		c-0.113-0.123-0.216-0.252-0.336-0.371C18.815,1.857,11.202,1.858,6.524,6.536z"/>
</g>
<g>
	<path class="st0" d="M5.817,24.214c-0.006-0.006-0.011-0.013-0.017-0.019l-0.707,0.707c0.006,0.006,0.011,0.013,0.017,0.019
		c5.339,5.339,13.945,5.441,19.428,0.336L23.83,24.55C18.738,29.266,10.766,29.164,5.817,24.214z"/>
	<path class="st0" d="M5.109,5.122l0.707,0.707c5.069-5.069,13.316-5.069,18.385,0c0.119,0.119,0.222,0.249,0.336,0.371l0.707-0.707
		c-0.114-0.123-0.216-0.252-0.336-0.371C19.45-0.337,10.568-0.337,5.109,5.122z"/>
</g>
</svg>
