<?xml version="1.0" encoding="utf-8"?>
<!-- Generator: Adobe Illustrator 24.1.3, SVG Export Plug-In . SVG Version: 6.00 Build 0)  -->
<svg version="1.1" id="Слой_1" xmlns="http://www.w3.org/2000/svg" xmlns:xlink="http://www.w3.org/1999/xlink" x="0px" y="0px"
	 viewBox="0 0 20 20" style="enable-background:new 0 0 20 20;" xml:space="preserve">
<style type="text/css">
	.st0{fill:#B7CB76;}
</style>
<g>
	<path class="st0" d="M9.1,4.2h8.1c0.2,0,0.3-0.2,0.3-0.3V0.8c0-0.2-0.2-0.3-0.3-0.3H9.1c-0.2,0-0.3,0.2-0.3,0.3v3.1
		C8.8,4.1,8.9,4.2,9.1,4.2z M9.5,1.1h7.5v2.4H9.5V1.1z"/>
	<path class="st0" d="M19.7,14.1h-1l-1-7.2c-0.1-1-1-1.7-1.9-1.7H4.7c-1,0-1.8,0.7-1.9,1.7l-1,7.2H0.3c-0.2,0-0.3,0.2-0.3,0.3v4.8
		c0,0.2,0.2,0.3,0.3,0.3h19.3c0.2,0,0.3-0.2,0.3-0.3v-4.8C20,14.3,19.8,14.1,19.7,14.1z M3.5,7c0.1-0.6,0.6-1.1,1.2-1.1h11.1
		C16.4,5.9,17,6.3,17,7l1,7.1H2.5L3.5,7z M19.3,18.9H0.7v-4.1h1.4h16.3h0.9V18.9z"/>
	<path class="st0" d="M15,7.6h-3.6c-0.2,0-0.3,0.2-0.3,0.3s0.2,0.3,0.3,0.3H15c0.2,0,0.3-0.2,0.3-0.3S15.2,7.6,15,7.6z"/>
	<path class="st0" d="M9.2,7.2H4.6c-0.2,0-0.3,0.1-0.3,0.3l-0.4,5.3c0,0.1,0,0.2,0.1,0.3c0.1,0.1,0.2,0.1,0.2,0.1h5.4
		c0.1,0,0.2,0,0.2-0.1c0.1-0.1,0.1-0.2,0.1-0.3L9.5,7.5C9.5,7.4,9.3,7.2,9.2,7.2z M4.5,12.5l0.4-4.6h3.9l0.4,4.6H4.5z"/>
</g>
</svg>
